<?xml version="1.0" encoding="UTF-8" standalone="no"?><svg xmlns="http://www.w3.org/2000/svg" xmlns:xlink="http://www.w3.org/1999/xlink" contentStyleType="text/css" height="306px" preserveAspectRatio="none" style="width:799px;height:306px;background:#FFFFFF;" version="1.1" viewBox="0 0 799 306" width="799px" zoomAndPan="magnify"><defs><filter height="1" id="b7e9zoaomuktb0" width="1" x="0" y="0"><feFlood flood-color="#000000" result="flood"/><feComposite in="SourceGraphic" in2="flood" operator="over"/></filter><filter height="1" id="b7e9zoaomuktb1" width="1" x="0" y="0"><feFlood flood-color="#008000" result="flood"/><feComposite in="SourceGraphic" in2="flood" operator="over"/></filter><filter height="1" id="b7e9zoaomuktb2" width="1" x="0" y="0"><feFlood flood-color="#0000FF" result="flood"/><feComposite in="SourceGraphic" in2="flood" operator="over"/></filter></defs><g><!--MD5=[561b94a3b12cf4ecc36aefd1064dbcfd]
class ApprovalFlowUpdateAction--><a href="ApprovalFlowUpdateAction.svg" target="_top" title="ApprovalFlowUpdateAction.svg" xlink:actuate="onRequest" xlink:href="ApprovalFlowUpdateAction.svg" xlink:show="new" xlink:title="ApprovalFlowUpdateAction.svg" xlink:type="simple"><g id="elem_ApprovalFlowUpdateAction"><rect codeLine="10" fill="#F1F1F1" height="56.2969" id="ApprovalFlowUpdateAction" rx="2.5" ry="2.5" style="stroke:#181818;stroke-width:0.5;" width="218" x="108" y="12"/><ellipse cx="123" cy="28" fill="#B4A7E5" rx="11" ry="11" style="stroke:#181818;stroke-width:1.0;"/><path d="M118.9219,23.7656 L118.9219,21.6094 L126.3125,21.6094 L126.3125,23.7656 L123.8438,23.7656 L123.8438,31.8438 L126.3125,31.8438 L126.3125,34 L118.9219,34 L118.9219,31.8438 L121.3906,31.8438 L121.3906,23.7656 L118.9219,23.7656 Z " fill="#000000"/><text fill="#000000" font-family="sans-serif" font-size="14" font-style="italic" lengthAdjust="spacing" textLength="186" x="137" y="32.8467">ApprovalFlowUpdateAction</text><line style="stroke:#181818;stroke-width:0.5;" x1="109" x2="325" y1="44" y2="44"/><text fill="#000000" font-family="sans-serif" font-size="14" lengthAdjust="spacing" textLength="91" x="114" y="60.9951">action: String</text></g></a><!--MD5=[d400899adf9226c01e165ddb3c0a8f0c]
class ApprovalFlowApproveAction--><a href="ApprovalFlowApproveAction.svg" target="_top" title="ApprovalFlowApproveAction.svg" xlink:actuate="onRequest" xlink:href="ApprovalFlowApproveAction.svg" xlink:show="new" xlink:title="ApprovalFlowApproveAction.svg" xlink:type="simple"><g id="elem_ApprovalFlowApproveAction"><rect codeLine="15" fill="#F1F1F1" height="56.2969" id="ApprovalFlowApproveAction" rx="2.5" ry="2.5" style="stroke:#181818;stroke-width:0.5;" width="227" x="333" y="133.4297"/><ellipse cx="348" cy="149.4297" fill="#B4A7E5" rx="11" ry="11" style="stroke:#181818;stroke-width:1.0;"/><path d="M343.9219,145.1953 L343.9219,143.0391 L351.3125,143.0391 L351.3125,145.1953 L348.8438,145.1953 L348.8438,153.2734 L351.3125,153.2734 L351.3125,155.4297 L343.9219,155.4297 L343.9219,153.2734 L346.3906,153.2734 L346.3906,145.1953 L343.9219,145.1953 Z " fill="#000000"/><text fill="#000000" font-family="sans-serif" font-size="14" font-style="italic" lengthAdjust="spacing" textLength="195" x="362" y="154.2764">ApprovalFlowApproveAction</text><line style="stroke:#181818;stroke-width:0.5;" x1="334" x2="559" y1="165.4297" y2="165.4297"/><text fill="#000000" font-family="sans-serif" font-size="14" lengthAdjust="spacing" textLength="91" x="339" y="182.4248">action: String</text></g></a><!--MD5=[bc4c375f891b561a1844123dcc05caca]
class ApprovalFlowRejectAction--><a href="ApprovalFlowRejectAction.svg" target="_top" title="ApprovalFlowRejectAction.svg" xlink:actuate="onRequest" xlink:href="ApprovalFlowRejectAction.svg" xlink:show="new" xlink:title="ApprovalFlowRejectAction.svg" xlink:type="simple"><g id="elem_ApprovalFlowRejectAction"><rect codeLine="18" fill="#F1F1F1" height="72.5938" id="ApprovalFlowRejectAction" rx="2.5" ry="2.5" style="stroke:#181818;stroke-width:0.5;" width="212" x="580" y="133.4297"/><ellipse cx="595" cy="149.4297" fill="#B4A7E5" rx="11" ry="11" style="stroke:#181818;stroke-width:1.0;"/><path d="M590.9219,145.1953 L590.9219,143.0391 L598.3125,143.0391 L598.3125,145.1953 L595.8438,145.1953 L595.8438,153.2734 L598.3125,153.2734 L598.3125,155.4297 L590.9219,155.4297 L590.9219,153.2734 L593.3906,153.2734 L593.3906,145.1953 L590.9219,145.1953 Z " fill="#000000"/><text fill="#000000" font-family="sans-serif" font-size="14" font-style="italic" lengthAdjust="spacing" textLength="180" x="609" y="154.2764">ApprovalFlowRejectAction</text><line style="stroke:#181818;stroke-width:0.5;" x1="581" x2="791" y1="165.4297" y2="165.4297"/><text fill="#000000" font-family="sans-serif" font-size="14" lengthAdjust="spacing" textLength="91" x="586" y="182.4248">action: String</text><text fill="#000000" font-family="sans-serif" font-size="14" lengthAdjust="spacing" textLength="97" x="586" y="198.7217">reason: String</text></g></a><!--MD5=[8180ca6fa932b7ab9e7ca8b05aa42483]
class ApprovalFlowUpdate--><a href="ApprovalFlowUpdate.svg" target="_top" title="ApprovalFlowUpdate.svg" xlink:actuate="onRequest" xlink:href="ApprovalFlowUpdate.svg" xlink:show="new" xlink:title="ApprovalFlowUpdate.svg" xlink:type="simple"><g id="elem_ApprovalFlowUpdate"><rect codeLine="22" fill="#F1F1F1" height="72.5938" id="ApprovalFlowUpdate" rx="2.5" ry="2.5" style="stroke:#181818;stroke-width:0.5;" width="301" x="12" y="133.4297"/><ellipse cx="87.25" cy="149.4297" fill="#B4A7E5" rx="11" ry="11" style="stroke:#181818;stroke-width:1.0;"/><path d="M83.1719,145.1953 L83.1719,143.0391 L90.5625,143.0391 L90.5625,145.1953 L88.0938,145.1953 L88.0938,153.2734 L90.5625,153.2734 L90.5625,155.4297 L83.1719,155.4297 L83.1719,153.2734 L85.6406,153.2734 L85.6406,145.1953 L83.1719,145.1953 Z " fill="#000000"/><text fill="#000000" font-family="sans-serif" font-size="14" font-style="italic" lengthAdjust="spacing" textLength="142" x="107.75" y="154.2764">ApprovalFlowUpdate</text><line style="stroke:#181818;stroke-width:0.5;" x1="13" x2="312" y1="165.4297" y2="165.4297"/><text fill="#000000" font-family="sans-serif" font-size="14" lengthAdjust="spacing" textLength="93" x="18" y="182.4248">version: Long</text><text fill="#000000" font-family="sans-serif" font-size="14" lengthAdjust="spacing" textLength="55" x="18" y="198.7217">actions:</text><a href="ApprovalFlowUpdateAction.svg" target="_top" title="ApprovalFlowUpdateAction.svg" xlink:actuate="onRequest" xlink:href="ApprovalFlowUpdateAction.svg" xlink:show="new" xlink:title="ApprovalFlowUpdateAction.svg" xlink:type="simple"><text fill="#0000FF" font-family="sans-serif" font-size="14" lengthAdjust="spacing" text-decoration="underline" textLength="230" x="77" y="198.7217">List&lt;ApprovalFlowUpdateAction&gt;</text></a></g></a><line style="stroke:#0000FF;stroke-width:1.0;" x1="217" x2="217" y1="68.2969" y2="88.2969"/><line style="stroke:#0000FF;stroke-width:1.0;" x1="217" x2="446.5" y1="88.2969" y2="88.2969"/><line style="stroke:#0000FF;stroke-width:1.0;" x1="446.5" x2="446.5" y1="88.2969" y2="133.4297"/><polygon fill="#0000FF" points="446.5,133.4297,450.5,124.4297,446.5,128.4297,442.5,124.4297,446.5,133.4297" style="stroke:#0000FF;stroke-width:1.0;"/><text fill="#000000" font-family="sans-serif" font-size="13" lengthAdjust="spacing" textLength="103" x="341.5" y="110.3638">action : approve</text><line style="stroke:#0000FF;stroke-width:1.0;" x1="271.5" x2="271.5" y1="68.2969" y2="78.2969"/><line style="stroke:#0000FF;stroke-width:1.0;" x1="271.5" x2="686" y1="78.2969" y2="78.2969"/><line style="stroke:#0000FF;stroke-width:1.0;" x1="686" x2="686" y1="78.2969" y2="133.4297"/><polygon fill="#0000FF" points="686,133.4297,690,124.4297,686,128.4297,682,124.4297,686,133.4297" style="stroke:#0000FF;stroke-width:1.0;"/><text fill="#000000" font-family="sans-serif" font-size="13" lengthAdjust="spacing" textLength="87" x="597" y="110.3638">action : reject</text><line style="stroke:#008000;stroke-width:1.0;" x1="162.5" x2="162.5" y1="68.2969" y2="133.4297"/><polygon fill="#008000" points="162.5,133.4297,166.5,124.4297,162.5,128.4297,158.5,124.4297,162.5,133.4297" style="stroke:#008000;stroke-width:1.0;"/><text fill="#000000" font-family="sans-serif" font-size="13" lengthAdjust="spacing" textLength="46" x="114.5" y="110.3638">actions</text><rect fill="#DDDDDD" height="79.1875" id="_legend" rx="7.5" ry="7.5" style="stroke:#000000;stroke-width:1.0;" width="161" x="309.5" y="207.0234"/><text fill="#000000" font-family="sans-serif" font-size="14" font-weight="bold" lengthAdjust="spacing" textLength="5" x="314.5" y="227.0186"> </text><text fill="#000000" font-family="sans-serif" font-size="14" font-weight="bold" lengthAdjust="spacing" textLength="28" x="331.5" y="227.0186">line</text><text fill="#000000" filter="url(#b7e9zoaomuktb0)" font-family="sans-serif" font-size="14" lengthAdjust="spacing" textLength="12" x="314.5" y="243.3154">   </text><text fill="#000000" font-family="sans-serif" font-size="14" lengthAdjust="spacing" textLength="77" x="330.5" y="243.3154">inheritance</text><text fill="#000000" filter="url(#b7e9zoaomuktb1)" font-family="sans-serif" font-size="14" lengthAdjust="spacing" textLength="12" x="314.5" y="259.6123">   </text><text fill="#000000" font-family="sans-serif" font-size="14" lengthAdjust="spacing" textLength="129" x="330.5" y="259.6123">property reference</text><text fill="#000000" filter="url(#b7e9zoaomuktb2)" font-family="sans-serif" font-size="14" lengthAdjust="spacing" textLength="12" x="314.5" y="275.9092">   </text><text fill="#000000" font-family="sans-serif" font-size="14" lengthAdjust="spacing" textLength="131" x="330.5" y="275.9092">discriminated class</text><line style="stroke:#000000;stroke-width:1.0;" x1="314.5" x2="465.5" y1="214.0234" y2="214.0234"/><line style="stroke:#000000;stroke-width:1.0;" x1="314.5" x2="465.5" y1="230.3203" y2="230.3203"/><line style="stroke:#000000;stroke-width:1.0;" x1="314.5" x2="465.5" y1="246.6172" y2="246.6172"/><line style="stroke:#000000;stroke-width:1.0;" x1="314.5" x2="465.5" y1="262.9141" y2="262.9141"/><line style="stroke:#000000;stroke-width:1.0;" x1="314.5" x2="465.5" y1="279.2109" y2="279.2109"/><line style="stroke:#000000;stroke-width:1.0;" x1="314.5" x2="314.5" y1="214.0234" y2="279.2109"/><line style="stroke:#000000;stroke-width:1.0;" x1="326.5" x2="326.5" y1="214.0234" y2="279.2109"/><line style="stroke:#000000;stroke-width:1.0;" x1="465.5" x2="465.5" y1="214.0234" y2="279.2109"/><!--MD5=[dce48db94a4585158b4282793e22dca1]
@startuml
!pragma layout elk
hide empty fields
hide empty methods
legend
|= |= line |
|<back:black>   </back>| inheritance |
|<back:green>   </back>| property reference |
|<back:blue>   </back>| discriminated class |
endlegend
interface ApprovalFlowUpdateAction [[ApprovalFlowUpdateAction.svg]]  {
    action: String
}


interface ApprovalFlowApproveAction [[ApprovalFlowApproveAction.svg]]  {
    action: String
}
interface ApprovalFlowRejectAction [[ApprovalFlowRejectAction.svg]]  {
    action: String
    reason: String
}
interface ApprovalFlowUpdate [[ApprovalFlowUpdate.svg]]  {
    version: Long
    actions: [[ApprovalFlowUpdateAction.svg List<ApprovalFlowUpdateAction>]]
}
ApprovalFlowUpdateAction - -> ApprovalFlowApproveAction #blue;text:blue : "action : approve"
ApprovalFlowUpdateAction - -> ApprovalFlowRejectAction #blue;text:blue : "action : reject"
ApprovalFlowUpdateAction - -> ApprovalFlowUpdate #green;text:green : "actions"
@enduml

PlantUML version 1.2022.13(Sat Nov 19 13:22:17 UTC 2022)
(GPL source distribution)
Java Runtime: OpenJDK Runtime Environment
JVM: OpenJDK 64-Bit Server VM
Default Encoding: UTF-8
Language: en
Country: null
--></g></svg>
