<?xml version="1.0" encoding="UTF-8" standalone="no"?><svg xmlns="http://www.w3.org/2000/svg" xmlns:xlink="http://www.w3.org/1999/xlink" contentStyleType="text/css" height="356px" preserveAspectRatio="none" style="width:2210px;height:356px;background:#FFFFFF;" version="1.1" viewBox="0 0 2210 356" width="2210px" zoomAndPan="magnify"><defs><filter height="1" id="bdq8eupi46a5c0" width="1" x="0" y="0"><feFlood flood-color="#000000" result="flood"/><feComposite in="SourceGraphic" in2="flood" operator="over"/></filter><filter height="1" id="bdq8eupi46a5c1" width="1" x="0" y="0"><feFlood flood-color="#008000" result="flood"/><feComposite in="SourceGraphic" in2="flood" operator="over"/></filter><filter height="1" id="bdq8eupi46a5c2" width="1" x="0" y="0"><feFlood flood-color="#0000FF" result="flood"/><feComposite in="SourceGraphic" in2="flood" operator="over"/></filter></defs><g><!--MD5=[ada4e783f08fc12304285fce03ddc0ce]
class ApprovalRuleUpdateAction--><a href="ApprovalRuleUpdateAction.svg" target="_top" title="ApprovalRuleUpdateAction.svg" xlink:actuate="onRequest" xlink:href="ApprovalRuleUpdateAction.svg" xlink:show="new" xlink:title="ApprovalRuleUpdateAction.svg" xlink:type="simple"><g id="elem_ApprovalRuleUpdateAction"><rect codeLine="10" fill="#F1F1F1" height="56.2969" id="ApprovalRuleUpdateAction" rx="2.5" ry="2.5" style="stroke:#181818;stroke-width:0.5;" width="218" x="96.2778" y="12"/><ellipse cx="111.2778" cy="28" fill="#B4A7E5" rx="11" ry="11" style="stroke:#181818;stroke-width:1.0;"/><path d="M107.1997,23.7656 L107.1997,21.6094 L114.5903,21.6094 L114.5903,23.7656 L112.1215,23.7656 L112.1215,31.8438 L114.5903,31.8438 L114.5903,34 L107.1997,34 L107.1997,31.8438 L109.6684,31.8438 L109.6684,23.7656 L107.1997,23.7656 Z " fill="#000000"/><text fill="#000000" font-family="sans-serif" font-size="14" font-style="italic" lengthAdjust="spacing" textLength="186" x="125.2778" y="32.8467">ApprovalRuleUpdateAction</text><line style="stroke:#181818;stroke-width:0.5;" x1="97.2778" x2="313.2778" y1="44" y2="44"/><text fill="#000000" font-family="sans-serif" font-size="14" lengthAdjust="spacing" textLength="91" x="102.2778" y="60.9951">action: String</text></g></a><!--MD5=[7bd440bd35d6caa62298604c9fcace5d]
class ApprovalRuleSetApproversAction--><a href="ApprovalRuleSetApproversAction.svg" target="_top" title="ApprovalRuleSetApproversAction.svg" xlink:actuate="onRequest" xlink:href="ApprovalRuleSetApproversAction.svg" xlink:show="new" xlink:title="ApprovalRuleSetApproversAction.svg" xlink:type="simple"><g id="elem_ApprovalRuleSetApproversAction"><rect codeLine="15" fill="#F1F1F1" height="72.5938" id="ApprovalRuleSetApproversAction" rx="2.5" ry="2.5" style="stroke:#181818;stroke-width:0.5;" width="262" x="1652" y="183.4297"/><ellipse cx="1667" cy="199.4297" fill="#B4A7E5" rx="11" ry="11" style="stroke:#181818;stroke-width:1.0;"/><path d="M1662.9219,195.1953 L1662.9219,193.0391 L1670.3125,193.0391 L1670.3125,195.1953 L1667.8438,195.1953 L1667.8438,203.2734 L1670.3125,203.2734 L1670.3125,205.4297 L1662.9219,205.4297 L1662.9219,203.2734 L1665.3906,203.2734 L1665.3906,195.1953 L1662.9219,195.1953 Z " fill="#000000"/><text fill="#000000" font-family="sans-serif" font-size="14" font-style="italic" lengthAdjust="spacing" textLength="230" x="1681" y="204.2764">ApprovalRuleSetApproversAction</text><line style="stroke:#181818;stroke-width:0.5;" x1="1653" x2="1913" y1="215.4297" y2="215.4297"/><text fill="#000000" font-family="sans-serif" font-size="14" lengthAdjust="spacing" textLength="91" x="1658" y="232.4248">action: String</text><text fill="#000000" font-family="sans-serif" font-size="14" lengthAdjust="spacing" textLength="74" x="1658" y="248.7217">approvers:</text><a href="ApproverHierarchyDraft.svg" target="_top" title="ApproverHierarchyDraft.svg" xlink:actuate="onRequest" xlink:href="ApproverHierarchyDraft.svg" xlink:show="new" xlink:title="ApproverHierarchyDraft.svg" xlink:type="simple"><text fill="#0000FF" font-family="sans-serif" font-size="14" lengthAdjust="spacing" text-decoration="underline" textLength="159" x="1736" y="248.7217">ApproverHierarchyDraft</text></a></g></a><!--MD5=[75999d96b6f357ff56fb0bf51d5c2c0f]
class ApprovalRuleSetDescriptionAction--><a href="ApprovalRuleSetDescriptionAction.svg" target="_top" title="ApprovalRuleSetDescriptionAction.svg" xlink:actuate="onRequest" xlink:href="ApprovalRuleSetDescriptionAction.svg" xlink:show="new" xlink:title="ApprovalRuleSetDescriptionAction.svg" xlink:type="simple"><g id="elem_ApprovalRuleSetDescriptionAction"><rect codeLine="19" fill="#F1F1F1" height="72.5938" id="ApprovalRuleSetDescriptionAction" rx="2.5" ry="2.5" style="stroke:#181818;stroke-width:0.5;" width="269" x="1934" y="183.4297"/><ellipse cx="1949" cy="199.4297" fill="#B4A7E5" rx="11" ry="11" style="stroke:#181818;stroke-width:1.0;"/><path d="M1944.9219,195.1953 L1944.9219,193.0391 L1952.3125,193.0391 L1952.3125,195.1953 L1949.8438,195.1953 L1949.8438,203.2734 L1952.3125,203.2734 L1952.3125,205.4297 L1944.9219,205.4297 L1944.9219,203.2734 L1947.3906,203.2734 L1947.3906,195.1953 L1944.9219,195.1953 Z " fill="#000000"/><text fill="#000000" font-family="sans-serif" font-size="14" font-style="italic" lengthAdjust="spacing" textLength="237" x="1963" y="204.2764">ApprovalRuleSetDescriptionAction</text><line style="stroke:#181818;stroke-width:0.5;" x1="1935" x2="2202" y1="215.4297" y2="215.4297"/><text fill="#000000" font-family="sans-serif" font-size="14" lengthAdjust="spacing" textLength="91" x="1940" y="232.4248">action: String</text><text fill="#000000" font-family="sans-serif" font-size="14" lengthAdjust="spacing" textLength="126" x="1940" y="248.7217">description: String</text></g></a><!--MD5=[2b58dce2774a0cc14f027258ca093aa5]
class ApprovalRuleSetKeyAction--><a href="ApprovalRuleSetKeyAction.svg" target="_top" title="ApprovalRuleSetKeyAction.svg" xlink:actuate="onRequest" xlink:href="ApprovalRuleSetKeyAction.svg" xlink:show="new" xlink:title="ApprovalRuleSetKeyAction.svg" xlink:type="simple"><g id="elem_ApprovalRuleSetKeyAction"><rect codeLine="23" fill="#F1F1F1" height="72.5938" id="ApprovalRuleSetKeyAction" rx="2.5" ry="2.5" style="stroke:#181818;stroke-width:0.5;" width="217" x="12" y="183.4297"/><ellipse cx="27" cy="199.4297" fill="#B4A7E5" rx="11" ry="11" style="stroke:#181818;stroke-width:1.0;"/><path d="M22.9219,195.1953 L22.9219,193.0391 L30.3125,193.0391 L30.3125,195.1953 L27.8438,195.1953 L27.8438,203.2734 L30.3125,203.2734 L30.3125,205.4297 L22.9219,205.4297 L22.9219,203.2734 L25.3906,203.2734 L25.3906,195.1953 L22.9219,195.1953 Z " fill="#000000"/><text fill="#000000" font-family="sans-serif" font-size="14" font-style="italic" lengthAdjust="spacing" textLength="185" x="41" y="204.2764">ApprovalRuleSetKeyAction</text><line style="stroke:#181818;stroke-width:0.5;" x1="13" x2="228" y1="215.4297" y2="215.4297"/><text fill="#000000" font-family="sans-serif" font-size="14" lengthAdjust="spacing" textLength="91" x="18" y="232.4248">action: String</text><text fill="#000000" font-family="sans-serif" font-size="14" lengthAdjust="spacing" textLength="73" x="18" y="248.7217">key: String</text></g></a><!--MD5=[dc3e72bccefaf73bc25a8c675c624f2d]
class ApprovalRuleSetNameAction--><a href="ApprovalRuleSetNameAction.svg" target="_top" title="ApprovalRuleSetNameAction.svg" xlink:actuate="onRequest" xlink:href="ApprovalRuleSetNameAction.svg" xlink:show="new" xlink:title="ApprovalRuleSetNameAction.svg" xlink:type="simple"><g id="elem_ApprovalRuleSetNameAction"><rect codeLine="27" fill="#F1F1F1" height="72.5938" id="ApprovalRuleSetNameAction" rx="2.5" ry="2.5" style="stroke:#181818;stroke-width:0.5;" width="232" x="570" y="183.4297"/><ellipse cx="585" cy="199.4297" fill="#B4A7E5" rx="11" ry="11" style="stroke:#181818;stroke-width:1.0;"/><path d="M580.9219,195.1953 L580.9219,193.0391 L588.3125,193.0391 L588.3125,195.1953 L585.8438,195.1953 L585.8438,203.2734 L588.3125,203.2734 L588.3125,205.4297 L580.9219,205.4297 L580.9219,203.2734 L583.3906,203.2734 L583.3906,195.1953 L580.9219,195.1953 Z " fill="#000000"/><text fill="#000000" font-family="sans-serif" font-size="14" font-style="italic" lengthAdjust="spacing" textLength="200" x="599" y="204.2764">ApprovalRuleSetNameAction</text><line style="stroke:#181818;stroke-width:0.5;" x1="571" x2="801" y1="215.4297" y2="215.4297"/><text fill="#000000" font-family="sans-serif" font-size="14" lengthAdjust="spacing" textLength="91" x="576" y="232.4248">action: String</text><text fill="#000000" font-family="sans-serif" font-size="14" lengthAdjust="spacing" textLength="88" x="576" y="248.7217">name: String</text></g></a><!--MD5=[3928d7f798ffc3b7c77b190570e2fe11]
class ApprovalRuleSetPredicateAction--><a href="ApprovalRuleSetPredicateAction.svg" target="_top" title="ApprovalRuleSetPredicateAction.svg" xlink:actuate="onRequest" xlink:href="ApprovalRuleSetPredicateAction.svg" xlink:show="new" xlink:title="ApprovalRuleSetPredicateAction.svg" xlink:type="simple"><g id="elem_ApprovalRuleSetPredicateAction"><rect codeLine="31" fill="#F1F1F1" height="72.5938" id="ApprovalRuleSetPredicateAction" rx="2.5" ry="2.5" style="stroke:#181818;stroke-width:0.5;" width="255" x="1076" y="183.4297"/><ellipse cx="1091" cy="199.4297" fill="#B4A7E5" rx="11" ry="11" style="stroke:#181818;stroke-width:1.0;"/><path d="M1086.9219,195.1953 L1086.9219,193.0391 L1094.3125,193.0391 L1094.3125,195.1953 L1091.8438,195.1953 L1091.8438,203.2734 L1094.3125,203.2734 L1094.3125,205.4297 L1086.9219,205.4297 L1086.9219,203.2734 L1089.3906,203.2734 L1089.3906,195.1953 L1086.9219,195.1953 Z " fill="#000000"/><text fill="#000000" font-family="sans-serif" font-size="14" font-style="italic" lengthAdjust="spacing" textLength="223" x="1105" y="204.2764">ApprovalRuleSetPredicateAction</text><line style="stroke:#181818;stroke-width:0.5;" x1="1077" x2="1330" y1="215.4297" y2="215.4297"/><text fill="#000000" font-family="sans-serif" font-size="14" lengthAdjust="spacing" textLength="91" x="1082" y="232.4248">action: String</text><text fill="#000000" font-family="sans-serif" font-size="14" lengthAdjust="spacing" textLength="114" x="1082" y="248.7217">predicate: String</text></g></a><!--MD5=[fb5f785e0f8b753c06a529d3e93620ad]
class ApprovalRuleSetRequestersAction--><a href="ApprovalRuleSetRequestersAction.svg" target="_top" title="ApprovalRuleSetRequestersAction.svg" xlink:actuate="onRequest" xlink:href="ApprovalRuleSetRequestersAction.svg" xlink:show="new" xlink:title="ApprovalRuleSetRequestersAction.svg" xlink:type="simple"><g id="elem_ApprovalRuleSetRequestersAction"><rect codeLine="35" fill="#F1F1F1" height="72.5938" id="ApprovalRuleSetRequestersAction" rx="2.5" ry="2.5" style="stroke:#181818;stroke-width:0.5;" width="281" x="1351" y="183.4297"/><ellipse cx="1370.95" cy="199.4297" fill="#B4A7E5" rx="11" ry="11" style="stroke:#181818;stroke-width:1.0;"/><path d="M1366.8719,195.1953 L1366.8719,193.0391 L1374.2625,193.0391 L1374.2625,195.1953 L1371.7938,195.1953 L1371.7938,203.2734 L1374.2625,203.2734 L1374.2625,205.4297 L1366.8719,205.4297 L1366.8719,203.2734 L1369.3406,203.2734 L1369.3406,195.1953 L1366.8719,195.1953 Z " fill="#000000"/><text fill="#000000" font-family="sans-serif" font-size="14" font-style="italic" lengthAdjust="spacing" textLength="238" x="1386.05" y="204.2764">ApprovalRuleSetRequestersAction</text><line style="stroke:#181818;stroke-width:0.5;" x1="1352" x2="1631" y1="215.4297" y2="215.4297"/><text fill="#000000" font-family="sans-serif" font-size="14" lengthAdjust="spacing" textLength="91" x="1357" y="232.4248">action: String</text><text fill="#000000" font-family="sans-serif" font-size="14" lengthAdjust="spacing" textLength="81" x="1357" y="248.7217">requesters:</text><a href="RuleRequesterDraft.svg" target="_top" title="RuleRequesterDraft.svg" xlink:actuate="onRequest" xlink:href="RuleRequesterDraft.svg" xlink:show="new" xlink:title="RuleRequesterDraft.svg" xlink:type="simple"><text fill="#0000FF" font-family="sans-serif" font-size="14" lengthAdjust="spacing" text-decoration="underline" textLength="184" x="1442" y="248.7217">List&lt;RuleRequesterDraft&gt;</text></a></g></a><!--MD5=[68945ef1d1bc396cc46ead8331e61821]
class ApprovalRuleSetStatusAction--><a href="ApprovalRuleSetStatusAction.svg" target="_top" title="ApprovalRuleSetStatusAction.svg" xlink:actuate="onRequest" xlink:href="ApprovalRuleSetStatusAction.svg" xlink:show="new" xlink:title="ApprovalRuleSetStatusAction.svg" xlink:type="simple"><g id="elem_ApprovalRuleSetStatusAction"><rect codeLine="39" fill="#F1F1F1" height="72.5938" id="ApprovalRuleSetStatusAction" rx="2.5" ry="2.5" style="stroke:#181818;stroke-width:0.5;" width="234" x="822" y="183.4297"/><ellipse cx="837" cy="199.4297" fill="#B4A7E5" rx="11" ry="11" style="stroke:#181818;stroke-width:1.0;"/><path d="M832.9219,195.1953 L832.9219,193.0391 L840.3125,193.0391 L840.3125,195.1953 L837.8438,195.1953 L837.8438,203.2734 L840.3125,203.2734 L840.3125,205.4297 L832.9219,205.4297 L832.9219,203.2734 L835.3906,203.2734 L835.3906,195.1953 L832.9219,195.1953 Z " fill="#000000"/><text fill="#000000" font-family="sans-serif" font-size="14" font-style="italic" lengthAdjust="spacing" textLength="202" x="851" y="204.2764">ApprovalRuleSetStatusAction</text><line style="stroke:#181818;stroke-width:0.5;" x1="823" x2="1055" y1="215.4297" y2="215.4297"/><text fill="#000000" font-family="sans-serif" font-size="14" lengthAdjust="spacing" textLength="91" x="828" y="232.4248">action: String</text><text fill="#000000" font-family="sans-serif" font-size="14" lengthAdjust="spacing" textLength="48" x="828" y="248.7217">status:</text><a href="ApprovalRuleStatus.svg" target="_top" title="ApprovalRuleStatus.svg" xlink:actuate="onRequest" xlink:href="ApprovalRuleStatus.svg" xlink:show="new" xlink:title="ApprovalRuleStatus.svg" xlink:type="simple"><text fill="#0000FF" font-family="sans-serif" font-size="14" lengthAdjust="spacing" text-decoration="underline" textLength="134" x="880" y="248.7217">ApprovalRuleStatus</text></a></g></a><!--MD5=[82af57dc6907d3b248ff801bab27c27d]
class ApprovalRuleUpdate--><a href="ApprovalRuleUpdate.svg" target="_top" title="ApprovalRuleUpdate.svg" xlink:actuate="onRequest" xlink:href="ApprovalRuleUpdate.svg" xlink:show="new" xlink:title="ApprovalRuleUpdate.svg" xlink:type="simple"><g id="elem_ApprovalRuleUpdate"><rect codeLine="43" fill="#F1F1F1" height="72.5938" id="ApprovalRuleUpdate" rx="2.5" ry="2.5" style="stroke:#181818;stroke-width:0.5;" width="301" x="249" y="183.4297"/><ellipse cx="324.25" cy="199.4297" fill="#B4A7E5" rx="11" ry="11" style="stroke:#181818;stroke-width:1.0;"/><path d="M320.1719,195.1953 L320.1719,193.0391 L327.5625,193.0391 L327.5625,195.1953 L325.0938,195.1953 L325.0938,203.2734 L327.5625,203.2734 L327.5625,205.4297 L320.1719,205.4297 L320.1719,203.2734 L322.6406,203.2734 L322.6406,195.1953 L320.1719,195.1953 Z " fill="#000000"/><text fill="#000000" font-family="sans-serif" font-size="14" font-style="italic" lengthAdjust="spacing" textLength="142" x="344.75" y="204.2764">ApprovalRuleUpdate</text><line style="stroke:#181818;stroke-width:0.5;" x1="250" x2="549" y1="215.4297" y2="215.4297"/><text fill="#000000" font-family="sans-serif" font-size="14" lengthAdjust="spacing" textLength="93" x="255" y="232.4248">version: Long</text><text fill="#000000" font-family="sans-serif" font-size="14" lengthAdjust="spacing" textLength="55" x="255" y="248.7217">actions:</text><a href="ApprovalRuleUpdateAction.svg" target="_top" title="ApprovalRuleUpdateAction.svg" xlink:actuate="onRequest" xlink:href="ApprovalRuleUpdateAction.svg" xlink:show="new" xlink:title="ApprovalRuleUpdateAction.svg" xlink:type="simple"><text fill="#0000FF" font-family="sans-serif" font-size="14" lengthAdjust="spacing" text-decoration="underline" textLength="230" x="314" y="248.7217">List&lt;ApprovalRuleUpdateAction&gt;</text></a></g></a><line style="stroke:#0000FF;stroke-width:1.0;" x1="265.8333" x2="265.8333" y1="68.2969" y2="88.2969"/><line style="stroke:#0000FF;stroke-width:1.0;" x1="265.8333" x2="1783" y1="88.2969" y2="88.2969"/><line style="stroke:#0000FF;stroke-width:1.0;" x1="1783" x2="1783" y1="88.2969" y2="183.4297"/><polygon fill="#0000FF" points="1783,183.4297,1787,174.4297,1783,178.4297,1779,174.4297,1783,183.4297" style="stroke:#0000FF;stroke-width:1.0;"/><text fill="#000000" font-family="sans-serif" font-size="13" lengthAdjust="spacing" textLength="136" x="1645" y="160.3638">action : setApprovers</text><line style="stroke:#0000FF;stroke-width:1.0;" x1="290.0556" x2="290.0556" y1="68.2969" y2="78.2969"/><line style="stroke:#0000FF;stroke-width:1.0;" x1="290.0556" x2="2068.5" y1="78.2969" y2="78.2969"/><line style="stroke:#0000FF;stroke-width:1.0;" x1="2068.5" x2="2068.5" y1="78.2969" y2="183.4297"/><polygon fill="#0000FF" points="2068.5,183.4297,2072.5,174.4297,2068.5,178.4297,2064.5,174.4297,2068.5,183.4297" style="stroke:#0000FF;stroke-width:1.0;"/><text fill="#000000" font-family="sans-serif" font-size="13" lengthAdjust="spacing" textLength="143" x="1923.5" y="160.3638">action : setDescription</text><line style="stroke:#0000FF;stroke-width:1.0;" x1="120.5" x2="120.5" y1="68.2969" y2="183.4297"/><polygon fill="#0000FF" points="120.5,183.4297,124.5,174.4297,120.5,178.4297,116.5,174.4297,120.5,183.4297" style="stroke:#0000FF;stroke-width:1.0;"/><text fill="#000000" font-family="sans-serif" font-size="13" lengthAdjust="spacing" textLength="94" x="24.5" y="160.3638">action : setKey</text><line style="stroke:#0000FF;stroke-width:1.0;" x1="168.9444" x2="168.9444" y1="68.2969" y2="128.2969"/><line style="stroke:#0000FF;stroke-width:1.0;" x1="168.9444" x2="686" y1="128.2969" y2="128.2969"/><line style="stroke:#0000FF;stroke-width:1.0;" x1="686" x2="686" y1="128.2969" y2="183.4297"/><polygon fill="#0000FF" points="686,183.4297,690,174.4297,686,178.4297,682,174.4297,686,183.4297" style="stroke:#0000FF;stroke-width:1.0;"/><text fill="#000000" font-family="sans-serif" font-size="13" lengthAdjust="spacing" textLength="110" x="574" y="160.3638">action : setName</text><line style="stroke:#0000FF;stroke-width:1.0;" x1="217.3889" x2="217.3889" y1="68.2969" y2="108.2969"/><line style="stroke:#0000FF;stroke-width:1.0;" x1="217.3889" x2="1203.5" y1="108.2969" y2="108.2969"/><line style="stroke:#0000FF;stroke-width:1.0;" x1="1203.5" x2="1203.5" y1="108.2969" y2="183.4297"/><polygon fill="#0000FF" points="1203.5,183.4297,1207.5,174.4297,1203.5,178.4297,1199.5,174.4297,1203.5,183.4297" style="stroke:#0000FF;stroke-width:1.0;"/><text fill="#000000" font-family="sans-serif" font-size="13" lengthAdjust="spacing" textLength="131" x="1070.5" y="160.3638">action : setPredicate</text><line style="stroke:#0000FF;stroke-width:1.0;" x1="241.6111" x2="241.6111" y1="68.2969" y2="98.2969"/><line style="stroke:#0000FF;stroke-width:1.0;" x1="241.6111" x2="1491.5" y1="98.2969" y2="98.2969"/><line style="stroke:#0000FF;stroke-width:1.0;" x1="1491.5" x2="1491.5" y1="98.2969" y2="183.4297"/><polygon fill="#0000FF" points="1491.5,183.4297,1495.5,174.4297,1491.5,178.4297,1487.5,174.4297,1491.5,183.4297" style="stroke:#0000FF;stroke-width:1.0;"/><text fill="#000000" font-family="sans-serif" font-size="13" lengthAdjust="spacing" textLength="143" x="1346.5" y="160.3638">action : setRequesters</text><line style="stroke:#0000FF;stroke-width:1.0;" x1="193.1667" x2="193.1667" y1="68.2969" y2="118.2969"/><line style="stroke:#0000FF;stroke-width:1.0;" x1="193.1667" x2="939" y1="118.2969" y2="118.2969"/><line style="stroke:#0000FF;stroke-width:1.0;" x1="939" x2="939" y1="118.2969" y2="183.4297"/><polygon fill="#0000FF" points="939,183.4297,943,174.4297,939,178.4297,935,174.4297,939,183.4297" style="stroke:#0000FF;stroke-width:1.0;"/><text fill="#000000" font-family="sans-serif" font-size="13" lengthAdjust="spacing" textLength="113" x="824" y="160.3638">action : setStatus</text><line style="stroke:#008000;stroke-width:1.0;" x1="144.7222" x2="144.7222" y1="68.2969" y2="138.2969"/><line style="stroke:#008000;stroke-width:1.0;" x1="144.7222" x2="399.5" y1="138.2969" y2="138.2969"/><line style="stroke:#008000;stroke-width:1.0;" x1="399.5" x2="399.5" y1="138.2969" y2="183.4297"/><polygon fill="#008000" points="399.5,183.4297,403.5,174.4297,399.5,178.4297,395.5,174.4297,399.5,183.4297" style="stroke:#008000;stroke-width:1.0;"/><text fill="#000000" font-family="sans-serif" font-size="13" lengthAdjust="spacing" textLength="46" x="351.5" y="160.3638">actions</text><rect fill="#DDDDDD" height="79.1875" id="_legend" rx="7.5" ry="7.5" style="stroke:#000000;stroke-width:1.0;" width="161" x="1015" y="257.0234"/><text fill="#000000" font-family="sans-serif" font-size="14" font-weight="bold" lengthAdjust="spacing" textLength="5" x="1020" y="277.0186"> </text><text fill="#000000" font-family="sans-serif" font-size="14" font-weight="bold" lengthAdjust="spacing" textLength="28" x="1037" y="277.0186">line</text><text fill="#000000" filter="url(#bdq8eupi46a5c0)" font-family="sans-serif" font-size="14" lengthAdjust="spacing" textLength="12" x="1020" y="293.3154">   </text><text fill="#000000" font-family="sans-serif" font-size="14" lengthAdjust="spacing" textLength="77" x="1036" y="293.3154">inheritance</text><text fill="#000000" filter="url(#bdq8eupi46a5c1)" font-family="sans-serif" font-size="14" lengthAdjust="spacing" textLength="12" x="1020" y="309.6123">   </text><text fill="#000000" font-family="sans-serif" font-size="14" lengthAdjust="spacing" textLength="129" x="1036" y="309.6123">property reference</text><text fill="#000000" filter="url(#bdq8eupi46a5c2)" font-family="sans-serif" font-size="14" lengthAdjust="spacing" textLength="12" x="1020" y="325.9092">   </text><text fill="#000000" font-family="sans-serif" font-size="14" lengthAdjust="spacing" textLength="131" x="1036" y="325.9092">discriminated class</text><line style="stroke:#000000;stroke-width:1.0;" x1="1020" x2="1171" y1="264.0234" y2="264.0234"/><line style="stroke:#000000;stroke-width:1.0;" x1="1020" x2="1171" y1="280.3203" y2="280.3203"/><line style="stroke:#000000;stroke-width:1.0;" x1="1020" x2="1171" y1="296.6172" y2="296.6172"/><line style="stroke:#000000;stroke-width:1.0;" x1="1020" x2="1171" y1="312.9141" y2="312.9141"/><line style="stroke:#000000;stroke-width:1.0;" x1="1020" x2="1171" y1="329.2109" y2="329.2109"/><line style="stroke:#000000;stroke-width:1.0;" x1="1020" x2="1020" y1="264.0234" y2="329.2109"/><line style="stroke:#000000;stroke-width:1.0;" x1="1032" x2="1032" y1="264.0234" y2="329.2109"/><line style="stroke:#000000;stroke-width:1.0;" x1="1171" x2="1171" y1="264.0234" y2="329.2109"/><!--MD5=[43ed46ce948f87353cdf79eb14e523a5]
@startuml
!pragma layout elk
hide empty fields
hide empty methods
legend
|= |= line |
|<back:black>   </back>| inheritance |
|<back:green>   </back>| property reference |
|<back:blue>   </back>| discriminated class |
endlegend
interface ApprovalRuleUpdateAction [[ApprovalRuleUpdateAction.svg]]  {
    action: String
}


interface ApprovalRuleSetApproversAction [[ApprovalRuleSetApproversAction.svg]]  {
    action: String
    approvers: [[ApproverHierarchyDraft.svg ApproverHierarchyDraft]]
}
interface ApprovalRuleSetDescriptionAction [[ApprovalRuleSetDescriptionAction.svg]]  {
    action: String
    description: String
}
interface ApprovalRuleSetKeyAction [[ApprovalRuleSetKeyAction.svg]]  {
    action: String
    key: String
}
interface ApprovalRuleSetNameAction [[ApprovalRuleSetNameAction.svg]]  {
    action: String
    name: String
}
interface ApprovalRuleSetPredicateAction [[ApprovalRuleSetPredicateAction.svg]]  {
    action: String
    predicate: String
}
interface ApprovalRuleSetRequestersAction [[ApprovalRuleSetRequestersAction.svg]]  {
    action: String
    requesters: [[RuleRequesterDraft.svg List<RuleRequesterDraft>]]
}
interface ApprovalRuleSetStatusAction [[ApprovalRuleSetStatusAction.svg]]  {
    action: String
    status: [[ApprovalRuleStatus.svg ApprovalRuleStatus]]
}
interface ApprovalRuleUpdate [[ApprovalRuleUpdate.svg]]  {
    version: Long
    actions: [[ApprovalRuleUpdateAction.svg List<ApprovalRuleUpdateAction>]]
}
ApprovalRuleUpdateAction - -> ApprovalRuleSetApproversAction #blue;text:blue : "action : setApprovers"
ApprovalRuleUpdateAction - -> ApprovalRuleSetDescriptionAction #blue;text:blue : "action : setDescription"
ApprovalRuleUpdateAction - -> ApprovalRuleSetKeyAction #blue;text:blue : "action : setKey"
ApprovalRuleUpdateAction - -> ApprovalRuleSetNameAction #blue;text:blue : "action : setName"
ApprovalRuleUpdateAction - -> ApprovalRuleSetPredicateAction #blue;text:blue : "action : setPredicate"
ApprovalRuleUpdateAction - -> ApprovalRuleSetRequestersAction #blue;text:blue : "action : setRequesters"
ApprovalRuleUpdateAction - -> ApprovalRuleSetStatusAction #blue;text:blue : "action : setStatus"
ApprovalRuleUpdateAction - -> ApprovalRuleUpdate #green;text:green : "actions"
@enduml

PlantUML version 1.2022.13(Sat Nov 19 13:22:17 UTC 2022)
(GPL source distribution)
Java Runtime: OpenJDK Runtime Environment
JVM: OpenJDK 64-Bit Server VM
Default Encoding: UTF-8
Language: en
Country: null
--></g></svg>
