<?xml version="1.0" encoding="UTF-8" standalone="no"?><svg xmlns="http://www.w3.org/2000/svg" xmlns:xlink="http://www.w3.org/1999/xlink" contentStyleType="text/css" height="342px" preserveAspectRatio="none" style="width:1408px;height:342px;background:#FFFFFF;" version="1.1" viewBox="0 0 1408 342" width="1408px" zoomAndPan="magnify"><defs><filter height="1" id="b1fhh7p3pjlwgz0" width="1" x="0" y="0"><feFlood flood-color="#000000" result="flood"/><feComposite in="SourceGraphic" in2="flood" operator="over"/></filter><filter height="1" id="b1fhh7p3pjlwgz1" width="1" x="0" y="0"><feFlood flood-color="#008000" result="flood"/><feComposite in="SourceGraphic" in2="flood" operator="over"/></filter><filter height="1" id="b1fhh7p3pjlwgz2" width="1" x="0" y="0"><feFlood flood-color="#0000FF" result="flood"/><feComposite in="SourceGraphic" in2="flood" operator="over"/></filter></defs><g><!--MD5=[561b94a3b12cf4ecc36aefd1064dbcfd]
class ApprovalFlowUpdateAction--><a href="ApprovalFlowUpdateAction.svg" target="_top" title="ApprovalFlowUpdateAction.svg" xlink:actuate="onRequest" xlink:href="ApprovalFlowUpdateAction.svg" xlink:show="new" xlink:title="ApprovalFlowUpdateAction.svg" xlink:type="simple"><g id="elem_ApprovalFlowUpdateAction"><rect codeLine="10" fill="#F1F1F1" height="56.2969" id="ApprovalFlowUpdateAction" rx="2.5" ry="2.5" style="stroke:#181818;stroke-width:0.5;" width="218" x="127.6667" y="12"/><ellipse cx="142.6667" cy="28" fill="#B4A7E5" rx="11" ry="11" style="stroke:#181818;stroke-width:1.0;"/><path d="M138.5885,23.7656 L138.5885,21.6094 L145.9792,21.6094 L145.9792,23.7656 L143.5104,23.7656 L143.5104,31.8438 L145.9792,31.8438 L145.9792,34 L138.5885,34 L138.5885,31.8438 L141.0573,31.8438 L141.0573,23.7656 L138.5885,23.7656 Z " fill="#000000"/><text fill="#000000" font-family="sans-serif" font-size="14" font-style="italic" lengthAdjust="spacing" textLength="186" x="156.6667" y="32.8467">ApprovalFlowUpdateAction</text><line style="stroke:#181818;stroke-width:0.5;" x1="128.6667" x2="344.6667" y1="44" y2="44"/><text fill="#000000" font-family="sans-serif" font-size="14" lengthAdjust="spacing" textLength="91" x="133.6667" y="60.9951">action: String</text></g></a><!--MD5=[d400899adf9226c01e165ddb3c0a8f0c]
class ApprovalFlowApproveAction--><a href="ApprovalFlowApproveAction.svg" target="_top" title="ApprovalFlowApproveAction.svg" xlink:actuate="onRequest" xlink:href="ApprovalFlowApproveAction.svg" xlink:show="new" xlink:title="ApprovalFlowApproveAction.svg" xlink:type="simple"><g id="elem_ApprovalFlowApproveAction"><rect codeLine="15" fill="#F1F1F1" height="56.2969" id="ApprovalFlowApproveAction" rx="2.5" ry="2.5" style="stroke:#181818;stroke-width:0.5;" width="227" x="942" y="153.4297"/><ellipse cx="957" cy="169.4297" fill="#B4A7E5" rx="11" ry="11" style="stroke:#181818;stroke-width:1.0;"/><path d="M952.9219,165.1953 L952.9219,163.0391 L960.3125,163.0391 L960.3125,165.1953 L957.8438,165.1953 L957.8438,173.2734 L960.3125,173.2734 L960.3125,175.4297 L952.9219,175.4297 L952.9219,173.2734 L955.3906,173.2734 L955.3906,165.1953 L952.9219,165.1953 Z " fill="#000000"/><text fill="#000000" font-family="sans-serif" font-size="14" font-style="italic" lengthAdjust="spacing" textLength="195" x="971" y="174.2764">ApprovalFlowApproveAction</text><line style="stroke:#181818;stroke-width:0.5;" x1="943" x2="1168" y1="185.4297" y2="185.4297"/><text fill="#000000" font-family="sans-serif" font-size="14" lengthAdjust="spacing" textLength="91" x="948" y="202.4248">action: String</text></g></a><!--MD5=[bc4c375f891b561a1844123dcc05caca]
class ApprovalFlowRejectAction--><a href="ApprovalFlowRejectAction.svg" target="_top" title="ApprovalFlowRejectAction.svg" xlink:actuate="onRequest" xlink:href="ApprovalFlowRejectAction.svg" xlink:show="new" xlink:title="ApprovalFlowRejectAction.svg" xlink:type="simple"><g id="elem_ApprovalFlowRejectAction"><rect codeLine="18" fill="#F1F1F1" height="72.5938" id="ApprovalFlowRejectAction" rx="2.5" ry="2.5" style="stroke:#181818;stroke-width:0.5;" width="212" x="1189" y="153.4297"/><ellipse cx="1204" cy="169.4297" fill="#B4A7E5" rx="11" ry="11" style="stroke:#181818;stroke-width:1.0;"/><path d="M1199.9219,165.1953 L1199.9219,163.0391 L1207.3125,163.0391 L1207.3125,165.1953 L1204.8438,165.1953 L1204.8438,173.2734 L1207.3125,173.2734 L1207.3125,175.4297 L1199.9219,175.4297 L1199.9219,173.2734 L1202.3906,173.2734 L1202.3906,165.1953 L1199.9219,165.1953 Z " fill="#000000"/><text fill="#000000" font-family="sans-serif" font-size="14" font-style="italic" lengthAdjust="spacing" textLength="180" x="1218" y="174.2764">ApprovalFlowRejectAction</text><line style="stroke:#181818;stroke-width:0.5;" x1="1190" x2="1400" y1="185.4297" y2="185.4297"/><text fill="#000000" font-family="sans-serif" font-size="14" lengthAdjust="spacing" textLength="91" x="1195" y="202.4248">action: String</text><text fill="#000000" font-family="sans-serif" font-size="14" lengthAdjust="spacing" textLength="97" x="1195" y="218.7217">reason: String</text></g></a><!--MD5=[75b9f13c722da9e2a01c125c1c133f75]
class ApprovalFlowSetCustomFieldAction--><a href="ApprovalFlowSetCustomFieldAction.svg" target="_top" title="ApprovalFlowSetCustomFieldAction.svg" xlink:actuate="onRequest" xlink:href="ApprovalFlowSetCustomFieldAction.svg" xlink:show="new" xlink:title="ApprovalFlowSetCustomFieldAction.svg" xlink:type="simple"><g id="elem_ApprovalFlowSetCustomFieldAction"><rect codeLine="22" fill="#F1F1F1" height="88.8906" id="ApprovalFlowSetCustomFieldAction" rx="2.5" ry="2.5" style="stroke:#181818;stroke-width:0.5;" width="276" x="26" y="153.4297"/><ellipse cx="41" cy="169.4297" fill="#B4A7E5" rx="11" ry="11" style="stroke:#181818;stroke-width:1.0;"/><path d="M36.9219,165.1953 L36.9219,163.0391 L44.3125,163.0391 L44.3125,165.1953 L41.8438,165.1953 L41.8438,173.2734 L44.3125,173.2734 L44.3125,175.4297 L36.9219,175.4297 L36.9219,173.2734 L39.3906,173.2734 L39.3906,165.1953 L36.9219,165.1953 Z " fill="#000000"/><text fill="#000000" font-family="sans-serif" font-size="14" font-style="italic" lengthAdjust="spacing" textLength="244" x="55" y="174.2764">ApprovalFlowSetCustomFieldAction</text><line style="stroke:#181818;stroke-width:0.5;" x1="27" x2="301" y1="185.4297" y2="185.4297"/><text fill="#000000" font-family="sans-serif" font-size="14" lengthAdjust="spacing" textLength="91" x="32" y="202.4248">action: String</text><text fill="#000000" font-family="sans-serif" font-size="14" lengthAdjust="spacing" textLength="88" x="32" y="218.7217">name: String</text><text fill="#000000" font-family="sans-serif" font-size="14" lengthAdjust="spacing" textLength="41" x="32" y="235.0186">value:</text><a href="Object.svg" target="_top" title="Object.svg" xlink:actuate="onRequest" xlink:href="Object.svg" xlink:show="new" xlink:title="Object.svg" xlink:type="simple"><text fill="#0000FF" font-family="sans-serif" font-size="14" lengthAdjust="spacing" text-decoration="underline" textLength="45" x="77" y="235.0186">Object</text></a></g></a><!--MD5=[cf7fb5f178bf90eff50dcba46bc87740]
class ApprovalFlowSetCustomTypeAction--><a href="ApprovalFlowSetCustomTypeAction.svg" target="_top" title="ApprovalFlowSetCustomTypeAction.svg" xlink:actuate="onRequest" xlink:href="ApprovalFlowSetCustomTypeAction.svg" xlink:show="new" xlink:title="ApprovalFlowSetCustomTypeAction.svg" xlink:type="simple"><g id="elem_ApprovalFlowSetCustomTypeAction"><rect codeLine="27" fill="#F1F1F1" height="88.8906" id="ApprovalFlowSetCustomTypeAction" rx="2.5" ry="2.5" style="stroke:#181818;stroke-width:0.5;" width="279" x="322" y="153.4297"/><ellipse cx="337" cy="169.4297" fill="#B4A7E5" rx="11" ry="11" style="stroke:#181818;stroke-width:1.0;"/><path d="M332.9219,165.1953 L332.9219,163.0391 L340.3125,163.0391 L340.3125,165.1953 L337.8438,165.1953 L337.8438,173.2734 L340.3125,173.2734 L340.3125,175.4297 L332.9219,175.4297 L332.9219,173.2734 L335.3906,173.2734 L335.3906,165.1953 L332.9219,165.1953 Z " fill="#000000"/><text fill="#000000" font-family="sans-serif" font-size="14" font-style="italic" lengthAdjust="spacing" textLength="247" x="351" y="174.2764">ApprovalFlowSetCustomTypeAction</text><line style="stroke:#181818;stroke-width:0.5;" x1="323" x2="600" y1="185.4297" y2="185.4297"/><text fill="#000000" font-family="sans-serif" font-size="14" lengthAdjust="spacing" textLength="91" x="328" y="202.4248">action: String</text><text fill="#000000" font-family="sans-serif" font-size="14" lengthAdjust="spacing" textLength="35" x="328" y="218.7217">type:</text><a href="TypeResourceIdentifier.svg" target="_top" title="TypeResourceIdentifier.svg" xlink:actuate="onRequest" xlink:href="TypeResourceIdentifier.svg" xlink:show="new" xlink:title="TypeResourceIdentifier.svg" xlink:type="simple"><text fill="#0000FF" font-family="sans-serif" font-size="14" lengthAdjust="spacing" text-decoration="underline" textLength="160" x="367" y="218.7217">TypeResourceIdentifier</text></a><text fill="#000000" font-family="sans-serif" font-size="14" lengthAdjust="spacing" textLength="41" x="328" y="235.0186">fields:</text><a href="FieldContainer.svg" target="_top" title="FieldContainer.svg" xlink:actuate="onRequest" xlink:href="FieldContainer.svg" xlink:show="new" xlink:title="FieldContainer.svg" xlink:type="simple"><text fill="#0000FF" font-family="sans-serif" font-size="14" lengthAdjust="spacing" text-decoration="underline" textLength="99" x="373" y="235.0186">FieldContainer</text></a></g></a><!--MD5=[8180ca6fa932b7ab9e7ca8b05aa42483]
class ApprovalFlowUpdate--><a href="ApprovalFlowUpdate.svg" target="_top" title="ApprovalFlowUpdate.svg" xlink:actuate="onRequest" xlink:href="ApprovalFlowUpdate.svg" xlink:show="new" xlink:title="ApprovalFlowUpdate.svg" xlink:type="simple"><g id="elem_ApprovalFlowUpdate"><rect codeLine="32" fill="#F1F1F1" height="72.5938" id="ApprovalFlowUpdate" rx="2.5" ry="2.5" style="stroke:#181818;stroke-width:0.5;" width="301" x="621" y="153.4297"/><ellipse cx="696.25" cy="169.4297" fill="#B4A7E5" rx="11" ry="11" style="stroke:#181818;stroke-width:1.0;"/><path d="M692.1719,165.1953 L692.1719,163.0391 L699.5625,163.0391 L699.5625,165.1953 L697.0938,165.1953 L697.0938,173.2734 L699.5625,173.2734 L699.5625,175.4297 L692.1719,175.4297 L692.1719,173.2734 L694.6406,173.2734 L694.6406,165.1953 L692.1719,165.1953 Z " fill="#000000"/><text fill="#000000" font-family="sans-serif" font-size="14" font-style="italic" lengthAdjust="spacing" textLength="142" x="716.75" y="174.2764">ApprovalFlowUpdate</text><line style="stroke:#181818;stroke-width:0.5;" x1="622" x2="921" y1="185.4297" y2="185.4297"/><text fill="#000000" font-family="sans-serif" font-size="14" lengthAdjust="spacing" textLength="93" x="627" y="202.4248">version: Long</text><text fill="#000000" font-family="sans-serif" font-size="14" lengthAdjust="spacing" textLength="55" x="627" y="218.7217">actions:</text><a href="ApprovalFlowUpdateAction.svg" target="_top" title="ApprovalFlowUpdateAction.svg" xlink:actuate="onRequest" xlink:href="ApprovalFlowUpdateAction.svg" xlink:show="new" xlink:title="ApprovalFlowUpdateAction.svg" xlink:type="simple"><text fill="#0000FF" font-family="sans-serif" font-size="14" lengthAdjust="spacing" text-decoration="underline" textLength="230" x="686" y="218.7217">List&lt;ApprovalFlowUpdateAction&gt;</text></a></g></a><line style="stroke:#0000FF;stroke-width:1.0;" x1="273" x2="273" y1="68.2969" y2="88.2969"/><line style="stroke:#0000FF;stroke-width:1.0;" x1="273" x2="1055.5" y1="88.2969" y2="88.2969"/><line style="stroke:#0000FF;stroke-width:1.0;" x1="1055.5" x2="1055.5" y1="88.2969" y2="153.4297"/><polygon fill="#0000FF" points="1055.5,153.4297,1059.5,144.4297,1055.5,148.4297,1051.5,144.4297,1055.5,153.4297" style="stroke:#0000FF;stroke-width:1.0;"/><text fill="#000000" font-family="sans-serif" font-size="13" lengthAdjust="spacing" textLength="103" x="950.5" y="130.3638">action : approve</text><line style="stroke:#0000FF;stroke-width:1.0;" x1="309.3333" x2="309.3333" y1="68.2969" y2="78.2969"/><line style="stroke:#0000FF;stroke-width:1.0;" x1="309.3333" x2="1295" y1="78.2969" y2="78.2969"/><line style="stroke:#0000FF;stroke-width:1.0;" x1="1295" x2="1295" y1="78.2969" y2="153.4297"/><polygon fill="#0000FF" points="1295,153.4297,1299,144.4297,1295,148.4297,1291,144.4297,1295,153.4297" style="stroke:#0000FF;stroke-width:1.0;"/><text fill="#000000" font-family="sans-serif" font-size="13" lengthAdjust="spacing" textLength="87" x="1206" y="130.3638">action : reject</text><line style="stroke:#0000FF;stroke-width:1.0;" x1="164" x2="164" y1="68.2969" y2="153.4297"/><polygon fill="#0000FF" points="164,153.4297,168,144.4297,164,148.4297,160,144.4297,164,153.4297" style="stroke:#0000FF;stroke-width:1.0;"/><text fill="#000000" font-family="sans-serif" font-size="13" lengthAdjust="spacing" textLength="150" x="12" y="130.3638">action : setCustomField</text><line style="stroke:#0000FF;stroke-width:1.0;" x1="200.3333" x2="200.3333" y1="68.2969" y2="108.2969"/><line style="stroke:#0000FF;stroke-width:1.0;" x1="200.3333" x2="461.5" y1="108.2969" y2="108.2969"/><line style="stroke:#0000FF;stroke-width:1.0;" x1="461.5" x2="461.5" y1="108.2969" y2="153.4297"/><polygon fill="#0000FF" points="461.5,153.4297,465.5,144.4297,461.5,148.4297,457.5,144.4297,461.5,153.4297" style="stroke:#0000FF;stroke-width:1.0;"/><text fill="#000000" font-family="sans-serif" font-size="13" lengthAdjust="spacing" textLength="151" x="308.5" y="130.3638">action : setCustomType</text><line style="stroke:#008000;stroke-width:1.0;" x1="236.6667" x2="236.6667" y1="68.2969" y2="98.2969"/><line style="stroke:#008000;stroke-width:1.0;" x1="236.6667" x2="771.5" y1="98.2969" y2="98.2969"/><line style="stroke:#008000;stroke-width:1.0;" x1="771.5" x2="771.5" y1="98.2969" y2="153.4297"/><polygon fill="#008000" points="771.5,153.4297,775.5,144.4297,771.5,148.4297,767.5,144.4297,771.5,153.4297" style="stroke:#008000;stroke-width:1.0;"/><text fill="#000000" font-family="sans-serif" font-size="13" lengthAdjust="spacing" textLength="46" x="723.5" y="130.3638">actions</text><rect fill="#DDDDDD" height="79.1875" id="_legend" rx="7.5" ry="7.5" style="stroke:#000000;stroke-width:1.0;" width="161" x="613.5" y="243.3203"/><text fill="#000000" font-family="sans-serif" font-size="14" font-weight="bold" lengthAdjust="spacing" textLength="5" x="618.5" y="263.3154"> </text><text fill="#000000" font-family="sans-serif" font-size="14" font-weight="bold" lengthAdjust="spacing" textLength="28" x="635.5" y="263.3154">line</text><text fill="#000000" filter="url(#b1fhh7p3pjlwgz0)" font-family="sans-serif" font-size="14" lengthAdjust="spacing" textLength="12" x="618.5" y="279.6123">   </text><text fill="#000000" font-family="sans-serif" font-size="14" lengthAdjust="spacing" textLength="77" x="634.5" y="279.6123">inheritance</text><text fill="#000000" filter="url(#b1fhh7p3pjlwgz1)" font-family="sans-serif" font-size="14" lengthAdjust="spacing" textLength="12" x="618.5" y="295.9092">   </text><text fill="#000000" font-family="sans-serif" font-size="14" lengthAdjust="spacing" textLength="129" x="634.5" y="295.9092">property reference</text><text fill="#000000" filter="url(#b1fhh7p3pjlwgz2)" font-family="sans-serif" font-size="14" lengthAdjust="spacing" textLength="12" x="618.5" y="312.2061">   </text><text fill="#000000" font-family="sans-serif" font-size="14" lengthAdjust="spacing" textLength="131" x="634.5" y="312.2061">discriminated class</text><line style="stroke:#000000;stroke-width:1.0;" x1="618.5" x2="769.5" y1="250.3203" y2="250.3203"/><line style="stroke:#000000;stroke-width:1.0;" x1="618.5" x2="769.5" y1="266.6172" y2="266.6172"/><line style="stroke:#000000;stroke-width:1.0;" x1="618.5" x2="769.5" y1="282.9141" y2="282.9141"/><line style="stroke:#000000;stroke-width:1.0;" x1="618.5" x2="769.5" y1="299.2109" y2="299.2109"/><line style="stroke:#000000;stroke-width:1.0;" x1="618.5" x2="769.5" y1="315.5078" y2="315.5078"/><line style="stroke:#000000;stroke-width:1.0;" x1="618.5" x2="618.5" y1="250.3203" y2="315.5078"/><line style="stroke:#000000;stroke-width:1.0;" x1="630.5" x2="630.5" y1="250.3203" y2="315.5078"/><line style="stroke:#000000;stroke-width:1.0;" x1="769.5" x2="769.5" y1="250.3203" y2="315.5078"/><!--MD5=[962313b7494db1421e38ff2419496d1f]
@startuml
!pragma layout elk
hide empty fields
hide empty methods
legend
|= |= line |
|<back:black>   </back>| inheritance |
|<back:green>   </back>| property reference |
|<back:blue>   </back>| discriminated class |
endlegend
interface ApprovalFlowUpdateAction [[ApprovalFlowUpdateAction.svg]]  {
    action: String
}


interface ApprovalFlowApproveAction [[ApprovalFlowApproveAction.svg]]  {
    action: String
}
interface ApprovalFlowRejectAction [[ApprovalFlowRejectAction.svg]]  {
    action: String
    reason: String
}
interface ApprovalFlowSetCustomFieldAction [[ApprovalFlowSetCustomFieldAction.svg]]  {
    action: String
    name: String
    value: [[Object.svg Object]]
}
interface ApprovalFlowSetCustomTypeAction [[ApprovalFlowSetCustomTypeAction.svg]]  {
    action: String
    type: [[TypeResourceIdentifier.svg TypeResourceIdentifier]]
    fields: [[FieldContainer.svg FieldContainer]]
}
interface ApprovalFlowUpdate [[ApprovalFlowUpdate.svg]]  {
    version: Long
    actions: [[ApprovalFlowUpdateAction.svg List<ApprovalFlowUpdateAction>]]
}
ApprovalFlowUpdateAction - -> ApprovalFlowApproveAction #blue;text:blue : "action : approve"
ApprovalFlowUpdateAction - -> ApprovalFlowRejectAction #blue;text:blue : "action : reject"
ApprovalFlowUpdateAction - -> ApprovalFlowSetCustomFieldAction #blue;text:blue : "action : setCustomField"
ApprovalFlowUpdateAction - -> ApprovalFlowSetCustomTypeAction #blue;text:blue : "action : setCustomType"
ApprovalFlowUpdateAction - -> ApprovalFlowUpdate #green;text:green : "actions"
@enduml

PlantUML version 1.2022.13(Sat Nov 19 13:22:17 UTC 2022)
(GPL source distribution)
Java Runtime: OpenJDK Runtime Environment
JVM: OpenJDK 64-Bit Server VM
Default Encoding: UTF-8
Language: en
Country: null
--></g></svg>
