<?xml version="1.0" encoding="UTF-8" standalone="no"?><svg xmlns="http://www.w3.org/2000/svg" xmlns:xlink="http://www.w3.org/1999/xlink" contentStyleType="text/css" height="392px" preserveAspectRatio="none" style="width:2818px;height:392px;background:#FFFFFF;" version="1.1" viewBox="0 0 2818 392" width="2818px" zoomAndPan="magnify"><defs><filter height="1" id="bsnmpedyk283e0" width="1" x="0" y="0"><feFlood flood-color="#000000" result="flood"/><feComposite in="SourceGraphic" in2="flood" operator="over"/></filter><filter height="1" id="bsnmpedyk283e1" width="1" x="0" y="0"><feFlood flood-color="#008000" result="flood"/><feComposite in="SourceGraphic" in2="flood" operator="over"/></filter><filter height="1" id="bsnmpedyk283e2" width="1" x="0" y="0"><feFlood flood-color="#0000FF" result="flood"/><feComposite in="SourceGraphic" in2="flood" operator="over"/></filter></defs><g><!--MD5=[ada4e783f08fc12304285fce03ddc0ce]
class ApprovalRuleUpdateAction--><a href="ApprovalRuleUpdateAction.svg" target="_top" title="ApprovalRuleUpdateAction.svg" xlink:actuate="onRequest" xlink:href="ApprovalRuleUpdateAction.svg" xlink:show="new" xlink:title="ApprovalRuleUpdateAction.svg" xlink:type="simple"><g id="elem_ApprovalRuleUpdateAction"><rect codeLine="10" fill="#F1F1F1" height="56.2969" id="ApprovalRuleUpdateAction" rx="2.5" ry="2.5" style="stroke:#181818;stroke-width:0.5;" width="218" x="145.1818" y="12"/><ellipse cx="160.1818" cy="28" fill="#B4A7E5" rx="11" ry="11" style="stroke:#181818;stroke-width:1.0;"/><path d="M156.1037,23.7656 L156.1037,21.6094 L163.4943,21.6094 L163.4943,23.7656 L161.0256,23.7656 L161.0256,31.8438 L163.4943,31.8438 L163.4943,34 L156.1037,34 L156.1037,31.8438 L158.5724,31.8438 L158.5724,23.7656 L156.1037,23.7656 Z " fill="#000000"/><text fill="#000000" font-family="sans-serif" font-size="14" font-style="italic" lengthAdjust="spacing" textLength="186" x="174.1818" y="32.8467">ApprovalRuleUpdateAction</text><line style="stroke:#181818;stroke-width:0.5;" x1="146.1818" x2="362.1818" y1="44" y2="44"/><text fill="#000000" font-family="sans-serif" font-size="14" lengthAdjust="spacing" textLength="91" x="151.1818" y="60.9951">action: String</text></g></a><!--MD5=[7bd440bd35d6caa62298604c9fcace5d]
class ApprovalRuleSetApproversAction--><a href="ApprovalRuleSetApproversAction.svg" target="_top" title="ApprovalRuleSetApproversAction.svg" xlink:actuate="onRequest" xlink:href="ApprovalRuleSetApproversAction.svg" xlink:show="new" xlink:title="ApprovalRuleSetApproversAction.svg" xlink:type="simple"><g id="elem_ApprovalRuleSetApproversAction"><rect codeLine="15" fill="#F1F1F1" height="72.5938" id="ApprovalRuleSetApproversAction" rx="2.5" ry="2.5" style="stroke:#181818;stroke-width:0.5;" width="262" x="2253.5" y="203.4297"/><ellipse cx="2268.5" cy="219.4297" fill="#B4A7E5" rx="11" ry="11" style="stroke:#181818;stroke-width:1.0;"/><path d="M2264.4219,215.1953 L2264.4219,213.0391 L2271.8125,213.0391 L2271.8125,215.1953 L2269.3438,215.1953 L2269.3438,223.2734 L2271.8125,223.2734 L2271.8125,225.4297 L2264.4219,225.4297 L2264.4219,223.2734 L2266.8906,223.2734 L2266.8906,215.1953 L2264.4219,215.1953 Z " fill="#000000"/><text fill="#000000" font-family="sans-serif" font-size="14" font-style="italic" lengthAdjust="spacing" textLength="230" x="2282.5" y="224.2764">ApprovalRuleSetApproversAction</text><line style="stroke:#181818;stroke-width:0.5;" x1="2254.5" x2="2514.5" y1="235.4297" y2="235.4297"/><text fill="#000000" font-family="sans-serif" font-size="14" lengthAdjust="spacing" textLength="91" x="2259.5" y="252.4248">action: String</text><text fill="#000000" font-family="sans-serif" font-size="14" lengthAdjust="spacing" textLength="74" x="2259.5" y="268.7217">approvers:</text><a href="ApproverHierarchyDraft.svg" target="_top" title="ApproverHierarchyDraft.svg" xlink:actuate="onRequest" xlink:href="ApproverHierarchyDraft.svg" xlink:show="new" xlink:title="ApproverHierarchyDraft.svg" xlink:type="simple"><text fill="#0000FF" font-family="sans-serif" font-size="14" lengthAdjust="spacing" text-decoration="underline" textLength="159" x="2337.5" y="268.7217">ApproverHierarchyDraft</text></a></g></a><!--MD5=[30c10e7b3bd39a61660d21f8a18b5a20]
class ApprovalRuleSetCustomFieldAction--><a href="ApprovalRuleSetCustomFieldAction.svg" target="_top" title="ApprovalRuleSetCustomFieldAction.svg" xlink:actuate="onRequest" xlink:href="ApprovalRuleSetCustomFieldAction.svg" xlink:show="new" xlink:title="ApprovalRuleSetCustomFieldAction.svg" xlink:type="simple"><g id="elem_ApprovalRuleSetCustomFieldAction"><rect codeLine="19" fill="#F1F1F1" height="88.8906" id="ApprovalRuleSetCustomFieldAction" rx="2.5" ry="2.5" style="stroke:#181818;stroke-width:0.5;" width="276" x="2535.5" y="203.4297"/><ellipse cx="2550.5" cy="219.4297" fill="#B4A7E5" rx="11" ry="11" style="stroke:#181818;stroke-width:1.0;"/><path d="M2546.4219,215.1953 L2546.4219,213.0391 L2553.8125,213.0391 L2553.8125,215.1953 L2551.3438,215.1953 L2551.3438,223.2734 L2553.8125,223.2734 L2553.8125,225.4297 L2546.4219,225.4297 L2546.4219,223.2734 L2548.8906,223.2734 L2548.8906,215.1953 L2546.4219,215.1953 Z " fill="#000000"/><text fill="#000000" font-family="sans-serif" font-size="14" font-style="italic" lengthAdjust="spacing" textLength="244" x="2564.5" y="224.2764">ApprovalRuleSetCustomFieldAction</text><line style="stroke:#181818;stroke-width:0.5;" x1="2536.5" x2="2810.5" y1="235.4297" y2="235.4297"/><text fill="#000000" font-family="sans-serif" font-size="14" lengthAdjust="spacing" textLength="91" x="2541.5" y="252.4248">action: String</text><text fill="#000000" font-family="sans-serif" font-size="14" lengthAdjust="spacing" textLength="88" x="2541.5" y="268.7217">name: String</text><text fill="#000000" font-family="sans-serif" font-size="14" lengthAdjust="spacing" textLength="41" x="2541.5" y="285.0186">value:</text><a href="Object.svg" target="_top" title="Object.svg" xlink:actuate="onRequest" xlink:href="Object.svg" xlink:show="new" xlink:title="Object.svg" xlink:type="simple"><text fill="#0000FF" font-family="sans-serif" font-size="14" lengthAdjust="spacing" text-decoration="underline" textLength="45" x="2586.5" y="285.0186">Object</text></a></g></a><!--MD5=[3b9ebabe7dc59df9cd7b5ad93ee55d6b]
class ApprovalRuleSetCustomTypeAction--><a href="ApprovalRuleSetCustomTypeAction.svg" target="_top" title="ApprovalRuleSetCustomTypeAction.svg" xlink:actuate="onRequest" xlink:href="ApprovalRuleSetCustomTypeAction.svg" xlink:show="new" xlink:title="ApprovalRuleSetCustomTypeAction.svg" xlink:type="simple"><g id="elem_ApprovalRuleSetCustomTypeAction"><rect codeLine="24" fill="#F1F1F1" height="88.8906" id="ApprovalRuleSetCustomTypeAction" rx="2.5" ry="2.5" style="stroke:#181818;stroke-width:0.5;" width="279" x="25.5" y="203.4297"/><ellipse cx="40.5" cy="219.4297" fill="#B4A7E5" rx="11" ry="11" style="stroke:#181818;stroke-width:1.0;"/><path d="M36.4219,215.1953 L36.4219,213.0391 L43.8125,213.0391 L43.8125,215.1953 L41.3438,215.1953 L41.3438,223.2734 L43.8125,223.2734 L43.8125,225.4297 L36.4219,225.4297 L36.4219,223.2734 L38.8906,223.2734 L38.8906,215.1953 L36.4219,215.1953 Z " fill="#000000"/><text fill="#000000" font-family="sans-serif" font-size="14" font-style="italic" lengthAdjust="spacing" textLength="247" x="54.5" y="224.2764">ApprovalRuleSetCustomTypeAction</text><line style="stroke:#181818;stroke-width:0.5;" x1="26.5" x2="303.5" y1="235.4297" y2="235.4297"/><text fill="#000000" font-family="sans-serif" font-size="14" lengthAdjust="spacing" textLength="91" x="31.5" y="252.4248">action: String</text><text fill="#000000" font-family="sans-serif" font-size="14" lengthAdjust="spacing" textLength="35" x="31.5" y="268.7217">type:</text><a href="TypeResourceIdentifier.svg" target="_top" title="TypeResourceIdentifier.svg" xlink:actuate="onRequest" xlink:href="TypeResourceIdentifier.svg" xlink:show="new" xlink:title="TypeResourceIdentifier.svg" xlink:type="simple"><text fill="#0000FF" font-family="sans-serif" font-size="14" lengthAdjust="spacing" text-decoration="underline" textLength="160" x="70.5" y="268.7217">TypeResourceIdentifier</text></a><text fill="#000000" font-family="sans-serif" font-size="14" lengthAdjust="spacing" textLength="41" x="31.5" y="285.0186">fields:</text><a href="FieldContainer.svg" target="_top" title="FieldContainer.svg" xlink:actuate="onRequest" xlink:href="FieldContainer.svg" xlink:show="new" xlink:title="FieldContainer.svg" xlink:type="simple"><text fill="#0000FF" font-family="sans-serif" font-size="14" lengthAdjust="spacing" text-decoration="underline" textLength="99" x="76.5" y="285.0186">FieldContainer</text></a></g></a><!--MD5=[75999d96b6f357ff56fb0bf51d5c2c0f]
class ApprovalRuleSetDescriptionAction--><a href="ApprovalRuleSetDescriptionAction.svg" target="_top" title="ApprovalRuleSetDescriptionAction.svg" xlink:actuate="onRequest" xlink:href="ApprovalRuleSetDescriptionAction.svg" xlink:show="new" xlink:title="ApprovalRuleSetDescriptionAction.svg" xlink:type="simple"><g id="elem_ApprovalRuleSetDescriptionAction"><rect codeLine="29" fill="#F1F1F1" height="72.5938" id="ApprovalRuleSetDescriptionAction" rx="2.5" ry="2.5" style="stroke:#181818;stroke-width:0.5;" width="269" x="946.5" y="203.4297"/><ellipse cx="961.5" cy="219.4297" fill="#B4A7E5" rx="11" ry="11" style="stroke:#181818;stroke-width:1.0;"/><path d="M957.4219,215.1953 L957.4219,213.0391 L964.8125,213.0391 L964.8125,215.1953 L962.3438,215.1953 L962.3438,223.2734 L964.8125,223.2734 L964.8125,225.4297 L957.4219,225.4297 L957.4219,223.2734 L959.8906,223.2734 L959.8906,215.1953 L957.4219,215.1953 Z " fill="#000000"/><text fill="#000000" font-family="sans-serif" font-size="14" font-style="italic" lengthAdjust="spacing" textLength="237" x="975.5" y="224.2764">ApprovalRuleSetDescriptionAction</text><line style="stroke:#181818;stroke-width:0.5;" x1="947.5" x2="1214.5" y1="235.4297" y2="235.4297"/><text fill="#000000" font-family="sans-serif" font-size="14" lengthAdjust="spacing" textLength="91" x="952.5" y="252.4248">action: String</text><text fill="#000000" font-family="sans-serif" font-size="14" lengthAdjust="spacing" textLength="126" x="952.5" y="268.7217">description: String</text></g></a><!--MD5=[2b58dce2774a0cc14f027258ca093aa5]
class ApprovalRuleSetKeyAction--><a href="ApprovalRuleSetKeyAction.svg" target="_top" title="ApprovalRuleSetKeyAction.svg" xlink:actuate="onRequest" xlink:href="ApprovalRuleSetKeyAction.svg" xlink:show="new" xlink:title="ApprovalRuleSetKeyAction.svg" xlink:type="simple"><g id="elem_ApprovalRuleSetKeyAction"><rect codeLine="33" fill="#F1F1F1" height="72.5938" id="ApprovalRuleSetKeyAction" rx="2.5" ry="2.5" style="stroke:#181818;stroke-width:0.5;" width="217" x="1764.5" y="203.4297"/><ellipse cx="1779.5" cy="219.4297" fill="#B4A7E5" rx="11" ry="11" style="stroke:#181818;stroke-width:1.0;"/><path d="M1775.4219,215.1953 L1775.4219,213.0391 L1782.8125,213.0391 L1782.8125,215.1953 L1780.3438,215.1953 L1780.3438,223.2734 L1782.8125,223.2734 L1782.8125,225.4297 L1775.4219,225.4297 L1775.4219,223.2734 L1777.8906,223.2734 L1777.8906,215.1953 L1775.4219,215.1953 Z " fill="#000000"/><text fill="#000000" font-family="sans-serif" font-size="14" font-style="italic" lengthAdjust="spacing" textLength="185" x="1793.5" y="224.2764">ApprovalRuleSetKeyAction</text><line style="stroke:#181818;stroke-width:0.5;" x1="1765.5" x2="1980.5" y1="235.4297" y2="235.4297"/><text fill="#000000" font-family="sans-serif" font-size="14" lengthAdjust="spacing" textLength="91" x="1770.5" y="252.4248">action: String</text><text fill="#000000" font-family="sans-serif" font-size="14" lengthAdjust="spacing" textLength="73" x="1770.5" y="268.7217">key: String</text></g></a><!--MD5=[dc3e72bccefaf73bc25a8c675c624f2d]
class ApprovalRuleSetNameAction--><a href="ApprovalRuleSetNameAction.svg" target="_top" title="ApprovalRuleSetNameAction.svg" xlink:actuate="onRequest" xlink:href="ApprovalRuleSetNameAction.svg" xlink:show="new" xlink:title="ApprovalRuleSetNameAction.svg" xlink:type="simple"><g id="elem_ApprovalRuleSetNameAction"><rect codeLine="37" fill="#F1F1F1" height="72.5938" id="ApprovalRuleSetNameAction" rx="2.5" ry="2.5" style="stroke:#181818;stroke-width:0.5;" width="232" x="2001.5" y="203.4297"/><ellipse cx="2016.5" cy="219.4297" fill="#B4A7E5" rx="11" ry="11" style="stroke:#181818;stroke-width:1.0;"/><path d="M2012.4219,215.1953 L2012.4219,213.0391 L2019.8125,213.0391 L2019.8125,215.1953 L2017.3438,215.1953 L2017.3438,223.2734 L2019.8125,223.2734 L2019.8125,225.4297 L2012.4219,225.4297 L2012.4219,223.2734 L2014.8906,223.2734 L2014.8906,215.1953 L2012.4219,215.1953 Z " fill="#000000"/><text fill="#000000" font-family="sans-serif" font-size="14" font-style="italic" lengthAdjust="spacing" textLength="200" x="2030.5" y="224.2764">ApprovalRuleSetNameAction</text><line style="stroke:#181818;stroke-width:0.5;" x1="2002.5" x2="2232.5" y1="235.4297" y2="235.4297"/><text fill="#000000" font-family="sans-serif" font-size="14" lengthAdjust="spacing" textLength="91" x="2007.5" y="252.4248">action: String</text><text fill="#000000" font-family="sans-serif" font-size="14" lengthAdjust="spacing" textLength="88" x="2007.5" y="268.7217">name: String</text></g></a><!--MD5=[3928d7f798ffc3b7c77b190570e2fe11]
class ApprovalRuleSetPredicateAction--><a href="ApprovalRuleSetPredicateAction.svg" target="_top" title="ApprovalRuleSetPredicateAction.svg" xlink:actuate="onRequest" xlink:href="ApprovalRuleSetPredicateAction.svg" xlink:show="new" xlink:title="ApprovalRuleSetPredicateAction.svg" xlink:type="simple"><g id="elem_ApprovalRuleSetPredicateAction"><rect codeLine="41" fill="#F1F1F1" height="72.5938" id="ApprovalRuleSetPredicateAction" rx="2.5" ry="2.5" style="stroke:#181818;stroke-width:0.5;" width="255" x="1489.5" y="203.4297"/><ellipse cx="1504.5" cy="219.4297" fill="#B4A7E5" rx="11" ry="11" style="stroke:#181818;stroke-width:1.0;"/><path d="M1500.4219,215.1953 L1500.4219,213.0391 L1507.8125,213.0391 L1507.8125,215.1953 L1505.3438,215.1953 L1505.3438,223.2734 L1507.8125,223.2734 L1507.8125,225.4297 L1500.4219,225.4297 L1500.4219,223.2734 L1502.8906,223.2734 L1502.8906,215.1953 L1500.4219,215.1953 Z " fill="#000000"/><text fill="#000000" font-family="sans-serif" font-size="14" font-style="italic" lengthAdjust="spacing" textLength="223" x="1518.5" y="224.2764">ApprovalRuleSetPredicateAction</text><line style="stroke:#181818;stroke-width:0.5;" x1="1490.5" x2="1743.5" y1="235.4297" y2="235.4297"/><text fill="#000000" font-family="sans-serif" font-size="14" lengthAdjust="spacing" textLength="91" x="1495.5" y="252.4248">action: String</text><text fill="#000000" font-family="sans-serif" font-size="14" lengthAdjust="spacing" textLength="114" x="1495.5" y="268.7217">predicate: String</text></g></a><!--MD5=[fb5f785e0f8b753c06a529d3e93620ad]
class ApprovalRuleSetRequestersAction--><a href="ApprovalRuleSetRequestersAction.svg" target="_top" title="ApprovalRuleSetRequestersAction.svg" xlink:actuate="onRequest" xlink:href="ApprovalRuleSetRequestersAction.svg" xlink:show="new" xlink:title="ApprovalRuleSetRequestersAction.svg" xlink:type="simple"><g id="elem_ApprovalRuleSetRequestersAction"><rect codeLine="45" fill="#F1F1F1" height="72.5938" id="ApprovalRuleSetRequestersAction" rx="2.5" ry="2.5" style="stroke:#181818;stroke-width:0.5;" width="281" x="324.5" y="203.4297"/><ellipse cx="344.45" cy="219.4297" fill="#B4A7E5" rx="11" ry="11" style="stroke:#181818;stroke-width:1.0;"/><path d="M340.3719,215.1953 L340.3719,213.0391 L347.7625,213.0391 L347.7625,215.1953 L345.2938,215.1953 L345.2938,223.2734 L347.7625,223.2734 L347.7625,225.4297 L340.3719,225.4297 L340.3719,223.2734 L342.8406,223.2734 L342.8406,215.1953 L340.3719,215.1953 Z " fill="#000000"/><text fill="#000000" font-family="sans-serif" font-size="14" font-style="italic" lengthAdjust="spacing" textLength="238" x="359.55" y="224.2764">ApprovalRuleSetRequestersAction</text><line style="stroke:#181818;stroke-width:0.5;" x1="325.5" x2="604.5" y1="235.4297" y2="235.4297"/><text fill="#000000" font-family="sans-serif" font-size="14" lengthAdjust="spacing" textLength="91" x="330.5" y="252.4248">action: String</text><text fill="#000000" font-family="sans-serif" font-size="14" lengthAdjust="spacing" textLength="81" x="330.5" y="268.7217">requesters:</text><a href="RuleRequesterDraft.svg" target="_top" title="RuleRequesterDraft.svg" xlink:actuate="onRequest" xlink:href="RuleRequesterDraft.svg" xlink:show="new" xlink:title="RuleRequesterDraft.svg" xlink:type="simple"><text fill="#0000FF" font-family="sans-serif" font-size="14" lengthAdjust="spacing" text-decoration="underline" textLength="184" x="415.5" y="268.7217">List&lt;RuleRequesterDraft&gt;</text></a></g></a><!--MD5=[68945ef1d1bc396cc46ead8331e61821]
class ApprovalRuleSetStatusAction--><a href="ApprovalRuleSetStatusAction.svg" target="_top" title="ApprovalRuleSetStatusAction.svg" xlink:actuate="onRequest" xlink:href="ApprovalRuleSetStatusAction.svg" xlink:show="new" xlink:title="ApprovalRuleSetStatusAction.svg" xlink:type="simple"><g id="elem_ApprovalRuleSetStatusAction"><rect codeLine="49" fill="#F1F1F1" height="72.5938" id="ApprovalRuleSetStatusAction" rx="2.5" ry="2.5" style="stroke:#181818;stroke-width:0.5;" width="234" x="1235.5" y="203.4297"/><ellipse cx="1250.5" cy="219.4297" fill="#B4A7E5" rx="11" ry="11" style="stroke:#181818;stroke-width:1.0;"/><path d="M1246.4219,215.1953 L1246.4219,213.0391 L1253.8125,213.0391 L1253.8125,215.1953 L1251.3438,215.1953 L1251.3438,223.2734 L1253.8125,223.2734 L1253.8125,225.4297 L1246.4219,225.4297 L1246.4219,223.2734 L1248.8906,223.2734 L1248.8906,215.1953 L1246.4219,215.1953 Z " fill="#000000"/><text fill="#000000" font-family="sans-serif" font-size="14" font-style="italic" lengthAdjust="spacing" textLength="202" x="1264.5" y="224.2764">ApprovalRuleSetStatusAction</text><line style="stroke:#181818;stroke-width:0.5;" x1="1236.5" x2="1468.5" y1="235.4297" y2="235.4297"/><text fill="#000000" font-family="sans-serif" font-size="14" lengthAdjust="spacing" textLength="91" x="1241.5" y="252.4248">action: String</text><text fill="#000000" font-family="sans-serif" font-size="14" lengthAdjust="spacing" textLength="48" x="1241.5" y="268.7217">status:</text><a href="ApprovalRuleStatus.svg" target="_top" title="ApprovalRuleStatus.svg" xlink:actuate="onRequest" xlink:href="ApprovalRuleStatus.svg" xlink:show="new" xlink:title="ApprovalRuleStatus.svg" xlink:type="simple"><text fill="#0000FF" font-family="sans-serif" font-size="14" lengthAdjust="spacing" text-decoration="underline" textLength="134" x="1293.5" y="268.7217">ApprovalRuleStatus</text></a></g></a><!--MD5=[82af57dc6907d3b248ff801bab27c27d]
class ApprovalRuleUpdate--><a href="ApprovalRuleUpdate.svg" target="_top" title="ApprovalRuleUpdate.svg" xlink:actuate="onRequest" xlink:href="ApprovalRuleUpdate.svg" xlink:show="new" xlink:title="ApprovalRuleUpdate.svg" xlink:type="simple"><g id="elem_ApprovalRuleUpdate"><rect codeLine="53" fill="#F1F1F1" height="72.5938" id="ApprovalRuleUpdate" rx="2.5" ry="2.5" style="stroke:#181818;stroke-width:0.5;" width="301" x="625.5" y="203.4297"/><ellipse cx="700.75" cy="219.4297" fill="#B4A7E5" rx="11" ry="11" style="stroke:#181818;stroke-width:1.0;"/><path d="M696.6719,215.1953 L696.6719,213.0391 L704.0625,213.0391 L704.0625,215.1953 L701.5938,215.1953 L701.5938,223.2734 L704.0625,223.2734 L704.0625,225.4297 L696.6719,225.4297 L696.6719,223.2734 L699.1406,223.2734 L699.1406,215.1953 L696.6719,215.1953 Z " fill="#000000"/><text fill="#000000" font-family="sans-serif" font-size="14" font-style="italic" lengthAdjust="spacing" textLength="142" x="721.25" y="224.2764">ApprovalRuleUpdate</text><line style="stroke:#181818;stroke-width:0.5;" x1="626.5" x2="925.5" y1="235.4297" y2="235.4297"/><text fill="#000000" font-family="sans-serif" font-size="14" lengthAdjust="spacing" textLength="93" x="631.5" y="252.4248">version: Long</text><text fill="#000000" font-family="sans-serif" font-size="14" lengthAdjust="spacing" textLength="55" x="631.5" y="268.7217">actions:</text><a href="ApprovalRuleUpdateAction.svg" target="_top" title="ApprovalRuleUpdateAction.svg" xlink:actuate="onRequest" xlink:href="ApprovalRuleUpdateAction.svg" xlink:show="new" xlink:title="ApprovalRuleUpdateAction.svg" xlink:type="simple"><text fill="#0000FF" font-family="sans-serif" font-size="14" lengthAdjust="spacing" text-decoration="underline" textLength="230" x="690.5" y="268.7217">List&lt;ApprovalRuleUpdateAction&gt;</text></a></g></a><line style="stroke:#0000FF;stroke-width:1.0;" x1="323.5455" x2="323.5455" y1="68.2969" y2="88.2969"/><line style="stroke:#0000FF;stroke-width:1.0;" x1="323.5455" x2="2384.5" y1="88.2969" y2="88.2969"/><line style="stroke:#0000FF;stroke-width:1.0;" x1="2384.5" x2="2384.5" y1="88.2969" y2="203.4297"/><polygon fill="#0000FF" points="2384.5,203.4297,2388.5,194.4297,2384.5,198.4297,2380.5,194.4297,2384.5,203.4297" style="stroke:#0000FF;stroke-width:1.0;"/><text fill="#000000" font-family="sans-serif" font-size="13" lengthAdjust="spacing" textLength="136" x="2246.5" y="180.3638">action : setApprovers</text><line style="stroke:#0000FF;stroke-width:1.0;" x1="343.3636" x2="343.3636" y1="68.2969" y2="78.2969"/><line style="stroke:#0000FF;stroke-width:1.0;" x1="343.3636" x2="2673.5" y1="78.2969" y2="78.2969"/><line style="stroke:#0000FF;stroke-width:1.0;" x1="2673.5" x2="2673.5" y1="78.2969" y2="203.4297"/><polygon fill="#0000FF" points="2673.5,203.4297,2677.5,194.4297,2673.5,198.4297,2669.5,194.4297,2673.5,203.4297" style="stroke:#0000FF;stroke-width:1.0;"/><text fill="#000000" font-family="sans-serif" font-size="13" lengthAdjust="spacing" textLength="150" x="2521.5" y="180.3638">action : setCustomField</text><line style="stroke:#0000FF;stroke-width:1.0;" x1="165" x2="165" y1="68.2969" y2="203.4297"/><polygon fill="#0000FF" points="165,203.4297,169,194.4297,165,198.4297,161,194.4297,165,203.4297" style="stroke:#0000FF;stroke-width:1.0;"/><text fill="#000000" font-family="sans-serif" font-size="13" lengthAdjust="spacing" textLength="151" x="12" y="180.3638">action : setCustomType</text><line style="stroke:#0000FF;stroke-width:1.0;" x1="224.4545" x2="224.4545" y1="68.2969" y2="138.2969"/><line style="stroke:#0000FF;stroke-width:1.0;" x1="224.4545" x2="1081" y1="138.2969" y2="138.2969"/><line style="stroke:#0000FF;stroke-width:1.0;" x1="1081" x2="1081" y1="138.2969" y2="203.4297"/><polygon fill="#0000FF" points="1081,203.4297,1085,194.4297,1081,198.4297,1077,194.4297,1081,203.4297" style="stroke:#0000FF;stroke-width:1.0;"/><text fill="#000000" font-family="sans-serif" font-size="13" lengthAdjust="spacing" textLength="143" x="936" y="180.3638">action : setDescription</text><line style="stroke:#0000FF;stroke-width:1.0;" x1="283.9091" x2="283.9091" y1="68.2969" y2="108.2969"/><line style="stroke:#0000FF;stroke-width:1.0;" x1="283.9091" x2="1873" y1="108.2969" y2="108.2969"/><line style="stroke:#0000FF;stroke-width:1.0;" x1="1873" x2="1873" y1="108.2969" y2="203.4297"/><polygon fill="#0000FF" points="1873,203.4297,1877,194.4297,1873,198.4297,1869,194.4297,1873,203.4297" style="stroke:#0000FF;stroke-width:1.0;"/><text fill="#000000" font-family="sans-serif" font-size="13" lengthAdjust="spacing" textLength="94" x="1777" y="180.3638">action : setKey</text><line style="stroke:#0000FF;stroke-width:1.0;" x1="303.7273" x2="303.7273" y1="68.2969" y2="98.2969"/><line style="stroke:#0000FF;stroke-width:1.0;" x1="303.7273" x2="2117.5" y1="98.2969" y2="98.2969"/><line style="stroke:#0000FF;stroke-width:1.0;" x1="2117.5" x2="2117.5" y1="98.2969" y2="203.4297"/><polygon fill="#0000FF" points="2117.5,203.4297,2121.5,194.4297,2117.5,198.4297,2113.5,194.4297,2117.5,203.4297" style="stroke:#0000FF;stroke-width:1.0;"/><text fill="#000000" font-family="sans-serif" font-size="13" lengthAdjust="spacing" textLength="110" x="2005.5" y="180.3638">action : setName</text><line style="stroke:#0000FF;stroke-width:1.0;" x1="264.0909" x2="264.0909" y1="68.2969" y2="118.2969"/><line style="stroke:#0000FF;stroke-width:1.0;" x1="264.0909" x2="1617" y1="118.2969" y2="118.2969"/><line style="stroke:#0000FF;stroke-width:1.0;" x1="1617" x2="1617" y1="118.2969" y2="203.4297"/><polygon fill="#0000FF" points="1617,203.4297,1621,194.4297,1617,198.4297,1613,194.4297,1617,203.4297" style="stroke:#0000FF;stroke-width:1.0;"/><text fill="#000000" font-family="sans-serif" font-size="13" lengthAdjust="spacing" textLength="131" x="1484" y="180.3638">action : setPredicate</text><line style="stroke:#0000FF;stroke-width:1.0;" x1="184.8182" x2="184.8182" y1="68.2969" y2="158.2969"/><line style="stroke:#0000FF;stroke-width:1.0;" x1="184.8182" x2="465" y1="158.2969" y2="158.2969"/><line style="stroke:#0000FF;stroke-width:1.0;" x1="465" x2="465" y1="158.2969" y2="203.4297"/><polygon fill="#0000FF" points="465,203.4297,469,194.4297,465,198.4297,461,194.4297,465,203.4297" style="stroke:#0000FF;stroke-width:1.0;"/><text fill="#000000" font-family="sans-serif" font-size="13" lengthAdjust="spacing" textLength="143" x="320" y="180.3638">action : setRequesters</text><line style="stroke:#0000FF;stroke-width:1.0;" x1="244.2727" x2="244.2727" y1="68.2969" y2="128.2969"/><line style="stroke:#0000FF;stroke-width:1.0;" x1="244.2727" x2="1352.5" y1="128.2969" y2="128.2969"/><line style="stroke:#0000FF;stroke-width:1.0;" x1="1352.5" x2="1352.5" y1="128.2969" y2="203.4297"/><polygon fill="#0000FF" points="1352.5,203.4297,1356.5,194.4297,1352.5,198.4297,1348.5,194.4297,1352.5,203.4297" style="stroke:#0000FF;stroke-width:1.0;"/><text fill="#000000" font-family="sans-serif" font-size="13" lengthAdjust="spacing" textLength="113" x="1237.5" y="180.3638">action : setStatus</text><line style="stroke:#008000;stroke-width:1.0;" x1="204.6364" x2="204.6364" y1="68.2969" y2="148.2969"/><line style="stroke:#008000;stroke-width:1.0;" x1="204.6364" x2="776" y1="148.2969" y2="148.2969"/><line style="stroke:#008000;stroke-width:1.0;" x1="776" x2="776" y1="148.2969" y2="203.4297"/><polygon fill="#008000" points="776,203.4297,780,194.4297,776,198.4297,772,194.4297,776,203.4297" style="stroke:#008000;stroke-width:1.0;"/><text fill="#000000" font-family="sans-serif" font-size="13" lengthAdjust="spacing" textLength="46" x="728" y="180.3638">actions</text><rect fill="#DDDDDD" height="79.1875" id="_legend" rx="7.5" ry="7.5" style="stroke:#000000;stroke-width:1.0;" width="161" x="1318.75" y="293.3203"/><text fill="#000000" font-family="sans-serif" font-size="14" font-weight="bold" lengthAdjust="spacing" textLength="5" x="1323.75" y="313.3154"> </text><text fill="#000000" font-family="sans-serif" font-size="14" font-weight="bold" lengthAdjust="spacing" textLength="28" x="1340.75" y="313.3154">line</text><text fill="#000000" filter="url(#bsnmpedyk283e0)" font-family="sans-serif" font-size="14" lengthAdjust="spacing" textLength="12" x="1323.75" y="329.6123">   </text><text fill="#000000" font-family="sans-serif" font-size="14" lengthAdjust="spacing" textLength="77" x="1339.75" y="329.6123">inheritance</text><text fill="#000000" filter="url(#bsnmpedyk283e1)" font-family="sans-serif" font-size="14" lengthAdjust="spacing" textLength="12" x="1323.75" y="345.9092">   </text><text fill="#000000" font-family="sans-serif" font-size="14" lengthAdjust="spacing" textLength="129" x="1339.75" y="345.9092">property reference</text><text fill="#000000" filter="url(#bsnmpedyk283e2)" font-family="sans-serif" font-size="14" lengthAdjust="spacing" textLength="12" x="1323.75" y="362.2061">   </text><text fill="#000000" font-family="sans-serif" font-size="14" lengthAdjust="spacing" textLength="131" x="1339.75" y="362.2061">discriminated class</text><line style="stroke:#000000;stroke-width:1.0;" x1="1323.75" x2="1474.75" y1="300.3203" y2="300.3203"/><line style="stroke:#000000;stroke-width:1.0;" x1="1323.75" x2="1474.75" y1="316.6172" y2="316.6172"/><line style="stroke:#000000;stroke-width:1.0;" x1="1323.75" x2="1474.75" y1="332.9141" y2="332.9141"/><line style="stroke:#000000;stroke-width:1.0;" x1="1323.75" x2="1474.75" y1="349.2109" y2="349.2109"/><line style="stroke:#000000;stroke-width:1.0;" x1="1323.75" x2="1474.75" y1="365.5078" y2="365.5078"/><line style="stroke:#000000;stroke-width:1.0;" x1="1323.75" x2="1323.75" y1="300.3203" y2="365.5078"/><line style="stroke:#000000;stroke-width:1.0;" x1="1335.75" x2="1335.75" y1="300.3203" y2="365.5078"/><line style="stroke:#000000;stroke-width:1.0;" x1="1474.75" x2="1474.75" y1="300.3203" y2="365.5078"/><!--MD5=[aeb3c3dba38db3d064e9f6c8493d4436]
@startuml
!pragma layout elk
hide empty fields
hide empty methods
legend
|= |= line |
|<back:black>   </back>| inheritance |
|<back:green>   </back>| property reference |
|<back:blue>   </back>| discriminated class |
endlegend
interface ApprovalRuleUpdateAction [[ApprovalRuleUpdateAction.svg]]  {
    action: String
}


interface ApprovalRuleSetApproversAction [[ApprovalRuleSetApproversAction.svg]]  {
    action: String
    approvers: [[ApproverHierarchyDraft.svg ApproverHierarchyDraft]]
}
interface ApprovalRuleSetCustomFieldAction [[ApprovalRuleSetCustomFieldAction.svg]]  {
    action: String
    name: String
    value: [[Object.svg Object]]
}
interface ApprovalRuleSetCustomTypeAction [[ApprovalRuleSetCustomTypeAction.svg]]  {
    action: String
    type: [[TypeResourceIdentifier.svg TypeResourceIdentifier]]
    fields: [[FieldContainer.svg FieldContainer]]
}
interface ApprovalRuleSetDescriptionAction [[ApprovalRuleSetDescriptionAction.svg]]  {
    action: String
    description: String
}
interface ApprovalRuleSetKeyAction [[ApprovalRuleSetKeyAction.svg]]  {
    action: String
    key: String
}
interface ApprovalRuleSetNameAction [[ApprovalRuleSetNameAction.svg]]  {
    action: String
    name: String
}
interface ApprovalRuleSetPredicateAction [[ApprovalRuleSetPredicateAction.svg]]  {
    action: String
    predicate: String
}
interface ApprovalRuleSetRequestersAction [[ApprovalRuleSetRequestersAction.svg]]  {
    action: String
    requesters: [[RuleRequesterDraft.svg List<RuleRequesterDraft>]]
}
interface ApprovalRuleSetStatusAction [[ApprovalRuleSetStatusAction.svg]]  {
    action: String
    status: [[ApprovalRuleStatus.svg ApprovalRuleStatus]]
}
interface ApprovalRuleUpdate [[ApprovalRuleUpdate.svg]]  {
    version: Long
    actions: [[ApprovalRuleUpdateAction.svg List<ApprovalRuleUpdateAction>]]
}
ApprovalRuleUpdateAction - -> ApprovalRuleSetApproversAction #blue;text:blue : "action : setApprovers"
ApprovalRuleUpdateAction - -> ApprovalRuleSetCustomFieldAction #blue;text:blue : "action : setCustomField"
ApprovalRuleUpdateAction - -> ApprovalRuleSetCustomTypeAction #blue;text:blue : "action : setCustomType"
ApprovalRuleUpdateAction - -> ApprovalRuleSetDescriptionAction #blue;text:blue : "action : setDescription"
ApprovalRuleUpdateAction - -> ApprovalRuleSetKeyAction #blue;text:blue : "action : setKey"
ApprovalRuleUpdateAction - -> ApprovalRuleSetNameAction #blue;text:blue : "action : setName"
ApprovalRuleUpdateAction - -> ApprovalRuleSetPredicateAction #blue;text:blue : "action : setPredicate"
ApprovalRuleUpdateAction - -> ApprovalRuleSetRequestersAction #blue;text:blue : "action : setRequesters"
ApprovalRuleUpdateAction - -> ApprovalRuleSetStatusAction #blue;text:blue : "action : setStatus"
ApprovalRuleUpdateAction - -> ApprovalRuleUpdate #green;text:green : "actions"
@enduml

PlantUML version 1.2022.13(Sat Nov 19 13:22:17 UTC 2022)
(GPL source distribution)
Java Runtime: OpenJDK Runtime Environment
JVM: OpenJDK 64-Bit Server VM
Default Encoding: UTF-8
Language: en
Country: null
--></g></svg>
