<?xml version="1.0" encoding="UTF-8" standalone="no"?><svg xmlns="http://www.w3.org/2000/svg" xmlns:xlink="http://www.w3.org/1999/xlink" contentStyleType="text/css" height="219px" preserveAspectRatio="none" style="width:547px;height:219px;background:#FFFFFF;" version="1.1" viewBox="0 0 547 219" width="547px" zoomAndPan="magnify"><defs/><g><!--MD5=[b9a63f7ace76a0ea003926702d8f1a79]
class AssociateRole--><g id="elem_AssociateRole"><rect codeLine="3" fill="#F1F1F1" height="72.5938" id="AssociateRole" rx="2.5" ry="2.5" style="stroke:#181818;stroke-width:0.5;" width="130" x="82.1667" y="12"/><ellipse cx="97.1667" cy="28" fill="#EB937F" rx="11" ry="11" style="stroke:#181818;stroke-width:1.0;"/><path d="M101.276,34 L93.5573,34 L93.5573,21.6094 L101.276,21.6094 L101.276,23.7656 L96.0104,23.7656 L96.0104,26.4375 L100.776,26.4375 L100.776,28.5938 L96.0104,28.5938 L96.0104,31.8438 L101.276,31.8438 L101.276,34 Z " fill="#000000"/><text fill="#000000" font-family="sans-serif" font-size="14" lengthAdjust="spacing" textLength="98" x="111.1667" y="32.8467">AssociateRole</text><line style="stroke:#181818;stroke-width:0.5;" x1="83.1667" x2="211.1667" y1="44" y2="44"/><text fill="#000000" font-family="sans-serif" font-size="14" lengthAdjust="spacing" textLength="45" x="88.1667" y="60.9951">ADMIN</text><text fill="#000000" font-family="sans-serif" font-size="14" lengthAdjust="spacing" textLength="48" x="88.1667" y="77.292">BUYER</text></g><!--MD5=[6ff5cd79d91bddd4f4719290976c8e69]
class Associate--><a href="Associate.svg" target="_top" title="Associate.svg" xlink:actuate="onRequest" xlink:href="Associate.svg" xlink:show="new" xlink:title="Associate.svg" xlink:type="simple"><g id="elem_Associate"><rect codeLine="7" fill="#F1F1F1" height="72.5938" id="Associate" rx="2.5" ry="2.5" style="stroke:#181818;stroke-width:0.5;" width="227" x="12" y="139.7266"/><ellipse cx="88.25" cy="155.7266" fill="#B4A7E5" rx="11" ry="11" style="stroke:#181818;stroke-width:1.0;"/><path d="M84.1719,151.4922 L84.1719,149.3359 L91.5625,149.3359 L91.5625,151.4922 L89.0938,151.4922 L89.0938,159.5703 L91.5625,159.5703 L91.5625,161.7266 L84.1719,161.7266 L84.1719,159.5703 L86.6406,159.5703 L86.6406,151.4922 L84.1719,151.4922 Z " fill="#000000"/><text fill="#000000" font-family="sans-serif" font-size="14" font-style="italic" lengthAdjust="spacing" textLength="66" x="108.75" y="160.5732">Associate</text><line style="stroke:#181818;stroke-width:0.5;" x1="13" x2="238" y1="171.7266" y2="171.7266"/><text fill="#000000" font-family="sans-serif" font-size="14" lengthAdjust="spacing" textLength="39" x="18" y="188.7217">roles:</text><a href="AssociateRole.svg" target="_top" title="AssociateRole.svg" xlink:actuate="onRequest" xlink:href="AssociateRole.svg" xlink:show="new" xlink:title="AssociateRole.svg" xlink:type="simple"><text fill="#0000FF" font-family="sans-serif" font-size="14" lengthAdjust="spacing" text-decoration="underline" textLength="145" x="61" y="188.7217">List&lt;AssociateRole&gt;</text></a><text fill="#000000" font-family="sans-serif" font-size="14" lengthAdjust="spacing" textLength="71" x="18" y="205.0186">customer:</text><a href="CustomerReference.svg" target="_top" title="CustomerReference.svg" xlink:actuate="onRequest" xlink:href="CustomerReference.svg" xlink:show="new" xlink:title="CustomerReference.svg" xlink:type="simple"><text fill="#0000FF" font-family="sans-serif" font-size="14" lengthAdjust="spacing" text-decoration="underline" textLength="140" x="93" y="205.0186">CustomerReference</text></a></g></a><!--MD5=[2c5c0752cdbcce963d01a8f72cc976a0]
class AssociateDraft--><a href="AssociateDraft.svg" target="_top" title="AssociateDraft.svg" xlink:actuate="onRequest" xlink:href="AssociateDraft.svg" xlink:show="new" xlink:title="AssociateDraft.svg" xlink:type="simple"><g id="elem_AssociateDraft"><rect codeLine="11" fill="#F1F1F1" height="72.5938" id="AssociateDraft" rx="2.5" ry="2.5" style="stroke:#181818;stroke-width:0.5;" width="281" x="259" y="139.7266"/><ellipse cx="345.75" cy="155.7266" fill="#B4A7E5" rx="11" ry="11" style="stroke:#181818;stroke-width:1.0;"/><path d="M341.6719,151.4922 L341.6719,149.3359 L349.0625,149.3359 L349.0625,151.4922 L346.5938,151.4922 L346.5938,159.5703 L349.0625,159.5703 L349.0625,161.7266 L341.6719,161.7266 L341.6719,159.5703 L344.1406,159.5703 L344.1406,151.4922 L341.6719,151.4922 Z " fill="#000000"/><text fill="#000000" font-family="sans-serif" font-size="14" font-style="italic" lengthAdjust="spacing" textLength="99" x="366.25" y="160.5732">AssociateDraft</text><line style="stroke:#181818;stroke-width:0.5;" x1="260" x2="539" y1="171.7266" y2="171.7266"/><text fill="#000000" font-family="sans-serif" font-size="14" lengthAdjust="spacing" textLength="39" x="265" y="188.7217">roles:</text><a href="AssociateRole.svg" target="_top" title="AssociateRole.svg" xlink:actuate="onRequest" xlink:href="AssociateRole.svg" xlink:show="new" xlink:title="AssociateRole.svg" xlink:type="simple"><text fill="#0000FF" font-family="sans-serif" font-size="14" lengthAdjust="spacing" text-decoration="underline" textLength="145" x="308" y="188.7217">List&lt;AssociateRole&gt;</text></a><text fill="#000000" font-family="sans-serif" font-size="14" lengthAdjust="spacing" textLength="71" x="265" y="205.0186">customer:</text><a href="CustomerResourceIdentifier.svg" target="_top" title="CustomerResourceIdentifier.svg" xlink:actuate="onRequest" xlink:href="CustomerResourceIdentifier.svg" xlink:show="new" xlink:title="CustomerResourceIdentifier.svg" xlink:type="simple"><text fill="#0000FF" font-family="sans-serif" font-size="14" lengthAdjust="spacing" text-decoration="underline" textLength="194" x="340" y="205.0186">CustomerResourceIdentifier</text></a></g></a><line style="stroke:#008000;stroke-width:1.0;" x1="125.5" x2="125.5" y1="84.5938" y2="139.7266"/><polygon fill="#008000" points="125.5,139.7266,129.5,130.7266,125.5,134.7266,121.5,130.7266,125.5,139.7266" style="stroke:#008000;stroke-width:1.0;"/><text fill="#000000" font-family="sans-serif" font-size="13" lengthAdjust="spacing" textLength="31" x="92.5" y="116.6606">roles</text><line style="stroke:#008000;stroke-width:1.0;" x1="168.8333" x2="168.8333" y1="84.5938" y2="94.5938"/><line style="stroke:#008000;stroke-width:1.0;" x1="168.8333" x2="399.5" y1="94.5938" y2="94.5938"/><line style="stroke:#008000;stroke-width:1.0;" x1="399.5" x2="399.5" y1="94.5938" y2="139.7266"/><polygon fill="#008000" points="399.5,139.7266,403.5,130.7266,399.5,134.7266,395.5,130.7266,399.5,139.7266" style="stroke:#008000;stroke-width:1.0;"/><text fill="#000000" font-family="sans-serif" font-size="13" lengthAdjust="spacing" textLength="31" x="402.5" y="116.6606">roles</text><!--MD5=[8cb06df95b919017689830081bc1efeb]
@startuml
!pragma layout elk
hide methods
enum AssociateRole {
    ADMIN
    BUYER
}
interface Associate [[Associate.svg]]  {
    roles: [[AssociateRole.svg List<AssociateRole>]]
    customer: [[CustomerReference.svg CustomerReference]]
}
interface AssociateDraft [[AssociateDraft.svg]]  {
    roles: [[AssociateRole.svg List<AssociateRole>]]
    customer: [[CustomerResourceIdentifier.svg CustomerResourceIdentifier]]
}
AssociateRole - -> Associate #green;text:green : "roles"
AssociateRole - -> AssociateDraft #green;text:green : "roles"
@enduml

PlantUML version 1.2022.13(Sat Nov 19 13:22:17 UTC 2022)
(GPL source distribution)
Java Runtime: OpenJDK Runtime Environment
JVM: OpenJDK 64-Bit Server VM
Default Encoding: UTF-8
Language: en
Country: null
--></g></svg>
