<?xml version="1.0" encoding="UTF-8" standalone="no"?><svg xmlns="http://www.w3.org/2000/svg" xmlns:xlink="http://www.w3.org/1999/xlink" contentStyleType="text/css" height="372px" preserveAspectRatio="none" style="width:2486px;height:372px;background:#FFFFFF;" version="1.1" viewBox="0 0 2486 372" width="2486px" zoomAndPan="magnify"><defs><filter height="1" id="b1q3zv8pjw4rpg0" width="1" x="0" y="0"><feFlood flood-color="#000000" result="flood"/><feComposite in="SourceGraphic" in2="flood" operator="over"/></filter><filter height="1" id="b1q3zv8pjw4rpg1" width="1" x="0" y="0"><feFlood flood-color="#008000" result="flood"/><feComposite in="SourceGraphic" in2="flood" operator="over"/></filter><filter height="1" id="b1q3zv8pjw4rpg2" width="1" x="0" y="0"><feFlood flood-color="#0000FF" result="flood"/><feComposite in="SourceGraphic" in2="flood" operator="over"/></filter></defs><g><!--MD5=[70c6e9f00d466fbca680cb0a3095beb5]
class AssociateRoleUpdateAction--><a href="AssociateRoleUpdateAction.svg" target="_top" title="AssociateRoleUpdateAction.svg" xlink:actuate="onRequest" xlink:href="AssociateRoleUpdateAction.svg" xlink:show="new" xlink:title="AssociateRoleUpdateAction.svg" xlink:type="simple"><g id="elem_AssociateRoleUpdateAction"><rect codeLine="10" fill="#F1F1F1" height="56.2969" id="AssociateRoleUpdateAction" rx="2.5" ry="2.5" style="stroke:#181818;stroke-width:0.5;" width="223" x="159.2222" y="12"/><ellipse cx="174.2222" cy="28" fill="#B4A7E5" rx="11" ry="11" style="stroke:#181818;stroke-width:1.0;"/><path d="M170.1441,23.7656 L170.1441,21.6094 L177.5347,21.6094 L177.5347,23.7656 L175.066,23.7656 L175.066,31.8438 L177.5347,31.8438 L177.5347,34 L170.1441,34 L170.1441,31.8438 L172.6128,31.8438 L172.6128,23.7656 L170.1441,23.7656 Z " fill="#000000"/><text fill="#000000" font-family="sans-serif" font-size="14" font-style="italic" lengthAdjust="spacing" textLength="191" x="188.2222" y="32.8467">AssociateRoleUpdateAction</text><line style="stroke:#181818;stroke-width:0.5;" x1="160.2222" x2="381.2222" y1="44" y2="44"/><text fill="#000000" font-family="sans-serif" font-size="14" lengthAdjust="spacing" textLength="91" x="165.2222" y="60.9951">action: String</text></g></a><!--MD5=[c94a823e6235ad1607408fcb19b428ef]
class AssociateRoleAddPermissionAction--><a href="AssociateRoleAddPermissionAction.svg" target="_top" title="AssociateRoleAddPermissionAction.svg" xlink:actuate="onRequest" xlink:href="AssociateRoleAddPermissionAction.svg" xlink:show="new" xlink:title="AssociateRoleAddPermissionAction.svg" xlink:type="simple"><g id="elem_AssociateRoleAddPermissionAction"><rect codeLine="15" fill="#F1F1F1" height="72.5938" id="AssociateRoleAddPermissionAction" rx="2.5" ry="2.5" style="stroke:#181818;stroke-width:0.5;" width="274" x="1843" y="183.4297"/><ellipse cx="1858" cy="199.4297" fill="#B4A7E5" rx="11" ry="11" style="stroke:#181818;stroke-width:1.0;"/><path d="M1853.9219,195.1953 L1853.9219,193.0391 L1861.3125,193.0391 L1861.3125,195.1953 L1858.8438,195.1953 L1858.8438,203.2734 L1861.3125,203.2734 L1861.3125,205.4297 L1853.9219,205.4297 L1853.9219,203.2734 L1856.3906,203.2734 L1856.3906,195.1953 L1853.9219,195.1953 Z " fill="#000000"/><text fill="#000000" font-family="sans-serif" font-size="14" font-style="italic" lengthAdjust="spacing" textLength="242" x="1872" y="204.2764">AssociateRoleAddPermissionAction</text><line style="stroke:#181818;stroke-width:0.5;" x1="1844" x2="2116" y1="215.4297" y2="215.4297"/><text fill="#000000" font-family="sans-serif" font-size="14" lengthAdjust="spacing" textLength="91" x="1849" y="232.4248">action: String</text><text fill="#000000" font-family="sans-serif" font-size="14" lengthAdjust="spacing" textLength="81" x="1849" y="248.7217">permission:</text><a href="Permission.svg" target="_top" title="Permission.svg" xlink:actuate="onRequest" xlink:href="Permission.svg" xlink:show="new" xlink:title="Permission.svg" xlink:type="simple"><text fill="#0000FF" font-family="sans-serif" font-size="14" lengthAdjust="spacing" text-decoration="underline" textLength="76" x="1934" y="248.7217">Permission</text></a></g></a><!--MD5=[07c1768c680aa6e65c0ac95a9d78dd77]
class AssociateRoleChangeBuyerAssignableAction--><a href="AssociateRoleChangeBuyerAssignableAction.svg" target="_top" title="AssociateRoleChangeBuyerAssignableAction.svg" xlink:actuate="onRequest" xlink:href="AssociateRoleChangeBuyerAssignableAction.svg" xlink:show="new" xlink:title="AssociateRoleChangeBuyerAssignableAction.svg" xlink:type="simple"><g id="elem_AssociateRoleChangeBuyerAssignableAction"><rect codeLine="19" fill="#F1F1F1" height="72.5938" id="AssociateRoleChangeBuyerAssignableAction" rx="2.5" ry="2.5" style="stroke:#181818;stroke-width:0.5;" width="342" x="2137" y="183.4297"/><ellipse cx="2152" cy="199.4297" fill="#B4A7E5" rx="11" ry="11" style="stroke:#181818;stroke-width:1.0;"/><path d="M2147.9219,195.1953 L2147.9219,193.0391 L2155.3125,193.0391 L2155.3125,195.1953 L2152.8438,195.1953 L2152.8438,203.2734 L2155.3125,203.2734 L2155.3125,205.4297 L2147.9219,205.4297 L2147.9219,203.2734 L2150.3906,203.2734 L2150.3906,195.1953 L2147.9219,195.1953 Z " fill="#000000"/><text fill="#000000" font-family="sans-serif" font-size="14" font-style="italic" lengthAdjust="spacing" textLength="310" x="2166" y="204.2764">AssociateRoleChangeBuyerAssignableAction</text><line style="stroke:#181818;stroke-width:0.5;" x1="2138" x2="2478" y1="215.4297" y2="215.4297"/><text fill="#000000" font-family="sans-serif" font-size="14" lengthAdjust="spacing" textLength="91" x="2143" y="232.4248">action: String</text><text fill="#000000" font-family="sans-serif" font-size="14" lengthAdjust="spacing" textLength="180" x="2143" y="248.7217">buyerAssignable: Boolean</text></g></a><!--MD5=[b937e0daa87a268f78d02c2b6086066e]
class AssociateRoleRemovePermissionAction--><a href="AssociateRoleRemovePermissionAction.svg" target="_top" title="AssociateRoleRemovePermissionAction.svg" xlink:actuate="onRequest" xlink:href="AssociateRoleRemovePermissionAction.svg" xlink:show="new" xlink:title="AssociateRoleRemovePermissionAction.svg" xlink:type="simple"><g id="elem_AssociateRoleRemovePermissionAction"><rect codeLine="23" fill="#F1F1F1" height="72.5938" id="AssociateRoleRemovePermissionAction" rx="2.5" ry="2.5" style="stroke:#181818;stroke-width:0.5;" width="304" x="32" y="183.4297"/><ellipse cx="47" cy="199.4297" fill="#B4A7E5" rx="11" ry="11" style="stroke:#181818;stroke-width:1.0;"/><path d="M42.9219,195.1953 L42.9219,193.0391 L50.3125,193.0391 L50.3125,195.1953 L47.8438,195.1953 L47.8438,203.2734 L50.3125,203.2734 L50.3125,205.4297 L42.9219,205.4297 L42.9219,203.2734 L45.3906,203.2734 L45.3906,195.1953 L42.9219,195.1953 Z " fill="#000000"/><text fill="#000000" font-family="sans-serif" font-size="14" font-style="italic" lengthAdjust="spacing" textLength="272" x="61" y="204.2764">AssociateRoleRemovePermissionAction</text><line style="stroke:#181818;stroke-width:0.5;" x1="33" x2="335" y1="215.4297" y2="215.4297"/><text fill="#000000" font-family="sans-serif" font-size="14" lengthAdjust="spacing" textLength="91" x="38" y="232.4248">action: String</text><text fill="#000000" font-family="sans-serif" font-size="14" lengthAdjust="spacing" textLength="81" x="38" y="248.7217">permission:</text><a href="Permission.svg" target="_top" title="Permission.svg" xlink:actuate="onRequest" xlink:href="Permission.svg" xlink:show="new" xlink:title="Permission.svg" xlink:type="simple"><text fill="#0000FF" font-family="sans-serif" font-size="14" lengthAdjust="spacing" text-decoration="underline" textLength="76" x="123" y="248.7217">Permission</text></a></g></a><!--MD5=[9ce00501670d2f536e69ae899068224d]
class AssociateRoleSetCustomFieldAction--><a href="AssociateRoleSetCustomFieldAction.svg" target="_top" title="AssociateRoleSetCustomFieldAction.svg" xlink:actuate="onRequest" xlink:href="AssociateRoleSetCustomFieldAction.svg" xlink:show="new" xlink:title="AssociateRoleSetCustomFieldAction.svg" xlink:type="simple"><g id="elem_AssociateRoleSetCustomFieldAction"><rect codeLine="27" fill="#F1F1F1" height="88.8906" id="AssociateRoleSetCustomFieldAction" rx="2.5" ry="2.5" style="stroke:#181818;stroke-width:0.5;" width="281" x="685" y="183.4297"/><ellipse cx="700" cy="199.4297" fill="#B4A7E5" rx="11" ry="11" style="stroke:#181818;stroke-width:1.0;"/><path d="M695.9219,195.1953 L695.9219,193.0391 L703.3125,193.0391 L703.3125,195.1953 L700.8438,195.1953 L700.8438,203.2734 L703.3125,203.2734 L703.3125,205.4297 L695.9219,205.4297 L695.9219,203.2734 L698.3906,203.2734 L698.3906,195.1953 L695.9219,195.1953 Z " fill="#000000"/><text fill="#000000" font-family="sans-serif" font-size="14" font-style="italic" lengthAdjust="spacing" textLength="249" x="714" y="204.2764">AssociateRoleSetCustomFieldAction</text><line style="stroke:#181818;stroke-width:0.5;" x1="686" x2="965" y1="215.4297" y2="215.4297"/><text fill="#000000" font-family="sans-serif" font-size="14" lengthAdjust="spacing" textLength="91" x="691" y="232.4248">action: String</text><text fill="#000000" font-family="sans-serif" font-size="14" lengthAdjust="spacing" textLength="88" x="691" y="248.7217">name: String</text><text fill="#000000" font-family="sans-serif" font-size="14" lengthAdjust="spacing" textLength="41" x="691" y="265.0186">value:</text><a href="Object.svg" target="_top" title="Object.svg" xlink:actuate="onRequest" xlink:href="Object.svg" xlink:show="new" xlink:title="Object.svg" xlink:type="simple"><text fill="#0000FF" font-family="sans-serif" font-size="14" lengthAdjust="spacing" text-decoration="underline" textLength="45" x="736" y="265.0186">Object</text></a></g></a><!--MD5=[9abf65cbc03fa6011bbcc62bdf050d4b]
class AssociateRoleSetCustomTypeAction--><a href="AssociateRoleSetCustomTypeAction.svg" target="_top" title="AssociateRoleSetCustomTypeAction.svg" xlink:actuate="onRequest" xlink:href="AssociateRoleSetCustomTypeAction.svg" xlink:show="new" xlink:title="AssociateRoleSetCustomTypeAction.svg" xlink:type="simple"><g id="elem_AssociateRoleSetCustomTypeAction"><rect codeLine="32" fill="#F1F1F1" height="88.8906" id="AssociateRoleSetCustomTypeAction" rx="2.5" ry="2.5" style="stroke:#181818;stroke-width:0.5;" width="284" x="1282" y="183.4297"/><ellipse cx="1297" cy="199.4297" fill="#B4A7E5" rx="11" ry="11" style="stroke:#181818;stroke-width:1.0;"/><path d="M1292.9219,195.1953 L1292.9219,193.0391 L1300.3125,193.0391 L1300.3125,195.1953 L1297.8438,195.1953 L1297.8438,203.2734 L1300.3125,203.2734 L1300.3125,205.4297 L1292.9219,205.4297 L1292.9219,203.2734 L1295.3906,203.2734 L1295.3906,195.1953 L1292.9219,195.1953 Z " fill="#000000"/><text fill="#000000" font-family="sans-serif" font-size="14" font-style="italic" lengthAdjust="spacing" textLength="252" x="1311" y="204.2764">AssociateRoleSetCustomTypeAction</text><line style="stroke:#181818;stroke-width:0.5;" x1="1283" x2="1565" y1="215.4297" y2="215.4297"/><text fill="#000000" font-family="sans-serif" font-size="14" lengthAdjust="spacing" textLength="91" x="1288" y="232.4248">action: String</text><text fill="#000000" font-family="sans-serif" font-size="14" lengthAdjust="spacing" textLength="35" x="1288" y="248.7217">type:</text><a href="TypeResourceIdentifier.svg" target="_top" title="TypeResourceIdentifier.svg" xlink:actuate="onRequest" xlink:href="TypeResourceIdentifier.svg" xlink:show="new" xlink:title="TypeResourceIdentifier.svg" xlink:type="simple"><text fill="#0000FF" font-family="sans-serif" font-size="14" lengthAdjust="spacing" text-decoration="underline" textLength="160" x="1327" y="248.7217">TypeResourceIdentifier</text></a><text fill="#000000" font-family="sans-serif" font-size="14" lengthAdjust="spacing" textLength="41" x="1288" y="265.0186">fields:</text><a href="FieldContainer.svg" target="_top" title="FieldContainer.svg" xlink:actuate="onRequest" xlink:href="FieldContainer.svg" xlink:show="new" xlink:title="FieldContainer.svg" xlink:type="simple"><text fill="#0000FF" font-family="sans-serif" font-size="14" lengthAdjust="spacing" text-decoration="underline" textLength="99" x="1333" y="265.0186">FieldContainer</text></a></g></a><!--MD5=[378168ebc4f01c8c0083c2fe07ebc123]
class AssociateRoleSetNameAction--><a href="AssociateRoleSetNameAction.svg" target="_top" title="AssociateRoleSetNameAction.svg" xlink:actuate="onRequest" xlink:href="AssociateRoleSetNameAction.svg" xlink:show="new" xlink:title="AssociateRoleSetNameAction.svg" xlink:type="simple"><g id="elem_AssociateRoleSetNameAction"><rect codeLine="37" fill="#F1F1F1" height="72.5938" id="AssociateRoleSetNameAction" rx="2.5" ry="2.5" style="stroke:#181818;stroke-width:0.5;" width="237" x="1586" y="183.4297"/><ellipse cx="1601" cy="199.4297" fill="#B4A7E5" rx="11" ry="11" style="stroke:#181818;stroke-width:1.0;"/><path d="M1596.9219,195.1953 L1596.9219,193.0391 L1604.3125,193.0391 L1604.3125,195.1953 L1601.8438,195.1953 L1601.8438,203.2734 L1604.3125,203.2734 L1604.3125,205.4297 L1596.9219,205.4297 L1596.9219,203.2734 L1599.3906,203.2734 L1599.3906,195.1953 L1596.9219,195.1953 Z " fill="#000000"/><text fill="#000000" font-family="sans-serif" font-size="14" font-style="italic" lengthAdjust="spacing" textLength="205" x="1615" y="204.2764">AssociateRoleSetNameAction</text><line style="stroke:#181818;stroke-width:0.5;" x1="1587" x2="1822" y1="215.4297" y2="215.4297"/><text fill="#000000" font-family="sans-serif" font-size="14" lengthAdjust="spacing" textLength="91" x="1592" y="232.4248">action: String</text><text fill="#000000" font-family="sans-serif" font-size="14" lengthAdjust="spacing" textLength="88" x="1592" y="248.7217">name: String</text></g></a><!--MD5=[fac75532bb54407bee225275eff4ffd0]
class AssociateRoleSetPermissionsAction--><a href="AssociateRoleSetPermissionsAction.svg" target="_top" title="AssociateRoleSetPermissionsAction.svg" xlink:actuate="onRequest" xlink:href="AssociateRoleSetPermissionsAction.svg" xlink:show="new" xlink:title="AssociateRoleSetPermissionsAction.svg" xlink:type="simple"><g id="elem_AssociateRoleSetPermissionsAction"><rect codeLine="41" fill="#F1F1F1" height="72.5938" id="AssociateRoleSetPermissionsAction" rx="2.5" ry="2.5" style="stroke:#181818;stroke-width:0.5;" width="276" x="986" y="183.4297"/><ellipse cx="1001" cy="199.4297" fill="#B4A7E5" rx="11" ry="11" style="stroke:#181818;stroke-width:1.0;"/><path d="M996.9219,195.1953 L996.9219,193.0391 L1004.3125,193.0391 L1004.3125,195.1953 L1001.8438,195.1953 L1001.8438,203.2734 L1004.3125,203.2734 L1004.3125,205.4297 L996.9219,205.4297 L996.9219,203.2734 L999.3906,203.2734 L999.3906,195.1953 L996.9219,195.1953 Z " fill="#000000"/><text fill="#000000" font-family="sans-serif" font-size="14" font-style="italic" lengthAdjust="spacing" textLength="244" x="1015" y="204.2764">AssociateRoleSetPermissionsAction</text><line style="stroke:#181818;stroke-width:0.5;" x1="987" x2="1261" y1="215.4297" y2="215.4297"/><text fill="#000000" font-family="sans-serif" font-size="14" lengthAdjust="spacing" textLength="91" x="992" y="232.4248">action: String</text><text fill="#000000" font-family="sans-serif" font-size="14" lengthAdjust="spacing" textLength="89" x="992" y="248.7217">permissions:</text><a href="Permission.svg" target="_top" title="Permission.svg" xlink:actuate="onRequest" xlink:href="Permission.svg" xlink:show="new" xlink:title="Permission.svg" xlink:type="simple"><text fill="#0000FF" font-family="sans-serif" font-size="14" lengthAdjust="spacing" text-decoration="underline" textLength="123" x="1085" y="248.7217">List&lt;Permission&gt;</text></a></g></a><!--MD5=[3a362659687ab2a0e579924f128ce841]
class AssociateRoleUpdate--><a href="AssociateRoleUpdate.svg" target="_top" title="AssociateRoleUpdate.svg" xlink:actuate="onRequest" xlink:href="AssociateRoleUpdate.svg" xlink:show="new" xlink:title="AssociateRoleUpdate.svg" xlink:type="simple"><g id="elem_AssociateRoleUpdate"><rect codeLine="45" fill="#F1F1F1" height="72.5938" id="AssociateRoleUpdate" rx="2.5" ry="2.5" style="stroke:#181818;stroke-width:0.5;" width="309" x="356" y="183.4297"/><ellipse cx="432.75" cy="199.4297" fill="#B4A7E5" rx="11" ry="11" style="stroke:#181818;stroke-width:1.0;"/><path d="M428.6719,195.1953 L428.6719,193.0391 L436.0625,193.0391 L436.0625,195.1953 L433.5938,195.1953 L433.5938,203.2734 L436.0625,203.2734 L436.0625,205.4297 L428.6719,205.4297 L428.6719,203.2734 L431.1406,203.2734 L431.1406,195.1953 L428.6719,195.1953 Z " fill="#000000"/><text fill="#000000" font-family="sans-serif" font-size="14" font-style="italic" lengthAdjust="spacing" textLength="147" x="453.25" y="204.2764">AssociateRoleUpdate</text><line style="stroke:#181818;stroke-width:0.5;" x1="357" x2="664" y1="215.4297" y2="215.4297"/><text fill="#000000" font-family="sans-serif" font-size="14" lengthAdjust="spacing" textLength="93" x="362" y="232.4248">version: Long</text><text fill="#000000" font-family="sans-serif" font-size="14" lengthAdjust="spacing" textLength="55" x="362" y="248.7217">actions:</text><a href="AssociateRoleUpdateAction.svg" target="_top" title="AssociateRoleUpdateAction.svg" xlink:actuate="onRequest" xlink:href="AssociateRoleUpdateAction.svg" xlink:show="new" xlink:title="AssociateRoleUpdateAction.svg" xlink:type="simple"><text fill="#0000FF" font-family="sans-serif" font-size="14" lengthAdjust="spacing" text-decoration="underline" textLength="238" x="421" y="248.7217">List&lt;AssociateRoleUpdateAction&gt;</text></a></g></a><line style="stroke:#0000FF;stroke-width:1.0;" x1="332.6667" x2="332.6667" y1="68.2969" y2="88.2969"/><line style="stroke:#0000FF;stroke-width:1.0;" x1="332.6667" x2="1980" y1="88.2969" y2="88.2969"/><line style="stroke:#0000FF;stroke-width:1.0;" x1="1980" x2="1980" y1="88.2969" y2="183.4297"/><polygon fill="#0000FF" points="1980,183.4297,1984,174.4297,1980,178.4297,1976,174.4297,1980,183.4297" style="stroke:#0000FF;stroke-width:1.0;"/><text fill="#000000" font-family="sans-serif" font-size="13" lengthAdjust="spacing" textLength="145" x="1833" y="160.3638">action : addPermission</text><line style="stroke:#0000FF;stroke-width:1.0;" x1="357.4444" x2="357.4444" y1="68.2969" y2="78.2969"/><line style="stroke:#0000FF;stroke-width:1.0;" x1="357.4444" x2="2308" y1="78.2969" y2="78.2969"/><line style="stroke:#0000FF;stroke-width:1.0;" x1="2308" x2="2308" y1="78.2969" y2="183.4297"/><polygon fill="#0000FF" points="2308,183.4297,2312,174.4297,2308,178.4297,2304,174.4297,2308,183.4297" style="stroke:#0000FF;stroke-width:1.0;"/><text fill="#000000" font-family="sans-serif" font-size="13" lengthAdjust="spacing" textLength="204" x="2102" y="160.3638">action : changeBuyerAssignable</text><line style="stroke:#0000FF;stroke-width:1.0;" x1="184" x2="184" y1="68.2969" y2="183.4297"/><polygon fill="#0000FF" points="184,183.4297,188,174.4297,184,178.4297,180,174.4297,184,183.4297" style="stroke:#0000FF;stroke-width:1.0;"/><text fill="#000000" font-family="sans-serif" font-size="13" lengthAdjust="spacing" textLength="170" x="12" y="160.3638">action : removePermission</text><line style="stroke:#0000FF;stroke-width:1.0;" x1="233.5556" x2="233.5556" y1="68.2969" y2="128.2969"/><line style="stroke:#0000FF;stroke-width:1.0;" x1="233.5556" x2="825.5" y1="128.2969" y2="128.2969"/><line style="stroke:#0000FF;stroke-width:1.0;" x1="825.5" x2="825.5" y1="128.2969" y2="183.4297"/><polygon fill="#0000FF" points="825.5,183.4297,829.5,174.4297,825.5,178.4297,821.5,174.4297,825.5,183.4297" style="stroke:#0000FF;stroke-width:1.0;"/><text fill="#000000" font-family="sans-serif" font-size="13" lengthAdjust="spacing" textLength="150" x="673.5" y="160.3638">action : setCustomField</text><line style="stroke:#0000FF;stroke-width:1.0;" x1="283.1111" x2="283.1111" y1="68.2969" y2="108.2969"/><line style="stroke:#0000FF;stroke-width:1.0;" x1="283.1111" x2="1424" y1="108.2969" y2="108.2969"/><line style="stroke:#0000FF;stroke-width:1.0;" x1="1424" x2="1424" y1="108.2969" y2="183.4297"/><polygon fill="#0000FF" points="1424,183.4297,1428,174.4297,1424,178.4297,1420,174.4297,1424,183.4297" style="stroke:#0000FF;stroke-width:1.0;"/><text fill="#000000" font-family="sans-serif" font-size="13" lengthAdjust="spacing" textLength="151" x="1271" y="160.3638">action : setCustomType</text><line style="stroke:#0000FF;stroke-width:1.0;" x1="307.8889" x2="307.8889" y1="68.2969" y2="98.2969"/><line style="stroke:#0000FF;stroke-width:1.0;" x1="307.8889" x2="1704.5" y1="98.2969" y2="98.2969"/><line style="stroke:#0000FF;stroke-width:1.0;" x1="1704.5" x2="1704.5" y1="98.2969" y2="183.4297"/><polygon fill="#0000FF" points="1704.5,183.4297,1708.5,174.4297,1704.5,178.4297,1700.5,174.4297,1704.5,183.4297" style="stroke:#0000FF;stroke-width:1.0;"/><text fill="#000000" font-family="sans-serif" font-size="13" lengthAdjust="spacing" textLength="110" x="1592.5" y="160.3638">action : setName</text><line style="stroke:#0000FF;stroke-width:1.0;" x1="258.3333" x2="258.3333" y1="68.2969" y2="118.2969"/><line style="stroke:#0000FF;stroke-width:1.0;" x1="258.3333" x2="1124" y1="118.2969" y2="118.2969"/><line style="stroke:#0000FF;stroke-width:1.0;" x1="1124" x2="1124" y1="118.2969" y2="183.4297"/><polygon fill="#0000FF" points="1124,183.4297,1128,174.4297,1124,178.4297,1120,174.4297,1124,183.4297" style="stroke:#0000FF;stroke-width:1.0;"/><text fill="#000000" font-family="sans-serif" font-size="13" lengthAdjust="spacing" textLength="148" x="974" y="160.3638">action : setPermissions</text><line style="stroke:#008000;stroke-width:1.0;" x1="208.7778" x2="208.7778" y1="68.2969" y2="138.2969"/><line style="stroke:#008000;stroke-width:1.0;" x1="208.7778" x2="510.5" y1="138.2969" y2="138.2969"/><line style="stroke:#008000;stroke-width:1.0;" x1="510.5" x2="510.5" y1="138.2969" y2="183.4297"/><polygon fill="#008000" points="510.5,183.4297,514.5,174.4297,510.5,178.4297,506.5,174.4297,510.5,183.4297" style="stroke:#008000;stroke-width:1.0;"/><text fill="#000000" font-family="sans-serif" font-size="13" lengthAdjust="spacing" textLength="46" x="462.5" y="160.3638">actions</text><rect fill="#DDDDDD" height="79.1875" id="_legend" rx="7.5" ry="7.5" style="stroke:#000000;stroke-width:1.0;" width="161" x="1152.5" y="273.3203"/><text fill="#000000" font-family="sans-serif" font-size="14" font-weight="bold" lengthAdjust="spacing" textLength="5" x="1157.5" y="293.3154"> </text><text fill="#000000" font-family="sans-serif" font-size="14" font-weight="bold" lengthAdjust="spacing" textLength="28" x="1174.5" y="293.3154">line</text><text fill="#000000" filter="url(#b1q3zv8pjw4rpg0)" font-family="sans-serif" font-size="14" lengthAdjust="spacing" textLength="12" x="1157.5" y="309.6123">   </text><text fill="#000000" font-family="sans-serif" font-size="14" lengthAdjust="spacing" textLength="77" x="1173.5" y="309.6123">inheritance</text><text fill="#000000" filter="url(#b1q3zv8pjw4rpg1)" font-family="sans-serif" font-size="14" lengthAdjust="spacing" textLength="12" x="1157.5" y="325.9092">   </text><text fill="#000000" font-family="sans-serif" font-size="14" lengthAdjust="spacing" textLength="129" x="1173.5" y="325.9092">property reference</text><text fill="#000000" filter="url(#b1q3zv8pjw4rpg2)" font-family="sans-serif" font-size="14" lengthAdjust="spacing" textLength="12" x="1157.5" y="342.2061">   </text><text fill="#000000" font-family="sans-serif" font-size="14" lengthAdjust="spacing" textLength="131" x="1173.5" y="342.2061">discriminated class</text><line style="stroke:#000000;stroke-width:1.0;" x1="1157.5" x2="1308.5" y1="280.3203" y2="280.3203"/><line style="stroke:#000000;stroke-width:1.0;" x1="1157.5" x2="1308.5" y1="296.6172" y2="296.6172"/><line style="stroke:#000000;stroke-width:1.0;" x1="1157.5" x2="1308.5" y1="312.9141" y2="312.9141"/><line style="stroke:#000000;stroke-width:1.0;" x1="1157.5" x2="1308.5" y1="329.2109" y2="329.2109"/><line style="stroke:#000000;stroke-width:1.0;" x1="1157.5" x2="1308.5" y1="345.5078" y2="345.5078"/><line style="stroke:#000000;stroke-width:1.0;" x1="1157.5" x2="1157.5" y1="280.3203" y2="345.5078"/><line style="stroke:#000000;stroke-width:1.0;" x1="1169.5" x2="1169.5" y1="280.3203" y2="345.5078"/><line style="stroke:#000000;stroke-width:1.0;" x1="1308.5" x2="1308.5" y1="280.3203" y2="345.5078"/><!--MD5=[844ecec9b0215daf3a4a9f88a805e295]
@startuml
!pragma layout elk
hide empty fields
hide empty methods
legend
|= |= line |
|<back:black>   </back>| inheritance |
|<back:green>   </back>| property reference |
|<back:blue>   </back>| discriminated class |
endlegend
interface AssociateRoleUpdateAction [[AssociateRoleUpdateAction.svg]]  {
    action: String
}


interface AssociateRoleAddPermissionAction [[AssociateRoleAddPermissionAction.svg]]  {
    action: String
    permission: [[Permission.svg Permission]]
}
interface AssociateRoleChangeBuyerAssignableAction [[AssociateRoleChangeBuyerAssignableAction.svg]]  {
    action: String
    buyerAssignable: Boolean
}
interface AssociateRoleRemovePermissionAction [[AssociateRoleRemovePermissionAction.svg]]  {
    action: String
    permission: [[Permission.svg Permission]]
}
interface AssociateRoleSetCustomFieldAction [[AssociateRoleSetCustomFieldAction.svg]]  {
    action: String
    name: String
    value: [[Object.svg Object]]
}
interface AssociateRoleSetCustomTypeAction [[AssociateRoleSetCustomTypeAction.svg]]  {
    action: String
    type: [[TypeResourceIdentifier.svg TypeResourceIdentifier]]
    fields: [[FieldContainer.svg FieldContainer]]
}
interface AssociateRoleSetNameAction [[AssociateRoleSetNameAction.svg]]  {
    action: String
    name: String
}
interface AssociateRoleSetPermissionsAction [[AssociateRoleSetPermissionsAction.svg]]  {
    action: String
    permissions: [[Permission.svg List<Permission>]]
}
interface AssociateRoleUpdate [[AssociateRoleUpdate.svg]]  {
    version: Long
    actions: [[AssociateRoleUpdateAction.svg List<AssociateRoleUpdateAction>]]
}
AssociateRoleUpdateAction - -> AssociateRoleAddPermissionAction #blue;text:blue : "action : addPermission"
AssociateRoleUpdateAction - -> AssociateRoleChangeBuyerAssignableAction #blue;text:blue : "action : changeBuyerAssignable"
AssociateRoleUpdateAction - -> AssociateRoleRemovePermissionAction #blue;text:blue : "action : removePermission"
AssociateRoleUpdateAction - -> AssociateRoleSetCustomFieldAction #blue;text:blue : "action : setCustomField"
AssociateRoleUpdateAction - -> AssociateRoleSetCustomTypeAction #blue;text:blue : "action : setCustomType"
AssociateRoleUpdateAction - -> AssociateRoleSetNameAction #blue;text:blue : "action : setName"
AssociateRoleUpdateAction - -> AssociateRoleSetPermissionsAction #blue;text:blue : "action : setPermissions"
AssociateRoleUpdateAction - -> AssociateRoleUpdate #green;text:green : "actions"
@enduml

PlantUML version 1.2022.13(Sat Nov 19 13:22:17 UTC 2022)
(GPL source distribution)
Java Runtime: OpenJDK Runtime Environment
JVM: OpenJDK 64-Bit Server VM
Default Encoding: UTF-8
Language: en
Country: null
--></g></svg>
