<?xml version="1.0" encoding="UTF-8" standalone="no"?><svg xmlns="http://www.w3.org/2000/svg" xmlns:xlink="http://www.w3.org/1999/xlink" contentStyleType="text/css" height="261px" preserveAspectRatio="none" style="width:224px;height:261px;background:#FFFFFF;" version="1.1" viewBox="0 0 224 261" width="224px" zoomAndPan="magnify"><defs><filter height="1" id="b1fth8sa2o8g4g0" width="1" x="0" y="0"><feFlood flood-color="#000000" result="flood"/><feComposite in="SourceGraphic" in2="flood" operator="over"/></filter><filter height="1" id="b1fth8sa2o8g4g1" width="1" x="0" y="0"><feFlood flood-color="#008000" result="flood"/><feComposite in="SourceGraphic" in2="flood" operator="over"/></filter><filter height="1" id="b1fth8sa2o8g4g2" width="1" x="0" y="0"><feFlood flood-color="#0000FF" result="flood"/><feComposite in="SourceGraphic" in2="flood" operator="over"/></filter></defs><g><!--MD5=[0bd3ffda96146557a59a2657e4f65591]
class AttributeSetType--><a href="AttributeSetType.svg" target="_top" title="AttributeSetType.svg" xlink:actuate="onRequest" xlink:href="AttributeSetType.svg" xlink:show="new" xlink:title="AttributeSetType.svg" xlink:type="simple"><g id="elem_AttributeSetType"><rect codeLine="10" fill="#F1F1F1" height="72.5938" id="AttributeSetType" rx="2.5" ry="2.5" style="stroke:#181818;stroke-width:0.5;" width="205" x="12" y="88.2969"/><ellipse cx="51.75" cy="104.2969" fill="#B4A7E5" rx="11" ry="11" style="stroke:#181818;stroke-width:1.0;"/><path d="M47.6719,100.0625 L47.6719,97.9063 L55.0625,97.9063 L55.0625,100.0625 L52.5938,100.0625 L52.5938,108.1406 L55.0625,108.1406 L55.0625,110.2969 L47.6719,110.2969 L47.6719,108.1406 L50.1406,108.1406 L50.1406,100.0625 L47.6719,100.0625 Z " fill="#000000"/><text fill="#000000" font-family="sans-serif" font-size="14" font-style="italic" lengthAdjust="spacing" textLength="118" x="71.25" y="109.1436">AttributeSetType</text><line style="stroke:#181818;stroke-width:0.5;" x1="13" x2="216" y1="120.2969" y2="120.2969"/><text fill="#000000" font-family="sans-serif" font-size="14" lengthAdjust="spacing" textLength="88" x="18" y="137.292">name: String</text><text fill="#000000" font-family="sans-serif" font-size="14" lengthAdjust="spacing" textLength="96" x="18" y="153.5889">elementType:</text><a href="AttributeType.svg" target="_top" title="AttributeType.svg" xlink:actuate="onRequest" xlink:href="AttributeType.svg" xlink:show="new" xlink:title="AttributeType.svg" xlink:type="simple"><text fill="#0000FF" font-family="sans-serif" font-size="14" lengthAdjust="spacing" text-decoration="underline" textLength="93" x="118" y="153.5889">AttributeType</text></a></g></a><!--MD5=[10384619ac45e1a7d81a85fa863ac646]
class AttributeType--><a href="AttributeType.svg" target="_top" title="AttributeType.svg" xlink:actuate="onRequest" xlink:href="AttributeType.svg" xlink:show="new" xlink:title="AttributeType.svg" xlink:type="simple"><g id="elem_AttributeType"><rect codeLine="14" fill="#F1F1F1" height="56.2969" id="AttributeType" rx="2.5" ry="2.5" style="stroke:#181818;stroke-width:0.5;" width="127" x="51" y="12"/><ellipse cx="66" cy="28" fill="#B4A7E5" rx="11" ry="11" style="stroke:#181818;stroke-width:1.0;"/><path d="M61.9219,23.7656 L61.9219,21.6094 L69.3125,21.6094 L69.3125,23.7656 L66.8438,23.7656 L66.8438,31.8438 L69.3125,31.8438 L69.3125,34 L61.9219,34 L61.9219,31.8438 L64.3906,31.8438 L64.3906,23.7656 L61.9219,23.7656 Z " fill="#000000"/><text fill="#000000" font-family="sans-serif" font-size="14" font-style="italic" lengthAdjust="spacing" textLength="95" x="80" y="32.8467">AttributeType</text><line style="stroke:#181818;stroke-width:0.5;" x1="52" x2="177" y1="44" y2="44"/><text fill="#000000" font-family="sans-serif" font-size="14" lengthAdjust="spacing" textLength="88" x="57" y="60.9951">name: String</text></g></a><line style="stroke:#181818;stroke-width:1.0;" x1="114.5" x2="114.5" y1="68.2969" y2="88.2969"/><polygon fill="#FFFFFF" points="114.5,68.2969,107.5,87.2969,121.5,87.2969,114.5,68.2969" style="stroke:#181818;stroke-width:1.0;"/><rect fill="#DDDDDD" height="79.1875" id="_legend" rx="7.5" ry="7.5" style="stroke:#000000;stroke-width:1.0;" width="161" x="22" y="161.8906"/><text fill="#000000" font-family="sans-serif" font-size="14" font-weight="bold" lengthAdjust="spacing" textLength="5" x="27" y="181.8857"> </text><text fill="#000000" font-family="sans-serif" font-size="14" font-weight="bold" lengthAdjust="spacing" textLength="28" x="44" y="181.8857">line</text><text fill="#000000" filter="url(#b1fth8sa2o8g4g0)" font-family="sans-serif" font-size="14" lengthAdjust="spacing" textLength="12" x="27" y="198.1826">   </text><text fill="#000000" font-family="sans-serif" font-size="14" lengthAdjust="spacing" textLength="77" x="43" y="198.1826">inheritance</text><text fill="#000000" filter="url(#b1fth8sa2o8g4g1)" font-family="sans-serif" font-size="14" lengthAdjust="spacing" textLength="12" x="27" y="214.4795">   </text><text fill="#000000" font-family="sans-serif" font-size="14" lengthAdjust="spacing" textLength="129" x="43" y="214.4795">property reference</text><text fill="#000000" filter="url(#b1fth8sa2o8g4g2)" font-family="sans-serif" font-size="14" lengthAdjust="spacing" textLength="12" x="27" y="230.7764">   </text><text fill="#000000" font-family="sans-serif" font-size="14" lengthAdjust="spacing" textLength="131" x="43" y="230.7764">discriminated class</text><line style="stroke:#000000;stroke-width:1.0;" x1="27" x2="178" y1="168.8906" y2="168.8906"/><line style="stroke:#000000;stroke-width:1.0;" x1="27" x2="178" y1="185.1875" y2="185.1875"/><line style="stroke:#000000;stroke-width:1.0;" x1="27" x2="178" y1="201.4844" y2="201.4844"/><line style="stroke:#000000;stroke-width:1.0;" x1="27" x2="178" y1="217.7813" y2="217.7813"/><line style="stroke:#000000;stroke-width:1.0;" x1="27" x2="178" y1="234.0781" y2="234.0781"/><line style="stroke:#000000;stroke-width:1.0;" x1="27" x2="27" y1="168.8906" y2="234.0781"/><line style="stroke:#000000;stroke-width:1.0;" x1="39" x2="39" y1="168.8906" y2="234.0781"/><line style="stroke:#000000;stroke-width:1.0;" x1="178" x2="178" y1="168.8906" y2="234.0781"/><!--MD5=[820f30fb4be8a8e81dd105b5af877b5f]
@startuml
!pragma layout elk
hide empty fields
hide empty methods
legend
|= |= line |
|<back:black>   </back>| inheritance |
|<back:green>   </back>| property reference |
|<back:blue>   </back>| discriminated class |
endlegend
interface AttributeSetType [[AttributeSetType.svg]] extends AttributeType {
    name: String
    elementType: [[AttributeType.svg AttributeType]]
}
interface AttributeType [[AttributeType.svg]]  {
    name: String
}





@enduml

PlantUML version 1.2022.13(Sat Nov 19 13:22:17 UTC 2022)
(GPL source distribution)
Java Runtime: OpenJDK Runtime Environment
JVM: OpenJDK 64-Bit Server VM
Default Encoding: UTF-8
Language: en
Country: null
--></g></svg>
