<?xml version="1.0" encoding="UTF-8" standalone="no"?><svg xmlns="http://www.w3.org/2000/svg" xmlns:xlink="http://www.w3.org/1999/xlink" contentStyleType="text/css" height="550px" preserveAspectRatio="none" style="width:3779px;height:550px;background:#FFFFFF;" version="1.1" viewBox="0 0 3779 550" width="3779px" zoomAndPan="magnify"><defs><filter height="1" id="bhrieia2gxxjl0" width="1" x="0" y="0"><feFlood flood-color="#000000" result="flood"/><feComposite in="SourceGraphic" in2="flood" operator="over"/></filter><filter height="1" id="bhrieia2gxxjl1" width="1" x="0" y="0"><feFlood flood-color="#008000" result="flood"/><feComposite in="SourceGraphic" in2="flood" operator="over"/></filter><filter height="1" id="bhrieia2gxxjl2" width="1" x="0" y="0"><feFlood flood-color="#0000FF" result="flood"/><feComposite in="SourceGraphic" in2="flood" operator="over"/></filter></defs><g><!--MD5=[10384619ac45e1a7d81a85fa863ac646]
class AttributeType--><a href="AttributeType.svg" target="_top" title="AttributeType.svg" xlink:actuate="onRequest" xlink:href="AttributeType.svg" xlink:show="new" xlink:title="AttributeType.svg" xlink:type="simple"><g id="elem_AttributeType"><rect codeLine="10" fill="#F1F1F1" height="56.2969" id="AttributeType" rx="2.5" ry="2.5" style="stroke:#181818;stroke-width:0.5;" width="127" x="84.5294" y="12"/><ellipse cx="99.5294" cy="28" fill="#B4A7E5" rx="11" ry="11" style="stroke:#181818;stroke-width:1.0;"/><path d="M95.4513,23.7656 L95.4513,21.6094 L102.8419,21.6094 L102.8419,23.7656 L100.3732,23.7656 L100.3732,31.8438 L102.8419,31.8438 L102.8419,34 L95.4513,34 L95.4513,31.8438 L97.92,31.8438 L97.92,23.7656 L95.4513,23.7656 Z " fill="#000000"/><text fill="#000000" font-family="sans-serif" font-size="14" font-style="italic" lengthAdjust="spacing" textLength="95" x="113.5294" y="32.8467">AttributeType</text><line style="stroke:#181818;stroke-width:0.5;" x1="85.5294" x2="210.5294" y1="44" y2="44"/><text fill="#000000" font-family="sans-serif" font-size="14" lengthAdjust="spacing" textLength="88" x="90.5294" y="60.9951">name: String</text></g></a><!--MD5=[05e616df0917da830d8253367c647fb0]
class AttributeBooleanType--><a href="AttributeBooleanType.svg" target="_top" title="AttributeBooleanType.svg" xlink:actuate="onRequest" xlink:href="AttributeBooleanType.svg" xlink:show="new" xlink:title="AttributeBooleanType.svg" xlink:type="simple"><g id="elem_AttributeBooleanType"><rect codeLine="15" fill="#F1F1F1" height="56.2969" id="AttributeBooleanType" rx="2.5" ry="2.5" style="stroke:#181818;stroke-width:0.5;" width="184" x="3374" y="263.4297"/><ellipse cx="3389" cy="279.4297" fill="#B4A7E5" rx="11" ry="11" style="stroke:#181818;stroke-width:1.0;"/><path d="M3384.9219,275.1953 L3384.9219,273.0391 L3392.3125,273.0391 L3392.3125,275.1953 L3389.8438,275.1953 L3389.8438,283.2734 L3392.3125,283.2734 L3392.3125,285.4297 L3384.9219,285.4297 L3384.9219,283.2734 L3387.3906,283.2734 L3387.3906,275.1953 L3384.9219,275.1953 Z " fill="#000000"/><text fill="#000000" font-family="sans-serif" font-size="14" font-style="italic" lengthAdjust="spacing" textLength="152" x="3403" y="284.2764">AttributeBooleanType</text><line style="stroke:#181818;stroke-width:0.5;" x1="3375" x2="3557" y1="295.4297" y2="295.4297"/><text fill="#000000" font-family="sans-serif" font-size="14" lengthAdjust="spacing" textLength="88" x="3380" y="312.4248">name: String</text></g></a><!--MD5=[151489d20a13b348b353bb7375c02488]
class AttributeDateTimeType--><a href="AttributeDateTimeType.svg" target="_top" title="AttributeDateTimeType.svg" xlink:actuate="onRequest" xlink:href="AttributeDateTimeType.svg" xlink:show="new" xlink:title="AttributeDateTimeType.svg" xlink:type="simple"><g id="elem_AttributeDateTimeType"><rect codeLine="18" fill="#F1F1F1" height="56.2969" id="AttributeDateTimeType" rx="2.5" ry="2.5" style="stroke:#181818;stroke-width:0.5;" width="194" x="3578" y="263.4297"/><ellipse cx="3593" cy="279.4297" fill="#B4A7E5" rx="11" ry="11" style="stroke:#181818;stroke-width:1.0;"/><path d="M3588.9219,275.1953 L3588.9219,273.0391 L3596.3125,273.0391 L3596.3125,275.1953 L3593.8438,275.1953 L3593.8438,283.2734 L3596.3125,283.2734 L3596.3125,285.4297 L3588.9219,285.4297 L3588.9219,283.2734 L3591.3906,283.2734 L3591.3906,275.1953 L3588.9219,275.1953 Z " fill="#000000"/><text fill="#000000" font-family="sans-serif" font-size="14" font-style="italic" lengthAdjust="spacing" textLength="162" x="3607" y="284.2764">AttributeDateTimeType</text><line style="stroke:#181818;stroke-width:0.5;" x1="3579" x2="3771" y1="295.4297" y2="295.4297"/><text fill="#000000" font-family="sans-serif" font-size="14" lengthAdjust="spacing" textLength="88" x="3584" y="312.4248">name: String</text></g></a><!--MD5=[551c85c75a8fa1f0e4fc056650a23df1]
class AttributeDateType--><a href="AttributeDateType.svg" target="_top" title="AttributeDateType.svg" xlink:actuate="onRequest" xlink:href="AttributeDateType.svg" xlink:show="new" xlink:title="AttributeDateType.svg" xlink:type="simple"><g id="elem_AttributeDateType"><rect codeLine="21" fill="#F1F1F1" height="56.2969" id="AttributeDateType" rx="2.5" ry="2.5" style="stroke:#181818;stroke-width:0.5;" width="160" x="12" y="263.4297"/><ellipse cx="27" cy="279.4297" fill="#B4A7E5" rx="11" ry="11" style="stroke:#181818;stroke-width:1.0;"/><path d="M22.9219,275.1953 L22.9219,273.0391 L30.3125,273.0391 L30.3125,275.1953 L27.8438,275.1953 L27.8438,283.2734 L30.3125,283.2734 L30.3125,285.4297 L22.9219,285.4297 L22.9219,283.2734 L25.3906,283.2734 L25.3906,275.1953 L22.9219,275.1953 Z " fill="#000000"/><text fill="#000000" font-family="sans-serif" font-size="14" font-style="italic" lengthAdjust="spacing" textLength="128" x="41" y="284.2764">AttributeDateType</text><line style="stroke:#181818;stroke-width:0.5;" x1="13" x2="171" y1="295.4297" y2="295.4297"/><text fill="#000000" font-family="sans-serif" font-size="14" lengthAdjust="spacing" textLength="88" x="18" y="312.4248">name: String</text></g></a><!--MD5=[f1c29a5c1fb290377878cd6a7ceb56e1]
class AttributeEnumType--><a href="AttributeEnumType.svg" target="_top" title="AttributeEnumType.svg" xlink:actuate="onRequest" xlink:href="AttributeEnumType.svg" xlink:show="new" xlink:title="AttributeEnumType.svg" xlink:type="simple"><g id="elem_AttributeEnumType"><rect codeLine="24" fill="#F1F1F1" height="72.5938" id="AttributeEnumType" rx="2.5" ry="2.5" style="stroke:#181818;stroke-width:0.5;" width="281" x="1051" y="263.4297"/><ellipse cx="1119.75" cy="279.4297" fill="#B4A7E5" rx="11" ry="11" style="stroke:#181818;stroke-width:1.0;"/><path d="M1115.6719,275.1953 L1115.6719,273.0391 L1123.0625,273.0391 L1123.0625,275.1953 L1120.5938,275.1953 L1120.5938,283.2734 L1123.0625,283.2734 L1123.0625,285.4297 L1115.6719,285.4297 L1115.6719,283.2734 L1118.1406,283.2734 L1118.1406,275.1953 L1115.6719,275.1953 Z " fill="#000000"/><text fill="#000000" font-family="sans-serif" font-size="14" font-style="italic" lengthAdjust="spacing" textLength="135" x="1140.25" y="284.2764">AttributeEnumType</text><line style="stroke:#181818;stroke-width:0.5;" x1="1052" x2="1331" y1="295.4297" y2="295.4297"/><text fill="#000000" font-family="sans-serif" font-size="14" lengthAdjust="spacing" textLength="88" x="1057" y="312.4248">name: String</text><text fill="#000000" font-family="sans-serif" font-size="14" lengthAdjust="spacing" textLength="49" x="1057" y="328.7217">values:</text><a href="AttributePlainEnumValue.svg" target="_top" title="AttributePlainEnumValue.svg" xlink:actuate="onRequest" xlink:href="AttributePlainEnumValue.svg" xlink:show="new" xlink:title="AttributePlainEnumValue.svg" xlink:type="simple"><text fill="#0000FF" font-family="sans-serif" font-size="14" lengthAdjust="spacing" text-decoration="underline" textLength="216" x="1110" y="328.7217">List&lt;AttributePlainEnumValue&gt;</text></a></g></a><!--MD5=[ccb97de1b6251de0434feaaacd247bc0]
class AttributeLocalizableTextType--><a href="AttributeLocalizableTextType.svg" target="_top" title="AttributeLocalizableTextType.svg" xlink:actuate="onRequest" xlink:href="AttributeLocalizableTextType.svg" xlink:show="new" xlink:title="AttributeLocalizableTextType.svg" xlink:type="simple"><g id="elem_AttributeLocalizableTextType"><rect codeLine="28" fill="#F1F1F1" height="56.2969" id="AttributeLocalizableTextType" rx="2.5" ry="2.5" style="stroke:#181818;stroke-width:0.5;" width="233" x="2448" y="263.4297"/><ellipse cx="2463" cy="279.4297" fill="#B4A7E5" rx="11" ry="11" style="stroke:#181818;stroke-width:1.0;"/><path d="M2458.9219,275.1953 L2458.9219,273.0391 L2466.3125,273.0391 L2466.3125,275.1953 L2463.8438,275.1953 L2463.8438,283.2734 L2466.3125,283.2734 L2466.3125,285.4297 L2458.9219,285.4297 L2458.9219,283.2734 L2461.3906,283.2734 L2461.3906,275.1953 L2458.9219,275.1953 Z " fill="#000000"/><text fill="#000000" font-family="sans-serif" font-size="14" font-style="italic" lengthAdjust="spacing" textLength="201" x="2477" y="284.2764">AttributeLocalizableTextType</text><line style="stroke:#181818;stroke-width:0.5;" x1="2449" x2="2680" y1="295.4297" y2="295.4297"/><text fill="#000000" font-family="sans-serif" font-size="14" lengthAdjust="spacing" textLength="88" x="2454" y="312.4248">name: String</text></g></a><!--MD5=[f79c6313fdc7b35b8f0ec5adbb98cd15]
class AttributeLocalizedEnumType--><a href="AttributeLocalizedEnumType.svg" target="_top" title="AttributeLocalizedEnumType.svg" xlink:actuate="onRequest" xlink:href="AttributeLocalizedEnumType.svg" xlink:show="new" xlink:title="AttributeLocalizedEnumType.svg" xlink:type="simple"><g id="elem_AttributeLocalizedEnumType"><rect codeLine="31" fill="#F1F1F1" height="72.5938" id="AttributeLocalizedEnumType" rx="2.5" ry="2.5" style="stroke:#181818;stroke-width:0.5;" width="313" x="2701" y="263.4297"/><ellipse cx="2753.75" cy="279.4297" fill="#B4A7E5" rx="11" ry="11" style="stroke:#181818;stroke-width:1.0;"/><path d="M2749.6719,275.1953 L2749.6719,273.0391 L2757.0625,273.0391 L2757.0625,275.1953 L2754.5938,275.1953 L2754.5938,283.2734 L2757.0625,283.2734 L2757.0625,285.4297 L2749.6719,285.4297 L2749.6719,283.2734 L2752.1406,283.2734 L2752.1406,275.1953 L2749.6719,275.1953 Z " fill="#000000"/><text fill="#000000" font-family="sans-serif" font-size="14" font-style="italic" lengthAdjust="spacing" textLength="199" x="2774.25" y="284.2764">AttributeLocalizedEnumType</text><line style="stroke:#181818;stroke-width:0.5;" x1="2702" x2="3013" y1="295.4297" y2="295.4297"/><text fill="#000000" font-family="sans-serif" font-size="14" lengthAdjust="spacing" textLength="88" x="2707" y="312.4248">name: String</text><text fill="#000000" font-family="sans-serif" font-size="14" lengthAdjust="spacing" textLength="49" x="2707" y="328.7217">values:</text><a href="AttributeLocalizedEnumValue.svg" target="_top" title="AttributeLocalizedEnumValue.svg" xlink:actuate="onRequest" xlink:href="AttributeLocalizedEnumValue.svg" xlink:show="new" xlink:title="AttributeLocalizedEnumValue.svg" xlink:type="simple"><text fill="#0000FF" font-family="sans-serif" font-size="14" lengthAdjust="spacing" text-decoration="underline" textLength="248" x="2760" y="328.7217">List&lt;AttributeLocalizedEnumValue&gt;</text></a></g></a><!--MD5=[46fcc8bca4370d93dd5fe21f764e3cb6]
class AttributeMoneyType--><a href="AttributeMoneyType.svg" target="_top" title="AttributeMoneyType.svg" xlink:actuate="onRequest" xlink:href="AttributeMoneyType.svg" xlink:show="new" xlink:title="AttributeMoneyType.svg" xlink:type="simple"><g id="elem_AttributeMoneyType"><rect codeLine="35" fill="#F1F1F1" height="56.2969" id="AttributeMoneyType" rx="2.5" ry="2.5" style="stroke:#181818;stroke-width:0.5;" width="174" x="2254" y="263.4297"/><ellipse cx="2269" cy="279.4297" fill="#B4A7E5" rx="11" ry="11" style="stroke:#181818;stroke-width:1.0;"/><path d="M2264.9219,275.1953 L2264.9219,273.0391 L2272.3125,273.0391 L2272.3125,275.1953 L2269.8438,275.1953 L2269.8438,283.2734 L2272.3125,283.2734 L2272.3125,285.4297 L2264.9219,285.4297 L2264.9219,283.2734 L2267.3906,283.2734 L2267.3906,275.1953 L2264.9219,275.1953 Z " fill="#000000"/><text fill="#000000" font-family="sans-serif" font-size="14" font-style="italic" lengthAdjust="spacing" textLength="142" x="2283" y="284.2764">AttributeMoneyType</text><line style="stroke:#181818;stroke-width:0.5;" x1="2255" x2="2427" y1="295.4297" y2="295.4297"/><text fill="#000000" font-family="sans-serif" font-size="14" lengthAdjust="spacing" textLength="88" x="2260" y="312.4248">name: String</text></g></a><!--MD5=[f5b59f3f34ec3f9aacaa8737410a3c31]
class AttributeNestedType--><a href="AttributeNestedType.svg" target="_top" title="AttributeNestedType.svg" xlink:actuate="onRequest" xlink:href="AttributeNestedType.svg" xlink:show="new" xlink:title="AttributeNestedType.svg" xlink:type="simple"><g id="elem_AttributeNestedType"><rect codeLine="38" fill="#F1F1F1" height="72.5938" id="AttributeNestedType" rx="2.5" ry="2.5" style="stroke:#181818;stroke-width:0.5;" width="283" x="417" y="263.4297"/><ellipse cx="481.75" cy="279.4297" fill="#B4A7E5" rx="11" ry="11" style="stroke:#181818;stroke-width:1.0;"/><path d="M477.6719,275.1953 L477.6719,273.0391 L485.0625,273.0391 L485.0625,275.1953 L482.5938,275.1953 L482.5938,283.2734 L485.0625,283.2734 L485.0625,285.4297 L477.6719,285.4297 L477.6719,283.2734 L480.1406,283.2734 L480.1406,275.1953 L477.6719,275.1953 Z " fill="#000000"/><text fill="#000000" font-family="sans-serif" font-size="14" font-style="italic" lengthAdjust="spacing" textLength="145" x="502.25" y="284.2764">AttributeNestedType</text><line style="stroke:#181818;stroke-width:0.5;" x1="418" x2="699" y1="295.4297" y2="295.4297"/><text fill="#000000" font-family="sans-serif" font-size="14" lengthAdjust="spacing" textLength="88" x="423" y="312.4248">name: String</text><text fill="#000000" font-family="sans-serif" font-size="14" lengthAdjust="spacing" textLength="107" x="423" y="328.7217">typeReference:</text><a href="ProductTypeReference.svg" target="_top" title="ProductTypeReference.svg" xlink:actuate="onRequest" xlink:href="ProductTypeReference.svg" xlink:show="new" xlink:title="ProductTypeReference.svg" xlink:type="simple"><text fill="#0000FF" font-family="sans-serif" font-size="14" lengthAdjust="spacing" text-decoration="underline" textLength="160" x="534" y="328.7217">ProductTypeReference</text></a></g></a><!--MD5=[029bb483bfca9e38561a778e02f18e9a]
class AttributeNumberType--><a href="AttributeNumberType.svg" target="_top" title="AttributeNumberType.svg" xlink:actuate="onRequest" xlink:href="AttributeNumberType.svg" xlink:show="new" xlink:title="AttributeNumberType.svg" xlink:type="simple"><g id="elem_AttributeNumberType"><rect codeLine="42" fill="#F1F1F1" height="56.2969" id="AttributeNumberType" rx="2.5" ry="2.5" style="stroke:#181818;stroke-width:0.5;" width="183" x="1533" y="263.4297"/><ellipse cx="1548" cy="279.4297" fill="#B4A7E5" rx="11" ry="11" style="stroke:#181818;stroke-width:1.0;"/><path d="M1543.9219,275.1953 L1543.9219,273.0391 L1551.3125,273.0391 L1551.3125,275.1953 L1548.8438,275.1953 L1548.8438,283.2734 L1551.3125,283.2734 L1551.3125,285.4297 L1543.9219,285.4297 L1543.9219,283.2734 L1546.3906,283.2734 L1546.3906,275.1953 L1543.9219,275.1953 Z " fill="#000000"/><text fill="#000000" font-family="sans-serif" font-size="14" font-style="italic" lengthAdjust="spacing" textLength="151" x="1562" y="284.2764">AttributeNumberType</text><line style="stroke:#181818;stroke-width:0.5;" x1="1534" x2="1715" y1="295.4297" y2="295.4297"/><text fill="#000000" font-family="sans-serif" font-size="14" lengthAdjust="spacing" textLength="88" x="1539" y="312.4248">name: String</text></g></a><!--MD5=[a03ce6c4ebe91596a1acf593091c0169]
class AttributeReferenceType--><a href="AttributeReferenceType.svg" target="_top" title="AttributeReferenceType.svg" xlink:actuate="onRequest" xlink:href="AttributeReferenceType.svg" xlink:show="new" xlink:title="AttributeReferenceType.svg" xlink:type="simple"><g id="elem_AttributeReferenceType"><rect codeLine="45" fill="#F1F1F1" height="72.5938" id="AttributeReferenceType" rx="2.5" ry="2.5" style="stroke:#181818;stroke-width:0.5;" width="311" x="720" y="263.4297"/><ellipse cx="787.75" cy="279.4297" fill="#B4A7E5" rx="11" ry="11" style="stroke:#181818;stroke-width:1.0;"/><path d="M783.6719,275.1953 L783.6719,273.0391 L791.0625,273.0391 L791.0625,275.1953 L788.5938,275.1953 L788.5938,283.2734 L791.0625,283.2734 L791.0625,285.4297 L783.6719,285.4297 L783.6719,283.2734 L786.1406,283.2734 L786.1406,275.1953 L783.6719,275.1953 Z " fill="#000000"/><text fill="#000000" font-family="sans-serif" font-size="14" font-style="italic" lengthAdjust="spacing" textLength="167" x="808.25" y="284.2764">AttributeReferenceType</text><line style="stroke:#181818;stroke-width:0.5;" x1="721" x2="1030" y1="295.4297" y2="295.4297"/><text fill="#000000" font-family="sans-serif" font-size="14" lengthAdjust="spacing" textLength="88" x="726" y="312.4248">name: String</text><text fill="#000000" font-family="sans-serif" font-size="14" lengthAdjust="spacing" textLength="118" x="726" y="328.7217">referenceTypeId:</text><a href="AttributeReferenceTypeId.svg" target="_top" title="AttributeReferenceTypeId.svg" xlink:actuate="onRequest" xlink:href="AttributeReferenceTypeId.svg" xlink:show="new" xlink:title="AttributeReferenceTypeId.svg" xlink:type="simple"><text fill="#0000FF" font-family="sans-serif" font-size="14" lengthAdjust="spacing" text-decoration="underline" textLength="177" x="848" y="328.7217">AttributeReferenceTypeId</text></a></g></a><!--MD5=[0bd3ffda96146557a59a2657e4f65591]
class AttributeSetType--><a href="AttributeSetType.svg" target="_top" title="AttributeSetType.svg" xlink:actuate="onRequest" xlink:href="AttributeSetType.svg" xlink:show="new" xlink:title="AttributeSetType.svg" xlink:type="simple"><g id="elem_AttributeSetType"><rect codeLine="81" fill="#F1F1F1" height="105.1875" id="AttributeSetType" rx="2.5" ry="2.5" style="stroke:#181818;stroke-width:0.5;" width="205" x="192" y="263.4297"/><ellipse cx="231.75" cy="279.4297" fill="#B4A7E5" rx="11" ry="11" style="stroke:#181818;stroke-width:1.0;"/><path d="M227.6719,275.1953 L227.6719,273.0391 L235.0625,273.0391 L235.0625,275.1953 L232.5938,275.1953 L232.5938,283.2734 L235.0625,283.2734 L235.0625,285.4297 L227.6719,285.4297 L227.6719,283.2734 L230.1406,283.2734 L230.1406,275.1953 L227.6719,275.1953 Z " fill="#000000"/><text fill="#000000" font-family="sans-serif" font-size="14" font-style="italic" lengthAdjust="spacing" textLength="118" x="251.25" y="284.2764">AttributeSetType</text><line style="stroke:#181818;stroke-width:0.5;" x1="193" x2="396" y1="295.4297" y2="295.4297"/><text fill="#000000" font-family="sans-serif" font-size="14" lengthAdjust="spacing" textLength="88" x="198" y="312.4248">name: String</text><text fill="#000000" font-family="sans-serif" font-size="14" lengthAdjust="spacing" textLength="96" x="198" y="328.7217">elementType:</text><a href="AttributeType.svg" target="_top" title="AttributeType.svg" xlink:actuate="onRequest" xlink:href="AttributeType.svg" xlink:show="new" xlink:title="AttributeType.svg" xlink:type="simple"><text fill="#0000FF" font-family="sans-serif" font-size="14" lengthAdjust="spacing" text-decoration="underline" textLength="93" x="298" y="328.7217">AttributeType</text></a><text fill="#000000" font-family="sans-serif" font-size="14" lengthAdjust="spacing" textLength="88" x="198" y="345.0186">name: String</text><text fill="#000000" font-family="sans-serif" font-size="14" lengthAdjust="spacing" textLength="96" x="198" y="361.3154">elementType:</text><a href="AttributeType.svg" target="_top" title="AttributeType.svg" xlink:actuate="onRequest" xlink:href="AttributeType.svg" xlink:show="new" xlink:title="AttributeType.svg" xlink:type="simple"><text fill="#0000FF" font-family="sans-serif" font-size="14" lengthAdjust="spacing" text-decoration="underline" textLength="93" x="298" y="361.3154">AttributeType</text></a></g></a><!--MD5=[eb2e7baa828cbcbfe97c918b21aa23e1]
class AttributeTextType--><a href="AttributeTextType.svg" target="_top" title="AttributeTextType.svg" xlink:actuate="onRequest" xlink:href="AttributeTextType.svg" xlink:show="new" xlink:title="AttributeTextType.svg" xlink:type="simple"><g id="elem_AttributeTextType"><rect codeLine="53" fill="#F1F1F1" height="56.2969" id="AttributeTextType" rx="2.5" ry="2.5" style="stroke:#181818;stroke-width:0.5;" width="158" x="2076" y="263.4297"/><ellipse cx="2091" cy="279.4297" fill="#B4A7E5" rx="11" ry="11" style="stroke:#181818;stroke-width:1.0;"/><path d="M2086.9219,275.1953 L2086.9219,273.0391 L2094.3125,273.0391 L2094.3125,275.1953 L2091.8438,275.1953 L2091.8438,283.2734 L2094.3125,283.2734 L2094.3125,285.4297 L2086.9219,285.4297 L2086.9219,283.2734 L2089.3906,283.2734 L2089.3906,275.1953 L2086.9219,275.1953 Z " fill="#000000"/><text fill="#000000" font-family="sans-serif" font-size="14" font-style="italic" lengthAdjust="spacing" textLength="126" x="2105" y="284.2764">AttributeTextType</text><line style="stroke:#181818;stroke-width:0.5;" x1="2077" x2="2233" y1="295.4297" y2="295.4297"/><text fill="#000000" font-family="sans-serif" font-size="14" lengthAdjust="spacing" textLength="88" x="2082" y="312.4248">name: String</text></g></a><!--MD5=[ccd7843e0d90c86a1305a6f492f00e1b]
class AttributeTimeType--><a href="AttributeTimeType.svg" target="_top" title="AttributeTimeType.svg" xlink:actuate="onRequest" xlink:href="AttributeTimeType.svg" xlink:show="new" xlink:title="AttributeTimeType.svg" xlink:type="simple"><g id="elem_AttributeTimeType"><rect codeLine="56" fill="#F1F1F1" height="56.2969" id="AttributeTimeType" rx="2.5" ry="2.5" style="stroke:#181818;stroke-width:0.5;" width="161" x="1352" y="263.4297"/><ellipse cx="1367" cy="279.4297" fill="#B4A7E5" rx="11" ry="11" style="stroke:#181818;stroke-width:1.0;"/><path d="M1362.9219,275.1953 L1362.9219,273.0391 L1370.3125,273.0391 L1370.3125,275.1953 L1367.8438,275.1953 L1367.8438,283.2734 L1370.3125,283.2734 L1370.3125,285.4297 L1362.9219,285.4297 L1362.9219,283.2734 L1365.3906,283.2734 L1365.3906,275.1953 L1362.9219,275.1953 Z " fill="#000000"/><text fill="#000000" font-family="sans-serif" font-size="14" font-style="italic" lengthAdjust="spacing" textLength="129" x="1381" y="284.2764">AttributeTimeType</text><line style="stroke:#181818;stroke-width:0.5;" x1="1353" x2="1512" y1="295.4297" y2="295.4297"/><text fill="#000000" font-family="sans-serif" font-size="14" lengthAdjust="spacing" textLength="88" x="1358" y="312.4248">name: String</text></g></a><!--MD5=[af9eb5b386b948289fb525e4a4673cfa]
class AttributeDefinition--><a href="AttributeDefinition.svg" target="_top" title="AttributeDefinition.svg" xlink:actuate="onRequest" xlink:href="AttributeDefinition.svg" xlink:show="new" xlink:title="AttributeDefinition.svg" xlink:type="simple"><g id="elem_AttributeDefinition"><rect codeLine="59" fill="#F1F1F1" height="186.6719" id="AttributeDefinition" rx="2.5" ry="2.5" style="stroke:#181818;stroke-width:0.5;" width="320" x="1736" y="263.4297"/><ellipse cx="1829.25" cy="279.4297" fill="#B4A7E5" rx="11" ry="11" style="stroke:#181818;stroke-width:1.0;"/><path d="M1825.1719,275.1953 L1825.1719,273.0391 L1832.5625,273.0391 L1832.5625,275.1953 L1830.0938,275.1953 L1830.0938,283.2734 L1832.5625,283.2734 L1832.5625,285.4297 L1825.1719,285.4297 L1825.1719,283.2734 L1827.6406,283.2734 L1827.6406,275.1953 L1825.1719,275.1953 Z " fill="#000000"/><text fill="#000000" font-family="sans-serif" font-size="14" font-style="italic" lengthAdjust="spacing" textLength="125" x="1849.75" y="284.2764">AttributeDefinition</text><line style="stroke:#181818;stroke-width:0.5;" x1="1737" x2="2055" y1="295.4297" y2="295.4297"/><text fill="#000000" font-family="sans-serif" font-size="14" lengthAdjust="spacing" textLength="35" x="1742" y="312.4248">type:</text><a href="AttributeType.svg" target="_top" title="AttributeType.svg" xlink:actuate="onRequest" xlink:href="AttributeType.svg" xlink:show="new" xlink:title="AttributeType.svg" xlink:type="simple"><text fill="#0000FF" font-family="sans-serif" font-size="14" lengthAdjust="spacing" text-decoration="underline" textLength="93" x="1781" y="312.4248">AttributeType</text></a><text fill="#000000" font-family="sans-serif" font-size="14" lengthAdjust="spacing" textLength="88" x="1742" y="328.7217">name: String</text><text fill="#000000" font-family="sans-serif" font-size="14" lengthAdjust="spacing" textLength="37" x="1742" y="345.0186">label:</text><a href="LocalizedString.svg" target="_top" title="LocalizedString.svg" xlink:actuate="onRequest" xlink:href="LocalizedString.svg" xlink:show="new" xlink:title="LocalizedString.svg" xlink:type="simple"><text fill="#0000FF" font-family="sans-serif" font-size="14" lengthAdjust="spacing" text-decoration="underline" textLength="104" x="1783" y="345.0186">LocalizedString</text></a><text fill="#000000" font-family="sans-serif" font-size="14" lengthAdjust="spacing" textLength="140" x="1742" y="361.3154">isRequired: Boolean</text><text fill="#000000" font-family="sans-serif" font-size="14" lengthAdjust="spacing" textLength="36" x="1742" y="377.6123">level:</text><a href="AttributeLevelEnum.svg" target="_top" title="AttributeLevelEnum.svg" xlink:actuate="onRequest" xlink:href="AttributeLevelEnum.svg" xlink:show="new" xlink:title="AttributeLevelEnum.svg" xlink:type="simple"><text fill="#0000FF" font-family="sans-serif" font-size="14" lengthAdjust="spacing" text-decoration="underline" textLength="134" x="1782" y="377.6123">AttributeLevelEnum</text></a><text fill="#000000" font-family="sans-serif" font-size="14" lengthAdjust="spacing" textLength="134" x="1742" y="393.9092">attributeConstraint:</text><a href="AttributeConstraintEnum.svg" target="_top" title="AttributeConstraintEnum.svg" xlink:actuate="onRequest" xlink:href="AttributeConstraintEnum.svg" xlink:show="new" xlink:title="AttributeConstraintEnum.svg" xlink:type="simple"><text fill="#0000FF" font-family="sans-serif" font-size="14" lengthAdjust="spacing" text-decoration="underline" textLength="170" x="1880" y="393.9092">AttributeConstraintEnum</text></a><text fill="#000000" font-family="sans-serif" font-size="14" lengthAdjust="spacing" textLength="61" x="1742" y="410.2061">inputTip:</text><a href="LocalizedString.svg" target="_top" title="LocalizedString.svg" xlink:actuate="onRequest" xlink:href="LocalizedString.svg" xlink:show="new" xlink:title="LocalizedString.svg" xlink:type="simple"><text fill="#0000FF" font-family="sans-serif" font-size="14" lengthAdjust="spacing" text-decoration="underline" textLength="104" x="1807" y="410.2061">LocalizedString</text></a><text fill="#000000" font-family="sans-serif" font-size="14" lengthAdjust="spacing" textLength="67" x="1742" y="426.5029">inputHint:</text><a href="TextInputHint.svg" target="_top" title="TextInputHint.svg" xlink:actuate="onRequest" xlink:href="TextInputHint.svg" xlink:show="new" xlink:title="TextInputHint.svg" xlink:type="simple"><text fill="#0000FF" font-family="sans-serif" font-size="14" lengthAdjust="spacing" text-decoration="underline" textLength="92" x="1813" y="426.5029">TextInputHint</text></a><text fill="#000000" font-family="sans-serif" font-size="14" lengthAdjust="spacing" textLength="154" x="1742" y="442.7998">isSearchable: Boolean</text></g></a><!--MD5=[49813502fca468e6013d50ddba928817]
class AttributeDefinitionDraft--><a href="AttributeDefinitionDraft.svg" target="_top" title="AttributeDefinitionDraft.svg" xlink:actuate="onRequest" xlink:href="AttributeDefinitionDraft.svg" xlink:show="new" xlink:title="AttributeDefinitionDraft.svg" xlink:type="simple"><g id="elem_AttributeDefinitionDraft"><rect codeLine="70" fill="#F1F1F1" height="186.6719" id="AttributeDefinitionDraft" rx="2.5" ry="2.5" style="stroke:#181818;stroke-width:0.5;" width="320" x="3034" y="263.4297"/><ellipse cx="3110.75" cy="279.4297" fill="#B4A7E5" rx="11" ry="11" style="stroke:#181818;stroke-width:1.0;"/><path d="M3106.6719,275.1953 L3106.6719,273.0391 L3114.0625,273.0391 L3114.0625,275.1953 L3111.5938,275.1953 L3111.5938,283.2734 L3114.0625,283.2734 L3114.0625,285.4297 L3106.6719,285.4297 L3106.6719,283.2734 L3109.1406,283.2734 L3109.1406,275.1953 L3106.6719,275.1953 Z " fill="#000000"/><text fill="#000000" font-family="sans-serif" font-size="14" font-style="italic" lengthAdjust="spacing" textLength="158" x="3131.25" y="284.2764">AttributeDefinitionDraft</text><line style="stroke:#181818;stroke-width:0.5;" x1="3035" x2="3353" y1="295.4297" y2="295.4297"/><text fill="#000000" font-family="sans-serif" font-size="14" lengthAdjust="spacing" textLength="35" x="3040" y="312.4248">type:</text><a href="AttributeType.svg" target="_top" title="AttributeType.svg" xlink:actuate="onRequest" xlink:href="AttributeType.svg" xlink:show="new" xlink:title="AttributeType.svg" xlink:type="simple"><text fill="#0000FF" font-family="sans-serif" font-size="14" lengthAdjust="spacing" text-decoration="underline" textLength="93" x="3079" y="312.4248">AttributeType</text></a><text fill="#000000" font-family="sans-serif" font-size="14" lengthAdjust="spacing" textLength="88" x="3040" y="328.7217">name: String</text><text fill="#000000" font-family="sans-serif" font-size="14" lengthAdjust="spacing" textLength="37" x="3040" y="345.0186">label:</text><a href="LocalizedString.svg" target="_top" title="LocalizedString.svg" xlink:actuate="onRequest" xlink:href="LocalizedString.svg" xlink:show="new" xlink:title="LocalizedString.svg" xlink:type="simple"><text fill="#0000FF" font-family="sans-serif" font-size="14" lengthAdjust="spacing" text-decoration="underline" textLength="104" x="3081" y="345.0186">LocalizedString</text></a><text fill="#000000" font-family="sans-serif" font-size="14" lengthAdjust="spacing" textLength="140" x="3040" y="361.3154">isRequired: Boolean</text><text fill="#000000" font-family="sans-serif" font-size="14" lengthAdjust="spacing" textLength="36" x="3040" y="377.6123">level:</text><a href="AttributeLevelEnum.svg" target="_top" title="AttributeLevelEnum.svg" xlink:actuate="onRequest" xlink:href="AttributeLevelEnum.svg" xlink:show="new" xlink:title="AttributeLevelEnum.svg" xlink:type="simple"><text fill="#0000FF" font-family="sans-serif" font-size="14" lengthAdjust="spacing" text-decoration="underline" textLength="134" x="3080" y="377.6123">AttributeLevelEnum</text></a><text fill="#000000" font-family="sans-serif" font-size="14" lengthAdjust="spacing" textLength="134" x="3040" y="393.9092">attributeConstraint:</text><a href="AttributeConstraintEnum.svg" target="_top" title="AttributeConstraintEnum.svg" xlink:actuate="onRequest" xlink:href="AttributeConstraintEnum.svg" xlink:show="new" xlink:title="AttributeConstraintEnum.svg" xlink:type="simple"><text fill="#0000FF" font-family="sans-serif" font-size="14" lengthAdjust="spacing" text-decoration="underline" textLength="170" x="3178" y="393.9092">AttributeConstraintEnum</text></a><text fill="#000000" font-family="sans-serif" font-size="14" lengthAdjust="spacing" textLength="61" x="3040" y="410.2061">inputTip:</text><a href="LocalizedString.svg" target="_top" title="LocalizedString.svg" xlink:actuate="onRequest" xlink:href="LocalizedString.svg" xlink:show="new" xlink:title="LocalizedString.svg" xlink:type="simple"><text fill="#0000FF" font-family="sans-serif" font-size="14" lengthAdjust="spacing" text-decoration="underline" textLength="104" x="3105" y="410.2061">LocalizedString</text></a><text fill="#000000" font-family="sans-serif" font-size="14" lengthAdjust="spacing" textLength="67" x="3040" y="426.5029">inputHint:</text><a href="TextInputHint.svg" target="_top" title="TextInputHint.svg" xlink:actuate="onRequest" xlink:href="TextInputHint.svg" xlink:show="new" xlink:title="TextInputHint.svg" xlink:type="simple"><text fill="#0000FF" font-family="sans-serif" font-size="14" lengthAdjust="spacing" text-decoration="underline" textLength="92" x="3111" y="426.5029">TextInputHint</text></a><text fill="#000000" font-family="sans-serif" font-size="14" lengthAdjust="spacing" textLength="154" x="3040" y="442.7998">isSearchable: Boolean</text></g></a><line style="stroke:#0000FF;stroke-width:1.0;" x1="196.5882" x2="196.5882" y1="68.2969" y2="88.2969"/><line style="stroke:#0000FF;stroke-width:1.0;" x1="196.5882" x2="3466" y1="88.2969" y2="88.2969"/><line style="stroke:#0000FF;stroke-width:1.0;" x1="3466" x2="3466" y1="88.2969" y2="263.4297"/><polygon fill="#0000FF" points="3466,263.4297,3470,254.4297,3466,258.4297,3462,254.4297,3466,263.4297" style="stroke:#0000FF;stroke-width:1.0;"/><text fill="#000000" font-family="sans-serif" font-size="13" lengthAdjust="spacing" textLength="100" x="3364" y="240.3638">name : boolean</text><line style="stroke:#0000FF;stroke-width:1.0;" x1="204.0588" x2="204.0588" y1="68.2969" y2="78.2969"/><line style="stroke:#0000FF;stroke-width:1.0;" x1="204.0588" x2="3675" y1="78.2969" y2="78.2969"/><line style="stroke:#0000FF;stroke-width:1.0;" x1="3675" x2="3675" y1="78.2969" y2="263.4297"/><polygon fill="#0000FF" points="3675,263.4297,3679,254.4297,3675,258.4297,3671,254.4297,3675,263.4297" style="stroke:#0000FF;stroke-width:1.0;"/><text fill="#000000" font-family="sans-serif" font-size="13" lengthAdjust="spacing" textLength="107" x="3566" y="240.3638">name : datetime</text><line style="stroke:#0000FF;stroke-width:1.0;" x1="92" x2="92" y1="68.2969" y2="263.4297"/><polygon fill="#0000FF" points="92,263.4297,96,254.4297,92,258.4297,88,254.4297,92,263.4297" style="stroke:#0000FF;stroke-width:1.0;"/><text fill="#000000" font-family="sans-serif" font-size="13" lengthAdjust="spacing" textLength="78" x="12" y="240.3638">name : date</text><line style="stroke:#0000FF;stroke-width:1.0;" x1="129.3529" x2="129.3529" y1="68.2969" y2="178.2969"/><line style="stroke:#0000FF;stroke-width:1.0;" x1="129.3529" x2="1191.5" y1="178.2969" y2="178.2969"/><line style="stroke:#0000FF;stroke-width:1.0;" x1="1191.5" x2="1191.5" y1="178.2969" y2="263.4297"/><polygon fill="#0000FF" points="1191.5,263.4297,1195.5,254.4297,1191.5,258.4297,1187.5,254.4297,1191.5,263.4297" style="stroke:#0000FF;stroke-width:1.0;"/><text fill="#000000" font-family="sans-serif" font-size="13" lengthAdjust="spacing" textLength="86" x="1103.5" y="240.3638">name : enum</text><line style="stroke:#0000FF;stroke-width:1.0;" x1="174.1765" x2="174.1765" y1="68.2969" y2="118.2969"/><line style="stroke:#0000FF;stroke-width:1.0;" x1="174.1765" x2="2564.5" y1="118.2969" y2="118.2969"/><line style="stroke:#0000FF;stroke-width:1.0;" x1="2564.5" x2="2564.5" y1="118.2969" y2="263.4297"/><polygon fill="#0000FF" points="2564.5,263.4297,2568.5,254.4297,2564.5,258.4297,2560.5,254.4297,2564.5,263.4297" style="stroke:#0000FF;stroke-width:1.0;"/><text fill="#000000" font-family="sans-serif" font-size="13" lengthAdjust="spacing" textLength="77" x="2485.5" y="240.3638">name : ltext</text><line style="stroke:#0000FF;stroke-width:1.0;" x1="181.6471" x2="181.6471" y1="68.2969" y2="108.2969"/><line style="stroke:#0000FF;stroke-width:1.0;" x1="181.6471" x2="2857.5" y1="108.2969" y2="108.2969"/><line style="stroke:#0000FF;stroke-width:1.0;" x1="2857.5" x2="2857.5" y1="108.2969" y2="263.4297"/><polygon fill="#0000FF" points="2857.5,263.4297,2861.5,254.4297,2857.5,258.4297,2853.5,254.4297,2857.5,263.4297" style="stroke:#0000FF;stroke-width:1.0;"/><text fill="#000000" font-family="sans-serif" font-size="13" lengthAdjust="spacing" textLength="89" x="2766.5" y="240.3638">name : lenum</text><line style="stroke:#0000FF;stroke-width:1.0;" x1="166.7059" x2="166.7059" y1="68.2969" y2="128.2969"/><line style="stroke:#0000FF;stroke-width:1.0;" x1="166.7059" x2="2341" y1="128.2969" y2="128.2969"/><line style="stroke:#0000FF;stroke-width:1.0;" x1="2341" x2="2341" y1="128.2969" y2="263.4297"/><polygon fill="#0000FF" points="2341,263.4297,2345,254.4297,2341,258.4297,2337,254.4297,2341,263.4297" style="stroke:#0000FF;stroke-width:1.0;"/><text fill="#000000" font-family="sans-serif" font-size="13" lengthAdjust="spacing" textLength="93" x="2246" y="240.3638">name : money</text><line style="stroke:#0000FF;stroke-width:1.0;" x1="114.4118" x2="114.4118" y1="68.2969" y2="198.2969"/><line style="stroke:#0000FF;stroke-width:1.0;" x1="114.4118" x2="558.5" y1="198.2969" y2="198.2969"/><line style="stroke:#0000FF;stroke-width:1.0;" x1="558.5" x2="558.5" y1="198.2969" y2="263.4297"/><polygon fill="#0000FF" points="558.5,263.4297,562.5,254.4297,558.5,258.4297,554.5,254.4297,558.5,263.4297" style="stroke:#0000FF;stroke-width:1.0;"/><text fill="#000000" font-family="sans-serif" font-size="13" lengthAdjust="spacing" textLength="93" x="463.5" y="240.3638">name : nested</text><line style="stroke:#0000FF;stroke-width:1.0;" x1="144.2941" x2="144.2941" y1="68.2969" y2="158.2969"/><line style="stroke:#0000FF;stroke-width:1.0;" x1="144.2941" x2="1624.5" y1="158.2969" y2="158.2969"/><line style="stroke:#0000FF;stroke-width:1.0;" x1="1624.5" x2="1624.5" y1="158.2969" y2="263.4297"/><polygon fill="#0000FF" points="1624.5,263.4297,1628.5,254.4297,1624.5,258.4297,1620.5,254.4297,1624.5,263.4297" style="stroke:#0000FF;stroke-width:1.0;"/><text fill="#000000" font-family="sans-serif" font-size="13" lengthAdjust="spacing" textLength="99" x="1523.5" y="240.3638">name : number</text><line style="stroke:#0000FF;stroke-width:1.0;" x1="121.8824" x2="121.8824" y1="68.2969" y2="188.2969"/><line style="stroke:#0000FF;stroke-width:1.0;" x1="121.8824" x2="875.5" y1="188.2969" y2="188.2969"/><line style="stroke:#0000FF;stroke-width:1.0;" x1="875.5" x2="875.5" y1="188.2969" y2="263.4297"/><polygon fill="#0000FF" points="875.5,263.4297,879.5,254.4297,875.5,258.4297,871.5,254.4297,875.5,263.4297" style="stroke:#0000FF;stroke-width:1.0;"/><text fill="#000000" font-family="sans-serif" font-size="13" lengthAdjust="spacing" textLength="110" x="763.5" y="240.3638">name : reference</text><line style="stroke:#0000FF;stroke-width:1.0;" x1="106.9412" x2="106.9412" y1="68.2969" y2="208.2969"/><line style="stroke:#0000FF;stroke-width:1.0;" x1="106.9412" x2="271.3333" y1="208.2969" y2="208.2969"/><line style="stroke:#0000FF;stroke-width:1.0;" x1="271.3333" x2="271.3333" y1="208.2969" y2="253.4297"/><line style="stroke:#0000FF;stroke-width:1.0;" x1="271.3333" x2="328.6667" y1="253.4297" y2="253.4297"/><line style="stroke:#0000FF;stroke-width:1.0;" x1="328.6667" x2="328.6667" y1="253.4297" y2="263.4297"/><polygon fill="#0000FF" points="328.6667,263.4297,332.6667,254.4297,328.6667,258.4297,324.6667,254.4297,328.6667,263.4297" style="stroke:#0000FF;stroke-width:1.0;"/><text fill="#000000" font-family="sans-serif" font-size="13" lengthAdjust="spacing" textLength="69" x="274.3333" y="240.3638">name : set</text><line style="stroke:#0000FF;stroke-width:1.0;" x1="159.2353" x2="159.2353" y1="68.2969" y2="138.2969"/><line style="stroke:#0000FF;stroke-width:1.0;" x1="159.2353" x2="2155" y1="138.2969" y2="138.2969"/><line style="stroke:#0000FF;stroke-width:1.0;" x1="2155" x2="2155" y1="138.2969" y2="263.4297"/><polygon fill="#0000FF" points="2155,263.4297,2159,254.4297,2155,258.4297,2151,254.4297,2155,263.4297" style="stroke:#0000FF;stroke-width:1.0;"/><text fill="#000000" font-family="sans-serif" font-size="13" lengthAdjust="spacing" textLength="74" x="2079" y="240.3638">name : text</text><line style="stroke:#0000FF;stroke-width:1.0;" x1="136.8235" x2="136.8235" y1="68.2969" y2="168.2969"/><line style="stroke:#0000FF;stroke-width:1.0;" x1="136.8235" x2="1432.5" y1="168.2969" y2="168.2969"/><line style="stroke:#0000FF;stroke-width:1.0;" x1="1432.5" x2="1432.5" y1="168.2969" y2="263.4297"/><polygon fill="#0000FF" points="1432.5,263.4297,1436.5,254.4297,1432.5,258.4297,1428.5,254.4297,1432.5,263.4297" style="stroke:#0000FF;stroke-width:1.0;"/><text fill="#000000" font-family="sans-serif" font-size="13" lengthAdjust="spacing" textLength="78" x="1352.5" y="240.3638">name : time</text><line style="stroke:#008000;stroke-width:1.0;" x1="151.7647" x2="151.7647" y1="68.2969" y2="148.2969"/><line style="stroke:#008000;stroke-width:1.0;" x1="151.7647" x2="1896" y1="148.2969" y2="148.2969"/><line style="stroke:#008000;stroke-width:1.0;" x1="1896" x2="1896" y1="148.2969" y2="263.4297"/><polygon fill="#008000" points="1896,263.4297,1900,254.4297,1896,258.4297,1892,254.4297,1896,263.4297" style="stroke:#008000;stroke-width:1.0;"/><text fill="#000000" font-family="sans-serif" font-size="13" lengthAdjust="spacing" textLength="28" x="1866" y="240.3638">type</text><line style="stroke:#008000;stroke-width:1.0;" x1="189.1176" x2="189.1176" y1="68.2969" y2="98.2969"/><line style="stroke:#008000;stroke-width:1.0;" x1="189.1176" x2="3194" y1="98.2969" y2="98.2969"/><line style="stroke:#008000;stroke-width:1.0;" x1="3194" x2="3194" y1="98.2969" y2="263.4297"/><polygon fill="#008000" points="3194,263.4297,3198,254.4297,3194,258.4297,3190,254.4297,3194,263.4297" style="stroke:#008000;stroke-width:1.0;"/><text fill="#000000" font-family="sans-serif" font-size="13" lengthAdjust="spacing" textLength="28" x="3164" y="240.3638">type</text><line style="stroke:#008000;stroke-width:1.0;" x1="99.4706" x2="99.4706" y1="68.2969" y2="218.2969"/><line style="stroke:#008000;stroke-width:1.0;" x1="99.4706" x2="260.3333" y1="218.2969" y2="218.2969"/><line style="stroke:#008000;stroke-width:1.0;" x1="260.3333" x2="260.3333" y1="218.2969" y2="263.4297"/><polygon fill="#008000" points="260.3333,263.4297,264.3333,254.4297,260.3333,258.4297,256.3333,254.4297,260.3333,263.4297" style="stroke:#008000;stroke-width:1.0;"/><text fill="#000000" font-family="sans-serif" font-size="13" lengthAdjust="spacing" textLength="83" x="175.3333" y="240.3638">elementType</text><rect fill="#DDDDDD" height="79.1875" id="_legend" rx="7.5" ry="7.5" style="stroke:#000000;stroke-width:1.0;" width="161" x="1799.5" y="451.1016"/><text fill="#000000" font-family="sans-serif" font-size="14" font-weight="bold" lengthAdjust="spacing" textLength="5" x="1804.5" y="471.0967"> </text><text fill="#000000" font-family="sans-serif" font-size="14" font-weight="bold" lengthAdjust="spacing" textLength="28" x="1821.5" y="471.0967">line</text><text fill="#000000" filter="url(#bhrieia2gxxjl0)" font-family="sans-serif" font-size="14" lengthAdjust="spacing" textLength="12" x="1804.5" y="487.3936">   </text><text fill="#000000" font-family="sans-serif" font-size="14" lengthAdjust="spacing" textLength="77" x="1820.5" y="487.3936">inheritance</text><text fill="#000000" filter="url(#bhrieia2gxxjl1)" font-family="sans-serif" font-size="14" lengthAdjust="spacing" textLength="12" x="1804.5" y="503.6904">   </text><text fill="#000000" font-family="sans-serif" font-size="14" lengthAdjust="spacing" textLength="129" x="1820.5" y="503.6904">property reference</text><text fill="#000000" filter="url(#bhrieia2gxxjl2)" font-family="sans-serif" font-size="14" lengthAdjust="spacing" textLength="12" x="1804.5" y="519.9873">   </text><text fill="#000000" font-family="sans-serif" font-size="14" lengthAdjust="spacing" textLength="131" x="1820.5" y="519.9873">discriminated class</text><line style="stroke:#000000;stroke-width:1.0;" x1="1804.5" x2="1955.5" y1="458.1016" y2="458.1016"/><line style="stroke:#000000;stroke-width:1.0;" x1="1804.5" x2="1955.5" y1="474.3984" y2="474.3984"/><line style="stroke:#000000;stroke-width:1.0;" x1="1804.5" x2="1955.5" y1="490.6953" y2="490.6953"/><line style="stroke:#000000;stroke-width:1.0;" x1="1804.5" x2="1955.5" y1="506.9922" y2="506.9922"/><line style="stroke:#000000;stroke-width:1.0;" x1="1804.5" x2="1955.5" y1="523.2891" y2="523.2891"/><line style="stroke:#000000;stroke-width:1.0;" x1="1804.5" x2="1804.5" y1="458.1016" y2="523.2891"/><line style="stroke:#000000;stroke-width:1.0;" x1="1816.5" x2="1816.5" y1="458.1016" y2="523.2891"/><line style="stroke:#000000;stroke-width:1.0;" x1="1955.5" x2="1955.5" y1="458.1016" y2="523.2891"/><!--MD5=[5f1518350227c1c82bca851f5ffdda4d]
@startuml
!pragma layout elk
hide empty fields
hide empty methods
legend
|= |= line |
|<back:black>   </back>| inheritance |
|<back:green>   </back>| property reference |
|<back:blue>   </back>| discriminated class |
endlegend
interface AttributeType [[AttributeType.svg]]  {
    name: String
}


interface AttributeBooleanType [[AttributeBooleanType.svg]]  {
    name: String
}
interface AttributeDateTimeType [[AttributeDateTimeType.svg]]  {
    name: String
}
interface AttributeDateType [[AttributeDateType.svg]]  {
    name: String
}
interface AttributeEnumType [[AttributeEnumType.svg]]  {
    name: String
    values: [[AttributePlainEnumValue.svg List<AttributePlainEnumValue>]]
}
interface AttributeLocalizableTextType [[AttributeLocalizableTextType.svg]]  {
    name: String
}
interface AttributeLocalizedEnumType [[AttributeLocalizedEnumType.svg]]  {
    name: String
    values: [[AttributeLocalizedEnumValue.svg List<AttributeLocalizedEnumValue>]]
}
interface AttributeMoneyType [[AttributeMoneyType.svg]]  {
    name: String
}
interface AttributeNestedType [[AttributeNestedType.svg]]  {
    name: String
    typeReference: [[ProductTypeReference.svg ProductTypeReference]]
}
interface AttributeNumberType [[AttributeNumberType.svg]]  {
    name: String
}
interface AttributeReferenceType [[AttributeReferenceType.svg]]  {
    name: String
    referenceTypeId: [[AttributeReferenceTypeId.svg AttributeReferenceTypeId]]
}
interface AttributeSetType [[AttributeSetType.svg]]  {
    name: String
    elementType: [[AttributeType.svg AttributeType]]
}
interface AttributeTextType [[AttributeTextType.svg]]  {
    name: String
}
interface AttributeTimeType [[AttributeTimeType.svg]]  {
    name: String
}
interface AttributeDefinition [[AttributeDefinition.svg]]  {
    type: [[AttributeType.svg AttributeType]]
    name: String
    label: [[LocalizedString.svg LocalizedString]]
    isRequired: Boolean
    level: [[AttributeLevelEnum.svg AttributeLevelEnum]]
    attributeConstraint: [[AttributeConstraintEnum.svg AttributeConstraintEnum]]
    inputTip: [[LocalizedString.svg LocalizedString]]
    inputHint: [[TextInputHint.svg TextInputHint]]
    isSearchable: Boolean
}
interface AttributeDefinitionDraft [[AttributeDefinitionDraft.svg]]  {
    type: [[AttributeType.svg AttributeType]]
    name: String
    label: [[LocalizedString.svg LocalizedString]]
    isRequired: Boolean
    level: [[AttributeLevelEnum.svg AttributeLevelEnum]]
    attributeConstraint: [[AttributeConstraintEnum.svg AttributeConstraintEnum]]
    inputTip: [[LocalizedString.svg LocalizedString]]
    inputHint: [[TextInputHint.svg TextInputHint]]
    isSearchable: Boolean
}
interface AttributeSetType [[AttributeSetType.svg]]  {
    name: String
    elementType: [[AttributeType.svg AttributeType]]
}
AttributeType - -> AttributeBooleanType #blue;text:blue : "name : boolean"
AttributeType - -> AttributeDateTimeType #blue;text:blue : "name : datetime"
AttributeType - -> AttributeDateType #blue;text:blue : "name : date"
AttributeType - -> AttributeEnumType #blue;text:blue : "name : enum"
AttributeType - -> AttributeLocalizableTextType #blue;text:blue : "name : ltext"
AttributeType - -> AttributeLocalizedEnumType #blue;text:blue : "name : lenum"
AttributeType - -> AttributeMoneyType #blue;text:blue : "name : money"
AttributeType - -> AttributeNestedType #blue;text:blue : "name : nested"
AttributeType - -> AttributeNumberType #blue;text:blue : "name : number"
AttributeType - -> AttributeReferenceType #blue;text:blue : "name : reference"
AttributeType - -> AttributeSetType #blue;text:blue : "name : set"
AttributeType - -> AttributeTextType #blue;text:blue : "name : text"
AttributeType - -> AttributeTimeType #blue;text:blue : "name : time"
AttributeType - -> AttributeDefinition #green;text:green : "type"
AttributeType - -> AttributeDefinitionDraft #green;text:green : "type"
AttributeType - -> AttributeSetType #green;text:green : "elementType"
@enduml

PlantUML version 1.2022.13(Sat Nov 19 13:22:17 UTC 2022)
(GPL source distribution)
Java Runtime: OpenJDK Runtime Environment
JVM: OpenJDK 64-Bit Server VM
Default Encoding: UTF-8
Language: en
Country: null
--></g></svg>
