<?xml version="1.0" encoding="UTF-8" standalone="no"?><svg xmlns="http://www.w3.org/2000/svg" xmlns:xlink="http://www.w3.org/1999/xlink" contentStyleType="text/css" height="244px" preserveAspectRatio="none" style="width:213px;height:244px;background:#FFFFFF;" version="1.1" viewBox="0 0 213 244" width="213px" zoomAndPan="magnify"><defs><filter height="1" id="bjrf5o0n24s750" width="1" x="0" y="0"><feFlood flood-color="#000000" result="flood"/><feComposite in="SourceGraphic" in2="flood" operator="over"/></filter><filter height="1" id="bjrf5o0n24s751" width="1" x="0" y="0"><feFlood flood-color="#008000" result="flood"/><feComposite in="SourceGraphic" in2="flood" operator="over"/></filter><filter height="1" id="bjrf5o0n24s752" width="1" x="0" y="0"><feFlood flood-color="#0000FF" result="flood"/><feComposite in="SourceGraphic" in2="flood" operator="over"/></filter></defs><g><!--MD5=[151489d20a13b348b353bb7375c02488]
class AttributeDateTimeType--><a href="AttributeDateTimeType.svg" target="_top" title="AttributeDateTimeType.svg" xlink:actuate="onRequest" xlink:href="AttributeDateTimeType.svg" xlink:show="new" xlink:title="AttributeDateTimeType.svg" xlink:type="simple"><g id="elem_AttributeDateTimeType"><rect codeLine="10" fill="#F1F1F1" height="56.2969" id="AttributeDateTimeType" rx="2.5" ry="2.5" style="stroke:#181818;stroke-width:0.5;" width="194" x="12" y="88.2969"/><ellipse cx="27" cy="104.2969" fill="#B4A7E5" rx="11" ry="11" style="stroke:#181818;stroke-width:1.0;"/><path d="M22.9219,100.0625 L22.9219,97.9063 L30.3125,97.9063 L30.3125,100.0625 L27.8438,100.0625 L27.8438,108.1406 L30.3125,108.1406 L30.3125,110.2969 L22.9219,110.2969 L22.9219,108.1406 L25.3906,108.1406 L25.3906,100.0625 L22.9219,100.0625 Z " fill="#000000"/><text fill="#000000" font-family="sans-serif" font-size="14" font-style="italic" lengthAdjust="spacing" textLength="162" x="41" y="109.1436">AttributeDateTimeType</text><line style="stroke:#181818;stroke-width:0.5;" x1="13" x2="205" y1="120.2969" y2="120.2969"/><text fill="#000000" font-family="sans-serif" font-size="14" lengthAdjust="spacing" textLength="88" x="18" y="137.292">name: String</text></g></a><!--MD5=[10384619ac45e1a7d81a85fa863ac646]
class AttributeType--><a href="AttributeType.svg" target="_top" title="AttributeType.svg" xlink:actuate="onRequest" xlink:href="AttributeType.svg" xlink:show="new" xlink:title="AttributeType.svg" xlink:type="simple"><g id="elem_AttributeType"><rect codeLine="13" fill="#F1F1F1" height="56.2969" id="AttributeType" rx="2.5" ry="2.5" style="stroke:#181818;stroke-width:0.5;" width="127" x="45.5" y="12"/><ellipse cx="60.5" cy="28" fill="#B4A7E5" rx="11" ry="11" style="stroke:#181818;stroke-width:1.0;"/><path d="M56.4219,23.7656 L56.4219,21.6094 L63.8125,21.6094 L63.8125,23.7656 L61.3438,23.7656 L61.3438,31.8438 L63.8125,31.8438 L63.8125,34 L56.4219,34 L56.4219,31.8438 L58.8906,31.8438 L58.8906,23.7656 L56.4219,23.7656 Z " fill="#000000"/><text fill="#000000" font-family="sans-serif" font-size="14" font-style="italic" lengthAdjust="spacing" textLength="95" x="74.5" y="32.8467">AttributeType</text><line style="stroke:#181818;stroke-width:0.5;" x1="46.5" x2="171.5" y1="44" y2="44"/><text fill="#000000" font-family="sans-serif" font-size="14" lengthAdjust="spacing" textLength="88" x="51.5" y="60.9951">name: String</text></g></a><line style="stroke:#181818;stroke-width:1.0;" x1="109" x2="109" y1="68.2969" y2="88.2969"/><polygon fill="#FFFFFF" points="109,68.2969,102,87.2969,116,87.2969,109,68.2969" style="stroke:#181818;stroke-width:1.0;"/><rect fill="#DDDDDD" height="79.1875" id="_legend" rx="7.5" ry="7.5" style="stroke:#000000;stroke-width:1.0;" width="161" x="16.5" y="145.5938"/><text fill="#000000" font-family="sans-serif" font-size="14" font-weight="bold" lengthAdjust="spacing" textLength="5" x="21.5" y="165.5889"> </text><text fill="#000000" font-family="sans-serif" font-size="14" font-weight="bold" lengthAdjust="spacing" textLength="28" x="38.5" y="165.5889">line</text><text fill="#000000" filter="url(#bjrf5o0n24s750)" font-family="sans-serif" font-size="14" lengthAdjust="spacing" textLength="12" x="21.5" y="181.8857">   </text><text fill="#000000" font-family="sans-serif" font-size="14" lengthAdjust="spacing" textLength="77" x="37.5" y="181.8857">inheritance</text><text fill="#000000" filter="url(#bjrf5o0n24s751)" font-family="sans-serif" font-size="14" lengthAdjust="spacing" textLength="12" x="21.5" y="198.1826">   </text><text fill="#000000" font-family="sans-serif" font-size="14" lengthAdjust="spacing" textLength="129" x="37.5" y="198.1826">property reference</text><text fill="#000000" filter="url(#bjrf5o0n24s752)" font-family="sans-serif" font-size="14" lengthAdjust="spacing" textLength="12" x="21.5" y="214.4795">   </text><text fill="#000000" font-family="sans-serif" font-size="14" lengthAdjust="spacing" textLength="131" x="37.5" y="214.4795">discriminated class</text><line style="stroke:#000000;stroke-width:1.0;" x1="21.5" x2="172.5" y1="152.5938" y2="152.5938"/><line style="stroke:#000000;stroke-width:1.0;" x1="21.5" x2="172.5" y1="168.8906" y2="168.8906"/><line style="stroke:#000000;stroke-width:1.0;" x1="21.5" x2="172.5" y1="185.1875" y2="185.1875"/><line style="stroke:#000000;stroke-width:1.0;" x1="21.5" x2="172.5" y1="201.4844" y2="201.4844"/><line style="stroke:#000000;stroke-width:1.0;" x1="21.5" x2="172.5" y1="217.7813" y2="217.7813"/><line style="stroke:#000000;stroke-width:1.0;" x1="21.5" x2="21.5" y1="152.5938" y2="217.7813"/><line style="stroke:#000000;stroke-width:1.0;" x1="33.5" x2="33.5" y1="152.5938" y2="217.7813"/><line style="stroke:#000000;stroke-width:1.0;" x1="172.5" x2="172.5" y1="152.5938" y2="217.7813"/><!--MD5=[995c51ba04b6067dbf4407349e88b918]
@startuml
!pragma layout elk
hide empty fields
hide empty methods
legend
|= |= line |
|<back:black>   </back>| inheritance |
|<back:green>   </back>| property reference |
|<back:blue>   </back>| discriminated class |
endlegend
interface AttributeDateTimeType [[AttributeDateTimeType.svg]] extends AttributeType {
    name: String
}
interface AttributeType [[AttributeType.svg]]  {
    name: String
}





@enduml

PlantUML version 1.2022.13(Sat Nov 19 13:22:17 UTC 2022)
(GPL source distribution)
Java Runtime: OpenJDK Runtime Environment
JVM: OpenJDK 64-Bit Server VM
Default Encoding: UTF-8
Language: en
Country: null
--></g></svg>
