<?xml version="1.0" encoding="UTF-8" standalone="no"?><svg xmlns="http://www.w3.org/2000/svg" xmlns:xlink="http://www.w3.org/1999/xlink" contentStyleType="text/css" height="346px" preserveAspectRatio="none" style="width:2076px;height:346px;background:#FFFFFF;" version="1.1" viewBox="0 0 2076 346" width="2076px" zoomAndPan="magnify"><defs><filter height="1" id="b1vbk111txdird0" width="1" x="0" y="0"><feFlood flood-color="#000000" result="flood"/><feComposite in="SourceGraphic" in2="flood" operator="over"/></filter><filter height="1" id="b1vbk111txdird1" width="1" x="0" y="0"><feFlood flood-color="#008000" result="flood"/><feComposite in="SourceGraphic" in2="flood" operator="over"/></filter><filter height="1" id="b1vbk111txdird2" width="1" x="0" y="0"><feFlood flood-color="#0000FF" result="flood"/><feComposite in="SourceGraphic" in2="flood" operator="over"/></filter></defs><g><!--MD5=[9482582c17360f92042d857b833f6f1e]
class AttributeGroupUpdateAction--><a href="AttributeGroupUpdateAction.svg" target="_top" title="AttributeGroupUpdateAction.svg" xlink:actuate="onRequest" xlink:href="AttributeGroupUpdateAction.svg" xlink:show="new" xlink:title="AttributeGroupUpdateAction.svg" xlink:type="simple"><g id="elem_AttributeGroupUpdateAction"><rect codeLine="10" fill="#F1F1F1" height="56.2969" id="AttributeGroupUpdateAction" rx="2.5" ry="2.5" style="stroke:#181818;stroke-width:0.5;" width="229" x="141.375" y="12"/><ellipse cx="156.375" cy="28" fill="#B4A7E5" rx="11" ry="11" style="stroke:#181818;stroke-width:1.0;"/><path d="M152.2969,23.7656 L152.2969,21.6094 L159.6875,21.6094 L159.6875,23.7656 L157.2188,23.7656 L157.2188,31.8438 L159.6875,31.8438 L159.6875,34 L152.2969,34 L152.2969,31.8438 L154.7656,31.8438 L154.7656,23.7656 L152.2969,23.7656 Z " fill="#000000"/><text fill="#000000" font-family="sans-serif" font-size="14" font-style="italic" lengthAdjust="spacing" textLength="197" x="170.375" y="32.8467">AttributeGroupUpdateAction</text><line style="stroke:#181818;stroke-width:0.5;" x1="142.375" x2="369.375" y1="44" y2="44"/><text fill="#000000" font-family="sans-serif" font-size="14" lengthAdjust="spacing" textLength="91" x="147.375" y="60.9951">action: String</text></g></a><!--MD5=[1ac7596e8222538dc3eecf3d1776b60c]
class AttributeGroupAddAttributeAction--><a href="AttributeGroupAddAttributeAction.svg" target="_top" title="AttributeGroupAddAttributeAction.svg" xlink:actuate="onRequest" xlink:href="AttributeGroupAddAttributeAction.svg" xlink:show="new" xlink:title="AttributeGroupAddAttributeAction.svg" xlink:type="simple"><g id="elem_AttributeGroupAddAttributeAction"><rect codeLine="15" fill="#F1F1F1" height="72.5938" id="AttributeGroupAddAttributeAction" rx="2.5" ry="2.5" style="stroke:#181818;stroke-width:0.5;" width="267" x="1508.5" y="173.4297"/><ellipse cx="1523.5" cy="189.4297" fill="#B4A7E5" rx="11" ry="11" style="stroke:#181818;stroke-width:1.0;"/><path d="M1519.4219,185.1953 L1519.4219,183.0391 L1526.8125,183.0391 L1526.8125,185.1953 L1524.3438,185.1953 L1524.3438,193.2734 L1526.8125,193.2734 L1526.8125,195.4297 L1519.4219,195.4297 L1519.4219,193.2734 L1521.8906,193.2734 L1521.8906,185.1953 L1519.4219,185.1953 Z " fill="#000000"/><text fill="#000000" font-family="sans-serif" font-size="14" font-style="italic" lengthAdjust="spacing" textLength="235" x="1537.5" y="194.2764">AttributeGroupAddAttributeAction</text><line style="stroke:#181818;stroke-width:0.5;" x1="1509.5" x2="1774.5" y1="205.4297" y2="205.4297"/><text fill="#000000" font-family="sans-serif" font-size="14" lengthAdjust="spacing" textLength="91" x="1514.5" y="222.4248">action: String</text><text fill="#000000" font-family="sans-serif" font-size="14" lengthAdjust="spacing" textLength="63" x="1514.5" y="238.7217">attribute:</text><a href="AttributeReference.svg" target="_top" title="AttributeReference.svg" xlink:actuate="onRequest" xlink:href="AttributeReference.svg" xlink:show="new" xlink:title="AttributeReference.svg" xlink:type="simple"><text fill="#0000FF" font-family="sans-serif" font-size="14" lengthAdjust="spacing" text-decoration="underline" textLength="131" x="1581.5" y="238.7217">AttributeReference</text></a></g></a><!--MD5=[2b81953a937ed9b5b7358ac3ae01f529]
class AttributeGroupChangeNameAction--><a href="AttributeGroupChangeNameAction.svg" target="_top" title="AttributeGroupChangeNameAction.svg" xlink:actuate="onRequest" xlink:href="AttributeGroupChangeNameAction.svg" xlink:show="new" xlink:title="AttributeGroupChangeNameAction.svg" xlink:type="simple"><g id="elem_AttributeGroupChangeNameAction"><rect codeLine="19" fill="#F1F1F1" height="72.5938" id="AttributeGroupChangeNameAction" rx="2.5" ry="2.5" style="stroke:#181818;stroke-width:0.5;" width="274" x="1795.5" y="173.4297"/><ellipse cx="1810.5" cy="189.4297" fill="#B4A7E5" rx="11" ry="11" style="stroke:#181818;stroke-width:1.0;"/><path d="M1806.4219,185.1953 L1806.4219,183.0391 L1813.8125,183.0391 L1813.8125,185.1953 L1811.3438,185.1953 L1811.3438,193.2734 L1813.8125,193.2734 L1813.8125,195.4297 L1806.4219,195.4297 L1806.4219,193.2734 L1808.8906,193.2734 L1808.8906,185.1953 L1806.4219,185.1953 Z " fill="#000000"/><text fill="#000000" font-family="sans-serif" font-size="14" font-style="italic" lengthAdjust="spacing" textLength="242" x="1824.5" y="194.2764">AttributeGroupChangeNameAction</text><line style="stroke:#181818;stroke-width:0.5;" x1="1796.5" x2="2068.5" y1="205.4297" y2="205.4297"/><text fill="#000000" font-family="sans-serif" font-size="14" lengthAdjust="spacing" textLength="91" x="1801.5" y="222.4248">action: String</text><text fill="#000000" font-family="sans-serif" font-size="14" lengthAdjust="spacing" textLength="44" x="1801.5" y="238.7217">name:</text><a href="LocalizedString.svg" target="_top" title="LocalizedString.svg" xlink:actuate="onRequest" xlink:href="LocalizedString.svg" xlink:show="new" xlink:title="LocalizedString.svg" xlink:type="simple"><text fill="#0000FF" font-family="sans-serif" font-size="14" lengthAdjust="spacing" text-decoration="underline" textLength="104" x="1849.5" y="238.7217">LocalizedString</text></a></g></a><!--MD5=[bb7b92e1257eafe33652e8fc4acf07b0]
class AttributeGroupRemoveAttributeAction--><a href="AttributeGroupRemoveAttributeAction.svg" target="_top" title="AttributeGroupRemoveAttributeAction.svg" xlink:actuate="onRequest" xlink:href="AttributeGroupRemoveAttributeAction.svg" xlink:show="new" xlink:title="AttributeGroupRemoveAttributeAction.svg" xlink:type="simple"><g id="elem_AttributeGroupRemoveAttributeAction"><rect codeLine="23" fill="#F1F1F1" height="72.5938" id="AttributeGroupRemoveAttributeAction" rx="2.5" ry="2.5" style="stroke:#181818;stroke-width:0.5;" width="297" x="21.5" y="173.4297"/><ellipse cx="36.5" cy="189.4297" fill="#B4A7E5" rx="11" ry="11" style="stroke:#181818;stroke-width:1.0;"/><path d="M32.4219,185.1953 L32.4219,183.0391 L39.8125,183.0391 L39.8125,185.1953 L37.3438,185.1953 L37.3438,193.2734 L39.8125,193.2734 L39.8125,195.4297 L32.4219,195.4297 L32.4219,193.2734 L34.8906,193.2734 L34.8906,185.1953 L32.4219,185.1953 Z " fill="#000000"/><text fill="#000000" font-family="sans-serif" font-size="14" font-style="italic" lengthAdjust="spacing" textLength="265" x="50.5" y="194.2764">AttributeGroupRemoveAttributeAction</text><line style="stroke:#181818;stroke-width:0.5;" x1="22.5" x2="317.5" y1="205.4297" y2="205.4297"/><text fill="#000000" font-family="sans-serif" font-size="14" lengthAdjust="spacing" textLength="91" x="27.5" y="222.4248">action: String</text><text fill="#000000" font-family="sans-serif" font-size="14" lengthAdjust="spacing" textLength="63" x="27.5" y="238.7217">attribute:</text><a href="AttributeReference.svg" target="_top" title="AttributeReference.svg" xlink:actuate="onRequest" xlink:href="AttributeReference.svg" xlink:show="new" xlink:title="AttributeReference.svg" xlink:type="simple"><text fill="#0000FF" font-family="sans-serif" font-size="14" lengthAdjust="spacing" text-decoration="underline" textLength="131" x="94.5" y="238.7217">AttributeReference</text></a></g></a><!--MD5=[e03d0823329151f89807cd3b964a155e]
class AttributeGroupSetAttributesAction--><a href="AttributeGroupSetAttributesAction.svg" target="_top" title="AttributeGroupSetAttributesAction.svg" xlink:actuate="onRequest" xlink:href="AttributeGroupSetAttributesAction.svg" xlink:show="new" xlink:title="AttributeGroupSetAttributesAction.svg" xlink:type="simple"><g id="elem_AttributeGroupSetAttributesAction"><rect codeLine="27" fill="#F1F1F1" height="72.5938" id="AttributeGroupSetAttributesAction" rx="2.5" ry="2.5" style="stroke:#181818;stroke-width:0.5;" width="269" x="338.5" y="173.4297"/><ellipse cx="353.5" cy="189.4297" fill="#B4A7E5" rx="11" ry="11" style="stroke:#181818;stroke-width:1.0;"/><path d="M349.4219,185.1953 L349.4219,183.0391 L356.8125,183.0391 L356.8125,185.1953 L354.3438,185.1953 L354.3438,193.2734 L356.8125,193.2734 L356.8125,195.4297 L349.4219,195.4297 L349.4219,193.2734 L351.8906,193.2734 L351.8906,185.1953 L349.4219,185.1953 Z " fill="#000000"/><text fill="#000000" font-family="sans-serif" font-size="14" font-style="italic" lengthAdjust="spacing" textLength="237" x="367.5" y="194.2764">AttributeGroupSetAttributesAction</text><line style="stroke:#181818;stroke-width:0.5;" x1="339.5" x2="606.5" y1="205.4297" y2="205.4297"/><text fill="#000000" font-family="sans-serif" font-size="14" lengthAdjust="spacing" textLength="91" x="344.5" y="222.4248">action: String</text><text fill="#000000" font-family="sans-serif" font-size="14" lengthAdjust="spacing" textLength="71" x="344.5" y="238.7217">attributes:</text><a href="AttributeReference.svg" target="_top" title="AttributeReference.svg" xlink:actuate="onRequest" xlink:href="AttributeReference.svg" xlink:show="new" xlink:title="AttributeReference.svg" xlink:type="simple"><text fill="#0000FF" font-family="sans-serif" font-size="14" lengthAdjust="spacing" text-decoration="underline" textLength="178" x="419.5" y="238.7217">List&lt;AttributeReference&gt;</text></a></g></a><!--MD5=[e7c53fdd261a6a575a26de270d138f2d]
class AttributeGroupSetDescriptionAction--><a href="AttributeGroupSetDescriptionAction.svg" target="_top" title="AttributeGroupSetDescriptionAction.svg" xlink:actuate="onRequest" xlink:href="AttributeGroupSetDescriptionAction.svg" xlink:show="new" xlink:title="AttributeGroupSetDescriptionAction.svg" xlink:type="simple"><g id="elem_AttributeGroupSetDescriptionAction"><rect codeLine="31" fill="#F1F1F1" height="72.5938" id="AttributeGroupSetDescriptionAction" rx="2.5" ry="2.5" style="stroke:#181818;stroke-width:0.5;" width="280" x="960.5" y="173.4297"/><ellipse cx="975.5" cy="189.4297" fill="#B4A7E5" rx="11" ry="11" style="stroke:#181818;stroke-width:1.0;"/><path d="M971.4219,185.1953 L971.4219,183.0391 L978.8125,183.0391 L978.8125,185.1953 L976.3438,185.1953 L976.3438,193.2734 L978.8125,193.2734 L978.8125,195.4297 L971.4219,195.4297 L971.4219,193.2734 L973.8906,193.2734 L973.8906,185.1953 L971.4219,185.1953 Z " fill="#000000"/><text fill="#000000" font-family="sans-serif" font-size="14" font-style="italic" lengthAdjust="spacing" textLength="248" x="989.5" y="194.2764">AttributeGroupSetDescriptionAction</text><line style="stroke:#181818;stroke-width:0.5;" x1="961.5" x2="1239.5" y1="205.4297" y2="205.4297"/><text fill="#000000" font-family="sans-serif" font-size="14" lengthAdjust="spacing" textLength="91" x="966.5" y="222.4248">action: String</text><text fill="#000000" font-family="sans-serif" font-size="14" lengthAdjust="spacing" textLength="82" x="966.5" y="238.7217">description:</text><a href="LocalizedString.svg" target="_top" title="LocalizedString.svg" xlink:actuate="onRequest" xlink:href="LocalizedString.svg" xlink:show="new" xlink:title="LocalizedString.svg" xlink:type="simple"><text fill="#0000FF" font-family="sans-serif" font-size="14" lengthAdjust="spacing" text-decoration="underline" textLength="104" x="1052.5" y="238.7217">LocalizedString</text></a></g></a><!--MD5=[b51d327a2c7a26f1ae0f9d73f4dadd2c]
class AttributeGroupSetKeyAction--><a href="AttributeGroupSetKeyAction.svg" target="_top" title="AttributeGroupSetKeyAction.svg" xlink:actuate="onRequest" xlink:href="AttributeGroupSetKeyAction.svg" xlink:show="new" xlink:title="AttributeGroupSetKeyAction.svg" xlink:type="simple"><g id="elem_AttributeGroupSetKeyAction"><rect codeLine="35" fill="#F1F1F1" height="72.5938" id="AttributeGroupSetKeyAction" rx="2.5" ry="2.5" style="stroke:#181818;stroke-width:0.5;" width="228" x="1260.5" y="173.4297"/><ellipse cx="1275.5" cy="189.4297" fill="#B4A7E5" rx="11" ry="11" style="stroke:#181818;stroke-width:1.0;"/><path d="M1271.4219,185.1953 L1271.4219,183.0391 L1278.8125,183.0391 L1278.8125,185.1953 L1276.3438,185.1953 L1276.3438,193.2734 L1278.8125,193.2734 L1278.8125,195.4297 L1271.4219,195.4297 L1271.4219,193.2734 L1273.8906,193.2734 L1273.8906,185.1953 L1271.4219,185.1953 Z " fill="#000000"/><text fill="#000000" font-family="sans-serif" font-size="14" font-style="italic" lengthAdjust="spacing" textLength="196" x="1289.5" y="194.2764">AttributeGroupSetKeyAction</text><line style="stroke:#181818;stroke-width:0.5;" x1="1261.5" x2="1487.5" y1="205.4297" y2="205.4297"/><text fill="#000000" font-family="sans-serif" font-size="14" lengthAdjust="spacing" textLength="91" x="1266.5" y="222.4248">action: String</text><text fill="#000000" font-family="sans-serif" font-size="14" lengthAdjust="spacing" textLength="73" x="1266.5" y="238.7217">key: String</text></g></a><!--MD5=[3213bd53aeaafe7eafb07074cd413364]
class AttributeGroupUpdate--><a href="AttributeGroupUpdate.svg" target="_top" title="AttributeGroupUpdate.svg" xlink:actuate="onRequest" xlink:href="AttributeGroupUpdate.svg" xlink:show="new" xlink:title="AttributeGroupUpdate.svg" xlink:type="simple"><g id="elem_AttributeGroupUpdate"><rect codeLine="39" fill="#F1F1F1" height="72.5938" id="AttributeGroupUpdate" rx="2.5" ry="2.5" style="stroke:#181818;stroke-width:0.5;" width="313" x="627.5" y="173.4297"/><ellipse cx="703.25" cy="189.4297" fill="#B4A7E5" rx="11" ry="11" style="stroke:#181818;stroke-width:1.0;"/><path d="M699.1719,185.1953 L699.1719,183.0391 L706.5625,183.0391 L706.5625,185.1953 L704.0938,185.1953 L704.0938,193.2734 L706.5625,193.2734 L706.5625,195.4297 L699.1719,195.4297 L699.1719,193.2734 L701.6406,193.2734 L701.6406,185.1953 L699.1719,185.1953 Z " fill="#000000"/><text fill="#000000" font-family="sans-serif" font-size="14" font-style="italic" lengthAdjust="spacing" textLength="153" x="723.75" y="194.2764">AttributeGroupUpdate</text><line style="stroke:#181818;stroke-width:0.5;" x1="628.5" x2="939.5" y1="205.4297" y2="205.4297"/><text fill="#000000" font-family="sans-serif" font-size="14" lengthAdjust="spacing" textLength="93" x="633.5" y="222.4248">version: Long</text><text fill="#000000" font-family="sans-serif" font-size="14" lengthAdjust="spacing" textLength="55" x="633.5" y="238.7217">actions:</text><a href="AttributeGroupUpdateAction.svg" target="_top" title="AttributeGroupUpdateAction.svg" xlink:actuate="onRequest" xlink:href="AttributeGroupUpdateAction.svg" xlink:show="new" xlink:title="AttributeGroupUpdateAction.svg" xlink:type="simple"><text fill="#0000FF" font-family="sans-serif" font-size="14" lengthAdjust="spacing" text-decoration="underline" textLength="242" x="692.5" y="238.7217">List&lt;AttributeGroupUpdateAction&gt;</text></a></g></a><line style="stroke:#0000FF;stroke-width:1.0;" x1="313.125" x2="313.125" y1="68.2969" y2="88.2969"/><line style="stroke:#0000FF;stroke-width:1.0;" x1="313.125" x2="1642" y1="88.2969" y2="88.2969"/><line style="stroke:#0000FF;stroke-width:1.0;" x1="1642" x2="1642" y1="88.2969" y2="173.4297"/><polygon fill="#0000FF" points="1642,173.4297,1646,164.4297,1642,168.4297,1638,164.4297,1642,173.4297" style="stroke:#0000FF;stroke-width:1.0;"/><text fill="#000000" font-family="sans-serif" font-size="13" lengthAdjust="spacing" textLength="131" x="1509" y="150.3638">action : addAttribute</text><line style="stroke:#0000FF;stroke-width:1.0;" x1="341.75" x2="341.75" y1="68.2969" y2="78.2969"/><line style="stroke:#0000FF;stroke-width:1.0;" x1="341.75" x2="1932.5" y1="78.2969" y2="78.2969"/><line style="stroke:#0000FF;stroke-width:1.0;" x1="1932.5" x2="1932.5" y1="78.2969" y2="173.4297"/><polygon fill="#0000FF" points="1932.5,173.4297,1936.5,164.4297,1932.5,168.4297,1928.5,164.4297,1932.5,173.4297" style="stroke:#0000FF;stroke-width:1.0;"/><text fill="#000000" font-family="sans-serif" font-size="13" lengthAdjust="spacing" textLength="137" x="1793.5" y="150.3638">action : changeName</text><line style="stroke:#0000FF;stroke-width:1.0;" x1="170" x2="170" y1="68.2969" y2="173.4297"/><polygon fill="#0000FF" points="170,173.4297,174,164.4297,170,168.4297,166,164.4297,170,173.4297" style="stroke:#0000FF;stroke-width:1.0;"/><text fill="#000000" font-family="sans-serif" font-size="13" lengthAdjust="spacing" textLength="156" x="12" y="150.3638">action : removeAttribute</text><line style="stroke:#0000FF;stroke-width:1.0;" x1="198.625" x2="198.625" y1="68.2969" y2="128.2969"/><line style="stroke:#0000FF;stroke-width:1.0;" x1="198.625" x2="473" y1="128.2969" y2="128.2969"/><line style="stroke:#0000FF;stroke-width:1.0;" x1="473" x2="473" y1="128.2969" y2="173.4297"/><polygon fill="#0000FF" points="473,173.4297,477,164.4297,473,168.4297,469,164.4297,473,173.4297" style="stroke:#0000FF;stroke-width:1.0;"/><text fill="#000000" font-family="sans-serif" font-size="13" lengthAdjust="spacing" textLength="134" x="337" y="150.3638">action : setAttributes</text><line style="stroke:#0000FF;stroke-width:1.0;" x1="255.875" x2="255.875" y1="68.2969" y2="108.2969"/><line style="stroke:#0000FF;stroke-width:1.0;" x1="255.875" x2="1100.5" y1="108.2969" y2="108.2969"/><line style="stroke:#0000FF;stroke-width:1.0;" x1="1100.5" x2="1100.5" y1="108.2969" y2="173.4297"/><polygon fill="#0000FF" points="1100.5,173.4297,1104.5,164.4297,1100.5,168.4297,1096.5,164.4297,1100.5,173.4297" style="stroke:#0000FF;stroke-width:1.0;"/><text fill="#000000" font-family="sans-serif" font-size="13" lengthAdjust="spacing" textLength="143" x="955.5" y="150.3638">action : setDescription</text><line style="stroke:#0000FF;stroke-width:1.0;" x1="284.5" x2="284.5" y1="68.2969" y2="98.2969"/><line style="stroke:#0000FF;stroke-width:1.0;" x1="284.5" x2="1374.5" y1="98.2969" y2="98.2969"/><line style="stroke:#0000FF;stroke-width:1.0;" x1="1374.5" x2="1374.5" y1="98.2969" y2="173.4297"/><polygon fill="#0000FF" points="1374.5,173.4297,1378.5,164.4297,1374.5,168.4297,1370.5,164.4297,1374.5,173.4297" style="stroke:#0000FF;stroke-width:1.0;"/><text fill="#000000" font-family="sans-serif" font-size="13" lengthAdjust="spacing" textLength="94" x="1278.5" y="150.3638">action : setKey</text><line style="stroke:#008000;stroke-width:1.0;" x1="227.25" x2="227.25" y1="68.2969" y2="118.2969"/><line style="stroke:#008000;stroke-width:1.0;" x1="227.25" x2="784" y1="118.2969" y2="118.2969"/><line style="stroke:#008000;stroke-width:1.0;" x1="784" x2="784" y1="118.2969" y2="173.4297"/><polygon fill="#008000" points="784,173.4297,788,164.4297,784,168.4297,780,164.4297,784,173.4297" style="stroke:#008000;stroke-width:1.0;"/><text fill="#000000" font-family="sans-serif" font-size="13" lengthAdjust="spacing" textLength="46" x="736" y="150.3638">actions</text><rect fill="#DDDDDD" height="79.1875" id="_legend" rx="7.5" ry="7.5" style="stroke:#000000;stroke-width:1.0;" width="161" x="947.75" y="247.0234"/><text fill="#000000" font-family="sans-serif" font-size="14" font-weight="bold" lengthAdjust="spacing" textLength="5" x="952.75" y="267.0186"> </text><text fill="#000000" font-family="sans-serif" font-size="14" font-weight="bold" lengthAdjust="spacing" textLength="28" x="969.75" y="267.0186">line</text><text fill="#000000" filter="url(#b1vbk111txdird0)" font-family="sans-serif" font-size="14" lengthAdjust="spacing" textLength="12" x="952.75" y="283.3154">   </text><text fill="#000000" font-family="sans-serif" font-size="14" lengthAdjust="spacing" textLength="77" x="968.75" y="283.3154">inheritance</text><text fill="#000000" filter="url(#b1vbk111txdird1)" font-family="sans-serif" font-size="14" lengthAdjust="spacing" textLength="12" x="952.75" y="299.6123">   </text><text fill="#000000" font-family="sans-serif" font-size="14" lengthAdjust="spacing" textLength="129" x="968.75" y="299.6123">property reference</text><text fill="#000000" filter="url(#b1vbk111txdird2)" font-family="sans-serif" font-size="14" lengthAdjust="spacing" textLength="12" x="952.75" y="315.9092">   </text><text fill="#000000" font-family="sans-serif" font-size="14" lengthAdjust="spacing" textLength="131" x="968.75" y="315.9092">discriminated class</text><line style="stroke:#000000;stroke-width:1.0;" x1="952.75" x2="1103.75" y1="254.0234" y2="254.0234"/><line style="stroke:#000000;stroke-width:1.0;" x1="952.75" x2="1103.75" y1="270.3203" y2="270.3203"/><line style="stroke:#000000;stroke-width:1.0;" x1="952.75" x2="1103.75" y1="286.6172" y2="286.6172"/><line style="stroke:#000000;stroke-width:1.0;" x1="952.75" x2="1103.75" y1="302.9141" y2="302.9141"/><line style="stroke:#000000;stroke-width:1.0;" x1="952.75" x2="1103.75" y1="319.2109" y2="319.2109"/><line style="stroke:#000000;stroke-width:1.0;" x1="952.75" x2="952.75" y1="254.0234" y2="319.2109"/><line style="stroke:#000000;stroke-width:1.0;" x1="964.75" x2="964.75" y1="254.0234" y2="319.2109"/><line style="stroke:#000000;stroke-width:1.0;" x1="1103.75" x2="1103.75" y1="254.0234" y2="319.2109"/><!--MD5=[9b233729fd3d1b8bf38d0127bc7d3393]
@startuml
!pragma layout elk
hide empty fields
hide empty methods
legend
|= |= line |
|<back:black>   </back>| inheritance |
|<back:green>   </back>| property reference |
|<back:blue>   </back>| discriminated class |
endlegend
interface AttributeGroupUpdateAction [[AttributeGroupUpdateAction.svg]]  {
    action: String
}


interface AttributeGroupAddAttributeAction [[AttributeGroupAddAttributeAction.svg]]  {
    action: String
    attribute: [[AttributeReference.svg AttributeReference]]
}
interface AttributeGroupChangeNameAction [[AttributeGroupChangeNameAction.svg]]  {
    action: String
    name: [[LocalizedString.svg LocalizedString]]
}
interface AttributeGroupRemoveAttributeAction [[AttributeGroupRemoveAttributeAction.svg]]  {
    action: String
    attribute: [[AttributeReference.svg AttributeReference]]
}
interface AttributeGroupSetAttributesAction [[AttributeGroupSetAttributesAction.svg]]  {
    action: String
    attributes: [[AttributeReference.svg List<AttributeReference>]]
}
interface AttributeGroupSetDescriptionAction [[AttributeGroupSetDescriptionAction.svg]]  {
    action: String
    description: [[LocalizedString.svg LocalizedString]]
}
interface AttributeGroupSetKeyAction [[AttributeGroupSetKeyAction.svg]]  {
    action: String
    key: String
}
interface AttributeGroupUpdate [[AttributeGroupUpdate.svg]]  {
    version: Long
    actions: [[AttributeGroupUpdateAction.svg List<AttributeGroupUpdateAction>]]
}
AttributeGroupUpdateAction - -> AttributeGroupAddAttributeAction #blue;text:blue : "action : addAttribute"
AttributeGroupUpdateAction - -> AttributeGroupChangeNameAction #blue;text:blue : "action : changeName"
AttributeGroupUpdateAction - -> AttributeGroupRemoveAttributeAction #blue;text:blue : "action : removeAttribute"
AttributeGroupUpdateAction - -> AttributeGroupSetAttributesAction #blue;text:blue : "action : setAttributes"
AttributeGroupUpdateAction - -> AttributeGroupSetDescriptionAction #blue;text:blue : "action : setDescription"
AttributeGroupUpdateAction - -> AttributeGroupSetKeyAction #blue;text:blue : "action : setKey"
AttributeGroupUpdateAction - -> AttributeGroupUpdate #green;text:green : "actions"
@enduml

PlantUML version 1.2022.13(Sat Nov 19 13:22:17 UTC 2022)
(GPL source distribution)
Java Runtime: OpenJDK Runtime Environment
JVM: OpenJDK 64-Bit Server VM
Default Encoding: UTF-8
Language: en
Country: null
--></g></svg>
