<?xml version="1.0" encoding="UTF-8" standalone="no"?><svg xmlns="http://www.w3.org/2000/svg" xmlns:xlink="http://www.w3.org/1999/xlink" contentStyleType="text/css" height="219px" preserveAspectRatio="none" style="width:208px;height:219px;background:#FFFFFF;" version="1.1" viewBox="0 0 208 219" width="208px" zoomAndPan="magnify"><defs/><g><!--MD5=[c3cd2df799ea543189c7c6764dd77770]
class AttributionSource--><g id="elem_AttributionSource"><rect codeLine="3" fill="#F1F1F1" height="72.5938" id="AttributionSource" rx="2.5" ry="2.5" style="stroke:#181818;stroke-width:0.5;" width="152" x="30.5" y="12"/><ellipse cx="45.5" cy="28" fill="#EB937F" rx="11" ry="11" style="stroke:#181818;stroke-width:1.0;"/><path d="M49.6094,34 L41.8906,34 L41.8906,21.6094 L49.6094,21.6094 L49.6094,23.7656 L44.3438,23.7656 L44.3438,26.4375 L49.1094,26.4375 L49.1094,28.5938 L44.3438,28.5938 L44.3438,31.8438 L49.6094,31.8438 L49.6094,34 Z " fill="#000000"/><text fill="#000000" font-family="sans-serif" font-size="14" lengthAdjust="spacing" textLength="120" x="59.5" y="32.8467">AttributionSource</text><line style="stroke:#181818;stroke-width:0.5;" x1="31.5" x2="181.5" y1="44" y2="44"/><text fill="#000000" font-family="sans-serif" font-size="14" lengthAdjust="spacing" textLength="54" x="36.5" y="60.9951">IMPORT</text><text fill="#000000" font-family="sans-serif" font-size="14" lengthAdjust="spacing" textLength="57" x="36.5" y="77.292">EXPORT</text></g><!--MD5=[7047f3041f36be45285233f4844281c3]
class Attribution--><a href="Attribution.svg" target="_top" title="Attribution.svg" xlink:actuate="onRequest" xlink:href="Attribution.svg" xlink:show="new" xlink:title="Attribution.svg" xlink:type="simple"><g id="elem_Attribution"><rect codeLine="7" fill="#F1F1F1" height="72.5938" id="Attribution" rx="2.5" ry="2.5" style="stroke:#181818;stroke-width:0.5;" width="189" x="12" y="139.7266"/><ellipse cx="66.25" cy="155.7266" fill="#B4A7E5" rx="11" ry="11" style="stroke:#181818;stroke-width:1.0;"/><path d="M62.1719,151.4922 L62.1719,149.3359 L69.5625,149.3359 L69.5625,151.4922 L67.0938,151.4922 L67.0938,159.5703 L69.5625,159.5703 L69.5625,161.7266 L62.1719,161.7266 L62.1719,159.5703 L64.6406,159.5703 L64.6406,151.4922 L62.1719,151.4922 Z " fill="#000000"/><text fill="#000000" font-family="sans-serif" font-size="14" font-style="italic" lengthAdjust="spacing" textLength="72" x="86.75" y="160.5732">Attribution</text><line style="stroke:#181818;stroke-width:0.5;" x1="13" x2="200" y1="171.7266" y2="171.7266"/><text fill="#000000" font-family="sans-serif" font-size="14" lengthAdjust="spacing" textLength="98" x="18" y="188.7217">clientId: String</text><text fill="#000000" font-family="sans-serif" font-size="14" lengthAdjust="spacing" textLength="53" x="18" y="205.0186">source:</text><a href="AttributionSource.svg" target="_top" title="AttributionSource.svg" xlink:actuate="onRequest" xlink:href="AttributionSource.svg" xlink:show="new" xlink:title="AttributionSource.svg" xlink:type="simple"><text fill="#0000FF" font-family="sans-serif" font-size="14" lengthAdjust="spacing" text-decoration="underline" textLength="120" x="75" y="205.0186">AttributionSource</text></a></g></a><line style="stroke:#008000;stroke-width:1.0;" x1="106.5" x2="106.5" y1="84.5938" y2="139.7266"/><polygon fill="#008000" points="106.5,139.7266,110.5,130.7266,106.5,134.7266,102.5,130.7266,106.5,139.7266" style="stroke:#008000;stroke-width:1.0;"/><text fill="#000000" font-family="sans-serif" font-size="13" lengthAdjust="spacing" textLength="43" x="61.5" y="116.6606">source</text><!--MD5=[308a7e3fd8a13c350663cf82297c95e5]
@startuml
!pragma layout elk
hide methods
enum AttributionSource {
    IMPORT
    EXPORT
}
interface Attribution [[Attribution.svg]]  {
    clientId: String
    source: [[AttributionSource.svg AttributionSource]]
}
AttributionSource - -> Attribution #green;text:green : "source"
@enduml

PlantUML version 1.2022.13(Sat Nov 19 13:22:17 UTC 2022)
(GPL source distribution)
Java Runtime: OpenJDK Runtime Environment
JVM: OpenJDK 64-Bit Server VM
Default Encoding: UTF-8
Language: en
Country: null
--></g></svg>
