<?xml version="1.0" encoding="UTF-8" standalone="no"?><svg xmlns="http://www.w3.org/2000/svg" xmlns:xlink="http://www.w3.org/1999/xlink" contentStyleType="text/css" height="293px" preserveAspectRatio="none" style="width:217px;height:293px;background:#FFFFFF;" version="1.1" viewBox="0 0 217 293" width="217px" zoomAndPan="magnify"><defs><filter height="1" id="b1ms6zttjhv68i0" width="1" x="0" y="0"><feFlood flood-color="#000000" result="flood"/><feComposite in="SourceGraphic" in2="flood" operator="over"/></filter><filter height="1" id="b1ms6zttjhv68i1" width="1" x="0" y="0"><feFlood flood-color="#008000" result="flood"/><feComposite in="SourceGraphic" in2="flood" operator="over"/></filter><filter height="1" id="b1ms6zttjhv68i2" width="1" x="0" y="0"><feFlood flood-color="#0000FF" result="flood"/><feComposite in="SourceGraphic" in2="flood" operator="over"/></filter></defs><g><!--MD5=[505ab88878f5494fe028768d08d9babe]
class AWSLambdaDestination--><a href="AWSLambdaDestination.svg" target="_top" title="AWSLambdaDestination.svg" xlink:actuate="onRequest" xlink:href="AWSLambdaDestination.svg" xlink:show="new" xlink:title="AWSLambdaDestination.svg" xlink:type="simple"><g id="elem_AWSLambdaDestination"><rect codeLine="10" fill="#F1F1F1" height="105.1875" id="AWSLambdaDestination" rx="2.5" ry="2.5" style="stroke:#181818;stroke-width:0.5;" width="198" x="12" y="88.2969"/><ellipse cx="27" cy="104.2969" fill="#B4A7E5" rx="11" ry="11" style="stroke:#181818;stroke-width:1.0;"/><path d="M22.9219,100.0625 L22.9219,97.9063 L30.3125,97.9063 L30.3125,100.0625 L27.8438,100.0625 L27.8438,108.1406 L30.3125,108.1406 L30.3125,110.2969 L22.9219,110.2969 L22.9219,108.1406 L25.3906,108.1406 L25.3906,100.0625 L22.9219,100.0625 Z " fill="#000000"/><text fill="#000000" font-family="sans-serif" font-size="14" font-style="italic" lengthAdjust="spacing" textLength="166" x="41" y="109.1436">AWSLambdaDestination</text><line style="stroke:#181818;stroke-width:0.5;" x1="13" x2="209" y1="120.2969" y2="120.2969"/><text fill="#000000" font-family="sans-serif" font-size="14" lengthAdjust="spacing" textLength="79" x="18" y="137.292">type: String</text><text fill="#000000" font-family="sans-serif" font-size="14" lengthAdjust="spacing" textLength="71" x="18" y="153.5889">arn: String</text><text fill="#000000" font-family="sans-serif" font-size="14" lengthAdjust="spacing" textLength="123" x="18" y="169.8857">accessKey: String</text><text fill="#000000" font-family="sans-serif" font-size="14" lengthAdjust="spacing" textLength="143" x="18" y="186.1826">accessSecret: String</text></g></a><!--MD5=[743d9cc8ace19333a98c85a62f00f392]
class ExtensionDestination--><a href="ExtensionDestination.svg" target="_top" title="ExtensionDestination.svg" xlink:actuate="onRequest" xlink:href="ExtensionDestination.svg" xlink:show="new" xlink:title="ExtensionDestination.svg" xlink:type="simple"><g id="elem_ExtensionDestination"><rect codeLine="16" fill="#F1F1F1" height="56.2969" id="ExtensionDestination" rx="2.5" ry="2.5" style="stroke:#181818;stroke-width:0.5;" width="178" x="22" y="12"/><ellipse cx="37" cy="28" fill="#B4A7E5" rx="11" ry="11" style="stroke:#181818;stroke-width:1.0;"/><path d="M32.9219,23.7656 L32.9219,21.6094 L40.3125,21.6094 L40.3125,23.7656 L37.8438,23.7656 L37.8438,31.8438 L40.3125,31.8438 L40.3125,34 L32.9219,34 L32.9219,31.8438 L35.3906,31.8438 L35.3906,23.7656 L32.9219,23.7656 Z " fill="#000000"/><text fill="#000000" font-family="sans-serif" font-size="14" font-style="italic" lengthAdjust="spacing" textLength="146" x="51" y="32.8467">ExtensionDestination</text><line style="stroke:#181818;stroke-width:0.5;" x1="23" x2="199" y1="44" y2="44"/><text fill="#000000" font-family="sans-serif" font-size="14" lengthAdjust="spacing" textLength="79" x="28" y="60.9951">type: String</text></g></a><line style="stroke:#181818;stroke-width:1.0;" x1="111" x2="111" y1="68.2969" y2="88.2969"/><polygon fill="#FFFFFF" points="111,68.2969,104,87.2969,118,87.2969,111,68.2969" style="stroke:#181818;stroke-width:1.0;"/><rect fill="#DDDDDD" height="79.1875" id="_legend" rx="7.5" ry="7.5" style="stroke:#000000;stroke-width:1.0;" width="161" x="18.5" y="194.4844"/><text fill="#000000" font-family="sans-serif" font-size="14" font-weight="bold" lengthAdjust="spacing" textLength="5" x="23.5" y="214.4795"> </text><text fill="#000000" font-family="sans-serif" font-size="14" font-weight="bold" lengthAdjust="spacing" textLength="28" x="40.5" y="214.4795">line</text><text fill="#000000" filter="url(#b1ms6zttjhv68i0)" font-family="sans-serif" font-size="14" lengthAdjust="spacing" textLength="12" x="23.5" y="230.7764">   </text><text fill="#000000" font-family="sans-serif" font-size="14" lengthAdjust="spacing" textLength="77" x="39.5" y="230.7764">inheritance</text><text fill="#000000" filter="url(#b1ms6zttjhv68i1)" font-family="sans-serif" font-size="14" lengthAdjust="spacing" textLength="12" x="23.5" y="247.0732">   </text><text fill="#000000" font-family="sans-serif" font-size="14" lengthAdjust="spacing" textLength="129" x="39.5" y="247.0732">property reference</text><text fill="#000000" filter="url(#b1ms6zttjhv68i2)" font-family="sans-serif" font-size="14" lengthAdjust="spacing" textLength="12" x="23.5" y="263.3701">   </text><text fill="#000000" font-family="sans-serif" font-size="14" lengthAdjust="spacing" textLength="131" x="39.5" y="263.3701">discriminated class</text><line style="stroke:#000000;stroke-width:1.0;" x1="23.5" x2="174.5" y1="201.4844" y2="201.4844"/><line style="stroke:#000000;stroke-width:1.0;" x1="23.5" x2="174.5" y1="217.7813" y2="217.7813"/><line style="stroke:#000000;stroke-width:1.0;" x1="23.5" x2="174.5" y1="234.0781" y2="234.0781"/><line style="stroke:#000000;stroke-width:1.0;" x1="23.5" x2="174.5" y1="250.375" y2="250.375"/><line style="stroke:#000000;stroke-width:1.0;" x1="23.5" x2="174.5" y1="266.6719" y2="266.6719"/><line style="stroke:#000000;stroke-width:1.0;" x1="23.5" x2="23.5" y1="201.4844" y2="266.6719"/><line style="stroke:#000000;stroke-width:1.0;" x1="35.5" x2="35.5" y1="201.4844" y2="266.6719"/><line style="stroke:#000000;stroke-width:1.0;" x1="174.5" x2="174.5" y1="201.4844" y2="266.6719"/><!--MD5=[1b349419511b6c8e5ce3beb26300634a]
@startuml
!pragma layout elk
hide empty fields
hide empty methods
legend
|= |= line |
|<back:black>   </back>| inheritance |
|<back:green>   </back>| property reference |
|<back:blue>   </back>| discriminated class |
endlegend
interface AWSLambdaDestination [[AWSLambdaDestination.svg]] extends ExtensionDestination {
    type: String
    arn: String
    accessKey: String
    accessSecret: String
}
interface ExtensionDestination [[ExtensionDestination.svg]]  {
    type: String
}





@enduml

PlantUML version 1.2022.13(Sat Nov 19 13:22:17 UTC 2022)
(GPL source distribution)
Java Runtime: OpenJDK Runtime Environment
JVM: OpenJDK 64-Bit Server VM
Default Encoding: UTF-8
Language: en
Country: null
--></g></svg>
