<?xml version="1.0" encoding="UTF-8" standalone="no"?><svg xmlns="http://www.w3.org/2000/svg" xmlns:xlink="http://www.w3.org/1999/xlink" contentStyleType="text/css" height="261px" preserveAspectRatio="none" style="width:246px;height:261px;background:#FFFFFF;" version="1.1" viewBox="0 0 246 261" width="246px" zoomAndPan="magnify"><defs><filter height="1" id="b1f1s6p3hpnsbs0" width="1" x="0" y="0"><feFlood flood-color="#000000" result="flood"/><feComposite in="SourceGraphic" in2="flood" operator="over"/></filter><filter height="1" id="b1f1s6p3hpnsbs1" width="1" x="0" y="0"><feFlood flood-color="#008000" result="flood"/><feComposite in="SourceGraphic" in2="flood" operator="over"/></filter><filter height="1" id="b1f1s6p3hpnsbs2" width="1" x="0" y="0"><feFlood flood-color="#0000FF" result="flood"/><feComposite in="SourceGraphic" in2="flood" operator="over"/></filter></defs><g><!--MD5=[8deb334be75188f9861230e2ad94e385]
class AzureServiceBusDestination--><a href="AzureServiceBusDestination.svg" target="_top" title="AzureServiceBusDestination.svg" xlink:actuate="onRequest" xlink:href="AzureServiceBusDestination.svg" xlink:show="new" xlink:title="AzureServiceBusDestination.svg" xlink:type="simple"><g id="elem_AzureServiceBusDestination"><rect codeLine="10" fill="#F1F1F1" height="72.5938" id="AzureServiceBusDestination" rx="2.5" ry="2.5" style="stroke:#181818;stroke-width:0.5;" width="227" x="12" y="88.2969"/><ellipse cx="27" cy="104.2969" fill="#B4A7E5" rx="11" ry="11" style="stroke:#181818;stroke-width:1.0;"/><path d="M22.9219,100.0625 L22.9219,97.9063 L30.3125,97.9063 L30.3125,100.0625 L27.8438,100.0625 L27.8438,108.1406 L30.3125,108.1406 L30.3125,110.2969 L22.9219,110.2969 L22.9219,108.1406 L25.3906,108.1406 L25.3906,100.0625 L22.9219,100.0625 Z " fill="#000000"/><text fill="#000000" font-family="sans-serif" font-size="14" font-style="italic" lengthAdjust="spacing" textLength="195" x="41" y="109.1436">AzureServiceBusDestination</text><line style="stroke:#181818;stroke-width:0.5;" x1="13" x2="238" y1="120.2969" y2="120.2969"/><text fill="#000000" font-family="sans-serif" font-size="14" lengthAdjust="spacing" textLength="79" x="18" y="137.292">type: String</text><text fill="#000000" font-family="sans-serif" font-size="14" lengthAdjust="spacing" textLength="167" x="18" y="153.5889">connectionString: String</text></g></a><!--MD5=[18a836c23c0e4d04592ec32f5657da5f]
class Destination--><a href="Destination.svg" target="_top" title="Destination.svg" xlink:actuate="onRequest" xlink:href="Destination.svg" xlink:show="new" xlink:title="Destination.svg" xlink:type="simple"><g id="elem_Destination"><rect codeLine="14" fill="#F1F1F1" height="56.2969" id="Destination" rx="2.5" ry="2.5" style="stroke:#181818;stroke-width:0.5;" width="110" x="70.5" y="12"/><ellipse cx="85.5" cy="28" fill="#B4A7E5" rx="11" ry="11" style="stroke:#181818;stroke-width:1.0;"/><path d="M81.4219,23.7656 L81.4219,21.6094 L88.8125,21.6094 L88.8125,23.7656 L86.3438,23.7656 L86.3438,31.8438 L88.8125,31.8438 L88.8125,34 L81.4219,34 L81.4219,31.8438 L83.8906,31.8438 L83.8906,23.7656 L81.4219,23.7656 Z " fill="#000000"/><text fill="#000000" font-family="sans-serif" font-size="14" font-style="italic" lengthAdjust="spacing" textLength="78" x="99.5" y="32.8467">Destination</text><line style="stroke:#181818;stroke-width:0.5;" x1="71.5" x2="179.5" y1="44" y2="44"/><text fill="#000000" font-family="sans-serif" font-size="14" lengthAdjust="spacing" textLength="79" x="76.5" y="60.9951">type: String</text></g></a><line style="stroke:#181818;stroke-width:1.0;" x1="125.5" x2="125.5" y1="68.2969" y2="88.2969"/><polygon fill="#FFFFFF" points="125.5,68.2969,118.5,87.2969,132.5,87.2969,125.5,68.2969" style="stroke:#181818;stroke-width:1.0;"/><rect fill="#DDDDDD" height="79.1875" id="_legend" rx="7.5" ry="7.5" style="stroke:#000000;stroke-width:1.0;" width="161" x="33" y="161.8906"/><text fill="#000000" font-family="sans-serif" font-size="14" font-weight="bold" lengthAdjust="spacing" textLength="5" x="38" y="181.8857"> </text><text fill="#000000" font-family="sans-serif" font-size="14" font-weight="bold" lengthAdjust="spacing" textLength="28" x="55" y="181.8857">line</text><text fill="#000000" filter="url(#b1f1s6p3hpnsbs0)" font-family="sans-serif" font-size="14" lengthAdjust="spacing" textLength="12" x="38" y="198.1826">   </text><text fill="#000000" font-family="sans-serif" font-size="14" lengthAdjust="spacing" textLength="77" x="54" y="198.1826">inheritance</text><text fill="#000000" filter="url(#b1f1s6p3hpnsbs1)" font-family="sans-serif" font-size="14" lengthAdjust="spacing" textLength="12" x="38" y="214.4795">   </text><text fill="#000000" font-family="sans-serif" font-size="14" lengthAdjust="spacing" textLength="129" x="54" y="214.4795">property reference</text><text fill="#000000" filter="url(#b1f1s6p3hpnsbs2)" font-family="sans-serif" font-size="14" lengthAdjust="spacing" textLength="12" x="38" y="230.7764">   </text><text fill="#000000" font-family="sans-serif" font-size="14" lengthAdjust="spacing" textLength="131" x="54" y="230.7764">discriminated class</text><line style="stroke:#000000;stroke-width:1.0;" x1="38" x2="189" y1="168.8906" y2="168.8906"/><line style="stroke:#000000;stroke-width:1.0;" x1="38" x2="189" y1="185.1875" y2="185.1875"/><line style="stroke:#000000;stroke-width:1.0;" x1="38" x2="189" y1="201.4844" y2="201.4844"/><line style="stroke:#000000;stroke-width:1.0;" x1="38" x2="189" y1="217.7813" y2="217.7813"/><line style="stroke:#000000;stroke-width:1.0;" x1="38" x2="189" y1="234.0781" y2="234.0781"/><line style="stroke:#000000;stroke-width:1.0;" x1="38" x2="38" y1="168.8906" y2="234.0781"/><line style="stroke:#000000;stroke-width:1.0;" x1="50" x2="50" y1="168.8906" y2="234.0781"/><line style="stroke:#000000;stroke-width:1.0;" x1="189" x2="189" y1="168.8906" y2="234.0781"/><!--MD5=[46a9e20008a4460e899b1364bc442e36]
@startuml
!pragma layout elk
hide empty fields
hide empty methods
legend
|= |= line |
|<back:black>   </back>| inheritance |
|<back:green>   </back>| property reference |
|<back:blue>   </back>| discriminated class |
endlegend
interface AzureServiceBusDestination [[AzureServiceBusDestination.svg]] extends Destination {
    type: String
    connectionString: String
}
interface Destination [[Destination.svg]]  {
    type: String
}





@enduml

PlantUML version 1.2022.13(Sat Nov 19 13:22:17 UTC 2022)
(GPL source distribution)
Java Runtime: OpenJDK Runtime Environment
JVM: OpenJDK 64-Bit Server VM
Default Encoding: UTF-8
Language: en
Country: null
--></g></svg>
