<?xml version="1.0" encoding="UTF-8" standalone="no"?><svg xmlns="http://www.w3.org/2000/svg" xmlns:xlink="http://www.w3.org/1999/xlink" contentStyleType="text/css" height="244px" preserveAspectRatio="none" style="width:309px;height:244px;background:#FFFFFF;" version="1.1" viewBox="0 0 309 244" width="309px" zoomAndPan="magnify"><defs><filter height="1" id="b1twotegpskkv20" width="1" x="0" y="0"><feFlood flood-color="#000000" result="flood"/><feComposite in="SourceGraphic" in2="flood" operator="over"/></filter><filter height="1" id="b1twotegpskkv21" width="1" x="0" y="0"><feFlood flood-color="#008000" result="flood"/><feComposite in="SourceGraphic" in2="flood" operator="over"/></filter><filter height="1" id="b1twotegpskkv22" width="1" x="0" y="0"><feFlood flood-color="#0000FF" result="flood"/><feComposite in="SourceGraphic" in2="flood" operator="over"/></filter></defs><g><!--MD5=[4fa069baf764a130a7051f64e4e174a1]
class CartDiscountDeletedMessagePayload--><a href="CartDiscountDeletedMessagePayload.svg" target="_top" title="CartDiscountDeletedMessagePayload.svg" xlink:actuate="onRequest" xlink:href="CartDiscountDeletedMessagePayload.svg" xlink:show="new" xlink:title="CartDiscountDeletedMessagePayload.svg" xlink:type="simple"><g id="elem_CartDiscountDeletedMessagePayload"><rect codeLine="10" fill="#F1F1F1" height="56.2969" id="CartDiscountDeletedMessagePayload" rx="2.5" ry="2.5" style="stroke:#181818;stroke-width:0.5;" width="290" x="12" y="88.2969"/><ellipse cx="27" cy="104.2969" fill="#B4A7E5" rx="11" ry="11" style="stroke:#181818;stroke-width:1.0;"/><path d="M22.9219,100.0625 L22.9219,97.9063 L30.3125,97.9063 L30.3125,100.0625 L27.8438,100.0625 L27.8438,108.1406 L30.3125,108.1406 L30.3125,110.2969 L22.9219,110.2969 L22.9219,108.1406 L25.3906,108.1406 L25.3906,100.0625 L22.9219,100.0625 Z " fill="#000000"/><text fill="#000000" font-family="sans-serif" font-size="14" font-style="italic" lengthAdjust="spacing" textLength="258" x="41" y="109.1436">CartDiscountDeletedMessagePayload</text><line style="stroke:#181818;stroke-width:0.5;" x1="13" x2="301" y1="120.2969" y2="120.2969"/><text fill="#000000" font-family="sans-serif" font-size="14" lengthAdjust="spacing" textLength="79" x="18" y="137.292">type: String</text></g></a><!--MD5=[bdcbbeb6ff0ef09532e1ab42fdec1480]
class MessagePayload--><a href="MessagePayload.svg" target="_top" title="MessagePayload.svg" xlink:actuate="onRequest" xlink:href="MessagePayload.svg" xlink:show="new" xlink:title="MessagePayload.svg" xlink:type="simple"><g id="elem_MessagePayload"><rect codeLine="13" fill="#F1F1F1" height="56.2969" id="MessagePayload" rx="2.5" ry="2.5" style="stroke:#181818;stroke-width:0.5;" width="146" x="84" y="12"/><ellipse cx="99" cy="28" fill="#B4A7E5" rx="11" ry="11" style="stroke:#181818;stroke-width:1.0;"/><path d="M94.9219,23.7656 L94.9219,21.6094 L102.3125,21.6094 L102.3125,23.7656 L99.8438,23.7656 L99.8438,31.8438 L102.3125,31.8438 L102.3125,34 L94.9219,34 L94.9219,31.8438 L97.3906,31.8438 L97.3906,23.7656 L94.9219,23.7656 Z " fill="#000000"/><text fill="#000000" font-family="sans-serif" font-size="14" font-style="italic" lengthAdjust="spacing" textLength="114" x="113" y="32.8467">MessagePayload</text><line style="stroke:#181818;stroke-width:0.5;" x1="85" x2="229" y1="44" y2="44"/><text fill="#000000" font-family="sans-serif" font-size="14" lengthAdjust="spacing" textLength="79" x="90" y="60.9951">type: String</text></g></a><line style="stroke:#181818;stroke-width:1.0;" x1="157" x2="157" y1="68.2969" y2="88.2969"/><polygon fill="#FFFFFF" points="157,68.2969,150,87.2969,164,87.2969,157,68.2969" style="stroke:#181818;stroke-width:1.0;"/><rect fill="#DDDDDD" height="79.1875" id="_legend" rx="7.5" ry="7.5" style="stroke:#000000;stroke-width:1.0;" width="161" x="64.5" y="145.5938"/><text fill="#000000" font-family="sans-serif" font-size="14" font-weight="bold" lengthAdjust="spacing" textLength="5" x="69.5" y="165.5889"> </text><text fill="#000000" font-family="sans-serif" font-size="14" font-weight="bold" lengthAdjust="spacing" textLength="28" x="86.5" y="165.5889">line</text><text fill="#000000" filter="url(#b1twotegpskkv20)" font-family="sans-serif" font-size="14" lengthAdjust="spacing" textLength="12" x="69.5" y="181.8857">   </text><text fill="#000000" font-family="sans-serif" font-size="14" lengthAdjust="spacing" textLength="77" x="85.5" y="181.8857">inheritance</text><text fill="#000000" filter="url(#b1twotegpskkv21)" font-family="sans-serif" font-size="14" lengthAdjust="spacing" textLength="12" x="69.5" y="198.1826">   </text><text fill="#000000" font-family="sans-serif" font-size="14" lengthAdjust="spacing" textLength="129" x="85.5" y="198.1826">property reference</text><text fill="#000000" filter="url(#b1twotegpskkv22)" font-family="sans-serif" font-size="14" lengthAdjust="spacing" textLength="12" x="69.5" y="214.4795">   </text><text fill="#000000" font-family="sans-serif" font-size="14" lengthAdjust="spacing" textLength="131" x="85.5" y="214.4795">discriminated class</text><line style="stroke:#000000;stroke-width:1.0;" x1="69.5" x2="220.5" y1="152.5938" y2="152.5938"/><line style="stroke:#000000;stroke-width:1.0;" x1="69.5" x2="220.5" y1="168.8906" y2="168.8906"/><line style="stroke:#000000;stroke-width:1.0;" x1="69.5" x2="220.5" y1="185.1875" y2="185.1875"/><line style="stroke:#000000;stroke-width:1.0;" x1="69.5" x2="220.5" y1="201.4844" y2="201.4844"/><line style="stroke:#000000;stroke-width:1.0;" x1="69.5" x2="220.5" y1="217.7813" y2="217.7813"/><line style="stroke:#000000;stroke-width:1.0;" x1="69.5" x2="69.5" y1="152.5938" y2="217.7813"/><line style="stroke:#000000;stroke-width:1.0;" x1="81.5" x2="81.5" y1="152.5938" y2="217.7813"/><line style="stroke:#000000;stroke-width:1.0;" x1="220.5" x2="220.5" y1="152.5938" y2="217.7813"/><!--MD5=[7efc768a8891f598a8c8a2059908a3fd]
@startuml
!pragma layout elk
hide empty fields
hide empty methods
legend
|= |= line |
|<back:black>   </back>| inheritance |
|<back:green>   </back>| property reference |
|<back:blue>   </back>| discriminated class |
endlegend
interface CartDiscountDeletedMessagePayload [[CartDiscountDeletedMessagePayload.svg]] extends MessagePayload {
    type: String
}
interface MessagePayload [[MessagePayload.svg]]  {
    type: String
}





@enduml

PlantUML version 1.2022.13(Sat Nov 19 13:22:17 UTC 2022)
(GPL source distribution)
Java Runtime: OpenJDK Runtime Environment
JVM: OpenJDK 64-Bit Server VM
Default Encoding: UTF-8
Language: en
Country: null
--></g></svg>
