<?xml version="1.0" encoding="UTF-8" standalone="no"?><svg xmlns="http://www.w3.org/2000/svg" xmlns:xlink="http://www.w3.org/1999/xlink" contentStyleType="text/css" height="261px" preserveAspectRatio="none" style="width:193px;height:261px;background:#FFFFFF;" version="1.1" viewBox="0 0 193 261" width="193px" zoomAndPan="magnify"><defs><filter height="1" id="bbgpzlrleno4r0" width="1" x="0" y="0"><feFlood flood-color="#000000" result="flood"/><feComposite in="SourceGraphic" in2="flood" operator="over"/></filter><filter height="1" id="bbgpzlrleno4r1" width="1" x="0" y="0"><feFlood flood-color="#008000" result="flood"/><feComposite in="SourceGraphic" in2="flood" operator="over"/></filter><filter height="1" id="bbgpzlrleno4r2" width="1" x="0" y="0"><feFlood flood-color="#0000FF" result="flood"/><feComposite in="SourceGraphic" in2="flood" operator="over"/></filter></defs><g><!--MD5=[1ff7ecff9e3464193abf755d60118dac]
class CartSetKeyAction--><a href="CartSetKeyAction.svg" target="_top" title="CartSetKeyAction.svg" xlink:actuate="onRequest" xlink:href="CartSetKeyAction.svg" xlink:show="new" xlink:title="CartSetKeyAction.svg" xlink:type="simple"><g id="elem_CartSetKeyAction"><rect codeLine="10" fill="#F1F1F1" height="72.5938" id="CartSetKeyAction" rx="2.5" ry="2.5" style="stroke:#181818;stroke-width:0.5;" width="153" x="28" y="88.2969"/><ellipse cx="43" cy="104.2969" fill="#B4A7E5" rx="11" ry="11" style="stroke:#181818;stroke-width:1.0;"/><path d="M38.9219,100.0625 L38.9219,97.9063 L46.3125,97.9063 L46.3125,100.0625 L43.8438,100.0625 L43.8438,108.1406 L46.3125,108.1406 L46.3125,110.2969 L38.9219,110.2969 L38.9219,108.1406 L41.3906,108.1406 L41.3906,100.0625 L38.9219,100.0625 Z " fill="#000000"/><text fill="#000000" font-family="sans-serif" font-size="14" font-style="italic" lengthAdjust="spacing" textLength="121" x="57" y="109.1436">CartSetKeyAction</text><line style="stroke:#181818;stroke-width:0.5;" x1="29" x2="180" y1="120.2969" y2="120.2969"/><text fill="#000000" font-family="sans-serif" font-size="14" lengthAdjust="spacing" textLength="91" x="34" y="137.292">action: String</text><text fill="#000000" font-family="sans-serif" font-size="14" lengthAdjust="spacing" textLength="73" x="34" y="153.5889">key: String</text></g></a><!--MD5=[9fc59eb2eb41b7cae7c30dca524a69aa]
class CartUpdateAction--><a href="CartUpdateAction.svg" target="_top" title="CartUpdateAction.svg" xlink:actuate="onRequest" xlink:href="CartUpdateAction.svg" xlink:show="new" xlink:title="CartUpdateAction.svg" xlink:type="simple"><g id="elem_CartUpdateAction"><rect codeLine="14" fill="#F1F1F1" height="56.2969" id="CartUpdateAction" rx="2.5" ry="2.5" style="stroke:#181818;stroke-width:0.5;" width="154" x="27.5" y="12"/><ellipse cx="42.5" cy="28" fill="#B4A7E5" rx="11" ry="11" style="stroke:#181818;stroke-width:1.0;"/><path d="M38.4219,23.7656 L38.4219,21.6094 L45.8125,21.6094 L45.8125,23.7656 L43.3438,23.7656 L43.3438,31.8438 L45.8125,31.8438 L45.8125,34 L38.4219,34 L38.4219,31.8438 L40.8906,31.8438 L40.8906,23.7656 L38.4219,23.7656 Z " fill="#000000"/><text fill="#000000" font-family="sans-serif" font-size="14" font-style="italic" lengthAdjust="spacing" textLength="122" x="56.5" y="32.8467">CartUpdateAction</text><line style="stroke:#181818;stroke-width:0.5;" x1="28.5" x2="180.5" y1="44" y2="44"/><text fill="#000000" font-family="sans-serif" font-size="14" lengthAdjust="spacing" textLength="91" x="33.5" y="60.9951">action: String</text></g></a><line style="stroke:#181818;stroke-width:1.0;" x1="104.5" x2="104.5" y1="68.2969" y2="88.2969"/><polygon fill="#FFFFFF" points="104.5,68.2969,97.5,87.2969,111.5,87.2969,104.5,68.2969" style="stroke:#181818;stroke-width:1.0;"/><rect fill="#DDDDDD" height="79.1875" id="_legend" rx="7.5" ry="7.5" style="stroke:#000000;stroke-width:1.0;" width="161" x="12" y="161.8906"/><text fill="#000000" font-family="sans-serif" font-size="14" font-weight="bold" lengthAdjust="spacing" textLength="5" x="17" y="181.8857"> </text><text fill="#000000" font-family="sans-serif" font-size="14" font-weight="bold" lengthAdjust="spacing" textLength="28" x="34" y="181.8857">line</text><text fill="#000000" filter="url(#bbgpzlrleno4r0)" font-family="sans-serif" font-size="14" lengthAdjust="spacing" textLength="12" x="17" y="198.1826">   </text><text fill="#000000" font-family="sans-serif" font-size="14" lengthAdjust="spacing" textLength="77" x="33" y="198.1826">inheritance</text><text fill="#000000" filter="url(#bbgpzlrleno4r1)" font-family="sans-serif" font-size="14" lengthAdjust="spacing" textLength="12" x="17" y="214.4795">   </text><text fill="#000000" font-family="sans-serif" font-size="14" lengthAdjust="spacing" textLength="129" x="33" y="214.4795">property reference</text><text fill="#000000" filter="url(#bbgpzlrleno4r2)" font-family="sans-serif" font-size="14" lengthAdjust="spacing" textLength="12" x="17" y="230.7764">   </text><text fill="#000000" font-family="sans-serif" font-size="14" lengthAdjust="spacing" textLength="131" x="33" y="230.7764">discriminated class</text><line style="stroke:#000000;stroke-width:1.0;" x1="17" x2="168" y1="168.8906" y2="168.8906"/><line style="stroke:#000000;stroke-width:1.0;" x1="17" x2="168" y1="185.1875" y2="185.1875"/><line style="stroke:#000000;stroke-width:1.0;" x1="17" x2="168" y1="201.4844" y2="201.4844"/><line style="stroke:#000000;stroke-width:1.0;" x1="17" x2="168" y1="217.7813" y2="217.7813"/><line style="stroke:#000000;stroke-width:1.0;" x1="17" x2="168" y1="234.0781" y2="234.0781"/><line style="stroke:#000000;stroke-width:1.0;" x1="17" x2="17" y1="168.8906" y2="234.0781"/><line style="stroke:#000000;stroke-width:1.0;" x1="29" x2="29" y1="168.8906" y2="234.0781"/><line style="stroke:#000000;stroke-width:1.0;" x1="168" x2="168" y1="168.8906" y2="234.0781"/><!--MD5=[b3362b696316338d2a5c03f1140cc22a]
@startuml
!pragma layout elk
hide empty fields
hide empty methods
legend
|= |= line |
|<back:black>   </back>| inheritance |
|<back:green>   </back>| property reference |
|<back:blue>   </back>| discriminated class |
endlegend
interface CartSetKeyAction [[CartSetKeyAction.svg]] extends CartUpdateAction {
    action: String
    key: String
}
interface CartUpdateAction [[CartUpdateAction.svg]]  {
    action: String
}





@enduml

PlantUML version 1.2022.13(Sat Nov 19 13:22:17 UTC 2022)
(GPL source distribution)
Java Runtime: OpenJDK Runtime Environment
JVM: OpenJDK 64-Bit Server VM
Default Encoding: UTF-8
Language: en
Country: null
--></g></svg>
