<?xml version="1.0" encoding="UTF-8" standalone="no"?><svg xmlns="http://www.w3.org/2000/svg" xmlns:xlink="http://www.w3.org/1999/xlink" contentStyleType="text/css" height="261px" preserveAspectRatio="none" style="width:267px;height:261px;background:#FFFFFF;" version="1.1" viewBox="0 0 267 261" width="267px" zoomAndPan="magnify"><defs><filter height="1" id="b2k96icdsz8lc0" width="1" x="0" y="0"><feFlood flood-color="#000000" result="flood"/><feComposite in="SourceGraphic" in2="flood" operator="over"/></filter><filter height="1" id="b2k96icdsz8lc1" width="1" x="0" y="0"><feFlood flood-color="#008000" result="flood"/><feComposite in="SourceGraphic" in2="flood" operator="over"/></filter><filter height="1" id="b2k96icdsz8lc2" width="1" x="0" y="0"><feFlood flood-color="#0000FF" result="flood"/><feComposite in="SourceGraphic" in2="flood" operator="over"/></filter></defs><g><!--MD5=[b189e7f61accec65f8782e8972fc2081]
class CartDiscountValueRelativeDraft--><a href="CartDiscountValueRelativeDraft.svg" target="_top" title="CartDiscountValueRelativeDraft.svg" xlink:actuate="onRequest" xlink:href="CartDiscountValueRelativeDraft.svg" xlink:show="new" xlink:title="CartDiscountValueRelativeDraft.svg" xlink:type="simple"><g id="elem_CartDiscountValueRelativeDraft"><rect codeLine="10" fill="#F1F1F1" height="72.5938" id="CartDiscountValueRelativeDraft" rx="2.5" ry="2.5" style="stroke:#181818;stroke-width:0.5;" width="248" x="12" y="88.2969"/><ellipse cx="27" cy="104.2969" fill="#B4A7E5" rx="11" ry="11" style="stroke:#181818;stroke-width:1.0;"/><path d="M22.9219,100.0625 L22.9219,97.9063 L30.3125,97.9063 L30.3125,100.0625 L27.8438,100.0625 L27.8438,108.1406 L30.3125,108.1406 L30.3125,110.2969 L22.9219,110.2969 L22.9219,108.1406 L25.3906,108.1406 L25.3906,100.0625 L22.9219,100.0625 Z " fill="#000000"/><text fill="#000000" font-family="sans-serif" font-size="14" font-style="italic" lengthAdjust="spacing" textLength="216" x="41" y="109.1436">CartDiscountValueRelativeDraft</text><line style="stroke:#181818;stroke-width:0.5;" x1="13" x2="259" y1="120.2969" y2="120.2969"/><text fill="#000000" font-family="sans-serif" font-size="14" lengthAdjust="spacing" textLength="79" x="18" y="137.292">type: String</text><text fill="#000000" font-family="sans-serif" font-size="14" lengthAdjust="spacing" textLength="111" x="18" y="153.5889">permyriad: Long</text></g></a><!--MD5=[af2ddb46367ca1703cc47da74e3be15d]
class CartDiscountValueDraft--><a href="CartDiscountValueDraft.svg" target="_top" title="CartDiscountValueDraft.svg" xlink:actuate="onRequest" xlink:href="CartDiscountValueDraft.svg" xlink:show="new" xlink:title="CartDiscountValueDraft.svg" xlink:type="simple"><g id="elem_CartDiscountValueDraft"><rect codeLine="14" fill="#F1F1F1" height="56.2969" id="CartDiscountValueDraft" rx="2.5" ry="2.5" style="stroke:#181818;stroke-width:0.5;" width="193" x="39.5" y="12"/><ellipse cx="54.5" cy="28" fill="#B4A7E5" rx="11" ry="11" style="stroke:#181818;stroke-width:1.0;"/><path d="M50.4219,23.7656 L50.4219,21.6094 L57.8125,21.6094 L57.8125,23.7656 L55.3438,23.7656 L55.3438,31.8438 L57.8125,31.8438 L57.8125,34 L50.4219,34 L50.4219,31.8438 L52.8906,31.8438 L52.8906,23.7656 L50.4219,23.7656 Z " fill="#000000"/><text fill="#000000" font-family="sans-serif" font-size="14" font-style="italic" lengthAdjust="spacing" textLength="161" x="68.5" y="32.8467">CartDiscountValueDraft</text><line style="stroke:#181818;stroke-width:0.5;" x1="40.5" x2="231.5" y1="44" y2="44"/><text fill="#000000" font-family="sans-serif" font-size="14" lengthAdjust="spacing" textLength="79" x="45.5" y="60.9951">type: String</text></g></a><line style="stroke:#181818;stroke-width:1.0;" x1="136" x2="136" y1="68.2969" y2="88.2969"/><polygon fill="#FFFFFF" points="136,68.2969,129,87.2969,143,87.2969,136,68.2969" style="stroke:#181818;stroke-width:1.0;"/><rect fill="#DDDDDD" height="79.1875" id="_legend" rx="7.5" ry="7.5" style="stroke:#000000;stroke-width:1.0;" width="161" x="43.5" y="161.8906"/><text fill="#000000" font-family="sans-serif" font-size="14" font-weight="bold" lengthAdjust="spacing" textLength="5" x="48.5" y="181.8857"> </text><text fill="#000000" font-family="sans-serif" font-size="14" font-weight="bold" lengthAdjust="spacing" textLength="28" x="65.5" y="181.8857">line</text><text fill="#000000" filter="url(#b2k96icdsz8lc0)" font-family="sans-serif" font-size="14" lengthAdjust="spacing" textLength="12" x="48.5" y="198.1826">   </text><text fill="#000000" font-family="sans-serif" font-size="14" lengthAdjust="spacing" textLength="77" x="64.5" y="198.1826">inheritance</text><text fill="#000000" filter="url(#b2k96icdsz8lc1)" font-family="sans-serif" font-size="14" lengthAdjust="spacing" textLength="12" x="48.5" y="214.4795">   </text><text fill="#000000" font-family="sans-serif" font-size="14" lengthAdjust="spacing" textLength="129" x="64.5" y="214.4795">property reference</text><text fill="#000000" filter="url(#b2k96icdsz8lc2)" font-family="sans-serif" font-size="14" lengthAdjust="spacing" textLength="12" x="48.5" y="230.7764">   </text><text fill="#000000" font-family="sans-serif" font-size="14" lengthAdjust="spacing" textLength="131" x="64.5" y="230.7764">discriminated class</text><line style="stroke:#000000;stroke-width:1.0;" x1="48.5" x2="199.5" y1="168.8906" y2="168.8906"/><line style="stroke:#000000;stroke-width:1.0;" x1="48.5" x2="199.5" y1="185.1875" y2="185.1875"/><line style="stroke:#000000;stroke-width:1.0;" x1="48.5" x2="199.5" y1="201.4844" y2="201.4844"/><line style="stroke:#000000;stroke-width:1.0;" x1="48.5" x2="199.5" y1="217.7813" y2="217.7813"/><line style="stroke:#000000;stroke-width:1.0;" x1="48.5" x2="199.5" y1="234.0781" y2="234.0781"/><line style="stroke:#000000;stroke-width:1.0;" x1="48.5" x2="48.5" y1="168.8906" y2="234.0781"/><line style="stroke:#000000;stroke-width:1.0;" x1="60.5" x2="60.5" y1="168.8906" y2="234.0781"/><line style="stroke:#000000;stroke-width:1.0;" x1="199.5" x2="199.5" y1="168.8906" y2="234.0781"/><!--MD5=[9211711f75f97606019e5036cacca204]
@startuml
!pragma layout elk
hide empty fields
hide empty methods
legend
|= |= line |
|<back:black>   </back>| inheritance |
|<back:green>   </back>| property reference |
|<back:blue>   </back>| discriminated class |
endlegend
interface CartDiscountValueRelativeDraft [[CartDiscountValueRelativeDraft.svg]] extends CartDiscountValueDraft {
    type: String
    permyriad: Long
}
interface CartDiscountValueDraft [[CartDiscountValueDraft.svg]]  {
    type: String
}





@enduml

PlantUML version 1.2022.13(Sat Nov 19 13:22:17 UTC 2022)
(GPL source distribution)
Java Runtime: OpenJDK Runtime Environment
JVM: OpenJDK 64-Bit Server VM
Default Encoding: UTF-8
Language: en
Country: null
--></g></svg>
