<?xml version="1.0" encoding="UTF-8" standalone="no"?><svg xmlns="http://www.w3.org/2000/svg" xmlns:xlink="http://www.w3.org/1999/xlink" contentStyleType="text/css" height="261px" preserveAspectRatio="none" style="width:304px;height:261px;background:#FFFFFF;" version="1.1" viewBox="0 0 304 261" width="304px" zoomAndPan="magnify"><defs><filter height="1" id="b1xb9wewtu8bjy0" width="1" x="0" y="0"><feFlood flood-color="#000000" result="flood"/><feComposite in="SourceGraphic" in2="flood" operator="over"/></filter><filter height="1" id="b1xb9wewtu8bjy1" width="1" x="0" y="0"><feFlood flood-color="#008000" result="flood"/><feComposite in="SourceGraphic" in2="flood" operator="over"/></filter><filter height="1" id="b1xb9wewtu8bjy2" width="1" x="0" y="0"><feFlood flood-color="#0000FF" result="flood"/><feComposite in="SourceGraphic" in2="flood" operator="over"/></filter></defs><g><!--MD5=[d7140163dd74121914c22c4cdd397084]
class CartSetPurchaseOrderNumberAction--><a href="CartSetPurchaseOrderNumberAction.svg" target="_top" title="CartSetPurchaseOrderNumberAction.svg" xlink:actuate="onRequest" xlink:href="CartSetPurchaseOrderNumberAction.svg" xlink:show="new" xlink:title="CartSetPurchaseOrderNumberAction.svg" xlink:type="simple"><g id="elem_CartSetPurchaseOrderNumberAction"><rect codeLine="10" fill="#F1F1F1" height="72.5938" id="CartSetPurchaseOrderNumberAction" rx="2.5" ry="2.5" style="stroke:#181818;stroke-width:0.5;" width="285" x="12" y="88.2969"/><ellipse cx="27" cy="104.2969" fill="#B4A7E5" rx="11" ry="11" style="stroke:#181818;stroke-width:1.0;"/><path d="M22.9219,100.0625 L22.9219,97.9063 L30.3125,97.9063 L30.3125,100.0625 L27.8438,100.0625 L27.8438,108.1406 L30.3125,108.1406 L30.3125,110.2969 L22.9219,110.2969 L22.9219,108.1406 L25.3906,108.1406 L25.3906,100.0625 L22.9219,100.0625 Z " fill="#000000"/><text fill="#000000" font-family="sans-serif" font-size="14" font-style="italic" lengthAdjust="spacing" textLength="253" x="41" y="109.1436">CartSetPurchaseOrderNumberAction</text><line style="stroke:#181818;stroke-width:0.5;" x1="13" x2="296" y1="120.2969" y2="120.2969"/><text fill="#000000" font-family="sans-serif" font-size="14" lengthAdjust="spacing" textLength="91" x="18" y="137.292">action: String</text><text fill="#000000" font-family="sans-serif" font-size="14" lengthAdjust="spacing" textLength="208" x="18" y="153.5889">purchaseOrderNumber: String</text></g></a><!--MD5=[9fc59eb2eb41b7cae7c30dca524a69aa]
class CartUpdateAction--><a href="CartUpdateAction.svg" target="_top" title="CartUpdateAction.svg" xlink:actuate="onRequest" xlink:href="CartUpdateAction.svg" xlink:show="new" xlink:title="CartUpdateAction.svg" xlink:type="simple"><g id="elem_CartUpdateAction"><rect codeLine="14" fill="#F1F1F1" height="56.2969" id="CartUpdateAction" rx="2.5" ry="2.5" style="stroke:#181818;stroke-width:0.5;" width="154" x="77.5" y="12"/><ellipse cx="92.5" cy="28" fill="#B4A7E5" rx="11" ry="11" style="stroke:#181818;stroke-width:1.0;"/><path d="M88.4219,23.7656 L88.4219,21.6094 L95.8125,21.6094 L95.8125,23.7656 L93.3438,23.7656 L93.3438,31.8438 L95.8125,31.8438 L95.8125,34 L88.4219,34 L88.4219,31.8438 L90.8906,31.8438 L90.8906,23.7656 L88.4219,23.7656 Z " fill="#000000"/><text fill="#000000" font-family="sans-serif" font-size="14" font-style="italic" lengthAdjust="spacing" textLength="122" x="106.5" y="32.8467">CartUpdateAction</text><line style="stroke:#181818;stroke-width:0.5;" x1="78.5" x2="230.5" y1="44" y2="44"/><text fill="#000000" font-family="sans-serif" font-size="14" lengthAdjust="spacing" textLength="91" x="83.5" y="60.9951">action: String</text></g></a><line style="stroke:#181818;stroke-width:1.0;" x1="154.5" x2="154.5" y1="68.2969" y2="88.2969"/><polygon fill="#FFFFFF" points="154.5,68.2969,147.5,87.2969,161.5,87.2969,154.5,68.2969" style="stroke:#181818;stroke-width:1.0;"/><rect fill="#DDDDDD" height="79.1875" id="_legend" rx="7.5" ry="7.5" style="stroke:#000000;stroke-width:1.0;" width="161" x="62" y="161.8906"/><text fill="#000000" font-family="sans-serif" font-size="14" font-weight="bold" lengthAdjust="spacing" textLength="5" x="67" y="181.8857"> </text><text fill="#000000" font-family="sans-serif" font-size="14" font-weight="bold" lengthAdjust="spacing" textLength="28" x="84" y="181.8857">line</text><text fill="#000000" filter="url(#b1xb9wewtu8bjy0)" font-family="sans-serif" font-size="14" lengthAdjust="spacing" textLength="12" x="67" y="198.1826">   </text><text fill="#000000" font-family="sans-serif" font-size="14" lengthAdjust="spacing" textLength="77" x="83" y="198.1826">inheritance</text><text fill="#000000" filter="url(#b1xb9wewtu8bjy1)" font-family="sans-serif" font-size="14" lengthAdjust="spacing" textLength="12" x="67" y="214.4795">   </text><text fill="#000000" font-family="sans-serif" font-size="14" lengthAdjust="spacing" textLength="129" x="83" y="214.4795">property reference</text><text fill="#000000" filter="url(#b1xb9wewtu8bjy2)" font-family="sans-serif" font-size="14" lengthAdjust="spacing" textLength="12" x="67" y="230.7764">   </text><text fill="#000000" font-family="sans-serif" font-size="14" lengthAdjust="spacing" textLength="131" x="83" y="230.7764">discriminated class</text><line style="stroke:#000000;stroke-width:1.0;" x1="67" x2="218" y1="168.8906" y2="168.8906"/><line style="stroke:#000000;stroke-width:1.0;" x1="67" x2="218" y1="185.1875" y2="185.1875"/><line style="stroke:#000000;stroke-width:1.0;" x1="67" x2="218" y1="201.4844" y2="201.4844"/><line style="stroke:#000000;stroke-width:1.0;" x1="67" x2="218" y1="217.7813" y2="217.7813"/><line style="stroke:#000000;stroke-width:1.0;" x1="67" x2="218" y1="234.0781" y2="234.0781"/><line style="stroke:#000000;stroke-width:1.0;" x1="67" x2="67" y1="168.8906" y2="234.0781"/><line style="stroke:#000000;stroke-width:1.0;" x1="79" x2="79" y1="168.8906" y2="234.0781"/><line style="stroke:#000000;stroke-width:1.0;" x1="218" x2="218" y1="168.8906" y2="234.0781"/><!--MD5=[5cd212cbab889f6d716fc912511d38af]
@startuml
!pragma layout elk
hide empty fields
hide empty methods
legend
|= |= line |
|<back:black>   </back>| inheritance |
|<back:green>   </back>| property reference |
|<back:blue>   </back>| discriminated class |
endlegend
interface CartSetPurchaseOrderNumberAction [[CartSetPurchaseOrderNumberAction.svg]] extends CartUpdateAction {
    action: String
    purchaseOrderNumber: String
}
interface CartUpdateAction [[CartUpdateAction.svg]]  {
    action: String
}





@enduml

PlantUML version 1.2022.13(Sat Nov 19 13:22:17 UTC 2022)
(GPL source distribution)
Java Runtime: OpenJDK Runtime Environment
JVM: OpenJDK 64-Bit Server VM
Default Encoding: UTF-8
Language: en
Country: null
--></g></svg>
