<?xml version="1.0" encoding="UTF-8" standalone="no"?><svg xmlns="http://www.w3.org/2000/svg" xmlns:xlink="http://www.w3.org/1999/xlink" contentStyleType="text/css" height="261px" preserveAspectRatio="none" style="width:270px;height:261px;background:#FFFFFF;" version="1.1" viewBox="0 0 270 261" width="270px" zoomAndPan="magnify"><defs><filter height="1" id="b1bgwpstebj4d50" width="1" x="0" y="0"><feFlood flood-color="#000000" result="flood"/><feComposite in="SourceGraphic" in2="flood" operator="over"/></filter><filter height="1" id="b1bgwpstebj4d51" width="1" x="0" y="0"><feFlood flood-color="#008000" result="flood"/><feComposite in="SourceGraphic" in2="flood" operator="over"/></filter><filter height="1" id="b1bgwpstebj4d52" width="1" x="0" y="0"><feFlood flood-color="#0000FF" result="flood"/><feComposite in="SourceGraphic" in2="flood" operator="over"/></filter></defs><g><!--MD5=[9ac30ee63507313d3e09aa651f60064d]
class CartDiscountSetValidUntilAction--><a href="CartDiscountSetValidUntilAction.svg" target="_top" title="CartDiscountSetValidUntilAction.svg" xlink:actuate="onRequest" xlink:href="CartDiscountSetValidUntilAction.svg" xlink:show="new" xlink:title="CartDiscountSetValidUntilAction.svg" xlink:type="simple"><g id="elem_CartDiscountSetValidUntilAction"><rect codeLine="10" fill="#F1F1F1" height="72.5938" id="CartDiscountSetValidUntilAction" rx="2.5" ry="2.5" style="stroke:#181818;stroke-width:0.5;" width="251" x="12" y="88.2969"/><ellipse cx="27" cy="104.2969" fill="#B4A7E5" rx="11" ry="11" style="stroke:#181818;stroke-width:1.0;"/><path d="M22.9219,100.0625 L22.9219,97.9063 L30.3125,97.9063 L30.3125,100.0625 L27.8438,100.0625 L27.8438,108.1406 L30.3125,108.1406 L30.3125,110.2969 L22.9219,110.2969 L22.9219,108.1406 L25.3906,108.1406 L25.3906,100.0625 L22.9219,100.0625 Z " fill="#000000"/><text fill="#000000" font-family="sans-serif" font-size="14" font-style="italic" lengthAdjust="spacing" textLength="219" x="41" y="109.1436">CartDiscountSetValidUntilAction</text><line style="stroke:#181818;stroke-width:0.5;" x1="13" x2="262" y1="120.2969" y2="120.2969"/><text fill="#000000" font-family="sans-serif" font-size="14" lengthAdjust="spacing" textLength="91" x="18" y="137.292">action: String</text><text fill="#000000" font-family="sans-serif" font-size="14" lengthAdjust="spacing" textLength="136" x="18" y="153.5889">validUntil: DateTime</text></g></a><!--MD5=[298d6aca4ea309f7bb5f53c5f503aef2]
class CartDiscountUpdateAction--><a href="CartDiscountUpdateAction.svg" target="_top" title="CartDiscountUpdateAction.svg" xlink:actuate="onRequest" xlink:href="CartDiscountUpdateAction.svg" xlink:show="new" xlink:title="CartDiscountUpdateAction.svg" xlink:type="simple"><g id="elem_CartDiscountUpdateAction"><rect codeLine="14" fill="#F1F1F1" height="56.2969" id="CartDiscountUpdateAction" rx="2.5" ry="2.5" style="stroke:#181818;stroke-width:0.5;" width="215" x="30" y="12"/><ellipse cx="45" cy="28" fill="#B4A7E5" rx="11" ry="11" style="stroke:#181818;stroke-width:1.0;"/><path d="M40.9219,23.7656 L40.9219,21.6094 L48.3125,21.6094 L48.3125,23.7656 L45.8438,23.7656 L45.8438,31.8438 L48.3125,31.8438 L48.3125,34 L40.9219,34 L40.9219,31.8438 L43.3906,31.8438 L43.3906,23.7656 L40.9219,23.7656 Z " fill="#000000"/><text fill="#000000" font-family="sans-serif" font-size="14" font-style="italic" lengthAdjust="spacing" textLength="183" x="59" y="32.8467">CartDiscountUpdateAction</text><line style="stroke:#181818;stroke-width:0.5;" x1="31" x2="244" y1="44" y2="44"/><text fill="#000000" font-family="sans-serif" font-size="14" lengthAdjust="spacing" textLength="91" x="36" y="60.9951">action: String</text></g></a><line style="stroke:#181818;stroke-width:1.0;" x1="137.5" x2="137.5" y1="68.2969" y2="88.2969"/><polygon fill="#FFFFFF" points="137.5,68.2969,130.5,87.2969,144.5,87.2969,137.5,68.2969" style="stroke:#181818;stroke-width:1.0;"/><rect fill="#DDDDDD" height="79.1875" id="_legend" rx="7.5" ry="7.5" style="stroke:#000000;stroke-width:1.0;" width="161" x="45" y="161.8906"/><text fill="#000000" font-family="sans-serif" font-size="14" font-weight="bold" lengthAdjust="spacing" textLength="5" x="50" y="181.8857"> </text><text fill="#000000" font-family="sans-serif" font-size="14" font-weight="bold" lengthAdjust="spacing" textLength="28" x="67" y="181.8857">line</text><text fill="#000000" filter="url(#b1bgwpstebj4d50)" font-family="sans-serif" font-size="14" lengthAdjust="spacing" textLength="12" x="50" y="198.1826">   </text><text fill="#000000" font-family="sans-serif" font-size="14" lengthAdjust="spacing" textLength="77" x="66" y="198.1826">inheritance</text><text fill="#000000" filter="url(#b1bgwpstebj4d51)" font-family="sans-serif" font-size="14" lengthAdjust="spacing" textLength="12" x="50" y="214.4795">   </text><text fill="#000000" font-family="sans-serif" font-size="14" lengthAdjust="spacing" textLength="129" x="66" y="214.4795">property reference</text><text fill="#000000" filter="url(#b1bgwpstebj4d52)" font-family="sans-serif" font-size="14" lengthAdjust="spacing" textLength="12" x="50" y="230.7764">   </text><text fill="#000000" font-family="sans-serif" font-size="14" lengthAdjust="spacing" textLength="131" x="66" y="230.7764">discriminated class</text><line style="stroke:#000000;stroke-width:1.0;" x1="50" x2="201" y1="168.8906" y2="168.8906"/><line style="stroke:#000000;stroke-width:1.0;" x1="50" x2="201" y1="185.1875" y2="185.1875"/><line style="stroke:#000000;stroke-width:1.0;" x1="50" x2="201" y1="201.4844" y2="201.4844"/><line style="stroke:#000000;stroke-width:1.0;" x1="50" x2="201" y1="217.7813" y2="217.7813"/><line style="stroke:#000000;stroke-width:1.0;" x1="50" x2="201" y1="234.0781" y2="234.0781"/><line style="stroke:#000000;stroke-width:1.0;" x1="50" x2="50" y1="168.8906" y2="234.0781"/><line style="stroke:#000000;stroke-width:1.0;" x1="62" x2="62" y1="168.8906" y2="234.0781"/><line style="stroke:#000000;stroke-width:1.0;" x1="201" x2="201" y1="168.8906" y2="234.0781"/><!--MD5=[4f9dd4e48b2da76211437e95335c75b8]
@startuml
!pragma layout elk
hide empty fields
hide empty methods
legend
|= |= line |
|<back:black>   </back>| inheritance |
|<back:green>   </back>| property reference |
|<back:blue>   </back>| discriminated class |
endlegend
interface CartDiscountSetValidUntilAction [[CartDiscountSetValidUntilAction.svg]] extends CartDiscountUpdateAction {
    action: String
    validUntil: DateTime
}
interface CartDiscountUpdateAction [[CartDiscountUpdateAction.svg]]  {
    action: String
}





@enduml

PlantUML version 1.2022.13(Sat Nov 19 13:22:17 UTC 2022)
(GPL source distribution)
Java Runtime: OpenJDK Runtime Environment
JVM: OpenJDK 64-Bit Server VM
Default Encoding: UTF-8
Language: en
Country: null
--></g></svg>
