<?xml version="1.0" encoding="UTF-8" standalone="no"?><svg xmlns="http://www.w3.org/2000/svg" xmlns:xlink="http://www.w3.org/1999/xlink" contentStyleType="text/css" height="452px" preserveAspectRatio="none" style="width:4826px;height:452px;background:#FFFFFF;" version="1.1" viewBox="0 0 4826 452" width="4826px" zoomAndPan="magnify"><defs><filter height="1" id="bd5dt0jrlrmlc0" width="1" x="0" y="0"><feFlood flood-color="#000000" result="flood"/><feComposite in="SourceGraphic" in2="flood" operator="over"/></filter><filter height="1" id="bd5dt0jrlrmlc1" width="1" x="0" y="0"><feFlood flood-color="#008000" result="flood"/><feComposite in="SourceGraphic" in2="flood" operator="over"/></filter><filter height="1" id="bd5dt0jrlrmlc2" width="1" x="0" y="0"><feFlood flood-color="#0000FF" result="flood"/><feComposite in="SourceGraphic" in2="flood" operator="over"/></filter></defs><g><!--MD5=[298d6aca4ea309f7bb5f53c5f503aef2]
class CartDiscountUpdateAction--><a href="CartDiscountUpdateAction.svg" target="_top" title="CartDiscountUpdateAction.svg" xlink:actuate="onRequest" xlink:href="CartDiscountUpdateAction.svg" xlink:show="new" xlink:title="CartDiscountUpdateAction.svg" xlink:type="simple"><g id="elem_CartDiscountUpdateAction"><rect codeLine="10" fill="#F1F1F1" height="56.2969" id="CartDiscountUpdateAction" rx="2.5" ry="2.5" style="stroke:#181818;stroke-width:0.5;" width="215" x="138.3529" y="12"/><ellipse cx="153.3529" cy="28" fill="#B4A7E5" rx="11" ry="11" style="stroke:#181818;stroke-width:1.0;"/><path d="M149.2748,23.7656 L149.2748,21.6094 L156.6654,21.6094 L156.6654,23.7656 L154.1967,23.7656 L154.1967,31.8438 L156.6654,31.8438 L156.6654,34 L149.2748,34 L149.2748,31.8438 L151.7436,31.8438 L151.7436,23.7656 L149.2748,23.7656 Z " fill="#000000"/><text fill="#000000" font-family="sans-serif" font-size="14" font-style="italic" lengthAdjust="spacing" textLength="183" x="167.3529" y="32.8467">CartDiscountUpdateAction</text><line style="stroke:#181818;stroke-width:0.5;" x1="139.3529" x2="352.3529" y1="44" y2="44"/><text fill="#000000" font-family="sans-serif" font-size="14" lengthAdjust="spacing" textLength="91" x="144.3529" y="60.9951">action: String</text></g></a><!--MD5=[dace6bb2c708cb5d5268de7596327eb8]
class CartDiscountChangeCartPredicateAction--><a href="CartDiscountChangeCartPredicateAction.svg" target="_top" title="CartDiscountChangeCartPredicateAction.svg" xlink:actuate="onRequest" xlink:href="CartDiscountChangeCartPredicateAction.svg" xlink:show="new" xlink:title="CartDiscountChangeCartPredicateAction.svg" xlink:type="simple"><g id="elem_CartDiscountChangeCartPredicateAction"><rect codeLine="15" fill="#F1F1F1" height="72.5938" id="CartDiscountChangeCartPredicateAction" rx="2.5" ry="2.5" style="stroke:#181818;stroke-width:0.5;" width="311" x="4215" y="263.4297"/><ellipse cx="4230" cy="279.4297" fill="#B4A7E5" rx="11" ry="11" style="stroke:#181818;stroke-width:1.0;"/><path d="M4225.9219,275.1953 L4225.9219,273.0391 L4233.3125,273.0391 L4233.3125,275.1953 L4230.8438,275.1953 L4230.8438,283.2734 L4233.3125,283.2734 L4233.3125,285.4297 L4225.9219,285.4297 L4225.9219,283.2734 L4228.3906,283.2734 L4228.3906,275.1953 L4225.9219,275.1953 Z " fill="#000000"/><text fill="#000000" font-family="sans-serif" font-size="14" font-style="italic" lengthAdjust="spacing" textLength="279" x="4244" y="284.2764">CartDiscountChangeCartPredicateAction</text><line style="stroke:#181818;stroke-width:0.5;" x1="4216" x2="4525" y1="295.4297" y2="295.4297"/><text fill="#000000" font-family="sans-serif" font-size="14" lengthAdjust="spacing" textLength="91" x="4221" y="312.4248">action: String</text><text fill="#000000" font-family="sans-serif" font-size="14" lengthAdjust="spacing" textLength="140" x="4221" y="328.7217">cartPredicate: String</text></g></a><!--MD5=[4475cb20c42bc82a28e1d734e68c9f7b]
class CartDiscountChangeIsActiveAction--><a href="CartDiscountChangeIsActiveAction.svg" target="_top" title="CartDiscountChangeIsActiveAction.svg" xlink:actuate="onRequest" xlink:href="CartDiscountChangeIsActiveAction.svg" xlink:show="new" xlink:title="CartDiscountChangeIsActiveAction.svg" xlink:type="simple"><g id="elem_CartDiscountChangeIsActiveAction"><rect codeLine="19" fill="#F1F1F1" height="72.5938" id="CartDiscountChangeIsActiveAction" rx="2.5" ry="2.5" style="stroke:#181818;stroke-width:0.5;" width="273" x="4546" y="263.4297"/><ellipse cx="4561" cy="279.4297" fill="#B4A7E5" rx="11" ry="11" style="stroke:#181818;stroke-width:1.0;"/><path d="M4556.9219,275.1953 L4556.9219,273.0391 L4564.3125,273.0391 L4564.3125,275.1953 L4561.8438,275.1953 L4561.8438,283.2734 L4564.3125,283.2734 L4564.3125,285.4297 L4556.9219,285.4297 L4556.9219,283.2734 L4559.3906,283.2734 L4559.3906,275.1953 L4556.9219,275.1953 Z " fill="#000000"/><text fill="#000000" font-family="sans-serif" font-size="14" font-style="italic" lengthAdjust="spacing" textLength="241" x="4575" y="284.2764">CartDiscountChangeIsActiveAction</text><line style="stroke:#181818;stroke-width:0.5;" x1="4547" x2="4818" y1="295.4297" y2="295.4297"/><text fill="#000000" font-family="sans-serif" font-size="14" lengthAdjust="spacing" textLength="91" x="4552" y="312.4248">action: String</text><text fill="#000000" font-family="sans-serif" font-size="14" lengthAdjust="spacing" textLength="118" x="4552" y="328.7217">isActive: Boolean</text></g></a><!--MD5=[4cd1a4714ddbc63d64ef2a54b36b8624]
class CartDiscountChangeNameAction--><a href="CartDiscountChangeNameAction.svg" target="_top" title="CartDiscountChangeNameAction.svg" xlink:actuate="onRequest" xlink:href="CartDiscountChangeNameAction.svg" xlink:show="new" xlink:title="CartDiscountChangeNameAction.svg" xlink:type="simple"><g id="elem_CartDiscountChangeNameAction"><rect codeLine="23" fill="#F1F1F1" height="72.5938" id="CartDiscountChangeNameAction" rx="2.5" ry="2.5" style="stroke:#181818;stroke-width:0.5;" width="260" x="21" y="263.4297"/><ellipse cx="36" cy="279.4297" fill="#B4A7E5" rx="11" ry="11" style="stroke:#181818;stroke-width:1.0;"/><path d="M31.9219,275.1953 L31.9219,273.0391 L39.3125,273.0391 L39.3125,275.1953 L36.8438,275.1953 L36.8438,283.2734 L39.3125,283.2734 L39.3125,285.4297 L31.9219,285.4297 L31.9219,283.2734 L34.3906,283.2734 L34.3906,275.1953 L31.9219,275.1953 Z " fill="#000000"/><text fill="#000000" font-family="sans-serif" font-size="14" font-style="italic" lengthAdjust="spacing" textLength="228" x="50" y="284.2764">CartDiscountChangeNameAction</text><line style="stroke:#181818;stroke-width:0.5;" x1="22" x2="280" y1="295.4297" y2="295.4297"/><text fill="#000000" font-family="sans-serif" font-size="14" lengthAdjust="spacing" textLength="91" x="27" y="312.4248">action: String</text><text fill="#000000" font-family="sans-serif" font-size="14" lengthAdjust="spacing" textLength="44" x="27" y="328.7217">name:</text><a href="LocalizedString.svg" target="_top" title="LocalizedString.svg" xlink:actuate="onRequest" xlink:href="LocalizedString.svg" xlink:show="new" xlink:title="LocalizedString.svg" xlink:type="simple"><text fill="#0000FF" font-family="sans-serif" font-size="14" lengthAdjust="spacing" text-decoration="underline" textLength="104" x="75" y="328.7217">LocalizedString</text></a></g></a><!--MD5=[8e6afadde400d1b5b61969feeefd0f09]
class CartDiscountChangeRequiresDiscountCodeAction--><a href="CartDiscountChangeRequiresDiscountCodeAction.svg" target="_top" title="CartDiscountChangeRequiresDiscountCodeAction.svg" xlink:actuate="onRequest" xlink:href="CartDiscountChangeRequiresDiscountCodeAction.svg" xlink:show="new" xlink:title="CartDiscountChangeRequiresDiscountCodeAction.svg" xlink:type="simple"><g id="elem_CartDiscountChangeRequiresDiscountCodeAction"><rect codeLine="27" fill="#F1F1F1" height="72.5938" id="CartDiscountChangeRequiresDiscountCodeAction" rx="2.5" ry="2.5" style="stroke:#181818;stroke-width:0.5;" width="378" x="1161" y="263.4297"/><ellipse cx="1176" cy="279.4297" fill="#B4A7E5" rx="11" ry="11" style="stroke:#181818;stroke-width:1.0;"/><path d="M1171.9219,275.1953 L1171.9219,273.0391 L1179.3125,273.0391 L1179.3125,275.1953 L1176.8438,275.1953 L1176.8438,283.2734 L1179.3125,283.2734 L1179.3125,285.4297 L1171.9219,285.4297 L1171.9219,283.2734 L1174.3906,283.2734 L1174.3906,275.1953 L1171.9219,275.1953 Z " fill="#000000"/><text fill="#000000" font-family="sans-serif" font-size="14" font-style="italic" lengthAdjust="spacing" textLength="346" x="1190" y="284.2764">CartDiscountChangeRequiresDiscountCodeAction</text><line style="stroke:#181818;stroke-width:0.5;" x1="1162" x2="1538" y1="295.4297" y2="295.4297"/><text fill="#000000" font-family="sans-serif" font-size="14" lengthAdjust="spacing" textLength="91" x="1167" y="312.4248">action: String</text><text fill="#000000" font-family="sans-serif" font-size="14" lengthAdjust="spacing" textLength="222" x="1167" y="328.7217">requiresDiscountCode: Boolean</text></g></a><!--MD5=[92d0e4b706125f430cc10c4c283612b1]
class CartDiscountChangeSortOrderAction--><a href="CartDiscountChangeSortOrderAction.svg" target="_top" title="CartDiscountChangeSortOrderAction.svg" xlink:actuate="onRequest" xlink:href="CartDiscountChangeSortOrderAction.svg" xlink:show="new" xlink:title="CartDiscountChangeSortOrderAction.svg" xlink:type="simple"><g id="elem_CartDiscountChangeSortOrderAction"><rect codeLine="31" fill="#F1F1F1" height="72.5938" id="CartDiscountChangeSortOrderAction" rx="2.5" ry="2.5" style="stroke:#181818;stroke-width:0.5;" width="286" x="2980" y="263.4297"/><ellipse cx="2995" cy="279.4297" fill="#B4A7E5" rx="11" ry="11" style="stroke:#181818;stroke-width:1.0;"/><path d="M2990.9219,275.1953 L2990.9219,273.0391 L2998.3125,273.0391 L2998.3125,275.1953 L2995.8438,275.1953 L2995.8438,283.2734 L2998.3125,283.2734 L2998.3125,285.4297 L2990.9219,285.4297 L2990.9219,283.2734 L2993.3906,283.2734 L2993.3906,275.1953 L2990.9219,275.1953 Z " fill="#000000"/><text fill="#000000" font-family="sans-serif" font-size="14" font-style="italic" lengthAdjust="spacing" textLength="254" x="3009" y="284.2764">CartDiscountChangeSortOrderAction</text><line style="stroke:#181818;stroke-width:0.5;" x1="2981" x2="3265" y1="295.4297" y2="295.4297"/><text fill="#000000" font-family="sans-serif" font-size="14" lengthAdjust="spacing" textLength="91" x="2986" y="312.4248">action: String</text><text fill="#000000" font-family="sans-serif" font-size="14" lengthAdjust="spacing" textLength="115" x="2986" y="328.7217">sortOrder: String</text></g></a><!--MD5=[6fbb48d0263db13e9690681080c08267]
class CartDiscountChangeStackingModeAction--><a href="CartDiscountChangeStackingModeAction.svg" target="_top" title="CartDiscountChangeStackingModeAction.svg" xlink:actuate="onRequest" xlink:href="CartDiscountChangeStackingModeAction.svg" xlink:show="new" xlink:title="CartDiscountChangeStackingModeAction.svg" xlink:type="simple"><g id="elem_CartDiscountChangeStackingModeAction"><rect codeLine="35" fill="#F1F1F1" height="72.5938" id="CartDiscountChangeStackingModeAction" rx="2.5" ry="2.5" style="stroke:#181818;stroke-width:0.5;" width="317" x="3286" y="263.4297"/><ellipse cx="3301" cy="279.4297" fill="#B4A7E5" rx="11" ry="11" style="stroke:#181818;stroke-width:1.0;"/><path d="M3296.9219,275.1953 L3296.9219,273.0391 L3304.3125,273.0391 L3304.3125,275.1953 L3301.8438,275.1953 L3301.8438,283.2734 L3304.3125,283.2734 L3304.3125,285.4297 L3296.9219,285.4297 L3296.9219,283.2734 L3299.3906,283.2734 L3299.3906,275.1953 L3296.9219,275.1953 Z " fill="#000000"/><text fill="#000000" font-family="sans-serif" font-size="14" font-style="italic" lengthAdjust="spacing" textLength="285" x="3315" y="284.2764">CartDiscountChangeStackingModeAction</text><line style="stroke:#181818;stroke-width:0.5;" x1="3287" x2="3602" y1="295.4297" y2="295.4297"/><text fill="#000000" font-family="sans-serif" font-size="14" lengthAdjust="spacing" textLength="91" x="3292" y="312.4248">action: String</text><text fill="#000000" font-family="sans-serif" font-size="14" lengthAdjust="spacing" textLength="102" x="3292" y="328.7217">stackingMode:</text><a href="StackingMode.svg" target="_top" title="StackingMode.svg" xlink:actuate="onRequest" xlink:href="StackingMode.svg" xlink:show="new" xlink:title="StackingMode.svg" xlink:type="simple"><text fill="#0000FF" font-family="sans-serif" font-size="14" lengthAdjust="spacing" text-decoration="underline" textLength="98" x="3398" y="328.7217">StackingMode</text></a></g></a><!--MD5=[16bd009009786da9c51a68bb68790935]
class CartDiscountChangeTargetAction--><a href="CartDiscountChangeTargetAction.svg" target="_top" title="CartDiscountChangeTargetAction.svg" xlink:actuate="onRequest" xlink:href="CartDiscountChangeTargetAction.svg" xlink:show="new" xlink:title="CartDiscountChangeTargetAction.svg" xlink:type="simple"><g id="elem_CartDiscountChangeTargetAction"><rect codeLine="39" fill="#F1F1F1" height="72.5938" id="CartDiscountChangeTargetAction" rx="2.5" ry="2.5" style="stroke:#181818;stroke-width:0.5;" width="264" x="2696" y="263.4297"/><ellipse cx="2711" cy="279.4297" fill="#B4A7E5" rx="11" ry="11" style="stroke:#181818;stroke-width:1.0;"/><path d="M2706.9219,275.1953 L2706.9219,273.0391 L2714.3125,273.0391 L2714.3125,275.1953 L2711.8438,275.1953 L2711.8438,283.2734 L2714.3125,283.2734 L2714.3125,285.4297 L2706.9219,285.4297 L2706.9219,283.2734 L2709.3906,283.2734 L2709.3906,275.1953 L2706.9219,275.1953 Z " fill="#000000"/><text fill="#000000" font-family="sans-serif" font-size="14" font-style="italic" lengthAdjust="spacing" textLength="232" x="2725" y="284.2764">CartDiscountChangeTargetAction</text><line style="stroke:#181818;stroke-width:0.5;" x1="2697" x2="2959" y1="295.4297" y2="295.4297"/><text fill="#000000" font-family="sans-serif" font-size="14" lengthAdjust="spacing" textLength="91" x="2702" y="312.4248">action: String</text><text fill="#000000" font-family="sans-serif" font-size="14" lengthAdjust="spacing" textLength="46" x="2702" y="328.7217">target:</text><a href="CartDiscountTarget.svg" target="_top" title="CartDiscountTarget.svg" xlink:actuate="onRequest" xlink:href="CartDiscountTarget.svg" xlink:show="new" xlink:title="CartDiscountTarget.svg" xlink:type="simple"><text fill="#0000FF" font-family="sans-serif" font-size="14" lengthAdjust="spacing" text-decoration="underline" textLength="135" x="2752" y="328.7217">CartDiscountTarget</text></a></g></a><!--MD5=[4360fa3cd04f2a8829694b8f23409a8c]
class CartDiscountChangeValueAction--><a href="CartDiscountChangeValueAction.svg" target="_top" title="CartDiscountChangeValueAction.svg" xlink:actuate="onRequest" xlink:href="CartDiscountChangeValueAction.svg" xlink:show="new" xlink:title="CartDiscountChangeValueAction.svg" xlink:type="simple"><g id="elem_CartDiscountChangeValueAction"><rect codeLine="43" fill="#F1F1F1" height="72.5938" id="CartDiscountChangeValueAction" rx="2.5" ry="2.5" style="stroke:#181818;stroke-width:0.5;" width="258" x="587" y="263.4297"/><ellipse cx="602" cy="279.4297" fill="#B4A7E5" rx="11" ry="11" style="stroke:#181818;stroke-width:1.0;"/><path d="M597.9219,275.1953 L597.9219,273.0391 L605.3125,273.0391 L605.3125,275.1953 L602.8438,275.1953 L602.8438,283.2734 L605.3125,283.2734 L605.3125,285.4297 L597.9219,285.4297 L597.9219,283.2734 L600.3906,283.2734 L600.3906,275.1953 L597.9219,275.1953 Z " fill="#000000"/><text fill="#000000" font-family="sans-serif" font-size="14" font-style="italic" lengthAdjust="spacing" textLength="226" x="616" y="284.2764">CartDiscountChangeValueAction</text><line style="stroke:#181818;stroke-width:0.5;" x1="588" x2="844" y1="295.4297" y2="295.4297"/><text fill="#000000" font-family="sans-serif" font-size="14" lengthAdjust="spacing" textLength="91" x="593" y="312.4248">action: String</text><text fill="#000000" font-family="sans-serif" font-size="14" lengthAdjust="spacing" textLength="41" x="593" y="328.7217">value:</text><a href="CartDiscountValueDraft.svg" target="_top" title="CartDiscountValueDraft.svg" xlink:actuate="onRequest" xlink:href="CartDiscountValueDraft.svg" xlink:show="new" xlink:title="CartDiscountValueDraft.svg" xlink:type="simple"><text fill="#0000FF" font-family="sans-serif" font-size="14" lengthAdjust="spacing" text-decoration="underline" textLength="161" x="638" y="328.7217">CartDiscountValueDraft</text></a></g></a><!--MD5=[d711ff85869aab7a2a7eaa01d36b891d]
class CartDiscountSetCustomFieldAction--><a href="CartDiscountSetCustomFieldAction.svg" target="_top" title="CartDiscountSetCustomFieldAction.svg" xlink:actuate="onRequest" xlink:href="CartDiscountSetCustomFieldAction.svg" xlink:show="new" xlink:title="CartDiscountSetCustomFieldAction.svg" xlink:type="simple"><g id="elem_CartDiscountSetCustomFieldAction"><rect codeLine="47" fill="#F1F1F1" height="88.8906" id="CartDiscountSetCustomFieldAction" rx="2.5" ry="2.5" style="stroke:#181818;stroke-width:0.5;" width="273" x="1835" y="263.4297"/><ellipse cx="1850" cy="279.4297" fill="#B4A7E5" rx="11" ry="11" style="stroke:#181818;stroke-width:1.0;"/><path d="M1845.9219,275.1953 L1845.9219,273.0391 L1853.3125,273.0391 L1853.3125,275.1953 L1850.8438,275.1953 L1850.8438,283.2734 L1853.3125,283.2734 L1853.3125,285.4297 L1845.9219,285.4297 L1845.9219,283.2734 L1848.3906,283.2734 L1848.3906,275.1953 L1845.9219,275.1953 Z " fill="#000000"/><text fill="#000000" font-family="sans-serif" font-size="14" font-style="italic" lengthAdjust="spacing" textLength="241" x="1864" y="284.2764">CartDiscountSetCustomFieldAction</text><line style="stroke:#181818;stroke-width:0.5;" x1="1836" x2="2107" y1="295.4297" y2="295.4297"/><text fill="#000000" font-family="sans-serif" font-size="14" lengthAdjust="spacing" textLength="91" x="1841" y="312.4248">action: String</text><text fill="#000000" font-family="sans-serif" font-size="14" lengthAdjust="spacing" textLength="88" x="1841" y="328.7217">name: String</text><text fill="#000000" font-family="sans-serif" font-size="14" lengthAdjust="spacing" textLength="41" x="1841" y="345.0186">value:</text><a href="Object.svg" target="_top" title="Object.svg" xlink:actuate="onRequest" xlink:href="Object.svg" xlink:show="new" xlink:title="Object.svg" xlink:type="simple"><text fill="#0000FF" font-family="sans-serif" font-size="14" lengthAdjust="spacing" text-decoration="underline" textLength="45" x="1886" y="345.0186">Object</text></a></g></a><!--MD5=[3b227859be8ad397d00710aefc974829]
class CartDiscountSetCustomTypeAction--><a href="CartDiscountSetCustomTypeAction.svg" target="_top" title="CartDiscountSetCustomTypeAction.svg" xlink:actuate="onRequest" xlink:href="CartDiscountSetCustomTypeAction.svg" xlink:show="new" xlink:title="CartDiscountSetCustomTypeAction.svg" xlink:type="simple"><g id="elem_CartDiscountSetCustomTypeAction"><rect codeLine="52" fill="#F1F1F1" height="88.8906" id="CartDiscountSetCustomTypeAction" rx="2.5" ry="2.5" style="stroke:#181818;stroke-width:0.5;" width="276" x="865" y="263.4297"/><ellipse cx="880" cy="279.4297" fill="#B4A7E5" rx="11" ry="11" style="stroke:#181818;stroke-width:1.0;"/><path d="M875.9219,275.1953 L875.9219,273.0391 L883.3125,273.0391 L883.3125,275.1953 L880.8438,275.1953 L880.8438,283.2734 L883.3125,283.2734 L883.3125,285.4297 L875.9219,285.4297 L875.9219,283.2734 L878.3906,283.2734 L878.3906,275.1953 L875.9219,275.1953 Z " fill="#000000"/><text fill="#000000" font-family="sans-serif" font-size="14" font-style="italic" lengthAdjust="spacing" textLength="244" x="894" y="284.2764">CartDiscountSetCustomTypeAction</text><line style="stroke:#181818;stroke-width:0.5;" x1="866" x2="1140" y1="295.4297" y2="295.4297"/><text fill="#000000" font-family="sans-serif" font-size="14" lengthAdjust="spacing" textLength="91" x="871" y="312.4248">action: String</text><text fill="#000000" font-family="sans-serif" font-size="14" lengthAdjust="spacing" textLength="35" x="871" y="328.7217">type:</text><a href="TypeResourceIdentifier.svg" target="_top" title="TypeResourceIdentifier.svg" xlink:actuate="onRequest" xlink:href="TypeResourceIdentifier.svg" xlink:show="new" xlink:title="TypeResourceIdentifier.svg" xlink:type="simple"><text fill="#0000FF" font-family="sans-serif" font-size="14" lengthAdjust="spacing" text-decoration="underline" textLength="160" x="910" y="328.7217">TypeResourceIdentifier</text></a><text fill="#000000" font-family="sans-serif" font-size="14" lengthAdjust="spacing" textLength="41" x="871" y="345.0186">fields:</text><a href="FieldContainer.svg" target="_top" title="FieldContainer.svg" xlink:actuate="onRequest" xlink:href="FieldContainer.svg" xlink:show="new" xlink:title="FieldContainer.svg" xlink:type="simple"><text fill="#0000FF" font-family="sans-serif" font-size="14" lengthAdjust="spacing" text-decoration="underline" textLength="99" x="916" y="345.0186">FieldContainer</text></a></g></a><!--MD5=[9c6d3ac4e2045aadccb4c057df715f1a]
class CartDiscountSetDescriptionAction--><a href="CartDiscountSetDescriptionAction.svg" target="_top" title="CartDiscountSetDescriptionAction.svg" xlink:actuate="onRequest" xlink:href="CartDiscountSetDescriptionAction.svg" xlink:show="new" xlink:title="CartDiscountSetDescriptionAction.svg" xlink:type="simple"><g id="elem_CartDiscountSetDescriptionAction"><rect codeLine="57" fill="#F1F1F1" height="72.5938" id="CartDiscountSetDescriptionAction" rx="2.5" ry="2.5" style="stroke:#181818;stroke-width:0.5;" width="266" x="301" y="263.4297"/><ellipse cx="316" cy="279.4297" fill="#B4A7E5" rx="11" ry="11" style="stroke:#181818;stroke-width:1.0;"/><path d="M311.9219,275.1953 L311.9219,273.0391 L319.3125,273.0391 L319.3125,275.1953 L316.8438,275.1953 L316.8438,283.2734 L319.3125,283.2734 L319.3125,285.4297 L311.9219,285.4297 L311.9219,283.2734 L314.3906,283.2734 L314.3906,275.1953 L311.9219,275.1953 Z " fill="#000000"/><text fill="#000000" font-family="sans-serif" font-size="14" font-style="italic" lengthAdjust="spacing" textLength="234" x="330" y="284.2764">CartDiscountSetDescriptionAction</text><line style="stroke:#181818;stroke-width:0.5;" x1="302" x2="566" y1="295.4297" y2="295.4297"/><text fill="#000000" font-family="sans-serif" font-size="14" lengthAdjust="spacing" textLength="91" x="307" y="312.4248">action: String</text><text fill="#000000" font-family="sans-serif" font-size="14" lengthAdjust="spacing" textLength="82" x="307" y="328.7217">description:</text><a href="LocalizedString.svg" target="_top" title="LocalizedString.svg" xlink:actuate="onRequest" xlink:href="LocalizedString.svg" xlink:show="new" xlink:title="LocalizedString.svg" xlink:type="simple"><text fill="#0000FF" font-family="sans-serif" font-size="14" lengthAdjust="spacing" text-decoration="underline" textLength="104" x="393" y="328.7217">LocalizedString</text></a></g></a><!--MD5=[febe771bd1e51cd9188010d4a8e837ab]
class CartDiscountSetKeyAction--><a href="CartDiscountSetKeyAction.svg" target="_top" title="CartDiscountSetKeyAction.svg" xlink:actuate="onRequest" xlink:href="CartDiscountSetKeyAction.svg" xlink:show="new" xlink:title="CartDiscountSetKeyAction.svg" xlink:type="simple"><g id="elem_CartDiscountSetKeyAction"><rect codeLine="61" fill="#F1F1F1" height="72.5938" id="CartDiscountSetKeyAction" rx="2.5" ry="2.5" style="stroke:#181818;stroke-width:0.5;" width="214" x="2462" y="263.4297"/><ellipse cx="2477" cy="279.4297" fill="#B4A7E5" rx="11" ry="11" style="stroke:#181818;stroke-width:1.0;"/><path d="M2472.9219,275.1953 L2472.9219,273.0391 L2480.3125,273.0391 L2480.3125,275.1953 L2477.8438,275.1953 L2477.8438,283.2734 L2480.3125,283.2734 L2480.3125,285.4297 L2472.9219,285.4297 L2472.9219,283.2734 L2475.3906,283.2734 L2475.3906,275.1953 L2472.9219,275.1953 Z " fill="#000000"/><text fill="#000000" font-family="sans-serif" font-size="14" font-style="italic" lengthAdjust="spacing" textLength="182" x="2491" y="284.2764">CartDiscountSetKeyAction</text><line style="stroke:#181818;stroke-width:0.5;" x1="2463" x2="2675" y1="295.4297" y2="295.4297"/><text fill="#000000" font-family="sans-serif" font-size="14" lengthAdjust="spacing" textLength="91" x="2468" y="312.4248">action: String</text><text fill="#000000" font-family="sans-serif" font-size="14" lengthAdjust="spacing" textLength="73" x="2468" y="328.7217">key: String</text></g></a><!--MD5=[8b95c29f67a4fc70aa4c912487c2e367]
class CartDiscountSetValidFromAction--><a href="CartDiscountSetValidFromAction.svg" target="_top" title="CartDiscountSetValidFromAction.svg" xlink:actuate="onRequest" xlink:href="CartDiscountSetValidFromAction.svg" xlink:show="new" xlink:title="CartDiscountSetValidFromAction.svg" xlink:type="simple"><g id="elem_CartDiscountSetValidFromAction"><rect codeLine="65" fill="#F1F1F1" height="72.5938" id="CartDiscountSetValidFromAction" rx="2.5" ry="2.5" style="stroke:#181818;stroke-width:0.5;" width="256" x="1559" y="263.4297"/><ellipse cx="1574" cy="279.4297" fill="#B4A7E5" rx="11" ry="11" style="stroke:#181818;stroke-width:1.0;"/><path d="M1569.9219,275.1953 L1569.9219,273.0391 L1577.3125,273.0391 L1577.3125,275.1953 L1574.8438,275.1953 L1574.8438,283.2734 L1577.3125,283.2734 L1577.3125,285.4297 L1569.9219,285.4297 L1569.9219,283.2734 L1572.3906,283.2734 L1572.3906,275.1953 L1569.9219,275.1953 Z " fill="#000000"/><text fill="#000000" font-family="sans-serif" font-size="14" font-style="italic" lengthAdjust="spacing" textLength="224" x="1588" y="284.2764">CartDiscountSetValidFromAction</text><line style="stroke:#181818;stroke-width:0.5;" x1="1560" x2="1814" y1="295.4297" y2="295.4297"/><text fill="#000000" font-family="sans-serif" font-size="14" lengthAdjust="spacing" textLength="91" x="1565" y="312.4248">action: String</text><text fill="#000000" font-family="sans-serif" font-size="14" lengthAdjust="spacing" textLength="141" x="1565" y="328.7217">validFrom: DateTime</text></g></a><!--MD5=[22fc0e5a7e3c3dbc0751e30a31abc92f]
class CartDiscountSetValidFromAndUntilAction--><a href="CartDiscountSetValidFromAndUntilAction.svg" target="_top" title="CartDiscountSetValidFromAndUntilAction.svg" xlink:actuate="onRequest" xlink:href="CartDiscountSetValidFromAndUntilAction.svg" xlink:show="new" xlink:title="CartDiscountSetValidFromAndUntilAction.svg" xlink:type="simple"><g id="elem_CartDiscountSetValidFromAndUntilAction"><rect codeLine="69" fill="#F1F1F1" height="88.8906" id="CartDiscountSetValidFromAndUntilAction" rx="2.5" ry="2.5" style="stroke:#181818;stroke-width:0.5;" width="314" x="2128" y="263.4297"/><ellipse cx="2143" cy="279.4297" fill="#B4A7E5" rx="11" ry="11" style="stroke:#181818;stroke-width:1.0;"/><path d="M2138.9219,275.1953 L2138.9219,273.0391 L2146.3125,273.0391 L2146.3125,275.1953 L2143.8438,275.1953 L2143.8438,283.2734 L2146.3125,283.2734 L2146.3125,285.4297 L2138.9219,285.4297 L2138.9219,283.2734 L2141.3906,283.2734 L2141.3906,275.1953 L2138.9219,275.1953 Z " fill="#000000"/><text fill="#000000" font-family="sans-serif" font-size="14" font-style="italic" lengthAdjust="spacing" textLength="282" x="2157" y="284.2764">CartDiscountSetValidFromAndUntilAction</text><line style="stroke:#181818;stroke-width:0.5;" x1="2129" x2="2441" y1="295.4297" y2="295.4297"/><text fill="#000000" font-family="sans-serif" font-size="14" lengthAdjust="spacing" textLength="91" x="2134" y="312.4248">action: String</text><text fill="#000000" font-family="sans-serif" font-size="14" lengthAdjust="spacing" textLength="141" x="2134" y="328.7217">validFrom: DateTime</text><text fill="#000000" font-family="sans-serif" font-size="14" lengthAdjust="spacing" textLength="136" x="2134" y="345.0186">validUntil: DateTime</text></g></a><!--MD5=[9ac30ee63507313d3e09aa651f60064d]
class CartDiscountSetValidUntilAction--><a href="CartDiscountSetValidUntilAction.svg" target="_top" title="CartDiscountSetValidUntilAction.svg" xlink:actuate="onRequest" xlink:href="CartDiscountSetValidUntilAction.svg" xlink:show="new" xlink:title="CartDiscountSetValidUntilAction.svg" xlink:type="simple"><g id="elem_CartDiscountSetValidUntilAction"><rect codeLine="74" fill="#F1F1F1" height="72.5938" id="CartDiscountSetValidUntilAction" rx="2.5" ry="2.5" style="stroke:#181818;stroke-width:0.5;" width="251" x="3623" y="263.4297"/><ellipse cx="3638" cy="279.4297" fill="#B4A7E5" rx="11" ry="11" style="stroke:#181818;stroke-width:1.0;"/><path d="M3633.9219,275.1953 L3633.9219,273.0391 L3641.3125,273.0391 L3641.3125,275.1953 L3638.8438,275.1953 L3638.8438,283.2734 L3641.3125,283.2734 L3641.3125,285.4297 L3633.9219,285.4297 L3633.9219,283.2734 L3636.3906,283.2734 L3636.3906,275.1953 L3633.9219,275.1953 Z " fill="#000000"/><text fill="#000000" font-family="sans-serif" font-size="14" font-style="italic" lengthAdjust="spacing" textLength="219" x="3652" y="284.2764">CartDiscountSetValidUntilAction</text><line style="stroke:#181818;stroke-width:0.5;" x1="3624" x2="3873" y1="295.4297" y2="295.4297"/><text fill="#000000" font-family="sans-serif" font-size="14" lengthAdjust="spacing" textLength="91" x="3629" y="312.4248">action: String</text><text fill="#000000" font-family="sans-serif" font-size="14" lengthAdjust="spacing" textLength="136" x="3629" y="328.7217">validUntil: DateTime</text></g></a><!--MD5=[88ed0529cfd95bbadab4df116cbe15c1]
class CartDiscountUpdate--><a href="CartDiscountUpdate.svg" target="_top" title="CartDiscountUpdate.svg" xlink:actuate="onRequest" xlink:href="CartDiscountUpdate.svg" xlink:show="new" xlink:title="CartDiscountUpdate.svg" xlink:type="simple"><g id="elem_CartDiscountUpdate"><rect codeLine="78" fill="#F1F1F1" height="72.5938" id="CartDiscountUpdate" rx="2.5" ry="2.5" style="stroke:#181818;stroke-width:0.5;" width="301" x="3894" y="263.4297"/><ellipse cx="3970.75" cy="279.4297" fill="#B4A7E5" rx="11" ry="11" style="stroke:#181818;stroke-width:1.0;"/><path d="M3966.6719,275.1953 L3966.6719,273.0391 L3974.0625,273.0391 L3974.0625,275.1953 L3971.5938,275.1953 L3971.5938,283.2734 L3974.0625,283.2734 L3974.0625,285.4297 L3966.6719,285.4297 L3966.6719,283.2734 L3969.1406,283.2734 L3969.1406,275.1953 L3966.6719,275.1953 Z " fill="#000000"/><text fill="#000000" font-family="sans-serif" font-size="14" font-style="italic" lengthAdjust="spacing" textLength="139" x="3991.25" y="284.2764">CartDiscountUpdate</text><line style="stroke:#181818;stroke-width:0.5;" x1="3895" x2="4194" y1="295.4297" y2="295.4297"/><text fill="#000000" font-family="sans-serif" font-size="14" lengthAdjust="spacing" textLength="93" x="3900" y="312.4248">version: Long</text><text fill="#000000" font-family="sans-serif" font-size="14" lengthAdjust="spacing" textLength="55" x="3900" y="328.7217">actions:</text><a href="CartDiscountUpdateAction.svg" target="_top" title="CartDiscountUpdateAction.svg" xlink:actuate="onRequest" xlink:href="CartDiscountUpdateAction.svg" xlink:show="new" xlink:title="CartDiscountUpdateAction.svg" xlink:type="simple"><text fill="#0000FF" font-family="sans-serif" font-size="14" lengthAdjust="spacing" text-decoration="underline" textLength="230" x="3959" y="328.7217">List&lt;CartDiscountUpdateAction&gt;</text></a></g></a><line style="stroke:#0000FF;stroke-width:1.0;" x1="328.0588" x2="328.0588" y1="68.2969" y2="88.2969"/><line style="stroke:#0000FF;stroke-width:1.0;" x1="328.0588" x2="4370.5" y1="88.2969" y2="88.2969"/><line style="stroke:#0000FF;stroke-width:1.0;" x1="4370.5" x2="4370.5" y1="88.2969" y2="263.4297"/><polygon fill="#0000FF" points="4370.5,263.4297,4374.5,254.4297,4370.5,258.4297,4366.5,254.4297,4370.5,263.4297" style="stroke:#0000FF;stroke-width:1.0;"/><text fill="#000000" font-family="sans-serif" font-size="13" lengthAdjust="spacing" textLength="185" x="4183.5" y="240.3638">action : changeCartPredicate</text><line style="stroke:#0000FF;stroke-width:1.0;" x1="340.7059" x2="340.7059" y1="68.2969" y2="78.2969"/><line style="stroke:#0000FF;stroke-width:1.0;" x1="340.7059" x2="4682.5" y1="78.2969" y2="78.2969"/><line style="stroke:#0000FF;stroke-width:1.0;" x1="4682.5" x2="4682.5" y1="78.2969" y2="263.4297"/><polygon fill="#0000FF" points="4682.5,263.4297,4686.5,254.4297,4682.5,258.4297,4678.5,254.4297,4682.5,263.4297" style="stroke:#0000FF;stroke-width:1.0;"/><text fill="#000000" font-family="sans-serif" font-size="13" lengthAdjust="spacing" textLength="147" x="4533.5" y="240.3638">action : changeIsActive</text><line style="stroke:#0000FF;stroke-width:1.0;" x1="151" x2="151" y1="68.2969" y2="263.4297"/><polygon fill="#0000FF" points="151,263.4297,155,254.4297,151,258.4297,147,254.4297,151,263.4297" style="stroke:#0000FF;stroke-width:1.0;"/><text fill="#000000" font-family="sans-serif" font-size="13" lengthAdjust="spacing" textLength="137" x="12" y="240.3638">action : changeName</text><line style="stroke:#0000FF;stroke-width:1.0;" x1="201.5882" x2="201.5882" y1="68.2969" y2="188.2969"/><line style="stroke:#0000FF;stroke-width:1.0;" x1="201.5882" x2="1350" y1="188.2969" y2="188.2969"/><line style="stroke:#0000FF;stroke-width:1.0;" x1="1350" x2="1350" y1="188.2969" y2="263.4297"/><polygon fill="#0000FF" points="1350,263.4297,1354,254.4297,1350,258.4297,1346,254.4297,1350,263.4297" style="stroke:#0000FF;stroke-width:1.0;"/><text fill="#000000" font-family="sans-serif" font-size="13" lengthAdjust="spacing" textLength="242" x="1106" y="240.3638">action : changeRequiresDiscountCode</text><line style="stroke:#0000FF;stroke-width:1.0;" x1="277.4706" x2="277.4706" y1="68.2969" y2="128.2969"/><line style="stroke:#0000FF;stroke-width:1.0;" x1="277.4706" x2="3123" y1="128.2969" y2="128.2969"/><line style="stroke:#0000FF;stroke-width:1.0;" x1="3123" x2="3123" y1="128.2969" y2="263.4297"/><polygon fill="#0000FF" points="3123,263.4297,3127,254.4297,3123,258.4297,3119,254.4297,3123,263.4297" style="stroke:#0000FF;stroke-width:1.0;"/><text fill="#000000" font-family="sans-serif" font-size="13" lengthAdjust="spacing" textLength="161" x="2960" y="240.3638">action : changeSortOrder</text><line style="stroke:#0000FF;stroke-width:1.0;" x1="290.1176" x2="290.1176" y1="68.2969" y2="118.2969"/><line style="stroke:#0000FF;stroke-width:1.0;" x1="290.1176" x2="3444.5" y1="118.2969" y2="118.2969"/><line style="stroke:#0000FF;stroke-width:1.0;" x1="3444.5" x2="3444.5" y1="118.2969" y2="263.4297"/><polygon fill="#0000FF" points="3444.5,263.4297,3448.5,254.4297,3444.5,258.4297,3440.5,254.4297,3444.5,263.4297" style="stroke:#0000FF;stroke-width:1.0;"/><text fill="#000000" font-family="sans-serif" font-size="13" lengthAdjust="spacing" textLength="188" x="3254.5" y="240.3638">action : changeStackingMode</text><line style="stroke:#0000FF;stroke-width:1.0;" x1="264.8235" x2="264.8235" y1="68.2969" y2="138.2969"/><line style="stroke:#0000FF;stroke-width:1.0;" x1="264.8235" x2="2828" y1="138.2969" y2="138.2969"/><line style="stroke:#0000FF;stroke-width:1.0;" x1="2828" x2="2828" y1="138.2969" y2="263.4297"/><polygon fill="#0000FF" points="2828,263.4297,2832,254.4297,2828,258.4297,2824,254.4297,2828,263.4297" style="stroke:#0000FF;stroke-width:1.0;"/><text fill="#000000" font-family="sans-serif" font-size="13" lengthAdjust="spacing" textLength="139" x="2687" y="240.3638">action : changeTarget</text><line style="stroke:#0000FF;stroke-width:1.0;" x1="176.2941" x2="176.2941" y1="68.2969" y2="208.2969"/><line style="stroke:#0000FF;stroke-width:1.0;" x1="176.2941" x2="716" y1="208.2969" y2="208.2969"/><line style="stroke:#0000FF;stroke-width:1.0;" x1="716" x2="716" y1="208.2969" y2="263.4297"/><polygon fill="#0000FF" points="716,263.4297,720,254.4297,716,258.4297,712,254.4297,716,263.4297" style="stroke:#0000FF;stroke-width:1.0;"/><text fill="#000000" font-family="sans-serif" font-size="13" lengthAdjust="spacing" textLength="134" x="580" y="240.3638">action : changeValue</text><line style="stroke:#0000FF;stroke-width:1.0;" x1="226.8824" x2="226.8824" y1="68.2969" y2="168.2969"/><line style="stroke:#0000FF;stroke-width:1.0;" x1="226.8824" x2="1971.5" y1="168.2969" y2="168.2969"/><line style="stroke:#0000FF;stroke-width:1.0;" x1="1971.5" x2="1971.5" y1="168.2969" y2="263.4297"/><polygon fill="#0000FF" points="1971.5,263.4297,1975.5,254.4297,1971.5,258.4297,1967.5,254.4297,1971.5,263.4297" style="stroke:#0000FF;stroke-width:1.0;"/><text fill="#000000" font-family="sans-serif" font-size="13" lengthAdjust="spacing" textLength="150" x="1819.5" y="240.3638">action : setCustomField</text><line style="stroke:#0000FF;stroke-width:1.0;" x1="188.9412" x2="188.9412" y1="68.2969" y2="198.2969"/><line style="stroke:#0000FF;stroke-width:1.0;" x1="188.9412" x2="1003" y1="198.2969" y2="198.2969"/><line style="stroke:#0000FF;stroke-width:1.0;" x1="1003" x2="1003" y1="198.2969" y2="263.4297"/><polygon fill="#0000FF" points="1003,263.4297,1007,254.4297,1003,258.4297,999,254.4297,1003,263.4297" style="stroke:#0000FF;stroke-width:1.0;"/><text fill="#000000" font-family="sans-serif" font-size="13" lengthAdjust="spacing" textLength="151" x="850" y="240.3638">action : setCustomType</text><line style="stroke:#0000FF;stroke-width:1.0;" x1="163.6471" x2="163.6471" y1="68.2969" y2="218.2969"/><line style="stroke:#0000FF;stroke-width:1.0;" x1="163.6471" x2="434" y1="218.2969" y2="218.2969"/><line style="stroke:#0000FF;stroke-width:1.0;" x1="434" x2="434" y1="218.2969" y2="263.4297"/><polygon fill="#0000FF" points="434,263.4297,438,254.4297,434,258.4297,430,254.4297,434,263.4297" style="stroke:#0000FF;stroke-width:1.0;"/><text fill="#000000" font-family="sans-serif" font-size="13" lengthAdjust="spacing" textLength="143" x="289" y="240.3638">action : setDescription</text><line style="stroke:#0000FF;stroke-width:1.0;" x1="252.1765" x2="252.1765" y1="68.2969" y2="148.2969"/><line style="stroke:#0000FF;stroke-width:1.0;" x1="252.1765" x2="2569" y1="148.2969" y2="148.2969"/><line style="stroke:#0000FF;stroke-width:1.0;" x1="2569" x2="2569" y1="148.2969" y2="263.4297"/><polygon fill="#0000FF" points="2569,263.4297,2573,254.4297,2569,258.4297,2565,254.4297,2569,263.4297" style="stroke:#0000FF;stroke-width:1.0;"/><text fill="#000000" font-family="sans-serif" font-size="13" lengthAdjust="spacing" textLength="94" x="2473" y="240.3638">action : setKey</text><line style="stroke:#0000FF;stroke-width:1.0;" x1="214.2353" x2="214.2353" y1="68.2969" y2="178.2969"/><line style="stroke:#0000FF;stroke-width:1.0;" x1="214.2353" x2="1687" y1="178.2969" y2="178.2969"/><line style="stroke:#0000FF;stroke-width:1.0;" x1="1687" x2="1687" y1="178.2969" y2="263.4297"/><polygon fill="#0000FF" points="1687,263.4297,1691,254.4297,1687,258.4297,1683,254.4297,1687,263.4297" style="stroke:#0000FF;stroke-width:1.0;"/><text fill="#000000" font-family="sans-serif" font-size="13" lengthAdjust="spacing" textLength="135" x="1550" y="240.3638">action : setValidFrom</text><line style="stroke:#0000FF;stroke-width:1.0;" x1="239.5294" x2="239.5294" y1="68.2969" y2="158.2969"/><line style="stroke:#0000FF;stroke-width:1.0;" x1="239.5294" x2="2285" y1="158.2969" y2="158.2969"/><line style="stroke:#0000FF;stroke-width:1.0;" x1="2285" x2="2285" y1="158.2969" y2="263.4297"/><polygon fill="#0000FF" points="2285,263.4297,2289,254.4297,2285,258.4297,2281,254.4297,2285,263.4297" style="stroke:#0000FF;stroke-width:1.0;"/><text fill="#000000" font-family="sans-serif" font-size="13" lengthAdjust="spacing" textLength="189" x="2094" y="240.3638">action : setValidFromAndUntil</text><line style="stroke:#0000FF;stroke-width:1.0;" x1="302.7647" x2="302.7647" y1="68.2969" y2="108.2969"/><line style="stroke:#0000FF;stroke-width:1.0;" x1="302.7647" x2="3748.5" y1="108.2969" y2="108.2969"/><line style="stroke:#0000FF;stroke-width:1.0;" x1="3748.5" x2="3748.5" y1="108.2969" y2="263.4297"/><polygon fill="#0000FF" points="3748.5,263.4297,3752.5,254.4297,3748.5,258.4297,3744.5,254.4297,3748.5,263.4297" style="stroke:#0000FF;stroke-width:1.0;"/><text fill="#000000" font-family="sans-serif" font-size="13" lengthAdjust="spacing" textLength="131" x="3615.5" y="240.3638">action : setValidUntil</text><line style="stroke:#008000;stroke-width:1.0;" x1="315.4118" x2="315.4118" y1="68.2969" y2="98.2969"/><line style="stroke:#008000;stroke-width:1.0;" x1="315.4118" x2="4044.5" y1="98.2969" y2="98.2969"/><line style="stroke:#008000;stroke-width:1.0;" x1="4044.5" x2="4044.5" y1="98.2969" y2="263.4297"/><polygon fill="#008000" points="4044.5,263.4297,4048.5,254.4297,4044.5,258.4297,4040.5,254.4297,4044.5,263.4297" style="stroke:#008000;stroke-width:1.0;"/><text fill="#000000" font-family="sans-serif" font-size="13" lengthAdjust="spacing" textLength="46" x="3996.5" y="240.3638">actions</text><rect fill="#DDDDDD" height="79.1875" id="_legend" rx="7.5" ry="7.5" style="stroke:#000000;stroke-width:1.0;" width="161" x="2322.5" y="353.3203"/><text fill="#000000" font-family="sans-serif" font-size="14" font-weight="bold" lengthAdjust="spacing" textLength="5" x="2327.5" y="373.3154"> </text><text fill="#000000" font-family="sans-serif" font-size="14" font-weight="bold" lengthAdjust="spacing" textLength="28" x="2344.5" y="373.3154">line</text><text fill="#000000" filter="url(#bd5dt0jrlrmlc0)" font-family="sans-serif" font-size="14" lengthAdjust="spacing" textLength="12" x="2327.5" y="389.6123">   </text><text fill="#000000" font-family="sans-serif" font-size="14" lengthAdjust="spacing" textLength="77" x="2343.5" y="389.6123">inheritance</text><text fill="#000000" filter="url(#bd5dt0jrlrmlc1)" font-family="sans-serif" font-size="14" lengthAdjust="spacing" textLength="12" x="2327.5" y="405.9092">   </text><text fill="#000000" font-family="sans-serif" font-size="14" lengthAdjust="spacing" textLength="129" x="2343.5" y="405.9092">property reference</text><text fill="#000000" filter="url(#bd5dt0jrlrmlc2)" font-family="sans-serif" font-size="14" lengthAdjust="spacing" textLength="12" x="2327.5" y="422.2061">   </text><text fill="#000000" font-family="sans-serif" font-size="14" lengthAdjust="spacing" textLength="131" x="2343.5" y="422.2061">discriminated class</text><line style="stroke:#000000;stroke-width:1.0;" x1="2327.5" x2="2478.5" y1="360.3203" y2="360.3203"/><line style="stroke:#000000;stroke-width:1.0;" x1="2327.5" x2="2478.5" y1="376.6172" y2="376.6172"/><line style="stroke:#000000;stroke-width:1.0;" x1="2327.5" x2="2478.5" y1="392.9141" y2="392.9141"/><line style="stroke:#000000;stroke-width:1.0;" x1="2327.5" x2="2478.5" y1="409.2109" y2="409.2109"/><line style="stroke:#000000;stroke-width:1.0;" x1="2327.5" x2="2478.5" y1="425.5078" y2="425.5078"/><line style="stroke:#000000;stroke-width:1.0;" x1="2327.5" x2="2327.5" y1="360.3203" y2="425.5078"/><line style="stroke:#000000;stroke-width:1.0;" x1="2339.5" x2="2339.5" y1="360.3203" y2="425.5078"/><line style="stroke:#000000;stroke-width:1.0;" x1="2478.5" x2="2478.5" y1="360.3203" y2="425.5078"/><!--MD5=[60d05ef080e0da250ccda22a06f330db]
@startuml
!pragma layout elk
hide empty fields
hide empty methods
legend
|= |= line |
|<back:black>   </back>| inheritance |
|<back:green>   </back>| property reference |
|<back:blue>   </back>| discriminated class |
endlegend
interface CartDiscountUpdateAction [[CartDiscountUpdateAction.svg]]  {
    action: String
}


interface CartDiscountChangeCartPredicateAction [[CartDiscountChangeCartPredicateAction.svg]]  {
    action: String
    cartPredicate: String
}
interface CartDiscountChangeIsActiveAction [[CartDiscountChangeIsActiveAction.svg]]  {
    action: String
    isActive: Boolean
}
interface CartDiscountChangeNameAction [[CartDiscountChangeNameAction.svg]]  {
    action: String
    name: [[LocalizedString.svg LocalizedString]]
}
interface CartDiscountChangeRequiresDiscountCodeAction [[CartDiscountChangeRequiresDiscountCodeAction.svg]]  {
    action: String
    requiresDiscountCode: Boolean
}
interface CartDiscountChangeSortOrderAction [[CartDiscountChangeSortOrderAction.svg]]  {
    action: String
    sortOrder: String
}
interface CartDiscountChangeStackingModeAction [[CartDiscountChangeStackingModeAction.svg]]  {
    action: String
    stackingMode: [[StackingMode.svg StackingMode]]
}
interface CartDiscountChangeTargetAction [[CartDiscountChangeTargetAction.svg]]  {
    action: String
    target: [[CartDiscountTarget.svg CartDiscountTarget]]
}
interface CartDiscountChangeValueAction [[CartDiscountChangeValueAction.svg]]  {
    action: String
    value: [[CartDiscountValueDraft.svg CartDiscountValueDraft]]
}
interface CartDiscountSetCustomFieldAction [[CartDiscountSetCustomFieldAction.svg]]  {
    action: String
    name: String
    value: [[Object.svg Object]]
}
interface CartDiscountSetCustomTypeAction [[CartDiscountSetCustomTypeAction.svg]]  {
    action: String
    type: [[TypeResourceIdentifier.svg TypeResourceIdentifier]]
    fields: [[FieldContainer.svg FieldContainer]]
}
interface CartDiscountSetDescriptionAction [[CartDiscountSetDescriptionAction.svg]]  {
    action: String
    description: [[LocalizedString.svg LocalizedString]]
}
interface CartDiscountSetKeyAction [[CartDiscountSetKeyAction.svg]]  {
    action: String
    key: String
}
interface CartDiscountSetValidFromAction [[CartDiscountSetValidFromAction.svg]]  {
    action: String
    validFrom: DateTime
}
interface CartDiscountSetValidFromAndUntilAction [[CartDiscountSetValidFromAndUntilAction.svg]]  {
    action: String
    validFrom: DateTime
    validUntil: DateTime
}
interface CartDiscountSetValidUntilAction [[CartDiscountSetValidUntilAction.svg]]  {
    action: String
    validUntil: DateTime
}
interface CartDiscountUpdate [[CartDiscountUpdate.svg]]  {
    version: Long
    actions: [[CartDiscountUpdateAction.svg List<CartDiscountUpdateAction>]]
}
CartDiscountUpdateAction - -> CartDiscountChangeCartPredicateAction #blue;text:blue : "action : changeCartPredicate"
CartDiscountUpdateAction - -> CartDiscountChangeIsActiveAction #blue;text:blue : "action : changeIsActive"
CartDiscountUpdateAction - -> CartDiscountChangeNameAction #blue;text:blue : "action : changeName"
CartDiscountUpdateAction - -> CartDiscountChangeRequiresDiscountCodeAction #blue;text:blue : "action : changeRequiresDiscountCode"
CartDiscountUpdateAction - -> CartDiscountChangeSortOrderAction #blue;text:blue : "action : changeSortOrder"
CartDiscountUpdateAction - -> CartDiscountChangeStackingModeAction #blue;text:blue : "action : changeStackingMode"
CartDiscountUpdateAction - -> CartDiscountChangeTargetAction #blue;text:blue : "action : changeTarget"
CartDiscountUpdateAction - -> CartDiscountChangeValueAction #blue;text:blue : "action : changeValue"
CartDiscountUpdateAction - -> CartDiscountSetCustomFieldAction #blue;text:blue : "action : setCustomField"
CartDiscountUpdateAction - -> CartDiscountSetCustomTypeAction #blue;text:blue : "action : setCustomType"
CartDiscountUpdateAction - -> CartDiscountSetDescriptionAction #blue;text:blue : "action : setDescription"
CartDiscountUpdateAction - -> CartDiscountSetKeyAction #blue;text:blue : "action : setKey"
CartDiscountUpdateAction - -> CartDiscountSetValidFromAction #blue;text:blue : "action : setValidFrom"
CartDiscountUpdateAction - -> CartDiscountSetValidFromAndUntilAction #blue;text:blue : "action : setValidFromAndUntil"
CartDiscountUpdateAction - -> CartDiscountSetValidUntilAction #blue;text:blue : "action : setValidUntil"
CartDiscountUpdateAction - -> CartDiscountUpdate #green;text:green : "actions"
@enduml

PlantUML version 1.2022.13(Sat Nov 19 13:22:17 UTC 2022)
(GPL source distribution)
Java Runtime: OpenJDK Runtime Environment
JVM: OpenJDK 64-Bit Server VM
Default Encoding: UTF-8
Language: en
Country: null
--></g></svg>
