<?xml version="1.0" encoding="UTF-8" standalone="no"?><svg xmlns="http://www.w3.org/2000/svg" xmlns:xlink="http://www.w3.org/1999/xlink" contentStyleType="text/css" height="244px" preserveAspectRatio="none" style="width:276px;height:244px;background:#FFFFFF;" version="1.1" viewBox="0 0 276 244" width="276px" zoomAndPan="magnify"><defs><filter height="1" id="b8ldmryeq9c7p0" width="1" x="0" y="0"><feFlood flood-color="#000000" result="flood"/><feComposite in="SourceGraphic" in2="flood" operator="over"/></filter><filter height="1" id="b8ldmryeq9c7p1" width="1" x="0" y="0"><feFlood flood-color="#008000" result="flood"/><feComposite in="SourceGraphic" in2="flood" operator="over"/></filter><filter height="1" id="b8ldmryeq9c7p2" width="1" x="0" y="0"><feFlood flood-color="#0000FF" result="flood"/><feComposite in="SourceGraphic" in2="flood" operator="over"/></filter></defs><g><!--MD5=[4bd078b555b618ee9d78bdf6bc217e52]
class CartDiscountShippingCostTarget--><a href="CartDiscountShippingCostTarget.svg" target="_top" title="CartDiscountShippingCostTarget.svg" xlink:actuate="onRequest" xlink:href="CartDiscountShippingCostTarget.svg" xlink:show="new" xlink:title="CartDiscountShippingCostTarget.svg" xlink:type="simple"><g id="elem_CartDiscountShippingCostTarget"><rect codeLine="10" fill="#F1F1F1" height="56.2969" id="CartDiscountShippingCostTarget" rx="2.5" ry="2.5" style="stroke:#181818;stroke-width:0.5;" width="257" x="12" y="88.2969"/><ellipse cx="27" cy="104.2969" fill="#B4A7E5" rx="11" ry="11" style="stroke:#181818;stroke-width:1.0;"/><path d="M22.9219,100.0625 L22.9219,97.9063 L30.3125,97.9063 L30.3125,100.0625 L27.8438,100.0625 L27.8438,108.1406 L30.3125,108.1406 L30.3125,110.2969 L22.9219,110.2969 L22.9219,108.1406 L25.3906,108.1406 L25.3906,100.0625 L22.9219,100.0625 Z " fill="#000000"/><text fill="#000000" font-family="sans-serif" font-size="14" font-style="italic" lengthAdjust="spacing" textLength="225" x="41" y="109.1436">CartDiscountShippingCostTarget</text><line style="stroke:#181818;stroke-width:0.5;" x1="13" x2="268" y1="120.2969" y2="120.2969"/><text fill="#000000" font-family="sans-serif" font-size="14" lengthAdjust="spacing" textLength="79" x="18" y="137.292">type: String</text></g></a><!--MD5=[4a71b777be72a8061d94bdb64437447d]
class CartDiscountTarget--><a href="CartDiscountTarget.svg" target="_top" title="CartDiscountTarget.svg" xlink:actuate="onRequest" xlink:href="CartDiscountTarget.svg" xlink:show="new" xlink:title="CartDiscountTarget.svg" xlink:type="simple"><g id="elem_CartDiscountTarget"><rect codeLine="13" fill="#F1F1F1" height="56.2969" id="CartDiscountTarget" rx="2.5" ry="2.5" style="stroke:#181818;stroke-width:0.5;" width="166" x="57.5" y="12"/><ellipse cx="72.5" cy="28" fill="#B4A7E5" rx="11" ry="11" style="stroke:#181818;stroke-width:1.0;"/><path d="M68.4219,23.7656 L68.4219,21.6094 L75.8125,21.6094 L75.8125,23.7656 L73.3438,23.7656 L73.3438,31.8438 L75.8125,31.8438 L75.8125,34 L68.4219,34 L68.4219,31.8438 L70.8906,31.8438 L70.8906,23.7656 L68.4219,23.7656 Z " fill="#000000"/><text fill="#000000" font-family="sans-serif" font-size="14" font-style="italic" lengthAdjust="spacing" textLength="134" x="86.5" y="32.8467">CartDiscountTarget</text><line style="stroke:#181818;stroke-width:0.5;" x1="58.5" x2="222.5" y1="44" y2="44"/><text fill="#000000" font-family="sans-serif" font-size="14" lengthAdjust="spacing" textLength="79" x="63.5" y="60.9951">type: String</text></g></a><line style="stroke:#181818;stroke-width:1.0;" x1="140.5" x2="140.5" y1="68.2969" y2="88.2969"/><polygon fill="#FFFFFF" points="140.5,68.2969,133.5,87.2969,147.5,87.2969,140.5,68.2969" style="stroke:#181818;stroke-width:1.0;"/><rect fill="#DDDDDD" height="79.1875" id="_legend" rx="7.5" ry="7.5" style="stroke:#000000;stroke-width:1.0;" width="161" x="48" y="145.5938"/><text fill="#000000" font-family="sans-serif" font-size="14" font-weight="bold" lengthAdjust="spacing" textLength="5" x="53" y="165.5889"> </text><text fill="#000000" font-family="sans-serif" font-size="14" font-weight="bold" lengthAdjust="spacing" textLength="28" x="70" y="165.5889">line</text><text fill="#000000" filter="url(#b8ldmryeq9c7p0)" font-family="sans-serif" font-size="14" lengthAdjust="spacing" textLength="12" x="53" y="181.8857">   </text><text fill="#000000" font-family="sans-serif" font-size="14" lengthAdjust="spacing" textLength="77" x="69" y="181.8857">inheritance</text><text fill="#000000" filter="url(#b8ldmryeq9c7p1)" font-family="sans-serif" font-size="14" lengthAdjust="spacing" textLength="12" x="53" y="198.1826">   </text><text fill="#000000" font-family="sans-serif" font-size="14" lengthAdjust="spacing" textLength="129" x="69" y="198.1826">property reference</text><text fill="#000000" filter="url(#b8ldmryeq9c7p2)" font-family="sans-serif" font-size="14" lengthAdjust="spacing" textLength="12" x="53" y="214.4795">   </text><text fill="#000000" font-family="sans-serif" font-size="14" lengthAdjust="spacing" textLength="131" x="69" y="214.4795">discriminated class</text><line style="stroke:#000000;stroke-width:1.0;" x1="53" x2="204" y1="152.5938" y2="152.5938"/><line style="stroke:#000000;stroke-width:1.0;" x1="53" x2="204" y1="168.8906" y2="168.8906"/><line style="stroke:#000000;stroke-width:1.0;" x1="53" x2="204" y1="185.1875" y2="185.1875"/><line style="stroke:#000000;stroke-width:1.0;" x1="53" x2="204" y1="201.4844" y2="201.4844"/><line style="stroke:#000000;stroke-width:1.0;" x1="53" x2="204" y1="217.7813" y2="217.7813"/><line style="stroke:#000000;stroke-width:1.0;" x1="53" x2="53" y1="152.5938" y2="217.7813"/><line style="stroke:#000000;stroke-width:1.0;" x1="65" x2="65" y1="152.5938" y2="217.7813"/><line style="stroke:#000000;stroke-width:1.0;" x1="204" x2="204" y1="152.5938" y2="217.7813"/><!--MD5=[b34af3129d44986795768466efe727de]
@startuml
!pragma layout elk
hide empty fields
hide empty methods
legend
|= |= line |
|<back:black>   </back>| inheritance |
|<back:green>   </back>| property reference |
|<back:blue>   </back>| discriminated class |
endlegend
interface CartDiscountShippingCostTarget [[CartDiscountShippingCostTarget.svg]] extends CartDiscountTarget {
    type: String
}
interface CartDiscountTarget [[CartDiscountTarget.svg]]  {
    type: String
}





@enduml

PlantUML version 1.2022.13(Sat Nov 19 13:22:17 UTC 2022)
(GPL source distribution)
Java Runtime: OpenJDK Runtime Environment
JVM: OpenJDK 64-Bit Server VM
Default Encoding: UTF-8
Language: en
Country: null
--></g></svg>
