<?xml version="1.0" encoding="UTF-8" standalone="no"?><svg xmlns="http://www.w3.org/2000/svg" xmlns:xlink="http://www.w3.org/1999/xlink" contentStyleType="text/css" height="277px" preserveAspectRatio="none" style="width:245px;height:277px;background:#FFFFFF;" version="1.1" viewBox="0 0 245 277" width="245px" zoomAndPan="magnify"><defs><filter height="1" id="b1v5o7iowgl6xe0" width="1" x="0" y="0"><feFlood flood-color="#000000" result="flood"/><feComposite in="SourceGraphic" in2="flood" operator="over"/></filter><filter height="1" id="b1v5o7iowgl6xe1" width="1" x="0" y="0"><feFlood flood-color="#008000" result="flood"/><feComposite in="SourceGraphic" in2="flood" operator="over"/></filter><filter height="1" id="b1v5o7iowgl6xe2" width="1" x="0" y="0"><feFlood flood-color="#0000FF" result="flood"/><feComposite in="SourceGraphic" in2="flood" operator="over"/></filter></defs><g><!--MD5=[5093308617e42248ca6f5c7ebe0e44af]
class CategorySetAssetKeyAction--><a href="CategorySetAssetKeyAction.svg" target="_top" title="CategorySetAssetKeyAction.svg" xlink:actuate="onRequest" xlink:href="CategorySetAssetKeyAction.svg" xlink:show="new" xlink:title="CategorySetAssetKeyAction.svg" xlink:type="simple"><g id="elem_CategorySetAssetKeyAction"><rect codeLine="10" fill="#F1F1F1" height="88.8906" id="CategorySetAssetKeyAction" rx="2.5" ry="2.5" style="stroke:#181818;stroke-width:0.5;" width="226" x="12" y="88.2969"/><ellipse cx="27" cy="104.2969" fill="#B4A7E5" rx="11" ry="11" style="stroke:#181818;stroke-width:1.0;"/><path d="M22.9219,100.0625 L22.9219,97.9063 L30.3125,97.9063 L30.3125,100.0625 L27.8438,100.0625 L27.8438,108.1406 L30.3125,108.1406 L30.3125,110.2969 L22.9219,110.2969 L22.9219,108.1406 L25.3906,108.1406 L25.3906,100.0625 L22.9219,100.0625 Z " fill="#000000"/><text fill="#000000" font-family="sans-serif" font-size="14" font-style="italic" lengthAdjust="spacing" textLength="194" x="41" y="109.1436">CategorySetAssetKeyAction</text><line style="stroke:#181818;stroke-width:0.5;" x1="13" x2="237" y1="120.2969" y2="120.2969"/><text fill="#000000" font-family="sans-serif" font-size="14" lengthAdjust="spacing" textLength="91" x="18" y="137.292">action: String</text><text fill="#000000" font-family="sans-serif" font-size="14" lengthAdjust="spacing" textLength="99" x="18" y="153.5889">assetId: String</text><text fill="#000000" font-family="sans-serif" font-size="14" lengthAdjust="spacing" textLength="112" x="18" y="169.8857">assetKey: String</text></g></a><!--MD5=[75bcad3b1cacac5b3c378f5141fde33c]
class CategoryUpdateAction--><a href="CategoryUpdateAction.svg" target="_top" title="CategoryUpdateAction.svg" xlink:actuate="onRequest" xlink:href="CategoryUpdateAction.svg" xlink:show="new" xlink:title="CategoryUpdateAction.svg" xlink:type="simple"><g id="elem_CategoryUpdateAction"><rect codeLine="15" fill="#F1F1F1" height="56.2969" id="CategoryUpdateAction" rx="2.5" ry="2.5" style="stroke:#181818;stroke-width:0.5;" width="189" x="30.5" y="12"/><ellipse cx="45.5" cy="28" fill="#B4A7E5" rx="11" ry="11" style="stroke:#181818;stroke-width:1.0;"/><path d="M41.4219,23.7656 L41.4219,21.6094 L48.8125,21.6094 L48.8125,23.7656 L46.3438,23.7656 L46.3438,31.8438 L48.8125,31.8438 L48.8125,34 L41.4219,34 L41.4219,31.8438 L43.8906,31.8438 L43.8906,23.7656 L41.4219,23.7656 Z " fill="#000000"/><text fill="#000000" font-family="sans-serif" font-size="14" font-style="italic" lengthAdjust="spacing" textLength="157" x="59.5" y="32.8467">CategoryUpdateAction</text><line style="stroke:#181818;stroke-width:0.5;" x1="31.5" x2="218.5" y1="44" y2="44"/><text fill="#000000" font-family="sans-serif" font-size="14" lengthAdjust="spacing" textLength="91" x="36.5" y="60.9951">action: String</text></g></a><line style="stroke:#181818;stroke-width:1.0;" x1="125" x2="125" y1="68.2969" y2="88.2969"/><polygon fill="#FFFFFF" points="125,68.2969,118,87.2969,132,87.2969,125,68.2969" style="stroke:#181818;stroke-width:1.0;"/><rect fill="#DDDDDD" height="79.1875" id="_legend" rx="7.5" ry="7.5" style="stroke:#000000;stroke-width:1.0;" width="161" x="32.5" y="178.1875"/><text fill="#000000" font-family="sans-serif" font-size="14" font-weight="bold" lengthAdjust="spacing" textLength="5" x="37.5" y="198.1826"> </text><text fill="#000000" font-family="sans-serif" font-size="14" font-weight="bold" lengthAdjust="spacing" textLength="28" x="54.5" y="198.1826">line</text><text fill="#000000" filter="url(#b1v5o7iowgl6xe0)" font-family="sans-serif" font-size="14" lengthAdjust="spacing" textLength="12" x="37.5" y="214.4795">   </text><text fill="#000000" font-family="sans-serif" font-size="14" lengthAdjust="spacing" textLength="77" x="53.5" y="214.4795">inheritance</text><text fill="#000000" filter="url(#b1v5o7iowgl6xe1)" font-family="sans-serif" font-size="14" lengthAdjust="spacing" textLength="12" x="37.5" y="230.7764">   </text><text fill="#000000" font-family="sans-serif" font-size="14" lengthAdjust="spacing" textLength="129" x="53.5" y="230.7764">property reference</text><text fill="#000000" filter="url(#b1v5o7iowgl6xe2)" font-family="sans-serif" font-size="14" lengthAdjust="spacing" textLength="12" x="37.5" y="247.0732">   </text><text fill="#000000" font-family="sans-serif" font-size="14" lengthAdjust="spacing" textLength="131" x="53.5" y="247.0732">discriminated class</text><line style="stroke:#000000;stroke-width:1.0;" x1="37.5" x2="188.5" y1="185.1875" y2="185.1875"/><line style="stroke:#000000;stroke-width:1.0;" x1="37.5" x2="188.5" y1="201.4844" y2="201.4844"/><line style="stroke:#000000;stroke-width:1.0;" x1="37.5" x2="188.5" y1="217.7813" y2="217.7813"/><line style="stroke:#000000;stroke-width:1.0;" x1="37.5" x2="188.5" y1="234.0781" y2="234.0781"/><line style="stroke:#000000;stroke-width:1.0;" x1="37.5" x2="188.5" y1="250.375" y2="250.375"/><line style="stroke:#000000;stroke-width:1.0;" x1="37.5" x2="37.5" y1="185.1875" y2="250.375"/><line style="stroke:#000000;stroke-width:1.0;" x1="49.5" x2="49.5" y1="185.1875" y2="250.375"/><line style="stroke:#000000;stroke-width:1.0;" x1="188.5" x2="188.5" y1="185.1875" y2="250.375"/><!--MD5=[246134e7ce5cdfe16b4d1b73c9448c4e]
@startuml
!pragma layout elk
hide empty fields
hide empty methods
legend
|= |= line |
|<back:black>   </back>| inheritance |
|<back:green>   </back>| property reference |
|<back:blue>   </back>| discriminated class |
endlegend
interface CategorySetAssetKeyAction [[CategorySetAssetKeyAction.svg]] extends CategoryUpdateAction {
    action: String
    assetId: String
    assetKey: String
}
interface CategoryUpdateAction [[CategoryUpdateAction.svg]]  {
    action: String
}





@enduml

PlantUML version 1.2022.13(Sat Nov 19 13:22:17 UTC 2022)
(GPL source distribution)
Java Runtime: OpenJDK Runtime Environment
JVM: OpenJDK 64-Bit Server VM
Default Encoding: UTF-8
Language: en
Country: null
--></g></svg>
