<?xml version="1.0" encoding="UTF-8" standalone="no"?><svg xmlns="http://www.w3.org/2000/svg" xmlns:xlink="http://www.w3.org/1999/xlink" contentStyleType="text/css" height="422px" preserveAspectRatio="none" style="width:3477px;height:422px;background:#FFFFFF;" version="1.1" viewBox="0 0 3477 422" width="3477px" zoomAndPan="magnify"><defs><filter height="1" id="b1mmbnkhqjzr9z0" width="1" x="0" y="0"><feFlood flood-color="#000000" result="flood"/><feComposite in="SourceGraphic" in2="flood" operator="over"/></filter><filter height="1" id="b1mmbnkhqjzr9z1" width="1" x="0" y="0"><feFlood flood-color="#008000" result="flood"/><feComposite in="SourceGraphic" in2="flood" operator="over"/></filter><filter height="1" id="b1mmbnkhqjzr9z2" width="1" x="0" y="0"><feFlood flood-color="#0000FF" result="flood"/><feComposite in="SourceGraphic" in2="flood" operator="over"/></filter></defs><g><!--MD5=[117ce24bad95ac456fe36564b0e85e82]
class ChannelUpdateAction--><a href="ChannelUpdateAction.svg" target="_top" title="ChannelUpdateAction.svg" xlink:actuate="onRequest" xlink:href="ChannelUpdateAction.svg" xlink:show="new" xlink:title="ChannelUpdateAction.svg" xlink:type="simple"><g id="elem_ChannelUpdateAction"><rect codeLine="10" fill="#F1F1F1" height="56.2969" id="ChannelUpdateAction" rx="2.5" ry="2.5" style="stroke:#181818;stroke-width:0.5;" width="183" x="121.9286" y="12"/><ellipse cx="136.9286" cy="28" fill="#B4A7E5" rx="11" ry="11" style="stroke:#181818;stroke-width:1.0;"/><path d="M132.8504,23.7656 L132.8504,21.6094 L140.2411,21.6094 L140.2411,23.7656 L137.7723,23.7656 L137.7723,31.8438 L140.2411,31.8438 L140.2411,34 L132.8504,34 L132.8504,31.8438 L135.3192,31.8438 L135.3192,23.7656 L132.8504,23.7656 Z " fill="#000000"/><text fill="#000000" font-family="sans-serif" font-size="14" font-style="italic" lengthAdjust="spacing" textLength="151" x="150.9286" y="32.8467">ChannelUpdateAction</text><line style="stroke:#181818;stroke-width:0.5;" x1="122.9286" x2="303.9286" y1="44" y2="44"/><text fill="#000000" font-family="sans-serif" font-size="14" lengthAdjust="spacing" textLength="91" x="127.9286" y="60.9951">action: String</text></g></a><!--MD5=[c466601a0ef762d14792fd513e35cc54]
class ChannelAddRolesAction--><a href="ChannelAddRolesAction.svg" target="_top" title="ChannelAddRolesAction.svg" xlink:actuate="onRequest" xlink:href="ChannelAddRolesAction.svg" xlink:show="new" xlink:title="ChannelAddRolesAction.svg" xlink:type="simple"><g id="elem_ChannelAddRolesAction"><rect codeLine="15" fill="#F1F1F1" height="72.5938" id="ChannelAddRolesAction" rx="2.5" ry="2.5" style="stroke:#181818;stroke-width:0.5;" width="230" x="2955.5" y="233.4297"/><ellipse cx="2984.45" cy="249.4297" fill="#B4A7E5" rx="11" ry="11" style="stroke:#181818;stroke-width:1.0;"/><path d="M2980.3719,245.1953 L2980.3719,243.0391 L2987.7625,243.0391 L2987.7625,245.1953 L2985.2938,245.1953 L2985.2938,253.2734 L2987.7625,253.2734 L2987.7625,255.4297 L2980.3719,255.4297 L2980.3719,253.2734 L2982.8406,253.2734 L2982.8406,245.1953 L2980.3719,245.1953 Z " fill="#000000"/><text fill="#000000" font-family="sans-serif" font-size="14" font-style="italic" lengthAdjust="spacing" textLength="167" x="3001.55" y="254.2764">ChannelAddRolesAction</text><line style="stroke:#181818;stroke-width:0.5;" x1="2956.5" x2="3184.5" y1="265.4297" y2="265.4297"/><text fill="#000000" font-family="sans-serif" font-size="14" lengthAdjust="spacing" textLength="91" x="2961.5" y="282.4248">action: String</text><text fill="#000000" font-family="sans-serif" font-size="14" lengthAdjust="spacing" textLength="39" x="2961.5" y="298.7217">roles:</text><a href="ChannelRoleEnum.svg" target="_top" title="ChannelRoleEnum.svg" xlink:actuate="onRequest" xlink:href="ChannelRoleEnum.svg" xlink:show="new" xlink:title="ChannelRoleEnum.svg" xlink:type="simple"><text fill="#0000FF" font-family="sans-serif" font-size="14" lengthAdjust="spacing" text-decoration="underline" textLength="175" x="3004.5" y="298.7217">List&lt;ChannelRoleEnum&gt;</text></a></g></a><!--MD5=[37407b59d3cd087edcffe06c31f99caf]
class ChannelChangeDescriptionAction--><a href="ChannelChangeDescriptionAction.svg" target="_top" title="ChannelChangeDescriptionAction.svg" xlink:actuate="onRequest" xlink:href="ChannelChangeDescriptionAction.svg" xlink:show="new" xlink:title="ChannelChangeDescriptionAction.svg" xlink:type="simple"><g id="elem_ChannelChangeDescriptionAction"><rect codeLine="19" fill="#F1F1F1" height="72.5938" id="ChannelChangeDescriptionAction" rx="2.5" ry="2.5" style="stroke:#181818;stroke-width:0.5;" width="265" x="3205.5" y="233.4297"/><ellipse cx="3220.5" cy="249.4297" fill="#B4A7E5" rx="11" ry="11" style="stroke:#181818;stroke-width:1.0;"/><path d="M3216.4219,245.1953 L3216.4219,243.0391 L3223.8125,243.0391 L3223.8125,245.1953 L3221.3438,245.1953 L3221.3438,253.2734 L3223.8125,253.2734 L3223.8125,255.4297 L3216.4219,255.4297 L3216.4219,253.2734 L3218.8906,253.2734 L3218.8906,245.1953 L3216.4219,245.1953 Z " fill="#000000"/><text fill="#000000" font-family="sans-serif" font-size="14" font-style="italic" lengthAdjust="spacing" textLength="233" x="3234.5" y="254.2764">ChannelChangeDescriptionAction</text><line style="stroke:#181818;stroke-width:0.5;" x1="3206.5" x2="3469.5" y1="265.4297" y2="265.4297"/><text fill="#000000" font-family="sans-serif" font-size="14" lengthAdjust="spacing" textLength="91" x="3211.5" y="282.4248">action: String</text><text fill="#000000" font-family="sans-serif" font-size="14" lengthAdjust="spacing" textLength="82" x="3211.5" y="298.7217">description:</text><a href="LocalizedString.svg" target="_top" title="LocalizedString.svg" xlink:actuate="onRequest" xlink:href="LocalizedString.svg" xlink:show="new" xlink:title="LocalizedString.svg" xlink:type="simple"><text fill="#0000FF" font-family="sans-serif" font-size="14" lengthAdjust="spacing" text-decoration="underline" textLength="104" x="3297.5" y="298.7217">LocalizedString</text></a></g></a><!--MD5=[9f4d12070c49594cb2b0e8e5567efa1b]
class ChannelChangeKeyAction--><a href="ChannelChangeKeyAction.svg" target="_top" title="ChannelChangeKeyAction.svg" xlink:actuate="onRequest" xlink:href="ChannelChangeKeyAction.svg" xlink:show="new" xlink:title="ChannelChangeKeyAction.svg" xlink:type="simple"><g id="elem_ChannelChangeKeyAction"><rect codeLine="23" fill="#F1F1F1" height="72.5938" id="ChannelChangeKeyAction" rx="2.5" ry="2.5" style="stroke:#181818;stroke-width:0.5;" width="213" x="28.5" y="233.4297"/><ellipse cx="43.5" cy="249.4297" fill="#B4A7E5" rx="11" ry="11" style="stroke:#181818;stroke-width:1.0;"/><path d="M39.4219,245.1953 L39.4219,243.0391 L46.8125,243.0391 L46.8125,245.1953 L44.3438,245.1953 L44.3438,253.2734 L46.8125,253.2734 L46.8125,255.4297 L39.4219,255.4297 L39.4219,253.2734 L41.8906,253.2734 L41.8906,245.1953 L39.4219,245.1953 Z " fill="#000000"/><text fill="#000000" font-family="sans-serif" font-size="14" font-style="italic" lengthAdjust="spacing" textLength="181" x="57.5" y="254.2764">ChannelChangeKeyAction</text><line style="stroke:#181818;stroke-width:0.5;" x1="29.5" x2="240.5" y1="265.4297" y2="265.4297"/><text fill="#000000" font-family="sans-serif" font-size="14" lengthAdjust="spacing" textLength="91" x="34.5" y="282.4248">action: String</text><text fill="#000000" font-family="sans-serif" font-size="14" lengthAdjust="spacing" textLength="73" x="34.5" y="298.7217">key: String</text></g></a><!--MD5=[d3f6c2bc6316cb85a702e270c3b756b5]
class ChannelChangeNameAction--><a href="ChannelChangeNameAction.svg" target="_top" title="ChannelChangeNameAction.svg" xlink:actuate="onRequest" xlink:href="ChannelChangeNameAction.svg" xlink:show="new" xlink:title="ChannelChangeNameAction.svg" xlink:type="simple"><g id="elem_ChannelChangeNameAction"><rect codeLine="27" fill="#F1F1F1" height="72.5938" id="ChannelChangeNameAction" rx="2.5" ry="2.5" style="stroke:#181818;stroke-width:0.5;" width="228" x="1109.5" y="233.4297"/><ellipse cx="1124.5" cy="249.4297" fill="#B4A7E5" rx="11" ry="11" style="stroke:#181818;stroke-width:1.0;"/><path d="M1120.4219,245.1953 L1120.4219,243.0391 L1127.8125,243.0391 L1127.8125,245.1953 L1125.3438,245.1953 L1125.3438,253.2734 L1127.8125,253.2734 L1127.8125,255.4297 L1120.4219,255.4297 L1120.4219,253.2734 L1122.8906,253.2734 L1122.8906,245.1953 L1120.4219,245.1953 Z " fill="#000000"/><text fill="#000000" font-family="sans-serif" font-size="14" font-style="italic" lengthAdjust="spacing" textLength="196" x="1138.5" y="254.2764">ChannelChangeNameAction</text><line style="stroke:#181818;stroke-width:0.5;" x1="1110.5" x2="1336.5" y1="265.4297" y2="265.4297"/><text fill="#000000" font-family="sans-serif" font-size="14" lengthAdjust="spacing" textLength="91" x="1115.5" y="282.4248">action: String</text><text fill="#000000" font-family="sans-serif" font-size="14" lengthAdjust="spacing" textLength="44" x="1115.5" y="298.7217">name:</text><a href="LocalizedString.svg" target="_top" title="LocalizedString.svg" xlink:actuate="onRequest" xlink:href="LocalizedString.svg" xlink:show="new" xlink:title="LocalizedString.svg" xlink:type="simple"><text fill="#0000FF" font-family="sans-serif" font-size="14" lengthAdjust="spacing" text-decoration="underline" textLength="104" x="1163.5" y="298.7217">LocalizedString</text></a></g></a><!--MD5=[fb7b39c70a78a226e19bc011929d1edc]
class ChannelRemoveRolesAction--><a href="ChannelRemoveRolesAction.svg" target="_top" title="ChannelRemoveRolesAction.svg" xlink:actuate="onRequest" xlink:href="ChannelRemoveRolesAction.svg" xlink:show="new" xlink:title="ChannelRemoveRolesAction.svg" xlink:type="simple"><g id="elem_ChannelRemoveRolesAction"><rect codeLine="31" fill="#F1F1F1" height="72.5938" id="ChannelRemoveRolesAction" rx="2.5" ry="2.5" style="stroke:#181818;stroke-width:0.5;" width="230" x="2473.5" y="233.4297"/><ellipse cx="2488.95" cy="249.4297" fill="#B4A7E5" rx="11" ry="11" style="stroke:#181818;stroke-width:1.0;"/><path d="M2484.8719,245.1953 L2484.8719,243.0391 L2492.2625,243.0391 L2492.2625,245.1953 L2489.7938,245.1953 L2489.7938,253.2734 L2492.2625,253.2734 L2492.2625,255.4297 L2484.8719,255.4297 L2484.8719,253.2734 L2487.3406,253.2734 L2487.3406,245.1953 L2484.8719,245.1953 Z " fill="#000000"/><text fill="#000000" font-family="sans-serif" font-size="14" font-style="italic" lengthAdjust="spacing" textLength="197" x="2503.05" y="254.2764">ChannelRemoveRolesAction</text><line style="stroke:#181818;stroke-width:0.5;" x1="2474.5" x2="2702.5" y1="265.4297" y2="265.4297"/><text fill="#000000" font-family="sans-serif" font-size="14" lengthAdjust="spacing" textLength="91" x="2479.5" y="282.4248">action: String</text><text fill="#000000" font-family="sans-serif" font-size="14" lengthAdjust="spacing" textLength="39" x="2479.5" y="298.7217">roles:</text><a href="ChannelRoleEnum.svg" target="_top" title="ChannelRoleEnum.svg" xlink:actuate="onRequest" xlink:href="ChannelRoleEnum.svg" xlink:show="new" xlink:title="ChannelRoleEnum.svg" xlink:type="simple"><text fill="#0000FF" font-family="sans-serif" font-size="14" lengthAdjust="spacing" text-decoration="underline" textLength="175" x="2522.5" y="298.7217">List&lt;ChannelRoleEnum&gt;</text></a></g></a><!--MD5=[90b7bc34fbd3b9a1900110fa1b4631fd]
class ChannelSetAddressAction--><a href="ChannelSetAddressAction.svg" target="_top" title="ChannelSetAddressAction.svg" xlink:actuate="onRequest" xlink:href="ChannelSetAddressAction.svg" xlink:show="new" xlink:title="ChannelSetAddressAction.svg" xlink:type="simple"><g id="elem_ChannelSetAddressAction"><rect codeLine="35" fill="#F1F1F1" height="72.5938" id="ChannelSetAddressAction" rx="2.5" ry="2.5" style="stroke:#181818;stroke-width:0.5;" width="212" x="2723.5" y="233.4297"/><ellipse cx="2738.5" cy="249.4297" fill="#B4A7E5" rx="11" ry="11" style="stroke:#181818;stroke-width:1.0;"/><path d="M2734.4219,245.1953 L2734.4219,243.0391 L2741.8125,243.0391 L2741.8125,245.1953 L2739.3438,245.1953 L2739.3438,253.2734 L2741.8125,253.2734 L2741.8125,255.4297 L2734.4219,255.4297 L2734.4219,253.2734 L2736.8906,253.2734 L2736.8906,245.1953 L2734.4219,245.1953 Z " fill="#000000"/><text fill="#000000" font-family="sans-serif" font-size="14" font-style="italic" lengthAdjust="spacing" textLength="180" x="2752.5" y="254.2764">ChannelSetAddressAction</text><line style="stroke:#181818;stroke-width:0.5;" x1="2724.5" x2="2934.5" y1="265.4297" y2="265.4297"/><text fill="#000000" font-family="sans-serif" font-size="14" lengthAdjust="spacing" textLength="91" x="2729.5" y="282.4248">action: String</text><text fill="#000000" font-family="sans-serif" font-size="14" lengthAdjust="spacing" textLength="61" x="2729.5" y="298.7217">address:</text><a href="AddressDraft.svg" target="_top" title="AddressDraft.svg" xlink:actuate="onRequest" xlink:href="AddressDraft.svg" xlink:show="new" xlink:title="AddressDraft.svg" xlink:type="simple"><text fill="#0000FF" font-family="sans-serif" font-size="14" lengthAdjust="spacing" text-decoration="underline" textLength="90" x="2794.5" y="298.7217">AddressDraft</text></a></g></a><!--MD5=[1b6345676b274f976bc7bfe723399355]
class ChannelSetAddressCustomFieldAction--><a href="ChannelSetAddressCustomFieldAction.svg" target="_top" title="ChannelSetAddressCustomFieldAction.svg" xlink:actuate="onRequest" xlink:href="ChannelSetAddressCustomFieldAction.svg" xlink:show="new" xlink:title="ChannelSetAddressCustomFieldAction.svg" xlink:type="simple"><g id="elem_ChannelSetAddressCustomFieldAction"><rect codeLine="39" fill="#F1F1F1" height="88.8906" id="ChannelSetAddressCustomFieldAction" rx="2.5" ry="2.5" style="stroke:#181818;stroke-width:0.5;" width="297" x="2156.5" y="233.4297"/><ellipse cx="2171.5" cy="249.4297" fill="#B4A7E5" rx="11" ry="11" style="stroke:#181818;stroke-width:1.0;"/><path d="M2167.4219,245.1953 L2167.4219,243.0391 L2174.8125,243.0391 L2174.8125,245.1953 L2172.3438,245.1953 L2172.3438,253.2734 L2174.8125,253.2734 L2174.8125,255.4297 L2167.4219,255.4297 L2167.4219,253.2734 L2169.8906,253.2734 L2169.8906,245.1953 L2167.4219,245.1953 Z " fill="#000000"/><text fill="#000000" font-family="sans-serif" font-size="14" font-style="italic" lengthAdjust="spacing" textLength="265" x="2185.5" y="254.2764">ChannelSetAddressCustomFieldAction</text><line style="stroke:#181818;stroke-width:0.5;" x1="2157.5" x2="2452.5" y1="265.4297" y2="265.4297"/><text fill="#000000" font-family="sans-serif" font-size="14" lengthAdjust="spacing" textLength="91" x="2162.5" y="282.4248">action: String</text><text fill="#000000" font-family="sans-serif" font-size="14" lengthAdjust="spacing" textLength="88" x="2162.5" y="298.7217">name: String</text><text fill="#000000" font-family="sans-serif" font-size="14" lengthAdjust="spacing" textLength="41" x="2162.5" y="315.0186">value:</text><a href="Object.svg" target="_top" title="Object.svg" xlink:actuate="onRequest" xlink:href="Object.svg" xlink:show="new" xlink:title="Object.svg" xlink:type="simple"><text fill="#0000FF" font-family="sans-serif" font-size="14" lengthAdjust="spacing" text-decoration="underline" textLength="45" x="2207.5" y="315.0186">Object</text></a></g></a><!--MD5=[8296affb8b94ff600960445458e0c0b5]
class ChannelSetAddressCustomTypeAction--><a href="ChannelSetAddressCustomTypeAction.svg" target="_top" title="ChannelSetAddressCustomTypeAction.svg" xlink:actuate="onRequest" xlink:href="ChannelSetAddressCustomTypeAction.svg" xlink:show="new" xlink:title="ChannelSetAddressCustomTypeAction.svg" xlink:type="simple"><g id="elem_ChannelSetAddressCustomTypeAction"><rect codeLine="44" fill="#F1F1F1" height="88.8906" id="ChannelSetAddressCustomTypeAction" rx="2.5" ry="2.5" style="stroke:#181818;stroke-width:0.5;" width="300" x="525.5" y="233.4297"/><ellipse cx="540.5" cy="249.4297" fill="#B4A7E5" rx="11" ry="11" style="stroke:#181818;stroke-width:1.0;"/><path d="M536.4219,245.1953 L536.4219,243.0391 L543.8125,243.0391 L543.8125,245.1953 L541.3438,245.1953 L541.3438,253.2734 L543.8125,253.2734 L543.8125,255.4297 L536.4219,255.4297 L536.4219,253.2734 L538.8906,253.2734 L538.8906,245.1953 L536.4219,245.1953 Z " fill="#000000"/><text fill="#000000" font-family="sans-serif" font-size="14" font-style="italic" lengthAdjust="spacing" textLength="268" x="554.5" y="254.2764">ChannelSetAddressCustomTypeAction</text><line style="stroke:#181818;stroke-width:0.5;" x1="526.5" x2="824.5" y1="265.4297" y2="265.4297"/><text fill="#000000" font-family="sans-serif" font-size="14" lengthAdjust="spacing" textLength="91" x="531.5" y="282.4248">action: String</text><text fill="#000000" font-family="sans-serif" font-size="14" lengthAdjust="spacing" textLength="35" x="531.5" y="298.7217">type:</text><a href="TypeResourceIdentifier.svg" target="_top" title="TypeResourceIdentifier.svg" xlink:actuate="onRequest" xlink:href="TypeResourceIdentifier.svg" xlink:show="new" xlink:title="TypeResourceIdentifier.svg" xlink:type="simple"><text fill="#0000FF" font-family="sans-serif" font-size="14" lengthAdjust="spacing" text-decoration="underline" textLength="160" x="570.5" y="298.7217">TypeResourceIdentifier</text></a><text fill="#000000" font-family="sans-serif" font-size="14" lengthAdjust="spacing" textLength="41" x="531.5" y="315.0186">fields:</text><a href="FieldContainer.svg" target="_top" title="FieldContainer.svg" xlink:actuate="onRequest" xlink:href="FieldContainer.svg" xlink:show="new" xlink:title="FieldContainer.svg" xlink:type="simple"><text fill="#0000FF" font-family="sans-serif" font-size="14" lengthAdjust="spacing" text-decoration="underline" textLength="99" x="576.5" y="315.0186">FieldContainer</text></a></g></a><!--MD5=[8f714ec777c627be3b4fb5c368084137]
class ChannelSetCustomFieldAction--><a href="ChannelSetCustomFieldAction.svg" target="_top" title="ChannelSetCustomFieldAction.svg" xlink:actuate="onRequest" xlink:href="ChannelSetCustomFieldAction.svg" xlink:show="new" xlink:title="ChannelSetCustomFieldAction.svg" xlink:type="simple"><g id="elem_ChannelSetCustomFieldAction"><rect codeLine="49" fill="#F1F1F1" height="88.8906" id="ChannelSetCustomFieldAction" rx="2.5" ry="2.5" style="stroke:#181818;stroke-width:0.5;" width="241" x="1645.5" y="233.4297"/><ellipse cx="1660.5" cy="249.4297" fill="#B4A7E5" rx="11" ry="11" style="stroke:#181818;stroke-width:1.0;"/><path d="M1656.4219,245.1953 L1656.4219,243.0391 L1663.8125,243.0391 L1663.8125,245.1953 L1661.3438,245.1953 L1661.3438,253.2734 L1663.8125,253.2734 L1663.8125,255.4297 L1656.4219,255.4297 L1656.4219,253.2734 L1658.8906,253.2734 L1658.8906,245.1953 L1656.4219,245.1953 Z " fill="#000000"/><text fill="#000000" font-family="sans-serif" font-size="14" font-style="italic" lengthAdjust="spacing" textLength="209" x="1674.5" y="254.2764">ChannelSetCustomFieldAction</text><line style="stroke:#181818;stroke-width:0.5;" x1="1646.5" x2="1885.5" y1="265.4297" y2="265.4297"/><text fill="#000000" font-family="sans-serif" font-size="14" lengthAdjust="spacing" textLength="91" x="1651.5" y="282.4248">action: String</text><text fill="#000000" font-family="sans-serif" font-size="14" lengthAdjust="spacing" textLength="88" x="1651.5" y="298.7217">name: String</text><text fill="#000000" font-family="sans-serif" font-size="14" lengthAdjust="spacing" textLength="41" x="1651.5" y="315.0186">value:</text><a href="Object.svg" target="_top" title="Object.svg" xlink:actuate="onRequest" xlink:href="Object.svg" xlink:show="new" xlink:title="Object.svg" xlink:type="simple"><text fill="#0000FF" font-family="sans-serif" font-size="14" lengthAdjust="spacing" text-decoration="underline" textLength="45" x="1696.5" y="315.0186">Object</text></a></g></a><!--MD5=[9a2b6fc20befd4df994d606acc6bf118]
class ChannelSetCustomTypeAction--><a href="ChannelSetCustomTypeAction.svg" target="_top" title="ChannelSetCustomTypeAction.svg" xlink:actuate="onRequest" xlink:href="ChannelSetCustomTypeAction.svg" xlink:show="new" xlink:title="ChannelSetCustomTypeAction.svg" xlink:type="simple"><g id="elem_ChannelSetCustomTypeAction"><rect codeLine="54" fill="#F1F1F1" height="88.8906" id="ChannelSetCustomTypeAction" rx="2.5" ry="2.5" style="stroke:#181818;stroke-width:0.5;" width="244" x="845.5" y="233.4297"/><ellipse cx="860.5" cy="249.4297" fill="#B4A7E5" rx="11" ry="11" style="stroke:#181818;stroke-width:1.0;"/><path d="M856.4219,245.1953 L856.4219,243.0391 L863.8125,243.0391 L863.8125,245.1953 L861.3438,245.1953 L861.3438,253.2734 L863.8125,253.2734 L863.8125,255.4297 L856.4219,255.4297 L856.4219,253.2734 L858.8906,253.2734 L858.8906,245.1953 L856.4219,245.1953 Z " fill="#000000"/><text fill="#000000" font-family="sans-serif" font-size="14" font-style="italic" lengthAdjust="spacing" textLength="212" x="874.5" y="254.2764">ChannelSetCustomTypeAction</text><line style="stroke:#181818;stroke-width:0.5;" x1="846.5" x2="1088.5" y1="265.4297" y2="265.4297"/><text fill="#000000" font-family="sans-serif" font-size="14" lengthAdjust="spacing" textLength="91" x="851.5" y="282.4248">action: String</text><text fill="#000000" font-family="sans-serif" font-size="14" lengthAdjust="spacing" textLength="35" x="851.5" y="298.7217">type:</text><a href="TypeResourceIdentifier.svg" target="_top" title="TypeResourceIdentifier.svg" xlink:actuate="onRequest" xlink:href="TypeResourceIdentifier.svg" xlink:show="new" xlink:title="TypeResourceIdentifier.svg" xlink:type="simple"><text fill="#0000FF" font-family="sans-serif" font-size="14" lengthAdjust="spacing" text-decoration="underline" textLength="160" x="890.5" y="298.7217">TypeResourceIdentifier</text></a><text fill="#000000" font-family="sans-serif" font-size="14" lengthAdjust="spacing" textLength="41" x="851.5" y="315.0186">fields:</text><a href="FieldContainer.svg" target="_top" title="FieldContainer.svg" xlink:actuate="onRequest" xlink:href="FieldContainer.svg" xlink:show="new" xlink:title="FieldContainer.svg" xlink:type="simple"><text fill="#0000FF" font-family="sans-serif" font-size="14" lengthAdjust="spacing" text-decoration="underline" textLength="99" x="896.5" y="315.0186">FieldContainer</text></a></g></a><!--MD5=[a7b29bb7b62a622de941a6789521a18c]
class ChannelSetGeoLocationAction--><a href="ChannelSetGeoLocationAction.svg" target="_top" title="ChannelSetGeoLocationAction.svg" xlink:actuate="onRequest" xlink:href="ChannelSetGeoLocationAction.svg" xlink:show="new" xlink:title="ChannelSetGeoLocationAction.svg" xlink:type="simple"><g id="elem_ChannelSetGeoLocationAction"><rect codeLine="59" fill="#F1F1F1" height="72.5938" id="ChannelSetGeoLocationAction" rx="2.5" ry="2.5" style="stroke:#181818;stroke-width:0.5;" width="244" x="261.5" y="233.4297"/><ellipse cx="276.5" cy="249.4297" fill="#B4A7E5" rx="11" ry="11" style="stroke:#181818;stroke-width:1.0;"/><path d="M272.4219,245.1953 L272.4219,243.0391 L279.8125,243.0391 L279.8125,245.1953 L277.3438,245.1953 L277.3438,253.2734 L279.8125,253.2734 L279.8125,255.4297 L272.4219,255.4297 L272.4219,253.2734 L274.8906,253.2734 L274.8906,245.1953 L272.4219,245.1953 Z " fill="#000000"/><text fill="#000000" font-family="sans-serif" font-size="14" font-style="italic" lengthAdjust="spacing" textLength="212" x="290.5" y="254.2764">ChannelSetGeoLocationAction</text><line style="stroke:#181818;stroke-width:0.5;" x1="262.5" x2="504.5" y1="265.4297" y2="265.4297"/><text fill="#000000" font-family="sans-serif" font-size="14" lengthAdjust="spacing" textLength="91" x="267.5" y="282.4248">action: String</text><text fill="#000000" font-family="sans-serif" font-size="14" lengthAdjust="spacing" textLength="90" x="267.5" y="298.7217">geoLocation:</text><a href="GeoJson.svg" target="_top" title="GeoJson.svg" xlink:actuate="onRequest" xlink:href="GeoJson.svg" xlink:show="new" xlink:title="GeoJson.svg" xlink:type="simple"><text fill="#0000FF" font-family="sans-serif" font-size="14" lengthAdjust="spacing" text-decoration="underline" textLength="58" x="361.5" y="298.7217">GeoJson</text></a></g></a><!--MD5=[0f7734264a38def7e419521ead763779]
class ChannelSetRolesAction--><a href="ChannelSetRolesAction.svg" target="_top" title="ChannelSetRolesAction.svg" xlink:actuate="onRequest" xlink:href="ChannelSetRolesAction.svg" xlink:show="new" xlink:title="ChannelSetRolesAction.svg" xlink:type="simple"><g id="elem_ChannelSetRolesAction"><rect codeLine="63" fill="#F1F1F1" height="72.5938" id="ChannelSetRolesAction" rx="2.5" ry="2.5" style="stroke:#181818;stroke-width:0.5;" width="230" x="1906.5" y="233.4297"/><ellipse cx="1937.7" cy="249.4297" fill="#B4A7E5" rx="11" ry="11" style="stroke:#181818;stroke-width:1.0;"/><path d="M1933.6219,245.1953 L1933.6219,243.0391 L1941.0125,243.0391 L1941.0125,245.1953 L1938.5438,245.1953 L1938.5438,253.2734 L1941.0125,253.2734 L1941.0125,255.4297 L1933.6219,255.4297 L1933.6219,253.2734 L1936.0906,253.2734 L1936.0906,245.1953 L1933.6219,245.1953 Z " fill="#000000"/><text fill="#000000" font-family="sans-serif" font-size="14" font-style="italic" lengthAdjust="spacing" textLength="162" x="1955.3" y="254.2764">ChannelSetRolesAction</text><line style="stroke:#181818;stroke-width:0.5;" x1="1907.5" x2="2135.5" y1="265.4297" y2="265.4297"/><text fill="#000000" font-family="sans-serif" font-size="14" lengthAdjust="spacing" textLength="91" x="1912.5" y="282.4248">action: String</text><text fill="#000000" font-family="sans-serif" font-size="14" lengthAdjust="spacing" textLength="39" x="1912.5" y="298.7217">roles:</text><a href="ChannelRoleEnum.svg" target="_top" title="ChannelRoleEnum.svg" xlink:actuate="onRequest" xlink:href="ChannelRoleEnum.svg" xlink:show="new" xlink:title="ChannelRoleEnum.svg" xlink:type="simple"><text fill="#0000FF" font-family="sans-serif" font-size="14" lengthAdjust="spacing" text-decoration="underline" textLength="175" x="1955.5" y="298.7217">List&lt;ChannelRoleEnum&gt;</text></a></g></a><!--MD5=[24e50cbde6d89fe9a6dcbb498f37abbc]
class ChannelUpdate--><a href="ChannelUpdate.svg" target="_top" title="ChannelUpdate.svg" xlink:actuate="onRequest" xlink:href="ChannelUpdate.svg" xlink:show="new" xlink:title="ChannelUpdate.svg" xlink:type="simple"><g id="elem_ChannelUpdate"><rect codeLine="67" fill="#F1F1F1" height="72.5938" id="ChannelUpdate" rx="2.5" ry="2.5" style="stroke:#181818;stroke-width:0.5;" width="268" x="1357.5" y="233.4297"/><ellipse cx="1433.75" cy="249.4297" fill="#B4A7E5" rx="11" ry="11" style="stroke:#181818;stroke-width:1.0;"/><path d="M1429.6719,245.1953 L1429.6719,243.0391 L1437.0625,243.0391 L1437.0625,245.1953 L1434.5938,245.1953 L1434.5938,253.2734 L1437.0625,253.2734 L1437.0625,255.4297 L1429.6719,255.4297 L1429.6719,253.2734 L1432.1406,253.2734 L1432.1406,245.1953 L1429.6719,245.1953 Z " fill="#000000"/><text fill="#000000" font-family="sans-serif" font-size="14" font-style="italic" lengthAdjust="spacing" textLength="107" x="1454.25" y="254.2764">ChannelUpdate</text><line style="stroke:#181818;stroke-width:0.5;" x1="1358.5" x2="1624.5" y1="265.4297" y2="265.4297"/><text fill="#000000" font-family="sans-serif" font-size="14" lengthAdjust="spacing" textLength="93" x="1363.5" y="282.4248">version: Long</text><text fill="#000000" font-family="sans-serif" font-size="14" lengthAdjust="spacing" textLength="55" x="1363.5" y="298.7217">actions:</text><a href="ChannelUpdateAction.svg" target="_top" title="ChannelUpdateAction.svg" xlink:actuate="onRequest" xlink:href="ChannelUpdateAction.svg" xlink:show="new" xlink:title="ChannelUpdateAction.svg" xlink:type="simple"><text fill="#0000FF" font-family="sans-serif" font-size="14" lengthAdjust="spacing" text-decoration="underline" textLength="197" x="1422.5" y="298.7217">List&lt;ChannelUpdateAction&gt;</text></a></g></a><line style="stroke:#0000FF;stroke-width:1.0;" x1="278.7857" x2="278.7857" y1="68.2969" y2="88.2969"/><line style="stroke:#0000FF;stroke-width:1.0;" x1="278.7857" x2="3070.5" y1="88.2969" y2="88.2969"/><line style="stroke:#0000FF;stroke-width:1.0;" x1="3070.5" x2="3070.5" y1="88.2969" y2="233.4297"/><polygon fill="#0000FF" points="3070.5,233.4297,3074.5,224.4297,3070.5,228.4297,3066.5,224.4297,3070.5,233.4297" style="stroke:#0000FF;stroke-width:1.0;"/><text fill="#000000" font-family="sans-serif" font-size="13" lengthAdjust="spacing" textLength="109" x="2959.5" y="210.3638">action : addRoles</text><line style="stroke:#0000FF;stroke-width:1.0;" x1="291.8571" x2="291.8571" y1="68.2969" y2="78.2969"/><line style="stroke:#0000FF;stroke-width:1.0;" x1="291.8571" x2="3338" y1="78.2969" y2="78.2969"/><line style="stroke:#0000FF;stroke-width:1.0;" x1="3338" x2="3338" y1="78.2969" y2="233.4297"/><polygon fill="#0000FF" points="3338,233.4297,3342,224.4297,3338,228.4297,3334,224.4297,3338,233.4297" style="stroke:#0000FF;stroke-width:1.0;"/><text fill="#000000" font-family="sans-serif" font-size="13" lengthAdjust="spacing" textLength="170" x="3166" y="210.3638">action : changeDescription</text><line style="stroke:#0000FF;stroke-width:1.0;" x1="135" x2="135" y1="68.2969" y2="233.4297"/><polygon fill="#0000FF" points="135,233.4297,139,224.4297,135,228.4297,131,224.4297,135,233.4297" style="stroke:#0000FF;stroke-width:1.0;"/><text fill="#000000" font-family="sans-serif" font-size="13" lengthAdjust="spacing" textLength="121" x="12" y="210.3638">action : changeKey</text><line style="stroke:#0000FF;stroke-width:1.0;" x1="187.2857" x2="187.2857" y1="68.2969" y2="158.2969"/><line style="stroke:#0000FF;stroke-width:1.0;" x1="187.2857" x2="1223.5" y1="158.2969" y2="158.2969"/><line style="stroke:#0000FF;stroke-width:1.0;" x1="1223.5" x2="1223.5" y1="158.2969" y2="233.4297"/><polygon fill="#0000FF" points="1223.5,233.4297,1227.5,224.4297,1223.5,228.4297,1219.5,224.4297,1223.5,233.4297" style="stroke:#0000FF;stroke-width:1.0;"/><text fill="#000000" font-family="sans-serif" font-size="13" lengthAdjust="spacing" textLength="137" x="1084.5" y="210.3638">action : changeName</text><line style="stroke:#0000FF;stroke-width:1.0;" x1="252.6429" x2="252.6429" y1="68.2969" y2="108.2969"/><line style="stroke:#0000FF;stroke-width:1.0;" x1="252.6429" x2="2588.5" y1="108.2969" y2="108.2969"/><line style="stroke:#0000FF;stroke-width:1.0;" x1="2588.5" x2="2588.5" y1="108.2969" y2="233.4297"/><polygon fill="#0000FF" points="2588.5,233.4297,2592.5,224.4297,2588.5,228.4297,2584.5,224.4297,2588.5,233.4297" style="stroke:#0000FF;stroke-width:1.0;"/><text fill="#000000" font-family="sans-serif" font-size="13" lengthAdjust="spacing" textLength="134" x="2452.5" y="210.3638">action : removeRoles</text><line style="stroke:#0000FF;stroke-width:1.0;" x1="265.7143" x2="265.7143" y1="68.2969" y2="98.2969"/><line style="stroke:#0000FF;stroke-width:1.0;" x1="265.7143" x2="2829.5" y1="98.2969" y2="98.2969"/><line style="stroke:#0000FF;stroke-width:1.0;" x1="2829.5" x2="2829.5" y1="98.2969" y2="233.4297"/><polygon fill="#0000FF" points="2829.5,233.4297,2833.5,224.4297,2829.5,228.4297,2825.5,224.4297,2829.5,233.4297" style="stroke:#0000FF;stroke-width:1.0;"/><text fill="#000000" font-family="sans-serif" font-size="13" lengthAdjust="spacing" textLength="123" x="2704.5" y="210.3638">action : setAddress</text><line style="stroke:#0000FF;stroke-width:1.0;" x1="239.5714" x2="239.5714" y1="68.2969" y2="118.2969"/><line style="stroke:#0000FF;stroke-width:1.0;" x1="239.5714" x2="2305" y1="118.2969" y2="118.2969"/><line style="stroke:#0000FF;stroke-width:1.0;" x1="2305" x2="2305" y1="118.2969" y2="233.4297"/><polygon fill="#0000FF" points="2305,233.4297,2309,224.4297,2305,228.4297,2301,224.4297,2305,233.4297" style="stroke:#0000FF;stroke-width:1.0;"/><text fill="#000000" font-family="sans-serif" font-size="13" lengthAdjust="spacing" textLength="202" x="2101" y="210.3638">action : setAddressCustomField</text><line style="stroke:#0000FF;stroke-width:1.0;" x1="161.1429" x2="161.1429" y1="68.2969" y2="178.2969"/><line style="stroke:#0000FF;stroke-width:1.0;" x1="161.1429" x2="675.5" y1="178.2969" y2="178.2969"/><line style="stroke:#0000FF;stroke-width:1.0;" x1="675.5" x2="675.5" y1="178.2969" y2="233.4297"/><polygon fill="#0000FF" points="675.5,233.4297,679.5,224.4297,675.5,228.4297,671.5,224.4297,675.5,233.4297" style="stroke:#0000FF;stroke-width:1.0;"/><text fill="#000000" font-family="sans-serif" font-size="13" lengthAdjust="spacing" textLength="203" x="470.5" y="210.3638">action : setAddressCustomType</text><line style="stroke:#0000FF;stroke-width:1.0;" x1="213.4286" x2="213.4286" y1="68.2969" y2="138.2969"/><line style="stroke:#0000FF;stroke-width:1.0;" x1="213.4286" x2="1766" y1="138.2969" y2="138.2969"/><line style="stroke:#0000FF;stroke-width:1.0;" x1="1766" x2="1766" y1="138.2969" y2="233.4297"/><polygon fill="#0000FF" points="1766,233.4297,1770,224.4297,1766,228.4297,1762,224.4297,1766,233.4297" style="stroke:#0000FF;stroke-width:1.0;"/><text fill="#000000" font-family="sans-serif" font-size="13" lengthAdjust="spacing" textLength="150" x="1614" y="210.3638">action : setCustomField</text><line style="stroke:#0000FF;stroke-width:1.0;" x1="174.2143" x2="174.2143" y1="68.2969" y2="168.2969"/><line style="stroke:#0000FF;stroke-width:1.0;" x1="174.2143" x2="967.5" y1="168.2969" y2="168.2969"/><line style="stroke:#0000FF;stroke-width:1.0;" x1="967.5" x2="967.5" y1="168.2969" y2="233.4297"/><polygon fill="#0000FF" points="967.5,233.4297,971.5,224.4297,967.5,228.4297,963.5,224.4297,967.5,233.4297" style="stroke:#0000FF;stroke-width:1.0;"/><text fill="#000000" font-family="sans-serif" font-size="13" lengthAdjust="spacing" textLength="151" x="814.5" y="210.3638">action : setCustomType</text><line style="stroke:#0000FF;stroke-width:1.0;" x1="148.0714" x2="148.0714" y1="68.2969" y2="188.2969"/><line style="stroke:#0000FF;stroke-width:1.0;" x1="148.0714" x2="383.5" y1="188.2969" y2="188.2969"/><line style="stroke:#0000FF;stroke-width:1.0;" x1="383.5" x2="383.5" y1="188.2969" y2="233.4297"/><polygon fill="#0000FF" points="383.5,233.4297,387.5,224.4297,383.5,228.4297,379.5,224.4297,383.5,233.4297" style="stroke:#0000FF;stroke-width:1.0;"/><text fill="#000000" font-family="sans-serif" font-size="13" lengthAdjust="spacing" textLength="151" x="230.5" y="210.3638">action : setGeoLocation</text><line style="stroke:#0000FF;stroke-width:1.0;" x1="226.5" x2="226.5" y1="68.2969" y2="128.2969"/><line style="stroke:#0000FF;stroke-width:1.0;" x1="226.5" x2="2021.5" y1="128.2969" y2="128.2969"/><line style="stroke:#0000FF;stroke-width:1.0;" x1="2021.5" x2="2021.5" y1="128.2969" y2="233.4297"/><polygon fill="#0000FF" points="2021.5,233.4297,2025.5,224.4297,2021.5,228.4297,2017.5,224.4297,2021.5,233.4297" style="stroke:#0000FF;stroke-width:1.0;"/><text fill="#000000" font-family="sans-serif" font-size="13" lengthAdjust="spacing" textLength="105" x="1914.5" y="210.3638">action : setRoles</text><line style="stroke:#008000;stroke-width:1.0;" x1="200.3571" x2="200.3571" y1="68.2969" y2="148.2969"/><line style="stroke:#008000;stroke-width:1.0;" x1="200.3571" x2="1491.5" y1="148.2969" y2="148.2969"/><line style="stroke:#008000;stroke-width:1.0;" x1="1491.5" x2="1491.5" y1="148.2969" y2="233.4297"/><polygon fill="#008000" points="1491.5,233.4297,1495.5,224.4297,1491.5,228.4297,1487.5,224.4297,1491.5,233.4297" style="stroke:#008000;stroke-width:1.0;"/><text fill="#000000" font-family="sans-serif" font-size="13" lengthAdjust="spacing" textLength="46" x="1443.5" y="210.3638">actions</text><rect fill="#DDDDDD" height="79.1875" id="_legend" rx="7.5" ry="7.5" style="stroke:#000000;stroke-width:1.0;" width="161" x="1648.25" y="323.3203"/><text fill="#000000" font-family="sans-serif" font-size="14" font-weight="bold" lengthAdjust="spacing" textLength="5" x="1653.25" y="343.3154"> </text><text fill="#000000" font-family="sans-serif" font-size="14" font-weight="bold" lengthAdjust="spacing" textLength="28" x="1670.25" y="343.3154">line</text><text fill="#000000" filter="url(#b1mmbnkhqjzr9z0)" font-family="sans-serif" font-size="14" lengthAdjust="spacing" textLength="12" x="1653.25" y="359.6123">   </text><text fill="#000000" font-family="sans-serif" font-size="14" lengthAdjust="spacing" textLength="77" x="1669.25" y="359.6123">inheritance</text><text fill="#000000" filter="url(#b1mmbnkhqjzr9z1)" font-family="sans-serif" font-size="14" lengthAdjust="spacing" textLength="12" x="1653.25" y="375.9092">   </text><text fill="#000000" font-family="sans-serif" font-size="14" lengthAdjust="spacing" textLength="129" x="1669.25" y="375.9092">property reference</text><text fill="#000000" filter="url(#b1mmbnkhqjzr9z2)" font-family="sans-serif" font-size="14" lengthAdjust="spacing" textLength="12" x="1653.25" y="392.2061">   </text><text fill="#000000" font-family="sans-serif" font-size="14" lengthAdjust="spacing" textLength="131" x="1669.25" y="392.2061">discriminated class</text><line style="stroke:#000000;stroke-width:1.0;" x1="1653.25" x2="1804.25" y1="330.3203" y2="330.3203"/><line style="stroke:#000000;stroke-width:1.0;" x1="1653.25" x2="1804.25" y1="346.6172" y2="346.6172"/><line style="stroke:#000000;stroke-width:1.0;" x1="1653.25" x2="1804.25" y1="362.9141" y2="362.9141"/><line style="stroke:#000000;stroke-width:1.0;" x1="1653.25" x2="1804.25" y1="379.2109" y2="379.2109"/><line style="stroke:#000000;stroke-width:1.0;" x1="1653.25" x2="1804.25" y1="395.5078" y2="395.5078"/><line style="stroke:#000000;stroke-width:1.0;" x1="1653.25" x2="1653.25" y1="330.3203" y2="395.5078"/><line style="stroke:#000000;stroke-width:1.0;" x1="1665.25" x2="1665.25" y1="330.3203" y2="395.5078"/><line style="stroke:#000000;stroke-width:1.0;" x1="1804.25" x2="1804.25" y1="330.3203" y2="395.5078"/><!--MD5=[a92cb6a02169814cf8e5942cdfc5e7f1]
@startuml
!pragma layout elk
hide empty fields
hide empty methods
legend
|= |= line |
|<back:black>   </back>| inheritance |
|<back:green>   </back>| property reference |
|<back:blue>   </back>| discriminated class |
endlegend
interface ChannelUpdateAction [[ChannelUpdateAction.svg]]  {
    action: String
}


interface ChannelAddRolesAction [[ChannelAddRolesAction.svg]]  {
    action: String
    roles: [[ChannelRoleEnum.svg List<ChannelRoleEnum>]]
}
interface ChannelChangeDescriptionAction [[ChannelChangeDescriptionAction.svg]]  {
    action: String
    description: [[LocalizedString.svg LocalizedString]]
}
interface ChannelChangeKeyAction [[ChannelChangeKeyAction.svg]]  {
    action: String
    key: String
}
interface ChannelChangeNameAction [[ChannelChangeNameAction.svg]]  {
    action: String
    name: [[LocalizedString.svg LocalizedString]]
}
interface ChannelRemoveRolesAction [[ChannelRemoveRolesAction.svg]]  {
    action: String
    roles: [[ChannelRoleEnum.svg List<ChannelRoleEnum>]]
}
interface ChannelSetAddressAction [[ChannelSetAddressAction.svg]]  {
    action: String
    address: [[AddressDraft.svg AddressDraft]]
}
interface ChannelSetAddressCustomFieldAction [[ChannelSetAddressCustomFieldAction.svg]]  {
    action: String
    name: String
    value: [[Object.svg Object]]
}
interface ChannelSetAddressCustomTypeAction [[ChannelSetAddressCustomTypeAction.svg]]  {
    action: String
    type: [[TypeResourceIdentifier.svg TypeResourceIdentifier]]
    fields: [[FieldContainer.svg FieldContainer]]
}
interface ChannelSetCustomFieldAction [[ChannelSetCustomFieldAction.svg]]  {
    action: String
    name: String
    value: [[Object.svg Object]]
}
interface ChannelSetCustomTypeAction [[ChannelSetCustomTypeAction.svg]]  {
    action: String
    type: [[TypeResourceIdentifier.svg TypeResourceIdentifier]]
    fields: [[FieldContainer.svg FieldContainer]]
}
interface ChannelSetGeoLocationAction [[ChannelSetGeoLocationAction.svg]]  {
    action: String
    geoLocation: [[GeoJson.svg GeoJson]]
}
interface ChannelSetRolesAction [[ChannelSetRolesAction.svg]]  {
    action: String
    roles: [[ChannelRoleEnum.svg List<ChannelRoleEnum>]]
}
interface ChannelUpdate [[ChannelUpdate.svg]]  {
    version: Long
    actions: [[ChannelUpdateAction.svg List<ChannelUpdateAction>]]
}
ChannelUpdateAction - -> ChannelAddRolesAction #blue;text:blue : "action : addRoles"
ChannelUpdateAction - -> ChannelChangeDescriptionAction #blue;text:blue : "action : changeDescription"
ChannelUpdateAction - -> ChannelChangeKeyAction #blue;text:blue : "action : changeKey"
ChannelUpdateAction - -> ChannelChangeNameAction #blue;text:blue : "action : changeName"
ChannelUpdateAction - -> ChannelRemoveRolesAction #blue;text:blue : "action : removeRoles"
ChannelUpdateAction - -> ChannelSetAddressAction #blue;text:blue : "action : setAddress"
ChannelUpdateAction - -> ChannelSetAddressCustomFieldAction #blue;text:blue : "action : setAddressCustomField"
ChannelUpdateAction - -> ChannelSetAddressCustomTypeAction #blue;text:blue : "action : setAddressCustomType"
ChannelUpdateAction - -> ChannelSetCustomFieldAction #blue;text:blue : "action : setCustomField"
ChannelUpdateAction - -> ChannelSetCustomTypeAction #blue;text:blue : "action : setCustomType"
ChannelUpdateAction - -> ChannelSetGeoLocationAction #blue;text:blue : "action : setGeoLocation"
ChannelUpdateAction - -> ChannelSetRolesAction #blue;text:blue : "action : setRoles"
ChannelUpdateAction - -> ChannelUpdate #green;text:green : "actions"
@enduml

PlantUML version 1.2022.13(Sat Nov 19 13:22:17 UTC 2022)
(GPL source distribution)
Java Runtime: OpenJDK Runtime Environment
JVM: OpenJDK 64-Bit Server VM
Default Encoding: UTF-8
Language: en
Country: null
--></g></svg>
