<?xml version="1.0" encoding="UTF-8" standalone="no"?><svg xmlns="http://www.w3.org/2000/svg" xmlns:xlink="http://www.w3.org/1999/xlink" contentStyleType="text/css" height="261px" preserveAspectRatio="none" style="width:217px;height:261px;background:#FFFFFF;" version="1.1" viewBox="0 0 217 261" width="217px" zoomAndPan="magnify"><defs><filter height="1" id="bcpwstr72pdgo0" width="1" x="0" y="0"><feFlood flood-color="#000000" result="flood"/><feComposite in="SourceGraphic" in2="flood" operator="over"/></filter><filter height="1" id="bcpwstr72pdgo1" width="1" x="0" y="0"><feFlood flood-color="#008000" result="flood"/><feComposite in="SourceGraphic" in2="flood" operator="over"/></filter><filter height="1" id="bcpwstr72pdgo2" width="1" x="0" y="0"><feFlood flood-color="#0000FF" result="flood"/><feComposite in="SourceGraphic" in2="flood" operator="over"/></filter></defs><g><!--MD5=[a11695c55a2c0f7c1f06505d7ed3cdc0]
class CloudEventsFormat--><a href="CloudEventsFormat.svg" target="_top" title="CloudEventsFormat.svg" xlink:actuate="onRequest" xlink:href="CloudEventsFormat.svg" xlink:show="new" xlink:title="CloudEventsFormat.svg" xlink:type="simple"><g id="elem_CloudEventsFormat"><rect codeLine="10" fill="#F1F1F1" height="72.5938" id="CloudEventsFormat" rx="2.5" ry="2.5" style="stroke:#181818;stroke-width:0.5;" width="198" x="12" y="88.2969"/><ellipse cx="40.95" cy="104.2969" fill="#B4A7E5" rx="11" ry="11" style="stroke:#181818;stroke-width:1.0;"/><path d="M36.8719,100.0625 L36.8719,97.9063 L44.2625,97.9063 L44.2625,100.0625 L41.7938,100.0625 L41.7938,108.1406 L44.2625,108.1406 L44.2625,110.2969 L36.8719,110.2969 L36.8719,108.1406 L39.3406,108.1406 L39.3406,100.0625 L36.8719,100.0625 Z " fill="#000000"/><text fill="#000000" font-family="sans-serif" font-size="14" font-style="italic" lengthAdjust="spacing" textLength="135" x="58.05" y="109.1436">CloudEventsFormat</text><line style="stroke:#181818;stroke-width:0.5;" x1="13" x2="209" y1="120.2969" y2="120.2969"/><text fill="#000000" font-family="sans-serif" font-size="14" lengthAdjust="spacing" textLength="79" x="18" y="137.292">type: String</text><text fill="#000000" font-family="sans-serif" font-size="14" lengthAdjust="spacing" textLength="186" x="18" y="153.5889">cloudEventsVersion: String</text></g></a><!--MD5=[d7b6e6e16a41e5ac6110803de28c7e8c]
class DeliveryFormat--><a href="DeliveryFormat.svg" target="_top" title="DeliveryFormat.svg" xlink:actuate="onRequest" xlink:href="DeliveryFormat.svg" xlink:show="new" xlink:title="DeliveryFormat.svg" xlink:type="simple"><g id="elem_DeliveryFormat"><rect codeLine="14" fill="#F1F1F1" height="56.2969" id="DeliveryFormat" rx="2.5" ry="2.5" style="stroke:#181818;stroke-width:0.5;" width="136" x="43" y="12"/><ellipse cx="58" cy="28" fill="#B4A7E5" rx="11" ry="11" style="stroke:#181818;stroke-width:1.0;"/><path d="M53.9219,23.7656 L53.9219,21.6094 L61.3125,21.6094 L61.3125,23.7656 L58.8438,23.7656 L58.8438,31.8438 L61.3125,31.8438 L61.3125,34 L53.9219,34 L53.9219,31.8438 L56.3906,31.8438 L56.3906,23.7656 L53.9219,23.7656 Z " fill="#000000"/><text fill="#000000" font-family="sans-serif" font-size="14" font-style="italic" lengthAdjust="spacing" textLength="104" x="72" y="32.8467">DeliveryFormat</text><line style="stroke:#181818;stroke-width:0.5;" x1="44" x2="178" y1="44" y2="44"/><text fill="#000000" font-family="sans-serif" font-size="14" lengthAdjust="spacing" textLength="79" x="49" y="60.9951">type: String</text></g></a><line style="stroke:#181818;stroke-width:1.0;" x1="111" x2="111" y1="68.2969" y2="88.2969"/><polygon fill="#FFFFFF" points="111,68.2969,104,87.2969,118,87.2969,111,68.2969" style="stroke:#181818;stroke-width:1.0;"/><rect fill="#DDDDDD" height="79.1875" id="_legend" rx="7.5" ry="7.5" style="stroke:#000000;stroke-width:1.0;" width="161" x="18.5" y="161.8906"/><text fill="#000000" font-family="sans-serif" font-size="14" font-weight="bold" lengthAdjust="spacing" textLength="5" x="23.5" y="181.8857"> </text><text fill="#000000" font-family="sans-serif" font-size="14" font-weight="bold" lengthAdjust="spacing" textLength="28" x="40.5" y="181.8857">line</text><text fill="#000000" filter="url(#bcpwstr72pdgo0)" font-family="sans-serif" font-size="14" lengthAdjust="spacing" textLength="12" x="23.5" y="198.1826">   </text><text fill="#000000" font-family="sans-serif" font-size="14" lengthAdjust="spacing" textLength="77" x="39.5" y="198.1826">inheritance</text><text fill="#000000" filter="url(#bcpwstr72pdgo1)" font-family="sans-serif" font-size="14" lengthAdjust="spacing" textLength="12" x="23.5" y="214.4795">   </text><text fill="#000000" font-family="sans-serif" font-size="14" lengthAdjust="spacing" textLength="129" x="39.5" y="214.4795">property reference</text><text fill="#000000" filter="url(#bcpwstr72pdgo2)" font-family="sans-serif" font-size="14" lengthAdjust="spacing" textLength="12" x="23.5" y="230.7764">   </text><text fill="#000000" font-family="sans-serif" font-size="14" lengthAdjust="spacing" textLength="131" x="39.5" y="230.7764">discriminated class</text><line style="stroke:#000000;stroke-width:1.0;" x1="23.5" x2="174.5" y1="168.8906" y2="168.8906"/><line style="stroke:#000000;stroke-width:1.0;" x1="23.5" x2="174.5" y1="185.1875" y2="185.1875"/><line style="stroke:#000000;stroke-width:1.0;" x1="23.5" x2="174.5" y1="201.4844" y2="201.4844"/><line style="stroke:#000000;stroke-width:1.0;" x1="23.5" x2="174.5" y1="217.7813" y2="217.7813"/><line style="stroke:#000000;stroke-width:1.0;" x1="23.5" x2="174.5" y1="234.0781" y2="234.0781"/><line style="stroke:#000000;stroke-width:1.0;" x1="23.5" x2="23.5" y1="168.8906" y2="234.0781"/><line style="stroke:#000000;stroke-width:1.0;" x1="35.5" x2="35.5" y1="168.8906" y2="234.0781"/><line style="stroke:#000000;stroke-width:1.0;" x1="174.5" x2="174.5" y1="168.8906" y2="234.0781"/><!--MD5=[06a381a1c90a27bc210eb436009fd3fb]
@startuml
!pragma layout elk
hide empty fields
hide empty methods
legend
|= |= line |
|<back:black>   </back>| inheritance |
|<back:green>   </back>| property reference |
|<back:blue>   </back>| discriminated class |
endlegend
interface CloudEventsFormat [[CloudEventsFormat.svg]] extends DeliveryFormat {
    type: String
    cloudEventsVersion: String
}
interface DeliveryFormat [[DeliveryFormat.svg]]  {
    type: String
}





@enduml

PlantUML version 1.2022.13(Sat Nov 19 13:22:17 UTC 2022)
(GPL source distribution)
Java Runtime: OpenJDK Runtime Environment
JVM: OpenJDK 64-Bit Server VM
Default Encoding: UTF-8
Language: en
Country: null
--></g></svg>
