<?xml version="1.0" encoding="UTF-8" standalone="no"?><svg xmlns="http://www.w3.org/2000/svg" xmlns:xlink="http://www.w3.org/1999/xlink" contentStyleType="text/css" height="293px" preserveAspectRatio="none" style="width:202px;height:293px;background:#FFFFFF;" version="1.1" viewBox="0 0 202 293" width="202px" zoomAndPan="magnify"><defs><filter height="1" id="b1inavkeyxn7jv0" width="1" x="0" y="0"><feFlood flood-color="#000000" result="flood"/><feComposite in="SourceGraphic" in2="flood" operator="over"/></filter><filter height="1" id="b1inavkeyxn7jv1" width="1" x="0" y="0"><feFlood flood-color="#008000" result="flood"/><feComposite in="SourceGraphic" in2="flood" operator="over"/></filter><filter height="1" id="b1inavkeyxn7jv2" width="1" x="0" y="0"><feFlood flood-color="#0000FF" result="flood"/><feComposite in="SourceGraphic" in2="flood" operator="over"/></filter></defs><g><!--MD5=[7903ffe38836cb4cd0d8847be75c158f]
class Counter--><a href="Counter.svg" target="_top" title="Counter.svg" xlink:actuate="onRequest" xlink:href="Counter.svg" xlink:show="new" xlink:title="Counter.svg" xlink:type="simple"><g id="elem_Counter"><rect codeLine="10" fill="#F1F1F1" height="105.1875" id="Counter" rx="2.5" ry="2.5" style="stroke:#181818;stroke-width:0.5;" width="182" x="13.5" y="88.2969"/><ellipse cx="72.25" cy="104.2969" fill="#B4A7E5" rx="11" ry="11" style="stroke:#181818;stroke-width:1.0;"/><path d="M68.1719,100.0625 L68.1719,97.9063 L75.5625,97.9063 L75.5625,100.0625 L73.0938,100.0625 L73.0938,108.1406 L75.5625,108.1406 L75.5625,110.2969 L68.1719,110.2969 L68.1719,108.1406 L70.6406,108.1406 L70.6406,100.0625 L68.1719,100.0625 Z " fill="#000000"/><text fill="#000000" font-family="sans-serif" font-size="14" font-style="italic" lengthAdjust="spacing" textLength="56" x="92.75" y="109.1436">Counter</text><line style="stroke:#181818;stroke-width:0.5;" x1="14.5" x2="194.5" y1="120.2969" y2="120.2969"/><text fill="#000000" font-family="sans-serif" font-size="14" lengthAdjust="spacing" textLength="79" x="19.5" y="137.292">type: String</text><text fill="#000000" font-family="sans-serif" font-size="14" lengthAdjust="spacing" textLength="135" x="19.5" y="153.5889">totalToSkip: Integer</text><text fill="#000000" font-family="sans-serif" font-size="14" lengthAdjust="spacing" textLength="113" x="19.5" y="169.8857">skipped: Integer</text><text fill="#000000" font-family="sans-serif" font-size="14" lengthAdjust="spacing" textLength="170" x="19.5" y="186.1826">lastSkippedAt: DateTime</text></g></a><!--MD5=[f9207199237d79f498f8f30d3b47d61b]
class SkipConfiguration--><a href="SkipConfiguration.svg" target="_top" title="SkipConfiguration.svg" xlink:actuate="onRequest" xlink:href="SkipConfiguration.svg" xlink:show="new" xlink:title="SkipConfiguration.svg" xlink:type="simple"><g id="elem_SkipConfiguration"><rect codeLine="16" fill="#F1F1F1" height="56.2969" id="SkipConfiguration" rx="2.5" ry="2.5" style="stroke:#181818;stroke-width:0.5;" width="153" x="28" y="12"/><ellipse cx="43" cy="28" fill="#B4A7E5" rx="11" ry="11" style="stroke:#181818;stroke-width:1.0;"/><path d="M38.9219,23.7656 L38.9219,21.6094 L46.3125,21.6094 L46.3125,23.7656 L43.8438,23.7656 L43.8438,31.8438 L46.3125,31.8438 L46.3125,34 L38.9219,34 L38.9219,31.8438 L41.3906,31.8438 L41.3906,23.7656 L38.9219,23.7656 Z " fill="#000000"/><text fill="#000000" font-family="sans-serif" font-size="14" font-style="italic" lengthAdjust="spacing" textLength="121" x="57" y="32.8467">SkipConfiguration</text><line style="stroke:#181818;stroke-width:0.5;" x1="29" x2="180" y1="44" y2="44"/><text fill="#000000" font-family="sans-serif" font-size="14" lengthAdjust="spacing" textLength="79" x="34" y="60.9951">type: String</text></g></a><line style="stroke:#181818;stroke-width:1.0;" x1="104.5" x2="104.5" y1="68.2969" y2="88.2969"/><polygon fill="#FFFFFF" points="104.5,68.2969,97.5,87.2969,111.5,87.2969,104.5,68.2969" style="stroke:#181818;stroke-width:1.0;"/><rect fill="#DDDDDD" height="79.1875" id="_legend" rx="7.5" ry="7.5" style="stroke:#000000;stroke-width:1.0;" width="161" x="12" y="194.4844"/><text fill="#000000" font-family="sans-serif" font-size="14" font-weight="bold" lengthAdjust="spacing" textLength="5" x="17" y="214.4795"> </text><text fill="#000000" font-family="sans-serif" font-size="14" font-weight="bold" lengthAdjust="spacing" textLength="28" x="34" y="214.4795">line</text><text fill="#000000" filter="url(#b1inavkeyxn7jv0)" font-family="sans-serif" font-size="14" lengthAdjust="spacing" textLength="12" x="17" y="230.7764">   </text><text fill="#000000" font-family="sans-serif" font-size="14" lengthAdjust="spacing" textLength="77" x="33" y="230.7764">inheritance</text><text fill="#000000" filter="url(#b1inavkeyxn7jv1)" font-family="sans-serif" font-size="14" lengthAdjust="spacing" textLength="12" x="17" y="247.0732">   </text><text fill="#000000" font-family="sans-serif" font-size="14" lengthAdjust="spacing" textLength="129" x="33" y="247.0732">property reference</text><text fill="#000000" filter="url(#b1inavkeyxn7jv2)" font-family="sans-serif" font-size="14" lengthAdjust="spacing" textLength="12" x="17" y="263.3701">   </text><text fill="#000000" font-family="sans-serif" font-size="14" lengthAdjust="spacing" textLength="131" x="33" y="263.3701">discriminated class</text><line style="stroke:#000000;stroke-width:1.0;" x1="17" x2="168" y1="201.4844" y2="201.4844"/><line style="stroke:#000000;stroke-width:1.0;" x1="17" x2="168" y1="217.7813" y2="217.7813"/><line style="stroke:#000000;stroke-width:1.0;" x1="17" x2="168" y1="234.0781" y2="234.0781"/><line style="stroke:#000000;stroke-width:1.0;" x1="17" x2="168" y1="250.375" y2="250.375"/><line style="stroke:#000000;stroke-width:1.0;" x1="17" x2="168" y1="266.6719" y2="266.6719"/><line style="stroke:#000000;stroke-width:1.0;" x1="17" x2="17" y1="201.4844" y2="266.6719"/><line style="stroke:#000000;stroke-width:1.0;" x1="29" x2="29" y1="201.4844" y2="266.6719"/><line style="stroke:#000000;stroke-width:1.0;" x1="168" x2="168" y1="201.4844" y2="266.6719"/><!--MD5=[17014cb451d38be8be442e20229c3616]
@startuml
!pragma layout elk
hide empty fields
hide empty methods
legend
|= |= line |
|<back:black>   </back>| inheritance |
|<back:green>   </back>| property reference |
|<back:blue>   </back>| discriminated class |
endlegend
interface Counter [[Counter.svg]] extends SkipConfiguration {
    type: String
    totalToSkip: Integer
    skipped: Integer
    lastSkippedAt: DateTime
}
interface SkipConfiguration [[SkipConfiguration.svg]]  {
    type: String
}





@enduml

PlantUML version 1.2022.13(Sat Nov 19 13:22:17 UTC 2022)
(GPL source distribution)
Java Runtime: OpenJDK Runtime Environment
JVM: OpenJDK 64-Bit Server VM
Default Encoding: UTF-8
Language: en
Country: null
--></g></svg>
