<?xml version="1.0" encoding="UTF-8" standalone="no"?><svg xmlns="http://www.w3.org/2000/svg" xmlns:xlink="http://www.w3.org/1999/xlink" contentStyleType="text/css" height="244px" preserveAspectRatio="none" style="width:218px;height:244px;background:#FFFFFF;" version="1.1" viewBox="0 0 218 244" width="218px" zoomAndPan="magnify"><defs><filter height="1" id="b1h8399nkbza3t0" width="1" x="0" y="0"><feFlood flood-color="#000000" result="flood"/><feComposite in="SourceGraphic" in2="flood" operator="over"/></filter><filter height="1" id="b1h8399nkbza3t1" width="1" x="0" y="0"><feFlood flood-color="#008000" result="flood"/><feComposite in="SourceGraphic" in2="flood" operator="over"/></filter><filter height="1" id="b1h8399nkbza3t2" width="1" x="0" y="0"><feFlood flood-color="#0000FF" result="flood"/><feComposite in="SourceGraphic" in2="flood" operator="over"/></filter></defs><g><!--MD5=[2f393e19d1b399d2ec0ce4de4dcfc4dc]
class CustomFieldMoneyType--><a href="CustomFieldMoneyType.svg" target="_top" title="CustomFieldMoneyType.svg" xlink:actuate="onRequest" xlink:href="CustomFieldMoneyType.svg" xlink:show="new" xlink:title="CustomFieldMoneyType.svg" xlink:type="simple"><g id="elem_CustomFieldMoneyType"><rect codeLine="10" fill="#F1F1F1" height="56.2969" id="CustomFieldMoneyType" rx="2.5" ry="2.5" style="stroke:#181818;stroke-width:0.5;" width="199" x="12" y="88.2969"/><ellipse cx="27" cy="104.2969" fill="#B4A7E5" rx="11" ry="11" style="stroke:#181818;stroke-width:1.0;"/><path d="M22.9219,100.0625 L22.9219,97.9063 L30.3125,97.9063 L30.3125,100.0625 L27.8438,100.0625 L27.8438,108.1406 L30.3125,108.1406 L30.3125,110.2969 L22.9219,110.2969 L22.9219,108.1406 L25.3906,108.1406 L25.3906,100.0625 L22.9219,100.0625 Z " fill="#000000"/><text fill="#000000" font-family="sans-serif" font-size="14" font-style="italic" lengthAdjust="spacing" textLength="167" x="41" y="109.1436">CustomFieldMoneyType</text><line style="stroke:#181818;stroke-width:0.5;" x1="13" x2="210" y1="120.2969" y2="120.2969"/><text fill="#000000" font-family="sans-serif" font-size="14" lengthAdjust="spacing" textLength="88" x="18" y="137.292">name: String</text></g></a><!--MD5=[b1e1556f4d9551c859c25b35078bae62]
class FieldType--><a href="FieldType.svg" target="_top" title="FieldType.svg" xlink:actuate="onRequest" xlink:href="FieldType.svg" xlink:show="new" xlink:title="FieldType.svg" xlink:type="simple"><g id="elem_FieldType"><rect codeLine="13" fill="#F1F1F1" height="56.2969" id="FieldType" rx="2.5" ry="2.5" style="stroke:#181818;stroke-width:0.5;" width="100" x="61.5" y="12"/><ellipse cx="76.95" cy="28" fill="#B4A7E5" rx="11" ry="11" style="stroke:#181818;stroke-width:1.0;"/><path d="M72.8719,23.7656 L72.8719,21.6094 L80.2625,21.6094 L80.2625,23.7656 L77.7938,23.7656 L77.7938,31.8438 L80.2625,31.8438 L80.2625,34 L72.8719,34 L72.8719,31.8438 L75.3406,31.8438 L75.3406,23.7656 L72.8719,23.7656 Z " fill="#000000"/><text fill="#000000" font-family="sans-serif" font-size="14" font-style="italic" lengthAdjust="spacing" textLength="67" x="91.05" y="32.8467">FieldType</text><line style="stroke:#181818;stroke-width:0.5;" x1="62.5" x2="160.5" y1="44" y2="44"/><text fill="#000000" font-family="sans-serif" font-size="14" lengthAdjust="spacing" textLength="88" x="67.5" y="60.9951">name: String</text></g></a><line style="stroke:#181818;stroke-width:1.0;" x1="111.5" x2="111.5" y1="68.2969" y2="88.2969"/><polygon fill="#FFFFFF" points="111.5,68.2969,104.5,87.2969,118.5,87.2969,111.5,68.2969" style="stroke:#181818;stroke-width:1.0;"/><rect fill="#DDDDDD" height="79.1875" id="_legend" rx="7.5" ry="7.5" style="stroke:#000000;stroke-width:1.0;" width="161" x="19" y="145.5938"/><text fill="#000000" font-family="sans-serif" font-size="14" font-weight="bold" lengthAdjust="spacing" textLength="5" x="24" y="165.5889"> </text><text fill="#000000" font-family="sans-serif" font-size="14" font-weight="bold" lengthAdjust="spacing" textLength="28" x="41" y="165.5889">line</text><text fill="#000000" filter="url(#b1h8399nkbza3t0)" font-family="sans-serif" font-size="14" lengthAdjust="spacing" textLength="12" x="24" y="181.8857">   </text><text fill="#000000" font-family="sans-serif" font-size="14" lengthAdjust="spacing" textLength="77" x="40" y="181.8857">inheritance</text><text fill="#000000" filter="url(#b1h8399nkbza3t1)" font-family="sans-serif" font-size="14" lengthAdjust="spacing" textLength="12" x="24" y="198.1826">   </text><text fill="#000000" font-family="sans-serif" font-size="14" lengthAdjust="spacing" textLength="129" x="40" y="198.1826">property reference</text><text fill="#000000" filter="url(#b1h8399nkbza3t2)" font-family="sans-serif" font-size="14" lengthAdjust="spacing" textLength="12" x="24" y="214.4795">   </text><text fill="#000000" font-family="sans-serif" font-size="14" lengthAdjust="spacing" textLength="131" x="40" y="214.4795">discriminated class</text><line style="stroke:#000000;stroke-width:1.0;" x1="24" x2="175" y1="152.5938" y2="152.5938"/><line style="stroke:#000000;stroke-width:1.0;" x1="24" x2="175" y1="168.8906" y2="168.8906"/><line style="stroke:#000000;stroke-width:1.0;" x1="24" x2="175" y1="185.1875" y2="185.1875"/><line style="stroke:#000000;stroke-width:1.0;" x1="24" x2="175" y1="201.4844" y2="201.4844"/><line style="stroke:#000000;stroke-width:1.0;" x1="24" x2="175" y1="217.7813" y2="217.7813"/><line style="stroke:#000000;stroke-width:1.0;" x1="24" x2="24" y1="152.5938" y2="217.7813"/><line style="stroke:#000000;stroke-width:1.0;" x1="36" x2="36" y1="152.5938" y2="217.7813"/><line style="stroke:#000000;stroke-width:1.0;" x1="175" x2="175" y1="152.5938" y2="217.7813"/><!--MD5=[1ba07367347681fa28ccfafdd31be12f]
@startuml
!pragma layout elk
hide empty fields
hide empty methods
legend
|= |= line |
|<back:black>   </back>| inheritance |
|<back:green>   </back>| property reference |
|<back:blue>   </back>| discriminated class |
endlegend
interface CustomFieldMoneyType [[CustomFieldMoneyType.svg]] extends FieldType {
    name: String
}
interface FieldType [[FieldType.svg]]  {
    name: String
}





@enduml

PlantUML version 1.2022.13(Sat Nov 19 13:22:17 UTC 2022)
(GPL source distribution)
Java Runtime: OpenJDK Runtime Environment
JVM: OpenJDK 64-Bit Server VM
Default Encoding: UTF-8
Language: en
Country: null
--></g></svg>
