<?xml version="1.0" encoding="UTF-8" standalone="no"?><svg xmlns="http://www.w3.org/2000/svg" xmlns:xlink="http://www.w3.org/1999/xlink" contentStyleType="text/css" height="277px" preserveAspectRatio="none" style="width:276px;height:277px;background:#FFFFFF;" version="1.1" viewBox="0 0 276 277" width="276px" zoomAndPan="magnify"><defs><filter height="1" id="b1k8ph8mt3xz780" width="1" x="0" y="0"><feFlood flood-color="#000000" result="flood"/><feComposite in="SourceGraphic" in2="flood" operator="over"/></filter><filter height="1" id="b1k8ph8mt3xz781" width="1" x="0" y="0"><feFlood flood-color="#008000" result="flood"/><feComposite in="SourceGraphic" in2="flood" operator="over"/></filter><filter height="1" id="b1k8ph8mt3xz782" width="1" x="0" y="0"><feFlood flood-color="#0000FF" result="flood"/><feComposite in="SourceGraphic" in2="flood" operator="over"/></filter></defs><g><!--MD5=[86404596d2e06f32ba4da2e8665bc65e]
class CustomerRemoveAddressAction--><a href="CustomerRemoveAddressAction.svg" target="_top" title="CustomerRemoveAddressAction.svg" xlink:actuate="onRequest" xlink:href="CustomerRemoveAddressAction.svg" xlink:show="new" xlink:title="CustomerRemoveAddressAction.svg" xlink:type="simple"><g id="elem_CustomerRemoveAddressAction"><rect codeLine="10" fill="#F1F1F1" height="88.8906" id="CustomerRemoveAddressAction" rx="2.5" ry="2.5" style="stroke:#181818;stroke-width:0.5;" width="257" x="12" y="88.2969"/><ellipse cx="27" cy="104.2969" fill="#B4A7E5" rx="11" ry="11" style="stroke:#181818;stroke-width:1.0;"/><path d="M22.9219,100.0625 L22.9219,97.9063 L30.3125,97.9063 L30.3125,100.0625 L27.8438,100.0625 L27.8438,108.1406 L30.3125,108.1406 L30.3125,110.2969 L22.9219,110.2969 L22.9219,108.1406 L25.3906,108.1406 L25.3906,100.0625 L22.9219,100.0625 Z " fill="#000000"/><text fill="#000000" font-family="sans-serif" font-size="14" font-style="italic" lengthAdjust="spacing" textLength="225" x="41" y="109.1436">CustomerRemoveAddressAction</text><line style="stroke:#181818;stroke-width:0.5;" x1="13" x2="268" y1="120.2969" y2="120.2969"/><text fill="#000000" font-family="sans-serif" font-size="14" lengthAdjust="spacing" textLength="91" x="18" y="137.292">action: String</text><text fill="#000000" font-family="sans-serif" font-size="14" lengthAdjust="spacing" textLength="117" x="18" y="153.5889">addressId: String</text><text fill="#000000" font-family="sans-serif" font-size="14" lengthAdjust="spacing" textLength="130" x="18" y="169.8857">addressKey: String</text></g></a><!--MD5=[fb9d1de33de1058946c07a508e2b91f0]
class CustomerUpdateAction--><a href="CustomerUpdateAction.svg" target="_top" title="CustomerUpdateAction.svg" xlink:actuate="onRequest" xlink:href="CustomerUpdateAction.svg" xlink:show="new" xlink:title="CustomerUpdateAction.svg" xlink:type="simple"><g id="elem_CustomerUpdateAction"><rect codeLine="15" fill="#F1F1F1" height="56.2969" id="CustomerUpdateAction" rx="2.5" ry="2.5" style="stroke:#181818;stroke-width:0.5;" width="193" x="44" y="12"/><ellipse cx="59" cy="28" fill="#B4A7E5" rx="11" ry="11" style="stroke:#181818;stroke-width:1.0;"/><path d="M54.9219,23.7656 L54.9219,21.6094 L62.3125,21.6094 L62.3125,23.7656 L59.8438,23.7656 L59.8438,31.8438 L62.3125,31.8438 L62.3125,34 L54.9219,34 L54.9219,31.8438 L57.3906,31.8438 L57.3906,23.7656 L54.9219,23.7656 Z " fill="#000000"/><text fill="#000000" font-family="sans-serif" font-size="14" font-style="italic" lengthAdjust="spacing" textLength="161" x="73" y="32.8467">CustomerUpdateAction</text><line style="stroke:#181818;stroke-width:0.5;" x1="45" x2="236" y1="44" y2="44"/><text fill="#000000" font-family="sans-serif" font-size="14" lengthAdjust="spacing" textLength="91" x="50" y="60.9951">action: String</text></g></a><line style="stroke:#181818;stroke-width:1.0;" x1="140.5" x2="140.5" y1="68.2969" y2="88.2969"/><polygon fill="#FFFFFF" points="140.5,68.2969,133.5,87.2969,147.5,87.2969,140.5,68.2969" style="stroke:#181818;stroke-width:1.0;"/><rect fill="#DDDDDD" height="79.1875" id="_legend" rx="7.5" ry="7.5" style="stroke:#000000;stroke-width:1.0;" width="161" x="48" y="178.1875"/><text fill="#000000" font-family="sans-serif" font-size="14" font-weight="bold" lengthAdjust="spacing" textLength="5" x="53" y="198.1826"> </text><text fill="#000000" font-family="sans-serif" font-size="14" font-weight="bold" lengthAdjust="spacing" textLength="28" x="70" y="198.1826">line</text><text fill="#000000" filter="url(#b1k8ph8mt3xz780)" font-family="sans-serif" font-size="14" lengthAdjust="spacing" textLength="12" x="53" y="214.4795">   </text><text fill="#000000" font-family="sans-serif" font-size="14" lengthAdjust="spacing" textLength="77" x="69" y="214.4795">inheritance</text><text fill="#000000" filter="url(#b1k8ph8mt3xz781)" font-family="sans-serif" font-size="14" lengthAdjust="spacing" textLength="12" x="53" y="230.7764">   </text><text fill="#000000" font-family="sans-serif" font-size="14" lengthAdjust="spacing" textLength="129" x="69" y="230.7764">property reference</text><text fill="#000000" filter="url(#b1k8ph8mt3xz782)" font-family="sans-serif" font-size="14" lengthAdjust="spacing" textLength="12" x="53" y="247.0732">   </text><text fill="#000000" font-family="sans-serif" font-size="14" lengthAdjust="spacing" textLength="131" x="69" y="247.0732">discriminated class</text><line style="stroke:#000000;stroke-width:1.0;" x1="53" x2="204" y1="185.1875" y2="185.1875"/><line style="stroke:#000000;stroke-width:1.0;" x1="53" x2="204" y1="201.4844" y2="201.4844"/><line style="stroke:#000000;stroke-width:1.0;" x1="53" x2="204" y1="217.7813" y2="217.7813"/><line style="stroke:#000000;stroke-width:1.0;" x1="53" x2="204" y1="234.0781" y2="234.0781"/><line style="stroke:#000000;stroke-width:1.0;" x1="53" x2="204" y1="250.375" y2="250.375"/><line style="stroke:#000000;stroke-width:1.0;" x1="53" x2="53" y1="185.1875" y2="250.375"/><line style="stroke:#000000;stroke-width:1.0;" x1="65" x2="65" y1="185.1875" y2="250.375"/><line style="stroke:#000000;stroke-width:1.0;" x1="204" x2="204" y1="185.1875" y2="250.375"/><!--MD5=[9baadc4218248e7a278475d8ea65c40a]
@startuml
!pragma layout elk
hide empty fields
hide empty methods
legend
|= |= line |
|<back:black>   </back>| inheritance |
|<back:green>   </back>| property reference |
|<back:blue>   </back>| discriminated class |
endlegend
interface CustomerRemoveAddressAction [[CustomerRemoveAddressAction.svg]] extends CustomerUpdateAction {
    action: String
    addressId: String
    addressKey: String
}
interface CustomerUpdateAction [[CustomerUpdateAction.svg]]  {
    action: String
}





@enduml

PlantUML version 1.2022.13(Sat Nov 19 13:22:17 UTC 2022)
(GPL source distribution)
Java Runtime: OpenJDK Runtime Environment
JVM: OpenJDK 64-Bit Server VM
Default Encoding: UTF-8
Language: en
Country: null
--></g></svg>
