<?xml version="1.0" encoding="UTF-8" standalone="no"?><svg xmlns="http://www.w3.org/2000/svg" xmlns:xlink="http://www.w3.org/1999/xlink" contentStyleType="text/css" height="219px" preserveAspectRatio="none" style="width:354px;height:219px;background:#FFFFFF;" version="1.1" viewBox="0 0 354 219" width="354px" zoomAndPan="magnify"><defs/><g><!--MD5=[e1596f53bfff50ad25cdde227852f193]
class CustomerSearchStatus--><g id="elem_CustomerSearchStatus"><rect codeLine="3" fill="#F1F1F1" height="72.5938" id="CustomerSearchStatus" rx="2.5" ry="2.5" style="stroke:#181818;stroke-width:0.5;" width="192" x="83.5" y="12"/><ellipse cx="98.5" cy="28" fill="#EB937F" rx="11" ry="11" style="stroke:#181818;stroke-width:1.0;"/><path d="M102.6094,34 L94.8906,34 L94.8906,21.6094 L102.6094,21.6094 L102.6094,23.7656 L97.3438,23.7656 L97.3438,26.4375 L102.1094,26.4375 L102.1094,28.5938 L97.3438,28.5938 L97.3438,31.8438 L102.6094,31.8438 L102.6094,34 Z " fill="#000000"/><text fill="#000000" font-family="sans-serif" font-size="14" lengthAdjust="spacing" textLength="160" x="112.5" y="32.8467">CustomerSearchStatus</text><line style="stroke:#181818;stroke-width:0.5;" x1="84.5" x2="274.5" y1="44" y2="44"/><text fill="#000000" font-family="sans-serif" font-size="14" lengthAdjust="spacing" textLength="78" x="89.5" y="60.9951">ACTIVATED</text><text fill="#000000" font-family="sans-serif" font-size="14" lengthAdjust="spacing" textLength="98" x="89.5" y="77.292">DEACTIVATED</text></g><!--MD5=[c02b0aae61f405cc0673ba343c80efa2]
class ProjectChangeCustomerSearchStatusAction--><a href="ProjectChangeCustomerSearchStatusAction.svg" target="_top" title="ProjectChangeCustomerSearchStatusAction.svg" xlink:actuate="onRequest" xlink:href="ProjectChangeCustomerSearchStatusAction.svg" xlink:show="new" xlink:title="ProjectChangeCustomerSearchStatusAction.svg" xlink:type="simple"><g id="elem_ProjectChangeCustomerSearchStatusAction"><rect codeLine="7" fill="#F1F1F1" height="72.5938" id="ProjectChangeCustomerSearchStatusAction" rx="2.5" ry="2.5" style="stroke:#181818;stroke-width:0.5;" width="335" x="12" y="139.7266"/><ellipse cx="27" cy="155.7266" fill="#B4A7E5" rx="11" ry="11" style="stroke:#181818;stroke-width:1.0;"/><path d="M22.9219,151.4922 L22.9219,149.3359 L30.3125,149.3359 L30.3125,151.4922 L27.8438,151.4922 L27.8438,159.5703 L30.3125,159.5703 L30.3125,161.7266 L22.9219,161.7266 L22.9219,159.5703 L25.3906,159.5703 L25.3906,151.4922 L22.9219,151.4922 Z " fill="#000000"/><text fill="#000000" font-family="sans-serif" font-size="14" font-style="italic" lengthAdjust="spacing" textLength="303" x="41" y="160.5732">ProjectChangeCustomerSearchStatusAction</text><line style="stroke:#181818;stroke-width:0.5;" x1="13" x2="346" y1="171.7266" y2="171.7266"/><text fill="#000000" font-family="sans-serif" font-size="14" lengthAdjust="spacing" textLength="91" x="18" y="188.7217">action: String</text><text fill="#000000" font-family="sans-serif" font-size="14" lengthAdjust="spacing" textLength="48" x="18" y="205.0186">status:</text><a href="CustomerSearchStatus.svg" target="_top" title="CustomerSearchStatus.svg" xlink:actuate="onRequest" xlink:href="CustomerSearchStatus.svg" xlink:show="new" xlink:title="CustomerSearchStatus.svg" xlink:type="simple"><text fill="#0000FF" font-family="sans-serif" font-size="14" lengthAdjust="spacing" text-decoration="underline" textLength="160" x="70" y="205.0186">CustomerSearchStatus</text></a></g></a><line style="stroke:#008000;stroke-width:1.0;" x1="179.5" x2="179.5" y1="84.5938" y2="139.7266"/><polygon fill="#008000" points="179.5,139.7266,183.5,130.7266,179.5,134.7266,175.5,130.7266,179.5,139.7266" style="stroke:#008000;stroke-width:1.0;"/><text fill="#000000" font-family="sans-serif" font-size="13" lengthAdjust="spacing" textLength="40" x="137.5" y="116.6606">status</text><!--MD5=[3929d717505f168c718439bce910b6af]
@startuml
!pragma layout elk
hide methods
enum CustomerSearchStatus {
    ACTIVATED
    DEACTIVATED
}
interface ProjectChangeCustomerSearchStatusAction [[ProjectChangeCustomerSearchStatusAction.svg]]  {
    action: String
    status: [[CustomerSearchStatus.svg CustomerSearchStatus]]
}
CustomerSearchStatus - -> ProjectChangeCustomerSearchStatusAction #green;text:green : "status"
@enduml

PlantUML version 1.2022.13(Sat Nov 19 13:22:17 UTC 2022)
(GPL source distribution)
Java Runtime: OpenJDK Runtime Environment
JVM: OpenJDK 64-Bit Server VM
Default Encoding: UTF-8
Language: en
Country: null
--></g></svg>
