<?xml version="1.0" encoding="UTF-8" standalone="no"?><svg xmlns="http://www.w3.org/2000/svg" xmlns:xlink="http://www.w3.org/1999/xlink" contentStyleType="text/css" height="261px" preserveAspectRatio="none" style="width:200px;height:261px;background:#FFFFFF;" version="1.1" viewBox="0 0 200 261" width="200px" zoomAndPan="magnify"><defs><filter height="1" id="b5mftbu5yx4ra0" width="1" x="0" y="0"><feFlood flood-color="#000000" result="flood"/><feComposite in="SourceGraphic" in2="flood" operator="over"/></filter><filter height="1" id="b5mftbu5yx4ra1" width="1" x="0" y="0"><feFlood flood-color="#008000" result="flood"/><feComposite in="SourceGraphic" in2="flood" operator="over"/></filter><filter height="1" id="b5mftbu5yx4ra2" width="1" x="0" y="0"><feFlood flood-color="#0000FF" result="flood"/><feComposite in="SourceGraphic" in2="flood" operator="over"/></filter></defs><g><!--MD5=[0f1f9c944e0ace472fa534c547cf56c8]
class CustomFieldSetType--><a href="CustomFieldSetType.svg" target="_top" title="CustomFieldSetType.svg" xlink:actuate="onRequest" xlink:href="CustomFieldSetType.svg" xlink:show="new" xlink:title="CustomFieldSetType.svg" xlink:type="simple"><g id="elem_CustomFieldSetType"><rect codeLine="10" fill="#F1F1F1" height="72.5938" id="CustomFieldSetType" rx="2.5" ry="2.5" style="stroke:#181818;stroke-width:0.5;" width="178" x="15.5" y="88.2969"/><ellipse cx="31.85" cy="104.2969" fill="#B4A7E5" rx="11" ry="11" style="stroke:#181818;stroke-width:1.0;"/><path d="M27.7719,100.0625 L27.7719,97.9063 L35.1625,97.9063 L35.1625,100.0625 L32.6938,100.0625 L32.6938,108.1406 L35.1625,108.1406 L35.1625,110.2969 L27.7719,110.2969 L27.7719,108.1406 L30.2406,108.1406 L30.2406,100.0625 L27.7719,100.0625 Z " fill="#000000"/><text fill="#000000" font-family="sans-serif" font-size="14" font-style="italic" lengthAdjust="spacing" textLength="143" x="46.15" y="109.1436">CustomFieldSetType</text><line style="stroke:#181818;stroke-width:0.5;" x1="16.5" x2="192.5" y1="120.2969" y2="120.2969"/><text fill="#000000" font-family="sans-serif" font-size="14" lengthAdjust="spacing" textLength="88" x="21.5" y="137.292">name: String</text><text fill="#000000" font-family="sans-serif" font-size="14" lengthAdjust="spacing" textLength="96" x="21.5" y="153.5889">elementType:</text><a href="FieldType.svg" target="_top" title="FieldType.svg" xlink:actuate="onRequest" xlink:href="FieldType.svg" xlink:show="new" xlink:title="FieldType.svg" xlink:type="simple"><text fill="#0000FF" font-family="sans-serif" font-size="14" lengthAdjust="spacing" text-decoration="underline" textLength="66" x="121.5" y="153.5889">FieldType</text></a></g></a><!--MD5=[b1e1556f4d9551c859c25b35078bae62]
class FieldType--><a href="FieldType.svg" target="_top" title="FieldType.svg" xlink:actuate="onRequest" xlink:href="FieldType.svg" xlink:show="new" xlink:title="FieldType.svg" xlink:type="simple"><g id="elem_FieldType"><rect codeLine="14" fill="#F1F1F1" height="56.2969" id="FieldType" rx="2.5" ry="2.5" style="stroke:#181818;stroke-width:0.5;" width="100" x="54.5" y="12"/><ellipse cx="69.95" cy="28" fill="#B4A7E5" rx="11" ry="11" style="stroke:#181818;stroke-width:1.0;"/><path d="M65.8719,23.7656 L65.8719,21.6094 L73.2625,21.6094 L73.2625,23.7656 L70.7938,23.7656 L70.7938,31.8438 L73.2625,31.8438 L73.2625,34 L65.8719,34 L65.8719,31.8438 L68.3406,31.8438 L68.3406,23.7656 L65.8719,23.7656 Z " fill="#000000"/><text fill="#000000" font-family="sans-serif" font-size="14" font-style="italic" lengthAdjust="spacing" textLength="67" x="84.05" y="32.8467">FieldType</text><line style="stroke:#181818;stroke-width:0.5;" x1="55.5" x2="153.5" y1="44" y2="44"/><text fill="#000000" font-family="sans-serif" font-size="14" lengthAdjust="spacing" textLength="88" x="60.5" y="60.9951">name: String</text></g></a><line style="stroke:#181818;stroke-width:1.0;" x1="104.5" x2="104.5" y1="68.2969" y2="88.2969"/><polygon fill="#FFFFFF" points="104.5,68.2969,97.5,87.2969,111.5,87.2969,104.5,68.2969" style="stroke:#181818;stroke-width:1.0;"/><rect fill="#DDDDDD" height="79.1875" id="_legend" rx="7.5" ry="7.5" style="stroke:#000000;stroke-width:1.0;" width="161" x="12" y="161.8906"/><text fill="#000000" font-family="sans-serif" font-size="14" font-weight="bold" lengthAdjust="spacing" textLength="5" x="17" y="181.8857"> </text><text fill="#000000" font-family="sans-serif" font-size="14" font-weight="bold" lengthAdjust="spacing" textLength="28" x="34" y="181.8857">line</text><text fill="#000000" filter="url(#b5mftbu5yx4ra0)" font-family="sans-serif" font-size="14" lengthAdjust="spacing" textLength="12" x="17" y="198.1826">   </text><text fill="#000000" font-family="sans-serif" font-size="14" lengthAdjust="spacing" textLength="77" x="33" y="198.1826">inheritance</text><text fill="#000000" filter="url(#b5mftbu5yx4ra1)" font-family="sans-serif" font-size="14" lengthAdjust="spacing" textLength="12" x="17" y="214.4795">   </text><text fill="#000000" font-family="sans-serif" font-size="14" lengthAdjust="spacing" textLength="129" x="33" y="214.4795">property reference</text><text fill="#000000" filter="url(#b5mftbu5yx4ra2)" font-family="sans-serif" font-size="14" lengthAdjust="spacing" textLength="12" x="17" y="230.7764">   </text><text fill="#000000" font-family="sans-serif" font-size="14" lengthAdjust="spacing" textLength="131" x="33" y="230.7764">discriminated class</text><line style="stroke:#000000;stroke-width:1.0;" x1="17" x2="168" y1="168.8906" y2="168.8906"/><line style="stroke:#000000;stroke-width:1.0;" x1="17" x2="168" y1="185.1875" y2="185.1875"/><line style="stroke:#000000;stroke-width:1.0;" x1="17" x2="168" y1="201.4844" y2="201.4844"/><line style="stroke:#000000;stroke-width:1.0;" x1="17" x2="168" y1="217.7813" y2="217.7813"/><line style="stroke:#000000;stroke-width:1.0;" x1="17" x2="168" y1="234.0781" y2="234.0781"/><line style="stroke:#000000;stroke-width:1.0;" x1="17" x2="17" y1="168.8906" y2="234.0781"/><line style="stroke:#000000;stroke-width:1.0;" x1="29" x2="29" y1="168.8906" y2="234.0781"/><line style="stroke:#000000;stroke-width:1.0;" x1="168" x2="168" y1="168.8906" y2="234.0781"/><!--MD5=[451ff7aae36bd0b8f668e40ae7272b5e]
@startuml
!pragma layout elk
hide empty fields
hide empty methods
legend
|= |= line |
|<back:black>   </back>| inheritance |
|<back:green>   </back>| property reference |
|<back:blue>   </back>| discriminated class |
endlegend
interface CustomFieldSetType [[CustomFieldSetType.svg]] extends FieldType {
    name: String
    elementType: [[FieldType.svg FieldType]]
}
interface FieldType [[FieldType.svg]]  {
    name: String
}





@enduml

PlantUML version 1.2022.13(Sat Nov 19 13:22:17 UTC 2022)
(GPL source distribution)
Java Runtime: OpenJDK Runtime Environment
JVM: OpenJDK 64-Bit Server VM
Default Encoding: UTF-8
Language: en
Country: null
--></g></svg>
