<?xml version="1.0" encoding="UTF-8" standalone="no"?><svg xmlns="http://www.w3.org/2000/svg" xmlns:xlink="http://www.w3.org/1999/xlink" contentStyleType="text/css" height="342px" preserveAspectRatio="none" style="width:1532px;height:342px;background:#FFFFFF;" version="1.1" viewBox="0 0 1532 342" width="1532px" zoomAndPan="magnify"><defs><filter height="1" id="b175yhhloqy7y70" width="1" x="0" y="0"><feFlood flood-color="#000000" result="flood"/><feComposite in="SourceGraphic" in2="flood" operator="over"/></filter><filter height="1" id="b175yhhloqy7y71" width="1" x="0" y="0"><feFlood flood-color="#008000" result="flood"/><feComposite in="SourceGraphic" in2="flood" operator="over"/></filter><filter height="1" id="b175yhhloqy7y72" width="1" x="0" y="0"><feFlood flood-color="#0000FF" result="flood"/><feComposite in="SourceGraphic" in2="flood" operator="over"/></filter></defs><g><!--MD5=[6d2b3ba83663bb78bc5214f7f2705711]
class CustomerGroupUpdateAction--><a href="CustomerGroupUpdateAction.svg" target="_top" title="CustomerGroupUpdateAction.svg" xlink:actuate="onRequest" xlink:href="CustomerGroupUpdateAction.svg" xlink:show="new" xlink:title="CustomerGroupUpdateAction.svg" xlink:type="simple"><g id="elem_CustomerGroupUpdateAction"><rect codeLine="10" fill="#F1F1F1" height="56.2969" id="CustomerGroupUpdateAction" rx="2.5" ry="2.5" style="stroke:#181818;stroke-width:0.5;" width="236" x="125.6667" y="12"/><ellipse cx="140.6667" cy="28" fill="#B4A7E5" rx="11" ry="11" style="stroke:#181818;stroke-width:1.0;"/><path d="M136.5885,23.7656 L136.5885,21.6094 L143.9792,21.6094 L143.9792,23.7656 L141.5104,23.7656 L141.5104,31.8438 L143.9792,31.8438 L143.9792,34 L136.5885,34 L136.5885,31.8438 L139.0573,31.8438 L139.0573,23.7656 L136.5885,23.7656 Z " fill="#000000"/><text fill="#000000" font-family="sans-serif" font-size="14" font-style="italic" lengthAdjust="spacing" textLength="204" x="154.6667" y="32.8467">CustomerGroupUpdateAction</text><line style="stroke:#181818;stroke-width:0.5;" x1="126.6667" x2="360.6667" y1="44" y2="44"/><text fill="#000000" font-family="sans-serif" font-size="14" lengthAdjust="spacing" textLength="91" x="131.6667" y="60.9951">action: String</text></g></a><!--MD5=[72a71f425dd9dd2ff77529b90a5d7308]
class CustomerGroupChangeNameAction--><a href="CustomerGroupChangeNameAction.svg" target="_top" title="CustomerGroupChangeNameAction.svg" xlink:actuate="onRequest" xlink:href="CustomerGroupChangeNameAction.svg" xlink:show="new" xlink:title="CustomerGroupChangeNameAction.svg" xlink:type="simple"><g id="elem_CustomerGroupChangeNameAction"><rect codeLine="15" fill="#F1F1F1" height="72.5938" id="CustomerGroupChangeNameAction" rx="2.5" ry="2.5" style="stroke:#181818;stroke-width:0.5;" width="281" x="930.5" y="153.4297"/><ellipse cx="945.5" cy="169.4297" fill="#B4A7E5" rx="11" ry="11" style="stroke:#181818;stroke-width:1.0;"/><path d="M941.4219,165.1953 L941.4219,163.0391 L948.8125,163.0391 L948.8125,165.1953 L946.3438,165.1953 L946.3438,173.2734 L948.8125,173.2734 L948.8125,175.4297 L941.4219,175.4297 L941.4219,173.2734 L943.8906,173.2734 L943.8906,165.1953 L941.4219,165.1953 Z " fill="#000000"/><text fill="#000000" font-family="sans-serif" font-size="14" font-style="italic" lengthAdjust="spacing" textLength="249" x="959.5" y="174.2764">CustomerGroupChangeNameAction</text><line style="stroke:#181818;stroke-width:0.5;" x1="931.5" x2="1210.5" y1="185.4297" y2="185.4297"/><text fill="#000000" font-family="sans-serif" font-size="14" lengthAdjust="spacing" textLength="91" x="936.5" y="202.4248">action: String</text><text fill="#000000" font-family="sans-serif" font-size="14" lengthAdjust="spacing" textLength="88" x="936.5" y="218.7217">name: String</text></g></a><!--MD5=[66e366514775446d4f8f7a8d44f1d866]
class CustomerGroupSetCustomFieldAction--><a href="CustomerGroupSetCustomFieldAction.svg" target="_top" title="CustomerGroupSetCustomFieldAction.svg" xlink:actuate="onRequest" xlink:href="CustomerGroupSetCustomFieldAction.svg" xlink:show="new" xlink:title="CustomerGroupSetCustomFieldAction.svg" xlink:type="simple"><g id="elem_CustomerGroupSetCustomFieldAction"><rect codeLine="19" fill="#F1F1F1" height="88.8906" id="CustomerGroupSetCustomFieldAction" rx="2.5" ry="2.5" style="stroke:#181818;stroke-width:0.5;" width="294" x="1231.5" y="153.4297"/><ellipse cx="1246.5" cy="169.4297" fill="#B4A7E5" rx="11" ry="11" style="stroke:#181818;stroke-width:1.0;"/><path d="M1242.4219,165.1953 L1242.4219,163.0391 L1249.8125,163.0391 L1249.8125,165.1953 L1247.3438,165.1953 L1247.3438,173.2734 L1249.8125,173.2734 L1249.8125,175.4297 L1242.4219,175.4297 L1242.4219,173.2734 L1244.8906,173.2734 L1244.8906,165.1953 L1242.4219,165.1953 Z " fill="#000000"/><text fill="#000000" font-family="sans-serif" font-size="14" font-style="italic" lengthAdjust="spacing" textLength="262" x="1260.5" y="174.2764">CustomerGroupSetCustomFieldAction</text><line style="stroke:#181818;stroke-width:0.5;" x1="1232.5" x2="1524.5" y1="185.4297" y2="185.4297"/><text fill="#000000" font-family="sans-serif" font-size="14" lengthAdjust="spacing" textLength="91" x="1237.5" y="202.4248">action: String</text><text fill="#000000" font-family="sans-serif" font-size="14" lengthAdjust="spacing" textLength="88" x="1237.5" y="218.7217">name: String</text><text fill="#000000" font-family="sans-serif" font-size="14" lengthAdjust="spacing" textLength="41" x="1237.5" y="235.0186">value:</text><a href="Object.svg" target="_top" title="Object.svg" xlink:actuate="onRequest" xlink:href="Object.svg" xlink:show="new" xlink:title="Object.svg" xlink:type="simple"><text fill="#0000FF" font-family="sans-serif" font-size="14" lengthAdjust="spacing" text-decoration="underline" textLength="45" x="1282.5" y="235.0186">Object</text></a></g></a><!--MD5=[c515d26d543abfec2caf68d9b3b69246]
class CustomerGroupSetCustomTypeAction--><a href="CustomerGroupSetCustomTypeAction.svg" target="_top" title="CustomerGroupSetCustomTypeAction.svg" xlink:actuate="onRequest" xlink:href="CustomerGroupSetCustomTypeAction.svg" xlink:show="new" xlink:title="CustomerGroupSetCustomTypeAction.svg" xlink:type="simple"><g id="elem_CustomerGroupSetCustomTypeAction"><rect codeLine="24" fill="#F1F1F1" height="88.8906" id="CustomerGroupSetCustomTypeAction" rx="2.5" ry="2.5" style="stroke:#181818;stroke-width:0.5;" width="297" x="16.5" y="153.4297"/><ellipse cx="31.5" cy="169.4297" fill="#B4A7E5" rx="11" ry="11" style="stroke:#181818;stroke-width:1.0;"/><path d="M27.4219,165.1953 L27.4219,163.0391 L34.8125,163.0391 L34.8125,165.1953 L32.3438,165.1953 L32.3438,173.2734 L34.8125,173.2734 L34.8125,175.4297 L27.4219,175.4297 L27.4219,173.2734 L29.8906,173.2734 L29.8906,165.1953 L27.4219,165.1953 Z " fill="#000000"/><text fill="#000000" font-family="sans-serif" font-size="14" font-style="italic" lengthAdjust="spacing" textLength="265" x="45.5" y="174.2764">CustomerGroupSetCustomTypeAction</text><line style="stroke:#181818;stroke-width:0.5;" x1="17.5" x2="312.5" y1="185.4297" y2="185.4297"/><text fill="#000000" font-family="sans-serif" font-size="14" lengthAdjust="spacing" textLength="91" x="22.5" y="202.4248">action: String</text><text fill="#000000" font-family="sans-serif" font-size="14" lengthAdjust="spacing" textLength="35" x="22.5" y="218.7217">type:</text><a href="TypeResourceIdentifier.svg" target="_top" title="TypeResourceIdentifier.svg" xlink:actuate="onRequest" xlink:href="TypeResourceIdentifier.svg" xlink:show="new" xlink:title="TypeResourceIdentifier.svg" xlink:type="simple"><text fill="#0000FF" font-family="sans-serif" font-size="14" lengthAdjust="spacing" text-decoration="underline" textLength="160" x="61.5" y="218.7217">TypeResourceIdentifier</text></a><text fill="#000000" font-family="sans-serif" font-size="14" lengthAdjust="spacing" textLength="41" x="22.5" y="235.0186">fields:</text><a href="FieldContainer.svg" target="_top" title="FieldContainer.svg" xlink:actuate="onRequest" xlink:href="FieldContainer.svg" xlink:show="new" xlink:title="FieldContainer.svg" xlink:type="simple"><text fill="#0000FF" font-family="sans-serif" font-size="14" lengthAdjust="spacing" text-decoration="underline" textLength="99" x="67.5" y="235.0186">FieldContainer</text></a></g></a><!--MD5=[0a1a277149e23596e9048168990e4d65]
class CustomerGroupSetKeyAction--><a href="CustomerGroupSetKeyAction.svg" target="_top" title="CustomerGroupSetKeyAction.svg" xlink:actuate="onRequest" xlink:href="CustomerGroupSetKeyAction.svg" xlink:show="new" xlink:title="CustomerGroupSetKeyAction.svg" xlink:type="simple"><g id="elem_CustomerGroupSetKeyAction"><rect codeLine="29" fill="#F1F1F1" height="72.5938" id="CustomerGroupSetKeyAction" rx="2.5" ry="2.5" style="stroke:#181818;stroke-width:0.5;" width="235" x="333.5" y="153.4297"/><ellipse cx="348.5" cy="169.4297" fill="#B4A7E5" rx="11" ry="11" style="stroke:#181818;stroke-width:1.0;"/><path d="M344.4219,165.1953 L344.4219,163.0391 L351.8125,163.0391 L351.8125,165.1953 L349.3438,165.1953 L349.3438,173.2734 L351.8125,173.2734 L351.8125,175.4297 L344.4219,175.4297 L344.4219,173.2734 L346.8906,173.2734 L346.8906,165.1953 L344.4219,165.1953 Z " fill="#000000"/><text fill="#000000" font-family="sans-serif" font-size="14" font-style="italic" lengthAdjust="spacing" textLength="203" x="362.5" y="174.2764">CustomerGroupSetKeyAction</text><line style="stroke:#181818;stroke-width:0.5;" x1="334.5" x2="567.5" y1="185.4297" y2="185.4297"/><text fill="#000000" font-family="sans-serif" font-size="14" lengthAdjust="spacing" textLength="91" x="339.5" y="202.4248">action: String</text><text fill="#000000" font-family="sans-serif" font-size="14" lengthAdjust="spacing" textLength="73" x="339.5" y="218.7217">key: String</text></g></a><!--MD5=[0cbd2251487eeb60ec57ed254f71629f]
class CustomerGroupUpdate--><a href="CustomerGroupUpdate.svg" target="_top" title="CustomerGroupUpdate.svg" xlink:actuate="onRequest" xlink:href="CustomerGroupUpdate.svg" xlink:show="new" xlink:title="CustomerGroupUpdate.svg" xlink:type="simple"><g id="elem_CustomerGroupUpdate"><rect codeLine="33" fill="#F1F1F1" height="72.5938" id="CustomerGroupUpdate" rx="2.5" ry="2.5" style="stroke:#181818;stroke-width:0.5;" width="322" x="588.5" y="153.4297"/><ellipse cx="665.25" cy="169.4297" fill="#B4A7E5" rx="11" ry="11" style="stroke:#181818;stroke-width:1.0;"/><path d="M661.1719,165.1953 L661.1719,163.0391 L668.5625,163.0391 L668.5625,165.1953 L666.0938,165.1953 L666.0938,173.2734 L668.5625,173.2734 L668.5625,175.4297 L661.1719,175.4297 L661.1719,173.2734 L663.6406,173.2734 L663.6406,165.1953 L661.1719,165.1953 Z " fill="#000000"/><text fill="#000000" font-family="sans-serif" font-size="14" font-style="italic" lengthAdjust="spacing" textLength="160" x="685.75" y="174.2764">CustomerGroupUpdate</text><line style="stroke:#181818;stroke-width:0.5;" x1="589.5" x2="909.5" y1="185.4297" y2="185.4297"/><text fill="#000000" font-family="sans-serif" font-size="14" lengthAdjust="spacing" textLength="93" x="594.5" y="202.4248">version: Long</text><text fill="#000000" font-family="sans-serif" font-size="14" lengthAdjust="spacing" textLength="55" x="594.5" y="218.7217">actions:</text><a href="CustomerGroupUpdateAction.svg" target="_top" title="CustomerGroupUpdateAction.svg" xlink:actuate="onRequest" xlink:href="CustomerGroupUpdateAction.svg" xlink:show="new" xlink:title="CustomerGroupUpdateAction.svg" xlink:type="simple"><text fill="#0000FF" font-family="sans-serif" font-size="14" lengthAdjust="spacing" text-decoration="underline" textLength="251" x="653.5" y="218.7217">List&lt;CustomerGroupUpdateAction&gt;</text></a></g></a><line style="stroke:#0000FF;stroke-width:1.0;" x1="283" x2="283" y1="68.2969" y2="88.2969"/><line style="stroke:#0000FF;stroke-width:1.0;" x1="283" x2="1071" y1="88.2969" y2="88.2969"/><line style="stroke:#0000FF;stroke-width:1.0;" x1="1071" x2="1071" y1="88.2969" y2="153.4297"/><polygon fill="#0000FF" points="1071,153.4297,1075,144.4297,1071,148.4297,1067,144.4297,1071,153.4297" style="stroke:#0000FF;stroke-width:1.0;"/><text fill="#000000" font-family="sans-serif" font-size="13" lengthAdjust="spacing" textLength="137" x="932" y="130.3638">action : changeName</text><line style="stroke:#0000FF;stroke-width:1.0;" x1="322.3333" x2="322.3333" y1="68.2969" y2="78.2969"/><line style="stroke:#0000FF;stroke-width:1.0;" x1="322.3333" x2="1378.5" y1="78.2969" y2="78.2969"/><line style="stroke:#0000FF;stroke-width:1.0;" x1="1378.5" x2="1378.5" y1="78.2969" y2="153.4297"/><polygon fill="#0000FF" points="1378.5,153.4297,1382.5,144.4297,1378.5,148.4297,1374.5,144.4297,1378.5,153.4297" style="stroke:#0000FF;stroke-width:1.0;"/><text fill="#000000" font-family="sans-serif" font-size="13" lengthAdjust="spacing" textLength="150" x="1226.5" y="130.3638">action : setCustomField</text><line style="stroke:#0000FF;stroke-width:1.0;" x1="165" x2="165" y1="68.2969" y2="153.4297"/><polygon fill="#0000FF" points="165,153.4297,169,144.4297,165,148.4297,161,144.4297,165,153.4297" style="stroke:#0000FF;stroke-width:1.0;"/><text fill="#000000" font-family="sans-serif" font-size="13" lengthAdjust="spacing" textLength="151" x="12" y="130.3638">action : setCustomType</text><line style="stroke:#0000FF;stroke-width:1.0;" x1="204.3333" x2="204.3333" y1="68.2969" y2="108.2969"/><line style="stroke:#0000FF;stroke-width:1.0;" x1="204.3333" x2="451" y1="108.2969" y2="108.2969"/><line style="stroke:#0000FF;stroke-width:1.0;" x1="451" x2="451" y1="108.2969" y2="153.4297"/><polygon fill="#0000FF" points="451,153.4297,455,144.4297,451,148.4297,447,144.4297,451,153.4297" style="stroke:#0000FF;stroke-width:1.0;"/><text fill="#000000" font-family="sans-serif" font-size="13" lengthAdjust="spacing" textLength="94" x="355" y="130.3638">action : setKey</text><line style="stroke:#008000;stroke-width:1.0;" x1="243.6667" x2="243.6667" y1="68.2969" y2="98.2969"/><line style="stroke:#008000;stroke-width:1.0;" x1="243.6667" x2="749.5" y1="98.2969" y2="98.2969"/><line style="stroke:#008000;stroke-width:1.0;" x1="749.5" x2="749.5" y1="98.2969" y2="153.4297"/><polygon fill="#008000" points="749.5,153.4297,753.5,144.4297,749.5,148.4297,745.5,144.4297,749.5,153.4297" style="stroke:#008000;stroke-width:1.0;"/><text fill="#000000" font-family="sans-serif" font-size="13" lengthAdjust="spacing" textLength="46" x="701.5" y="130.3638">actions</text><rect fill="#DDDDDD" height="79.1875" id="_legend" rx="7.5" ry="7.5" style="stroke:#000000;stroke-width:1.0;" width="161" x="675.75" y="243.3203"/><text fill="#000000" font-family="sans-serif" font-size="14" font-weight="bold" lengthAdjust="spacing" textLength="5" x="680.75" y="263.3154"> </text><text fill="#000000" font-family="sans-serif" font-size="14" font-weight="bold" lengthAdjust="spacing" textLength="28" x="697.75" y="263.3154">line</text><text fill="#000000" filter="url(#b175yhhloqy7y70)" font-family="sans-serif" font-size="14" lengthAdjust="spacing" textLength="12" x="680.75" y="279.6123">   </text><text fill="#000000" font-family="sans-serif" font-size="14" lengthAdjust="spacing" textLength="77" x="696.75" y="279.6123">inheritance</text><text fill="#000000" filter="url(#b175yhhloqy7y71)" font-family="sans-serif" font-size="14" lengthAdjust="spacing" textLength="12" x="680.75" y="295.9092">   </text><text fill="#000000" font-family="sans-serif" font-size="14" lengthAdjust="spacing" textLength="129" x="696.75" y="295.9092">property reference</text><text fill="#000000" filter="url(#b175yhhloqy7y72)" font-family="sans-serif" font-size="14" lengthAdjust="spacing" textLength="12" x="680.75" y="312.2061">   </text><text fill="#000000" font-family="sans-serif" font-size="14" lengthAdjust="spacing" textLength="131" x="696.75" y="312.2061">discriminated class</text><line style="stroke:#000000;stroke-width:1.0;" x1="680.75" x2="831.75" y1="250.3203" y2="250.3203"/><line style="stroke:#000000;stroke-width:1.0;" x1="680.75" x2="831.75" y1="266.6172" y2="266.6172"/><line style="stroke:#000000;stroke-width:1.0;" x1="680.75" x2="831.75" y1="282.9141" y2="282.9141"/><line style="stroke:#000000;stroke-width:1.0;" x1="680.75" x2="831.75" y1="299.2109" y2="299.2109"/><line style="stroke:#000000;stroke-width:1.0;" x1="680.75" x2="831.75" y1="315.5078" y2="315.5078"/><line style="stroke:#000000;stroke-width:1.0;" x1="680.75" x2="680.75" y1="250.3203" y2="315.5078"/><line style="stroke:#000000;stroke-width:1.0;" x1="692.75" x2="692.75" y1="250.3203" y2="315.5078"/><line style="stroke:#000000;stroke-width:1.0;" x1="831.75" x2="831.75" y1="250.3203" y2="315.5078"/><!--MD5=[09a7767cc3cd7ba706fac06426694019]
@startuml
!pragma layout elk
hide empty fields
hide empty methods
legend
|= |= line |
|<back:black>   </back>| inheritance |
|<back:green>   </back>| property reference |
|<back:blue>   </back>| discriminated class |
endlegend
interface CustomerGroupUpdateAction [[CustomerGroupUpdateAction.svg]]  {
    action: String
}


interface CustomerGroupChangeNameAction [[CustomerGroupChangeNameAction.svg]]  {
    action: String
    name: String
}
interface CustomerGroupSetCustomFieldAction [[CustomerGroupSetCustomFieldAction.svg]]  {
    action: String
    name: String
    value: [[Object.svg Object]]
}
interface CustomerGroupSetCustomTypeAction [[CustomerGroupSetCustomTypeAction.svg]]  {
    action: String
    type: [[TypeResourceIdentifier.svg TypeResourceIdentifier]]
    fields: [[FieldContainer.svg FieldContainer]]
}
interface CustomerGroupSetKeyAction [[CustomerGroupSetKeyAction.svg]]  {
    action: String
    key: String
}
interface CustomerGroupUpdate [[CustomerGroupUpdate.svg]]  {
    version: Long
    actions: [[CustomerGroupUpdateAction.svg List<CustomerGroupUpdateAction>]]
}
CustomerGroupUpdateAction - -> CustomerGroupChangeNameAction #blue;text:blue : "action : changeName"
CustomerGroupUpdateAction - -> CustomerGroupSetCustomFieldAction #blue;text:blue : "action : setCustomField"
CustomerGroupUpdateAction - -> CustomerGroupSetCustomTypeAction #blue;text:blue : "action : setCustomType"
CustomerGroupUpdateAction - -> CustomerGroupSetKeyAction #blue;text:blue : "action : setKey"
CustomerGroupUpdateAction - -> CustomerGroupUpdate #green;text:green : "actions"
@enduml

PlantUML version 1.2022.13(Sat Nov 19 13:22:17 UTC 2022)
(GPL source distribution)
Java Runtime: OpenJDK Runtime Environment
JVM: OpenJDK 64-Bit Server VM
Default Encoding: UTF-8
Language: en
Country: null
--></g></svg>
