<?xml version="1.0" encoding="UTF-8" standalone="no"?><svg xmlns="http://www.w3.org/2000/svg" xmlns:xlink="http://www.w3.org/1999/xlink" contentStyleType="text/css" height="244px" preserveAspectRatio="none" style="width:275px;height:244px;background:#FFFFFF;" version="1.1" viewBox="0 0 275 244" width="275px" zoomAndPan="magnify"><defs><filter height="1" id="bd4b0ne7jnns90" width="1" x="0" y="0"><feFlood flood-color="#000000" result="flood"/><feComposite in="SourceGraphic" in2="flood" operator="over"/></filter><filter height="1" id="bd4b0ne7jnns91" width="1" x="0" y="0"><feFlood flood-color="#008000" result="flood"/><feComposite in="SourceGraphic" in2="flood" operator="over"/></filter><filter height="1" id="bd4b0ne7jnns92" width="1" x="0" y="0"><feFlood flood-color="#0000FF" result="flood"/><feComposite in="SourceGraphic" in2="flood" operator="over"/></filter></defs><g><!--MD5=[07a2c3b3033b93487a448cad38068e3a]
class CustomFieldLocalizedStringType--><a href="CustomFieldLocalizedStringType.svg" target="_top" title="CustomFieldLocalizedStringType.svg" xlink:actuate="onRequest" xlink:href="CustomFieldLocalizedStringType.svg" xlink:show="new" xlink:title="CustomFieldLocalizedStringType.svg" xlink:type="simple"><g id="elem_CustomFieldLocalizedStringType"><rect codeLine="10" fill="#F1F1F1" height="56.2969" id="CustomFieldLocalizedStringType" rx="2.5" ry="2.5" style="stroke:#181818;stroke-width:0.5;" width="256" x="12" y="88.2969"/><ellipse cx="27" cy="104.2969" fill="#B4A7E5" rx="11" ry="11" style="stroke:#181818;stroke-width:1.0;"/><path d="M22.9219,100.0625 L22.9219,97.9063 L30.3125,97.9063 L30.3125,100.0625 L27.8438,100.0625 L27.8438,108.1406 L30.3125,108.1406 L30.3125,110.2969 L22.9219,110.2969 L22.9219,108.1406 L25.3906,108.1406 L25.3906,100.0625 L22.9219,100.0625 Z " fill="#000000"/><text fill="#000000" font-family="sans-serif" font-size="14" font-style="italic" lengthAdjust="spacing" textLength="224" x="41" y="109.1436">CustomFieldLocalizedStringType</text><line style="stroke:#181818;stroke-width:0.5;" x1="13" x2="267" y1="120.2969" y2="120.2969"/><text fill="#000000" font-family="sans-serif" font-size="14" lengthAdjust="spacing" textLength="88" x="18" y="137.292">name: String</text></g></a><!--MD5=[b1e1556f4d9551c859c25b35078bae62]
class FieldType--><a href="FieldType.svg" target="_top" title="FieldType.svg" xlink:actuate="onRequest" xlink:href="FieldType.svg" xlink:show="new" xlink:title="FieldType.svg" xlink:type="simple"><g id="elem_FieldType"><rect codeLine="13" fill="#F1F1F1" height="56.2969" id="FieldType" rx="2.5" ry="2.5" style="stroke:#181818;stroke-width:0.5;" width="100" x="90" y="12"/><ellipse cx="105.45" cy="28" fill="#B4A7E5" rx="11" ry="11" style="stroke:#181818;stroke-width:1.0;"/><path d="M101.3719,23.7656 L101.3719,21.6094 L108.7625,21.6094 L108.7625,23.7656 L106.2938,23.7656 L106.2938,31.8438 L108.7625,31.8438 L108.7625,34 L101.3719,34 L101.3719,31.8438 L103.8406,31.8438 L103.8406,23.7656 L101.3719,23.7656 Z " fill="#000000"/><text fill="#000000" font-family="sans-serif" font-size="14" font-style="italic" lengthAdjust="spacing" textLength="67" x="119.55" y="32.8467">FieldType</text><line style="stroke:#181818;stroke-width:0.5;" x1="91" x2="189" y1="44" y2="44"/><text fill="#000000" font-family="sans-serif" font-size="14" lengthAdjust="spacing" textLength="88" x="96" y="60.9951">name: String</text></g></a><line style="stroke:#181818;stroke-width:1.0;" x1="140" x2="140" y1="68.2969" y2="88.2969"/><polygon fill="#FFFFFF" points="140,68.2969,133,87.2969,147,87.2969,140,68.2969" style="stroke:#181818;stroke-width:1.0;"/><rect fill="#DDDDDD" height="79.1875" id="_legend" rx="7.5" ry="7.5" style="stroke:#000000;stroke-width:1.0;" width="161" x="47.5" y="145.5938"/><text fill="#000000" font-family="sans-serif" font-size="14" font-weight="bold" lengthAdjust="spacing" textLength="5" x="52.5" y="165.5889"> </text><text fill="#000000" font-family="sans-serif" font-size="14" font-weight="bold" lengthAdjust="spacing" textLength="28" x="69.5" y="165.5889">line</text><text fill="#000000" filter="url(#bd4b0ne7jnns90)" font-family="sans-serif" font-size="14" lengthAdjust="spacing" textLength="12" x="52.5" y="181.8857">   </text><text fill="#000000" font-family="sans-serif" font-size="14" lengthAdjust="spacing" textLength="77" x="68.5" y="181.8857">inheritance</text><text fill="#000000" filter="url(#bd4b0ne7jnns91)" font-family="sans-serif" font-size="14" lengthAdjust="spacing" textLength="12" x="52.5" y="198.1826">   </text><text fill="#000000" font-family="sans-serif" font-size="14" lengthAdjust="spacing" textLength="129" x="68.5" y="198.1826">property reference</text><text fill="#000000" filter="url(#bd4b0ne7jnns92)" font-family="sans-serif" font-size="14" lengthAdjust="spacing" textLength="12" x="52.5" y="214.4795">   </text><text fill="#000000" font-family="sans-serif" font-size="14" lengthAdjust="spacing" textLength="131" x="68.5" y="214.4795">discriminated class</text><line style="stroke:#000000;stroke-width:1.0;" x1="52.5" x2="203.5" y1="152.5938" y2="152.5938"/><line style="stroke:#000000;stroke-width:1.0;" x1="52.5" x2="203.5" y1="168.8906" y2="168.8906"/><line style="stroke:#000000;stroke-width:1.0;" x1="52.5" x2="203.5" y1="185.1875" y2="185.1875"/><line style="stroke:#000000;stroke-width:1.0;" x1="52.5" x2="203.5" y1="201.4844" y2="201.4844"/><line style="stroke:#000000;stroke-width:1.0;" x1="52.5" x2="203.5" y1="217.7813" y2="217.7813"/><line style="stroke:#000000;stroke-width:1.0;" x1="52.5" x2="52.5" y1="152.5938" y2="217.7813"/><line style="stroke:#000000;stroke-width:1.0;" x1="64.5" x2="64.5" y1="152.5938" y2="217.7813"/><line style="stroke:#000000;stroke-width:1.0;" x1="203.5" x2="203.5" y1="152.5938" y2="217.7813"/><!--MD5=[8e2779e9828e30eeabbc9378c7560916]
@startuml
!pragma layout elk
hide empty fields
hide empty methods
legend
|= |= line |
|<back:black>   </back>| inheritance |
|<back:green>   </back>| property reference |
|<back:blue>   </back>| discriminated class |
endlegend
interface CustomFieldLocalizedStringType [[CustomFieldLocalizedStringType.svg]] extends FieldType {
    name: String
}
interface FieldType [[FieldType.svg]]  {
    name: String
}





@enduml

PlantUML version 1.2022.13(Sat Nov 19 13:22:17 UTC 2022)
(GPL source distribution)
Java Runtime: OpenJDK Runtime Environment
JVM: OpenJDK 64-Bit Server VM
Default Encoding: UTF-8
Language: en
Country: null
--></g></svg>
