<?xml version="1.0" encoding="UTF-8" standalone="no"?><svg xmlns="http://www.w3.org/2000/svg" xmlns:xlink="http://www.w3.org/1999/xlink" contentStyleType="text/css" height="261px" preserveAspectRatio="none" style="width:324px;height:261px;background:#FFFFFF;" version="1.1" viewBox="0 0 324 261" width="324px" zoomAndPan="magnify"><defs><filter height="1" id="bmej6uorodtwh0" width="1" x="0" y="0"><feFlood flood-color="#000000" result="flood"/><feComposite in="SourceGraphic" in2="flood" operator="over"/></filter><filter height="1" id="bmej6uorodtwh1" width="1" x="0" y="0"><feFlood flood-color="#008000" result="flood"/><feComposite in="SourceGraphic" in2="flood" operator="over"/></filter><filter height="1" id="bmej6uorodtwh2" width="1" x="0" y="0"><feFlood flood-color="#0000FF" result="flood"/><feComposite in="SourceGraphic" in2="flood" operator="over"/></filter></defs><g><!--MD5=[f69382fed9b9c6f8c81f2dcd0c16c2ba]
class CustomerLastNameSetMessagePayload--><a href="CustomerLastNameSetMessagePayload.svg" target="_top" title="CustomerLastNameSetMessagePayload.svg" xlink:actuate="onRequest" xlink:href="CustomerLastNameSetMessagePayload.svg" xlink:show="new" xlink:title="CustomerLastNameSetMessagePayload.svg" xlink:type="simple"><g id="elem_CustomerLastNameSetMessagePayload"><rect codeLine="10" fill="#F1F1F1" height="72.5938" id="CustomerLastNameSetMessagePayload" rx="2.5" ry="2.5" style="stroke:#181818;stroke-width:0.5;" width="305" x="12" y="88.2969"/><ellipse cx="27" cy="104.2969" fill="#B4A7E5" rx="11" ry="11" style="stroke:#181818;stroke-width:1.0;"/><path d="M22.9219,100.0625 L22.9219,97.9063 L30.3125,97.9063 L30.3125,100.0625 L27.8438,100.0625 L27.8438,108.1406 L30.3125,108.1406 L30.3125,110.2969 L22.9219,110.2969 L22.9219,108.1406 L25.3906,108.1406 L25.3906,100.0625 L22.9219,100.0625 Z " fill="#000000"/><text fill="#000000" font-family="sans-serif" font-size="14" font-style="italic" lengthAdjust="spacing" textLength="273" x="41" y="109.1436">CustomerLastNameSetMessagePayload</text><line style="stroke:#181818;stroke-width:0.5;" x1="13" x2="316" y1="120.2969" y2="120.2969"/><text fill="#000000" font-family="sans-serif" font-size="14" lengthAdjust="spacing" textLength="79" x="18" y="137.292">type: String</text><text fill="#000000" font-family="sans-serif" font-size="14" lengthAdjust="spacing" textLength="113" x="18" y="153.5889">lastName: String</text></g></a><!--MD5=[bdcbbeb6ff0ef09532e1ab42fdec1480]
class MessagePayload--><a href="MessagePayload.svg" target="_top" title="MessagePayload.svg" xlink:actuate="onRequest" xlink:href="MessagePayload.svg" xlink:show="new" xlink:title="MessagePayload.svg" xlink:type="simple"><g id="elem_MessagePayload"><rect codeLine="14" fill="#F1F1F1" height="56.2969" id="MessagePayload" rx="2.5" ry="2.5" style="stroke:#181818;stroke-width:0.5;" width="146" x="91.5" y="12"/><ellipse cx="106.5" cy="28" fill="#B4A7E5" rx="11" ry="11" style="stroke:#181818;stroke-width:1.0;"/><path d="M102.4219,23.7656 L102.4219,21.6094 L109.8125,21.6094 L109.8125,23.7656 L107.3438,23.7656 L107.3438,31.8438 L109.8125,31.8438 L109.8125,34 L102.4219,34 L102.4219,31.8438 L104.8906,31.8438 L104.8906,23.7656 L102.4219,23.7656 Z " fill="#000000"/><text fill="#000000" font-family="sans-serif" font-size="14" font-style="italic" lengthAdjust="spacing" textLength="114" x="120.5" y="32.8467">MessagePayload</text><line style="stroke:#181818;stroke-width:0.5;" x1="92.5" x2="236.5" y1="44" y2="44"/><text fill="#000000" font-family="sans-serif" font-size="14" lengthAdjust="spacing" textLength="79" x="97.5" y="60.9951">type: String</text></g></a><line style="stroke:#181818;stroke-width:1.0;" x1="164.5" x2="164.5" y1="68.2969" y2="88.2969"/><polygon fill="#FFFFFF" points="164.5,68.2969,157.5,87.2969,171.5,87.2969,164.5,68.2969" style="stroke:#181818;stroke-width:1.0;"/><rect fill="#DDDDDD" height="79.1875" id="_legend" rx="7.5" ry="7.5" style="stroke:#000000;stroke-width:1.0;" width="161" x="72" y="161.8906"/><text fill="#000000" font-family="sans-serif" font-size="14" font-weight="bold" lengthAdjust="spacing" textLength="5" x="77" y="181.8857"> </text><text fill="#000000" font-family="sans-serif" font-size="14" font-weight="bold" lengthAdjust="spacing" textLength="28" x="94" y="181.8857">line</text><text fill="#000000" filter="url(#bmej6uorodtwh0)" font-family="sans-serif" font-size="14" lengthAdjust="spacing" textLength="12" x="77" y="198.1826">   </text><text fill="#000000" font-family="sans-serif" font-size="14" lengthAdjust="spacing" textLength="77" x="93" y="198.1826">inheritance</text><text fill="#000000" filter="url(#bmej6uorodtwh1)" font-family="sans-serif" font-size="14" lengthAdjust="spacing" textLength="12" x="77" y="214.4795">   </text><text fill="#000000" font-family="sans-serif" font-size="14" lengthAdjust="spacing" textLength="129" x="93" y="214.4795">property reference</text><text fill="#000000" filter="url(#bmej6uorodtwh2)" font-family="sans-serif" font-size="14" lengthAdjust="spacing" textLength="12" x="77" y="230.7764">   </text><text fill="#000000" font-family="sans-serif" font-size="14" lengthAdjust="spacing" textLength="131" x="93" y="230.7764">discriminated class</text><line style="stroke:#000000;stroke-width:1.0;" x1="77" x2="228" y1="168.8906" y2="168.8906"/><line style="stroke:#000000;stroke-width:1.0;" x1="77" x2="228" y1="185.1875" y2="185.1875"/><line style="stroke:#000000;stroke-width:1.0;" x1="77" x2="228" y1="201.4844" y2="201.4844"/><line style="stroke:#000000;stroke-width:1.0;" x1="77" x2="228" y1="217.7813" y2="217.7813"/><line style="stroke:#000000;stroke-width:1.0;" x1="77" x2="228" y1="234.0781" y2="234.0781"/><line style="stroke:#000000;stroke-width:1.0;" x1="77" x2="77" y1="168.8906" y2="234.0781"/><line style="stroke:#000000;stroke-width:1.0;" x1="89" x2="89" y1="168.8906" y2="234.0781"/><line style="stroke:#000000;stroke-width:1.0;" x1="228" x2="228" y1="168.8906" y2="234.0781"/><!--MD5=[26b1f971f603c585a691d0e571788f83]
@startuml
!pragma layout elk
hide empty fields
hide empty methods
legend
|= |= line |
|<back:black>   </back>| inheritance |
|<back:green>   </back>| property reference |
|<back:blue>   </back>| discriminated class |
endlegend
interface CustomerLastNameSetMessagePayload [[CustomerLastNameSetMessagePayload.svg]] extends MessagePayload {
    type: String
    lastName: String
}
interface MessagePayload [[MessagePayload.svg]]  {
    type: String
}





@enduml

PlantUML version 1.2022.13(Sat Nov 19 13:22:17 UTC 2022)
(GPL source distribution)
Java Runtime: OpenJDK Runtime Environment
JVM: OpenJDK 64-Bit Server VM
Default Encoding: UTF-8
Language: en
Country: null
--></g></svg>
