<?xml version="1.0" encoding="UTF-8" standalone="no"?><svg xmlns="http://www.w3.org/2000/svg" xmlns:xlink="http://www.w3.org/1999/xlink" contentStyleType="text/css" height="261px" preserveAspectRatio="none" style="width:236px;height:261px;background:#FFFFFF;" version="1.1" viewBox="0 0 236 261" width="236px" zoomAndPan="magnify"><defs><filter height="1" id="b3sm6v8lgoo8b0" width="1" x="0" y="0"><feFlood flood-color="#000000" result="flood"/><feComposite in="SourceGraphic" in2="flood" operator="over"/></filter><filter height="1" id="b3sm6v8lgoo8b1" width="1" x="0" y="0"><feFlood flood-color="#008000" result="flood"/><feComposite in="SourceGraphic" in2="flood" operator="over"/></filter><filter height="1" id="b3sm6v8lgoo8b2" width="1" x="0" y="0"><feFlood flood-color="#0000FF" result="flood"/><feComposite in="SourceGraphic" in2="flood" operator="over"/></filter></defs><g><!--MD5=[ea2e4c522a281c0bc7bfb8fe7107df02]
class DayOfMonthSchedule--><a href="DayOfMonthSchedule.svg" target="_top" title="DayOfMonthSchedule.svg" xlink:actuate="onRequest" xlink:href="DayOfMonthSchedule.svg" xlink:show="new" xlink:title="DayOfMonthSchedule.svg" xlink:type="simple"><g id="elem_DayOfMonthSchedule"><rect codeLine="10" fill="#F1F1F1" height="72.5938" id="DayOfMonthSchedule" rx="2.5" ry="2.5" style="stroke:#181818;stroke-width:0.5;" width="183" x="29" y="88.2969"/><ellipse cx="44" cy="104.2969" fill="#B4A7E5" rx="11" ry="11" style="stroke:#181818;stroke-width:1.0;"/><path d="M39.9219,100.0625 L39.9219,97.9063 L47.3125,97.9063 L47.3125,100.0625 L44.8438,100.0625 L44.8438,108.1406 L47.3125,108.1406 L47.3125,110.2969 L39.9219,110.2969 L39.9219,108.1406 L42.3906,108.1406 L42.3906,100.0625 L39.9219,100.0625 Z " fill="#000000"/><text fill="#000000" font-family="sans-serif" font-size="14" font-style="italic" lengthAdjust="spacing" textLength="151" x="58" y="109.1436">DayOfMonthSchedule</text><line style="stroke:#181818;stroke-width:0.5;" x1="30" x2="211" y1="120.2969" y2="120.2969"/><text fill="#000000" font-family="sans-serif" font-size="14" lengthAdjust="spacing" textLength="79" x="35" y="137.292">type: String</text><text fill="#000000" font-family="sans-serif" font-size="14" lengthAdjust="spacing" textLength="82" x="35" y="153.5889">day: Integer</text></g></a><!--MD5=[93c031e6c12e9ada8d09d02979518763]
class RecurrencePolicySchedule--><a href="RecurrencePolicySchedule.svg" target="_top" title="RecurrencePolicySchedule.svg" xlink:actuate="onRequest" xlink:href="RecurrencePolicySchedule.svg" xlink:show="new" xlink:title="RecurrencePolicySchedule.svg" xlink:type="simple"><g id="elem_RecurrencePolicySchedule"><rect codeLine="14" fill="#F1F1F1" height="56.2969" id="RecurrencePolicySchedule" rx="2.5" ry="2.5" style="stroke:#181818;stroke-width:0.5;" width="217" x="12" y="12"/><ellipse cx="27" cy="28" fill="#B4A7E5" rx="11" ry="11" style="stroke:#181818;stroke-width:1.0;"/><path d="M22.9219,23.7656 L22.9219,21.6094 L30.3125,21.6094 L30.3125,23.7656 L27.8438,23.7656 L27.8438,31.8438 L30.3125,31.8438 L30.3125,34 L22.9219,34 L22.9219,31.8438 L25.3906,31.8438 L25.3906,23.7656 L22.9219,23.7656 Z " fill="#000000"/><text fill="#000000" font-family="sans-serif" font-size="14" font-style="italic" lengthAdjust="spacing" textLength="185" x="41" y="32.8467">RecurrencePolicySchedule</text><line style="stroke:#181818;stroke-width:0.5;" x1="13" x2="228" y1="44" y2="44"/><text fill="#000000" font-family="sans-serif" font-size="14" lengthAdjust="spacing" textLength="79" x="18" y="60.9951">type: String</text></g></a><line style="stroke:#181818;stroke-width:1.0;" x1="120.5" x2="120.5" y1="68.2969" y2="88.2969"/><polygon fill="#FFFFFF" points="120.5,68.2969,113.5,87.2969,127.5,87.2969,120.5,68.2969" style="stroke:#181818;stroke-width:1.0;"/><rect fill="#DDDDDD" height="79.1875" id="_legend" rx="7.5" ry="7.5" style="stroke:#000000;stroke-width:1.0;" width="161" x="28" y="161.8906"/><text fill="#000000" font-family="sans-serif" font-size="14" font-weight="bold" lengthAdjust="spacing" textLength="5" x="33" y="181.8857"> </text><text fill="#000000" font-family="sans-serif" font-size="14" font-weight="bold" lengthAdjust="spacing" textLength="28" x="50" y="181.8857">line</text><text fill="#000000" filter="url(#b3sm6v8lgoo8b0)" font-family="sans-serif" font-size="14" lengthAdjust="spacing" textLength="12" x="33" y="198.1826">   </text><text fill="#000000" font-family="sans-serif" font-size="14" lengthAdjust="spacing" textLength="77" x="49" y="198.1826">inheritance</text><text fill="#000000" filter="url(#b3sm6v8lgoo8b1)" font-family="sans-serif" font-size="14" lengthAdjust="spacing" textLength="12" x="33" y="214.4795">   </text><text fill="#000000" font-family="sans-serif" font-size="14" lengthAdjust="spacing" textLength="129" x="49" y="214.4795">property reference</text><text fill="#000000" filter="url(#b3sm6v8lgoo8b2)" font-family="sans-serif" font-size="14" lengthAdjust="spacing" textLength="12" x="33" y="230.7764">   </text><text fill="#000000" font-family="sans-serif" font-size="14" lengthAdjust="spacing" textLength="131" x="49" y="230.7764">discriminated class</text><line style="stroke:#000000;stroke-width:1.0;" x1="33" x2="184" y1="168.8906" y2="168.8906"/><line style="stroke:#000000;stroke-width:1.0;" x1="33" x2="184" y1="185.1875" y2="185.1875"/><line style="stroke:#000000;stroke-width:1.0;" x1="33" x2="184" y1="201.4844" y2="201.4844"/><line style="stroke:#000000;stroke-width:1.0;" x1="33" x2="184" y1="217.7813" y2="217.7813"/><line style="stroke:#000000;stroke-width:1.0;" x1="33" x2="184" y1="234.0781" y2="234.0781"/><line style="stroke:#000000;stroke-width:1.0;" x1="33" x2="33" y1="168.8906" y2="234.0781"/><line style="stroke:#000000;stroke-width:1.0;" x1="45" x2="45" y1="168.8906" y2="234.0781"/><line style="stroke:#000000;stroke-width:1.0;" x1="184" x2="184" y1="168.8906" y2="234.0781"/><!--MD5=[a5303554f778627c6a6d77a52e808fae]
@startuml
!pragma layout elk
hide empty fields
hide empty methods
legend
|= |= line |
|<back:black>   </back>| inheritance |
|<back:green>   </back>| property reference |
|<back:blue>   </back>| discriminated class |
endlegend
interface DayOfMonthSchedule [[DayOfMonthSchedule.svg]] extends RecurrencePolicySchedule {
    type: String
    day: Integer
}
interface RecurrencePolicySchedule [[RecurrencePolicySchedule.svg]]  {
    type: String
}





@enduml

PlantUML version 1.2022.13(Sat Nov 19 13:22:17 UTC 2022)
(GPL source distribution)
Java Runtime: OpenJDK Runtime Environment
JVM: OpenJDK 64-Bit Server VM
Default Encoding: UTF-8
Language: en
Country: null
--></g></svg>
