<?xml version="1.0" encoding="UTF-8" standalone="no"?><svg xmlns="http://www.w3.org/2000/svg" xmlns:xlink="http://www.w3.org/1999/xlink" contentStyleType="text/css" height="432px" preserveAspectRatio="none" style="width:4459px;height:432px;background:#FFFFFF;" version="1.1" viewBox="0 0 4459 432" width="4459px" zoomAndPan="magnify"><defs><filter height="1" id="b1bjkvuxh1ck8x0" width="1" x="0" y="0"><feFlood flood-color="#000000" result="flood"/><feComposite in="SourceGraphic" in2="flood" operator="over"/></filter><filter height="1" id="b1bjkvuxh1ck8x1" width="1" x="0" y="0"><feFlood flood-color="#008000" result="flood"/><feComposite in="SourceGraphic" in2="flood" operator="over"/></filter><filter height="1" id="b1bjkvuxh1ck8x2" width="1" x="0" y="0"><feFlood flood-color="#0000FF" result="flood"/><feComposite in="SourceGraphic" in2="flood" operator="over"/></filter></defs><g><!--MD5=[5643fa097323d3ee81e5afb18fa5d27f]
class DiscountCodeUpdateAction--><a href="DiscountCodeUpdateAction.svg" target="_top" title="DiscountCodeUpdateAction.svg" xlink:actuate="onRequest" xlink:href="DiscountCodeUpdateAction.svg" xlink:show="new" xlink:title="DiscountCodeUpdateAction.svg" xlink:type="simple"><g id="elem_DiscountCodeUpdateAction"><rect codeLine="10" fill="#F1F1F1" height="56.2969" id="DiscountCodeUpdateAction" rx="2.5" ry="2.5" style="stroke:#181818;stroke-width:0.5;" width="224" x="146.0667" y="12"/><ellipse cx="161.0667" cy="28" fill="#B4A7E5" rx="11" ry="11" style="stroke:#181818;stroke-width:1.0;"/><path d="M156.9885,23.7656 L156.9885,21.6094 L164.3792,21.6094 L164.3792,23.7656 L161.9104,23.7656 L161.9104,31.8438 L164.3792,31.8438 L164.3792,34 L156.9885,34 L156.9885,31.8438 L159.4573,31.8438 L159.4573,23.7656 L156.9885,23.7656 Z " fill="#000000"/><text fill="#000000" font-family="sans-serif" font-size="14" font-style="italic" lengthAdjust="spacing" textLength="192" x="175.0667" y="32.8467">DiscountCodeUpdateAction</text><line style="stroke:#181818;stroke-width:0.5;" x1="147.0667" x2="369.0667" y1="44" y2="44"/><text fill="#000000" font-family="sans-serif" font-size="14" lengthAdjust="spacing" textLength="91" x="152.0667" y="60.9951">action: String</text></g></a><!--MD5=[d6a9999b65c05594808b21189c4d9104]
class DiscountCodeChangeCartDiscountsAction--><a href="DiscountCodeChangeCartDiscountsAction.svg" target="_top" title="DiscountCodeChangeCartDiscountsAction.svg" xlink:actuate="onRequest" xlink:href="DiscountCodeChangeCartDiscountsAction.svg" xlink:show="new" xlink:title="DiscountCodeChangeCartDiscountsAction.svg" xlink:type="simple"><g id="elem_DiscountCodeChangeCartDiscountsAction"><rect codeLine="15" fill="#F1F1F1" height="72.5938" id="DiscountCodeChangeCartDiscountsAction" rx="2.5" ry="2.5" style="stroke:#181818;stroke-width:0.5;" width="380" x="3774" y="243.4297"/><ellipse cx="3814.2" cy="259.4297" fill="#B4A7E5" rx="11" ry="11" style="stroke:#181818;stroke-width:1.0;"/><path d="M3810.1219,255.1953 L3810.1219,253.0391 L3817.5125,253.0391 L3817.5125,255.1953 L3815.0438,255.1953 L3815.0438,263.2734 L3817.5125,263.2734 L3817.5125,265.4297 L3810.1219,265.4297 L3810.1219,263.2734 L3812.5906,263.2734 L3812.5906,255.1953 L3810.1219,255.1953 Z " fill="#000000"/><text fill="#000000" font-family="sans-serif" font-size="14" font-style="italic" lengthAdjust="spacing" textLength="292" x="3833.8" y="264.2764">DiscountCodeChangeCartDiscountsAction</text><line style="stroke:#181818;stroke-width:0.5;" x1="3775" x2="4153" y1="275.4297" y2="275.4297"/><text fill="#000000" font-family="sans-serif" font-size="14" lengthAdjust="spacing" textLength="91" x="3780" y="292.4248">action: String</text><text fill="#000000" font-family="sans-serif" font-size="14" lengthAdjust="spacing" textLength="101" x="3780" y="308.7217">cartDiscounts:</text><a href="CartDiscountResourceIdentifier.svg" target="_top" title="CartDiscountResourceIdentifier.svg" xlink:actuate="onRequest" xlink:href="CartDiscountResourceIdentifier.svg" xlink:show="new" xlink:title="CartDiscountResourceIdentifier.svg" xlink:type="simple"><text fill="#0000FF" font-family="sans-serif" font-size="14" lengthAdjust="spacing" text-decoration="underline" textLength="263" x="3885" y="308.7217">List&lt;CartDiscountResourceIdentifier&gt;</text></a></g></a><!--MD5=[8dbbe67c372fb432d5181387c44ee6b2]
class DiscountCodeChangeGroupsAction--><a href="DiscountCodeChangeGroupsAction.svg" target="_top" title="DiscountCodeChangeGroupsAction.svg" xlink:actuate="onRequest" xlink:href="DiscountCodeChangeGroupsAction.svg" xlink:show="new" xlink:title="DiscountCodeChangeGroupsAction.svg" xlink:type="simple"><g id="elem_DiscountCodeChangeGroupsAction"><rect codeLine="19" fill="#F1F1F1" height="72.5938" id="DiscountCodeChangeGroupsAction" rx="2.5" ry="2.5" style="stroke:#181818;stroke-width:0.5;" width="278" x="4174" y="243.4297"/><ellipse cx="4189" cy="259.4297" fill="#B4A7E5" rx="11" ry="11" style="stroke:#181818;stroke-width:1.0;"/><path d="M4184.9219,255.1953 L4184.9219,253.0391 L4192.3125,253.0391 L4192.3125,255.1953 L4189.8438,255.1953 L4189.8438,263.2734 L4192.3125,263.2734 L4192.3125,265.4297 L4184.9219,265.4297 L4184.9219,263.2734 L4187.3906,263.2734 L4187.3906,255.1953 L4184.9219,255.1953 Z " fill="#000000"/><text fill="#000000" font-family="sans-serif" font-size="14" font-style="italic" lengthAdjust="spacing" textLength="246" x="4203" y="264.2764">DiscountCodeChangeGroupsAction</text><line style="stroke:#181818;stroke-width:0.5;" x1="4175" x2="4451" y1="275.4297" y2="275.4297"/><text fill="#000000" font-family="sans-serif" font-size="14" lengthAdjust="spacing" textLength="91" x="4180" y="292.4248">action: String</text><text fill="#000000" font-family="sans-serif" font-size="14" lengthAdjust="spacing" textLength="54" x="4180" y="308.7217">groups:</text><a href="String.svg" target="_top" title="String.svg" xlink:actuate="onRequest" xlink:href="String.svg" xlink:show="new" xlink:title="String.svg" xlink:type="simple"><text fill="#0000FF" font-family="sans-serif" font-size="14" lengthAdjust="spacing" text-decoration="underline" textLength="87" x="4238" y="308.7217">List&lt;String&gt;</text></a></g></a><!--MD5=[d55140aabd63a4d073dc0339c444be3a]
class DiscountCodeChangeIsActiveAction--><a href="DiscountCodeChangeIsActiveAction.svg" target="_top" title="DiscountCodeChangeIsActiveAction.svg" xlink:actuate="onRequest" xlink:href="DiscountCodeChangeIsActiveAction.svg" xlink:show="new" xlink:title="DiscountCodeChangeIsActiveAction.svg" xlink:type="simple"><g id="elem_DiscountCodeChangeIsActiveAction"><rect codeLine="23" fill="#F1F1F1" height="72.5938" id="DiscountCodeChangeIsActiveAction" rx="2.5" ry="2.5" style="stroke:#181818;stroke-width:0.5;" width="282" x="20" y="243.4297"/><ellipse cx="35" cy="259.4297" fill="#B4A7E5" rx="11" ry="11" style="stroke:#181818;stroke-width:1.0;"/><path d="M30.9219,255.1953 L30.9219,253.0391 L38.3125,253.0391 L38.3125,255.1953 L35.8438,255.1953 L35.8438,263.2734 L38.3125,263.2734 L38.3125,265.4297 L30.9219,265.4297 L30.9219,263.2734 L33.3906,263.2734 L33.3906,255.1953 L30.9219,255.1953 Z " fill="#000000"/><text fill="#000000" font-family="sans-serif" font-size="14" font-style="italic" lengthAdjust="spacing" textLength="250" x="49" y="264.2764">DiscountCodeChangeIsActiveAction</text><line style="stroke:#181818;stroke-width:0.5;" x1="21" x2="301" y1="275.4297" y2="275.4297"/><text fill="#000000" font-family="sans-serif" font-size="14" lengthAdjust="spacing" textLength="91" x="26" y="292.4248">action: String</text><text fill="#000000" font-family="sans-serif" font-size="14" lengthAdjust="spacing" textLength="118" x="26" y="308.7217">isActive: Boolean</text></g></a><!--MD5=[9709728be9d3d575b6d03e1db601430a]
class DiscountCodeSetCartPredicateAction--><a href="DiscountCodeSetCartPredicateAction.svg" target="_top" title="DiscountCodeSetCartPredicateAction.svg" xlink:actuate="onRequest" xlink:href="DiscountCodeSetCartPredicateAction.svg" xlink:show="new" xlink:title="DiscountCodeSetCartPredicateAction.svg" xlink:type="simple"><g id="elem_DiscountCodeSetCartPredicateAction"><rect codeLine="27" fill="#F1F1F1" height="72.5938" id="DiscountCodeSetCartPredicateAction" rx="2.5" ry="2.5" style="stroke:#181818;stroke-width:0.5;" width="289" x="1193" y="243.4297"/><ellipse cx="1208" cy="259.4297" fill="#B4A7E5" rx="11" ry="11" style="stroke:#181818;stroke-width:1.0;"/><path d="M1203.9219,255.1953 L1203.9219,253.0391 L1211.3125,253.0391 L1211.3125,255.1953 L1208.8438,255.1953 L1208.8438,263.2734 L1211.3125,263.2734 L1211.3125,265.4297 L1203.9219,265.4297 L1203.9219,263.2734 L1206.3906,263.2734 L1206.3906,255.1953 L1203.9219,255.1953 Z " fill="#000000"/><text fill="#000000" font-family="sans-serif" font-size="14" font-style="italic" lengthAdjust="spacing" textLength="257" x="1222" y="264.2764">DiscountCodeSetCartPredicateAction</text><line style="stroke:#181818;stroke-width:0.5;" x1="1194" x2="1481" y1="275.4297" y2="275.4297"/><text fill="#000000" font-family="sans-serif" font-size="14" lengthAdjust="spacing" textLength="91" x="1199" y="292.4248">action: String</text><text fill="#000000" font-family="sans-serif" font-size="14" lengthAdjust="spacing" textLength="140" x="1199" y="308.7217">cartPredicate: String</text></g></a><!--MD5=[a55c8cd80d1fbd96990d7e8b98e5d5e9]
class DiscountCodeSetCustomFieldAction--><a href="DiscountCodeSetCustomFieldAction.svg" target="_top" title="DiscountCodeSetCustomFieldAction.svg" xlink:actuate="onRequest" xlink:href="DiscountCodeSetCustomFieldAction.svg" xlink:show="new" xlink:title="DiscountCodeSetCustomFieldAction.svg" xlink:type="simple"><g id="elem_DiscountCodeSetCustomFieldAction"><rect codeLine="31" fill="#F1F1F1" height="88.8906" id="DiscountCodeSetCustomFieldAction" rx="2.5" ry="2.5" style="stroke:#181818;stroke-width:0.5;" width="282" x="3167" y="243.4297"/><ellipse cx="3182" cy="259.4297" fill="#B4A7E5" rx="11" ry="11" style="stroke:#181818;stroke-width:1.0;"/><path d="M3177.9219,255.1953 L3177.9219,253.0391 L3185.3125,253.0391 L3185.3125,255.1953 L3182.8438,255.1953 L3182.8438,263.2734 L3185.3125,263.2734 L3185.3125,265.4297 L3177.9219,265.4297 L3177.9219,263.2734 L3180.3906,263.2734 L3180.3906,255.1953 L3177.9219,255.1953 Z " fill="#000000"/><text fill="#000000" font-family="sans-serif" font-size="14" font-style="italic" lengthAdjust="spacing" textLength="250" x="3196" y="264.2764">DiscountCodeSetCustomFieldAction</text><line style="stroke:#181818;stroke-width:0.5;" x1="3168" x2="3448" y1="275.4297" y2="275.4297"/><text fill="#000000" font-family="sans-serif" font-size="14" lengthAdjust="spacing" textLength="91" x="3173" y="292.4248">action: String</text><text fill="#000000" font-family="sans-serif" font-size="14" lengthAdjust="spacing" textLength="88" x="3173" y="308.7217">name: String</text><text fill="#000000" font-family="sans-serif" font-size="14" lengthAdjust="spacing" textLength="41" x="3173" y="325.0186">value:</text><a href="Object.svg" target="_top" title="Object.svg" xlink:actuate="onRequest" xlink:href="Object.svg" xlink:show="new" xlink:title="Object.svg" xlink:type="simple"><text fill="#0000FF" font-family="sans-serif" font-size="14" lengthAdjust="spacing" text-decoration="underline" textLength="45" x="3218" y="325.0186">Object</text></a></g></a><!--MD5=[f025d7286f119cb4f834ad8ac9bc9cdf]
class DiscountCodeSetCustomTypeAction--><a href="DiscountCodeSetCustomTypeAction.svg" target="_top" title="DiscountCodeSetCustomTypeAction.svg" xlink:actuate="onRequest" xlink:href="DiscountCodeSetCustomTypeAction.svg" xlink:show="new" xlink:title="DiscountCodeSetCustomTypeAction.svg" xlink:type="simple"><g id="elem_DiscountCodeSetCustomTypeAction"><rect codeLine="36" fill="#F1F1F1" height="88.8906" id="DiscountCodeSetCustomTypeAction" rx="2.5" ry="2.5" style="stroke:#181818;stroke-width:0.5;" width="285" x="3469" y="243.4297"/><ellipse cx="3484" cy="259.4297" fill="#B4A7E5" rx="11" ry="11" style="stroke:#181818;stroke-width:1.0;"/><path d="M3479.9219,255.1953 L3479.9219,253.0391 L3487.3125,253.0391 L3487.3125,255.1953 L3484.8438,255.1953 L3484.8438,263.2734 L3487.3125,263.2734 L3487.3125,265.4297 L3479.9219,265.4297 L3479.9219,263.2734 L3482.3906,263.2734 L3482.3906,255.1953 L3479.9219,255.1953 Z " fill="#000000"/><text fill="#000000" font-family="sans-serif" font-size="14" font-style="italic" lengthAdjust="spacing" textLength="253" x="3498" y="264.2764">DiscountCodeSetCustomTypeAction</text><line style="stroke:#181818;stroke-width:0.5;" x1="3470" x2="3753" y1="275.4297" y2="275.4297"/><text fill="#000000" font-family="sans-serif" font-size="14" lengthAdjust="spacing" textLength="91" x="3475" y="292.4248">action: String</text><text fill="#000000" font-family="sans-serif" font-size="14" lengthAdjust="spacing" textLength="35" x="3475" y="308.7217">type:</text><a href="TypeResourceIdentifier.svg" target="_top" title="TypeResourceIdentifier.svg" xlink:actuate="onRequest" xlink:href="TypeResourceIdentifier.svg" xlink:show="new" xlink:title="TypeResourceIdentifier.svg" xlink:type="simple"><text fill="#0000FF" font-family="sans-serif" font-size="14" lengthAdjust="spacing" text-decoration="underline" textLength="160" x="3514" y="308.7217">TypeResourceIdentifier</text></a><text fill="#000000" font-family="sans-serif" font-size="14" lengthAdjust="spacing" textLength="41" x="3475" y="325.0186">fields:</text><a href="FieldContainer.svg" target="_top" title="FieldContainer.svg" xlink:actuate="onRequest" xlink:href="FieldContainer.svg" xlink:show="new" xlink:title="FieldContainer.svg" xlink:type="simple"><text fill="#0000FF" font-family="sans-serif" font-size="14" lengthAdjust="spacing" text-decoration="underline" textLength="99" x="3520" y="325.0186">FieldContainer</text></a></g></a><!--MD5=[a1ee7cc2c65f2934c78426c9116519c9]
class DiscountCodeSetDescriptionAction--><a href="DiscountCodeSetDescriptionAction.svg" target="_top" title="DiscountCodeSetDescriptionAction.svg" xlink:actuate="onRequest" xlink:href="DiscountCodeSetDescriptionAction.svg" xlink:show="new" xlink:title="DiscountCodeSetDescriptionAction.svg" xlink:type="simple"><g id="elem_DiscountCodeSetDescriptionAction"><rect codeLine="41" fill="#F1F1F1" height="72.5938" id="DiscountCodeSetDescriptionAction" rx="2.5" ry="2.5" style="stroke:#181818;stroke-width:0.5;" width="275" x="2872" y="243.4297"/><ellipse cx="2887" cy="259.4297" fill="#B4A7E5" rx="11" ry="11" style="stroke:#181818;stroke-width:1.0;"/><path d="M2882.9219,255.1953 L2882.9219,253.0391 L2890.3125,253.0391 L2890.3125,255.1953 L2887.8438,255.1953 L2887.8438,263.2734 L2890.3125,263.2734 L2890.3125,265.4297 L2882.9219,265.4297 L2882.9219,263.2734 L2885.3906,263.2734 L2885.3906,255.1953 L2882.9219,255.1953 Z " fill="#000000"/><text fill="#000000" font-family="sans-serif" font-size="14" font-style="italic" lengthAdjust="spacing" textLength="243" x="2901" y="264.2764">DiscountCodeSetDescriptionAction</text><line style="stroke:#181818;stroke-width:0.5;" x1="2873" x2="3146" y1="275.4297" y2="275.4297"/><text fill="#000000" font-family="sans-serif" font-size="14" lengthAdjust="spacing" textLength="91" x="2878" y="292.4248">action: String</text><text fill="#000000" font-family="sans-serif" font-size="14" lengthAdjust="spacing" textLength="82" x="2878" y="308.7217">description:</text><a href="LocalizedString.svg" target="_top" title="LocalizedString.svg" xlink:actuate="onRequest" xlink:href="LocalizedString.svg" xlink:show="new" xlink:title="LocalizedString.svg" xlink:type="simple"><text fill="#0000FF" font-family="sans-serif" font-size="14" lengthAdjust="spacing" text-decoration="underline" textLength="104" x="2964" y="308.7217">LocalizedString</text></a></g></a><!--MD5=[0135902982c736125451e1d124b1a8ce]
class DiscountCodeSetMaxApplicationsAction--><a href="DiscountCodeSetMaxApplicationsAction.svg" target="_top" title="DiscountCodeSetMaxApplicationsAction.svg" xlink:actuate="onRequest" xlink:href="DiscountCodeSetMaxApplicationsAction.svg" xlink:show="new" xlink:title="DiscountCodeSetMaxApplicationsAction.svg" xlink:type="simple"><g id="elem_DiscountCodeSetMaxApplicationsAction"><rect codeLine="45" fill="#F1F1F1" height="72.5938" id="DiscountCodeSetMaxApplicationsAction" rx="2.5" ry="2.5" style="stroke:#181818;stroke-width:0.5;" width="308" x="607" y="243.4297"/><ellipse cx="622" cy="259.4297" fill="#B4A7E5" rx="11" ry="11" style="stroke:#181818;stroke-width:1.0;"/><path d="M617.9219,255.1953 L617.9219,253.0391 L625.3125,253.0391 L625.3125,255.1953 L622.8438,255.1953 L622.8438,263.2734 L625.3125,263.2734 L625.3125,265.4297 L617.9219,265.4297 L617.9219,263.2734 L620.3906,263.2734 L620.3906,255.1953 L617.9219,255.1953 Z " fill="#000000"/><text fill="#000000" font-family="sans-serif" font-size="14" font-style="italic" lengthAdjust="spacing" textLength="276" x="636" y="264.2764">DiscountCodeSetMaxApplicationsAction</text><line style="stroke:#181818;stroke-width:0.5;" x1="608" x2="914" y1="275.4297" y2="275.4297"/><text fill="#000000" font-family="sans-serif" font-size="14" lengthAdjust="spacing" textLength="91" x="613" y="292.4248">action: String</text><text fill="#000000" font-family="sans-serif" font-size="14" lengthAdjust="spacing" textLength="154" x="613" y="308.7217">maxApplications: Long</text></g></a><!--MD5=[08499d20a9de2616089e4d61f13737a7]
class DiscountCodeSetMaxApplicationsPerCustomerAction--><a href="DiscountCodeSetMaxApplicationsPerCustomerAction.svg" target="_top" title="DiscountCodeSetMaxApplicationsPerCustomerAction.svg" xlink:actuate="onRequest" xlink:href="DiscountCodeSetMaxApplicationsPerCustomerAction.svg" xlink:show="new" xlink:title="DiscountCodeSetMaxApplicationsPerCustomerAction.svg" xlink:type="simple"><g id="elem_DiscountCodeSetMaxApplicationsPerCustomerAction"><rect codeLine="49" fill="#F1F1F1" height="72.5938" id="DiscountCodeSetMaxApplicationsPerCustomerAction" rx="2.5" ry="2.5" style="stroke:#181818;stroke-width:0.5;" width="397" x="1782" y="243.4297"/><ellipse cx="1797" cy="259.4297" fill="#B4A7E5" rx="11" ry="11" style="stroke:#181818;stroke-width:1.0;"/><path d="M1792.9219,255.1953 L1792.9219,253.0391 L1800.3125,253.0391 L1800.3125,255.1953 L1797.8438,255.1953 L1797.8438,263.2734 L1800.3125,263.2734 L1800.3125,265.4297 L1792.9219,265.4297 L1792.9219,263.2734 L1795.3906,263.2734 L1795.3906,255.1953 L1792.9219,255.1953 Z " fill="#000000"/><text fill="#000000" font-family="sans-serif" font-size="14" font-style="italic" lengthAdjust="spacing" textLength="365" x="1811" y="264.2764">DiscountCodeSetMaxApplicationsPerCustomerAction</text><line style="stroke:#181818;stroke-width:0.5;" x1="1783" x2="2178" y1="275.4297" y2="275.4297"/><text fill="#000000" font-family="sans-serif" font-size="14" lengthAdjust="spacing" textLength="91" x="1788" y="292.4248">action: String</text><text fill="#000000" font-family="sans-serif" font-size="14" lengthAdjust="spacing" textLength="245" x="1788" y="308.7217">maxApplicationsPerCustomer: Long</text></g></a><!--MD5=[7ecc3549cb69b49701aedd903fa4a32b]
class DiscountCodeSetNameAction--><a href="DiscountCodeSetNameAction.svg" target="_top" title="DiscountCodeSetNameAction.svg" xlink:actuate="onRequest" xlink:href="DiscountCodeSetNameAction.svg" xlink:show="new" xlink:title="DiscountCodeSetNameAction.svg" xlink:type="simple"><g id="elem_DiscountCodeSetNameAction"><rect codeLine="53" fill="#F1F1F1" height="72.5938" id="DiscountCodeSetNameAction" rx="2.5" ry="2.5" style="stroke:#181818;stroke-width:0.5;" width="238" x="935" y="243.4297"/><ellipse cx="950" cy="259.4297" fill="#B4A7E5" rx="11" ry="11" style="stroke:#181818;stroke-width:1.0;"/><path d="M945.9219,255.1953 L945.9219,253.0391 L953.3125,253.0391 L953.3125,255.1953 L950.8438,255.1953 L950.8438,263.2734 L953.3125,263.2734 L953.3125,265.4297 L945.9219,265.4297 L945.9219,263.2734 L948.3906,263.2734 L948.3906,255.1953 L945.9219,255.1953 Z " fill="#000000"/><text fill="#000000" font-family="sans-serif" font-size="14" font-style="italic" lengthAdjust="spacing" textLength="206" x="964" y="264.2764">DiscountCodeSetNameAction</text><line style="stroke:#181818;stroke-width:0.5;" x1="936" x2="1172" y1="275.4297" y2="275.4297"/><text fill="#000000" font-family="sans-serif" font-size="14" lengthAdjust="spacing" textLength="91" x="941" y="292.4248">action: String</text><text fill="#000000" font-family="sans-serif" font-size="14" lengthAdjust="spacing" textLength="44" x="941" y="308.7217">name:</text><a href="LocalizedString.svg" target="_top" title="LocalizedString.svg" xlink:actuate="onRequest" xlink:href="LocalizedString.svg" xlink:show="new" xlink:title="LocalizedString.svg" xlink:type="simple"><text fill="#0000FF" font-family="sans-serif" font-size="14" lengthAdjust="spacing" text-decoration="underline" textLength="104" x="989" y="308.7217">LocalizedString</text></a></g></a><!--MD5=[16b61f117a9d10dfbed98fedaa1e677d]
class DiscountCodeSetValidFromAction--><a href="DiscountCodeSetValidFromAction.svg" target="_top" title="DiscountCodeSetValidFromAction.svg" xlink:actuate="onRequest" xlink:href="DiscountCodeSetValidFromAction.svg" xlink:show="new" xlink:title="DiscountCodeSetValidFromAction.svg" xlink:type="simple"><g id="elem_DiscountCodeSetValidFromAction"><rect codeLine="57" fill="#F1F1F1" height="72.5938" id="DiscountCodeSetValidFromAction" rx="2.5" ry="2.5" style="stroke:#181818;stroke-width:0.5;" width="265" x="322" y="243.4297"/><ellipse cx="337" cy="259.4297" fill="#B4A7E5" rx="11" ry="11" style="stroke:#181818;stroke-width:1.0;"/><path d="M332.9219,255.1953 L332.9219,253.0391 L340.3125,253.0391 L340.3125,255.1953 L337.8438,255.1953 L337.8438,263.2734 L340.3125,263.2734 L340.3125,265.4297 L332.9219,265.4297 L332.9219,263.2734 L335.3906,263.2734 L335.3906,255.1953 L332.9219,255.1953 Z " fill="#000000"/><text fill="#000000" font-family="sans-serif" font-size="14" font-style="italic" lengthAdjust="spacing" textLength="233" x="351" y="264.2764">DiscountCodeSetValidFromAction</text><line style="stroke:#181818;stroke-width:0.5;" x1="323" x2="586" y1="275.4297" y2="275.4297"/><text fill="#000000" font-family="sans-serif" font-size="14" lengthAdjust="spacing" textLength="91" x="328" y="292.4248">action: String</text><text fill="#000000" font-family="sans-serif" font-size="14" lengthAdjust="spacing" textLength="141" x="328" y="308.7217">validFrom: DateTime</text></g></a><!--MD5=[f52a7337ea4b82ed3a9eaf82fff34d2c]
class DiscountCodeSetValidFromAndUntilAction--><a href="DiscountCodeSetValidFromAndUntilAction.svg" target="_top" title="DiscountCodeSetValidFromAndUntilAction.svg" xlink:actuate="onRequest" xlink:href="DiscountCodeSetValidFromAndUntilAction.svg" xlink:show="new" xlink:title="DiscountCodeSetValidFromAndUntilAction.svg" xlink:type="simple"><g id="elem_DiscountCodeSetValidFromAndUntilAction"><rect codeLine="61" fill="#F1F1F1" height="88.8906" id="DiscountCodeSetValidFromAndUntilAction" rx="2.5" ry="2.5" style="stroke:#181818;stroke-width:0.5;" width="323" x="2529" y="243.4297"/><ellipse cx="2544" cy="259.4297" fill="#B4A7E5" rx="11" ry="11" style="stroke:#181818;stroke-width:1.0;"/><path d="M2539.9219,255.1953 L2539.9219,253.0391 L2547.3125,253.0391 L2547.3125,255.1953 L2544.8438,255.1953 L2544.8438,263.2734 L2547.3125,263.2734 L2547.3125,265.4297 L2539.9219,265.4297 L2539.9219,263.2734 L2542.3906,263.2734 L2542.3906,255.1953 L2539.9219,255.1953 Z " fill="#000000"/><text fill="#000000" font-family="sans-serif" font-size="14" font-style="italic" lengthAdjust="spacing" textLength="291" x="2558" y="264.2764">DiscountCodeSetValidFromAndUntilAction</text><line style="stroke:#181818;stroke-width:0.5;" x1="2530" x2="2851" y1="275.4297" y2="275.4297"/><text fill="#000000" font-family="sans-serif" font-size="14" lengthAdjust="spacing" textLength="91" x="2535" y="292.4248">action: String</text><text fill="#000000" font-family="sans-serif" font-size="14" lengthAdjust="spacing" textLength="141" x="2535" y="308.7217">validFrom: DateTime</text><text fill="#000000" font-family="sans-serif" font-size="14" lengthAdjust="spacing" textLength="136" x="2535" y="325.0186">validUntil: DateTime</text></g></a><!--MD5=[91b5706735ab562f374f5e310b63f2d1]
class DiscountCodeSetValidUntilAction--><a href="DiscountCodeSetValidUntilAction.svg" target="_top" title="DiscountCodeSetValidUntilAction.svg" xlink:actuate="onRequest" xlink:href="DiscountCodeSetValidUntilAction.svg" xlink:show="new" xlink:title="DiscountCodeSetValidUntilAction.svg" xlink:type="simple"><g id="elem_DiscountCodeSetValidUntilAction"><rect codeLine="66" fill="#F1F1F1" height="72.5938" id="DiscountCodeSetValidUntilAction" rx="2.5" ry="2.5" style="stroke:#181818;stroke-width:0.5;" width="260" x="1502" y="243.4297"/><ellipse cx="1517" cy="259.4297" fill="#B4A7E5" rx="11" ry="11" style="stroke:#181818;stroke-width:1.0;"/><path d="M1512.9219,255.1953 L1512.9219,253.0391 L1520.3125,253.0391 L1520.3125,255.1953 L1517.8438,255.1953 L1517.8438,263.2734 L1520.3125,263.2734 L1520.3125,265.4297 L1512.9219,265.4297 L1512.9219,263.2734 L1515.3906,263.2734 L1515.3906,255.1953 L1512.9219,255.1953 Z " fill="#000000"/><text fill="#000000" font-family="sans-serif" font-size="14" font-style="italic" lengthAdjust="spacing" textLength="228" x="1531" y="264.2764">DiscountCodeSetValidUntilAction</text><line style="stroke:#181818;stroke-width:0.5;" x1="1503" x2="1761" y1="275.4297" y2="275.4297"/><text fill="#000000" font-family="sans-serif" font-size="14" lengthAdjust="spacing" textLength="91" x="1508" y="292.4248">action: String</text><text fill="#000000" font-family="sans-serif" font-size="14" lengthAdjust="spacing" textLength="136" x="1508" y="308.7217">validUntil: DateTime</text></g></a><!--MD5=[8debc24b70a1cc282dea85c3b8f42f44]
class DiscountCodeUpdate--><a href="DiscountCodeUpdate.svg" target="_top" title="DiscountCodeUpdate.svg" xlink:actuate="onRequest" xlink:href="DiscountCodeUpdate.svg" xlink:show="new" xlink:title="DiscountCodeUpdate.svg" xlink:type="simple"><g id="elem_DiscountCodeUpdate"><rect codeLine="70" fill="#F1F1F1" height="72.5938" id="DiscountCodeUpdate" rx="2.5" ry="2.5" style="stroke:#181818;stroke-width:0.5;" width="310" x="2199" y="243.4297"/><ellipse cx="2275.75" cy="259.4297" fill="#B4A7E5" rx="11" ry="11" style="stroke:#181818;stroke-width:1.0;"/><path d="M2271.6719,255.1953 L2271.6719,253.0391 L2279.0625,253.0391 L2279.0625,255.1953 L2276.5938,255.1953 L2276.5938,263.2734 L2279.0625,263.2734 L2279.0625,265.4297 L2271.6719,265.4297 L2271.6719,263.2734 L2274.1406,263.2734 L2274.1406,255.1953 L2271.6719,255.1953 Z " fill="#000000"/><text fill="#000000" font-family="sans-serif" font-size="14" font-style="italic" lengthAdjust="spacing" textLength="148" x="2296.25" y="264.2764">DiscountCodeUpdate</text><line style="stroke:#181818;stroke-width:0.5;" x1="2200" x2="2508" y1="275.4297" y2="275.4297"/><text fill="#000000" font-family="sans-serif" font-size="14" lengthAdjust="spacing" textLength="93" x="2205" y="292.4248">version: Long</text><text fill="#000000" font-family="sans-serif" font-size="14" lengthAdjust="spacing" textLength="55" x="2205" y="308.7217">actions:</text><a href="DiscountCodeUpdateAction.svg" target="_top" title="DiscountCodeUpdateAction.svg" xlink:actuate="onRequest" xlink:href="DiscountCodeUpdateAction.svg" xlink:show="new" xlink:title="DiscountCodeUpdateAction.svg" xlink:type="simple"><text fill="#0000FF" font-family="sans-serif" font-size="14" lengthAdjust="spacing" text-decoration="underline" textLength="239" x="2264" y="308.7217">List&lt;DiscountCodeUpdateAction&gt;</text></a></g></a><line style="stroke:#0000FF;stroke-width:1.0;" x1="340.2" x2="340.2" y1="68.2969" y2="88.2969"/><line style="stroke:#0000FF;stroke-width:1.0;" x1="340.2" x2="3964" y1="88.2969" y2="88.2969"/><line style="stroke:#0000FF;stroke-width:1.0;" x1="3964" x2="3964" y1="88.2969" y2="243.4297"/><polygon fill="#0000FF" points="3964,243.4297,3968,234.4297,3964,238.4297,3960,234.4297,3964,243.4297" style="stroke:#0000FF;stroke-width:1.0;"/><text fill="#000000" font-family="sans-serif" font-size="13" lengthAdjust="spacing" textLength="188" x="3774" y="220.3638">action : changeCartDiscounts</text><line style="stroke:#0000FF;stroke-width:1.0;" x1="355.1333" x2="355.1333" y1="68.2969" y2="78.2969"/><line style="stroke:#0000FF;stroke-width:1.0;" x1="355.1333" x2="4313" y1="78.2969" y2="78.2969"/><line style="stroke:#0000FF;stroke-width:1.0;" x1="4313" x2="4313" y1="78.2969" y2="243.4297"/><polygon fill="#0000FF" points="4313,243.4297,4317,234.4297,4313,238.4297,4309,234.4297,4313,243.4297" style="stroke:#0000FF;stroke-width:1.0;"/><text fill="#000000" font-family="sans-serif" font-size="13" lengthAdjust="spacing" textLength="144" x="4167" y="220.3638">action : changeGroups</text><line style="stroke:#0000FF;stroke-width:1.0;" x1="161" x2="161" y1="68.2969" y2="243.4297"/><polygon fill="#0000FF" points="161,243.4297,165,234.4297,161,238.4297,157,234.4297,161,243.4297" style="stroke:#0000FF;stroke-width:1.0;"/><text fill="#000000" font-family="sans-serif" font-size="13" lengthAdjust="spacing" textLength="147" x="12" y="220.3638">action : changeIsActive</text><line style="stroke:#0000FF;stroke-width:1.0;" x1="220.7333" x2="220.7333" y1="68.2969" y2="168.2969"/><line style="stroke:#0000FF;stroke-width:1.0;" x1="220.7333" x2="1337.5" y1="168.2969" y2="168.2969"/><line style="stroke:#0000FF;stroke-width:1.0;" x1="1337.5" x2="1337.5" y1="168.2969" y2="243.4297"/><polygon fill="#0000FF" points="1337.5,243.4297,1341.5,234.4297,1337.5,238.4297,1333.5,234.4297,1337.5,243.4297" style="stroke:#0000FF;stroke-width:1.0;"/><text fill="#000000" font-family="sans-serif" font-size="13" lengthAdjust="spacing" textLength="158" x="1177.5" y="220.3638">action : setCartPredicate</text><line style="stroke:#0000FF;stroke-width:1.0;" x1="310.3333" x2="310.3333" y1="68.2969" y2="108.2969"/><line style="stroke:#0000FF;stroke-width:1.0;" x1="310.3333" x2="3308" y1="108.2969" y2="108.2969"/><line style="stroke:#0000FF;stroke-width:1.0;" x1="3308" x2="3308" y1="108.2969" y2="243.4297"/><polygon fill="#0000FF" points="3308,243.4297,3312,234.4297,3308,238.4297,3304,234.4297,3308,243.4297" style="stroke:#0000FF;stroke-width:1.0;"/><text fill="#000000" font-family="sans-serif" font-size="13" lengthAdjust="spacing" textLength="150" x="3156" y="220.3638">action : setCustomField</text><line style="stroke:#0000FF;stroke-width:1.0;" x1="325.2667" x2="325.2667" y1="68.2969" y2="98.2969"/><line style="stroke:#0000FF;stroke-width:1.0;" x1="325.2667" x2="3611.5" y1="98.2969" y2="98.2969"/><line style="stroke:#0000FF;stroke-width:1.0;" x1="3611.5" x2="3611.5" y1="98.2969" y2="243.4297"/><polygon fill="#0000FF" points="3611.5,243.4297,3615.5,234.4297,3611.5,238.4297,3607.5,234.4297,3611.5,243.4297" style="stroke:#0000FF;stroke-width:1.0;"/><text fill="#000000" font-family="sans-serif" font-size="13" lengthAdjust="spacing" textLength="151" x="3458.5" y="220.3638">action : setCustomType</text><line style="stroke:#0000FF;stroke-width:1.0;" x1="295.4" x2="295.4" y1="68.2969" y2="118.2969"/><line style="stroke:#0000FF;stroke-width:1.0;" x1="295.4" x2="3009.5" y1="118.2969" y2="118.2969"/><line style="stroke:#0000FF;stroke-width:1.0;" x1="3009.5" x2="3009.5" y1="118.2969" y2="243.4297"/><polygon fill="#0000FF" points="3009.5,243.4297,3013.5,234.4297,3009.5,238.4297,3005.5,234.4297,3009.5,243.4297" style="stroke:#0000FF;stroke-width:1.0;"/><text fill="#000000" font-family="sans-serif" font-size="13" lengthAdjust="spacing" textLength="143" x="2864.5" y="220.3638">action : setDescription</text><line style="stroke:#0000FF;stroke-width:1.0;" x1="190.8667" x2="190.8667" y1="68.2969" y2="188.2969"/><line style="stroke:#0000FF;stroke-width:1.0;" x1="190.8667" x2="761" y1="188.2969" y2="188.2969"/><line style="stroke:#0000FF;stroke-width:1.0;" x1="761" x2="761" y1="188.2969" y2="243.4297"/><polygon fill="#0000FF" points="761,243.4297,765,234.4297,761,238.4297,757,234.4297,761,243.4297" style="stroke:#0000FF;stroke-width:1.0;"/><text fill="#000000" font-family="sans-serif" font-size="13" lengthAdjust="spacing" textLength="174" x="585" y="220.3638">action : setMaxApplications</text><line style="stroke:#0000FF;stroke-width:1.0;" x1="250.6" x2="250.6" y1="68.2969" y2="148.2969"/><line style="stroke:#0000FF;stroke-width:1.0;" x1="250.6" x2="1980.5" y1="148.2969" y2="148.2969"/><line style="stroke:#0000FF;stroke-width:1.0;" x1="1980.5" x2="1980.5" y1="148.2969" y2="243.4297"/><polygon fill="#0000FF" points="1980.5,243.4297,1984.5,234.4297,1980.5,238.4297,1976.5,234.4297,1980.5,243.4297" style="stroke:#0000FF;stroke-width:1.0;"/><text fill="#000000" font-family="sans-serif" font-size="13" lengthAdjust="spacing" textLength="258" x="1720.5" y="220.3638">action : setMaxApplicationsPerCustomer</text><line style="stroke:#0000FF;stroke-width:1.0;" x1="205.8" x2="205.8" y1="68.2969" y2="178.2969"/><line style="stroke:#0000FF;stroke-width:1.0;" x1="205.8" x2="1054" y1="178.2969" y2="178.2969"/><line style="stroke:#0000FF;stroke-width:1.0;" x1="1054" x2="1054" y1="178.2969" y2="243.4297"/><polygon fill="#0000FF" points="1054,243.4297,1058,234.4297,1054,238.4297,1050,234.4297,1054,243.4297" style="stroke:#0000FF;stroke-width:1.0;"/><text fill="#000000" font-family="sans-serif" font-size="13" lengthAdjust="spacing" textLength="110" x="942" y="220.3638">action : setName</text><line style="stroke:#0000FF;stroke-width:1.0;" x1="175.9333" x2="175.9333" y1="68.2969" y2="198.2969"/><line style="stroke:#0000FF;stroke-width:1.0;" x1="175.9333" x2="454.5" y1="198.2969" y2="198.2969"/><line style="stroke:#0000FF;stroke-width:1.0;" x1="454.5" x2="454.5" y1="198.2969" y2="243.4297"/><polygon fill="#0000FF" points="454.5,243.4297,458.5,234.4297,454.5,238.4297,450.5,234.4297,454.5,243.4297" style="stroke:#0000FF;stroke-width:1.0;"/><text fill="#000000" font-family="sans-serif" font-size="13" lengthAdjust="spacing" textLength="135" x="317.5" y="220.3638">action : setValidFrom</text><line style="stroke:#0000FF;stroke-width:1.0;" x1="280.4667" x2="280.4667" y1="68.2969" y2="128.2969"/><line style="stroke:#0000FF;stroke-width:1.0;" x1="280.4667" x2="2690.5" y1="128.2969" y2="128.2969"/><line style="stroke:#0000FF;stroke-width:1.0;" x1="2690.5" x2="2690.5" y1="128.2969" y2="243.4297"/><polygon fill="#0000FF" points="2690.5,243.4297,2694.5,234.4297,2690.5,238.4297,2686.5,234.4297,2690.5,243.4297" style="stroke:#0000FF;stroke-width:1.0;"/><text fill="#000000" font-family="sans-serif" font-size="13" lengthAdjust="spacing" textLength="189" x="2499.5" y="220.3638">action : setValidFromAndUntil</text><line style="stroke:#0000FF;stroke-width:1.0;" x1="235.6667" x2="235.6667" y1="68.2969" y2="158.2969"/><line style="stroke:#0000FF;stroke-width:1.0;" x1="235.6667" x2="1632" y1="158.2969" y2="158.2969"/><line style="stroke:#0000FF;stroke-width:1.0;" x1="1632" x2="1632" y1="158.2969" y2="243.4297"/><polygon fill="#0000FF" points="1632,243.4297,1636,234.4297,1632,238.4297,1628,234.4297,1632,243.4297" style="stroke:#0000FF;stroke-width:1.0;"/><text fill="#000000" font-family="sans-serif" font-size="13" lengthAdjust="spacing" textLength="131" x="1499" y="220.3638">action : setValidUntil</text><line style="stroke:#008000;stroke-width:1.0;" x1="265.5333" x2="265.5333" y1="68.2969" y2="138.2969"/><line style="stroke:#008000;stroke-width:1.0;" x1="265.5333" x2="2354" y1="138.2969" y2="138.2969"/><line style="stroke:#008000;stroke-width:1.0;" x1="2354" x2="2354" y1="138.2969" y2="243.4297"/><polygon fill="#008000" points="2354,243.4297,2358,234.4297,2354,238.4297,2350,234.4297,2354,243.4297" style="stroke:#008000;stroke-width:1.0;"/><text fill="#000000" font-family="sans-serif" font-size="13" lengthAdjust="spacing" textLength="46" x="2306" y="220.3638">actions</text><rect fill="#DDDDDD" height="79.1875" id="_legend" rx="7.5" ry="7.5" style="stroke:#000000;stroke-width:1.0;" width="161" x="2139" y="333.3203"/><text fill="#000000" font-family="sans-serif" font-size="14" font-weight="bold" lengthAdjust="spacing" textLength="5" x="2144" y="353.3154"> </text><text fill="#000000" font-family="sans-serif" font-size="14" font-weight="bold" lengthAdjust="spacing" textLength="28" x="2161" y="353.3154">line</text><text fill="#000000" filter="url(#b1bjkvuxh1ck8x0)" font-family="sans-serif" font-size="14" lengthAdjust="spacing" textLength="12" x="2144" y="369.6123">   </text><text fill="#000000" font-family="sans-serif" font-size="14" lengthAdjust="spacing" textLength="77" x="2160" y="369.6123">inheritance</text><text fill="#000000" filter="url(#b1bjkvuxh1ck8x1)" font-family="sans-serif" font-size="14" lengthAdjust="spacing" textLength="12" x="2144" y="385.9092">   </text><text fill="#000000" font-family="sans-serif" font-size="14" lengthAdjust="spacing" textLength="129" x="2160" y="385.9092">property reference</text><text fill="#000000" filter="url(#b1bjkvuxh1ck8x2)" font-family="sans-serif" font-size="14" lengthAdjust="spacing" textLength="12" x="2144" y="402.2061">   </text><text fill="#000000" font-family="sans-serif" font-size="14" lengthAdjust="spacing" textLength="131" x="2160" y="402.2061">discriminated class</text><line style="stroke:#000000;stroke-width:1.0;" x1="2144" x2="2295" y1="340.3203" y2="340.3203"/><line style="stroke:#000000;stroke-width:1.0;" x1="2144" x2="2295" y1="356.6172" y2="356.6172"/><line style="stroke:#000000;stroke-width:1.0;" x1="2144" x2="2295" y1="372.9141" y2="372.9141"/><line style="stroke:#000000;stroke-width:1.0;" x1="2144" x2="2295" y1="389.2109" y2="389.2109"/><line style="stroke:#000000;stroke-width:1.0;" x1="2144" x2="2295" y1="405.5078" y2="405.5078"/><line style="stroke:#000000;stroke-width:1.0;" x1="2144" x2="2144" y1="340.3203" y2="405.5078"/><line style="stroke:#000000;stroke-width:1.0;" x1="2156" x2="2156" y1="340.3203" y2="405.5078"/><line style="stroke:#000000;stroke-width:1.0;" x1="2295" x2="2295" y1="340.3203" y2="405.5078"/><!--MD5=[8e661bc93d39946db2a84bef184f63a9]
@startuml
!pragma layout elk
hide empty fields
hide empty methods
legend
|= |= line |
|<back:black>   </back>| inheritance |
|<back:green>   </back>| property reference |
|<back:blue>   </back>| discriminated class |
endlegend
interface DiscountCodeUpdateAction [[DiscountCodeUpdateAction.svg]]  {
    action: String
}


interface DiscountCodeChangeCartDiscountsAction [[DiscountCodeChangeCartDiscountsAction.svg]]  {
    action: String
    cartDiscounts: [[CartDiscountResourceIdentifier.svg List<CartDiscountResourceIdentifier>]]
}
interface DiscountCodeChangeGroupsAction [[DiscountCodeChangeGroupsAction.svg]]  {
    action: String
    groups: [[String.svg List<String>]]
}
interface DiscountCodeChangeIsActiveAction [[DiscountCodeChangeIsActiveAction.svg]]  {
    action: String
    isActive: Boolean
}
interface DiscountCodeSetCartPredicateAction [[DiscountCodeSetCartPredicateAction.svg]]  {
    action: String
    cartPredicate: String
}
interface DiscountCodeSetCustomFieldAction [[DiscountCodeSetCustomFieldAction.svg]]  {
    action: String
    name: String
    value: [[Object.svg Object]]
}
interface DiscountCodeSetCustomTypeAction [[DiscountCodeSetCustomTypeAction.svg]]  {
    action: String
    type: [[TypeResourceIdentifier.svg TypeResourceIdentifier]]
    fields: [[FieldContainer.svg FieldContainer]]
}
interface DiscountCodeSetDescriptionAction [[DiscountCodeSetDescriptionAction.svg]]  {
    action: String
    description: [[LocalizedString.svg LocalizedString]]
}
interface DiscountCodeSetMaxApplicationsAction [[DiscountCodeSetMaxApplicationsAction.svg]]  {
    action: String
    maxApplications: Long
}
interface DiscountCodeSetMaxApplicationsPerCustomerAction [[DiscountCodeSetMaxApplicationsPerCustomerAction.svg]]  {
    action: String
    maxApplicationsPerCustomer: Long
}
interface DiscountCodeSetNameAction [[DiscountCodeSetNameAction.svg]]  {
    action: String
    name: [[LocalizedString.svg LocalizedString]]
}
interface DiscountCodeSetValidFromAction [[DiscountCodeSetValidFromAction.svg]]  {
    action: String
    validFrom: DateTime
}
interface DiscountCodeSetValidFromAndUntilAction [[DiscountCodeSetValidFromAndUntilAction.svg]]  {
    action: String
    validFrom: DateTime
    validUntil: DateTime
}
interface DiscountCodeSetValidUntilAction [[DiscountCodeSetValidUntilAction.svg]]  {
    action: String
    validUntil: DateTime
}
interface DiscountCodeUpdate [[DiscountCodeUpdate.svg]]  {
    version: Long
    actions: [[DiscountCodeUpdateAction.svg List<DiscountCodeUpdateAction>]]
}
DiscountCodeUpdateAction - -> DiscountCodeChangeCartDiscountsAction #blue;text:blue : "action : changeCartDiscounts"
DiscountCodeUpdateAction - -> DiscountCodeChangeGroupsAction #blue;text:blue : "action : changeGroups"
DiscountCodeUpdateAction - -> DiscountCodeChangeIsActiveAction #blue;text:blue : "action : changeIsActive"
DiscountCodeUpdateAction - -> DiscountCodeSetCartPredicateAction #blue;text:blue : "action : setCartPredicate"
DiscountCodeUpdateAction - -> DiscountCodeSetCustomFieldAction #blue;text:blue : "action : setCustomField"
DiscountCodeUpdateAction - -> DiscountCodeSetCustomTypeAction #blue;text:blue : "action : setCustomType"
DiscountCodeUpdateAction - -> DiscountCodeSetDescriptionAction #blue;text:blue : "action : setDescription"
DiscountCodeUpdateAction - -> DiscountCodeSetMaxApplicationsAction #blue;text:blue : "action : setMaxApplications"
DiscountCodeUpdateAction - -> DiscountCodeSetMaxApplicationsPerCustomerAction #blue;text:blue : "action : setMaxApplicationsPerCustomer"
DiscountCodeUpdateAction - -> DiscountCodeSetNameAction #blue;text:blue : "action : setName"
DiscountCodeUpdateAction - -> DiscountCodeSetValidFromAction #blue;text:blue : "action : setValidFrom"
DiscountCodeUpdateAction - -> DiscountCodeSetValidFromAndUntilAction #blue;text:blue : "action : setValidFromAndUntil"
DiscountCodeUpdateAction - -> DiscountCodeSetValidUntilAction #blue;text:blue : "action : setValidUntil"
DiscountCodeUpdateAction - -> DiscountCodeUpdate #green;text:green : "actions"
@enduml

PlantUML version 1.2022.13(Sat Nov 19 13:22:17 UTC 2022)
(GPL source distribution)
Java Runtime: OpenJDK Runtime Environment
JVM: OpenJDK 64-Bit Server VM
Default Encoding: UTF-8
Language: en
Country: null
--></g></svg>
