<?xml version="1.0" encoding="UTF-8" standalone="no"?><svg xmlns="http://www.w3.org/2000/svg" xmlns:xlink="http://www.w3.org/1999/xlink" contentStyleType="text/css" height="442px" preserveAspectRatio="none" style="width:4702px;height:442px;background:#FFFFFF;" version="1.1" viewBox="0 0 4702 442" width="4702px" zoomAndPan="magnify"><defs><filter height="1" id="b1xyv89i5ogqrm0" width="1" x="0" y="0"><feFlood flood-color="#000000" result="flood"/><feComposite in="SourceGraphic" in2="flood" operator="over"/></filter><filter height="1" id="b1xyv89i5ogqrm1" width="1" x="0" y="0"><feFlood flood-color="#008000" result="flood"/><feComposite in="SourceGraphic" in2="flood" operator="over"/></filter><filter height="1" id="b1xyv89i5ogqrm2" width="1" x="0" y="0"><feFlood flood-color="#0000FF" result="flood"/><feComposite in="SourceGraphic" in2="flood" operator="over"/></filter></defs><g><!--MD5=[5643fa097323d3ee81e5afb18fa5d27f]
class DiscountCodeUpdateAction--><a href="DiscountCodeUpdateAction.svg" target="_top" title="DiscountCodeUpdateAction.svg" xlink:actuate="onRequest" xlink:href="DiscountCodeUpdateAction.svg" xlink:show="new" xlink:title="DiscountCodeUpdateAction.svg" xlink:type="simple"><g id="elem_DiscountCodeUpdateAction"><rect codeLine="10" fill="#F1F1F1" height="56.2969" id="DiscountCodeUpdateAction" rx="2.5" ry="2.5" style="stroke:#181818;stroke-width:0.5;" width="224" x="147" y="12"/><ellipse cx="162" cy="28" fill="#B4A7E5" rx="11" ry="11" style="stroke:#181818;stroke-width:1.0;"/><path d="M157.9219,23.7656 L157.9219,21.6094 L165.3125,21.6094 L165.3125,23.7656 L162.8438,23.7656 L162.8438,31.8438 L165.3125,31.8438 L165.3125,34 L157.9219,34 L157.9219,31.8438 L160.3906,31.8438 L160.3906,23.7656 L157.9219,23.7656 Z " fill="#000000"/><text fill="#000000" font-family="sans-serif" font-size="14" font-style="italic" lengthAdjust="spacing" textLength="192" x="176" y="32.8467">DiscountCodeUpdateAction</text><line style="stroke:#181818;stroke-width:0.5;" x1="148" x2="370" y1="44" y2="44"/><text fill="#000000" font-family="sans-serif" font-size="14" lengthAdjust="spacing" textLength="91" x="153" y="60.9951">action: String</text></g></a><!--MD5=[d6a9999b65c05594808b21189c4d9104]
class DiscountCodeChangeCartDiscountsAction--><a href="DiscountCodeChangeCartDiscountsAction.svg" target="_top" title="DiscountCodeChangeCartDiscountsAction.svg" xlink:actuate="onRequest" xlink:href="DiscountCodeChangeCartDiscountsAction.svg" xlink:show="new" xlink:title="DiscountCodeChangeCartDiscountsAction.svg" xlink:type="simple"><g id="elem_DiscountCodeChangeCartDiscountsAction"><rect codeLine="15" fill="#F1F1F1" height="72.5938" id="DiscountCodeChangeCartDiscountsAction" rx="2.5" ry="2.5" style="stroke:#181818;stroke-width:0.5;" width="380" x="4017" y="253.4297"/><ellipse cx="4057.2" cy="269.4297" fill="#B4A7E5" rx="11" ry="11" style="stroke:#181818;stroke-width:1.0;"/><path d="M4053.1219,265.1953 L4053.1219,263.0391 L4060.5125,263.0391 L4060.5125,265.1953 L4058.0438,265.1953 L4058.0438,273.2734 L4060.5125,273.2734 L4060.5125,275.4297 L4053.1219,275.4297 L4053.1219,273.2734 L4055.5906,273.2734 L4055.5906,265.1953 L4053.1219,265.1953 Z " fill="#000000"/><text fill="#000000" font-family="sans-serif" font-size="14" font-style="italic" lengthAdjust="spacing" textLength="292" x="4076.8" y="274.2764">DiscountCodeChangeCartDiscountsAction</text><line style="stroke:#181818;stroke-width:0.5;" x1="4018" x2="4396" y1="285.4297" y2="285.4297"/><text fill="#000000" font-family="sans-serif" font-size="14" lengthAdjust="spacing" textLength="91" x="4023" y="302.4248">action: String</text><text fill="#000000" font-family="sans-serif" font-size="14" lengthAdjust="spacing" textLength="101" x="4023" y="318.7217">cartDiscounts:</text><a href="CartDiscountResourceIdentifier.svg" target="_top" title="CartDiscountResourceIdentifier.svg" xlink:actuate="onRequest" xlink:href="CartDiscountResourceIdentifier.svg" xlink:show="new" xlink:title="CartDiscountResourceIdentifier.svg" xlink:type="simple"><text fill="#0000FF" font-family="sans-serif" font-size="14" lengthAdjust="spacing" text-decoration="underline" textLength="263" x="4128" y="318.7217">List&lt;CartDiscountResourceIdentifier&gt;</text></a></g></a><!--MD5=[8dbbe67c372fb432d5181387c44ee6b2]
class DiscountCodeChangeGroupsAction--><a href="DiscountCodeChangeGroupsAction.svg" target="_top" title="DiscountCodeChangeGroupsAction.svg" xlink:actuate="onRequest" xlink:href="DiscountCodeChangeGroupsAction.svg" xlink:show="new" xlink:title="DiscountCodeChangeGroupsAction.svg" xlink:type="simple"><g id="elem_DiscountCodeChangeGroupsAction"><rect codeLine="19" fill="#F1F1F1" height="72.5938" id="DiscountCodeChangeGroupsAction" rx="2.5" ry="2.5" style="stroke:#181818;stroke-width:0.5;" width="278" x="4417" y="253.4297"/><ellipse cx="4432" cy="269.4297" fill="#B4A7E5" rx="11" ry="11" style="stroke:#181818;stroke-width:1.0;"/><path d="M4427.9219,265.1953 L4427.9219,263.0391 L4435.3125,263.0391 L4435.3125,265.1953 L4432.8438,265.1953 L4432.8438,273.2734 L4435.3125,273.2734 L4435.3125,275.4297 L4427.9219,275.4297 L4427.9219,273.2734 L4430.3906,273.2734 L4430.3906,265.1953 L4427.9219,265.1953 Z " fill="#000000"/><text fill="#000000" font-family="sans-serif" font-size="14" font-style="italic" lengthAdjust="spacing" textLength="246" x="4446" y="274.2764">DiscountCodeChangeGroupsAction</text><line style="stroke:#181818;stroke-width:0.5;" x1="4418" x2="4694" y1="285.4297" y2="285.4297"/><text fill="#000000" font-family="sans-serif" font-size="14" lengthAdjust="spacing" textLength="91" x="4423" y="302.4248">action: String</text><text fill="#000000" font-family="sans-serif" font-size="14" lengthAdjust="spacing" textLength="54" x="4423" y="318.7217">groups:</text><a href="String.svg" target="_top" title="String.svg" xlink:actuate="onRequest" xlink:href="String.svg" xlink:show="new" xlink:title="String.svg" xlink:type="simple"><text fill="#0000FF" font-family="sans-serif" font-size="14" lengthAdjust="spacing" text-decoration="underline" textLength="87" x="4481" y="318.7217">List&lt;String&gt;</text></a></g></a><!--MD5=[d55140aabd63a4d073dc0339c444be3a]
class DiscountCodeChangeIsActiveAction--><a href="DiscountCodeChangeIsActiveAction.svg" target="_top" title="DiscountCodeChangeIsActiveAction.svg" xlink:actuate="onRequest" xlink:href="DiscountCodeChangeIsActiveAction.svg" xlink:show="new" xlink:title="DiscountCodeChangeIsActiveAction.svg" xlink:type="simple"><g id="elem_DiscountCodeChangeIsActiveAction"><rect codeLine="23" fill="#F1F1F1" height="72.5938" id="DiscountCodeChangeIsActiveAction" rx="2.5" ry="2.5" style="stroke:#181818;stroke-width:0.5;" width="282" x="20" y="253.4297"/><ellipse cx="35" cy="269.4297" fill="#B4A7E5" rx="11" ry="11" style="stroke:#181818;stroke-width:1.0;"/><path d="M30.9219,265.1953 L30.9219,263.0391 L38.3125,263.0391 L38.3125,265.1953 L35.8438,265.1953 L35.8438,273.2734 L38.3125,273.2734 L38.3125,275.4297 L30.9219,275.4297 L30.9219,273.2734 L33.3906,273.2734 L33.3906,265.1953 L30.9219,265.1953 Z " fill="#000000"/><text fill="#000000" font-family="sans-serif" font-size="14" font-style="italic" lengthAdjust="spacing" textLength="250" x="49" y="274.2764">DiscountCodeChangeIsActiveAction</text><line style="stroke:#181818;stroke-width:0.5;" x1="21" x2="301" y1="285.4297" y2="285.4297"/><text fill="#000000" font-family="sans-serif" font-size="14" lengthAdjust="spacing" textLength="91" x="26" y="302.4248">action: String</text><text fill="#000000" font-family="sans-serif" font-size="14" lengthAdjust="spacing" textLength="118" x="26" y="318.7217">isActive: Boolean</text></g></a><!--MD5=[9709728be9d3d575b6d03e1db601430a]
class DiscountCodeSetCartPredicateAction--><a href="DiscountCodeSetCartPredicateAction.svg" target="_top" title="DiscountCodeSetCartPredicateAction.svg" xlink:actuate="onRequest" xlink:href="DiscountCodeSetCartPredicateAction.svg" xlink:show="new" xlink:title="DiscountCodeSetCartPredicateAction.svg" xlink:type="simple"><g id="elem_DiscountCodeSetCartPredicateAction"><rect codeLine="27" fill="#F1F1F1" height="72.5938" id="DiscountCodeSetCartPredicateAction" rx="2.5" ry="2.5" style="stroke:#181818;stroke-width:0.5;" width="289" x="1240" y="253.4297"/><ellipse cx="1255" cy="269.4297" fill="#B4A7E5" rx="11" ry="11" style="stroke:#181818;stroke-width:1.0;"/><path d="M1250.9219,265.1953 L1250.9219,263.0391 L1258.3125,263.0391 L1258.3125,265.1953 L1255.8438,265.1953 L1255.8438,273.2734 L1258.3125,273.2734 L1258.3125,275.4297 L1250.9219,275.4297 L1250.9219,273.2734 L1253.3906,273.2734 L1253.3906,265.1953 L1250.9219,265.1953 Z " fill="#000000"/><text fill="#000000" font-family="sans-serif" font-size="14" font-style="italic" lengthAdjust="spacing" textLength="257" x="1269" y="274.2764">DiscountCodeSetCartPredicateAction</text><line style="stroke:#181818;stroke-width:0.5;" x1="1241" x2="1528" y1="285.4297" y2="285.4297"/><text fill="#000000" font-family="sans-serif" font-size="14" lengthAdjust="spacing" textLength="91" x="1246" y="302.4248">action: String</text><text fill="#000000" font-family="sans-serif" font-size="14" lengthAdjust="spacing" textLength="140" x="1246" y="318.7217">cartPredicate: String</text></g></a><!--MD5=[a55c8cd80d1fbd96990d7e8b98e5d5e9]
class DiscountCodeSetCustomFieldAction--><a href="DiscountCodeSetCustomFieldAction.svg" target="_top" title="DiscountCodeSetCustomFieldAction.svg" xlink:actuate="onRequest" xlink:href="DiscountCodeSetCustomFieldAction.svg" xlink:show="new" xlink:title="DiscountCodeSetCustomFieldAction.svg" xlink:type="simple"><g id="elem_DiscountCodeSetCustomFieldAction"><rect codeLine="31" fill="#F1F1F1" height="88.8906" id="DiscountCodeSetCustomFieldAction" rx="2.5" ry="2.5" style="stroke:#181818;stroke-width:0.5;" width="282" x="3080" y="253.4297"/><ellipse cx="3095" cy="269.4297" fill="#B4A7E5" rx="11" ry="11" style="stroke:#181818;stroke-width:1.0;"/><path d="M3090.9219,265.1953 L3090.9219,263.0391 L3098.3125,263.0391 L3098.3125,265.1953 L3095.8438,265.1953 L3095.8438,273.2734 L3098.3125,273.2734 L3098.3125,275.4297 L3090.9219,275.4297 L3090.9219,273.2734 L3093.3906,273.2734 L3093.3906,265.1953 L3090.9219,265.1953 Z " fill="#000000"/><text fill="#000000" font-family="sans-serif" font-size="14" font-style="italic" lengthAdjust="spacing" textLength="250" x="3109" y="274.2764">DiscountCodeSetCustomFieldAction</text><line style="stroke:#181818;stroke-width:0.5;" x1="3081" x2="3361" y1="285.4297" y2="285.4297"/><text fill="#000000" font-family="sans-serif" font-size="14" lengthAdjust="spacing" textLength="91" x="3086" y="302.4248">action: String</text><text fill="#000000" font-family="sans-serif" font-size="14" lengthAdjust="spacing" textLength="88" x="3086" y="318.7217">name: String</text><text fill="#000000" font-family="sans-serif" font-size="14" lengthAdjust="spacing" textLength="41" x="3086" y="335.0186">value:</text><a href="Object.svg" target="_top" title="Object.svg" xlink:actuate="onRequest" xlink:href="Object.svg" xlink:show="new" xlink:title="Object.svg" xlink:type="simple"><text fill="#0000FF" font-family="sans-serif" font-size="14" lengthAdjust="spacing" text-decoration="underline" textLength="45" x="3131" y="335.0186">Object</text></a></g></a><!--MD5=[f025d7286f119cb4f834ad8ac9bc9cdf]
class DiscountCodeSetCustomTypeAction--><a href="DiscountCodeSetCustomTypeAction.svg" target="_top" title="DiscountCodeSetCustomTypeAction.svg" xlink:actuate="onRequest" xlink:href="DiscountCodeSetCustomTypeAction.svg" xlink:show="new" xlink:title="DiscountCodeSetCustomTypeAction.svg" xlink:type="simple"><g id="elem_DiscountCodeSetCustomTypeAction"><rect codeLine="36" fill="#F1F1F1" height="88.8906" id="DiscountCodeSetCustomTypeAction" rx="2.5" ry="2.5" style="stroke:#181818;stroke-width:0.5;" width="285" x="3382" y="253.4297"/><ellipse cx="3397" cy="269.4297" fill="#B4A7E5" rx="11" ry="11" style="stroke:#181818;stroke-width:1.0;"/><path d="M3392.9219,265.1953 L3392.9219,263.0391 L3400.3125,263.0391 L3400.3125,265.1953 L3397.8438,265.1953 L3397.8438,273.2734 L3400.3125,273.2734 L3400.3125,275.4297 L3392.9219,275.4297 L3392.9219,273.2734 L3395.3906,273.2734 L3395.3906,265.1953 L3392.9219,265.1953 Z " fill="#000000"/><text fill="#000000" font-family="sans-serif" font-size="14" font-style="italic" lengthAdjust="spacing" textLength="253" x="3411" y="274.2764">DiscountCodeSetCustomTypeAction</text><line style="stroke:#181818;stroke-width:0.5;" x1="3383" x2="3666" y1="285.4297" y2="285.4297"/><text fill="#000000" font-family="sans-serif" font-size="14" lengthAdjust="spacing" textLength="91" x="3388" y="302.4248">action: String</text><text fill="#000000" font-family="sans-serif" font-size="14" lengthAdjust="spacing" textLength="35" x="3388" y="318.7217">type:</text><a href="TypeResourceIdentifier.svg" target="_top" title="TypeResourceIdentifier.svg" xlink:actuate="onRequest" xlink:href="TypeResourceIdentifier.svg" xlink:show="new" xlink:title="TypeResourceIdentifier.svg" xlink:type="simple"><text fill="#0000FF" font-family="sans-serif" font-size="14" lengthAdjust="spacing" text-decoration="underline" textLength="160" x="3427" y="318.7217">TypeResourceIdentifier</text></a><text fill="#000000" font-family="sans-serif" font-size="14" lengthAdjust="spacing" textLength="41" x="3388" y="335.0186">fields:</text><a href="FieldContainer.svg" target="_top" title="FieldContainer.svg" xlink:actuate="onRequest" xlink:href="FieldContainer.svg" xlink:show="new" xlink:title="FieldContainer.svg" xlink:type="simple"><text fill="#0000FF" font-family="sans-serif" font-size="14" lengthAdjust="spacing" text-decoration="underline" textLength="99" x="3433" y="335.0186">FieldContainer</text></a></g></a><!--MD5=[a1ee7cc2c65f2934c78426c9116519c9]
class DiscountCodeSetDescriptionAction--><a href="DiscountCodeSetDescriptionAction.svg" target="_top" title="DiscountCodeSetDescriptionAction.svg" xlink:actuate="onRequest" xlink:href="DiscountCodeSetDescriptionAction.svg" xlink:show="new" xlink:title="DiscountCodeSetDescriptionAction.svg" xlink:type="simple"><g id="elem_DiscountCodeSetDescriptionAction"><rect codeLine="41" fill="#F1F1F1" height="72.5938" id="DiscountCodeSetDescriptionAction" rx="2.5" ry="2.5" style="stroke:#181818;stroke-width:0.5;" width="275" x="2785" y="253.4297"/><ellipse cx="2800" cy="269.4297" fill="#B4A7E5" rx="11" ry="11" style="stroke:#181818;stroke-width:1.0;"/><path d="M2795.9219,265.1953 L2795.9219,263.0391 L2803.3125,263.0391 L2803.3125,265.1953 L2800.8438,265.1953 L2800.8438,273.2734 L2803.3125,273.2734 L2803.3125,275.4297 L2795.9219,275.4297 L2795.9219,273.2734 L2798.3906,273.2734 L2798.3906,265.1953 L2795.9219,265.1953 Z " fill="#000000"/><text fill="#000000" font-family="sans-serif" font-size="14" font-style="italic" lengthAdjust="spacing" textLength="243" x="2814" y="274.2764">DiscountCodeSetDescriptionAction</text><line style="stroke:#181818;stroke-width:0.5;" x1="2786" x2="3059" y1="285.4297" y2="285.4297"/><text fill="#000000" font-family="sans-serif" font-size="14" lengthAdjust="spacing" textLength="91" x="2791" y="302.4248">action: String</text><text fill="#000000" font-family="sans-serif" font-size="14" lengthAdjust="spacing" textLength="82" x="2791" y="318.7217">description:</text><a href="LocalizedString.svg" target="_top" title="LocalizedString.svg" xlink:actuate="onRequest" xlink:href="LocalizedString.svg" xlink:show="new" xlink:title="LocalizedString.svg" xlink:type="simple"><text fill="#0000FF" font-family="sans-serif" font-size="14" lengthAdjust="spacing" text-decoration="underline" textLength="104" x="2877" y="318.7217">LocalizedString</text></a></g></a><!--MD5=[1547e5cc548428a95ac33e0cd5b3c01a]
class DiscountCodeSetKeyAction--><a href="DiscountCodeSetKeyAction.svg" target="_top" title="DiscountCodeSetKeyAction.svg" xlink:actuate="onRequest" xlink:href="DiscountCodeSetKeyAction.svg" xlink:show="new" xlink:title="DiscountCodeSetKeyAction.svg" xlink:type="simple"><g id="elem_DiscountCodeSetKeyAction"><rect codeLine="45" fill="#F1F1F1" height="72.5938" id="DiscountCodeSetKeyAction" rx="2.5" ry="2.5" style="stroke:#181818;stroke-width:0.5;" width="223" x="580" y="253.4297"/><ellipse cx="595" cy="269.4297" fill="#B4A7E5" rx="11" ry="11" style="stroke:#181818;stroke-width:1.0;"/><path d="M590.9219,265.1953 L590.9219,263.0391 L598.3125,263.0391 L598.3125,265.1953 L595.8438,265.1953 L595.8438,273.2734 L598.3125,273.2734 L598.3125,275.4297 L590.9219,275.4297 L590.9219,273.2734 L593.3906,273.2734 L593.3906,265.1953 L590.9219,265.1953 Z " fill="#000000"/><text fill="#000000" font-family="sans-serif" font-size="14" font-style="italic" lengthAdjust="spacing" textLength="191" x="609" y="274.2764">DiscountCodeSetKeyAction</text><line style="stroke:#181818;stroke-width:0.5;" x1="581" x2="802" y1="285.4297" y2="285.4297"/><text fill="#000000" font-family="sans-serif" font-size="14" lengthAdjust="spacing" textLength="91" x="586" y="302.4248">action: String</text><text fill="#000000" font-family="sans-serif" font-size="14" lengthAdjust="spacing" textLength="73" x="586" y="318.7217">key: String</text></g></a><!--MD5=[0135902982c736125451e1d124b1a8ce]
class DiscountCodeSetMaxApplicationsAction--><a href="DiscountCodeSetMaxApplicationsAction.svg" target="_top" title="DiscountCodeSetMaxApplicationsAction.svg" xlink:actuate="onRequest" xlink:href="DiscountCodeSetMaxApplicationsAction.svg" xlink:show="new" xlink:title="DiscountCodeSetMaxApplicationsAction.svg" xlink:type="simple"><g id="elem_DiscountCodeSetMaxApplicationsAction"><rect codeLine="49" fill="#F1F1F1" height="72.5938" id="DiscountCodeSetMaxApplicationsAction" rx="2.5" ry="2.5" style="stroke:#181818;stroke-width:0.5;" width="308" x="1892" y="253.4297"/><ellipse cx="1907" cy="269.4297" fill="#B4A7E5" rx="11" ry="11" style="stroke:#181818;stroke-width:1.0;"/><path d="M1902.9219,265.1953 L1902.9219,263.0391 L1910.3125,263.0391 L1910.3125,265.1953 L1907.8438,265.1953 L1907.8438,273.2734 L1910.3125,273.2734 L1910.3125,275.4297 L1902.9219,275.4297 L1902.9219,273.2734 L1905.3906,273.2734 L1905.3906,265.1953 L1902.9219,265.1953 Z " fill="#000000"/><text fill="#000000" font-family="sans-serif" font-size="14" font-style="italic" lengthAdjust="spacing" textLength="276" x="1921" y="274.2764">DiscountCodeSetMaxApplicationsAction</text><line style="stroke:#181818;stroke-width:0.5;" x1="1893" x2="2199" y1="285.4297" y2="285.4297"/><text fill="#000000" font-family="sans-serif" font-size="14" lengthAdjust="spacing" textLength="91" x="1898" y="302.4248">action: String</text><text fill="#000000" font-family="sans-serif" font-size="14" lengthAdjust="spacing" textLength="154" x="1898" y="318.7217">maxApplications: Long</text></g></a><!--MD5=[08499d20a9de2616089e4d61f13737a7]
class DiscountCodeSetMaxApplicationsPerCustomerAction--><a href="DiscountCodeSetMaxApplicationsPerCustomerAction.svg" target="_top" title="DiscountCodeSetMaxApplicationsPerCustomerAction.svg" xlink:actuate="onRequest" xlink:href="DiscountCodeSetMaxApplicationsPerCustomerAction.svg" xlink:show="new" xlink:title="DiscountCodeSetMaxApplicationsPerCustomerAction.svg" xlink:type="simple"><g id="elem_DiscountCodeSetMaxApplicationsPerCustomerAction"><rect codeLine="53" fill="#F1F1F1" height="72.5938" id="DiscountCodeSetMaxApplicationsPerCustomerAction" rx="2.5" ry="2.5" style="stroke:#181818;stroke-width:0.5;" width="397" x="823" y="253.4297"/><ellipse cx="838" cy="269.4297" fill="#B4A7E5" rx="11" ry="11" style="stroke:#181818;stroke-width:1.0;"/><path d="M833.9219,265.1953 L833.9219,263.0391 L841.3125,263.0391 L841.3125,265.1953 L838.8438,265.1953 L838.8438,273.2734 L841.3125,273.2734 L841.3125,275.4297 L833.9219,275.4297 L833.9219,273.2734 L836.3906,273.2734 L836.3906,265.1953 L833.9219,265.1953 Z " fill="#000000"/><text fill="#000000" font-family="sans-serif" font-size="14" font-style="italic" lengthAdjust="spacing" textLength="365" x="852" y="274.2764">DiscountCodeSetMaxApplicationsPerCustomerAction</text><line style="stroke:#181818;stroke-width:0.5;" x1="824" x2="1219" y1="285.4297" y2="285.4297"/><text fill="#000000" font-family="sans-serif" font-size="14" lengthAdjust="spacing" textLength="91" x="829" y="302.4248">action: String</text><text fill="#000000" font-family="sans-serif" font-size="14" lengthAdjust="spacing" textLength="245" x="829" y="318.7217">maxApplicationsPerCustomer: Long</text></g></a><!--MD5=[7ecc3549cb69b49701aedd903fa4a32b]
class DiscountCodeSetNameAction--><a href="DiscountCodeSetNameAction.svg" target="_top" title="DiscountCodeSetNameAction.svg" xlink:actuate="onRequest" xlink:href="DiscountCodeSetNameAction.svg" xlink:show="new" xlink:title="DiscountCodeSetNameAction.svg" xlink:type="simple"><g id="elem_DiscountCodeSetNameAction"><rect codeLine="57" fill="#F1F1F1" height="72.5938" id="DiscountCodeSetNameAction" rx="2.5" ry="2.5" style="stroke:#181818;stroke-width:0.5;" width="238" x="322" y="253.4297"/><ellipse cx="337" cy="269.4297" fill="#B4A7E5" rx="11" ry="11" style="stroke:#181818;stroke-width:1.0;"/><path d="M332.9219,265.1953 L332.9219,263.0391 L340.3125,263.0391 L340.3125,265.1953 L337.8438,265.1953 L337.8438,273.2734 L340.3125,273.2734 L340.3125,275.4297 L332.9219,275.4297 L332.9219,273.2734 L335.3906,273.2734 L335.3906,265.1953 L332.9219,265.1953 Z " fill="#000000"/><text fill="#000000" font-family="sans-serif" font-size="14" font-style="italic" lengthAdjust="spacing" textLength="206" x="351" y="274.2764">DiscountCodeSetNameAction</text><line style="stroke:#181818;stroke-width:0.5;" x1="323" x2="559" y1="285.4297" y2="285.4297"/><text fill="#000000" font-family="sans-serif" font-size="14" lengthAdjust="spacing" textLength="91" x="328" y="302.4248">action: String</text><text fill="#000000" font-family="sans-serif" font-size="14" lengthAdjust="spacing" textLength="44" x="328" y="318.7217">name:</text><a href="LocalizedString.svg" target="_top" title="LocalizedString.svg" xlink:actuate="onRequest" xlink:href="LocalizedString.svg" xlink:show="new" xlink:title="LocalizedString.svg" xlink:type="simple"><text fill="#0000FF" font-family="sans-serif" font-size="14" lengthAdjust="spacing" text-decoration="underline" textLength="104" x="376" y="318.7217">LocalizedString</text></a></g></a><!--MD5=[16b61f117a9d10dfbed98fedaa1e677d]
class DiscountCodeSetValidFromAction--><a href="DiscountCodeSetValidFromAction.svg" target="_top" title="DiscountCodeSetValidFromAction.svg" xlink:actuate="onRequest" xlink:href="DiscountCodeSetValidFromAction.svg" xlink:show="new" xlink:title="DiscountCodeSetValidFromAction.svg" xlink:type="simple"><g id="elem_DiscountCodeSetValidFromAction"><rect codeLine="61" fill="#F1F1F1" height="72.5938" id="DiscountCodeSetValidFromAction" rx="2.5" ry="2.5" style="stroke:#181818;stroke-width:0.5;" width="265" x="2500" y="253.4297"/><ellipse cx="2515" cy="269.4297" fill="#B4A7E5" rx="11" ry="11" style="stroke:#181818;stroke-width:1.0;"/><path d="M2510.9219,265.1953 L2510.9219,263.0391 L2518.3125,263.0391 L2518.3125,265.1953 L2515.8438,265.1953 L2515.8438,273.2734 L2518.3125,273.2734 L2518.3125,275.4297 L2510.9219,275.4297 L2510.9219,273.2734 L2513.3906,273.2734 L2513.3906,265.1953 L2510.9219,265.1953 Z " fill="#000000"/><text fill="#000000" font-family="sans-serif" font-size="14" font-style="italic" lengthAdjust="spacing" textLength="233" x="2529" y="274.2764">DiscountCodeSetValidFromAction</text><line style="stroke:#181818;stroke-width:0.5;" x1="2501" x2="2764" y1="285.4297" y2="285.4297"/><text fill="#000000" font-family="sans-serif" font-size="14" lengthAdjust="spacing" textLength="91" x="2506" y="302.4248">action: String</text><text fill="#000000" font-family="sans-serif" font-size="14" lengthAdjust="spacing" textLength="141" x="2506" y="318.7217">validFrom: DateTime</text></g></a><!--MD5=[f52a7337ea4b82ed3a9eaf82fff34d2c]
class DiscountCodeSetValidFromAndUntilAction--><a href="DiscountCodeSetValidFromAndUntilAction.svg" target="_top" title="DiscountCodeSetValidFromAndUntilAction.svg" xlink:actuate="onRequest" xlink:href="DiscountCodeSetValidFromAndUntilAction.svg" xlink:show="new" xlink:title="DiscountCodeSetValidFromAndUntilAction.svg" xlink:type="simple"><g id="elem_DiscountCodeSetValidFromAndUntilAction"><rect codeLine="65" fill="#F1F1F1" height="88.8906" id="DiscountCodeSetValidFromAndUntilAction" rx="2.5" ry="2.5" style="stroke:#181818;stroke-width:0.5;" width="323" x="1549" y="253.4297"/><ellipse cx="1564" cy="269.4297" fill="#B4A7E5" rx="11" ry="11" style="stroke:#181818;stroke-width:1.0;"/><path d="M1559.9219,265.1953 L1559.9219,263.0391 L1567.3125,263.0391 L1567.3125,265.1953 L1564.8438,265.1953 L1564.8438,273.2734 L1567.3125,273.2734 L1567.3125,275.4297 L1559.9219,275.4297 L1559.9219,273.2734 L1562.3906,273.2734 L1562.3906,265.1953 L1559.9219,265.1953 Z " fill="#000000"/><text fill="#000000" font-family="sans-serif" font-size="14" font-style="italic" lengthAdjust="spacing" textLength="291" x="1578" y="274.2764">DiscountCodeSetValidFromAndUntilAction</text><line style="stroke:#181818;stroke-width:0.5;" x1="1550" x2="1871" y1="285.4297" y2="285.4297"/><text fill="#000000" font-family="sans-serif" font-size="14" lengthAdjust="spacing" textLength="91" x="1555" y="302.4248">action: String</text><text fill="#000000" font-family="sans-serif" font-size="14" lengthAdjust="spacing" textLength="141" x="1555" y="318.7217">validFrom: DateTime</text><text fill="#000000" font-family="sans-serif" font-size="14" lengthAdjust="spacing" textLength="136" x="1555" y="335.0186">validUntil: DateTime</text></g></a><!--MD5=[91b5706735ab562f374f5e310b63f2d1]
class DiscountCodeSetValidUntilAction--><a href="DiscountCodeSetValidUntilAction.svg" target="_top" title="DiscountCodeSetValidUntilAction.svg" xlink:actuate="onRequest" xlink:href="DiscountCodeSetValidUntilAction.svg" xlink:show="new" xlink:title="DiscountCodeSetValidUntilAction.svg" xlink:type="simple"><g id="elem_DiscountCodeSetValidUntilAction"><rect codeLine="70" fill="#F1F1F1" height="72.5938" id="DiscountCodeSetValidUntilAction" rx="2.5" ry="2.5" style="stroke:#181818;stroke-width:0.5;" width="260" x="2220" y="253.4297"/><ellipse cx="2235" cy="269.4297" fill="#B4A7E5" rx="11" ry="11" style="stroke:#181818;stroke-width:1.0;"/><path d="M2230.9219,265.1953 L2230.9219,263.0391 L2238.3125,263.0391 L2238.3125,265.1953 L2235.8438,265.1953 L2235.8438,273.2734 L2238.3125,273.2734 L2238.3125,275.4297 L2230.9219,275.4297 L2230.9219,273.2734 L2233.3906,273.2734 L2233.3906,265.1953 L2230.9219,265.1953 Z " fill="#000000"/><text fill="#000000" font-family="sans-serif" font-size="14" font-style="italic" lengthAdjust="spacing" textLength="228" x="2249" y="274.2764">DiscountCodeSetValidUntilAction</text><line style="stroke:#181818;stroke-width:0.5;" x1="2221" x2="2479" y1="285.4297" y2="285.4297"/><text fill="#000000" font-family="sans-serif" font-size="14" lengthAdjust="spacing" textLength="91" x="2226" y="302.4248">action: String</text><text fill="#000000" font-family="sans-serif" font-size="14" lengthAdjust="spacing" textLength="136" x="2226" y="318.7217">validUntil: DateTime</text></g></a><!--MD5=[8debc24b70a1cc282dea85c3b8f42f44]
class DiscountCodeUpdate--><a href="DiscountCodeUpdate.svg" target="_top" title="DiscountCodeUpdate.svg" xlink:actuate="onRequest" xlink:href="DiscountCodeUpdate.svg" xlink:show="new" xlink:title="DiscountCodeUpdate.svg" xlink:type="simple"><g id="elem_DiscountCodeUpdate"><rect codeLine="74" fill="#F1F1F1" height="72.5938" id="DiscountCodeUpdate" rx="2.5" ry="2.5" style="stroke:#181818;stroke-width:0.5;" width="310" x="3687" y="253.4297"/><ellipse cx="3763.75" cy="269.4297" fill="#B4A7E5" rx="11" ry="11" style="stroke:#181818;stroke-width:1.0;"/><path d="M3759.6719,265.1953 L3759.6719,263.0391 L3767.0625,263.0391 L3767.0625,265.1953 L3764.5938,265.1953 L3764.5938,273.2734 L3767.0625,273.2734 L3767.0625,275.4297 L3759.6719,275.4297 L3759.6719,273.2734 L3762.1406,273.2734 L3762.1406,265.1953 L3759.6719,265.1953 Z " fill="#000000"/><text fill="#000000" font-family="sans-serif" font-size="14" font-style="italic" lengthAdjust="spacing" textLength="148" x="3784.25" y="274.2764">DiscountCodeUpdate</text><line style="stroke:#181818;stroke-width:0.5;" x1="3688" x2="3996" y1="285.4297" y2="285.4297"/><text fill="#000000" font-family="sans-serif" font-size="14" lengthAdjust="spacing" textLength="93" x="3693" y="302.4248">version: Long</text><text fill="#000000" font-family="sans-serif" font-size="14" lengthAdjust="spacing" textLength="55" x="3693" y="318.7217">actions:</text><a href="DiscountCodeUpdateAction.svg" target="_top" title="DiscountCodeUpdateAction.svg" xlink:actuate="onRequest" xlink:href="DiscountCodeUpdateAction.svg" xlink:show="new" xlink:title="DiscountCodeUpdateAction.svg" xlink:type="simple"><text fill="#0000FF" font-family="sans-serif" font-size="14" lengthAdjust="spacing" text-decoration="underline" textLength="239" x="3752" y="318.7217">List&lt;DiscountCodeUpdateAction&gt;</text></a></g></a><line style="stroke:#0000FF;stroke-width:1.0;" x1="343" x2="343" y1="68.2969" y2="88.2969"/><line style="stroke:#0000FF;stroke-width:1.0;" x1="343" x2="4207" y1="88.2969" y2="88.2969"/><line style="stroke:#0000FF;stroke-width:1.0;" x1="4207" x2="4207" y1="88.2969" y2="253.4297"/><polygon fill="#0000FF" points="4207,253.4297,4211,244.4297,4207,248.4297,4203,244.4297,4207,253.4297" style="stroke:#0000FF;stroke-width:1.0;"/><text fill="#000000" font-family="sans-serif" font-size="13" lengthAdjust="spacing" textLength="188" x="4017" y="230.3638">action : changeCartDiscounts</text><line style="stroke:#0000FF;stroke-width:1.0;" x1="357" x2="357" y1="68.2969" y2="78.2969"/><line style="stroke:#0000FF;stroke-width:1.0;" x1="357" x2="4556" y1="78.2969" y2="78.2969"/><line style="stroke:#0000FF;stroke-width:1.0;" x1="4556" x2="4556" y1="78.2969" y2="253.4297"/><polygon fill="#0000FF" points="4556,253.4297,4560,244.4297,4556,248.4297,4552,244.4297,4556,253.4297" style="stroke:#0000FF;stroke-width:1.0;"/><text fill="#000000" font-family="sans-serif" font-size="13" lengthAdjust="spacing" textLength="144" x="4410" y="230.3638">action : changeGroups</text><line style="stroke:#0000FF;stroke-width:1.0;" x1="161" x2="161" y1="68.2969" y2="253.4297"/><polygon fill="#0000FF" points="161,253.4297,165,244.4297,161,248.4297,157,244.4297,161,253.4297" style="stroke:#0000FF;stroke-width:1.0;"/><text fill="#000000" font-family="sans-serif" font-size="13" lengthAdjust="spacing" textLength="147" x="12" y="230.3638">action : changeIsActive</text><line style="stroke:#0000FF;stroke-width:1.0;" x1="217" x2="217" y1="68.2969" y2="178.2969"/><line style="stroke:#0000FF;stroke-width:1.0;" x1="217" x2="1384.5" y1="178.2969" y2="178.2969"/><line style="stroke:#0000FF;stroke-width:1.0;" x1="1384.5" x2="1384.5" y1="178.2969" y2="253.4297"/><polygon fill="#0000FF" points="1384.5,253.4297,1388.5,244.4297,1384.5,248.4297,1380.5,244.4297,1384.5,253.4297" style="stroke:#0000FF;stroke-width:1.0;"/><text fill="#000000" font-family="sans-serif" font-size="13" lengthAdjust="spacing" textLength="158" x="1224.5" y="230.3638">action : setCartPredicate</text><line style="stroke:#0000FF;stroke-width:1.0;" x1="301" x2="301" y1="68.2969" y2="118.2969"/><line style="stroke:#0000FF;stroke-width:1.0;" x1="301" x2="3221" y1="118.2969" y2="118.2969"/><line style="stroke:#0000FF;stroke-width:1.0;" x1="3221" x2="3221" y1="118.2969" y2="253.4297"/><polygon fill="#0000FF" points="3221,253.4297,3225,244.4297,3221,248.4297,3217,244.4297,3221,253.4297" style="stroke:#0000FF;stroke-width:1.0;"/><text fill="#000000" font-family="sans-serif" font-size="13" lengthAdjust="spacing" textLength="150" x="3069" y="230.3638">action : setCustomField</text><line style="stroke:#0000FF;stroke-width:1.0;" x1="315" x2="315" y1="68.2969" y2="108.2969"/><line style="stroke:#0000FF;stroke-width:1.0;" x1="315" x2="3524.5" y1="108.2969" y2="108.2969"/><line style="stroke:#0000FF;stroke-width:1.0;" x1="3524.5" x2="3524.5" y1="108.2969" y2="253.4297"/><polygon fill="#0000FF" points="3524.5,253.4297,3528.5,244.4297,3524.5,248.4297,3520.5,244.4297,3524.5,253.4297" style="stroke:#0000FF;stroke-width:1.0;"/><text fill="#000000" font-family="sans-serif" font-size="13" lengthAdjust="spacing" textLength="151" x="3371.5" y="230.3638">action : setCustomType</text><line style="stroke:#0000FF;stroke-width:1.0;" x1="287" x2="287" y1="68.2969" y2="128.2969"/><line style="stroke:#0000FF;stroke-width:1.0;" x1="287" x2="2922.5" y1="128.2969" y2="128.2969"/><line style="stroke:#0000FF;stroke-width:1.0;" x1="2922.5" x2="2922.5" y1="128.2969" y2="253.4297"/><polygon fill="#0000FF" points="2922.5,253.4297,2926.5,244.4297,2922.5,248.4297,2918.5,244.4297,2922.5,253.4297" style="stroke:#0000FF;stroke-width:1.0;"/><text fill="#000000" font-family="sans-serif" font-size="13" lengthAdjust="spacing" textLength="143" x="2777.5" y="230.3638">action : setDescription</text><line style="stroke:#0000FF;stroke-width:1.0;" x1="189" x2="189" y1="68.2969" y2="198.2969"/><line style="stroke:#0000FF;stroke-width:1.0;" x1="189" x2="691.5" y1="198.2969" y2="198.2969"/><line style="stroke:#0000FF;stroke-width:1.0;" x1="691.5" x2="691.5" y1="198.2969" y2="253.4297"/><polygon fill="#0000FF" points="691.5,253.4297,695.5,244.4297,691.5,248.4297,687.5,244.4297,691.5,253.4297" style="stroke:#0000FF;stroke-width:1.0;"/><text fill="#000000" font-family="sans-serif" font-size="13" lengthAdjust="spacing" textLength="94" x="595.5" y="230.3638">action : setKey</text><line style="stroke:#0000FF;stroke-width:1.0;" x1="245" x2="245" y1="68.2969" y2="158.2969"/><line style="stroke:#0000FF;stroke-width:1.0;" x1="245" x2="2046" y1="158.2969" y2="158.2969"/><line style="stroke:#0000FF;stroke-width:1.0;" x1="2046" x2="2046" y1="158.2969" y2="253.4297"/><polygon fill="#0000FF" points="2046,253.4297,2050,244.4297,2046,248.4297,2042,244.4297,2046,253.4297" style="stroke:#0000FF;stroke-width:1.0;"/><text fill="#000000" font-family="sans-serif" font-size="13" lengthAdjust="spacing" textLength="174" x="1870" y="230.3638">action : setMaxApplications</text><line style="stroke:#0000FF;stroke-width:1.0;" x1="203" x2="203" y1="68.2969" y2="188.2969"/><line style="stroke:#0000FF;stroke-width:1.0;" x1="203" x2="1021.5" y1="188.2969" y2="188.2969"/><line style="stroke:#0000FF;stroke-width:1.0;" x1="1021.5" x2="1021.5" y1="188.2969" y2="253.4297"/><polygon fill="#0000FF" points="1021.5,253.4297,1025.5,244.4297,1021.5,248.4297,1017.5,244.4297,1021.5,253.4297" style="stroke:#0000FF;stroke-width:1.0;"/><text fill="#000000" font-family="sans-serif" font-size="13" lengthAdjust="spacing" textLength="258" x="761.5" y="230.3638">action : setMaxApplicationsPerCustomer</text><line style="stroke:#0000FF;stroke-width:1.0;" x1="175" x2="175" y1="68.2969" y2="208.2969"/><line style="stroke:#0000FF;stroke-width:1.0;" x1="175" x2="441" y1="208.2969" y2="208.2969"/><line style="stroke:#0000FF;stroke-width:1.0;" x1="441" x2="441" y1="208.2969" y2="253.4297"/><polygon fill="#0000FF" points="441,253.4297,445,244.4297,441,248.4297,437,244.4297,441,253.4297" style="stroke:#0000FF;stroke-width:1.0;"/><text fill="#000000" font-family="sans-serif" font-size="13" lengthAdjust="spacing" textLength="110" x="329" y="230.3638">action : setName</text><line style="stroke:#0000FF;stroke-width:1.0;" x1="273" x2="273" y1="68.2969" y2="138.2969"/><line style="stroke:#0000FF;stroke-width:1.0;" x1="273" x2="2632.5" y1="138.2969" y2="138.2969"/><line style="stroke:#0000FF;stroke-width:1.0;" x1="2632.5" x2="2632.5" y1="138.2969" y2="253.4297"/><polygon fill="#0000FF" points="2632.5,253.4297,2636.5,244.4297,2632.5,248.4297,2628.5,244.4297,2632.5,253.4297" style="stroke:#0000FF;stroke-width:1.0;"/><text fill="#000000" font-family="sans-serif" font-size="13" lengthAdjust="spacing" textLength="135" x="2495.5" y="230.3638">action : setValidFrom</text><line style="stroke:#0000FF;stroke-width:1.0;" x1="231" x2="231" y1="68.2969" y2="168.2969"/><line style="stroke:#0000FF;stroke-width:1.0;" x1="231" x2="1710.5" y1="168.2969" y2="168.2969"/><line style="stroke:#0000FF;stroke-width:1.0;" x1="1710.5" x2="1710.5" y1="168.2969" y2="253.4297"/><polygon fill="#0000FF" points="1710.5,253.4297,1714.5,244.4297,1710.5,248.4297,1706.5,244.4297,1710.5,253.4297" style="stroke:#0000FF;stroke-width:1.0;"/><text fill="#000000" font-family="sans-serif" font-size="13" lengthAdjust="spacing" textLength="189" x="1519.5" y="230.3638">action : setValidFromAndUntil</text><line style="stroke:#0000FF;stroke-width:1.0;" x1="259" x2="259" y1="68.2969" y2="148.2969"/><line style="stroke:#0000FF;stroke-width:1.0;" x1="259" x2="2350" y1="148.2969" y2="148.2969"/><line style="stroke:#0000FF;stroke-width:1.0;" x1="2350" x2="2350" y1="148.2969" y2="253.4297"/><polygon fill="#0000FF" points="2350,253.4297,2354,244.4297,2350,248.4297,2346,244.4297,2350,253.4297" style="stroke:#0000FF;stroke-width:1.0;"/><text fill="#000000" font-family="sans-serif" font-size="13" lengthAdjust="spacing" textLength="131" x="2217" y="230.3638">action : setValidUntil</text><line style="stroke:#008000;stroke-width:1.0;" x1="329" x2="329" y1="68.2969" y2="98.2969"/><line style="stroke:#008000;stroke-width:1.0;" x1="329" x2="3842" y1="98.2969" y2="98.2969"/><line style="stroke:#008000;stroke-width:1.0;" x1="3842" x2="3842" y1="98.2969" y2="253.4297"/><polygon fill="#008000" points="3842,253.4297,3846,244.4297,3842,248.4297,3838,244.4297,3842,253.4297" style="stroke:#008000;stroke-width:1.0;"/><text fill="#000000" font-family="sans-serif" font-size="13" lengthAdjust="spacing" textLength="46" x="3794" y="230.3638">actions</text><rect fill="#DDDDDD" height="79.1875" id="_legend" rx="7.5" ry="7.5" style="stroke:#000000;stroke-width:1.0;" width="161" x="2260.5" y="343.3203"/><text fill="#000000" font-family="sans-serif" font-size="14" font-weight="bold" lengthAdjust="spacing" textLength="5" x="2265.5" y="363.3154"> </text><text fill="#000000" font-family="sans-serif" font-size="14" font-weight="bold" lengthAdjust="spacing" textLength="28" x="2282.5" y="363.3154">line</text><text fill="#000000" filter="url(#b1xyv89i5ogqrm0)" font-family="sans-serif" font-size="14" lengthAdjust="spacing" textLength="12" x="2265.5" y="379.6123">   </text><text fill="#000000" font-family="sans-serif" font-size="14" lengthAdjust="spacing" textLength="77" x="2281.5" y="379.6123">inheritance</text><text fill="#000000" filter="url(#b1xyv89i5ogqrm1)" font-family="sans-serif" font-size="14" lengthAdjust="spacing" textLength="12" x="2265.5" y="395.9092">   </text><text fill="#000000" font-family="sans-serif" font-size="14" lengthAdjust="spacing" textLength="129" x="2281.5" y="395.9092">property reference</text><text fill="#000000" filter="url(#b1xyv89i5ogqrm2)" font-family="sans-serif" font-size="14" lengthAdjust="spacing" textLength="12" x="2265.5" y="412.2061">   </text><text fill="#000000" font-family="sans-serif" font-size="14" lengthAdjust="spacing" textLength="131" x="2281.5" y="412.2061">discriminated class</text><line style="stroke:#000000;stroke-width:1.0;" x1="2265.5" x2="2416.5" y1="350.3203" y2="350.3203"/><line style="stroke:#000000;stroke-width:1.0;" x1="2265.5" x2="2416.5" y1="366.6172" y2="366.6172"/><line style="stroke:#000000;stroke-width:1.0;" x1="2265.5" x2="2416.5" y1="382.9141" y2="382.9141"/><line style="stroke:#000000;stroke-width:1.0;" x1="2265.5" x2="2416.5" y1="399.2109" y2="399.2109"/><line style="stroke:#000000;stroke-width:1.0;" x1="2265.5" x2="2416.5" y1="415.5078" y2="415.5078"/><line style="stroke:#000000;stroke-width:1.0;" x1="2265.5" x2="2265.5" y1="350.3203" y2="415.5078"/><line style="stroke:#000000;stroke-width:1.0;" x1="2277.5" x2="2277.5" y1="350.3203" y2="415.5078"/><line style="stroke:#000000;stroke-width:1.0;" x1="2416.5" x2="2416.5" y1="350.3203" y2="415.5078"/><!--MD5=[69b78684d4ff6033757661931551a560]
@startuml
!pragma layout elk
hide empty fields
hide empty methods
legend
|= |= line |
|<back:black>   </back>| inheritance |
|<back:green>   </back>| property reference |
|<back:blue>   </back>| discriminated class |
endlegend
interface DiscountCodeUpdateAction [[DiscountCodeUpdateAction.svg]]  {
    action: String
}


interface DiscountCodeChangeCartDiscountsAction [[DiscountCodeChangeCartDiscountsAction.svg]]  {
    action: String
    cartDiscounts: [[CartDiscountResourceIdentifier.svg List<CartDiscountResourceIdentifier>]]
}
interface DiscountCodeChangeGroupsAction [[DiscountCodeChangeGroupsAction.svg]]  {
    action: String
    groups: [[String.svg List<String>]]
}
interface DiscountCodeChangeIsActiveAction [[DiscountCodeChangeIsActiveAction.svg]]  {
    action: String
    isActive: Boolean
}
interface DiscountCodeSetCartPredicateAction [[DiscountCodeSetCartPredicateAction.svg]]  {
    action: String
    cartPredicate: String
}
interface DiscountCodeSetCustomFieldAction [[DiscountCodeSetCustomFieldAction.svg]]  {
    action: String
    name: String
    value: [[Object.svg Object]]
}
interface DiscountCodeSetCustomTypeAction [[DiscountCodeSetCustomTypeAction.svg]]  {
    action: String
    type: [[TypeResourceIdentifier.svg TypeResourceIdentifier]]
    fields: [[FieldContainer.svg FieldContainer]]
}
interface DiscountCodeSetDescriptionAction [[DiscountCodeSetDescriptionAction.svg]]  {
    action: String
    description: [[LocalizedString.svg LocalizedString]]
}
interface DiscountCodeSetKeyAction [[DiscountCodeSetKeyAction.svg]]  {
    action: String
    key: String
}
interface DiscountCodeSetMaxApplicationsAction [[DiscountCodeSetMaxApplicationsAction.svg]]  {
    action: String
    maxApplications: Long
}
interface DiscountCodeSetMaxApplicationsPerCustomerAction [[DiscountCodeSetMaxApplicationsPerCustomerAction.svg]]  {
    action: String
    maxApplicationsPerCustomer: Long
}
interface DiscountCodeSetNameAction [[DiscountCodeSetNameAction.svg]]  {
    action: String
    name: [[LocalizedString.svg LocalizedString]]
}
interface DiscountCodeSetValidFromAction [[DiscountCodeSetValidFromAction.svg]]  {
    action: String
    validFrom: DateTime
}
interface DiscountCodeSetValidFromAndUntilAction [[DiscountCodeSetValidFromAndUntilAction.svg]]  {
    action: String
    validFrom: DateTime
    validUntil: DateTime
}
interface DiscountCodeSetValidUntilAction [[DiscountCodeSetValidUntilAction.svg]]  {
    action: String
    validUntil: DateTime
}
interface DiscountCodeUpdate [[DiscountCodeUpdate.svg]]  {
    version: Long
    actions: [[DiscountCodeUpdateAction.svg List<DiscountCodeUpdateAction>]]
}
DiscountCodeUpdateAction - -> DiscountCodeChangeCartDiscountsAction #blue;text:blue : "action : changeCartDiscounts"
DiscountCodeUpdateAction - -> DiscountCodeChangeGroupsAction #blue;text:blue : "action : changeGroups"
DiscountCodeUpdateAction - -> DiscountCodeChangeIsActiveAction #blue;text:blue : "action : changeIsActive"
DiscountCodeUpdateAction - -> DiscountCodeSetCartPredicateAction #blue;text:blue : "action : setCartPredicate"
DiscountCodeUpdateAction - -> DiscountCodeSetCustomFieldAction #blue;text:blue : "action : setCustomField"
DiscountCodeUpdateAction - -> DiscountCodeSetCustomTypeAction #blue;text:blue : "action : setCustomType"
DiscountCodeUpdateAction - -> DiscountCodeSetDescriptionAction #blue;text:blue : "action : setDescription"
DiscountCodeUpdateAction - -> DiscountCodeSetKeyAction #blue;text:blue : "action : setKey"
DiscountCodeUpdateAction - -> DiscountCodeSetMaxApplicationsAction #blue;text:blue : "action : setMaxApplications"
DiscountCodeUpdateAction - -> DiscountCodeSetMaxApplicationsPerCustomerAction #blue;text:blue : "action : setMaxApplicationsPerCustomer"
DiscountCodeUpdateAction - -> DiscountCodeSetNameAction #blue;text:blue : "action : setName"
DiscountCodeUpdateAction - -> DiscountCodeSetValidFromAction #blue;text:blue : "action : setValidFrom"
DiscountCodeUpdateAction - -> DiscountCodeSetValidFromAndUntilAction #blue;text:blue : "action : setValidFromAndUntil"
DiscountCodeUpdateAction - -> DiscountCodeSetValidUntilAction #blue;text:blue : "action : setValidUntil"
DiscountCodeUpdateAction - -> DiscountCodeUpdate #green;text:green : "actions"
@enduml

PlantUML version 1.2022.13(Sat Nov 19 13:22:17 UTC 2022)
(GPL source distribution)
Java Runtime: OpenJDK Runtime Environment
JVM: OpenJDK 64-Bit Server VM
Default Encoding: UTF-8
Language: en
Country: null
--></g></svg>
