<?xml version="1.0" encoding="UTF-8" standalone="no"?><svg xmlns="http://www.w3.org/2000/svg" xmlns:xlink="http://www.w3.org/1999/xlink" contentStyleType="text/css" height="261px" preserveAspectRatio="none" style="width:301px;height:261px;background:#FFFFFF;" version="1.1" viewBox="0 0 301 261" width="301px" zoomAndPan="magnify"><defs><filter height="1" id="b13oyhqlf7ctbt0" width="1" x="0" y="0"><feFlood flood-color="#000000" result="flood"/><feComposite in="SourceGraphic" in2="flood" operator="over"/></filter><filter height="1" id="b13oyhqlf7ctbt1" width="1" x="0" y="0"><feFlood flood-color="#008000" result="flood"/><feComposite in="SourceGraphic" in2="flood" operator="over"/></filter><filter height="1" id="b13oyhqlf7ctbt2" width="1" x="0" y="0"><feFlood flood-color="#0000FF" result="flood"/><feComposite in="SourceGraphic" in2="flood" operator="over"/></filter></defs><g><!--MD5=[d55140aabd63a4d073dc0339c444be3a]
class DiscountCodeChangeIsActiveAction--><a href="DiscountCodeChangeIsActiveAction.svg" target="_top" title="DiscountCodeChangeIsActiveAction.svg" xlink:actuate="onRequest" xlink:href="DiscountCodeChangeIsActiveAction.svg" xlink:show="new" xlink:title="DiscountCodeChangeIsActiveAction.svg" xlink:type="simple"><g id="elem_DiscountCodeChangeIsActiveAction"><rect codeLine="10" fill="#F1F1F1" height="72.5938" id="DiscountCodeChangeIsActiveAction" rx="2.5" ry="2.5" style="stroke:#181818;stroke-width:0.5;" width="282" x="12" y="88.2969"/><ellipse cx="27" cy="104.2969" fill="#B4A7E5" rx="11" ry="11" style="stroke:#181818;stroke-width:1.0;"/><path d="M22.9219,100.0625 L22.9219,97.9063 L30.3125,97.9063 L30.3125,100.0625 L27.8438,100.0625 L27.8438,108.1406 L30.3125,108.1406 L30.3125,110.2969 L22.9219,110.2969 L22.9219,108.1406 L25.3906,108.1406 L25.3906,100.0625 L22.9219,100.0625 Z " fill="#000000"/><text fill="#000000" font-family="sans-serif" font-size="14" font-style="italic" lengthAdjust="spacing" textLength="250" x="41" y="109.1436">DiscountCodeChangeIsActiveAction</text><line style="stroke:#181818;stroke-width:0.5;" x1="13" x2="293" y1="120.2969" y2="120.2969"/><text fill="#000000" font-family="sans-serif" font-size="14" lengthAdjust="spacing" textLength="91" x="18" y="137.292">action: String</text><text fill="#000000" font-family="sans-serif" font-size="14" lengthAdjust="spacing" textLength="118" x="18" y="153.5889">isActive: Boolean</text></g></a><!--MD5=[5643fa097323d3ee81e5afb18fa5d27f]
class DiscountCodeUpdateAction--><a href="DiscountCodeUpdateAction.svg" target="_top" title="DiscountCodeUpdateAction.svg" xlink:actuate="onRequest" xlink:href="DiscountCodeUpdateAction.svg" xlink:show="new" xlink:title="DiscountCodeUpdateAction.svg" xlink:type="simple"><g id="elem_DiscountCodeUpdateAction"><rect codeLine="14" fill="#F1F1F1" height="56.2969" id="DiscountCodeUpdateAction" rx="2.5" ry="2.5" style="stroke:#181818;stroke-width:0.5;" width="224" x="41" y="12"/><ellipse cx="56" cy="28" fill="#B4A7E5" rx="11" ry="11" style="stroke:#181818;stroke-width:1.0;"/><path d="M51.9219,23.7656 L51.9219,21.6094 L59.3125,21.6094 L59.3125,23.7656 L56.8438,23.7656 L56.8438,31.8438 L59.3125,31.8438 L59.3125,34 L51.9219,34 L51.9219,31.8438 L54.3906,31.8438 L54.3906,23.7656 L51.9219,23.7656 Z " fill="#000000"/><text fill="#000000" font-family="sans-serif" font-size="14" font-style="italic" lengthAdjust="spacing" textLength="192" x="70" y="32.8467">DiscountCodeUpdateAction</text><line style="stroke:#181818;stroke-width:0.5;" x1="42" x2="264" y1="44" y2="44"/><text fill="#000000" font-family="sans-serif" font-size="14" lengthAdjust="spacing" textLength="91" x="47" y="60.9951">action: String</text></g></a><line style="stroke:#181818;stroke-width:1.0;" x1="153" x2="153" y1="68.2969" y2="88.2969"/><polygon fill="#FFFFFF" points="153,68.2969,146,87.2969,160,87.2969,153,68.2969" style="stroke:#181818;stroke-width:1.0;"/><rect fill="#DDDDDD" height="79.1875" id="_legend" rx="7.5" ry="7.5" style="stroke:#000000;stroke-width:1.0;" width="161" x="60.5" y="161.8906"/><text fill="#000000" font-family="sans-serif" font-size="14" font-weight="bold" lengthAdjust="spacing" textLength="5" x="65.5" y="181.8857"> </text><text fill="#000000" font-family="sans-serif" font-size="14" font-weight="bold" lengthAdjust="spacing" textLength="28" x="82.5" y="181.8857">line</text><text fill="#000000" filter="url(#b13oyhqlf7ctbt0)" font-family="sans-serif" font-size="14" lengthAdjust="spacing" textLength="12" x="65.5" y="198.1826">   </text><text fill="#000000" font-family="sans-serif" font-size="14" lengthAdjust="spacing" textLength="77" x="81.5" y="198.1826">inheritance</text><text fill="#000000" filter="url(#b13oyhqlf7ctbt1)" font-family="sans-serif" font-size="14" lengthAdjust="spacing" textLength="12" x="65.5" y="214.4795">   </text><text fill="#000000" font-family="sans-serif" font-size="14" lengthAdjust="spacing" textLength="129" x="81.5" y="214.4795">property reference</text><text fill="#000000" filter="url(#b13oyhqlf7ctbt2)" font-family="sans-serif" font-size="14" lengthAdjust="spacing" textLength="12" x="65.5" y="230.7764">   </text><text fill="#000000" font-family="sans-serif" font-size="14" lengthAdjust="spacing" textLength="131" x="81.5" y="230.7764">discriminated class</text><line style="stroke:#000000;stroke-width:1.0;" x1="65.5" x2="216.5" y1="168.8906" y2="168.8906"/><line style="stroke:#000000;stroke-width:1.0;" x1="65.5" x2="216.5" y1="185.1875" y2="185.1875"/><line style="stroke:#000000;stroke-width:1.0;" x1="65.5" x2="216.5" y1="201.4844" y2="201.4844"/><line style="stroke:#000000;stroke-width:1.0;" x1="65.5" x2="216.5" y1="217.7813" y2="217.7813"/><line style="stroke:#000000;stroke-width:1.0;" x1="65.5" x2="216.5" y1="234.0781" y2="234.0781"/><line style="stroke:#000000;stroke-width:1.0;" x1="65.5" x2="65.5" y1="168.8906" y2="234.0781"/><line style="stroke:#000000;stroke-width:1.0;" x1="77.5" x2="77.5" y1="168.8906" y2="234.0781"/><line style="stroke:#000000;stroke-width:1.0;" x1="216.5" x2="216.5" y1="168.8906" y2="234.0781"/><!--MD5=[9ecb457133ffdcf6c7d638f82926eada]
@startuml
!pragma layout elk
hide empty fields
hide empty methods
legend
|= |= line |
|<back:black>   </back>| inheritance |
|<back:green>   </back>| property reference |
|<back:blue>   </back>| discriminated class |
endlegend
interface DiscountCodeChangeIsActiveAction [[DiscountCodeChangeIsActiveAction.svg]] extends DiscountCodeUpdateAction {
    action: String
    isActive: Boolean
}
interface DiscountCodeUpdateAction [[DiscountCodeUpdateAction.svg]]  {
    action: String
}





@enduml

PlantUML version 1.2022.13(Sat Nov 19 13:22:17 UTC 2022)
(GPL source distribution)
Java Runtime: OpenJDK Runtime Environment
JVM: OpenJDK 64-Bit Server VM
Default Encoding: UTF-8
Language: en
Country: null
--></g></svg>
