<?xml version="1.0" encoding="UTF-8" standalone="no"?><svg xmlns="http://www.w3.org/2000/svg" xmlns:xlink="http://www.w3.org/1999/xlink" contentStyleType="text/css" height="261px" preserveAspectRatio="none" style="width:243px;height:261px;background:#FFFFFF;" version="1.1" viewBox="0 0 243 261" width="243px" zoomAndPan="magnify"><defs><filter height="1" id="b12bqpll58app0" width="1" x="0" y="0"><feFlood flood-color="#000000" result="flood"/><feComposite in="SourceGraphic" in2="flood" operator="over"/></filter><filter height="1" id="b12bqpll58app1" width="1" x="0" y="0"><feFlood flood-color="#008000" result="flood"/><feComposite in="SourceGraphic" in2="flood" operator="over"/></filter><filter height="1" id="b12bqpll58app2" width="1" x="0" y="0"><feFlood flood-color="#0000FF" result="flood"/><feComposite in="SourceGraphic" in2="flood" operator="over"/></filter></defs><g><!--MD5=[1547e5cc548428a95ac33e0cd5b3c01a]
class DiscountCodeSetKeyAction--><a href="DiscountCodeSetKeyAction.svg" target="_top" title="DiscountCodeSetKeyAction.svg" xlink:actuate="onRequest" xlink:href="DiscountCodeSetKeyAction.svg" xlink:show="new" xlink:title="DiscountCodeSetKeyAction.svg" xlink:type="simple"><g id="elem_DiscountCodeSetKeyAction"><rect codeLine="10" fill="#F1F1F1" height="72.5938" id="DiscountCodeSetKeyAction" rx="2.5" ry="2.5" style="stroke:#181818;stroke-width:0.5;" width="223" x="12.5" y="88.2969"/><ellipse cx="27.5" cy="104.2969" fill="#B4A7E5" rx="11" ry="11" style="stroke:#181818;stroke-width:1.0;"/><path d="M23.4219,100.0625 L23.4219,97.9063 L30.8125,97.9063 L30.8125,100.0625 L28.3438,100.0625 L28.3438,108.1406 L30.8125,108.1406 L30.8125,110.2969 L23.4219,110.2969 L23.4219,108.1406 L25.8906,108.1406 L25.8906,100.0625 L23.4219,100.0625 Z " fill="#000000"/><text fill="#000000" font-family="sans-serif" font-size="14" font-style="italic" lengthAdjust="spacing" textLength="191" x="41.5" y="109.1436">DiscountCodeSetKeyAction</text><line style="stroke:#181818;stroke-width:0.5;" x1="13.5" x2="234.5" y1="120.2969" y2="120.2969"/><text fill="#000000" font-family="sans-serif" font-size="14" lengthAdjust="spacing" textLength="91" x="18.5" y="137.292">action: String</text><text fill="#000000" font-family="sans-serif" font-size="14" lengthAdjust="spacing" textLength="73" x="18.5" y="153.5889">key: String</text></g></a><!--MD5=[5643fa097323d3ee81e5afb18fa5d27f]
class DiscountCodeUpdateAction--><a href="DiscountCodeUpdateAction.svg" target="_top" title="DiscountCodeUpdateAction.svg" xlink:actuate="onRequest" xlink:href="DiscountCodeUpdateAction.svg" xlink:show="new" xlink:title="DiscountCodeUpdateAction.svg" xlink:type="simple"><g id="elem_DiscountCodeUpdateAction"><rect codeLine="14" fill="#F1F1F1" height="56.2969" id="DiscountCodeUpdateAction" rx="2.5" ry="2.5" style="stroke:#181818;stroke-width:0.5;" width="224" x="12" y="12"/><ellipse cx="27" cy="28" fill="#B4A7E5" rx="11" ry="11" style="stroke:#181818;stroke-width:1.0;"/><path d="M22.9219,23.7656 L22.9219,21.6094 L30.3125,21.6094 L30.3125,23.7656 L27.8438,23.7656 L27.8438,31.8438 L30.3125,31.8438 L30.3125,34 L22.9219,34 L22.9219,31.8438 L25.3906,31.8438 L25.3906,23.7656 L22.9219,23.7656 Z " fill="#000000"/><text fill="#000000" font-family="sans-serif" font-size="14" font-style="italic" lengthAdjust="spacing" textLength="192" x="41" y="32.8467">DiscountCodeUpdateAction</text><line style="stroke:#181818;stroke-width:0.5;" x1="13" x2="235" y1="44" y2="44"/><text fill="#000000" font-family="sans-serif" font-size="14" lengthAdjust="spacing" textLength="91" x="18" y="60.9951">action: String</text></g></a><line style="stroke:#181818;stroke-width:1.0;" x1="124" x2="124" y1="68.2969" y2="88.2969"/><polygon fill="#FFFFFF" points="124,68.2969,117,87.2969,131,87.2969,124,68.2969" style="stroke:#181818;stroke-width:1.0;"/><rect fill="#DDDDDD" height="79.1875" id="_legend" rx="7.5" ry="7.5" style="stroke:#000000;stroke-width:1.0;" width="161" x="31.5" y="161.8906"/><text fill="#000000" font-family="sans-serif" font-size="14" font-weight="bold" lengthAdjust="spacing" textLength="5" x="36.5" y="181.8857"> </text><text fill="#000000" font-family="sans-serif" font-size="14" font-weight="bold" lengthAdjust="spacing" textLength="28" x="53.5" y="181.8857">line</text><text fill="#000000" filter="url(#b12bqpll58app0)" font-family="sans-serif" font-size="14" lengthAdjust="spacing" textLength="12" x="36.5" y="198.1826">   </text><text fill="#000000" font-family="sans-serif" font-size="14" lengthAdjust="spacing" textLength="77" x="52.5" y="198.1826">inheritance</text><text fill="#000000" filter="url(#b12bqpll58app1)" font-family="sans-serif" font-size="14" lengthAdjust="spacing" textLength="12" x="36.5" y="214.4795">   </text><text fill="#000000" font-family="sans-serif" font-size="14" lengthAdjust="spacing" textLength="129" x="52.5" y="214.4795">property reference</text><text fill="#000000" filter="url(#b12bqpll58app2)" font-family="sans-serif" font-size="14" lengthAdjust="spacing" textLength="12" x="36.5" y="230.7764">   </text><text fill="#000000" font-family="sans-serif" font-size="14" lengthAdjust="spacing" textLength="131" x="52.5" y="230.7764">discriminated class</text><line style="stroke:#000000;stroke-width:1.0;" x1="36.5" x2="187.5" y1="168.8906" y2="168.8906"/><line style="stroke:#000000;stroke-width:1.0;" x1="36.5" x2="187.5" y1="185.1875" y2="185.1875"/><line style="stroke:#000000;stroke-width:1.0;" x1="36.5" x2="187.5" y1="201.4844" y2="201.4844"/><line style="stroke:#000000;stroke-width:1.0;" x1="36.5" x2="187.5" y1="217.7813" y2="217.7813"/><line style="stroke:#000000;stroke-width:1.0;" x1="36.5" x2="187.5" y1="234.0781" y2="234.0781"/><line style="stroke:#000000;stroke-width:1.0;" x1="36.5" x2="36.5" y1="168.8906" y2="234.0781"/><line style="stroke:#000000;stroke-width:1.0;" x1="48.5" x2="48.5" y1="168.8906" y2="234.0781"/><line style="stroke:#000000;stroke-width:1.0;" x1="187.5" x2="187.5" y1="168.8906" y2="234.0781"/><!--MD5=[1299172a33b4e6d70b3628532ac86993]
@startuml
!pragma layout elk
hide empty fields
hide empty methods
legend
|= |= line |
|<back:black>   </back>| inheritance |
|<back:green>   </back>| property reference |
|<back:blue>   </back>| discriminated class |
endlegend
interface DiscountCodeSetKeyAction [[DiscountCodeSetKeyAction.svg]] extends DiscountCodeUpdateAction {
    action: String
    key: String
}
interface DiscountCodeUpdateAction [[DiscountCodeUpdateAction.svg]]  {
    action: String
}





@enduml

PlantUML version 1.2022.13(Sat Nov 19 13:22:17 UTC 2022)
(GPL source distribution)
Java Runtime: OpenJDK Runtime Environment
JVM: OpenJDK 64-Bit Server VM
Default Encoding: UTF-8
Language: en
Country: null
--></g></svg>
