<?xml version="1.0" encoding="UTF-8" standalone="no"?><svg xmlns="http://www.w3.org/2000/svg" xmlns:xlink="http://www.w3.org/1999/xlink" contentStyleType="text/css" height="336px" preserveAspectRatio="none" style="width:1716px;height:336px;background:#FFFFFF;" version="1.1" viewBox="0 0 1716 336" width="1716px" zoomAndPan="magnify"><defs><filter height="1" id="bnkrvmw770m1w0" width="1" x="0" y="0"><feFlood flood-color="#000000" result="flood"/><feComposite in="SourceGraphic" in2="flood" operator="over"/></filter><filter height="1" id="bnkrvmw770m1w1" width="1" x="0" y="0"><feFlood flood-color="#008000" result="flood"/><feComposite in="SourceGraphic" in2="flood" operator="over"/></filter><filter height="1" id="bnkrvmw770m1w2" width="1" x="0" y="0"><feFlood flood-color="#0000FF" result="flood"/><feComposite in="SourceGraphic" in2="flood" operator="over"/></filter></defs><g><!--MD5=[97720cc99586306dc915a21c60cb8e6d]
class DiscountGroupUpdateAction--><a href="DiscountGroupUpdateAction.svg" target="_top" title="DiscountGroupUpdateAction.svg" xlink:actuate="onRequest" xlink:href="DiscountGroupUpdateAction.svg" xlink:show="new" xlink:title="DiscountGroupUpdateAction.svg" xlink:type="simple"><g id="elem_DiscountGroupUpdateAction"><rect codeLine="10" fill="#F1F1F1" height="56.2969" id="DiscountGroupUpdateAction" rx="2.5" ry="2.5" style="stroke:#181818;stroke-width:0.5;" width="230" x="93.6429" y="12"/><ellipse cx="108.6429" cy="28" fill="#B4A7E5" rx="11" ry="11" style="stroke:#181818;stroke-width:1.0;"/><path d="M104.5647,23.7656 L104.5647,21.6094 L111.9554,21.6094 L111.9554,23.7656 L109.4866,23.7656 L109.4866,31.8438 L111.9554,31.8438 L111.9554,34 L104.5647,34 L104.5647,31.8438 L107.0335,31.8438 L107.0335,23.7656 L104.5647,23.7656 Z " fill="#000000"/><text fill="#000000" font-family="sans-serif" font-size="14" font-style="italic" lengthAdjust="spacing" textLength="198" x="122.6429" y="32.8467">DiscountGroupUpdateAction</text><line style="stroke:#181818;stroke-width:0.5;" x1="94.6429" x2="322.6429" y1="44" y2="44"/><text fill="#000000" font-family="sans-serif" font-size="14" lengthAdjust="spacing" textLength="91" x="99.6429" y="60.9951">action: String</text></g></a><!--MD5=[ee56488dcd3cdcb2d3d0e8b47fbb887b]
class DiscountGroupSetDescriptionAction--><a href="DiscountGroupSetDescriptionAction.svg" target="_top" title="DiscountGroupSetDescriptionAction.svg" xlink:actuate="onRequest" xlink:href="DiscountGroupSetDescriptionAction.svg" xlink:show="new" xlink:title="DiscountGroupSetDescriptionAction.svg" xlink:type="simple"><g id="elem_DiscountGroupSetDescriptionAction"><rect codeLine="15" fill="#F1F1F1" height="72.5938" id="DiscountGroupSetDescriptionAction" rx="2.5" ry="2.5" style="stroke:#181818;stroke-width:0.5;" width="281" x="1151" y="163.4297"/><ellipse cx="1166" cy="179.4297" fill="#B4A7E5" rx="11" ry="11" style="stroke:#181818;stroke-width:1.0;"/><path d="M1161.9219,175.1953 L1161.9219,173.0391 L1169.3125,173.0391 L1169.3125,175.1953 L1166.8438,175.1953 L1166.8438,183.2734 L1169.3125,183.2734 L1169.3125,185.4297 L1161.9219,185.4297 L1161.9219,183.2734 L1164.3906,183.2734 L1164.3906,175.1953 L1161.9219,175.1953 Z " fill="#000000"/><text fill="#000000" font-family="sans-serif" font-size="14" font-style="italic" lengthAdjust="spacing" textLength="249" x="1180" y="184.2764">DiscountGroupSetDescriptionAction</text><line style="stroke:#181818;stroke-width:0.5;" x1="1152" x2="1431" y1="195.4297" y2="195.4297"/><text fill="#000000" font-family="sans-serif" font-size="14" lengthAdjust="spacing" textLength="91" x="1157" y="212.4248">action: String</text><text fill="#000000" font-family="sans-serif" font-size="14" lengthAdjust="spacing" textLength="82" x="1157" y="228.7217">description:</text><a href="LocalizedString.svg" target="_top" title="LocalizedString.svg" xlink:actuate="onRequest" xlink:href="LocalizedString.svg" xlink:show="new" xlink:title="LocalizedString.svg" xlink:type="simple"><text fill="#0000FF" font-family="sans-serif" font-size="14" lengthAdjust="spacing" text-decoration="underline" textLength="104" x="1243" y="228.7217">LocalizedString</text></a></g></a><!--MD5=[7d5b26c1f462583f9b19940d7a42d724]
class DiscountGroupSetIsActiveAction--><a href="DiscountGroupSetIsActiveAction.svg" target="_top" title="DiscountGroupSetIsActiveAction.svg" xlink:actuate="onRequest" xlink:href="DiscountGroupSetIsActiveAction.svg" xlink:show="new" xlink:title="DiscountGroupSetIsActiveAction.svg" xlink:type="simple"><g id="elem_DiscountGroupSetIsActiveAction"><rect codeLine="19" fill="#F1F1F1" height="72.5938" id="DiscountGroupSetIsActiveAction" rx="2.5" ry="2.5" style="stroke:#181818;stroke-width:0.5;" width="257" x="1452" y="163.4297"/><ellipse cx="1467" cy="179.4297" fill="#B4A7E5" rx="11" ry="11" style="stroke:#181818;stroke-width:1.0;"/><path d="M1462.9219,175.1953 L1462.9219,173.0391 L1470.3125,173.0391 L1470.3125,175.1953 L1467.8438,175.1953 L1467.8438,183.2734 L1470.3125,183.2734 L1470.3125,185.4297 L1462.9219,185.4297 L1462.9219,183.2734 L1465.3906,183.2734 L1465.3906,175.1953 L1462.9219,175.1953 Z " fill="#000000"/><text fill="#000000" font-family="sans-serif" font-size="14" font-style="italic" lengthAdjust="spacing" textLength="225" x="1481" y="184.2764">DiscountGroupSetIsActiveAction</text><line style="stroke:#181818;stroke-width:0.5;" x1="1453" x2="1708" y1="195.4297" y2="195.4297"/><text fill="#000000" font-family="sans-serif" font-size="14" lengthAdjust="spacing" textLength="91" x="1458" y="212.4248">action: String</text><text fill="#000000" font-family="sans-serif" font-size="14" lengthAdjust="spacing" textLength="118" x="1458" y="228.7217">isActive: Boolean</text></g></a><!--MD5=[900eb0dd87a33d4fb200ab53c3af6098]
class DiscountGroupSetKeyAction--><a href="DiscountGroupSetKeyAction.svg" target="_top" title="DiscountGroupSetKeyAction.svg" xlink:actuate="onRequest" xlink:href="DiscountGroupSetKeyAction.svg" xlink:show="new" xlink:title="DiscountGroupSetKeyAction.svg" xlink:type="simple"><g id="elem_DiscountGroupSetKeyAction"><rect codeLine="23" fill="#F1F1F1" height="72.5938" id="DiscountGroupSetKeyAction" rx="2.5" ry="2.5" style="stroke:#181818;stroke-width:0.5;" width="229" x="12" y="163.4297"/><ellipse cx="27" cy="179.4297" fill="#B4A7E5" rx="11" ry="11" style="stroke:#181818;stroke-width:1.0;"/><path d="M22.9219,175.1953 L22.9219,173.0391 L30.3125,173.0391 L30.3125,175.1953 L27.8438,175.1953 L27.8438,183.2734 L30.3125,183.2734 L30.3125,185.4297 L22.9219,185.4297 L22.9219,183.2734 L25.3906,183.2734 L25.3906,175.1953 L22.9219,175.1953 Z " fill="#000000"/><text fill="#000000" font-family="sans-serif" font-size="14" font-style="italic" lengthAdjust="spacing" textLength="197" x="41" y="184.2764">DiscountGroupSetKeyAction</text><line style="stroke:#181818;stroke-width:0.5;" x1="13" x2="240" y1="195.4297" y2="195.4297"/><text fill="#000000" font-family="sans-serif" font-size="14" lengthAdjust="spacing" textLength="91" x="18" y="212.4248">action: String</text><text fill="#000000" font-family="sans-serif" font-size="14" lengthAdjust="spacing" textLength="73" x="18" y="228.7217">key: String</text></g></a><!--MD5=[f0f334f7b3f68f83a58cc79a3626db4b]
class DiscountGroupSetNameAction--><a href="DiscountGroupSetNameAction.svg" target="_top" title="DiscountGroupSetNameAction.svg" xlink:actuate="onRequest" xlink:href="DiscountGroupSetNameAction.svg" xlink:show="new" xlink:title="DiscountGroupSetNameAction.svg" xlink:type="simple"><g id="elem_DiscountGroupSetNameAction"><rect codeLine="27" fill="#F1F1F1" height="72.5938" id="DiscountGroupSetNameAction" rx="2.5" ry="2.5" style="stroke:#181818;stroke-width:0.5;" width="244" x="261" y="163.4297"/><ellipse cx="276" cy="179.4297" fill="#B4A7E5" rx="11" ry="11" style="stroke:#181818;stroke-width:1.0;"/><path d="M271.9219,175.1953 L271.9219,173.0391 L279.3125,173.0391 L279.3125,175.1953 L276.8438,175.1953 L276.8438,183.2734 L279.3125,183.2734 L279.3125,185.4297 L271.9219,185.4297 L271.9219,183.2734 L274.3906,183.2734 L274.3906,175.1953 L271.9219,175.1953 Z " fill="#000000"/><text fill="#000000" font-family="sans-serif" font-size="14" font-style="italic" lengthAdjust="spacing" textLength="212" x="290" y="184.2764">DiscountGroupSetNameAction</text><line style="stroke:#181818;stroke-width:0.5;" x1="262" x2="504" y1="195.4297" y2="195.4297"/><text fill="#000000" font-family="sans-serif" font-size="14" lengthAdjust="spacing" textLength="91" x="267" y="212.4248">action: String</text><text fill="#000000" font-family="sans-serif" font-size="14" lengthAdjust="spacing" textLength="44" x="267" y="228.7217">name:</text><a href="LocalizedString.svg" target="_top" title="LocalizedString.svg" xlink:actuate="onRequest" xlink:href="LocalizedString.svg" xlink:show="new" xlink:title="LocalizedString.svg" xlink:type="simple"><text fill="#0000FF" font-family="sans-serif" font-size="14" lengthAdjust="spacing" text-decoration="underline" textLength="104" x="315" y="228.7217">LocalizedString</text></a></g></a><!--MD5=[ae55fbe53ed4dae0353517d95ae0f7e9]
class DiscountGroupSetSortOrderAction--><a href="DiscountGroupSetSortOrderAction.svg" target="_top" title="DiscountGroupSetSortOrderAction.svg" xlink:actuate="onRequest" xlink:href="DiscountGroupSetSortOrderAction.svg" xlink:show="new" xlink:title="DiscountGroupSetSortOrderAction.svg" xlink:type="simple"><g id="elem_DiscountGroupSetSortOrderAction"><rect codeLine="31" fill="#F1F1F1" height="72.5938" id="DiscountGroupSetSortOrderAction" rx="2.5" ry="2.5" style="stroke:#181818;stroke-width:0.5;" width="270" x="525" y="163.4297"/><ellipse cx="540" cy="179.4297" fill="#B4A7E5" rx="11" ry="11" style="stroke:#181818;stroke-width:1.0;"/><path d="M535.9219,175.1953 L535.9219,173.0391 L543.3125,173.0391 L543.3125,175.1953 L540.8438,175.1953 L540.8438,183.2734 L543.3125,183.2734 L543.3125,185.4297 L535.9219,185.4297 L535.9219,183.2734 L538.3906,183.2734 L538.3906,175.1953 L535.9219,175.1953 Z " fill="#000000"/><text fill="#000000" font-family="sans-serif" font-size="14" font-style="italic" lengthAdjust="spacing" textLength="238" x="554" y="184.2764">DiscountGroupSetSortOrderAction</text><line style="stroke:#181818;stroke-width:0.5;" x1="526" x2="794" y1="195.4297" y2="195.4297"/><text fill="#000000" font-family="sans-serif" font-size="14" lengthAdjust="spacing" textLength="91" x="531" y="212.4248">action: String</text><text fill="#000000" font-family="sans-serif" font-size="14" lengthAdjust="spacing" textLength="115" x="531" y="228.7217">sortOrder: String</text></g></a><!--MD5=[47c88ee01d14ba76cb6379d27be1f6a1]
class DiscountGroupUpdate--><a href="DiscountGroupUpdate.svg" target="_top" title="DiscountGroupUpdate.svg" xlink:actuate="onRequest" xlink:href="DiscountGroupUpdate.svg" xlink:show="new" xlink:title="DiscountGroupUpdate.svg" xlink:type="simple"><g id="elem_DiscountGroupUpdate"><rect codeLine="35" fill="#F1F1F1" height="72.5938" id="DiscountGroupUpdate" rx="2.5" ry="2.5" style="stroke:#181818;stroke-width:0.5;" width="316" x="815" y="163.4297"/><ellipse cx="891.75" cy="179.4297" fill="#B4A7E5" rx="11" ry="11" style="stroke:#181818;stroke-width:1.0;"/><path d="M887.6719,175.1953 L887.6719,173.0391 L895.0625,173.0391 L895.0625,175.1953 L892.5938,175.1953 L892.5938,183.2734 L895.0625,183.2734 L895.0625,185.4297 L887.6719,185.4297 L887.6719,183.2734 L890.1406,183.2734 L890.1406,175.1953 L887.6719,175.1953 Z " fill="#000000"/><text fill="#000000" font-family="sans-serif" font-size="14" font-style="italic" lengthAdjust="spacing" textLength="154" x="912.25" y="184.2764">DiscountGroupUpdate</text><line style="stroke:#181818;stroke-width:0.5;" x1="816" x2="1130" y1="195.4297" y2="195.4297"/><text fill="#000000" font-family="sans-serif" font-size="14" lengthAdjust="spacing" textLength="93" x="821" y="212.4248">version: Long</text><text fill="#000000" font-family="sans-serif" font-size="14" lengthAdjust="spacing" textLength="55" x="821" y="228.7217">actions:</text><a href="DiscountGroupUpdateAction.svg" target="_top" title="DiscountGroupUpdateAction.svg" xlink:actuate="onRequest" xlink:href="DiscountGroupUpdateAction.svg" xlink:show="new" xlink:title="DiscountGroupUpdateAction.svg" xlink:type="simple"><text fill="#0000FF" font-family="sans-serif" font-size="14" lengthAdjust="spacing" text-decoration="underline" textLength="245" x="880" y="228.7217">List&lt;DiscountGroupUpdateAction&gt;</text></a></g></a><line style="stroke:#0000FF;stroke-width:1.0;" x1="257.9286" x2="257.9286" y1="68.2969" y2="88.2969"/><line style="stroke:#0000FF;stroke-width:1.0;" x1="257.9286" x2="1291.5" y1="88.2969" y2="88.2969"/><line style="stroke:#0000FF;stroke-width:1.0;" x1="1291.5" x2="1291.5" y1="88.2969" y2="163.4297"/><polygon fill="#0000FF" points="1291.5,163.4297,1295.5,154.4297,1291.5,158.4297,1287.5,154.4297,1291.5,163.4297" style="stroke:#0000FF;stroke-width:1.0;"/><text fill="#000000" font-family="sans-serif" font-size="13" lengthAdjust="spacing" textLength="143" x="1146.5" y="140.3638">action : setDescription</text><line style="stroke:#0000FF;stroke-width:1.0;" x1="290.7857" x2="290.7857" y1="68.2969" y2="78.2969"/><line style="stroke:#0000FF;stroke-width:1.0;" x1="290.7857" x2="1580.5" y1="78.2969" y2="78.2969"/><line style="stroke:#0000FF;stroke-width:1.0;" x1="1580.5" x2="1580.5" y1="78.2969" y2="163.4297"/><polygon fill="#0000FF" points="1580.5,163.4297,1584.5,154.4297,1580.5,158.4297,1576.5,154.4297,1580.5,163.4297" style="stroke:#0000FF;stroke-width:1.0;"/><text fill="#000000" font-family="sans-serif" font-size="13" lengthAdjust="spacing" textLength="120" x="1458.5" y="140.3638">action : setIsActive</text><line style="stroke:#0000FF;stroke-width:1.0;" x1="126.5" x2="126.5" y1="68.2969" y2="163.4297"/><polygon fill="#0000FF" points="126.5,163.4297,130.5,154.4297,126.5,158.4297,122.5,154.4297,126.5,163.4297" style="stroke:#0000FF;stroke-width:1.0;"/><text fill="#000000" font-family="sans-serif" font-size="13" lengthAdjust="spacing" textLength="94" x="30.5" y="140.3638">action : setKey</text><line style="stroke:#0000FF;stroke-width:1.0;" x1="159.3571" x2="159.3571" y1="68.2969" y2="118.2969"/><line style="stroke:#0000FF;stroke-width:1.0;" x1="159.3571" x2="383" y1="118.2969" y2="118.2969"/><line style="stroke:#0000FF;stroke-width:1.0;" x1="383" x2="383" y1="118.2969" y2="163.4297"/><polygon fill="#0000FF" points="383,163.4297,387,154.4297,383,158.4297,379,154.4297,383,163.4297" style="stroke:#0000FF;stroke-width:1.0;"/><text fill="#000000" font-family="sans-serif" font-size="13" lengthAdjust="spacing" textLength="110" x="271" y="140.3638">action : setName</text><line style="stroke:#0000FF;stroke-width:1.0;" x1="192.2143" x2="192.2143" y1="68.2969" y2="108.2969"/><line style="stroke:#0000FF;stroke-width:1.0;" x1="192.2143" x2="660" y1="108.2969" y2="108.2969"/><line style="stroke:#0000FF;stroke-width:1.0;" x1="660" x2="660" y1="108.2969" y2="163.4297"/><polygon fill="#0000FF" points="660,163.4297,664,154.4297,660,158.4297,656,154.4297,660,163.4297" style="stroke:#0000FF;stroke-width:1.0;"/><text fill="#000000" font-family="sans-serif" font-size="13" lengthAdjust="spacing" textLength="134" x="524" y="140.3638">action : setSortOrder</text><line style="stroke:#008000;stroke-width:1.0;" x1="225.0714" x2="225.0714" y1="68.2969" y2="98.2969"/><line style="stroke:#008000;stroke-width:1.0;" x1="225.0714" x2="973" y1="98.2969" y2="98.2969"/><line style="stroke:#008000;stroke-width:1.0;" x1="973" x2="973" y1="98.2969" y2="163.4297"/><polygon fill="#008000" points="973,163.4297,977,154.4297,973,158.4297,969,154.4297,973,163.4297" style="stroke:#008000;stroke-width:1.0;"/><text fill="#000000" font-family="sans-serif" font-size="13" lengthAdjust="spacing" textLength="46" x="925" y="140.3638">actions</text><rect fill="#DDDDDD" height="79.1875" id="_legend" rx="7.5" ry="7.5" style="stroke:#000000;stroke-width:1.0;" width="161" x="768" y="237.0234"/><text fill="#000000" font-family="sans-serif" font-size="14" font-weight="bold" lengthAdjust="spacing" textLength="5" x="773" y="257.0186"> </text><text fill="#000000" font-family="sans-serif" font-size="14" font-weight="bold" lengthAdjust="spacing" textLength="28" x="790" y="257.0186">line</text><text fill="#000000" filter="url(#bnkrvmw770m1w0)" font-family="sans-serif" font-size="14" lengthAdjust="spacing" textLength="12" x="773" y="273.3154">   </text><text fill="#000000" font-family="sans-serif" font-size="14" lengthAdjust="spacing" textLength="77" x="789" y="273.3154">inheritance</text><text fill="#000000" filter="url(#bnkrvmw770m1w1)" font-family="sans-serif" font-size="14" lengthAdjust="spacing" textLength="12" x="773" y="289.6123">   </text><text fill="#000000" font-family="sans-serif" font-size="14" lengthAdjust="spacing" textLength="129" x="789" y="289.6123">property reference</text><text fill="#000000" filter="url(#bnkrvmw770m1w2)" font-family="sans-serif" font-size="14" lengthAdjust="spacing" textLength="12" x="773" y="305.9092">   </text><text fill="#000000" font-family="sans-serif" font-size="14" lengthAdjust="spacing" textLength="131" x="789" y="305.9092">discriminated class</text><line style="stroke:#000000;stroke-width:1.0;" x1="773" x2="924" y1="244.0234" y2="244.0234"/><line style="stroke:#000000;stroke-width:1.0;" x1="773" x2="924" y1="260.3203" y2="260.3203"/><line style="stroke:#000000;stroke-width:1.0;" x1="773" x2="924" y1="276.6172" y2="276.6172"/><line style="stroke:#000000;stroke-width:1.0;" x1="773" x2="924" y1="292.9141" y2="292.9141"/><line style="stroke:#000000;stroke-width:1.0;" x1="773" x2="924" y1="309.2109" y2="309.2109"/><line style="stroke:#000000;stroke-width:1.0;" x1="773" x2="773" y1="244.0234" y2="309.2109"/><line style="stroke:#000000;stroke-width:1.0;" x1="785" x2="785" y1="244.0234" y2="309.2109"/><line style="stroke:#000000;stroke-width:1.0;" x1="924" x2="924" y1="244.0234" y2="309.2109"/><!--MD5=[370c7593fd51f29a9beb15306c58ecaa]
@startuml
!pragma layout elk
hide empty fields
hide empty methods
legend
|= |= line |
|<back:black>   </back>| inheritance |
|<back:green>   </back>| property reference |
|<back:blue>   </back>| discriminated class |
endlegend
interface DiscountGroupUpdateAction [[DiscountGroupUpdateAction.svg]]  {
    action: String
}


interface DiscountGroupSetDescriptionAction [[DiscountGroupSetDescriptionAction.svg]]  {
    action: String
    description: [[LocalizedString.svg LocalizedString]]
}
interface DiscountGroupSetIsActiveAction [[DiscountGroupSetIsActiveAction.svg]]  {
    action: String
    isActive: Boolean
}
interface DiscountGroupSetKeyAction [[DiscountGroupSetKeyAction.svg]]  {
    action: String
    key: String
}
interface DiscountGroupSetNameAction [[DiscountGroupSetNameAction.svg]]  {
    action: String
    name: [[LocalizedString.svg LocalizedString]]
}
interface DiscountGroupSetSortOrderAction [[DiscountGroupSetSortOrderAction.svg]]  {
    action: String
    sortOrder: String
}
interface DiscountGroupUpdate [[DiscountGroupUpdate.svg]]  {
    version: Long
    actions: [[DiscountGroupUpdateAction.svg List<DiscountGroupUpdateAction>]]
}
DiscountGroupUpdateAction - -> DiscountGroupSetDescriptionAction #blue;text:blue : "action : setDescription"
DiscountGroupUpdateAction - -> DiscountGroupSetIsActiveAction #blue;text:blue : "action : setIsActive"
DiscountGroupUpdateAction - -> DiscountGroupSetKeyAction #blue;text:blue : "action : setKey"
DiscountGroupUpdateAction - -> DiscountGroupSetNameAction #blue;text:blue : "action : setName"
DiscountGroupUpdateAction - -> DiscountGroupSetSortOrderAction #blue;text:blue : "action : setSortOrder"
DiscountGroupUpdateAction - -> DiscountGroupUpdate #green;text:green : "actions"
@enduml

PlantUML version 1.2022.13(Sat Nov 19 13:22:17 UTC 2022)
(GPL source distribution)
Java Runtime: OpenJDK Runtime Environment
JVM: OpenJDK 64-Bit Server VM
Default Encoding: UTF-8
Language: en
Country: null
--></g></svg>
