<?xml version="1.0" encoding="UTF-8" standalone="no"?><svg xmlns="http://www.w3.org/2000/svg" xmlns:xlink="http://www.w3.org/1999/xlink" contentStyleType="text/css" height="326px" preserveAspectRatio="none" style="width:1439px;height:326px;background:#FFFFFF;" version="1.1" viewBox="0 0 1439 326" width="1439px" zoomAndPan="magnify"><defs><filter height="1" id="bmyymbtxvxlvx0" width="1" x="0" y="0"><feFlood flood-color="#000000" result="flood"/><feComposite in="SourceGraphic" in2="flood" operator="over"/></filter><filter height="1" id="bmyymbtxvxlvx1" width="1" x="0" y="0"><feFlood flood-color="#008000" result="flood"/><feComposite in="SourceGraphic" in2="flood" operator="over"/></filter><filter height="1" id="bmyymbtxvxlvx2" width="1" x="0" y="0"><feFlood flood-color="#0000FF" result="flood"/><feComposite in="SourceGraphic" in2="flood" operator="over"/></filter></defs><g><!--MD5=[97720cc99586306dc915a21c60cb8e6d]
class DiscountGroupUpdateAction--><a href="DiscountGroupUpdateAction.svg" target="_top" title="DiscountGroupUpdateAction.svg" xlink:actuate="onRequest" xlink:href="DiscountGroupUpdateAction.svg" xlink:show="new" xlink:title="DiscountGroupUpdateAction.svg" xlink:type="simple"><g id="elem_DiscountGroupUpdateAction"><rect codeLine="10" fill="#F1F1F1" height="56.2969" id="DiscountGroupUpdateAction" rx="2.5" ry="2.5" style="stroke:#181818;stroke-width:0.5;" width="230" x="95.6667" y="12"/><ellipse cx="110.6667" cy="28" fill="#B4A7E5" rx="11" ry="11" style="stroke:#181818;stroke-width:1.0;"/><path d="M106.5885,23.7656 L106.5885,21.6094 L113.9792,21.6094 L113.9792,23.7656 L111.5104,23.7656 L111.5104,31.8438 L113.9792,31.8438 L113.9792,34 L106.5885,34 L106.5885,31.8438 L109.0573,31.8438 L109.0573,23.7656 L106.5885,23.7656 Z " fill="#000000"/><text fill="#000000" font-family="sans-serif" font-size="14" font-style="italic" lengthAdjust="spacing" textLength="198" x="124.6667" y="32.8467">DiscountGroupUpdateAction</text><line style="stroke:#181818;stroke-width:0.5;" x1="96.6667" x2="324.6667" y1="44" y2="44"/><text fill="#000000" font-family="sans-serif" font-size="14" lengthAdjust="spacing" textLength="91" x="101.6667" y="60.9951">action: String</text></g></a><!--MD5=[ee56488dcd3cdcb2d3d0e8b47fbb887b]
class DiscountGroupSetDescriptionAction--><a href="DiscountGroupSetDescriptionAction.svg" target="_top" title="DiscountGroupSetDescriptionAction.svg" xlink:actuate="onRequest" xlink:href="DiscountGroupSetDescriptionAction.svg" xlink:show="new" xlink:title="DiscountGroupSetDescriptionAction.svg" xlink:type="simple"><g id="elem_DiscountGroupSetDescriptionAction"><rect codeLine="15" fill="#F1F1F1" height="72.5938" id="DiscountGroupSetDescriptionAction" rx="2.5" ry="2.5" style="stroke:#181818;stroke-width:0.5;" width="281" x="902" y="153.4297"/><ellipse cx="917" cy="169.4297" fill="#B4A7E5" rx="11" ry="11" style="stroke:#181818;stroke-width:1.0;"/><path d="M912.9219,165.1953 L912.9219,163.0391 L920.3125,163.0391 L920.3125,165.1953 L917.8438,165.1953 L917.8438,173.2734 L920.3125,173.2734 L920.3125,175.4297 L912.9219,175.4297 L912.9219,173.2734 L915.3906,173.2734 L915.3906,165.1953 L912.9219,165.1953 Z " fill="#000000"/><text fill="#000000" font-family="sans-serif" font-size="14" font-style="italic" lengthAdjust="spacing" textLength="249" x="931" y="174.2764">DiscountGroupSetDescriptionAction</text><line style="stroke:#181818;stroke-width:0.5;" x1="903" x2="1182" y1="185.4297" y2="185.4297"/><text fill="#000000" font-family="sans-serif" font-size="14" lengthAdjust="spacing" textLength="91" x="908" y="202.4248">action: String</text><text fill="#000000" font-family="sans-serif" font-size="14" lengthAdjust="spacing" textLength="82" x="908" y="218.7217">description:</text><a href="LocalizedString.svg" target="_top" title="LocalizedString.svg" xlink:actuate="onRequest" xlink:href="LocalizedString.svg" xlink:show="new" xlink:title="LocalizedString.svg" xlink:type="simple"><text fill="#0000FF" font-family="sans-serif" font-size="14" lengthAdjust="spacing" text-decoration="underline" textLength="104" x="994" y="218.7217">LocalizedString</text></a></g></a><!--MD5=[900eb0dd87a33d4fb200ab53c3af6098]
class DiscountGroupSetKeyAction--><a href="DiscountGroupSetKeyAction.svg" target="_top" title="DiscountGroupSetKeyAction.svg" xlink:actuate="onRequest" xlink:href="DiscountGroupSetKeyAction.svg" xlink:show="new" xlink:title="DiscountGroupSetKeyAction.svg" xlink:type="simple"><g id="elem_DiscountGroupSetKeyAction"><rect codeLine="19" fill="#F1F1F1" height="72.5938" id="DiscountGroupSetKeyAction" rx="2.5" ry="2.5" style="stroke:#181818;stroke-width:0.5;" width="229" x="1203" y="153.4297"/><ellipse cx="1218" cy="169.4297" fill="#B4A7E5" rx="11" ry="11" style="stroke:#181818;stroke-width:1.0;"/><path d="M1213.9219,165.1953 L1213.9219,163.0391 L1221.3125,163.0391 L1221.3125,165.1953 L1218.8438,165.1953 L1218.8438,173.2734 L1221.3125,173.2734 L1221.3125,175.4297 L1213.9219,175.4297 L1213.9219,173.2734 L1216.3906,173.2734 L1216.3906,165.1953 L1213.9219,165.1953 Z " fill="#000000"/><text fill="#000000" font-family="sans-serif" font-size="14" font-style="italic" lengthAdjust="spacing" textLength="197" x="1232" y="174.2764">DiscountGroupSetKeyAction</text><line style="stroke:#181818;stroke-width:0.5;" x1="1204" x2="1431" y1="185.4297" y2="185.4297"/><text fill="#000000" font-family="sans-serif" font-size="14" lengthAdjust="spacing" textLength="91" x="1209" y="202.4248">action: String</text><text fill="#000000" font-family="sans-serif" font-size="14" lengthAdjust="spacing" textLength="73" x="1209" y="218.7217">key: String</text></g></a><!--MD5=[f0f334f7b3f68f83a58cc79a3626db4b]
class DiscountGroupSetNameAction--><a href="DiscountGroupSetNameAction.svg" target="_top" title="DiscountGroupSetNameAction.svg" xlink:actuate="onRequest" xlink:href="DiscountGroupSetNameAction.svg" xlink:show="new" xlink:title="DiscountGroupSetNameAction.svg" xlink:type="simple"><g id="elem_DiscountGroupSetNameAction"><rect codeLine="23" fill="#F1F1F1" height="72.5938" id="DiscountGroupSetNameAction" rx="2.5" ry="2.5" style="stroke:#181818;stroke-width:0.5;" width="244" x="12" y="153.4297"/><ellipse cx="27" cy="169.4297" fill="#B4A7E5" rx="11" ry="11" style="stroke:#181818;stroke-width:1.0;"/><path d="M22.9219,165.1953 L22.9219,163.0391 L30.3125,163.0391 L30.3125,165.1953 L27.8438,165.1953 L27.8438,173.2734 L30.3125,173.2734 L30.3125,175.4297 L22.9219,175.4297 L22.9219,173.2734 L25.3906,173.2734 L25.3906,165.1953 L22.9219,165.1953 Z " fill="#000000"/><text fill="#000000" font-family="sans-serif" font-size="14" font-style="italic" lengthAdjust="spacing" textLength="212" x="41" y="174.2764">DiscountGroupSetNameAction</text><line style="stroke:#181818;stroke-width:0.5;" x1="13" x2="255" y1="185.4297" y2="185.4297"/><text fill="#000000" font-family="sans-serif" font-size="14" lengthAdjust="spacing" textLength="91" x="18" y="202.4248">action: String</text><text fill="#000000" font-family="sans-serif" font-size="14" lengthAdjust="spacing" textLength="44" x="18" y="218.7217">name:</text><a href="LocalizedString.svg" target="_top" title="LocalizedString.svg" xlink:actuate="onRequest" xlink:href="LocalizedString.svg" xlink:show="new" xlink:title="LocalizedString.svg" xlink:type="simple"><text fill="#0000FF" font-family="sans-serif" font-size="14" lengthAdjust="spacing" text-decoration="underline" textLength="104" x="66" y="218.7217">LocalizedString</text></a></g></a><!--MD5=[ae55fbe53ed4dae0353517d95ae0f7e9]
class DiscountGroupSetSortOrderAction--><a href="DiscountGroupSetSortOrderAction.svg" target="_top" title="DiscountGroupSetSortOrderAction.svg" xlink:actuate="onRequest" xlink:href="DiscountGroupSetSortOrderAction.svg" xlink:show="new" xlink:title="DiscountGroupSetSortOrderAction.svg" xlink:type="simple"><g id="elem_DiscountGroupSetSortOrderAction"><rect codeLine="27" fill="#F1F1F1" height="72.5938" id="DiscountGroupSetSortOrderAction" rx="2.5" ry="2.5" style="stroke:#181818;stroke-width:0.5;" width="270" x="276" y="153.4297"/><ellipse cx="291" cy="169.4297" fill="#B4A7E5" rx="11" ry="11" style="stroke:#181818;stroke-width:1.0;"/><path d="M286.9219,165.1953 L286.9219,163.0391 L294.3125,163.0391 L294.3125,165.1953 L291.8438,165.1953 L291.8438,173.2734 L294.3125,173.2734 L294.3125,175.4297 L286.9219,175.4297 L286.9219,173.2734 L289.3906,173.2734 L289.3906,165.1953 L286.9219,165.1953 Z " fill="#000000"/><text fill="#000000" font-family="sans-serif" font-size="14" font-style="italic" lengthAdjust="spacing" textLength="238" x="305" y="174.2764">DiscountGroupSetSortOrderAction</text><line style="stroke:#181818;stroke-width:0.5;" x1="277" x2="545" y1="185.4297" y2="185.4297"/><text fill="#000000" font-family="sans-serif" font-size="14" lengthAdjust="spacing" textLength="91" x="282" y="202.4248">action: String</text><text fill="#000000" font-family="sans-serif" font-size="14" lengthAdjust="spacing" textLength="115" x="282" y="218.7217">sortOrder: String</text></g></a><!--MD5=[47c88ee01d14ba76cb6379d27be1f6a1]
class DiscountGroupUpdate--><a href="DiscountGroupUpdate.svg" target="_top" title="DiscountGroupUpdate.svg" xlink:actuate="onRequest" xlink:href="DiscountGroupUpdate.svg" xlink:show="new" xlink:title="DiscountGroupUpdate.svg" xlink:type="simple"><g id="elem_DiscountGroupUpdate"><rect codeLine="31" fill="#F1F1F1" height="72.5938" id="DiscountGroupUpdate" rx="2.5" ry="2.5" style="stroke:#181818;stroke-width:0.5;" width="316" x="566" y="153.4297"/><ellipse cx="642.75" cy="169.4297" fill="#B4A7E5" rx="11" ry="11" style="stroke:#181818;stroke-width:1.0;"/><path d="M638.6719,165.1953 L638.6719,163.0391 L646.0625,163.0391 L646.0625,165.1953 L643.5938,165.1953 L643.5938,173.2734 L646.0625,173.2734 L646.0625,175.4297 L638.6719,175.4297 L638.6719,173.2734 L641.1406,173.2734 L641.1406,165.1953 L638.6719,165.1953 Z " fill="#000000"/><text fill="#000000" font-family="sans-serif" font-size="14" font-style="italic" lengthAdjust="spacing" textLength="154" x="663.25" y="174.2764">DiscountGroupUpdate</text><line style="stroke:#181818;stroke-width:0.5;" x1="567" x2="881" y1="185.4297" y2="185.4297"/><text fill="#000000" font-family="sans-serif" font-size="14" lengthAdjust="spacing" textLength="93" x="572" y="202.4248">version: Long</text><text fill="#000000" font-family="sans-serif" font-size="14" lengthAdjust="spacing" textLength="55" x="572" y="218.7217">actions:</text><a href="DiscountGroupUpdateAction.svg" target="_top" title="DiscountGroupUpdateAction.svg" xlink:actuate="onRequest" xlink:href="DiscountGroupUpdateAction.svg" xlink:show="new" xlink:title="DiscountGroupUpdateAction.svg" xlink:type="simple"><text fill="#0000FF" font-family="sans-serif" font-size="14" lengthAdjust="spacing" text-decoration="underline" textLength="245" x="631" y="218.7217">List&lt;DiscountGroupUpdateAction&gt;</text></a></g></a><line style="stroke:#0000FF;stroke-width:1.0;" x1="249" x2="249" y1="68.2969" y2="88.2969"/><line style="stroke:#0000FF;stroke-width:1.0;" x1="249" x2="1042.5" y1="88.2969" y2="88.2969"/><line style="stroke:#0000FF;stroke-width:1.0;" x1="1042.5" x2="1042.5" y1="88.2969" y2="153.4297"/><polygon fill="#0000FF" points="1042.5,153.4297,1046.5,144.4297,1042.5,148.4297,1038.5,144.4297,1042.5,153.4297" style="stroke:#0000FF;stroke-width:1.0;"/><text fill="#000000" font-family="sans-serif" font-size="13" lengthAdjust="spacing" textLength="143" x="897.5" y="130.3638">action : setDescription</text><line style="stroke:#0000FF;stroke-width:1.0;" x1="287.3333" x2="287.3333" y1="68.2969" y2="78.2969"/><line style="stroke:#0000FF;stroke-width:1.0;" x1="287.3333" x2="1317.5" y1="78.2969" y2="78.2969"/><line style="stroke:#0000FF;stroke-width:1.0;" x1="1317.5" x2="1317.5" y1="78.2969" y2="153.4297"/><polygon fill="#0000FF" points="1317.5,153.4297,1321.5,144.4297,1317.5,148.4297,1313.5,144.4297,1317.5,153.4297" style="stroke:#0000FF;stroke-width:1.0;"/><text fill="#000000" font-family="sans-serif" font-size="13" lengthAdjust="spacing" textLength="94" x="1221.5" y="130.3638">action : setKey</text><line style="stroke:#0000FF;stroke-width:1.0;" x1="134" x2="134" y1="68.2969" y2="153.4297"/><polygon fill="#0000FF" points="134,153.4297,138,144.4297,134,148.4297,130,144.4297,134,153.4297" style="stroke:#0000FF;stroke-width:1.0;"/><text fill="#000000" font-family="sans-serif" font-size="13" lengthAdjust="spacing" textLength="110" x="22" y="130.3638">action : setName</text><line style="stroke:#0000FF;stroke-width:1.0;" x1="172.3333" x2="172.3333" y1="68.2969" y2="108.2969"/><line style="stroke:#0000FF;stroke-width:1.0;" x1="172.3333" x2="411" y1="108.2969" y2="108.2969"/><line style="stroke:#0000FF;stroke-width:1.0;" x1="411" x2="411" y1="108.2969" y2="153.4297"/><polygon fill="#0000FF" points="411,153.4297,415,144.4297,411,148.4297,407,144.4297,411,153.4297" style="stroke:#0000FF;stroke-width:1.0;"/><text fill="#000000" font-family="sans-serif" font-size="13" lengthAdjust="spacing" textLength="134" x="275" y="130.3638">action : setSortOrder</text><line style="stroke:#008000;stroke-width:1.0;" x1="210.6667" x2="210.6667" y1="68.2969" y2="98.2969"/><line style="stroke:#008000;stroke-width:1.0;" x1="210.6667" x2="724" y1="98.2969" y2="98.2969"/><line style="stroke:#008000;stroke-width:1.0;" x1="724" x2="724" y1="98.2969" y2="153.4297"/><polygon fill="#008000" points="724,153.4297,728,144.4297,724,148.4297,720,144.4297,724,153.4297" style="stroke:#008000;stroke-width:1.0;"/><text fill="#000000" font-family="sans-serif" font-size="13" lengthAdjust="spacing" textLength="46" x="676" y="130.3638">actions</text><rect fill="#DDDDDD" height="79.1875" id="_legend" rx="7.5" ry="7.5" style="stroke:#000000;stroke-width:1.0;" width="161" x="629.5" y="227.0234"/><text fill="#000000" font-family="sans-serif" font-size="14" font-weight="bold" lengthAdjust="spacing" textLength="5" x="634.5" y="247.0186"> </text><text fill="#000000" font-family="sans-serif" font-size="14" font-weight="bold" lengthAdjust="spacing" textLength="28" x="651.5" y="247.0186">line</text><text fill="#000000" filter="url(#bmyymbtxvxlvx0)" font-family="sans-serif" font-size="14" lengthAdjust="spacing" textLength="12" x="634.5" y="263.3154">   </text><text fill="#000000" font-family="sans-serif" font-size="14" lengthAdjust="spacing" textLength="77" x="650.5" y="263.3154">inheritance</text><text fill="#000000" filter="url(#bmyymbtxvxlvx1)" font-family="sans-serif" font-size="14" lengthAdjust="spacing" textLength="12" x="634.5" y="279.6123">   </text><text fill="#000000" font-family="sans-serif" font-size="14" lengthAdjust="spacing" textLength="129" x="650.5" y="279.6123">property reference</text><text fill="#000000" filter="url(#bmyymbtxvxlvx2)" font-family="sans-serif" font-size="14" lengthAdjust="spacing" textLength="12" x="634.5" y="295.9092">   </text><text fill="#000000" font-family="sans-serif" font-size="14" lengthAdjust="spacing" textLength="131" x="650.5" y="295.9092">discriminated class</text><line style="stroke:#000000;stroke-width:1.0;" x1="634.5" x2="785.5" y1="234.0234" y2="234.0234"/><line style="stroke:#000000;stroke-width:1.0;" x1="634.5" x2="785.5" y1="250.3203" y2="250.3203"/><line style="stroke:#000000;stroke-width:1.0;" x1="634.5" x2="785.5" y1="266.6172" y2="266.6172"/><line style="stroke:#000000;stroke-width:1.0;" x1="634.5" x2="785.5" y1="282.9141" y2="282.9141"/><line style="stroke:#000000;stroke-width:1.0;" x1="634.5" x2="785.5" y1="299.2109" y2="299.2109"/><line style="stroke:#000000;stroke-width:1.0;" x1="634.5" x2="634.5" y1="234.0234" y2="299.2109"/><line style="stroke:#000000;stroke-width:1.0;" x1="646.5" x2="646.5" y1="234.0234" y2="299.2109"/><line style="stroke:#000000;stroke-width:1.0;" x1="785.5" x2="785.5" y1="234.0234" y2="299.2109"/><!--MD5=[23d71323b4e0c590174cb9f93d4747fe]
@startuml
!pragma layout elk
hide empty fields
hide empty methods
legend
|= |= line |
|<back:black>   </back>| inheritance |
|<back:green>   </back>| property reference |
|<back:blue>   </back>| discriminated class |
endlegend
interface DiscountGroupUpdateAction [[DiscountGroupUpdateAction.svg]]  {
    action: String
}


interface DiscountGroupSetDescriptionAction [[DiscountGroupSetDescriptionAction.svg]]  {
    action: String
    description: [[LocalizedString.svg LocalizedString]]
}
interface DiscountGroupSetKeyAction [[DiscountGroupSetKeyAction.svg]]  {
    action: String
    key: String
}
interface DiscountGroupSetNameAction [[DiscountGroupSetNameAction.svg]]  {
    action: String
    name: [[LocalizedString.svg LocalizedString]]
}
interface DiscountGroupSetSortOrderAction [[DiscountGroupSetSortOrderAction.svg]]  {
    action: String
    sortOrder: String
}
interface DiscountGroupUpdate [[DiscountGroupUpdate.svg]]  {
    version: Long
    actions: [[DiscountGroupUpdateAction.svg List<DiscountGroupUpdateAction>]]
}
DiscountGroupUpdateAction - -> DiscountGroupSetDescriptionAction #blue;text:blue : "action : setDescription"
DiscountGroupUpdateAction - -> DiscountGroupSetKeyAction #blue;text:blue : "action : setKey"
DiscountGroupUpdateAction - -> DiscountGroupSetNameAction #blue;text:blue : "action : setName"
DiscountGroupUpdateAction - -> DiscountGroupSetSortOrderAction #blue;text:blue : "action : setSortOrder"
DiscountGroupUpdateAction - -> DiscountGroupUpdate #green;text:green : "actions"
@enduml

PlantUML version 1.2022.13(Sat Nov 19 13:22:17 UTC 2022)
(GPL source distribution)
Java Runtime: OpenJDK Runtime Environment
JVM: OpenJDK 64-Bit Server VM
Default Encoding: UTF-8
Language: en
Country: null
--></g></svg>
