<?xml version="1.0" encoding="UTF-8" standalone="no"?><svg xmlns="http://www.w3.org/2000/svg" xmlns:xlink="http://www.w3.org/1999/xlink" contentStyleType="text/css" height="203px" preserveAspectRatio="none" style="width:414px;height:203px;background:#FFFFFF;" version="1.1" viewBox="0 0 414 203" width="414px" zoomAndPan="magnify"><defs/><g><!--MD5=[a4936e475cebb42e649ccd69725774b4]
class DiscountCombinationMode--><g id="elem_DiscountCombinationMode"><rect codeLine="3" fill="#F1F1F1" height="72.5938" id="DiscountCombinationMode" rx="2.5" ry="2.5" style="stroke:#181818;stroke-width:0.5;" width="220" x="99.5" y="12"/><ellipse cx="114.5" cy="28" fill="#EB937F" rx="11" ry="11" style="stroke:#181818;stroke-width:1.0;"/><path d="M118.6094,34 L110.8906,34 L110.8906,21.6094 L118.6094,21.6094 L118.6094,23.7656 L113.3438,23.7656 L113.3438,26.4375 L118.1094,26.4375 L118.1094,28.5938 L113.3438,28.5938 L113.3438,31.8438 L118.6094,31.8438 L118.6094,34 Z " fill="#000000"/><text fill="#000000" font-family="sans-serif" font-size="14" lengthAdjust="spacing" textLength="188" x="128.5" y="32.8467">DiscountCombinationMode</text><line style="stroke:#181818;stroke-width:0.5;" x1="100.5" x2="318.5" y1="44" y2="44"/><text fill="#000000" font-family="sans-serif" font-size="14" lengthAdjust="spacing" textLength="80" x="105.5" y="60.9951">BEST_DEAL</text><text fill="#000000" font-family="sans-serif" font-size="14" lengthAdjust="spacing" textLength="70" x="105.5" y="77.292">STACKING</text></g><!--MD5=[329584c55f4c51cf5fedc20abff04d6a]
class DiscountsConfiguration--><a href="DiscountsConfiguration.svg" target="_top" title="DiscountsConfiguration.svg" xlink:actuate="onRequest" xlink:href="DiscountsConfiguration.svg" xlink:show="new" xlink:title="DiscountsConfiguration.svg" xlink:type="simple"><g id="elem_DiscountsConfiguration"><rect codeLine="7" fill="#F1F1F1" height="56.2969" id="DiscountsConfiguration" rx="2.5" ry="2.5" style="stroke:#181818;stroke-width:0.5;" width="395" x="12" y="139.7266"/><ellipse cx="125.25" cy="155.7266" fill="#B4A7E5" rx="11" ry="11" style="stroke:#181818;stroke-width:1.0;"/><path d="M121.1719,151.4922 L121.1719,149.3359 L128.5625,149.3359 L128.5625,151.4922 L126.0938,151.4922 L126.0938,159.5703 L128.5625,159.5703 L128.5625,161.7266 L121.1719,161.7266 L121.1719,159.5703 L123.6406,159.5703 L123.6406,151.4922 L121.1719,151.4922 Z " fill="#000000"/><text fill="#000000" font-family="sans-serif" font-size="14" font-style="italic" lengthAdjust="spacing" textLength="160" x="145.75" y="160.5732">DiscountsConfiguration</text><line style="stroke:#181818;stroke-width:0.5;" x1="13" x2="406" y1="171.7266" y2="171.7266"/><text fill="#000000" font-family="sans-serif" font-size="14" lengthAdjust="spacing" textLength="191" x="18" y="188.7217">discountCombinationMode:</text><a href="DiscountCombinationMode.svg" target="_top" title="DiscountCombinationMode.svg" xlink:actuate="onRequest" xlink:href="DiscountCombinationMode.svg" xlink:show="new" xlink:title="DiscountCombinationMode.svg" xlink:type="simple"><text fill="#0000FF" font-family="sans-serif" font-size="14" lengthAdjust="spacing" text-decoration="underline" textLength="188" x="213" y="188.7217">DiscountCombinationMode</text></a></g></a><line style="stroke:#008000;stroke-width:1.0;" x1="209.5" x2="209.5" y1="84.5938" y2="139.7266"/><polygon fill="#008000" points="209.5,139.7266,213.5,130.7266,209.5,134.7266,205.5,130.7266,209.5,139.7266" style="stroke:#008000;stroke-width:1.0;"/><text fill="#000000" font-family="sans-serif" font-size="13" lengthAdjust="spacing" textLength="170" x="37.5" y="116.6606">discountCombinationMode</text><!--MD5=[b8b34b468085d37f3a6c40d8a68d7d06]
@startuml
!pragma layout elk
hide methods
enum DiscountCombinationMode {
    BEST_DEAL
    STACKING
}
interface DiscountsConfiguration [[DiscountsConfiguration.svg]]  {
    discountCombinationMode: [[DiscountCombinationMode.svg DiscountCombinationMode]]
}
DiscountCombinationMode - -> DiscountsConfiguration #green;text:green : "discountCombinationMode"
@enduml

PlantUML version 1.2022.13(Sat Nov 19 13:22:17 UTC 2022)
(GPL source distribution)
Java Runtime: OpenJDK Runtime Environment
JVM: OpenJDK 64-Bit Server VM
Default Encoding: UTF-8
Language: en
Country: null
--></g></svg>
