<?xml version="1.0" encoding="UTF-8" standalone="no"?><svg xmlns="http://www.w3.org/2000/svg" xmlns:xlink="http://www.w3.org/1999/xlink" contentStyleType="text/css" height="293px" preserveAspectRatio="none" style="width:214px;height:293px;background:#FFFFFF;" version="1.1" viewBox="0 0 214 293" width="214px" zoomAndPan="magnify"><defs><filter height="1" id="b14t26n3u5abvm0" width="1" x="0" y="0"><feFlood flood-color="#000000" result="flood"/><feComposite in="SourceGraphic" in2="flood" operator="over"/></filter><filter height="1" id="b14t26n3u5abvm1" width="1" x="0" y="0"><feFlood flood-color="#008000" result="flood"/><feComposite in="SourceGraphic" in2="flood" operator="over"/></filter><filter height="1" id="b14t26n3u5abvm2" width="1" x="0" y="0"><feFlood flood-color="#0000FF" result="flood"/><feComposite in="SourceGraphic" in2="flood" operator="over"/></filter></defs><g><!--MD5=[09e134a28098323902bde09a35ca4f05]
class EventBridgeDestination--><a href="EventBridgeDestination.svg" target="_top" title="EventBridgeDestination.svg" xlink:actuate="onRequest" xlink:href="EventBridgeDestination.svg" xlink:show="new" xlink:title="EventBridgeDestination.svg" xlink:type="simple"><g id="elem_EventBridgeDestination"><rect codeLine="10" fill="#F1F1F1" height="105.1875" id="EventBridgeDestination" rx="2.5" ry="2.5" style="stroke:#181818;stroke-width:0.5;" width="195" x="12" y="88.2969"/><ellipse cx="27" cy="104.2969" fill="#B4A7E5" rx="11" ry="11" style="stroke:#181818;stroke-width:1.0;"/><path d="M22.9219,100.0625 L22.9219,97.9063 L30.3125,97.9063 L30.3125,100.0625 L27.8438,100.0625 L27.8438,108.1406 L30.3125,108.1406 L30.3125,110.2969 L22.9219,110.2969 L22.9219,108.1406 L25.3906,108.1406 L25.3906,100.0625 L22.9219,100.0625 Z " fill="#000000"/><text fill="#000000" font-family="sans-serif" font-size="14" font-style="italic" lengthAdjust="spacing" textLength="163" x="41" y="109.1436">EventBridgeDestination</text><line style="stroke:#181818;stroke-width:0.5;" x1="13" x2="206" y1="120.2969" y2="120.2969"/><text fill="#000000" font-family="sans-serif" font-size="14" lengthAdjust="spacing" textLength="79" x="18" y="137.292">type: String</text><text fill="#000000" font-family="sans-serif" font-size="14" lengthAdjust="spacing" textLength="93" x="18" y="153.5889">region: String</text><text fill="#000000" font-family="sans-serif" font-size="14" lengthAdjust="spacing" textLength="117" x="18" y="169.8857">accountId: String</text><text fill="#000000" font-family="sans-serif" font-size="14" lengthAdjust="spacing" textLength="97" x="18" y="186.1826">source: String</text></g></a><!--MD5=[18a836c23c0e4d04592ec32f5657da5f]
class Destination--><a href="Destination.svg" target="_top" title="Destination.svg" xlink:actuate="onRequest" xlink:href="Destination.svg" xlink:show="new" xlink:title="Destination.svg" xlink:type="simple"><g id="elem_Destination"><rect codeLine="16" fill="#F1F1F1" height="56.2969" id="Destination" rx="2.5" ry="2.5" style="stroke:#181818;stroke-width:0.5;" width="110" x="54.5" y="12"/><ellipse cx="69.5" cy="28" fill="#B4A7E5" rx="11" ry="11" style="stroke:#181818;stroke-width:1.0;"/><path d="M65.4219,23.7656 L65.4219,21.6094 L72.8125,21.6094 L72.8125,23.7656 L70.3438,23.7656 L70.3438,31.8438 L72.8125,31.8438 L72.8125,34 L65.4219,34 L65.4219,31.8438 L67.8906,31.8438 L67.8906,23.7656 L65.4219,23.7656 Z " fill="#000000"/><text fill="#000000" font-family="sans-serif" font-size="14" font-style="italic" lengthAdjust="spacing" textLength="78" x="83.5" y="32.8467">Destination</text><line style="stroke:#181818;stroke-width:0.5;" x1="55.5" x2="163.5" y1="44" y2="44"/><text fill="#000000" font-family="sans-serif" font-size="14" lengthAdjust="spacing" textLength="79" x="60.5" y="60.9951">type: String</text></g></a><line style="stroke:#181818;stroke-width:1.0;" x1="109.5" x2="109.5" y1="68.2969" y2="88.2969"/><polygon fill="#FFFFFF" points="109.5,68.2969,102.5,87.2969,116.5,87.2969,109.5,68.2969" style="stroke:#181818;stroke-width:1.0;"/><rect fill="#DDDDDD" height="79.1875" id="_legend" rx="7.5" ry="7.5" style="stroke:#000000;stroke-width:1.0;" width="161" x="17" y="194.4844"/><text fill="#000000" font-family="sans-serif" font-size="14" font-weight="bold" lengthAdjust="spacing" textLength="5" x="22" y="214.4795"> </text><text fill="#000000" font-family="sans-serif" font-size="14" font-weight="bold" lengthAdjust="spacing" textLength="28" x="39" y="214.4795">line</text><text fill="#000000" filter="url(#b14t26n3u5abvm0)" font-family="sans-serif" font-size="14" lengthAdjust="spacing" textLength="12" x="22" y="230.7764">   </text><text fill="#000000" font-family="sans-serif" font-size="14" lengthAdjust="spacing" textLength="77" x="38" y="230.7764">inheritance</text><text fill="#000000" filter="url(#b14t26n3u5abvm1)" font-family="sans-serif" font-size="14" lengthAdjust="spacing" textLength="12" x="22" y="247.0732">   </text><text fill="#000000" font-family="sans-serif" font-size="14" lengthAdjust="spacing" textLength="129" x="38" y="247.0732">property reference</text><text fill="#000000" filter="url(#b14t26n3u5abvm2)" font-family="sans-serif" font-size="14" lengthAdjust="spacing" textLength="12" x="22" y="263.3701">   </text><text fill="#000000" font-family="sans-serif" font-size="14" lengthAdjust="spacing" textLength="131" x="38" y="263.3701">discriminated class</text><line style="stroke:#000000;stroke-width:1.0;" x1="22" x2="173" y1="201.4844" y2="201.4844"/><line style="stroke:#000000;stroke-width:1.0;" x1="22" x2="173" y1="217.7813" y2="217.7813"/><line style="stroke:#000000;stroke-width:1.0;" x1="22" x2="173" y1="234.0781" y2="234.0781"/><line style="stroke:#000000;stroke-width:1.0;" x1="22" x2="173" y1="250.375" y2="250.375"/><line style="stroke:#000000;stroke-width:1.0;" x1="22" x2="173" y1="266.6719" y2="266.6719"/><line style="stroke:#000000;stroke-width:1.0;" x1="22" x2="22" y1="201.4844" y2="266.6719"/><line style="stroke:#000000;stroke-width:1.0;" x1="34" x2="34" y1="201.4844" y2="266.6719"/><line style="stroke:#000000;stroke-width:1.0;" x1="173" x2="173" y1="201.4844" y2="266.6719"/><!--MD5=[a06fca1ebe8881ef03e49b8e0537541b]
@startuml
!pragma layout elk
hide empty fields
hide empty methods
legend
|= |= line |
|<back:black>   </back>| inheritance |
|<back:green>   </back>| property reference |
|<back:blue>   </back>| discriminated class |
endlegend
interface EventBridgeDestination [[EventBridgeDestination.svg]] extends Destination {
    type: String
    region: String
    accountId: String
    source: String
}
interface Destination [[Destination.svg]]  {
    type: String
}





@enduml

PlantUML version 1.2022.13(Sat Nov 19 13:22:17 UTC 2022)
(GPL source distribution)
Java Runtime: OpenJDK Runtime Environment
JVM: OpenJDK 64-Bit Server VM
Default Encoding: UTF-8
Language: en
Country: null
--></g></svg>
