<?xml version="1.0" encoding="UTF-8" standalone="no"?><svg xmlns="http://www.w3.org/2000/svg" xmlns:xlink="http://www.w3.org/1999/xlink" contentStyleType="text/css" height="277px" preserveAspectRatio="none" style="width:311px;height:277px;background:#FFFFFF;" version="1.1" viewBox="0 0 311 277" width="311px" zoomAndPan="magnify"><defs><filter height="1" id="b19xwds7wmr4gw0" width="1" x="0" y="0"><feFlood flood-color="#000000" result="flood"/><feComposite in="SourceGraphic" in2="flood" operator="over"/></filter><filter height="1" id="b19xwds7wmr4gw1" width="1" x="0" y="0"><feFlood flood-color="#008000" result="flood"/><feComposite in="SourceGraphic" in2="flood" operator="over"/></filter><filter height="1" id="b19xwds7wmr4gw2" width="1" x="0" y="0"><feFlood flood-color="#0000FF" result="flood"/><feComposite in="SourceGraphic" in2="flood" operator="over"/></filter></defs><g><!--MD5=[5b91dc7f86111d0bb81e0e2ef886ca7c]
class ExpiredCustomerPasswordTokenError--><a href="ExpiredCustomerPasswordTokenError.svg" target="_top" title="ExpiredCustomerPasswordTokenError.svg" xlink:actuate="onRequest" xlink:href="ExpiredCustomerPasswordTokenError.svg" xlink:show="new" xlink:title="ExpiredCustomerPasswordTokenError.svg" xlink:type="simple"><g id="elem_ExpiredCustomerPasswordTokenError"><rect codeLine="10" fill="#F1F1F1" height="72.5938" id="ExpiredCustomerPasswordTokenError" rx="2.5" ry="2.5" style="stroke:#181818;stroke-width:0.5;" width="292" x="12" y="104.5938"/><ellipse cx="27" cy="120.5938" fill="#B4A7E5" rx="11" ry="11" style="stroke:#181818;stroke-width:1.0;"/><path d="M22.9219,116.3594 L22.9219,114.2031 L30.3125,114.2031 L30.3125,116.3594 L27.8438,116.3594 L27.8438,124.4375 L30.3125,124.4375 L30.3125,126.5938 L22.9219,126.5938 L22.9219,124.4375 L25.3906,124.4375 L25.3906,116.3594 L22.9219,116.3594 Z " fill="#000000"/><text fill="#000000" font-family="sans-serif" font-size="14" font-style="italic" lengthAdjust="spacing" textLength="260" x="41" y="125.4404">ExpiredCustomerPasswordTokenError</text><line style="stroke:#181818;stroke-width:0.5;" x1="13" x2="303" y1="136.5938" y2="136.5938"/><text fill="#000000" font-family="sans-serif" font-size="14" lengthAdjust="spacing" textLength="84" x="18" y="153.5889">code: String</text><text fill="#000000" font-family="sans-serif" font-size="14" lengthAdjust="spacing" textLength="113" x="18" y="169.8857">message: String</text></g></a><!--MD5=[e5a6ebf709f52fb314c3061842d3af29]
class ErrorObject--><a href="ErrorObject.svg" target="_top" title="ErrorObject.svg" xlink:actuate="onRequest" xlink:href="ErrorObject.svg" xlink:show="new" xlink:title="ErrorObject.svg" xlink:type="simple"><g id="elem_ErrorObject"><rect codeLine="14" fill="#F1F1F1" height="72.5938" id="ErrorObject" rx="2.5" ry="2.5" style="stroke:#181818;stroke-width:0.5;" width="125" x="95.5" y="12"/><ellipse cx="117.25" cy="28" fill="#B4A7E5" rx="11" ry="11" style="stroke:#181818;stroke-width:1.0;"/><path d="M113.1719,23.7656 L113.1719,21.6094 L120.5625,21.6094 L120.5625,23.7656 L118.0938,23.7656 L118.0938,31.8438 L120.5625,31.8438 L120.5625,34 L113.1719,34 L113.1719,31.8438 L115.6406,31.8438 L115.6406,23.7656 L113.1719,23.7656 Z " fill="#000000"/><text fill="#000000" font-family="sans-serif" font-size="14" font-style="italic" lengthAdjust="spacing" textLength="78" x="132.75" y="32.8467">ErrorObject</text><line style="stroke:#181818;stroke-width:0.5;" x1="96.5" x2="219.5" y1="44" y2="44"/><text fill="#000000" font-family="sans-serif" font-size="14" lengthAdjust="spacing" textLength="84" x="101.5" y="60.9951">code: String</text><text fill="#000000" font-family="sans-serif" font-size="14" lengthAdjust="spacing" textLength="113" x="101.5" y="77.292">message: String</text></g></a><line style="stroke:#181818;stroke-width:1.0;" x1="158" x2="158" y1="84.5938" y2="104.5938"/><polygon fill="#FFFFFF" points="158,84.5938,151,103.5938,165,103.5938,158,84.5938" style="stroke:#181818;stroke-width:1.0;"/><rect fill="#DDDDDD" height="79.1875" id="_legend" rx="7.5" ry="7.5" style="stroke:#000000;stroke-width:1.0;" width="161" x="65.5" y="178.1875"/><text fill="#000000" font-family="sans-serif" font-size="14" font-weight="bold" lengthAdjust="spacing" textLength="5" x="70.5" y="198.1826"> </text><text fill="#000000" font-family="sans-serif" font-size="14" font-weight="bold" lengthAdjust="spacing" textLength="28" x="87.5" y="198.1826">line</text><text fill="#000000" filter="url(#b19xwds7wmr4gw0)" font-family="sans-serif" font-size="14" lengthAdjust="spacing" textLength="12" x="70.5" y="214.4795">   </text><text fill="#000000" font-family="sans-serif" font-size="14" lengthAdjust="spacing" textLength="77" x="86.5" y="214.4795">inheritance</text><text fill="#000000" filter="url(#b19xwds7wmr4gw1)" font-family="sans-serif" font-size="14" lengthAdjust="spacing" textLength="12" x="70.5" y="230.7764">   </text><text fill="#000000" font-family="sans-serif" font-size="14" lengthAdjust="spacing" textLength="129" x="86.5" y="230.7764">property reference</text><text fill="#000000" filter="url(#b19xwds7wmr4gw2)" font-family="sans-serif" font-size="14" lengthAdjust="spacing" textLength="12" x="70.5" y="247.0732">   </text><text fill="#000000" font-family="sans-serif" font-size="14" lengthAdjust="spacing" textLength="131" x="86.5" y="247.0732">discriminated class</text><line style="stroke:#000000;stroke-width:1.0;" x1="70.5" x2="221.5" y1="185.1875" y2="185.1875"/><line style="stroke:#000000;stroke-width:1.0;" x1="70.5" x2="221.5" y1="201.4844" y2="201.4844"/><line style="stroke:#000000;stroke-width:1.0;" x1="70.5" x2="221.5" y1="217.7813" y2="217.7813"/><line style="stroke:#000000;stroke-width:1.0;" x1="70.5" x2="221.5" y1="234.0781" y2="234.0781"/><line style="stroke:#000000;stroke-width:1.0;" x1="70.5" x2="221.5" y1="250.375" y2="250.375"/><line style="stroke:#000000;stroke-width:1.0;" x1="70.5" x2="70.5" y1="185.1875" y2="250.375"/><line style="stroke:#000000;stroke-width:1.0;" x1="82.5" x2="82.5" y1="185.1875" y2="250.375"/><line style="stroke:#000000;stroke-width:1.0;" x1="221.5" x2="221.5" y1="185.1875" y2="250.375"/><!--MD5=[d1b3ca6dc83c0be54b63aea1c2fd0a23]
@startuml
!pragma layout elk
hide empty fields
hide empty methods
legend
|= |= line |
|<back:black>   </back>| inheritance |
|<back:green>   </back>| property reference |
|<back:blue>   </back>| discriminated class |
endlegend
interface ExpiredCustomerPasswordTokenError [[ExpiredCustomerPasswordTokenError.svg]] extends ErrorObject {
    code: String
    message: String
}
interface ErrorObject [[ErrorObject.svg]]  {
    code: String
    message: String
}





@enduml

PlantUML version 1.2022.13(Sat Nov 19 13:22:17 UTC 2022)
(GPL source distribution)
Java Runtime: OpenJDK Runtime Environment
JVM: OpenJDK 64-Bit Server VM
Default Encoding: UTF-8
Language: en
Country: null
--></g></svg>
