<?xml version="1.0" encoding="UTF-8" standalone="no"?><svg xmlns="http://www.w3.org/2000/svg" xmlns:xlink="http://www.w3.org/1999/xlink" contentStyleType="text/css" height="261px" preserveAspectRatio="none" style="width:213px;height:261px;background:#FFFFFF;" version="1.1" viewBox="0 0 213 261" width="213px" zoomAndPan="magnify"><defs><filter height="1" id="b14cmndcubrvtq0" width="1" x="0" y="0"><feFlood flood-color="#000000" result="flood"/><feComposite in="SourceGraphic" in2="flood" operator="over"/></filter><filter height="1" id="b14cmndcubrvtq1" width="1" x="0" y="0"><feFlood flood-color="#008000" result="flood"/><feComposite in="SourceGraphic" in2="flood" operator="over"/></filter><filter height="1" id="b14cmndcubrvtq2" width="1" x="0" y="0"><feFlood flood-color="#0000FF" result="flood"/><feComposite in="SourceGraphic" in2="flood" operator="over"/></filter></defs><g><!--MD5=[49fe13b77967f41e3486b3782f437f92]
class ExtensionSetKeyAction--><a href="ExtensionSetKeyAction.svg" target="_top" title="ExtensionSetKeyAction.svg" xlink:actuate="onRequest" xlink:href="ExtensionSetKeyAction.svg" xlink:show="new" xlink:title="ExtensionSetKeyAction.svg" xlink:type="simple"><g id="elem_ExtensionSetKeyAction"><rect codeLine="10" fill="#F1F1F1" height="72.5938" id="ExtensionSetKeyAction" rx="2.5" ry="2.5" style="stroke:#181818;stroke-width:0.5;" width="193" x="12.5" y="88.2969"/><ellipse cx="27.5" cy="104.2969" fill="#B4A7E5" rx="11" ry="11" style="stroke:#181818;stroke-width:1.0;"/><path d="M23.4219,100.0625 L23.4219,97.9063 L30.8125,97.9063 L30.8125,100.0625 L28.3438,100.0625 L28.3438,108.1406 L30.8125,108.1406 L30.8125,110.2969 L23.4219,110.2969 L23.4219,108.1406 L25.8906,108.1406 L25.8906,100.0625 L23.4219,100.0625 Z " fill="#000000"/><text fill="#000000" font-family="sans-serif" font-size="14" font-style="italic" lengthAdjust="spacing" textLength="161" x="41.5" y="109.1436">ExtensionSetKeyAction</text><line style="stroke:#181818;stroke-width:0.5;" x1="13.5" x2="204.5" y1="120.2969" y2="120.2969"/><text fill="#000000" font-family="sans-serif" font-size="14" lengthAdjust="spacing" textLength="91" x="18.5" y="137.292">action: String</text><text fill="#000000" font-family="sans-serif" font-size="14" lengthAdjust="spacing" textLength="73" x="18.5" y="153.5889">key: String</text></g></a><!--MD5=[f9d5098f2eef7b11e3944aebd19d5fcf]
class ExtensionUpdateAction--><a href="ExtensionUpdateAction.svg" target="_top" title="ExtensionUpdateAction.svg" xlink:actuate="onRequest" xlink:href="ExtensionUpdateAction.svg" xlink:show="new" xlink:title="ExtensionUpdateAction.svg" xlink:type="simple"><g id="elem_ExtensionUpdateAction"><rect codeLine="14" fill="#F1F1F1" height="56.2969" id="ExtensionUpdateAction" rx="2.5" ry="2.5" style="stroke:#181818;stroke-width:0.5;" width="194" x="12" y="12"/><ellipse cx="27" cy="28" fill="#B4A7E5" rx="11" ry="11" style="stroke:#181818;stroke-width:1.0;"/><path d="M22.9219,23.7656 L22.9219,21.6094 L30.3125,21.6094 L30.3125,23.7656 L27.8438,23.7656 L27.8438,31.8438 L30.3125,31.8438 L30.3125,34 L22.9219,34 L22.9219,31.8438 L25.3906,31.8438 L25.3906,23.7656 L22.9219,23.7656 Z " fill="#000000"/><text fill="#000000" font-family="sans-serif" font-size="14" font-style="italic" lengthAdjust="spacing" textLength="162" x="41" y="32.8467">ExtensionUpdateAction</text><line style="stroke:#181818;stroke-width:0.5;" x1="13" x2="205" y1="44" y2="44"/><text fill="#000000" font-family="sans-serif" font-size="14" lengthAdjust="spacing" textLength="91" x="18" y="60.9951">action: String</text></g></a><line style="stroke:#181818;stroke-width:1.0;" x1="109" x2="109" y1="68.2969" y2="88.2969"/><polygon fill="#FFFFFF" points="109,68.2969,102,87.2969,116,87.2969,109,68.2969" style="stroke:#181818;stroke-width:1.0;"/><rect fill="#DDDDDD" height="79.1875" id="_legend" rx="7.5" ry="7.5" style="stroke:#000000;stroke-width:1.0;" width="161" x="16.5" y="161.8906"/><text fill="#000000" font-family="sans-serif" font-size="14" font-weight="bold" lengthAdjust="spacing" textLength="5" x="21.5" y="181.8857"> </text><text fill="#000000" font-family="sans-serif" font-size="14" font-weight="bold" lengthAdjust="spacing" textLength="28" x="38.5" y="181.8857">line</text><text fill="#000000" filter="url(#b14cmndcubrvtq0)" font-family="sans-serif" font-size="14" lengthAdjust="spacing" textLength="12" x="21.5" y="198.1826">   </text><text fill="#000000" font-family="sans-serif" font-size="14" lengthAdjust="spacing" textLength="77" x="37.5" y="198.1826">inheritance</text><text fill="#000000" filter="url(#b14cmndcubrvtq1)" font-family="sans-serif" font-size="14" lengthAdjust="spacing" textLength="12" x="21.5" y="214.4795">   </text><text fill="#000000" font-family="sans-serif" font-size="14" lengthAdjust="spacing" textLength="129" x="37.5" y="214.4795">property reference</text><text fill="#000000" filter="url(#b14cmndcubrvtq2)" font-family="sans-serif" font-size="14" lengthAdjust="spacing" textLength="12" x="21.5" y="230.7764">   </text><text fill="#000000" font-family="sans-serif" font-size="14" lengthAdjust="spacing" textLength="131" x="37.5" y="230.7764">discriminated class</text><line style="stroke:#000000;stroke-width:1.0;" x1="21.5" x2="172.5" y1="168.8906" y2="168.8906"/><line style="stroke:#000000;stroke-width:1.0;" x1="21.5" x2="172.5" y1="185.1875" y2="185.1875"/><line style="stroke:#000000;stroke-width:1.0;" x1="21.5" x2="172.5" y1="201.4844" y2="201.4844"/><line style="stroke:#000000;stroke-width:1.0;" x1="21.5" x2="172.5" y1="217.7813" y2="217.7813"/><line style="stroke:#000000;stroke-width:1.0;" x1="21.5" x2="172.5" y1="234.0781" y2="234.0781"/><line style="stroke:#000000;stroke-width:1.0;" x1="21.5" x2="21.5" y1="168.8906" y2="234.0781"/><line style="stroke:#000000;stroke-width:1.0;" x1="33.5" x2="33.5" y1="168.8906" y2="234.0781"/><line style="stroke:#000000;stroke-width:1.0;" x1="172.5" x2="172.5" y1="168.8906" y2="234.0781"/><!--MD5=[96c16f7660139003fb090995882ebfad]
@startuml
!pragma layout elk
hide empty fields
hide empty methods
legend
|= |= line |
|<back:black>   </back>| inheritance |
|<back:green>   </back>| property reference |
|<back:blue>   </back>| discriminated class |
endlegend
interface ExtensionSetKeyAction [[ExtensionSetKeyAction.svg]] extends ExtensionUpdateAction {
    action: String
    key: String
}
interface ExtensionUpdateAction [[ExtensionUpdateAction.svg]]  {
    action: String
}





@enduml

PlantUML version 1.2022.13(Sat Nov 19 13:22:17 UTC 2022)
(GPL source distribution)
Java Runtime: OpenJDK Runtime Environment
JVM: OpenJDK 64-Bit Server VM
Default Encoding: UTF-8
Language: en
Country: null
--></g></svg>
