<?xml version="1.0" encoding="UTF-8" standalone="no"?><svg xmlns="http://www.w3.org/2000/svg" xmlns:xlink="http://www.w3.org/1999/xlink" contentStyleType="text/css" height="356px" preserveAspectRatio="none" style="width:2421px;height:356px;background:#FFFFFF;" version="1.1" viewBox="0 0 2421 356" width="2421px" zoomAndPan="magnify"><defs><filter height="1" id="b18dzlugwo7ywx0" width="1" x="0" y="0"><feFlood flood-color="#000000" result="flood"/><feComposite in="SourceGraphic" in2="flood" operator="over"/></filter><filter height="1" id="b18dzlugwo7ywx1" width="1" x="0" y="0"><feFlood flood-color="#008000" result="flood"/><feComposite in="SourceGraphic" in2="flood" operator="over"/></filter><filter height="1" id="b18dzlugwo7ywx2" width="1" x="0" y="0"><feFlood flood-color="#0000FF" result="flood"/><feComposite in="SourceGraphic" in2="flood" operator="over"/></filter></defs><g><!--MD5=[f9d5098f2eef7b11e3944aebd19d5fcf]
class ExtensionUpdateAction--><a href="ExtensionUpdateAction.svg" target="_top" title="ExtensionUpdateAction.svg" xlink:actuate="onRequest" xlink:href="ExtensionUpdateAction.svg" xlink:show="new" xlink:title="ExtensionUpdateAction.svg" xlink:type="simple"><g id="elem_ExtensionUpdateAction"><rect codeLine="10" fill="#F1F1F1" height="56.2969" id="ExtensionUpdateAction" rx="2.5" ry="2.5" style="stroke:#181818;stroke-width:0.5;" width="194" x="176.4444" y="12"/><ellipse cx="191.4444" cy="28" fill="#B4A7E5" rx="11" ry="11" style="stroke:#181818;stroke-width:1.0;"/><path d="M187.3663,23.7656 L187.3663,21.6094 L194.7569,21.6094 L194.7569,23.7656 L192.2882,23.7656 L192.2882,31.8438 L194.7569,31.8438 L194.7569,34 L187.3663,34 L187.3663,31.8438 L189.8351,31.8438 L189.8351,23.7656 L187.3663,23.7656 Z " fill="#000000"/><text fill="#000000" font-family="sans-serif" font-size="14" font-style="italic" lengthAdjust="spacing" textLength="162" x="205.4444" y="32.8467">ExtensionUpdateAction</text><line style="stroke:#181818;stroke-width:0.5;" x1="177.4444" x2="369.4444" y1="44" y2="44"/><text fill="#000000" font-family="sans-serif" font-size="14" lengthAdjust="spacing" textLength="91" x="182.4444" y="60.9951">action: String</text></g></a><!--MD5=[f9e52532fadac7e9736564e512916164]
class ExtensionChangeDestinationAction--><a href="ExtensionChangeDestinationAction.svg" target="_top" title="ExtensionChangeDestinationAction.svg" xlink:actuate="onRequest" xlink:href="ExtensionChangeDestinationAction.svg" xlink:show="new" xlink:title="ExtensionChangeDestinationAction.svg" xlink:type="simple"><g id="elem_ExtensionChangeDestinationAction"><rect codeLine="15" fill="#F1F1F1" height="72.5938" id="ExtensionChangeDestinationAction" rx="2.5" ry="2.5" style="stroke:#181818;stroke-width:0.5;" width="276" x="1864.5" y="183.4297"/><ellipse cx="1879.5" cy="199.4297" fill="#B4A7E5" rx="11" ry="11" style="stroke:#181818;stroke-width:1.0;"/><path d="M1875.4219,195.1953 L1875.4219,193.0391 L1882.8125,193.0391 L1882.8125,195.1953 L1880.3438,195.1953 L1880.3438,203.2734 L1882.8125,203.2734 L1882.8125,205.4297 L1875.4219,205.4297 L1875.4219,203.2734 L1877.8906,203.2734 L1877.8906,195.1953 L1875.4219,195.1953 Z " fill="#000000"/><text fill="#000000" font-family="sans-serif" font-size="14" font-style="italic" lengthAdjust="spacing" textLength="244" x="1893.5" y="204.2764">ExtensionChangeDestinationAction</text><line style="stroke:#181818;stroke-width:0.5;" x1="1865.5" x2="2139.5" y1="215.4297" y2="215.4297"/><text fill="#000000" font-family="sans-serif" font-size="14" lengthAdjust="spacing" textLength="91" x="1870.5" y="232.4248">action: String</text><text fill="#000000" font-family="sans-serif" font-size="14" lengthAdjust="spacing" textLength="82" x="1870.5" y="248.7217">destination:</text><a href="ExtensionDestination.svg" target="_top" title="ExtensionDestination.svg" xlink:actuate="onRequest" xlink:href="ExtensionDestination.svg" xlink:show="new" xlink:title="ExtensionDestination.svg" xlink:type="simple"><text fill="#0000FF" font-family="sans-serif" font-size="14" lengthAdjust="spacing" text-decoration="underline" textLength="147" x="1956.5" y="248.7217">ExtensionDestination</text></a></g></a><!--MD5=[93f433a038e89970d9f4d5588b2ab24c]
class ExtensionChangeTriggersAction--><a href="ExtensionChangeTriggersAction.svg" target="_top" title="ExtensionChangeTriggersAction.svg" xlink:actuate="onRequest" xlink:href="ExtensionChangeTriggersAction.svg" xlink:show="new" xlink:title="ExtensionChangeTriggersAction.svg" xlink:type="simple"><g id="elem_ExtensionChangeTriggersAction"><rect codeLine="19" fill="#F1F1F1" height="72.5938" id="ExtensionChangeTriggersAction" rx="2.5" ry="2.5" style="stroke:#181818;stroke-width:0.5;" width="254" x="2160.5" y="183.4297"/><ellipse cx="2175.5" cy="199.4297" fill="#B4A7E5" rx="11" ry="11" style="stroke:#181818;stroke-width:1.0;"/><path d="M2171.4219,195.1953 L2171.4219,193.0391 L2178.8125,193.0391 L2178.8125,195.1953 L2176.3438,195.1953 L2176.3438,203.2734 L2178.8125,203.2734 L2178.8125,205.4297 L2171.4219,205.4297 L2171.4219,203.2734 L2173.8906,203.2734 L2173.8906,195.1953 L2171.4219,195.1953 Z " fill="#000000"/><text fill="#000000" font-family="sans-serif" font-size="14" font-style="italic" lengthAdjust="spacing" textLength="222" x="2189.5" y="204.2764">ExtensionChangeTriggersAction</text><line style="stroke:#181818;stroke-width:0.5;" x1="2161.5" x2="2413.5" y1="215.4297" y2="215.4297"/><text fill="#000000" font-family="sans-serif" font-size="14" lengthAdjust="spacing" textLength="91" x="2166.5" y="232.4248">action: String</text><text fill="#000000" font-family="sans-serif" font-size="14" lengthAdjust="spacing" textLength="58" x="2166.5" y="248.7217">triggers:</text><a href="ExtensionTrigger.svg" target="_top" title="ExtensionTrigger.svg" xlink:actuate="onRequest" xlink:href="ExtensionTrigger.svg" xlink:show="new" xlink:title="ExtensionTrigger.svg" xlink:type="simple"><text fill="#0000FF" font-family="sans-serif" font-size="14" lengthAdjust="spacing" text-decoration="underline" textLength="164" x="2228.5" y="248.7217">List&lt;ExtensionTrigger&gt;</text></a></g></a><!--MD5=[fab8956bf73e1414a0b87dbd251162e3]
class ExtensionSetAdditionalContextAction--><a href="ExtensionSetAdditionalContextAction.svg" target="_top" title="ExtensionSetAdditionalContextAction.svg" xlink:actuate="onRequest" xlink:href="ExtensionSetAdditionalContextAction.svg" xlink:show="new" xlink:title="ExtensionSetAdditionalContextAction.svg" xlink:type="simple"><g id="elem_ExtensionSetAdditionalContextAction"><rect codeLine="23" fill="#F1F1F1" height="72.5938" id="ExtensionSetAdditionalContextAction" rx="2.5" ry="2.5" style="stroke:#181818;stroke-width:0.5;" width="363" x="16.5" y="183.4297"/><ellipse cx="64.75" cy="199.4297" fill="#B4A7E5" rx="11" ry="11" style="stroke:#181818;stroke-width:1.0;"/><path d="M60.6719,195.1953 L60.6719,193.0391 L68.0625,193.0391 L68.0625,195.1953 L65.5938,195.1953 L65.5938,203.2734 L68.0625,203.2734 L68.0625,205.4297 L60.6719,205.4297 L60.6719,203.2734 L63.1406,203.2734 L63.1406,195.1953 L60.6719,195.1953 Z " fill="#000000"/><text fill="#000000" font-family="sans-serif" font-size="14" font-style="italic" lengthAdjust="spacing" textLength="258" x="85.25" y="204.2764">ExtensionSetAdditionalContextAction</text><line style="stroke:#181818;stroke-width:0.5;" x1="17.5" x2="378.5" y1="215.4297" y2="215.4297"/><text fill="#000000" font-family="sans-serif" font-size="14" lengthAdjust="spacing" textLength="91" x="22.5" y="232.4248">action: String</text><text fill="#000000" font-family="sans-serif" font-size="14" lengthAdjust="spacing" textLength="125" x="22.5" y="248.7217">additionalContext:</text><a href="ExtensionAdditionalContextDraft.svg" target="_top" title="ExtensionAdditionalContextDraft.svg" xlink:actuate="onRequest" xlink:href="ExtensionAdditionalContextDraft.svg" xlink:show="new" xlink:title="ExtensionAdditionalContextDraft.svg" xlink:type="simple"><text fill="#0000FF" font-family="sans-serif" font-size="14" lengthAdjust="spacing" text-decoration="underline" textLength="222" x="151.5" y="248.7217">ExtensionAdditionalContextDraft</text></a></g></a><!--MD5=[80384d036ef3c1928a1a72065baac656]
class ExtensionSetDependenciesAction--><a href="ExtensionSetDependenciesAction.svg" target="_top" title="ExtensionSetDependenciesAction.svg" xlink:actuate="onRequest" xlink:href="ExtensionSetDependenciesAction.svg" xlink:show="new" xlink:title="ExtensionSetDependenciesAction.svg" xlink:type="simple"><g id="elem_ExtensionSetDependenciesAction"><rect codeLine="27" fill="#F1F1F1" height="72.5938" id="ExtensionSetDependenciesAction" rx="2.5" ry="2.5" style="stroke:#181818;stroke-width:0.5;" width="362" x="698.5" y="183.4297"/><ellipse cx="757.25" cy="199.4297" fill="#B4A7E5" rx="11" ry="11" style="stroke:#181818;stroke-width:1.0;"/><path d="M753.1719,195.1953 L753.1719,193.0391 L760.5625,193.0391 L760.5625,195.1953 L758.0938,195.1953 L758.0938,203.2734 L760.5625,203.2734 L760.5625,205.4297 L753.1719,205.4297 L753.1719,203.2734 L755.6406,203.2734 L755.6406,195.1953 L753.1719,195.1953 Z " fill="#000000"/><text fill="#000000" font-family="sans-serif" font-size="14" font-style="italic" lengthAdjust="spacing" textLength="236" x="777.75" y="204.2764">ExtensionSetDependenciesAction</text><line style="stroke:#181818;stroke-width:0.5;" x1="699.5" x2="1059.5" y1="215.4297" y2="215.4297"/><text fill="#000000" font-family="sans-serif" font-size="14" lengthAdjust="spacing" textLength="91" x="704.5" y="232.4248">action: String</text><text fill="#000000" font-family="sans-serif" font-size="14" lengthAdjust="spacing" textLength="105" x="704.5" y="248.7217">dependencies:</text><a href="ExtensionResourceIdentifier.svg" target="_top" title="ExtensionResourceIdentifier.svg" xlink:actuate="onRequest" xlink:href="ExtensionResourceIdentifier.svg" xlink:show="new" xlink:title="ExtensionResourceIdentifier.svg" xlink:type="simple"><text fill="#0000FF" font-family="sans-serif" font-size="14" lengthAdjust="spacing" text-decoration="underline" textLength="241" x="813.5" y="248.7217">List&lt;ExtensionResourceIdentifier&gt;</text></a></g></a><!--MD5=[91507cee8b77877eb83cdb947b6c27d8]
class ExtensionSetExpansionPathsAction--><a href="ExtensionSetExpansionPathsAction.svg" target="_top" title="ExtensionSetExpansionPathsAction.svg" xlink:actuate="onRequest" xlink:href="ExtensionSetExpansionPathsAction.svg" xlink:show="new" xlink:title="ExtensionSetExpansionPathsAction.svg" xlink:type="simple"><g id="elem_ExtensionSetExpansionPathsAction"><rect codeLine="31" fill="#F1F1F1" height="72.5938" id="ExtensionSetExpansionPathsAction" rx="2.5" ry="2.5" style="stroke:#181818;stroke-width:0.5;" width="275" x="1356.5" y="183.4297"/><ellipse cx="1371.5" cy="199.4297" fill="#B4A7E5" rx="11" ry="11" style="stroke:#181818;stroke-width:1.0;"/><path d="M1367.4219,195.1953 L1367.4219,193.0391 L1374.8125,193.0391 L1374.8125,195.1953 L1372.3438,195.1953 L1372.3438,203.2734 L1374.8125,203.2734 L1374.8125,205.4297 L1367.4219,205.4297 L1367.4219,203.2734 L1369.8906,203.2734 L1369.8906,195.1953 L1367.4219,195.1953 Z " fill="#000000"/><text fill="#000000" font-family="sans-serif" font-size="14" font-style="italic" lengthAdjust="spacing" textLength="243" x="1385.5" y="204.2764">ExtensionSetExpansionPathsAction</text><line style="stroke:#181818;stroke-width:0.5;" x1="1357.5" x2="1630.5" y1="215.4297" y2="215.4297"/><text fill="#000000" font-family="sans-serif" font-size="14" lengthAdjust="spacing" textLength="91" x="1362.5" y="232.4248">action: String</text><text fill="#000000" font-family="sans-serif" font-size="14" lengthAdjust="spacing" textLength="115" x="1362.5" y="248.7217">expansionPaths:</text><a href="String.svg" target="_top" title="String.svg" xlink:actuate="onRequest" xlink:href="String.svg" xlink:show="new" xlink:title="String.svg" xlink:type="simple"><text fill="#0000FF" font-family="sans-serif" font-size="14" lengthAdjust="spacing" text-decoration="underline" textLength="87" x="1481.5" y="248.7217">List&lt;String&gt;</text></a></g></a><!--MD5=[49fe13b77967f41e3486b3782f437f92]
class ExtensionSetKeyAction--><a href="ExtensionSetKeyAction.svg" target="_top" title="ExtensionSetKeyAction.svg" xlink:actuate="onRequest" xlink:href="ExtensionSetKeyAction.svg" xlink:show="new" xlink:title="ExtensionSetKeyAction.svg" xlink:type="simple"><g id="elem_ExtensionSetKeyAction"><rect codeLine="35" fill="#F1F1F1" height="72.5938" id="ExtensionSetKeyAction" rx="2.5" ry="2.5" style="stroke:#181818;stroke-width:0.5;" width="193" x="1651.5" y="183.4297"/><ellipse cx="1666.5" cy="199.4297" fill="#B4A7E5" rx="11" ry="11" style="stroke:#181818;stroke-width:1.0;"/><path d="M1662.4219,195.1953 L1662.4219,193.0391 L1669.8125,193.0391 L1669.8125,195.1953 L1667.3438,195.1953 L1667.3438,203.2734 L1669.8125,203.2734 L1669.8125,205.4297 L1662.4219,205.4297 L1662.4219,203.2734 L1664.8906,203.2734 L1664.8906,195.1953 L1662.4219,195.1953 Z " fill="#000000"/><text fill="#000000" font-family="sans-serif" font-size="14" font-style="italic" lengthAdjust="spacing" textLength="161" x="1680.5" y="204.2764">ExtensionSetKeyAction</text><line style="stroke:#181818;stroke-width:0.5;" x1="1652.5" x2="1843.5" y1="215.4297" y2="215.4297"/><text fill="#000000" font-family="sans-serif" font-size="14" lengthAdjust="spacing" textLength="91" x="1657.5" y="232.4248">action: String</text><text fill="#000000" font-family="sans-serif" font-size="14" lengthAdjust="spacing" textLength="73" x="1657.5" y="248.7217">key: String</text></g></a><!--MD5=[638630f03e72f090d906e3b8729c07d7]
class ExtensionSetTimeoutInMsAction--><a href="ExtensionSetTimeoutInMsAction.svg" target="_top" title="ExtensionSetTimeoutInMsAction.svg" xlink:actuate="onRequest" xlink:href="ExtensionSetTimeoutInMsAction.svg" xlink:show="new" xlink:title="ExtensionSetTimeoutInMsAction.svg" xlink:type="simple"><g id="elem_ExtensionSetTimeoutInMsAction"><rect codeLine="39" fill="#F1F1F1" height="72.5938" id="ExtensionSetTimeoutInMsAction" rx="2.5" ry="2.5" style="stroke:#181818;stroke-width:0.5;" width="256" x="1080.5" y="183.4297"/><ellipse cx="1095.5" cy="199.4297" fill="#B4A7E5" rx="11" ry="11" style="stroke:#181818;stroke-width:1.0;"/><path d="M1091.4219,195.1953 L1091.4219,193.0391 L1098.8125,193.0391 L1098.8125,195.1953 L1096.3438,195.1953 L1096.3438,203.2734 L1098.8125,203.2734 L1098.8125,205.4297 L1091.4219,205.4297 L1091.4219,203.2734 L1093.8906,203.2734 L1093.8906,195.1953 L1091.4219,195.1953 Z " fill="#000000"/><text fill="#000000" font-family="sans-serif" font-size="14" font-style="italic" lengthAdjust="spacing" textLength="224" x="1109.5" y="204.2764">ExtensionSetTimeoutInMsAction</text><line style="stroke:#181818;stroke-width:0.5;" x1="1081.5" x2="1335.5" y1="215.4297" y2="215.4297"/><text fill="#000000" font-family="sans-serif" font-size="14" lengthAdjust="spacing" textLength="91" x="1086.5" y="232.4248">action: String</text><text fill="#000000" font-family="sans-serif" font-size="14" lengthAdjust="spacing" textLength="143" x="1086.5" y="248.7217">timeoutInMs: Integer</text></g></a><!--MD5=[e9064db883c7b05b9f4d1406d874a238]
class ExtensionUpdate--><a href="ExtensionUpdate.svg" target="_top" title="ExtensionUpdate.svg" xlink:actuate="onRequest" xlink:href="ExtensionUpdate.svg" xlink:show="new" xlink:title="ExtensionUpdate.svg" xlink:type="simple"><g id="elem_ExtensionUpdate"><rect codeLine="43" fill="#F1F1F1" height="72.5938" id="ExtensionUpdate" rx="2.5" ry="2.5" style="stroke:#181818;stroke-width:0.5;" width="279" x="399.5" y="183.4297"/><ellipse cx="475.75" cy="199.4297" fill="#B4A7E5" rx="11" ry="11" style="stroke:#181818;stroke-width:1.0;"/><path d="M471.6719,195.1953 L471.6719,193.0391 L479.0625,193.0391 L479.0625,195.1953 L476.5938,195.1953 L476.5938,203.2734 L479.0625,203.2734 L479.0625,205.4297 L471.6719,205.4297 L471.6719,203.2734 L474.1406,203.2734 L474.1406,195.1953 L471.6719,195.1953 Z " fill="#000000"/><text fill="#000000" font-family="sans-serif" font-size="14" font-style="italic" lengthAdjust="spacing" textLength="118" x="496.25" y="204.2764">ExtensionUpdate</text><line style="stroke:#181818;stroke-width:0.5;" x1="400.5" x2="677.5" y1="215.4297" y2="215.4297"/><text fill="#000000" font-family="sans-serif" font-size="14" lengthAdjust="spacing" textLength="93" x="405.5" y="232.4248">version: Long</text><text fill="#000000" font-family="sans-serif" font-size="14" lengthAdjust="spacing" textLength="55" x="405.5" y="248.7217">actions:</text><a href="ExtensionUpdateAction.svg" target="_top" title="ExtensionUpdateAction.svg" xlink:actuate="onRequest" xlink:href="ExtensionUpdateAction.svg" xlink:show="new" xlink:title="ExtensionUpdateAction.svg" xlink:type="simple"><text fill="#0000FF" font-family="sans-serif" font-size="14" lengthAdjust="spacing" text-decoration="underline" textLength="208" x="464.5" y="248.7217">List&lt;ExtensionUpdateAction&gt;</text></a></g></a><line style="stroke:#0000FF;stroke-width:1.0;" x1="327.3333" x2="327.3333" y1="68.2969" y2="88.2969"/><line style="stroke:#0000FF;stroke-width:1.0;" x1="327.3333" x2="2002.5" y1="88.2969" y2="88.2969"/><line style="stroke:#0000FF;stroke-width:1.0;" x1="2002.5" x2="2002.5" y1="88.2969" y2="183.4297"/><polygon fill="#0000FF" points="2002.5,183.4297,2006.5,174.4297,2002.5,178.4297,1998.5,174.4297,2002.5,183.4297" style="stroke:#0000FF;stroke-width:1.0;"/><text fill="#000000" font-family="sans-serif" font-size="13" lengthAdjust="spacing" textLength="171" x="1829.5" y="160.3638">action : changeDestination</text><line style="stroke:#0000FF;stroke-width:1.0;" x1="348.8889" x2="348.8889" y1="68.2969" y2="78.2969"/><line style="stroke:#0000FF;stroke-width:1.0;" x1="348.8889" x2="2287.5" y1="78.2969" y2="78.2969"/><line style="stroke:#0000FF;stroke-width:1.0;" x1="2287.5" x2="2287.5" y1="78.2969" y2="183.4297"/><polygon fill="#0000FF" points="2287.5,183.4297,2291.5,174.4297,2287.5,178.4297,2283.5,174.4297,2287.5,183.4297" style="stroke:#0000FF;stroke-width:1.0;"/><text fill="#000000" font-family="sans-serif" font-size="13" lengthAdjust="spacing" textLength="149" x="2136.5" y="160.3638">action : changeTriggers</text><line style="stroke:#0000FF;stroke-width:1.0;" x1="198" x2="198" y1="68.2969" y2="183.4297"/><polygon fill="#0000FF" points="198,183.4297,202,174.4297,198,178.4297,194,174.4297,198,183.4297" style="stroke:#0000FF;stroke-width:1.0;"/><text fill="#000000" font-family="sans-serif" font-size="13" lengthAdjust="spacing" textLength="184" x="12" y="160.3638">action : setAdditionalContext</text><line style="stroke:#0000FF;stroke-width:1.0;" x1="241.1111" x2="241.1111" y1="68.2969" y2="128.2969"/><line style="stroke:#0000FF;stroke-width:1.0;" x1="241.1111" x2="879.5" y1="128.2969" y2="128.2969"/><line style="stroke:#0000FF;stroke-width:1.0;" x1="879.5" x2="879.5" y1="128.2969" y2="183.4297"/><polygon fill="#0000FF" points="879.5,183.4297,883.5,174.4297,879.5,178.4297,875.5,174.4297,879.5,183.4297" style="stroke:#0000FF;stroke-width:1.0;"/><text fill="#000000" font-family="sans-serif" font-size="13" lengthAdjust="spacing" textLength="162" x="715.5" y="160.3638">action : setDependencies</text><line style="stroke:#0000FF;stroke-width:1.0;" x1="284.2222" x2="284.2222" y1="68.2969" y2="108.2969"/><line style="stroke:#0000FF;stroke-width:1.0;" x1="284.2222" x2="1494" y1="108.2969" y2="108.2969"/><line style="stroke:#0000FF;stroke-width:1.0;" x1="1494" x2="1494" y1="108.2969" y2="183.4297"/><polygon fill="#0000FF" points="1494,183.4297,1498,174.4297,1494,178.4297,1490,174.4297,1494,183.4297" style="stroke:#0000FF;stroke-width:1.0;"/><text fill="#000000" font-family="sans-serif" font-size="13" lengthAdjust="spacing" textLength="172" x="1320" y="160.3638">action : setExpansionPaths</text><line style="stroke:#0000FF;stroke-width:1.0;" x1="305.7778" x2="305.7778" y1="68.2969" y2="98.2969"/><line style="stroke:#0000FF;stroke-width:1.0;" x1="305.7778" x2="1748" y1="98.2969" y2="98.2969"/><line style="stroke:#0000FF;stroke-width:1.0;" x1="1748" x2="1748" y1="98.2969" y2="183.4297"/><polygon fill="#0000FF" points="1748,183.4297,1752,174.4297,1748,178.4297,1744,174.4297,1748,183.4297" style="stroke:#0000FF;stroke-width:1.0;"/><text fill="#000000" font-family="sans-serif" font-size="13" lengthAdjust="spacing" textLength="94" x="1652" y="160.3638">action : setKey</text><line style="stroke:#0000FF;stroke-width:1.0;" x1="262.6667" x2="262.6667" y1="68.2969" y2="118.2969"/><line style="stroke:#0000FF;stroke-width:1.0;" x1="262.6667" x2="1208.5" y1="118.2969" y2="118.2969"/><line style="stroke:#0000FF;stroke-width:1.0;" x1="1208.5" x2="1208.5" y1="118.2969" y2="183.4297"/><polygon fill="#0000FF" points="1208.5,183.4297,1212.5,174.4297,1208.5,178.4297,1204.5,174.4297,1208.5,183.4297" style="stroke:#0000FF;stroke-width:1.0;"/><text fill="#000000" font-family="sans-serif" font-size="13" lengthAdjust="spacing" textLength="152" x="1054.5" y="160.3638">action : setTimeoutInMs</text><line style="stroke:#008000;stroke-width:1.0;" x1="219.5556" x2="219.5556" y1="68.2969" y2="138.2969"/><line style="stroke:#008000;stroke-width:1.0;" x1="219.5556" x2="539" y1="138.2969" y2="138.2969"/><line style="stroke:#008000;stroke-width:1.0;" x1="539" x2="539" y1="138.2969" y2="183.4297"/><polygon fill="#008000" points="539,183.4297,543,174.4297,539,178.4297,535,174.4297,539,183.4297" style="stroke:#008000;stroke-width:1.0;"/><text fill="#000000" font-family="sans-serif" font-size="13" lengthAdjust="spacing" textLength="46" x="491" y="160.3638">actions</text><rect fill="#DDDDDD" height="79.1875" id="_legend" rx="7.5" ry="7.5" style="stroke:#000000;stroke-width:1.0;" width="161" x="1120.25" y="257.0234"/><text fill="#000000" font-family="sans-serif" font-size="14" font-weight="bold" lengthAdjust="spacing" textLength="5" x="1125.25" y="277.0186"> </text><text fill="#000000" font-family="sans-serif" font-size="14" font-weight="bold" lengthAdjust="spacing" textLength="28" x="1142.25" y="277.0186">line</text><text fill="#000000" filter="url(#b18dzlugwo7ywx0)" font-family="sans-serif" font-size="14" lengthAdjust="spacing" textLength="12" x="1125.25" y="293.3154">   </text><text fill="#000000" font-family="sans-serif" font-size="14" lengthAdjust="spacing" textLength="77" x="1141.25" y="293.3154">inheritance</text><text fill="#000000" filter="url(#b18dzlugwo7ywx1)" font-family="sans-serif" font-size="14" lengthAdjust="spacing" textLength="12" x="1125.25" y="309.6123">   </text><text fill="#000000" font-family="sans-serif" font-size="14" lengthAdjust="spacing" textLength="129" x="1141.25" y="309.6123">property reference</text><text fill="#000000" filter="url(#b18dzlugwo7ywx2)" font-family="sans-serif" font-size="14" lengthAdjust="spacing" textLength="12" x="1125.25" y="325.9092">   </text><text fill="#000000" font-family="sans-serif" font-size="14" lengthAdjust="spacing" textLength="131" x="1141.25" y="325.9092">discriminated class</text><line style="stroke:#000000;stroke-width:1.0;" x1="1125.25" x2="1276.25" y1="264.0234" y2="264.0234"/><line style="stroke:#000000;stroke-width:1.0;" x1="1125.25" x2="1276.25" y1="280.3203" y2="280.3203"/><line style="stroke:#000000;stroke-width:1.0;" x1="1125.25" x2="1276.25" y1="296.6172" y2="296.6172"/><line style="stroke:#000000;stroke-width:1.0;" x1="1125.25" x2="1276.25" y1="312.9141" y2="312.9141"/><line style="stroke:#000000;stroke-width:1.0;" x1="1125.25" x2="1276.25" y1="329.2109" y2="329.2109"/><line style="stroke:#000000;stroke-width:1.0;" x1="1125.25" x2="1125.25" y1="264.0234" y2="329.2109"/><line style="stroke:#000000;stroke-width:1.0;" x1="1137.25" x2="1137.25" y1="264.0234" y2="329.2109"/><line style="stroke:#000000;stroke-width:1.0;" x1="1276.25" x2="1276.25" y1="264.0234" y2="329.2109"/><!--MD5=[6ded35457362e9b06bb32c6fe7bbbaac]
@startuml
!pragma layout elk
hide empty fields
hide empty methods
legend
|= |= line |
|<back:black>   </back>| inheritance |
|<back:green>   </back>| property reference |
|<back:blue>   </back>| discriminated class |
endlegend
interface ExtensionUpdateAction [[ExtensionUpdateAction.svg]]  {
    action: String
}


interface ExtensionChangeDestinationAction [[ExtensionChangeDestinationAction.svg]]  {
    action: String
    destination: [[ExtensionDestination.svg ExtensionDestination]]
}
interface ExtensionChangeTriggersAction [[ExtensionChangeTriggersAction.svg]]  {
    action: String
    triggers: [[ExtensionTrigger.svg List<ExtensionTrigger>]]
}
interface ExtensionSetAdditionalContextAction [[ExtensionSetAdditionalContextAction.svg]]  {
    action: String
    additionalContext: [[ExtensionAdditionalContextDraft.svg ExtensionAdditionalContextDraft]]
}
interface ExtensionSetDependenciesAction [[ExtensionSetDependenciesAction.svg]]  {
    action: String
    dependencies: [[ExtensionResourceIdentifier.svg List<ExtensionResourceIdentifier>]]
}
interface ExtensionSetExpansionPathsAction [[ExtensionSetExpansionPathsAction.svg]]  {
    action: String
    expansionPaths: [[String.svg List<String>]]
}
interface ExtensionSetKeyAction [[ExtensionSetKeyAction.svg]]  {
    action: String
    key: String
}
interface ExtensionSetTimeoutInMsAction [[ExtensionSetTimeoutInMsAction.svg]]  {
    action: String
    timeoutInMs: Integer
}
interface ExtensionUpdate [[ExtensionUpdate.svg]]  {
    version: Long
    actions: [[ExtensionUpdateAction.svg List<ExtensionUpdateAction>]]
}
ExtensionUpdateAction - -> ExtensionChangeDestinationAction #blue;text:blue : "action : changeDestination"
ExtensionUpdateAction - -> ExtensionChangeTriggersAction #blue;text:blue : "action : changeTriggers"
ExtensionUpdateAction - -> ExtensionSetAdditionalContextAction #blue;text:blue : "action : setAdditionalContext"
ExtensionUpdateAction - -> ExtensionSetDependenciesAction #blue;text:blue : "action : setDependencies"
ExtensionUpdateAction - -> ExtensionSetExpansionPathsAction #blue;text:blue : "action : setExpansionPaths"
ExtensionUpdateAction - -> ExtensionSetKeyAction #blue;text:blue : "action : setKey"
ExtensionUpdateAction - -> ExtensionSetTimeoutInMsAction #blue;text:blue : "action : setTimeoutInMs"
ExtensionUpdateAction - -> ExtensionUpdate #green;text:green : "actions"
@enduml

PlantUML version 1.2022.13(Sat Nov 19 13:22:17 UTC 2022)
(GPL source distribution)
Java Runtime: OpenJDK Runtime Environment
JVM: OpenJDK 64-Bit Server VM
Default Encoding: UTF-8
Language: en
Country: null
--></g></svg>
