<?xml version="1.0" encoding="UTF-8" standalone="no"?><svg xmlns="http://www.w3.org/2000/svg" xmlns:xlink="http://www.w3.org/1999/xlink" contentStyleType="text/css" height="326px" preserveAspectRatio="none" style="width:1357px;height:326px;background:#FFFFFF;" version="1.1" viewBox="0 0 1357 326" width="1357px" zoomAndPan="magnify"><defs><filter height="1" id="b1ep36lvxcdayk0" width="1" x="0" y="0"><feFlood flood-color="#000000" result="flood"/><feComposite in="SourceGraphic" in2="flood" operator="over"/></filter><filter height="1" id="b1ep36lvxcdayk1" width="1" x="0" y="0"><feFlood flood-color="#008000" result="flood"/><feComposite in="SourceGraphic" in2="flood" operator="over"/></filter><filter height="1" id="b1ep36lvxcdayk2" width="1" x="0" y="0"><feFlood flood-color="#0000FF" result="flood"/><feComposite in="SourceGraphic" in2="flood" operator="over"/></filter></defs><g><!--MD5=[f9d5098f2eef7b11e3944aebd19d5fcf]
class ExtensionUpdateAction--><a href="ExtensionUpdateAction.svg" target="_top" title="ExtensionUpdateAction.svg" xlink:actuate="onRequest" xlink:href="ExtensionUpdateAction.svg" xlink:show="new" xlink:title="ExtensionUpdateAction.svg" xlink:type="simple"><g id="elem_ExtensionUpdateAction"><rect codeLine="10" fill="#F1F1F1" height="56.2969" id="ExtensionUpdateAction" rx="2.5" ry="2.5" style="stroke:#181818;stroke-width:0.5;" width="194" x="76.1667" y="12"/><ellipse cx="91.1667" cy="28" fill="#B4A7E5" rx="11" ry="11" style="stroke:#181818;stroke-width:1.0;"/><path d="M87.0885,23.7656 L87.0885,21.6094 L94.4792,21.6094 L94.4792,23.7656 L92.0104,23.7656 L92.0104,31.8438 L94.4792,31.8438 L94.4792,34 L87.0885,34 L87.0885,31.8438 L89.5573,31.8438 L89.5573,23.7656 L87.0885,23.7656 Z " fill="#000000"/><text fill="#000000" font-family="sans-serif" font-size="14" font-style="italic" lengthAdjust="spacing" textLength="162" x="105.1667" y="32.8467">ExtensionUpdateAction</text><line style="stroke:#181818;stroke-width:0.5;" x1="77.1667" x2="269.1667" y1="44" y2="44"/><text fill="#000000" font-family="sans-serif" font-size="14" lengthAdjust="spacing" textLength="91" x="82.1667" y="60.9951">action: String</text></g></a><!--MD5=[f9e52532fadac7e9736564e512916164]
class ExtensionChangeDestinationAction--><a href="ExtensionChangeDestinationAction.svg" target="_top" title="ExtensionChangeDestinationAction.svg" xlink:actuate="onRequest" xlink:href="ExtensionChangeDestinationAction.svg" xlink:show="new" xlink:title="ExtensionChangeDestinationAction.svg" xlink:type="simple"><g id="elem_ExtensionChangeDestinationAction"><rect codeLine="15" fill="#F1F1F1" height="72.5938" id="ExtensionChangeDestinationAction" rx="2.5" ry="2.5" style="stroke:#181818;stroke-width:0.5;" width="276" x="800" y="153.4297"/><ellipse cx="815" cy="169.4297" fill="#B4A7E5" rx="11" ry="11" style="stroke:#181818;stroke-width:1.0;"/><path d="M810.9219,165.1953 L810.9219,163.0391 L818.3125,163.0391 L818.3125,165.1953 L815.8438,165.1953 L815.8438,173.2734 L818.3125,173.2734 L818.3125,175.4297 L810.9219,175.4297 L810.9219,173.2734 L813.3906,173.2734 L813.3906,165.1953 L810.9219,165.1953 Z " fill="#000000"/><text fill="#000000" font-family="sans-serif" font-size="14" font-style="italic" lengthAdjust="spacing" textLength="244" x="829" y="174.2764">ExtensionChangeDestinationAction</text><line style="stroke:#181818;stroke-width:0.5;" x1="801" x2="1075" y1="185.4297" y2="185.4297"/><text fill="#000000" font-family="sans-serif" font-size="14" lengthAdjust="spacing" textLength="91" x="806" y="202.4248">action: String</text><text fill="#000000" font-family="sans-serif" font-size="14" lengthAdjust="spacing" textLength="82" x="806" y="218.7217">destination:</text><a href="ExtensionDestination.svg" target="_top" title="ExtensionDestination.svg" xlink:actuate="onRequest" xlink:href="ExtensionDestination.svg" xlink:show="new" xlink:title="ExtensionDestination.svg" xlink:type="simple"><text fill="#0000FF" font-family="sans-serif" font-size="14" lengthAdjust="spacing" text-decoration="underline" textLength="147" x="892" y="218.7217">ExtensionDestination</text></a></g></a><!--MD5=[93f433a038e89970d9f4d5588b2ab24c]
class ExtensionChangeTriggersAction--><a href="ExtensionChangeTriggersAction.svg" target="_top" title="ExtensionChangeTriggersAction.svg" xlink:actuate="onRequest" xlink:href="ExtensionChangeTriggersAction.svg" xlink:show="new" xlink:title="ExtensionChangeTriggersAction.svg" xlink:type="simple"><g id="elem_ExtensionChangeTriggersAction"><rect codeLine="19" fill="#F1F1F1" height="72.5938" id="ExtensionChangeTriggersAction" rx="2.5" ry="2.5" style="stroke:#181818;stroke-width:0.5;" width="254" x="1096" y="153.4297"/><ellipse cx="1111" cy="169.4297" fill="#B4A7E5" rx="11" ry="11" style="stroke:#181818;stroke-width:1.0;"/><path d="M1106.9219,165.1953 L1106.9219,163.0391 L1114.3125,163.0391 L1114.3125,165.1953 L1111.8438,165.1953 L1111.8438,173.2734 L1114.3125,173.2734 L1114.3125,175.4297 L1106.9219,175.4297 L1106.9219,173.2734 L1109.3906,173.2734 L1109.3906,165.1953 L1106.9219,165.1953 Z " fill="#000000"/><text fill="#000000" font-family="sans-serif" font-size="14" font-style="italic" lengthAdjust="spacing" textLength="222" x="1125" y="174.2764">ExtensionChangeTriggersAction</text><line style="stroke:#181818;stroke-width:0.5;" x1="1097" x2="1349" y1="185.4297" y2="185.4297"/><text fill="#000000" font-family="sans-serif" font-size="14" lengthAdjust="spacing" textLength="91" x="1102" y="202.4248">action: String</text><text fill="#000000" font-family="sans-serif" font-size="14" lengthAdjust="spacing" textLength="58" x="1102" y="218.7217">triggers:</text><a href="ExtensionTrigger.svg" target="_top" title="ExtensionTrigger.svg" xlink:actuate="onRequest" xlink:href="ExtensionTrigger.svg" xlink:show="new" xlink:title="ExtensionTrigger.svg" xlink:type="simple"><text fill="#0000FF" font-family="sans-serif" font-size="14" lengthAdjust="spacing" text-decoration="underline" textLength="164" x="1164" y="218.7217">List&lt;ExtensionTrigger&gt;</text></a></g></a><!--MD5=[49fe13b77967f41e3486b3782f437f92]
class ExtensionSetKeyAction--><a href="ExtensionSetKeyAction.svg" target="_top" title="ExtensionSetKeyAction.svg" xlink:actuate="onRequest" xlink:href="ExtensionSetKeyAction.svg" xlink:show="new" xlink:title="ExtensionSetKeyAction.svg" xlink:type="simple"><g id="elem_ExtensionSetKeyAction"><rect codeLine="23" fill="#F1F1F1" height="72.5938" id="ExtensionSetKeyAction" rx="2.5" ry="2.5" style="stroke:#181818;stroke-width:0.5;" width="193" x="12" y="153.4297"/><ellipse cx="27" cy="169.4297" fill="#B4A7E5" rx="11" ry="11" style="stroke:#181818;stroke-width:1.0;"/><path d="M22.9219,165.1953 L22.9219,163.0391 L30.3125,163.0391 L30.3125,165.1953 L27.8438,165.1953 L27.8438,173.2734 L30.3125,173.2734 L30.3125,175.4297 L22.9219,175.4297 L22.9219,173.2734 L25.3906,173.2734 L25.3906,165.1953 L22.9219,165.1953 Z " fill="#000000"/><text fill="#000000" font-family="sans-serif" font-size="14" font-style="italic" lengthAdjust="spacing" textLength="161" x="41" y="174.2764">ExtensionSetKeyAction</text><line style="stroke:#181818;stroke-width:0.5;" x1="13" x2="204" y1="185.4297" y2="185.4297"/><text fill="#000000" font-family="sans-serif" font-size="14" lengthAdjust="spacing" textLength="91" x="18" y="202.4248">action: String</text><text fill="#000000" font-family="sans-serif" font-size="14" lengthAdjust="spacing" textLength="73" x="18" y="218.7217">key: String</text></g></a><!--MD5=[638630f03e72f090d906e3b8729c07d7]
class ExtensionSetTimeoutInMsAction--><a href="ExtensionSetTimeoutInMsAction.svg" target="_top" title="ExtensionSetTimeoutInMsAction.svg" xlink:actuate="onRequest" xlink:href="ExtensionSetTimeoutInMsAction.svg" xlink:show="new" xlink:title="ExtensionSetTimeoutInMsAction.svg" xlink:type="simple"><g id="elem_ExtensionSetTimeoutInMsAction"><rect codeLine="27" fill="#F1F1F1" height="72.5938" id="ExtensionSetTimeoutInMsAction" rx="2.5" ry="2.5" style="stroke:#181818;stroke-width:0.5;" width="256" x="225" y="153.4297"/><ellipse cx="240" cy="169.4297" fill="#B4A7E5" rx="11" ry="11" style="stroke:#181818;stroke-width:1.0;"/><path d="M235.9219,165.1953 L235.9219,163.0391 L243.3125,163.0391 L243.3125,165.1953 L240.8438,165.1953 L240.8438,173.2734 L243.3125,173.2734 L243.3125,175.4297 L235.9219,175.4297 L235.9219,173.2734 L238.3906,173.2734 L238.3906,165.1953 L235.9219,165.1953 Z " fill="#000000"/><text fill="#000000" font-family="sans-serif" font-size="14" font-style="italic" lengthAdjust="spacing" textLength="224" x="254" y="174.2764">ExtensionSetTimeoutInMsAction</text><line style="stroke:#181818;stroke-width:0.5;" x1="226" x2="480" y1="185.4297" y2="185.4297"/><text fill="#000000" font-family="sans-serif" font-size="14" lengthAdjust="spacing" textLength="91" x="231" y="202.4248">action: String</text><text fill="#000000" font-family="sans-serif" font-size="14" lengthAdjust="spacing" textLength="143" x="231" y="218.7217">timeoutInMs: Integer</text></g></a><!--MD5=[e9064db883c7b05b9f4d1406d874a238]
class ExtensionUpdate--><a href="ExtensionUpdate.svg" target="_top" title="ExtensionUpdate.svg" xlink:actuate="onRequest" xlink:href="ExtensionUpdate.svg" xlink:show="new" xlink:title="ExtensionUpdate.svg" xlink:type="simple"><g id="elem_ExtensionUpdate"><rect codeLine="31" fill="#F1F1F1" height="72.5938" id="ExtensionUpdate" rx="2.5" ry="2.5" style="stroke:#181818;stroke-width:0.5;" width="279" x="501" y="153.4297"/><ellipse cx="577.25" cy="169.4297" fill="#B4A7E5" rx="11" ry="11" style="stroke:#181818;stroke-width:1.0;"/><path d="M573.1719,165.1953 L573.1719,163.0391 L580.5625,163.0391 L580.5625,165.1953 L578.0938,165.1953 L578.0938,173.2734 L580.5625,173.2734 L580.5625,175.4297 L573.1719,175.4297 L573.1719,173.2734 L575.6406,173.2734 L575.6406,165.1953 L573.1719,165.1953 Z " fill="#000000"/><text fill="#000000" font-family="sans-serif" font-size="14" font-style="italic" lengthAdjust="spacing" textLength="118" x="597.75" y="174.2764">ExtensionUpdate</text><line style="stroke:#181818;stroke-width:0.5;" x1="502" x2="779" y1="185.4297" y2="185.4297"/><text fill="#000000" font-family="sans-serif" font-size="14" lengthAdjust="spacing" textLength="93" x="507" y="202.4248">version: Long</text><text fill="#000000" font-family="sans-serif" font-size="14" lengthAdjust="spacing" textLength="55" x="507" y="218.7217">actions:</text><a href="ExtensionUpdateAction.svg" target="_top" title="ExtensionUpdateAction.svg" xlink:actuate="onRequest" xlink:href="ExtensionUpdateAction.svg" xlink:show="new" xlink:title="ExtensionUpdateAction.svg" xlink:type="simple"><text fill="#0000FF" font-family="sans-serif" font-size="14" lengthAdjust="spacing" text-decoration="underline" textLength="208" x="566" y="218.7217">List&lt;ExtensionUpdateAction&gt;</text></a></g></a><line style="stroke:#0000FF;stroke-width:1.0;" x1="205.5" x2="205.5" y1="68.2969" y2="88.2969"/><line style="stroke:#0000FF;stroke-width:1.0;" x1="205.5" x2="938" y1="88.2969" y2="88.2969"/><line style="stroke:#0000FF;stroke-width:1.0;" x1="938" x2="938" y1="88.2969" y2="153.4297"/><polygon fill="#0000FF" points="938,153.4297,942,144.4297,938,148.4297,934,144.4297,938,153.4297" style="stroke:#0000FF;stroke-width:1.0;"/><text fill="#000000" font-family="sans-serif" font-size="13" lengthAdjust="spacing" textLength="171" x="765" y="130.3638">action : changeDestination</text><line style="stroke:#0000FF;stroke-width:1.0;" x1="237.8333" x2="237.8333" y1="68.2969" y2="78.2969"/><line style="stroke:#0000FF;stroke-width:1.0;" x1="237.8333" x2="1223" y1="78.2969" y2="78.2969"/><line style="stroke:#0000FF;stroke-width:1.0;" x1="1223" x2="1223" y1="78.2969" y2="153.4297"/><polygon fill="#0000FF" points="1223,153.4297,1227,144.4297,1223,148.4297,1219,144.4297,1223,153.4297" style="stroke:#0000FF;stroke-width:1.0;"/><text fill="#000000" font-family="sans-serif" font-size="13" lengthAdjust="spacing" textLength="149" x="1072" y="130.3638">action : changeTriggers</text><line style="stroke:#0000FF;stroke-width:1.0;" x1="108.5" x2="108.5" y1="68.2969" y2="153.4297"/><polygon fill="#0000FF" points="108.5,153.4297,112.5,144.4297,108.5,148.4297,104.5,144.4297,108.5,153.4297" style="stroke:#0000FF;stroke-width:1.0;"/><text fill="#000000" font-family="sans-serif" font-size="13" lengthAdjust="spacing" textLength="94" x="12.5" y="130.3638">action : setKey</text><line style="stroke:#0000FF;stroke-width:1.0;" x1="140.8333" x2="140.8333" y1="68.2969" y2="108.2969"/><line style="stroke:#0000FF;stroke-width:1.0;" x1="140.8333" x2="353" y1="108.2969" y2="108.2969"/><line style="stroke:#0000FF;stroke-width:1.0;" x1="353" x2="353" y1="108.2969" y2="153.4297"/><polygon fill="#0000FF" points="353,153.4297,357,144.4297,353,148.4297,349,144.4297,353,153.4297" style="stroke:#0000FF;stroke-width:1.0;"/><text fill="#000000" font-family="sans-serif" font-size="13" lengthAdjust="spacing" textLength="152" x="199" y="130.3638">action : setTimeoutInMs</text><line style="stroke:#008000;stroke-width:1.0;" x1="173.1667" x2="173.1667" y1="68.2969" y2="98.2969"/><line style="stroke:#008000;stroke-width:1.0;" x1="173.1667" x2="640.5" y1="98.2969" y2="98.2969"/><line style="stroke:#008000;stroke-width:1.0;" x1="640.5" x2="640.5" y1="98.2969" y2="153.4297"/><polygon fill="#008000" points="640.5,153.4297,644.5,144.4297,640.5,148.4297,636.5,144.4297,640.5,153.4297" style="stroke:#008000;stroke-width:1.0;"/><text fill="#000000" font-family="sans-serif" font-size="13" lengthAdjust="spacing" textLength="46" x="592.5" y="130.3638">actions</text><rect fill="#DDDDDD" height="79.1875" id="_legend" rx="7.5" ry="7.5" style="stroke:#000000;stroke-width:1.0;" width="161" x="588.5" y="227.0234"/><text fill="#000000" font-family="sans-serif" font-size="14" font-weight="bold" lengthAdjust="spacing" textLength="5" x="593.5" y="247.0186"> </text><text fill="#000000" font-family="sans-serif" font-size="14" font-weight="bold" lengthAdjust="spacing" textLength="28" x="610.5" y="247.0186">line</text><text fill="#000000" filter="url(#b1ep36lvxcdayk0)" font-family="sans-serif" font-size="14" lengthAdjust="spacing" textLength="12" x="593.5" y="263.3154">   </text><text fill="#000000" font-family="sans-serif" font-size="14" lengthAdjust="spacing" textLength="77" x="609.5" y="263.3154">inheritance</text><text fill="#000000" filter="url(#b1ep36lvxcdayk1)" font-family="sans-serif" font-size="14" lengthAdjust="spacing" textLength="12" x="593.5" y="279.6123">   </text><text fill="#000000" font-family="sans-serif" font-size="14" lengthAdjust="spacing" textLength="129" x="609.5" y="279.6123">property reference</text><text fill="#000000" filter="url(#b1ep36lvxcdayk2)" font-family="sans-serif" font-size="14" lengthAdjust="spacing" textLength="12" x="593.5" y="295.9092">   </text><text fill="#000000" font-family="sans-serif" font-size="14" lengthAdjust="spacing" textLength="131" x="609.5" y="295.9092">discriminated class</text><line style="stroke:#000000;stroke-width:1.0;" x1="593.5" x2="744.5" y1="234.0234" y2="234.0234"/><line style="stroke:#000000;stroke-width:1.0;" x1="593.5" x2="744.5" y1="250.3203" y2="250.3203"/><line style="stroke:#000000;stroke-width:1.0;" x1="593.5" x2="744.5" y1="266.6172" y2="266.6172"/><line style="stroke:#000000;stroke-width:1.0;" x1="593.5" x2="744.5" y1="282.9141" y2="282.9141"/><line style="stroke:#000000;stroke-width:1.0;" x1="593.5" x2="744.5" y1="299.2109" y2="299.2109"/><line style="stroke:#000000;stroke-width:1.0;" x1="593.5" x2="593.5" y1="234.0234" y2="299.2109"/><line style="stroke:#000000;stroke-width:1.0;" x1="605.5" x2="605.5" y1="234.0234" y2="299.2109"/><line style="stroke:#000000;stroke-width:1.0;" x1="744.5" x2="744.5" y1="234.0234" y2="299.2109"/><!--MD5=[8f4e2aa9985b2bc720483f2c1a01f8b5]
@startuml
!pragma layout elk
hide empty fields
hide empty methods
legend
|= |= line |
|<back:black>   </back>| inheritance |
|<back:green>   </back>| property reference |
|<back:blue>   </back>| discriminated class |
endlegend
interface ExtensionUpdateAction [[ExtensionUpdateAction.svg]]  {
    action: String
}


interface ExtensionChangeDestinationAction [[ExtensionChangeDestinationAction.svg]]  {
    action: String
    destination: [[ExtensionDestination.svg ExtensionDestination]]
}
interface ExtensionChangeTriggersAction [[ExtensionChangeTriggersAction.svg]]  {
    action: String
    triggers: [[ExtensionTrigger.svg List<ExtensionTrigger>]]
}
interface ExtensionSetKeyAction [[ExtensionSetKeyAction.svg]]  {
    action: String
    key: String
}
interface ExtensionSetTimeoutInMsAction [[ExtensionSetTimeoutInMsAction.svg]]  {
    action: String
    timeoutInMs: Integer
}
interface ExtensionUpdate [[ExtensionUpdate.svg]]  {
    version: Long
    actions: [[ExtensionUpdateAction.svg List<ExtensionUpdateAction>]]
}
ExtensionUpdateAction - -> ExtensionChangeDestinationAction #blue;text:blue : "action : changeDestination"
ExtensionUpdateAction - -> ExtensionChangeTriggersAction #blue;text:blue : "action : changeTriggers"
ExtensionUpdateAction - -> ExtensionSetKeyAction #blue;text:blue : "action : setKey"
ExtensionUpdateAction - -> ExtensionSetTimeoutInMsAction #blue;text:blue : "action : setTimeoutInMs"
ExtensionUpdateAction - -> ExtensionUpdate #green;text:green : "actions"
@enduml

PlantUML version 1.2022.13(Sat Nov 19 13:22:17 UTC 2022)
(GPL source distribution)
Java Runtime: OpenJDK Runtime Environment
JVM: OpenJDK 64-Bit Server VM
Default Encoding: UTF-8
Language: en
Country: null
--></g></svg>
