<?xml version="1.0" encoding="UTF-8" standalone="no"?><svg xmlns="http://www.w3.org/2000/svg" xmlns:xlink="http://www.w3.org/1999/xlink" contentStyleType="text/css" height="465px" preserveAspectRatio="none" style="width:3246px;height:465px;background:#FFFFFF;" version="1.1" viewBox="0 0 3246 465" width="3246px" zoomAndPan="magnify"><defs><filter height="1" id="blbfwwl9k83hq0" width="1" x="0" y="0"><feFlood flood-color="#000000" result="flood"/><feComposite in="SourceGraphic" in2="flood" operator="over"/></filter><filter height="1" id="blbfwwl9k83hq1" width="1" x="0" y="0"><feFlood flood-color="#008000" result="flood"/><feComposite in="SourceGraphic" in2="flood" operator="over"/></filter><filter height="1" id="blbfwwl9k83hq2" width="1" x="0" y="0"><feFlood flood-color="#0000FF" result="flood"/><feComposite in="SourceGraphic" in2="flood" operator="over"/></filter></defs><g><!--MD5=[b1e1556f4d9551c859c25b35078bae62]
class FieldType--><a href="FieldType.svg" target="_top" title="FieldType.svg" xlink:actuate="onRequest" xlink:href="FieldType.svg" xlink:show="new" xlink:title="FieldType.svg" xlink:type="simple"><g id="elem_FieldType"><rect codeLine="10" fill="#F1F1F1" height="56.2969" id="FieldType" rx="2.5" ry="2.5" style="stroke:#181818;stroke-width:0.5;" width="100" x="97.8333" y="12"/><ellipse cx="113.2833" cy="28" fill="#B4A7E5" rx="11" ry="11" style="stroke:#181818;stroke-width:1.0;"/><path d="M109.2052,23.7656 L109.2052,21.6094 L116.5958,21.6094 L116.5958,23.7656 L114.1271,23.7656 L114.1271,31.8438 L116.5958,31.8438 L116.5958,34 L109.2052,34 L109.2052,31.8438 L111.674,31.8438 L111.674,23.7656 L109.2052,23.7656 Z " fill="#000000"/><text fill="#000000" font-family="sans-serif" font-size="14" font-style="italic" lengthAdjust="spacing" textLength="67" x="127.3833" y="32.8467">FieldType</text><line style="stroke:#181818;stroke-width:0.5;" x1="98.8333" x2="196.8333" y1="44" y2="44"/><text fill="#000000" font-family="sans-serif" font-size="14" lengthAdjust="spacing" textLength="88" x="103.8333" y="60.9951">name: String</text></g></a><!--MD5=[8584195e683d055321c90be70bf3a945]
class CustomFieldBooleanType--><a href="CustomFieldBooleanType.svg" target="_top" title="CustomFieldBooleanType.svg" xlink:actuate="onRequest" xlink:href="CustomFieldBooleanType.svg" xlink:show="new" xlink:title="CustomFieldBooleanType.svg" xlink:type="simple"><g id="elem_CustomFieldBooleanType"><rect codeLine="15" fill="#F1F1F1" height="56.2969" id="CustomFieldBooleanType" rx="2.5" ry="2.5" style="stroke:#181818;stroke-width:0.5;" width="209" x="2791" y="243.4297"/><ellipse cx="2806" cy="259.4297" fill="#B4A7E5" rx="11" ry="11" style="stroke:#181818;stroke-width:1.0;"/><path d="M2801.9219,255.1953 L2801.9219,253.0391 L2809.3125,253.0391 L2809.3125,255.1953 L2806.8438,255.1953 L2806.8438,263.2734 L2809.3125,263.2734 L2809.3125,265.4297 L2801.9219,265.4297 L2801.9219,263.2734 L2804.3906,263.2734 L2804.3906,255.1953 L2801.9219,255.1953 Z " fill="#000000"/><text fill="#000000" font-family="sans-serif" font-size="14" font-style="italic" lengthAdjust="spacing" textLength="177" x="2820" y="264.2764">CustomFieldBooleanType</text><line style="stroke:#181818;stroke-width:0.5;" x1="2792" x2="2999" y1="275.4297" y2="275.4297"/><text fill="#000000" font-family="sans-serif" font-size="14" lengthAdjust="spacing" textLength="88" x="2797" y="292.4248">name: String</text></g></a><!--MD5=[bb42821da3b180e3a42e1801d9b36ce9]
class CustomFieldDateTimeType--><a href="CustomFieldDateTimeType.svg" target="_top" title="CustomFieldDateTimeType.svg" xlink:actuate="onRequest" xlink:href="CustomFieldDateTimeType.svg" xlink:show="new" xlink:title="CustomFieldDateTimeType.svg" xlink:type="simple"><g id="elem_CustomFieldDateTimeType"><rect codeLine="18" fill="#F1F1F1" height="56.2969" id="CustomFieldDateTimeType" rx="2.5" ry="2.5" style="stroke:#181818;stroke-width:0.5;" width="219" x="3020" y="243.4297"/><ellipse cx="3035" cy="259.4297" fill="#B4A7E5" rx="11" ry="11" style="stroke:#181818;stroke-width:1.0;"/><path d="M3030.9219,255.1953 L3030.9219,253.0391 L3038.3125,253.0391 L3038.3125,255.1953 L3035.8438,255.1953 L3035.8438,263.2734 L3038.3125,263.2734 L3038.3125,265.4297 L3030.9219,265.4297 L3030.9219,263.2734 L3033.3906,263.2734 L3033.3906,255.1953 L3030.9219,255.1953 Z " fill="#000000"/><text fill="#000000" font-family="sans-serif" font-size="14" font-style="italic" lengthAdjust="spacing" textLength="187" x="3049" y="264.2764">CustomFieldDateTimeType</text><line style="stroke:#181818;stroke-width:0.5;" x1="3021" x2="3238" y1="275.4297" y2="275.4297"/><text fill="#000000" font-family="sans-serif" font-size="14" lengthAdjust="spacing" textLength="88" x="3026" y="292.4248">name: String</text></g></a><!--MD5=[917a9fe7406087b7582c87025f3ec205]
class CustomFieldDateType--><a href="CustomFieldDateType.svg" target="_top" title="CustomFieldDateType.svg" xlink:actuate="onRequest" xlink:href="CustomFieldDateType.svg" xlink:show="new" xlink:title="CustomFieldDateType.svg" xlink:type="simple"><g id="elem_CustomFieldDateType"><rect codeLine="21" fill="#F1F1F1" height="56.2969" id="CustomFieldDateType" rx="2.5" ry="2.5" style="stroke:#181818;stroke-width:0.5;" width="185" x="12" y="243.4297"/><ellipse cx="27" cy="259.4297" fill="#B4A7E5" rx="11" ry="11" style="stroke:#181818;stroke-width:1.0;"/><path d="M22.9219,255.1953 L22.9219,253.0391 L30.3125,253.0391 L30.3125,255.1953 L27.8438,255.1953 L27.8438,263.2734 L30.3125,263.2734 L30.3125,265.4297 L22.9219,265.4297 L22.9219,263.2734 L25.3906,263.2734 L25.3906,255.1953 L22.9219,255.1953 Z " fill="#000000"/><text fill="#000000" font-family="sans-serif" font-size="14" font-style="italic" lengthAdjust="spacing" textLength="153" x="41" y="264.2764">CustomFieldDateType</text><line style="stroke:#181818;stroke-width:0.5;" x1="13" x2="196" y1="275.4297" y2="275.4297"/><text fill="#000000" font-family="sans-serif" font-size="14" lengthAdjust="spacing" textLength="88" x="18" y="292.4248">name: String</text></g></a><!--MD5=[8b822fefd672ecd3580ede7056c7a9ce]
class CustomFieldEnumType--><a href="CustomFieldEnumType.svg" target="_top" title="CustomFieldEnumType.svg" xlink:actuate="onRequest" xlink:href="CustomFieldEnumType.svg" xlink:show="new" xlink:title="CustomFieldEnumType.svg" xlink:type="simple"><g id="elem_CustomFieldEnumType"><rect codeLine="24" fill="#F1F1F1" height="72.5938" id="CustomFieldEnumType" rx="2.5" ry="2.5" style="stroke:#181818;stroke-width:0.5;" width="276" x="855" y="243.4297"/><ellipse cx="908.75" cy="259.4297" fill="#B4A7E5" rx="11" ry="11" style="stroke:#181818;stroke-width:1.0;"/><path d="M904.6719,255.1953 L904.6719,253.0391 L912.0625,253.0391 L912.0625,255.1953 L909.5938,255.1953 L909.5938,263.2734 L912.0625,263.2734 L912.0625,265.4297 L904.6719,265.4297 L904.6719,263.2734 L907.1406,263.2734 L907.1406,255.1953 L904.6719,255.1953 Z " fill="#000000"/><text fill="#000000" font-family="sans-serif" font-size="14" font-style="italic" lengthAdjust="spacing" textLength="160" x="929.25" y="264.2764">CustomFieldEnumType</text><line style="stroke:#181818;stroke-width:0.5;" x1="856" x2="1130" y1="275.4297" y2="275.4297"/><text fill="#000000" font-family="sans-serif" font-size="14" lengthAdjust="spacing" textLength="88" x="861" y="292.4248">name: String</text><text fill="#000000" font-family="sans-serif" font-size="14" lengthAdjust="spacing" textLength="49" x="861" y="308.7217">values:</text><a href="CustomFieldEnumValue.svg" target="_top" title="CustomFieldEnumValue.svg" xlink:actuate="onRequest" xlink:href="CustomFieldEnumValue.svg" xlink:show="new" xlink:title="CustomFieldEnumValue.svg" xlink:type="simple"><text fill="#0000FF" font-family="sans-serif" font-size="14" lengthAdjust="spacing" text-decoration="underline" textLength="211" x="914" y="308.7217">List&lt;CustomFieldEnumValue&gt;</text></a></g></a><!--MD5=[00c10af64cc4635c67d172071f0c8f70]
class CustomFieldLocalizedEnumType--><a href="CustomFieldLocalizedEnumType.svg" target="_top" title="CustomFieldLocalizedEnumType.svg" xlink:actuate="onRequest" xlink:href="CustomFieldLocalizedEnumType.svg" xlink:show="new" xlink:title="CustomFieldLocalizedEnumType.svg" xlink:type="simple"><g id="elem_CustomFieldLocalizedEnumType"><rect codeLine="28" fill="#F1F1F1" height="72.5938" id="CustomFieldLocalizedEnumType" rx="2.5" ry="2.5" style="stroke:#181818;stroke-width:0.5;" width="340" x="2155" y="243.4297"/><ellipse cx="2208.75" cy="259.4297" fill="#B4A7E5" rx="11" ry="11" style="stroke:#181818;stroke-width:1.0;"/><path d="M2204.6719,255.1953 L2204.6719,253.0391 L2212.0625,253.0391 L2212.0625,255.1953 L2209.5938,255.1953 L2209.5938,263.2734 L2212.0625,263.2734 L2212.0625,265.4297 L2204.6719,265.4297 L2204.6719,263.2734 L2207.1406,263.2734 L2207.1406,255.1953 L2204.6719,255.1953 Z " fill="#000000"/><text fill="#000000" font-family="sans-serif" font-size="14" font-style="italic" lengthAdjust="spacing" textLength="224" x="2229.25" y="264.2764">CustomFieldLocalizedEnumType</text><line style="stroke:#181818;stroke-width:0.5;" x1="2156" x2="2494" y1="275.4297" y2="275.4297"/><text fill="#000000" font-family="sans-serif" font-size="14" lengthAdjust="spacing" textLength="88" x="2161" y="292.4248">name: String</text><text fill="#000000" font-family="sans-serif" font-size="14" lengthAdjust="spacing" textLength="49" x="2161" y="308.7217">values:</text><a href="CustomFieldLocalizedEnumValue.svg" target="_top" title="CustomFieldLocalizedEnumValue.svg" xlink:actuate="onRequest" xlink:href="CustomFieldLocalizedEnumValue.svg" xlink:show="new" xlink:title="CustomFieldLocalizedEnumValue.svg" xlink:type="simple"><text fill="#0000FF" font-family="sans-serif" font-size="14" lengthAdjust="spacing" text-decoration="underline" textLength="275" x="2214" y="308.7217">List&lt;CustomFieldLocalizedEnumValue&gt;</text></a></g></a><!--MD5=[07a2c3b3033b93487a448cad38068e3a]
class CustomFieldLocalizedStringType--><a href="CustomFieldLocalizedStringType.svg" target="_top" title="CustomFieldLocalizedStringType.svg" xlink:actuate="onRequest" xlink:href="CustomFieldLocalizedStringType.svg" xlink:show="new" xlink:title="CustomFieldLocalizedStringType.svg" xlink:type="simple"><g id="elem_CustomFieldLocalizedStringType"><rect codeLine="32" fill="#F1F1F1" height="56.2969" id="CustomFieldLocalizedStringType" rx="2.5" ry="2.5" style="stroke:#181818;stroke-width:0.5;" width="256" x="2515" y="243.4297"/><ellipse cx="2530" cy="259.4297" fill="#B4A7E5" rx="11" ry="11" style="stroke:#181818;stroke-width:1.0;"/><path d="M2525.9219,255.1953 L2525.9219,253.0391 L2533.3125,253.0391 L2533.3125,255.1953 L2530.8438,255.1953 L2530.8438,263.2734 L2533.3125,263.2734 L2533.3125,265.4297 L2525.9219,265.4297 L2525.9219,263.2734 L2528.3906,263.2734 L2528.3906,255.1953 L2525.9219,255.1953 Z " fill="#000000"/><text fill="#000000" font-family="sans-serif" font-size="14" font-style="italic" lengthAdjust="spacing" textLength="224" x="2544" y="264.2764">CustomFieldLocalizedStringType</text><line style="stroke:#181818;stroke-width:0.5;" x1="2516" x2="2770" y1="275.4297" y2="275.4297"/><text fill="#000000" font-family="sans-serif" font-size="14" lengthAdjust="spacing" textLength="88" x="2521" y="292.4248">name: String</text></g></a><!--MD5=[2f393e19d1b399d2ec0ce4de4dcfc4dc]
class CustomFieldMoneyType--><a href="CustomFieldMoneyType.svg" target="_top" title="CustomFieldMoneyType.svg" xlink:actuate="onRequest" xlink:href="CustomFieldMoneyType.svg" xlink:show="new" xlink:title="CustomFieldMoneyType.svg" xlink:type="simple"><g id="elem_CustomFieldMoneyType"><rect codeLine="35" fill="#F1F1F1" height="56.2969" id="CustomFieldMoneyType" rx="2.5" ry="2.5" style="stroke:#181818;stroke-width:0.5;" width="199" x="1936" y="243.4297"/><ellipse cx="1951" cy="259.4297" fill="#B4A7E5" rx="11" ry="11" style="stroke:#181818;stroke-width:1.0;"/><path d="M1946.9219,255.1953 L1946.9219,253.0391 L1954.3125,253.0391 L1954.3125,255.1953 L1951.8438,255.1953 L1951.8438,263.2734 L1954.3125,263.2734 L1954.3125,265.4297 L1946.9219,265.4297 L1946.9219,263.2734 L1949.3906,263.2734 L1949.3906,255.1953 L1946.9219,255.1953 Z " fill="#000000"/><text fill="#000000" font-family="sans-serif" font-size="14" font-style="italic" lengthAdjust="spacing" textLength="167" x="1965" y="264.2764">CustomFieldMoneyType</text><line style="stroke:#181818;stroke-width:0.5;" x1="1937" x2="2134" y1="275.4297" y2="275.4297"/><text fill="#000000" font-family="sans-serif" font-size="14" lengthAdjust="spacing" textLength="88" x="1942" y="292.4248">name: String</text></g></a><!--MD5=[b7387c58b3f65a958ec2dd401172c1c6]
class CustomFieldNumberType--><a href="CustomFieldNumberType.svg" target="_top" title="CustomFieldNumberType.svg" xlink:actuate="onRequest" xlink:href="CustomFieldNumberType.svg" xlink:show="new" xlink:title="CustomFieldNumberType.svg" xlink:type="simple"><g id="elem_CustomFieldNumberType"><rect codeLine="38" fill="#F1F1F1" height="56.2969" id="CustomFieldNumberType" rx="2.5" ry="2.5" style="stroke:#181818;stroke-width:0.5;" width="208" x="429" y="243.4297"/><ellipse cx="444" cy="259.4297" fill="#B4A7E5" rx="11" ry="11" style="stroke:#181818;stroke-width:1.0;"/><path d="M439.9219,255.1953 L439.9219,253.0391 L447.3125,253.0391 L447.3125,255.1953 L444.8438,255.1953 L444.8438,263.2734 L447.3125,263.2734 L447.3125,265.4297 L439.9219,265.4297 L439.9219,263.2734 L442.3906,263.2734 L442.3906,255.1953 L439.9219,255.1953 Z " fill="#000000"/><text fill="#000000" font-family="sans-serif" font-size="14" font-style="italic" lengthAdjust="spacing" textLength="176" x="458" y="264.2764">CustomFieldNumberType</text><line style="stroke:#181818;stroke-width:0.5;" x1="430" x2="636" y1="275.4297" y2="275.4297"/><text fill="#000000" font-family="sans-serif" font-size="14" lengthAdjust="spacing" textLength="88" x="435" y="292.4248">name: String</text></g></a><!--MD5=[f3eaa20fead6f72970a1ccd6be9119a9]
class CustomFieldReferenceType--><a href="CustomFieldReferenceType.svg" target="_top" title="CustomFieldReferenceType.svg" xlink:actuate="onRequest" xlink:href="CustomFieldReferenceType.svg" xlink:show="new" xlink:title="CustomFieldReferenceType.svg" xlink:type="simple"><g id="elem_CustomFieldReferenceType"><rect codeLine="41" fill="#F1F1F1" height="72.5938" id="CustomFieldReferenceType" rx="2.5" ry="2.5" style="stroke:#181818;stroke-width:0.5;" width="330" x="1380" y="243.4297"/><ellipse cx="1444.75" cy="259.4297" fill="#B4A7E5" rx="11" ry="11" style="stroke:#181818;stroke-width:1.0;"/><path d="M1440.6719,255.1953 L1440.6719,253.0391 L1448.0625,253.0391 L1448.0625,255.1953 L1445.5938,255.1953 L1445.5938,263.2734 L1448.0625,263.2734 L1448.0625,265.4297 L1440.6719,265.4297 L1440.6719,263.2734 L1443.1406,263.2734 L1443.1406,255.1953 L1440.6719,255.1953 Z " fill="#000000"/><text fill="#000000" font-family="sans-serif" font-size="14" font-style="italic" lengthAdjust="spacing" textLength="192" x="1465.25" y="264.2764">CustomFieldReferenceType</text><line style="stroke:#181818;stroke-width:0.5;" x1="1381" x2="1709" y1="275.4297" y2="275.4297"/><text fill="#000000" font-family="sans-serif" font-size="14" lengthAdjust="spacing" textLength="88" x="1386" y="292.4248">name: String</text><text fill="#000000" font-family="sans-serif" font-size="14" lengthAdjust="spacing" textLength="118" x="1386" y="308.7217">referenceTypeId:</text><a href="CustomFieldReferenceValue.svg" target="_top" title="CustomFieldReferenceValue.svg" xlink:actuate="onRequest" xlink:href="CustomFieldReferenceValue.svg" xlink:show="new" xlink:title="CustomFieldReferenceValue.svg" xlink:type="simple"><text fill="#0000FF" font-family="sans-serif" font-size="14" lengthAdjust="spacing" text-decoration="underline" textLength="196" x="1508" y="308.7217">CustomFieldReferenceValue</text></a></g></a><!--MD5=[0f1f9c944e0ace472fa534c547cf56c8]
class CustomFieldSetType--><a href="CustomFieldSetType.svg" target="_top" title="CustomFieldSetType.svg" xlink:actuate="onRequest" xlink:href="CustomFieldSetType.svg" xlink:show="new" xlink:title="CustomFieldSetType.svg" xlink:type="simple"><g id="elem_CustomFieldSetType"><rect codeLine="55" fill="#F1F1F1" height="105.1875" id="CustomFieldSetType" rx="2.5" ry="2.5" style="stroke:#181818;stroke-width:0.5;" width="178" x="657" y="243.4297"/><ellipse cx="673.35" cy="259.4297" fill="#B4A7E5" rx="11" ry="11" style="stroke:#181818;stroke-width:1.0;"/><path d="M669.2719,255.1953 L669.2719,253.0391 L676.6625,253.0391 L676.6625,255.1953 L674.1938,255.1953 L674.1938,263.2734 L676.6625,263.2734 L676.6625,265.4297 L669.2719,265.4297 L669.2719,263.2734 L671.7406,263.2734 L671.7406,255.1953 L669.2719,255.1953 Z " fill="#000000"/><text fill="#000000" font-family="sans-serif" font-size="14" font-style="italic" lengthAdjust="spacing" textLength="143" x="687.65" y="264.2764">CustomFieldSetType</text><line style="stroke:#181818;stroke-width:0.5;" x1="658" x2="834" y1="275.4297" y2="275.4297"/><text fill="#000000" font-family="sans-serif" font-size="14" lengthAdjust="spacing" textLength="88" x="663" y="292.4248">name: String</text><text fill="#000000" font-family="sans-serif" font-size="14" lengthAdjust="spacing" textLength="96" x="663" y="308.7217">elementType:</text><a href="FieldType.svg" target="_top" title="FieldType.svg" xlink:actuate="onRequest" xlink:href="FieldType.svg" xlink:show="new" xlink:title="FieldType.svg" xlink:type="simple"><text fill="#0000FF" font-family="sans-serif" font-size="14" lengthAdjust="spacing" text-decoration="underline" textLength="66" x="763" y="308.7217">FieldType</text></a><text fill="#000000" font-family="sans-serif" font-size="14" lengthAdjust="spacing" textLength="88" x="663" y="325.0186">name: String</text><text fill="#000000" font-family="sans-serif" font-size="14" lengthAdjust="spacing" textLength="96" x="663" y="341.3154">elementType:</text><a href="FieldType.svg" target="_top" title="FieldType.svg" xlink:actuate="onRequest" xlink:href="FieldType.svg" xlink:show="new" xlink:title="FieldType.svg" xlink:type="simple"><text fill="#0000FF" font-family="sans-serif" font-size="14" lengthAdjust="spacing" text-decoration="underline" textLength="66" x="763" y="341.3154">FieldType</text></a></g></a><!--MD5=[4b940a93c0de1e922f1679a9ba3f12c7]
class CustomFieldStringType--><a href="CustomFieldStringType.svg" target="_top" title="CustomFieldStringType.svg" xlink:actuate="onRequest" xlink:href="CustomFieldStringType.svg" xlink:show="new" xlink:title="CustomFieldStringType.svg" xlink:type="simple"><g id="elem_CustomFieldStringType"><rect codeLine="49" fill="#F1F1F1" height="56.2969" id="CustomFieldStringType" rx="2.5" ry="2.5" style="stroke:#181818;stroke-width:0.5;" width="192" x="217" y="243.4297"/><ellipse cx="232" cy="259.4297" fill="#B4A7E5" rx="11" ry="11" style="stroke:#181818;stroke-width:1.0;"/><path d="M227.9219,255.1953 L227.9219,253.0391 L235.3125,253.0391 L235.3125,255.1953 L232.8438,255.1953 L232.8438,263.2734 L235.3125,263.2734 L235.3125,265.4297 L227.9219,265.4297 L227.9219,263.2734 L230.3906,263.2734 L230.3906,255.1953 L227.9219,255.1953 Z " fill="#000000"/><text fill="#000000" font-family="sans-serif" font-size="14" font-style="italic" lengthAdjust="spacing" textLength="160" x="246" y="264.2764">CustomFieldStringType</text><line style="stroke:#181818;stroke-width:0.5;" x1="218" x2="408" y1="275.4297" y2="275.4297"/><text fill="#000000" font-family="sans-serif" font-size="14" lengthAdjust="spacing" textLength="88" x="223" y="292.4248">name: String</text></g></a><!--MD5=[fd28e36730d14313889aca7067e51d79]
class CustomFieldTimeType--><a href="CustomFieldTimeType.svg" target="_top" title="CustomFieldTimeType.svg" xlink:actuate="onRequest" xlink:href="CustomFieldTimeType.svg" xlink:show="new" xlink:title="CustomFieldTimeType.svg" xlink:type="simple"><g id="elem_CustomFieldTimeType"><rect codeLine="52" fill="#F1F1F1" height="56.2969" id="CustomFieldTimeType" rx="2.5" ry="2.5" style="stroke:#181818;stroke-width:0.5;" width="186" x="1730" y="243.4297"/><ellipse cx="1745" cy="259.4297" fill="#B4A7E5" rx="11" ry="11" style="stroke:#181818;stroke-width:1.0;"/><path d="M1740.9219,255.1953 L1740.9219,253.0391 L1748.3125,253.0391 L1748.3125,255.1953 L1745.8438,255.1953 L1745.8438,263.2734 L1748.3125,263.2734 L1748.3125,265.4297 L1740.9219,265.4297 L1740.9219,263.2734 L1743.3906,263.2734 L1743.3906,255.1953 L1740.9219,255.1953 Z " fill="#000000"/><text fill="#000000" font-family="sans-serif" font-size="14" font-style="italic" lengthAdjust="spacing" textLength="154" x="1759" y="264.2764">CustomFieldTimeType</text><line style="stroke:#181818;stroke-width:0.5;" x1="1731" x2="1915" y1="275.4297" y2="275.4297"/><text fill="#000000" font-family="sans-serif" font-size="14" lengthAdjust="spacing" textLength="88" x="1736" y="292.4248">name: String</text></g></a><!--MD5=[e6aac89c4ccf6a95836f60674fffd658]
class FieldDefinition--><a href="FieldDefinition.svg" target="_top" title="FieldDefinition.svg" xlink:actuate="onRequest" xlink:href="FieldDefinition.svg" xlink:show="new" xlink:title="FieldDefinition.svg" xlink:type="simple"><g id="elem_FieldDefinition"><rect codeLine="59" fill="#F1F1F1" height="121.4844" id="FieldDefinition" rx="2.5" ry="2.5" style="stroke:#181818;stroke-width:0.5;" width="209" x="1151" y="243.4297"/><ellipse cx="1202.75" cy="259.4297" fill="#B4A7E5" rx="11" ry="11" style="stroke:#181818;stroke-width:1.0;"/><path d="M1198.6719,255.1953 L1198.6719,253.0391 L1206.0625,253.0391 L1206.0625,255.1953 L1203.5938,255.1953 L1203.5938,263.2734 L1206.0625,263.2734 L1206.0625,265.4297 L1198.6719,265.4297 L1198.6719,263.2734 L1201.1406,263.2734 L1201.1406,255.1953 L1198.6719,255.1953 Z " fill="#000000"/><text fill="#000000" font-family="sans-serif" font-size="14" font-style="italic" lengthAdjust="spacing" textLength="97" x="1223.25" y="264.2764">FieldDefinition</text><line style="stroke:#181818;stroke-width:0.5;" x1="1152" x2="1359" y1="275.4297" y2="275.4297"/><text fill="#000000" font-family="sans-serif" font-size="14" lengthAdjust="spacing" textLength="35" x="1157" y="292.4248">type:</text><a href="FieldType.svg" target="_top" title="FieldType.svg" xlink:actuate="onRequest" xlink:href="FieldType.svg" xlink:show="new" xlink:title="FieldType.svg" xlink:type="simple"><text fill="#0000FF" font-family="sans-serif" font-size="14" lengthAdjust="spacing" text-decoration="underline" textLength="66" x="1196" y="292.4248">FieldType</text></a><text fill="#000000" font-family="sans-serif" font-size="14" lengthAdjust="spacing" textLength="88" x="1157" y="308.7217">name: String</text><text fill="#000000" font-family="sans-serif" font-size="14" lengthAdjust="spacing" textLength="37" x="1157" y="325.0186">label:</text><a href="LocalizedString.svg" target="_top" title="LocalizedString.svg" xlink:actuate="onRequest" xlink:href="LocalizedString.svg" xlink:show="new" xlink:title="LocalizedString.svg" xlink:type="simple"><text fill="#0000FF" font-family="sans-serif" font-size="14" lengthAdjust="spacing" text-decoration="underline" textLength="104" x="1198" y="325.0186">LocalizedString</text></a><text fill="#000000" font-family="sans-serif" font-size="14" lengthAdjust="spacing" textLength="124" x="1157" y="341.3154">required: Boolean</text><text fill="#000000" font-family="sans-serif" font-size="14" lengthAdjust="spacing" textLength="67" x="1157" y="357.6123">inputHint:</text><a href="TypeTextInputHint.svg" target="_top" title="TypeTextInputHint.svg" xlink:actuate="onRequest" xlink:href="TypeTextInputHint.svg" xlink:show="new" xlink:title="TypeTextInputHint.svg" xlink:type="simple"><text fill="#0000FF" font-family="sans-serif" font-size="14" lengthAdjust="spacing" text-decoration="underline" textLength="126" x="1228" y="357.6123">TypeTextInputHint</text></a></g></a><line style="stroke:#0000FF;stroke-width:1.0;" x1="184.5" x2="184.5" y1="68.2969" y2="88.2969"/><line style="stroke:#0000FF;stroke-width:1.0;" x1="184.5" x2="2895.5" y1="88.2969" y2="88.2969"/><line style="stroke:#0000FF;stroke-width:1.0;" x1="2895.5" x2="2895.5" y1="88.2969" y2="243.4297"/><polygon fill="#0000FF" points="2895.5,243.4297,2899.5,234.4297,2895.5,238.4297,2891.5,234.4297,2895.5,243.4297" style="stroke:#0000FF;stroke-width:1.0;"/><text fill="#000000" font-family="sans-serif" font-size="13" lengthAdjust="spacing" textLength="101" x="2792.5" y="220.3638">name : Boolean</text><line style="stroke:#0000FF;stroke-width:1.0;" x1="191.1667" x2="191.1667" y1="68.2969" y2="78.2969"/><line style="stroke:#0000FF;stroke-width:1.0;" x1="191.1667" x2="3129.5" y1="78.2969" y2="78.2969"/><line style="stroke:#0000FF;stroke-width:1.0;" x1="3129.5" x2="3129.5" y1="78.2969" y2="243.4297"/><polygon fill="#0000FF" points="3129.5,243.4297,3133.5,234.4297,3129.5,238.4297,3125.5,234.4297,3129.5,243.4297" style="stroke:#0000FF;stroke-width:1.0;"/><text fill="#000000" font-family="sans-serif" font-size="13" lengthAdjust="spacing" textLength="111" x="3016.5" y="220.3638">name : DateTime</text><line style="stroke:#0000FF;stroke-width:1.0;" x1="104.5" x2="104.5" y1="68.2969" y2="243.4297"/><polygon fill="#0000FF" points="104.5,243.4297,108.5,234.4297,104.5,238.4297,100.5,234.4297,104.5,243.4297" style="stroke:#0000FF;stroke-width:1.0;"/><text fill="#000000" font-family="sans-serif" font-size="13" lengthAdjust="spacing" textLength="80" x="22.5" y="220.3638">name : Date</text><line style="stroke:#0000FF;stroke-width:1.0;" x1="137.8333" x2="137.8333" y1="68.2969" y2="158.2969"/><line style="stroke:#0000FF;stroke-width:1.0;" x1="137.8333" x2="993" y1="158.2969" y2="158.2969"/><line style="stroke:#0000FF;stroke-width:1.0;" x1="993" x2="993" y1="158.2969" y2="243.4297"/><polygon fill="#0000FF" points="993,243.4297,997,234.4297,993,238.4297,989,234.4297,993,243.4297" style="stroke:#0000FF;stroke-width:1.0;"/><text fill="#000000" font-family="sans-serif" font-size="13" lengthAdjust="spacing" textLength="86" x="905" y="220.3638">name : Enum</text><line style="stroke:#0000FF;stroke-width:1.0;" x1="171.1667" x2="171.1667" y1="68.2969" y2="108.2969"/><line style="stroke:#0000FF;stroke-width:1.0;" x1="171.1667" x2="2325" y1="108.2969" y2="108.2969"/><line style="stroke:#0000FF;stroke-width:1.0;" x1="2325" x2="2325" y1="108.2969" y2="243.4297"/><polygon fill="#0000FF" points="2325,243.4297,2329,234.4297,2325,238.4297,2321,234.4297,2325,243.4297" style="stroke:#0000FF;stroke-width:1.0;"/><text fill="#000000" font-family="sans-serif" font-size="13" lengthAdjust="spacing" textLength="145" x="2178" y="220.3638">name : LocalizedEnum</text><line style="stroke:#0000FF;stroke-width:1.0;" x1="177.8333" x2="177.8333" y1="68.2969" y2="98.2969"/><line style="stroke:#0000FF;stroke-width:1.0;" x1="177.8333" x2="2643" y1="98.2969" y2="98.2969"/><line style="stroke:#0000FF;stroke-width:1.0;" x1="2643" x2="2643" y1="98.2969" y2="243.4297"/><polygon fill="#0000FF" points="2643,243.4297,2647,234.4297,2643,238.4297,2639,234.4297,2643,243.4297" style="stroke:#0000FF;stroke-width:1.0;"/><text fill="#000000" font-family="sans-serif" font-size="13" lengthAdjust="spacing" textLength="146" x="2495" y="220.3638">name : LocalizedString</text><line style="stroke:#0000FF;stroke-width:1.0;" x1="164.5" x2="164.5" y1="68.2969" y2="118.2969"/><line style="stroke:#0000FF;stroke-width:1.0;" x1="164.5" x2="2035.5" y1="118.2969" y2="118.2969"/><line style="stroke:#0000FF;stroke-width:1.0;" x1="2035.5" x2="2035.5" y1="118.2969" y2="243.4297"/><polygon fill="#0000FF" points="2035.5,243.4297,2039.5,234.4297,2035.5,238.4297,2031.5,234.4297,2035.5,243.4297" style="stroke:#0000FF;stroke-width:1.0;"/><text fill="#000000" font-family="sans-serif" font-size="13" lengthAdjust="spacing" textLength="91" x="1942.5" y="220.3638">name : Money</text><line style="stroke:#0000FF;stroke-width:1.0;" x1="117.8333" x2="117.8333" y1="68.2969" y2="188.2969"/><line style="stroke:#0000FF;stroke-width:1.0;" x1="117.8333" x2="533" y1="188.2969" y2="188.2969"/><line style="stroke:#0000FF;stroke-width:1.0;" x1="533" x2="533" y1="188.2969" y2="243.4297"/><polygon fill="#0000FF" points="533,243.4297,537,234.4297,533,238.4297,529,234.4297,533,243.4297" style="stroke:#0000FF;stroke-width:1.0;"/><text fill="#000000" font-family="sans-serif" font-size="13" lengthAdjust="spacing" textLength="101" x="430" y="220.3638">name : Number</text><line style="stroke:#0000FF;stroke-width:1.0;" x1="151.1667" x2="151.1667" y1="68.2969" y2="138.2969"/><line style="stroke:#0000FF;stroke-width:1.0;" x1="151.1667" x2="1545" y1="138.2969" y2="138.2969"/><line style="stroke:#0000FF;stroke-width:1.0;" x1="1545" x2="1545" y1="138.2969" y2="243.4297"/><polygon fill="#0000FF" points="1545,243.4297,1549,234.4297,1545,238.4297,1541,234.4297,1545,243.4297" style="stroke:#0000FF;stroke-width:1.0;"/><text fill="#000000" font-family="sans-serif" font-size="13" lengthAdjust="spacing" textLength="113" x="1430" y="220.3638">name : Reference</text><line style="stroke:#0000FF;stroke-width:1.0;" x1="131.1667" x2="131.1667" y1="68.2969" y2="168.2969"/><line style="stroke:#0000FF;stroke-width:1.0;" x1="131.1667" x2="727.3333" y1="168.2969" y2="168.2969"/><line style="stroke:#0000FF;stroke-width:1.0;" x1="727.3333" x2="727.3333" y1="168.2969" y2="233.4297"/><line style="stroke:#0000FF;stroke-width:1.0;" x1="727.3333" x2="775.6667" y1="233.4297" y2="233.4297"/><line style="stroke:#0000FF;stroke-width:1.0;" x1="775.6667" x2="775.6667" y1="233.4297" y2="243.4297"/><polygon fill="#0000FF" points="775.6667,243.4297,779.6667,234.4297,775.6667,238.4297,771.6667,234.4297,775.6667,243.4297" style="stroke:#0000FF;stroke-width:1.0;"/><text fill="#000000" font-family="sans-serif" font-size="13" lengthAdjust="spacing" textLength="71" x="730.3333" y="220.3638">name : Set</text><line style="stroke:#0000FF;stroke-width:1.0;" x1="111.1667" x2="111.1667" y1="68.2969" y2="198.2969"/><line style="stroke:#0000FF;stroke-width:1.0;" x1="111.1667" x2="313" y1="198.2969" y2="198.2969"/><line style="stroke:#0000FF;stroke-width:1.0;" x1="313" x2="313" y1="198.2969" y2="243.4297"/><polygon fill="#0000FF" points="313,243.4297,317,234.4297,313,238.4297,309,234.4297,313,243.4297" style="stroke:#0000FF;stroke-width:1.0;"/><text fill="#000000" font-family="sans-serif" font-size="13" lengthAdjust="spacing" textLength="87" x="224" y="220.3638">name : String</text><line style="stroke:#0000FF;stroke-width:1.0;" x1="157.8333" x2="157.8333" y1="68.2969" y2="128.2969"/><line style="stroke:#0000FF;stroke-width:1.0;" x1="157.8333" x2="1823" y1="128.2969" y2="128.2969"/><line style="stroke:#0000FF;stroke-width:1.0;" x1="1823" x2="1823" y1="128.2969" y2="243.4297"/><polygon fill="#0000FF" points="1823,243.4297,1827,234.4297,1823,238.4297,1819,234.4297,1823,243.4297" style="stroke:#0000FF;stroke-width:1.0;"/><text fill="#000000" font-family="sans-serif" font-size="13" lengthAdjust="spacing" textLength="80" x="1741" y="220.3638">name : Time</text><line style="stroke:#008000;stroke-width:1.0;" x1="124.5" x2="124.5" y1="68.2969" y2="178.2969"/><line style="stroke:#008000;stroke-width:1.0;" x1="124.5" x2="716.3333" y1="178.2969" y2="178.2969"/><line style="stroke:#008000;stroke-width:1.0;" x1="716.3333" x2="716.3333" y1="178.2969" y2="243.4297"/><polygon fill="#008000" points="716.3333,243.4297,720.3333,234.4297,716.3333,238.4297,712.3333,234.4297,716.3333,243.4297" style="stroke:#008000;stroke-width:1.0;"/><text fill="#000000" font-family="sans-serif" font-size="13" lengthAdjust="spacing" textLength="83" x="631.3333" y="220.3638">elementType</text><line style="stroke:#008000;stroke-width:1.0;" x1="144.5" x2="144.5" y1="68.2969" y2="148.2969"/><line style="stroke:#008000;stroke-width:1.0;" x1="144.5" x2="1255.5" y1="148.2969" y2="148.2969"/><line style="stroke:#008000;stroke-width:1.0;" x1="1255.5" x2="1255.5" y1="148.2969" y2="243.4297"/><polygon fill="#008000" points="1255.5,243.4297,1259.5,234.4297,1255.5,238.4297,1251.5,234.4297,1255.5,243.4297" style="stroke:#008000;stroke-width:1.0;"/><text fill="#000000" font-family="sans-serif" font-size="13" lengthAdjust="spacing" textLength="28" x="1225.5" y="220.3638">type</text><rect fill="#DDDDDD" height="79.1875" id="_legend" rx="7.5" ry="7.5" style="stroke:#000000;stroke-width:1.0;" width="161" x="1533" y="365.9141"/><text fill="#000000" font-family="sans-serif" font-size="14" font-weight="bold" lengthAdjust="spacing" textLength="5" x="1538" y="385.9092"> </text><text fill="#000000" font-family="sans-serif" font-size="14" font-weight="bold" lengthAdjust="spacing" textLength="28" x="1555" y="385.9092">line</text><text fill="#000000" filter="url(#blbfwwl9k83hq0)" font-family="sans-serif" font-size="14" lengthAdjust="spacing" textLength="12" x="1538" y="402.2061">   </text><text fill="#000000" font-family="sans-serif" font-size="14" lengthAdjust="spacing" textLength="77" x="1554" y="402.2061">inheritance</text><text fill="#000000" filter="url(#blbfwwl9k83hq1)" font-family="sans-serif" font-size="14" lengthAdjust="spacing" textLength="12" x="1538" y="418.5029">   </text><text fill="#000000" font-family="sans-serif" font-size="14" lengthAdjust="spacing" textLength="129" x="1554" y="418.5029">property reference</text><text fill="#000000" filter="url(#blbfwwl9k83hq2)" font-family="sans-serif" font-size="14" lengthAdjust="spacing" textLength="12" x="1538" y="434.7998">   </text><text fill="#000000" font-family="sans-serif" font-size="14" lengthAdjust="spacing" textLength="131" x="1554" y="434.7998">discriminated class</text><line style="stroke:#000000;stroke-width:1.0;" x1="1538" x2="1689" y1="372.9141" y2="372.9141"/><line style="stroke:#000000;stroke-width:1.0;" x1="1538" x2="1689" y1="389.2109" y2="389.2109"/><line style="stroke:#000000;stroke-width:1.0;" x1="1538" x2="1689" y1="405.5078" y2="405.5078"/><line style="stroke:#000000;stroke-width:1.0;" x1="1538" x2="1689" y1="421.8047" y2="421.8047"/><line style="stroke:#000000;stroke-width:1.0;" x1="1538" x2="1689" y1="438.1016" y2="438.1016"/><line style="stroke:#000000;stroke-width:1.0;" x1="1538" x2="1538" y1="372.9141" y2="438.1016"/><line style="stroke:#000000;stroke-width:1.0;" x1="1550" x2="1550" y1="372.9141" y2="438.1016"/><line style="stroke:#000000;stroke-width:1.0;" x1="1689" x2="1689" y1="372.9141" y2="438.1016"/><!--MD5=[3343059937c68f0362ede89a8db71bf1]
@startuml
!pragma layout elk
hide empty fields
hide empty methods
legend
|= |= line |
|<back:black>   </back>| inheritance |
|<back:green>   </back>| property reference |
|<back:blue>   </back>| discriminated class |
endlegend
interface FieldType [[FieldType.svg]]  {
    name: String
}


interface CustomFieldBooleanType [[CustomFieldBooleanType.svg]]  {
    name: String
}
interface CustomFieldDateTimeType [[CustomFieldDateTimeType.svg]]  {
    name: String
}
interface CustomFieldDateType [[CustomFieldDateType.svg]]  {
    name: String
}
interface CustomFieldEnumType [[CustomFieldEnumType.svg]]  {
    name: String
    values: [[CustomFieldEnumValue.svg List<CustomFieldEnumValue>]]
}
interface CustomFieldLocalizedEnumType [[CustomFieldLocalizedEnumType.svg]]  {
    name: String
    values: [[CustomFieldLocalizedEnumValue.svg List<CustomFieldLocalizedEnumValue>]]
}
interface CustomFieldLocalizedStringType [[CustomFieldLocalizedStringType.svg]]  {
    name: String
}
interface CustomFieldMoneyType [[CustomFieldMoneyType.svg]]  {
    name: String
}
interface CustomFieldNumberType [[CustomFieldNumberType.svg]]  {
    name: String
}
interface CustomFieldReferenceType [[CustomFieldReferenceType.svg]]  {
    name: String
    referenceTypeId: [[CustomFieldReferenceValue.svg CustomFieldReferenceValue]]
}
interface CustomFieldSetType [[CustomFieldSetType.svg]]  {
    name: String
    elementType: [[FieldType.svg FieldType]]
}
interface CustomFieldStringType [[CustomFieldStringType.svg]]  {
    name: String
}
interface CustomFieldTimeType [[CustomFieldTimeType.svg]]  {
    name: String
}
interface CustomFieldSetType [[CustomFieldSetType.svg]]  {
    name: String
    elementType: [[FieldType.svg FieldType]]
}
interface FieldDefinition [[FieldDefinition.svg]]  {
    type: [[FieldType.svg FieldType]]
    name: String
    label: [[LocalizedString.svg LocalizedString]]
    required: Boolean
    inputHint: [[TypeTextInputHint.svg TypeTextInputHint]]
}
FieldType - -> CustomFieldBooleanType #blue;text:blue : "name : Boolean"
FieldType - -> CustomFieldDateTimeType #blue;text:blue : "name : DateTime"
FieldType - -> CustomFieldDateType #blue;text:blue : "name : Date"
FieldType - -> CustomFieldEnumType #blue;text:blue : "name : Enum"
FieldType - -> CustomFieldLocalizedEnumType #blue;text:blue : "name : LocalizedEnum"
FieldType - -> CustomFieldLocalizedStringType #blue;text:blue : "name : LocalizedString"
FieldType - -> CustomFieldMoneyType #blue;text:blue : "name : Money"
FieldType - -> CustomFieldNumberType #blue;text:blue : "name : Number"
FieldType - -> CustomFieldReferenceType #blue;text:blue : "name : Reference"
FieldType - -> CustomFieldSetType #blue;text:blue : "name : Set"
FieldType - -> CustomFieldStringType #blue;text:blue : "name : String"
FieldType - -> CustomFieldTimeType #blue;text:blue : "name : Time"
FieldType - -> CustomFieldSetType #green;text:green : "elementType"
FieldType - -> FieldDefinition #green;text:green : "type"
@enduml

PlantUML version 1.2022.13(Sat Nov 19 13:22:17 UTC 2022)
(GPL source distribution)
Java Runtime: OpenJDK Runtime Environment
JVM: OpenJDK 64-Bit Server VM
Default Encoding: UTF-8
Language: en
Country: null
--></g></svg>
