<?xml version="1.0" encoding="UTF-8" standalone="no"?><svg xmlns="http://www.w3.org/2000/svg" xmlns:xlink="http://www.w3.org/1999/xlink" contentStyleType="text/css" height="244px" preserveAspectRatio="none" style="width:323px;height:244px;background:#FFFFFF;" version="1.1" viewBox="0 0 323 244" width="323px" zoomAndPan="magnify"><defs><filter height="1" id="b1aqv14kd3hvc90" width="1" x="0" y="0"><feFlood flood-color="#000000" result="flood"/><feComposite in="SourceGraphic" in2="flood" operator="over"/></filter><filter height="1" id="b1aqv14kd3hvc91" width="1" x="0" y="0"><feFlood flood-color="#008000" result="flood"/><feComposite in="SourceGraphic" in2="flood" operator="over"/></filter><filter height="1" id="b1aqv14kd3hvc92" width="1" x="0" y="0"><feFlood flood-color="#0000FF" result="flood"/><feComposite in="SourceGraphic" in2="flood" operator="over"/></filter></defs><g><!--MD5=[3334c0e2eefe1fc36a1b9f6ceb55184e]
class GraphQLInternalConstraintViolatedError--><a href="GraphQLInternalConstraintViolatedError.svg" target="_top" title="GraphQLInternalConstraintViolatedError.svg" xlink:actuate="onRequest" xlink:href="GraphQLInternalConstraintViolatedError.svg" xlink:show="new" xlink:title="GraphQLInternalConstraintViolatedError.svg" xlink:type="simple"><g id="elem_GraphQLInternalConstraintViolatedError"><rect codeLine="10" fill="#F1F1F1" height="56.2969" id="GraphQLInternalConstraintViolatedError" rx="2.5" ry="2.5" style="stroke:#181818;stroke-width:0.5;" width="304" x="12" y="88.2969"/><ellipse cx="27" cy="104.2969" fill="#B4A7E5" rx="11" ry="11" style="stroke:#181818;stroke-width:1.0;"/><path d="M22.9219,100.0625 L22.9219,97.9063 L30.3125,97.9063 L30.3125,100.0625 L27.8438,100.0625 L27.8438,108.1406 L30.3125,108.1406 L30.3125,110.2969 L22.9219,110.2969 L22.9219,108.1406 L25.3906,108.1406 L25.3906,100.0625 L22.9219,100.0625 Z " fill="#000000"/><text fill="#000000" font-family="sans-serif" font-size="14" font-style="italic" lengthAdjust="spacing" textLength="272" x="41" y="109.1436">GraphQLInternalConstraintViolatedError</text><line style="stroke:#181818;stroke-width:0.5;" x1="13" x2="315" y1="120.2969" y2="120.2969"/><text fill="#000000" font-family="sans-serif" font-size="14" lengthAdjust="spacing" textLength="84" x="18" y="137.292">code: String</text></g></a><!--MD5=[6eb1c551f376181fb90bf06b356d1863]
class GraphQLErrorObject--><a href="GraphQLErrorObject.svg" target="_top" title="GraphQLErrorObject.svg" xlink:actuate="onRequest" xlink:href="GraphQLErrorObject.svg" xlink:show="new" xlink:title="GraphQLErrorObject.svg" xlink:type="simple"><g id="elem_GraphQLErrorObject"><rect codeLine="13" fill="#F1F1F1" height="56.2969" id="GraphQLErrorObject" rx="2.5" ry="2.5" style="stroke:#181818;stroke-width:0.5;" width="171" x="78.5" y="12"/><ellipse cx="93.5" cy="28" fill="#B4A7E5" rx="11" ry="11" style="stroke:#181818;stroke-width:1.0;"/><path d="M89.4219,23.7656 L89.4219,21.6094 L96.8125,21.6094 L96.8125,23.7656 L94.3438,23.7656 L94.3438,31.8438 L96.8125,31.8438 L96.8125,34 L89.4219,34 L89.4219,31.8438 L91.8906,31.8438 L91.8906,23.7656 L89.4219,23.7656 Z " fill="#000000"/><text fill="#000000" font-family="sans-serif" font-size="14" font-style="italic" lengthAdjust="spacing" textLength="139" x="107.5" y="32.8467">GraphQLErrorObject</text><line style="stroke:#181818;stroke-width:0.5;" x1="79.5" x2="248.5" y1="44" y2="44"/><text fill="#000000" font-family="sans-serif" font-size="14" lengthAdjust="spacing" textLength="84" x="84.5" y="60.9951">code: String</text></g></a><line style="stroke:#181818;stroke-width:1.0;" x1="164" x2="164" y1="68.2969" y2="88.2969"/><polygon fill="#FFFFFF" points="164,68.2969,157,87.2969,171,87.2969,164,68.2969" style="stroke:#181818;stroke-width:1.0;"/><rect fill="#DDDDDD" height="79.1875" id="_legend" rx="7.5" ry="7.5" style="stroke:#000000;stroke-width:1.0;" width="161" x="71.5" y="145.5938"/><text fill="#000000" font-family="sans-serif" font-size="14" font-weight="bold" lengthAdjust="spacing" textLength="5" x="76.5" y="165.5889"> </text><text fill="#000000" font-family="sans-serif" font-size="14" font-weight="bold" lengthAdjust="spacing" textLength="28" x="93.5" y="165.5889">line</text><text fill="#000000" filter="url(#b1aqv14kd3hvc90)" font-family="sans-serif" font-size="14" lengthAdjust="spacing" textLength="12" x="76.5" y="181.8857">   </text><text fill="#000000" font-family="sans-serif" font-size="14" lengthAdjust="spacing" textLength="77" x="92.5" y="181.8857">inheritance</text><text fill="#000000" filter="url(#b1aqv14kd3hvc91)" font-family="sans-serif" font-size="14" lengthAdjust="spacing" textLength="12" x="76.5" y="198.1826">   </text><text fill="#000000" font-family="sans-serif" font-size="14" lengthAdjust="spacing" textLength="129" x="92.5" y="198.1826">property reference</text><text fill="#000000" filter="url(#b1aqv14kd3hvc92)" font-family="sans-serif" font-size="14" lengthAdjust="spacing" textLength="12" x="76.5" y="214.4795">   </text><text fill="#000000" font-family="sans-serif" font-size="14" lengthAdjust="spacing" textLength="131" x="92.5" y="214.4795">discriminated class</text><line style="stroke:#000000;stroke-width:1.0;" x1="76.5" x2="227.5" y1="152.5938" y2="152.5938"/><line style="stroke:#000000;stroke-width:1.0;" x1="76.5" x2="227.5" y1="168.8906" y2="168.8906"/><line style="stroke:#000000;stroke-width:1.0;" x1="76.5" x2="227.5" y1="185.1875" y2="185.1875"/><line style="stroke:#000000;stroke-width:1.0;" x1="76.5" x2="227.5" y1="201.4844" y2="201.4844"/><line style="stroke:#000000;stroke-width:1.0;" x1="76.5" x2="227.5" y1="217.7813" y2="217.7813"/><line style="stroke:#000000;stroke-width:1.0;" x1="76.5" x2="76.5" y1="152.5938" y2="217.7813"/><line style="stroke:#000000;stroke-width:1.0;" x1="88.5" x2="88.5" y1="152.5938" y2="217.7813"/><line style="stroke:#000000;stroke-width:1.0;" x1="227.5" x2="227.5" y1="152.5938" y2="217.7813"/><!--MD5=[6f12b1c25233d7e9fc9a5771c206a494]
@startuml
!pragma layout elk
hide empty fields
hide empty methods
legend
|= |= line |
|<back:black>   </back>| inheritance |
|<back:green>   </back>| property reference |
|<back:blue>   </back>| discriminated class |
endlegend
interface GraphQLInternalConstraintViolatedError [[GraphQLInternalConstraintViolatedError.svg]] extends GraphQLErrorObject {
    code: String
}
interface GraphQLErrorObject [[GraphQLErrorObject.svg]]  {
    code: String
}





@enduml

PlantUML version 1.2022.13(Sat Nov 19 13:22:17 UTC 2022)
(GPL source distribution)
Java Runtime: OpenJDK Runtime Environment
JVM: OpenJDK 64-Bit Server VM
Default Encoding: UTF-8
Language: en
Country: null
--></g></svg>
