<?xml version="1.0" encoding="UTF-8" standalone="no"?><svg xmlns="http://www.w3.org/2000/svg" xmlns:xlink="http://www.w3.org/1999/xlink" contentStyleType="text/css" height="261px" preserveAspectRatio="none" style="width:240px;height:261px;background:#FFFFFF;" version="1.1" viewBox="0 0 240 261" width="240px" zoomAndPan="magnify"><defs><filter height="1" id="b1de21j451i5mt0" width="1" x="0" y="0"><feFlood flood-color="#000000" result="flood"/><feComposite in="SourceGraphic" in2="flood" operator="over"/></filter><filter height="1" id="b1de21j451i5mt1" width="1" x="0" y="0"><feFlood flood-color="#008000" result="flood"/><feComposite in="SourceGraphic" in2="flood" operator="over"/></filter><filter height="1" id="b1de21j451i5mt2" width="1" x="0" y="0"><feFlood flood-color="#0000FF" result="flood"/><feComposite in="SourceGraphic" in2="flood" operator="over"/></filter></defs><g><!--MD5=[78a80bb995a7b8c5d5e8f572a0f900b3]
class GraphQLRequiredFieldError--><a href="GraphQLRequiredFieldError.svg" target="_top" title="GraphQLRequiredFieldError.svg" xlink:actuate="onRequest" xlink:href="GraphQLRequiredFieldError.svg" xlink:show="new" xlink:title="GraphQLRequiredFieldError.svg" xlink:type="simple"><g id="elem_GraphQLRequiredFieldError"><rect codeLine="10" fill="#F1F1F1" height="72.5938" id="GraphQLRequiredFieldError" rx="2.5" ry="2.5" style="stroke:#181818;stroke-width:0.5;" width="221" x="12" y="88.2969"/><ellipse cx="27" cy="104.2969" fill="#B4A7E5" rx="11" ry="11" style="stroke:#181818;stroke-width:1.0;"/><path d="M22.9219,100.0625 L22.9219,97.9063 L30.3125,97.9063 L30.3125,100.0625 L27.8438,100.0625 L27.8438,108.1406 L30.3125,108.1406 L30.3125,110.2969 L22.9219,110.2969 L22.9219,108.1406 L25.3906,108.1406 L25.3906,100.0625 L22.9219,100.0625 Z " fill="#000000"/><text fill="#000000" font-family="sans-serif" font-size="14" font-style="italic" lengthAdjust="spacing" textLength="189" x="41" y="109.1436">GraphQLRequiredFieldError</text><line style="stroke:#181818;stroke-width:0.5;" x1="13" x2="232" y1="120.2969" y2="120.2969"/><text fill="#000000" font-family="sans-serif" font-size="14" lengthAdjust="spacing" textLength="84" x="18" y="137.292">code: String</text><text fill="#000000" font-family="sans-serif" font-size="14" lengthAdjust="spacing" textLength="77" x="18" y="153.5889">field: String</text></g></a><!--MD5=[6eb1c551f376181fb90bf06b356d1863]
class GraphQLErrorObject--><a href="GraphQLErrorObject.svg" target="_top" title="GraphQLErrorObject.svg" xlink:actuate="onRequest" xlink:href="GraphQLErrorObject.svg" xlink:show="new" xlink:title="GraphQLErrorObject.svg" xlink:type="simple"><g id="elem_GraphQLErrorObject"><rect codeLine="14" fill="#F1F1F1" height="56.2969" id="GraphQLErrorObject" rx="2.5" ry="2.5" style="stroke:#181818;stroke-width:0.5;" width="171" x="37" y="12"/><ellipse cx="52" cy="28" fill="#B4A7E5" rx="11" ry="11" style="stroke:#181818;stroke-width:1.0;"/><path d="M47.9219,23.7656 L47.9219,21.6094 L55.3125,21.6094 L55.3125,23.7656 L52.8438,23.7656 L52.8438,31.8438 L55.3125,31.8438 L55.3125,34 L47.9219,34 L47.9219,31.8438 L50.3906,31.8438 L50.3906,23.7656 L47.9219,23.7656 Z " fill="#000000"/><text fill="#000000" font-family="sans-serif" font-size="14" font-style="italic" lengthAdjust="spacing" textLength="139" x="66" y="32.8467">GraphQLErrorObject</text><line style="stroke:#181818;stroke-width:0.5;" x1="38" x2="207" y1="44" y2="44"/><text fill="#000000" font-family="sans-serif" font-size="14" lengthAdjust="spacing" textLength="84" x="43" y="60.9951">code: String</text></g></a><line style="stroke:#181818;stroke-width:1.0;" x1="122.5" x2="122.5" y1="68.2969" y2="88.2969"/><polygon fill="#FFFFFF" points="122.5,68.2969,115.5,87.2969,129.5,87.2969,122.5,68.2969" style="stroke:#181818;stroke-width:1.0;"/><rect fill="#DDDDDD" height="79.1875" id="_legend" rx="7.5" ry="7.5" style="stroke:#000000;stroke-width:1.0;" width="161" x="30" y="161.8906"/><text fill="#000000" font-family="sans-serif" font-size="14" font-weight="bold" lengthAdjust="spacing" textLength="5" x="35" y="181.8857"> </text><text fill="#000000" font-family="sans-serif" font-size="14" font-weight="bold" lengthAdjust="spacing" textLength="28" x="52" y="181.8857">line</text><text fill="#000000" filter="url(#b1de21j451i5mt0)" font-family="sans-serif" font-size="14" lengthAdjust="spacing" textLength="12" x="35" y="198.1826">   </text><text fill="#000000" font-family="sans-serif" font-size="14" lengthAdjust="spacing" textLength="77" x="51" y="198.1826">inheritance</text><text fill="#000000" filter="url(#b1de21j451i5mt1)" font-family="sans-serif" font-size="14" lengthAdjust="spacing" textLength="12" x="35" y="214.4795">   </text><text fill="#000000" font-family="sans-serif" font-size="14" lengthAdjust="spacing" textLength="129" x="51" y="214.4795">property reference</text><text fill="#000000" filter="url(#b1de21j451i5mt2)" font-family="sans-serif" font-size="14" lengthAdjust="spacing" textLength="12" x="35" y="230.7764">   </text><text fill="#000000" font-family="sans-serif" font-size="14" lengthAdjust="spacing" textLength="131" x="51" y="230.7764">discriminated class</text><line style="stroke:#000000;stroke-width:1.0;" x1="35" x2="186" y1="168.8906" y2="168.8906"/><line style="stroke:#000000;stroke-width:1.0;" x1="35" x2="186" y1="185.1875" y2="185.1875"/><line style="stroke:#000000;stroke-width:1.0;" x1="35" x2="186" y1="201.4844" y2="201.4844"/><line style="stroke:#000000;stroke-width:1.0;" x1="35" x2="186" y1="217.7813" y2="217.7813"/><line style="stroke:#000000;stroke-width:1.0;" x1="35" x2="186" y1="234.0781" y2="234.0781"/><line style="stroke:#000000;stroke-width:1.0;" x1="35" x2="35" y1="168.8906" y2="234.0781"/><line style="stroke:#000000;stroke-width:1.0;" x1="47" x2="47" y1="168.8906" y2="234.0781"/><line style="stroke:#000000;stroke-width:1.0;" x1="186" x2="186" y1="168.8906" y2="234.0781"/><!--MD5=[786747177624311457c8148af60c3f08]
@startuml
!pragma layout elk
hide empty fields
hide empty methods
legend
|= |= line |
|<back:black>   </back>| inheritance |
|<back:green>   </back>| property reference |
|<back:blue>   </back>| discriminated class |
endlegend
interface GraphQLRequiredFieldError [[GraphQLRequiredFieldError.svg]] extends GraphQLErrorObject {
    code: String
    field: String
}
interface GraphQLErrorObject [[GraphQLErrorObject.svg]]  {
    code: String
}





@enduml

PlantUML version 1.2022.13(Sat Nov 19 13:22:17 UTC 2022)
(GPL source distribution)
Java Runtime: OpenJDK Runtime Environment
JVM: OpenJDK 64-Bit Server VM
Default Encoding: UTF-8
Language: en
Country: null
--></g></svg>
