<?xml version="1.0" encoding="UTF-8" standalone="no"?><svg xmlns="http://www.w3.org/2000/svg" xmlns:xlink="http://www.w3.org/1999/xlink" contentStyleType="text/css" height="244px" preserveAspectRatio="none" style="width:225px;height:244px;background:#FFFFFF;" version="1.1" viewBox="0 0 225 244" width="225px" zoomAndPan="magnify"><defs><filter height="1" id="bkbnbe2tib1gh0" width="1" x="0" y="0"><feFlood flood-color="#000000" result="flood"/><feComposite in="SourceGraphic" in2="flood" operator="over"/></filter><filter height="1" id="bkbnbe2tib1gh1" width="1" x="0" y="0"><feFlood flood-color="#008000" result="flood"/><feComposite in="SourceGraphic" in2="flood" operator="over"/></filter><filter height="1" id="bkbnbe2tib1gh2" width="1" x="0" y="0"><feFlood flood-color="#0000FF" result="flood"/><feComposite in="SourceGraphic" in2="flood" operator="over"/></filter></defs><g><!--MD5=[1bf1d0d106ba25b4e1f64a0984dc4d45]
class GraphQLSyntaxErrorError--><a href="GraphQLSyntaxErrorError.svg" target="_top" title="GraphQLSyntaxErrorError.svg" xlink:actuate="onRequest" xlink:href="GraphQLSyntaxErrorError.svg" xlink:show="new" xlink:title="GraphQLSyntaxErrorError.svg" xlink:type="simple"><g id="elem_GraphQLSyntaxErrorError"><rect codeLine="10" fill="#F1F1F1" height="56.2969" id="GraphQLSyntaxErrorError" rx="2.5" ry="2.5" style="stroke:#181818;stroke-width:0.5;" width="206" x="12" y="88.2969"/><ellipse cx="27" cy="104.2969" fill="#B4A7E5" rx="11" ry="11" style="stroke:#181818;stroke-width:1.0;"/><path d="M22.9219,100.0625 L22.9219,97.9063 L30.3125,97.9063 L30.3125,100.0625 L27.8438,100.0625 L27.8438,108.1406 L30.3125,108.1406 L30.3125,110.2969 L22.9219,110.2969 L22.9219,108.1406 L25.3906,108.1406 L25.3906,100.0625 L22.9219,100.0625 Z " fill="#000000"/><text fill="#000000" font-family="sans-serif" font-size="14" font-style="italic" lengthAdjust="spacing" textLength="174" x="41" y="109.1436">GraphQLSyntaxErrorError</text><line style="stroke:#181818;stroke-width:0.5;" x1="13" x2="217" y1="120.2969" y2="120.2969"/><text fill="#000000" font-family="sans-serif" font-size="14" lengthAdjust="spacing" textLength="84" x="18" y="137.292">code: String</text></g></a><!--MD5=[6eb1c551f376181fb90bf06b356d1863]
class GraphQLErrorObject--><a href="GraphQLErrorObject.svg" target="_top" title="GraphQLErrorObject.svg" xlink:actuate="onRequest" xlink:href="GraphQLErrorObject.svg" xlink:show="new" xlink:title="GraphQLErrorObject.svg" xlink:type="simple"><g id="elem_GraphQLErrorObject"><rect codeLine="13" fill="#F1F1F1" height="56.2969" id="GraphQLErrorObject" rx="2.5" ry="2.5" style="stroke:#181818;stroke-width:0.5;" width="171" x="29.5" y="12"/><ellipse cx="44.5" cy="28" fill="#B4A7E5" rx="11" ry="11" style="stroke:#181818;stroke-width:1.0;"/><path d="M40.4219,23.7656 L40.4219,21.6094 L47.8125,21.6094 L47.8125,23.7656 L45.3438,23.7656 L45.3438,31.8438 L47.8125,31.8438 L47.8125,34 L40.4219,34 L40.4219,31.8438 L42.8906,31.8438 L42.8906,23.7656 L40.4219,23.7656 Z " fill="#000000"/><text fill="#000000" font-family="sans-serif" font-size="14" font-style="italic" lengthAdjust="spacing" textLength="139" x="58.5" y="32.8467">GraphQLErrorObject</text><line style="stroke:#181818;stroke-width:0.5;" x1="30.5" x2="199.5" y1="44" y2="44"/><text fill="#000000" font-family="sans-serif" font-size="14" lengthAdjust="spacing" textLength="84" x="35.5" y="60.9951">code: String</text></g></a><line style="stroke:#181818;stroke-width:1.0;" x1="115" x2="115" y1="68.2969" y2="88.2969"/><polygon fill="#FFFFFF" points="115,68.2969,108,87.2969,122,87.2969,115,68.2969" style="stroke:#181818;stroke-width:1.0;"/><rect fill="#DDDDDD" height="79.1875" id="_legend" rx="7.5" ry="7.5" style="stroke:#000000;stroke-width:1.0;" width="161" x="22.5" y="145.5938"/><text fill="#000000" font-family="sans-serif" font-size="14" font-weight="bold" lengthAdjust="spacing" textLength="5" x="27.5" y="165.5889"> </text><text fill="#000000" font-family="sans-serif" font-size="14" font-weight="bold" lengthAdjust="spacing" textLength="28" x="44.5" y="165.5889">line</text><text fill="#000000" filter="url(#bkbnbe2tib1gh0)" font-family="sans-serif" font-size="14" lengthAdjust="spacing" textLength="12" x="27.5" y="181.8857">   </text><text fill="#000000" font-family="sans-serif" font-size="14" lengthAdjust="spacing" textLength="77" x="43.5" y="181.8857">inheritance</text><text fill="#000000" filter="url(#bkbnbe2tib1gh1)" font-family="sans-serif" font-size="14" lengthAdjust="spacing" textLength="12" x="27.5" y="198.1826">   </text><text fill="#000000" font-family="sans-serif" font-size="14" lengthAdjust="spacing" textLength="129" x="43.5" y="198.1826">property reference</text><text fill="#000000" filter="url(#bkbnbe2tib1gh2)" font-family="sans-serif" font-size="14" lengthAdjust="spacing" textLength="12" x="27.5" y="214.4795">   </text><text fill="#000000" font-family="sans-serif" font-size="14" lengthAdjust="spacing" textLength="131" x="43.5" y="214.4795">discriminated class</text><line style="stroke:#000000;stroke-width:1.0;" x1="27.5" x2="178.5" y1="152.5938" y2="152.5938"/><line style="stroke:#000000;stroke-width:1.0;" x1="27.5" x2="178.5" y1="168.8906" y2="168.8906"/><line style="stroke:#000000;stroke-width:1.0;" x1="27.5" x2="178.5" y1="185.1875" y2="185.1875"/><line style="stroke:#000000;stroke-width:1.0;" x1="27.5" x2="178.5" y1="201.4844" y2="201.4844"/><line style="stroke:#000000;stroke-width:1.0;" x1="27.5" x2="178.5" y1="217.7813" y2="217.7813"/><line style="stroke:#000000;stroke-width:1.0;" x1="27.5" x2="27.5" y1="152.5938" y2="217.7813"/><line style="stroke:#000000;stroke-width:1.0;" x1="39.5" x2="39.5" y1="152.5938" y2="217.7813"/><line style="stroke:#000000;stroke-width:1.0;" x1="178.5" x2="178.5" y1="152.5938" y2="217.7813"/><!--MD5=[1b2522d4650d3e2579d3bcf863940cae]
@startuml
!pragma layout elk
hide empty fields
hide empty methods
legend
|= |= line |
|<back:black>   </back>| inheritance |
|<back:green>   </back>| property reference |
|<back:blue>   </back>| discriminated class |
endlegend
interface GraphQLSyntaxErrorError [[GraphQLSyntaxErrorError.svg]] extends GraphQLErrorObject {
    code: String
}
interface GraphQLErrorObject [[GraphQLErrorObject.svg]]  {
    code: String
}





@enduml

PlantUML version 1.2022.13(Sat Nov 19 13:22:17 UTC 2022)
(GPL source distribution)
Java Runtime: OpenJDK Runtime Environment
JVM: OpenJDK 64-Bit Server VM
Default Encoding: UTF-8
Language: en
Country: null
--></g></svg>
