<?xml version="1.0" encoding="UTF-8" standalone="no"?><svg xmlns="http://www.w3.org/2000/svg" xmlns:xlink="http://www.w3.org/1999/xlink" contentStyleType="text/css" height="322px" preserveAspectRatio="none" style="width:902px;height:322px;background:#FFFFFF;" version="1.1" viewBox="0 0 902 322" width="902px" zoomAndPan="magnify"><defs><filter height="1" id="b11bfrkdqk9gg00" width="1" x="0" y="0"><feFlood flood-color="#000000" result="flood"/><feComposite in="SourceGraphic" in2="flood" operator="over"/></filter><filter height="1" id="b11bfrkdqk9gg01" width="1" x="0" y="0"><feFlood flood-color="#008000" result="flood"/><feComposite in="SourceGraphic" in2="flood" operator="over"/></filter><filter height="1" id="b11bfrkdqk9gg02" width="1" x="0" y="0"><feFlood flood-color="#0000FF" result="flood"/><feComposite in="SourceGraphic" in2="flood" operator="over"/></filter></defs><g><!--MD5=[1e215a0b413fb5b679055aa8e5d2fc08]
class HttpDestinationAuthentication--><a href="HttpDestinationAuthentication.svg" target="_top" title="HttpDestinationAuthentication.svg" xlink:actuate="onRequest" xlink:href="HttpDestinationAuthentication.svg" xlink:show="new" xlink:title="HttpDestinationAuthentication.svg" xlink:type="simple"><g id="elem_HttpDestinationAuthentication"><rect codeLine="10" fill="#F1F1F1" height="56.2969" id="HttpDestinationAuthentication" rx="2.5" ry="2.5" style="stroke:#181818;stroke-width:0.5;" width="241" x="115.75" y="12"/><ellipse cx="130.75" cy="28" fill="#B4A7E5" rx="11" ry="11" style="stroke:#181818;stroke-width:1.0;"/><path d="M126.6719,23.7656 L126.6719,21.6094 L134.0625,21.6094 L134.0625,23.7656 L131.5938,23.7656 L131.5938,31.8438 L134.0625,31.8438 L134.0625,34 L126.6719,34 L126.6719,31.8438 L129.1406,31.8438 L129.1406,23.7656 L126.6719,23.7656 Z " fill="#000000"/><text fill="#000000" font-family="sans-serif" font-size="14" font-style="italic" lengthAdjust="spacing" textLength="209" x="144.75" y="32.8467">HttpDestinationAuthentication</text><line style="stroke:#181818;stroke-width:0.5;" x1="116.75" x2="355.75" y1="44" y2="44"/><text fill="#000000" font-family="sans-serif" font-size="14" lengthAdjust="spacing" textLength="79" x="121.75" y="60.9951">type: String</text></g></a><!--MD5=[3b3a52e928dd8601a481411f4075f5a0]
class AuthorizationHeaderAuthentication--><a href="AuthorizationHeaderAuthentication.svg" target="_top" title="AuthorizationHeaderAuthentication.svg" xlink:actuate="onRequest" xlink:href="AuthorizationHeaderAuthentication.svg" xlink:show="new" xlink:title="AuthorizationHeaderAuthentication.svg" xlink:type="simple"><g id="elem_AuthorizationHeaderAuthentication"><rect codeLine="15" fill="#F1F1F1" height="72.5938" id="AuthorizationHeaderAuthentication" rx="2.5" ry="2.5" style="stroke:#181818;stroke-width:0.5;" width="275" x="360" y="133.4297"/><ellipse cx="375" cy="149.4297" fill="#B4A7E5" rx="11" ry="11" style="stroke:#181818;stroke-width:1.0;"/><path d="M370.9219,145.1953 L370.9219,143.0391 L378.3125,143.0391 L378.3125,145.1953 L375.8438,145.1953 L375.8438,153.2734 L378.3125,153.2734 L378.3125,155.4297 L370.9219,155.4297 L370.9219,153.2734 L373.3906,153.2734 L373.3906,145.1953 L370.9219,145.1953 Z " fill="#000000"/><text fill="#000000" font-family="sans-serif" font-size="14" font-style="italic" lengthAdjust="spacing" textLength="243" x="389" y="154.2764">AuthorizationHeaderAuthentication</text><line style="stroke:#181818;stroke-width:0.5;" x1="361" x2="634" y1="165.4297" y2="165.4297"/><text fill="#000000" font-family="sans-serif" font-size="14" lengthAdjust="spacing" textLength="79" x="366" y="182.4248">type: String</text><text fill="#000000" font-family="sans-serif" font-size="14" lengthAdjust="spacing" textLength="136" x="366" y="198.7217">headerValue: String</text></g></a><!--MD5=[96160fe8f4a337eac05e1721be948c9e]
class AzureFunctionsAuthentication--><a href="AzureFunctionsAuthentication.svg" target="_top" title="AzureFunctionsAuthentication.svg" xlink:actuate="onRequest" xlink:href="AzureFunctionsAuthentication.svg" xlink:show="new" xlink:title="AzureFunctionsAuthentication.svg" xlink:type="simple"><g id="elem_AzureFunctionsAuthentication"><rect codeLine="19" fill="#F1F1F1" height="72.5938" id="AzureFunctionsAuthentication" rx="2.5" ry="2.5" style="stroke:#181818;stroke-width:0.5;" width="240" x="655" y="133.4297"/><ellipse cx="670" cy="149.4297" fill="#B4A7E5" rx="11" ry="11" style="stroke:#181818;stroke-width:1.0;"/><path d="M665.9219,145.1953 L665.9219,143.0391 L673.3125,143.0391 L673.3125,145.1953 L670.8438,145.1953 L670.8438,153.2734 L673.3125,153.2734 L673.3125,155.4297 L665.9219,155.4297 L665.9219,153.2734 L668.3906,153.2734 L668.3906,145.1953 L665.9219,145.1953 Z " fill="#000000"/><text fill="#000000" font-family="sans-serif" font-size="14" font-style="italic" lengthAdjust="spacing" textLength="208" x="684" y="154.2764">AzureFunctionsAuthentication</text><line style="stroke:#181818;stroke-width:0.5;" x1="656" x2="894" y1="165.4297" y2="165.4297"/><text fill="#000000" font-family="sans-serif" font-size="14" lengthAdjust="spacing" textLength="79" x="661" y="182.4248">type: String</text><text fill="#000000" font-family="sans-serif" font-size="14" lengthAdjust="spacing" textLength="73" x="661" y="198.7217">key: String</text></g></a><!--MD5=[98f06ced91f491d921b8a1d4fbcce7d8]
class HttpDestination--><a href="HttpDestination.svg" target="_top" title="HttpDestination.svg" xlink:actuate="onRequest" xlink:href="HttpDestination.svg" xlink:show="new" xlink:title="HttpDestination.svg" xlink:type="simple"><g id="elem_HttpDestination"><rect codeLine="23" fill="#F1F1F1" height="88.8906" id="HttpDestination" rx="2.5" ry="2.5" style="stroke:#181818;stroke-width:0.5;" width="328" x="12" y="133.4297"/><ellipse cx="117.75" cy="149.4297" fill="#B4A7E5" rx="11" ry="11" style="stroke:#181818;stroke-width:1.0;"/><path d="M113.6719,145.1953 L113.6719,143.0391 L121.0625,143.0391 L121.0625,145.1953 L118.5938,145.1953 L118.5938,153.2734 L121.0625,153.2734 L121.0625,155.4297 L113.6719,155.4297 L113.6719,153.2734 L116.1406,153.2734 L116.1406,145.1953 L113.6719,145.1953 Z " fill="#000000"/><text fill="#000000" font-family="sans-serif" font-size="14" font-style="italic" lengthAdjust="spacing" textLength="108" x="138.25" y="154.2764">HttpDestination</text><line style="stroke:#181818;stroke-width:0.5;" x1="13" x2="339" y1="165.4297" y2="165.4297"/><text fill="#000000" font-family="sans-serif" font-size="14" lengthAdjust="spacing" textLength="79" x="18" y="182.4248">type: String</text><text fill="#000000" font-family="sans-serif" font-size="14" lengthAdjust="spacing" textLength="66" x="18" y="198.7217">url: String</text><text fill="#000000" font-family="sans-serif" font-size="14" lengthAdjust="spacing" textLength="104" x="18" y="215.0186">authentication:</text><a href="HttpDestinationAuthentication.svg" target="_top" title="HttpDestinationAuthentication.svg" xlink:actuate="onRequest" xlink:href="HttpDestinationAuthentication.svg" xlink:show="new" xlink:title="HttpDestinationAuthentication.svg" xlink:type="simple"><text fill="#0000FF" font-family="sans-serif" font-size="14" lengthAdjust="spacing" text-decoration="underline" textLength="208" x="126" y="215.0186">HttpDestinationAuthentication</text></a></g></a><line style="stroke:#0000FF;stroke-width:1.0;" x1="236.25" x2="236.25" y1="68.2969" y2="88.2969"/><line style="stroke:#0000FF;stroke-width:1.0;" x1="236.25" x2="497.5" y1="88.2969" y2="88.2969"/><line style="stroke:#0000FF;stroke-width:1.0;" x1="497.5" x2="497.5" y1="88.2969" y2="133.4297"/><polygon fill="#0000FF" points="497.5,133.4297,501.5,124.4297,497.5,128.4297,493.5,124.4297,497.5,133.4297" style="stroke:#0000FF;stroke-width:1.0;"/><text fill="#000000" font-family="sans-serif" font-size="13" lengthAdjust="spacing" textLength="172" x="323.5" y="110.3638">type : AuthorizationHeader</text><line style="stroke:#0000FF;stroke-width:1.0;" x1="296.5" x2="296.5" y1="68.2969" y2="78.2969"/><line style="stroke:#0000FF;stroke-width:1.0;" x1="296.5" x2="775" y1="78.2969" y2="78.2969"/><line style="stroke:#0000FF;stroke-width:1.0;" x1="775" x2="775" y1="78.2969" y2="133.4297"/><polygon fill="#0000FF" points="775,133.4297,779,124.4297,775,128.4297,771,124.4297,775,133.4297" style="stroke:#0000FF;stroke-width:1.0;"/><text fill="#000000" font-family="sans-serif" font-size="13" lengthAdjust="spacing" textLength="138" x="635" y="110.3638">type : AzureFunctions</text><line style="stroke:#008000;stroke-width:1.0;" x1="176" x2="176" y1="68.2969" y2="133.4297"/><polygon fill="#008000" points="176,133.4297,180,124.4297,176,128.4297,172,124.4297,176,133.4297" style="stroke:#008000;stroke-width:1.0;"/><text fill="#000000" font-family="sans-serif" font-size="13" lengthAdjust="spacing" textLength="92" x="82" y="110.3638">authentication</text><rect fill="#DDDDDD" height="79.1875" id="_legend" rx="7.5" ry="7.5" style="stroke:#000000;stroke-width:1.0;" width="161" x="361" y="223.3203"/><text fill="#000000" font-family="sans-serif" font-size="14" font-weight="bold" lengthAdjust="spacing" textLength="5" x="366" y="243.3154"> </text><text fill="#000000" font-family="sans-serif" font-size="14" font-weight="bold" lengthAdjust="spacing" textLength="28" x="383" y="243.3154">line</text><text fill="#000000" filter="url(#b11bfrkdqk9gg00)" font-family="sans-serif" font-size="14" lengthAdjust="spacing" textLength="12" x="366" y="259.6123">   </text><text fill="#000000" font-family="sans-serif" font-size="14" lengthAdjust="spacing" textLength="77" x="382" y="259.6123">inheritance</text><text fill="#000000" filter="url(#b11bfrkdqk9gg01)" font-family="sans-serif" font-size="14" lengthAdjust="spacing" textLength="12" x="366" y="275.9092">   </text><text fill="#000000" font-family="sans-serif" font-size="14" lengthAdjust="spacing" textLength="129" x="382" y="275.9092">property reference</text><text fill="#000000" filter="url(#b11bfrkdqk9gg02)" font-family="sans-serif" font-size="14" lengthAdjust="spacing" textLength="12" x="366" y="292.2061">   </text><text fill="#000000" font-family="sans-serif" font-size="14" lengthAdjust="spacing" textLength="131" x="382" y="292.2061">discriminated class</text><line style="stroke:#000000;stroke-width:1.0;" x1="366" x2="517" y1="230.3203" y2="230.3203"/><line style="stroke:#000000;stroke-width:1.0;" x1="366" x2="517" y1="246.6172" y2="246.6172"/><line style="stroke:#000000;stroke-width:1.0;" x1="366" x2="517" y1="262.9141" y2="262.9141"/><line style="stroke:#000000;stroke-width:1.0;" x1="366" x2="517" y1="279.2109" y2="279.2109"/><line style="stroke:#000000;stroke-width:1.0;" x1="366" x2="517" y1="295.5078" y2="295.5078"/><line style="stroke:#000000;stroke-width:1.0;" x1="366" x2="366" y1="230.3203" y2="295.5078"/><line style="stroke:#000000;stroke-width:1.0;" x1="378" x2="378" y1="230.3203" y2="295.5078"/><line style="stroke:#000000;stroke-width:1.0;" x1="517" x2="517" y1="230.3203" y2="295.5078"/><!--MD5=[e11e6aa62b3e41d6678e38681c007996]
@startuml
!pragma layout elk
hide empty fields
hide empty methods
legend
|= |= line |
|<back:black>   </back>| inheritance |
|<back:green>   </back>| property reference |
|<back:blue>   </back>| discriminated class |
endlegend
interface HttpDestinationAuthentication [[HttpDestinationAuthentication.svg]]  {
    type: String
}


interface AuthorizationHeaderAuthentication [[AuthorizationHeaderAuthentication.svg]]  {
    type: String
    headerValue: String
}
interface AzureFunctionsAuthentication [[AzureFunctionsAuthentication.svg]]  {
    type: String
    key: String
}
interface HttpDestination [[HttpDestination.svg]]  {
    type: String
    url: String
    authentication: [[HttpDestinationAuthentication.svg HttpDestinationAuthentication]]
}
HttpDestinationAuthentication - -> AuthorizationHeaderAuthentication #blue;text:blue : "type : AuthorizationHeader"
HttpDestinationAuthentication - -> AzureFunctionsAuthentication #blue;text:blue : "type : AzureFunctions"
HttpDestinationAuthentication - -> HttpDestination #green;text:green : "authentication"
@enduml

PlantUML version 1.2022.13(Sat Nov 19 13:22:17 UTC 2022)
(GPL source distribution)
Java Runtime: OpenJDK Runtime Environment
JVM: OpenJDK 64-Bit Server VM
Default Encoding: UTF-8
Language: en
Country: null
--></g></svg>
