<?xml version="1.0" encoding="UTF-8" standalone="no"?><svg xmlns="http://www.w3.org/2000/svg" xmlns:xlink="http://www.w3.org/1999/xlink" contentStyleType="text/css" height="277px" preserveAspectRatio="none" style="width:284px;height:277px;background:#FFFFFF;" version="1.1" viewBox="0 0 284 277" width="284px" zoomAndPan="magnify"><defs><filter height="1" id="b1pc3m4k0xhp9s0" width="1" x="0" y="0"><feFlood flood-color="#000000" result="flood"/><feComposite in="SourceGraphic" in2="flood" operator="over"/></filter><filter height="1" id="b1pc3m4k0xhp9s1" width="1" x="0" y="0"><feFlood flood-color="#008000" result="flood"/><feComposite in="SourceGraphic" in2="flood" operator="over"/></filter><filter height="1" id="b1pc3m4k0xhp9s2" width="1" x="0" y="0"><feFlood flood-color="#0000FF" result="flood"/><feComposite in="SourceGraphic" in2="flood" operator="over"/></filter></defs><g><!--MD5=[80a7b43b277d6d65cef2dc5fa0aedbba]
class ImageProcessingOngoingWarning--><a href="ImageProcessingOngoingWarning.svg" target="_top" title="ImageProcessingOngoingWarning.svg" xlink:actuate="onRequest" xlink:href="ImageProcessingOngoingWarning.svg" xlink:show="new" xlink:title="ImageProcessingOngoingWarning.svg" xlink:type="simple"><g id="elem_ImageProcessingOngoingWarning"><rect codeLine="10" fill="#F1F1F1" height="72.5938" id="ImageProcessingOngoingWarning" rx="2.5" ry="2.5" style="stroke:#181818;stroke-width:0.5;" width="265" x="12" y="104.5938"/><ellipse cx="27" cy="120.5938" fill="#B4A7E5" rx="11" ry="11" style="stroke:#181818;stroke-width:1.0;"/><path d="M22.9219,116.3594 L22.9219,114.2031 L30.3125,114.2031 L30.3125,116.3594 L27.8438,116.3594 L27.8438,124.4375 L30.3125,124.4375 L30.3125,126.5938 L22.9219,126.5938 L22.9219,124.4375 L25.3906,124.4375 L25.3906,116.3594 L22.9219,116.3594 Z " fill="#000000"/><text fill="#000000" font-family="sans-serif" font-size="14" font-style="italic" lengthAdjust="spacing" textLength="233" x="41" y="125.4404">ImageProcessingOngoingWarning</text><line style="stroke:#181818;stroke-width:0.5;" x1="13" x2="276" y1="136.5938" y2="136.5938"/><text fill="#000000" font-family="sans-serif" font-size="14" lengthAdjust="spacing" textLength="84" x="18" y="153.5889">code: String</text><text fill="#000000" font-family="sans-serif" font-size="14" lengthAdjust="spacing" textLength="113" x="18" y="169.8857">message: String</text></g></a><!--MD5=[a2d4c2d4145e75a6cc1142c130484019]
class WarningObject--><a href="WarningObject.svg" target="_top" title="WarningObject.svg" xlink:actuate="onRequest" xlink:href="WarningObject.svg" xlink:show="new" xlink:title="WarningObject.svg" xlink:type="simple"><g id="elem_WarningObject"><rect codeLine="14" fill="#F1F1F1" height="72.5938" id="WarningObject" rx="2.5" ry="2.5" style="stroke:#181818;stroke-width:0.5;" width="134" x="77.5" y="12"/><ellipse cx="92.5" cy="28" fill="#B4A7E5" rx="11" ry="11" style="stroke:#181818;stroke-width:1.0;"/><path d="M88.4219,23.7656 L88.4219,21.6094 L95.8125,21.6094 L95.8125,23.7656 L93.3438,23.7656 L93.3438,31.8438 L95.8125,31.8438 L95.8125,34 L88.4219,34 L88.4219,31.8438 L90.8906,31.8438 L90.8906,23.7656 L88.4219,23.7656 Z " fill="#000000"/><text fill="#000000" font-family="sans-serif" font-size="14" font-style="italic" lengthAdjust="spacing" textLength="102" x="106.5" y="32.8467">WarningObject</text><line style="stroke:#181818;stroke-width:0.5;" x1="78.5" x2="210.5" y1="44" y2="44"/><text fill="#000000" font-family="sans-serif" font-size="14" lengthAdjust="spacing" textLength="84" x="83.5" y="60.9951">code: String</text><text fill="#000000" font-family="sans-serif" font-size="14" lengthAdjust="spacing" textLength="113" x="83.5" y="77.292">message: String</text></g></a><line style="stroke:#181818;stroke-width:1.0;" x1="144.5" x2="144.5" y1="84.5938" y2="104.5938"/><polygon fill="#FFFFFF" points="144.5,84.5938,137.5,103.5938,151.5,103.5938,144.5,84.5938" style="stroke:#181818;stroke-width:1.0;"/><rect fill="#DDDDDD" height="79.1875" id="_legend" rx="7.5" ry="7.5" style="stroke:#000000;stroke-width:1.0;" width="161" x="52" y="178.1875"/><text fill="#000000" font-family="sans-serif" font-size="14" font-weight="bold" lengthAdjust="spacing" textLength="5" x="57" y="198.1826"> </text><text fill="#000000" font-family="sans-serif" font-size="14" font-weight="bold" lengthAdjust="spacing" textLength="28" x="74" y="198.1826">line</text><text fill="#000000" filter="url(#b1pc3m4k0xhp9s0)" font-family="sans-serif" font-size="14" lengthAdjust="spacing" textLength="12" x="57" y="214.4795">   </text><text fill="#000000" font-family="sans-serif" font-size="14" lengthAdjust="spacing" textLength="77" x="73" y="214.4795">inheritance</text><text fill="#000000" filter="url(#b1pc3m4k0xhp9s1)" font-family="sans-serif" font-size="14" lengthAdjust="spacing" textLength="12" x="57" y="230.7764">   </text><text fill="#000000" font-family="sans-serif" font-size="14" lengthAdjust="spacing" textLength="129" x="73" y="230.7764">property reference</text><text fill="#000000" filter="url(#b1pc3m4k0xhp9s2)" font-family="sans-serif" font-size="14" lengthAdjust="spacing" textLength="12" x="57" y="247.0732">   </text><text fill="#000000" font-family="sans-serif" font-size="14" lengthAdjust="spacing" textLength="131" x="73" y="247.0732">discriminated class</text><line style="stroke:#000000;stroke-width:1.0;" x1="57" x2="208" y1="185.1875" y2="185.1875"/><line style="stroke:#000000;stroke-width:1.0;" x1="57" x2="208" y1="201.4844" y2="201.4844"/><line style="stroke:#000000;stroke-width:1.0;" x1="57" x2="208" y1="217.7813" y2="217.7813"/><line style="stroke:#000000;stroke-width:1.0;" x1="57" x2="208" y1="234.0781" y2="234.0781"/><line style="stroke:#000000;stroke-width:1.0;" x1="57" x2="208" y1="250.375" y2="250.375"/><line style="stroke:#000000;stroke-width:1.0;" x1="57" x2="57" y1="185.1875" y2="250.375"/><line style="stroke:#000000;stroke-width:1.0;" x1="69" x2="69" y1="185.1875" y2="250.375"/><line style="stroke:#000000;stroke-width:1.0;" x1="208" x2="208" y1="185.1875" y2="250.375"/><!--MD5=[13da2449c5da8559f523540dbea6bfe7]
@startuml
!pragma layout elk
hide empty fields
hide empty methods
legend
|= |= line |
|<back:black>   </back>| inheritance |
|<back:green>   </back>| property reference |
|<back:blue>   </back>| discriminated class |
endlegend
interface ImageProcessingOngoingWarning [[ImageProcessingOngoingWarning.svg]] extends WarningObject {
    code: String
    message: String
}
interface WarningObject [[WarningObject.svg]]  {
    code: String
    message: String
}





@enduml

PlantUML version 1.2022.13(Sat Nov 19 13:22:17 UTC 2022)
(GPL source distribution)
Java Runtime: OpenJDK Runtime Environment
JVM: OpenJDK 64-Bit Server VM
Default Encoding: UTF-8
Language: en
Country: null
--></g></svg>
