<?xml version="1.0" encoding="UTF-8" standalone="no"?><svg xmlns="http://www.w3.org/2000/svg" xmlns:xlink="http://www.w3.org/1999/xlink" contentStyleType="text/css" height="251px" preserveAspectRatio="none" style="width:404px;height:251px;background:#FFFFFF;" version="1.1" viewBox="0 0 404 251" width="404px" zoomAndPan="magnify"><defs/><g><!--MD5=[82bcbef4e173c772004e44e63aa466b5]
class IntervalUnit--><g id="elem_IntervalUnit"><rect codeLine="3" fill="#F1F1F1" height="88.8906" id="IntervalUnit" rx="2.5" ry="2.5" style="stroke:#181818;stroke-width:0.5;" width="108" x="62.5" y="12"/><ellipse cx="77.5" cy="28" fill="#EB937F" rx="11" ry="11" style="stroke:#181818;stroke-width:1.0;"/><path d="M81.6094,34 L73.8906,34 L73.8906,21.6094 L81.6094,21.6094 L81.6094,23.7656 L76.3438,23.7656 L76.3438,26.4375 L81.1094,26.4375 L81.1094,28.5938 L76.3438,28.5938 L76.3438,31.8438 L81.6094,31.8438 L81.6094,34 Z " fill="#000000"/><text fill="#000000" font-family="sans-serif" font-size="14" lengthAdjust="spacing" textLength="76" x="91.5" y="32.8467">IntervalUnit</text><line style="stroke:#181818;stroke-width:0.5;" x1="63.5" x2="169.5" y1="44" y2="44"/><text fill="#000000" font-family="sans-serif" font-size="14" lengthAdjust="spacing" textLength="38" x="68.5" y="60.9951">DAYS</text><text fill="#000000" font-family="sans-serif" font-size="14" lengthAdjust="spacing" textLength="49" x="68.5" y="77.292">WEEKS</text><text fill="#000000" font-family="sans-serif" font-size="14" lengthAdjust="spacing" textLength="61" x="68.5" y="93.5889">MONTHS</text></g><!--MD5=[39e56740d389c27a190b169af76b3300]
class StandardSchedule--><a href="StandardSchedule.svg" target="_top" title="StandardSchedule.svg" xlink:actuate="onRequest" xlink:href="StandardSchedule.svg" xlink:show="new" xlink:title="StandardSchedule.svg" xlink:type="simple"><g id="elem_StandardSchedule"><rect codeLine="8" fill="#F1F1F1" height="88.8906" id="StandardSchedule" rx="2.5" ry="2.5" style="stroke:#181818;stroke-width:0.5;" width="173" x="12" y="156.0234"/><ellipse cx="33.3" cy="172.0234" fill="#B4A7E5" rx="11" ry="11" style="stroke:#181818;stroke-width:1.0;"/><path d="M29.2219,167.7891 L29.2219,165.6328 L36.6125,165.6328 L36.6125,167.7891 L34.1438,167.7891 L34.1438,175.8672 L36.6125,175.8672 L36.6125,178.0234 L29.2219,178.0234 L29.2219,175.8672 L31.6906,175.8672 L31.6906,167.7891 L29.2219,167.7891 Z " fill="#000000"/><text fill="#000000" font-family="sans-serif" font-size="14" font-style="italic" lengthAdjust="spacing" textLength="127" x="48.7" y="176.8701">StandardSchedule</text><line style="stroke:#181818;stroke-width:0.5;" x1="13" x2="184" y1="188.0234" y2="188.0234"/><text fill="#000000" font-family="sans-serif" font-size="14" lengthAdjust="spacing" textLength="79" x="18" y="205.0186">type: String</text><text fill="#000000" font-family="sans-serif" font-size="14" lengthAdjust="spacing" textLength="79" x="18" y="221.3154">value: Long</text><text fill="#000000" font-family="sans-serif" font-size="14" lengthAdjust="spacing" textLength="81" x="18" y="237.6123">intervalUnit:</text><a href="IntervalUnit.svg" target="_top" title="IntervalUnit.svg" xlink:actuate="onRequest" xlink:href="IntervalUnit.svg" xlink:show="new" xlink:title="IntervalUnit.svg" xlink:type="simple"><text fill="#0000FF" font-family="sans-serif" font-size="14" lengthAdjust="spacing" text-decoration="underline" textLength="76" x="103" y="237.6123">IntervalUnit</text></a></g></a><!--MD5=[8c6d5bccf33bac9b26e2b3e0e199a923]
class StandardScheduleDraft--><a href="StandardScheduleDraft.svg" target="_top" title="StandardScheduleDraft.svg" xlink:actuate="onRequest" xlink:href="StandardScheduleDraft.svg" xlink:show="new" xlink:title="StandardScheduleDraft.svg" xlink:type="simple"><g id="elem_StandardScheduleDraft"><rect codeLine="13" fill="#F1F1F1" height="88.8906" id="StandardScheduleDraft" rx="2.5" ry="2.5" style="stroke:#181818;stroke-width:0.5;" width="192" x="205" y="156.0234"/><ellipse cx="220" cy="172.0234" fill="#B4A7E5" rx="11" ry="11" style="stroke:#181818;stroke-width:1.0;"/><path d="M215.9219,167.7891 L215.9219,165.6328 L223.3125,165.6328 L223.3125,167.7891 L220.8438,167.7891 L220.8438,175.8672 L223.3125,175.8672 L223.3125,178.0234 L215.9219,178.0234 L215.9219,175.8672 L218.3906,175.8672 L218.3906,167.7891 L215.9219,167.7891 Z " fill="#000000"/><text fill="#000000" font-family="sans-serif" font-size="14" font-style="italic" lengthAdjust="spacing" textLength="160" x="234" y="176.8701">StandardScheduleDraft</text><line style="stroke:#181818;stroke-width:0.5;" x1="206" x2="396" y1="188.0234" y2="188.0234"/><text fill="#000000" font-family="sans-serif" font-size="14" lengthAdjust="spacing" textLength="79" x="211" y="205.0186">type: String</text><text fill="#000000" font-family="sans-serif" font-size="14" lengthAdjust="spacing" textLength="79" x="211" y="221.3154">value: Long</text><text fill="#000000" font-family="sans-serif" font-size="14" lengthAdjust="spacing" textLength="81" x="211" y="237.6123">intervalUnit:</text><a href="IntervalUnit.svg" target="_top" title="IntervalUnit.svg" xlink:actuate="onRequest" xlink:href="IntervalUnit.svg" xlink:show="new" xlink:title="IntervalUnit.svg" xlink:type="simple"><text fill="#0000FF" font-family="sans-serif" font-size="14" lengthAdjust="spacing" text-decoration="underline" textLength="76" x="296" y="237.6123">IntervalUnit</text></a></g></a><line style="stroke:#008000;stroke-width:1.0;" x1="98.5" x2="98.5" y1="100.8906" y2="156.0234"/><polygon fill="#008000" points="98.5,156.0234,102.5,147.0234,98.5,151.0234,94.5,147.0234,98.5,156.0234" style="stroke:#008000;stroke-width:1.0;"/><text fill="#000000" font-family="sans-serif" font-size="13" lengthAdjust="spacing" textLength="73" x="23.5" y="132.9575">intervalUnit</text><line style="stroke:#008000;stroke-width:1.0;" x1="134.5" x2="134.5" y1="100.8906" y2="110.8906"/><line style="stroke:#008000;stroke-width:1.0;" x1="134.5" x2="301" y1="110.8906" y2="110.8906"/><line style="stroke:#008000;stroke-width:1.0;" x1="301" x2="301" y1="110.8906" y2="156.0234"/><polygon fill="#008000" points="301,156.0234,305,147.0234,301,151.0234,297,147.0234,301,156.0234" style="stroke:#008000;stroke-width:1.0;"/><text fill="#000000" font-family="sans-serif" font-size="13" lengthAdjust="spacing" textLength="73" x="304" y="132.9575">intervalUnit</text><!--MD5=[eb4e7e00fd7012cdebf8f32b85642cf8]
@startuml
!pragma layout elk
hide methods
enum IntervalUnit {
    DAYS
    WEEKS
    MONTHS
}
interface StandardSchedule [[StandardSchedule.svg]]  {
    type: String
    value: Long
    intervalUnit: [[IntervalUnit.svg IntervalUnit]]
}
interface StandardScheduleDraft [[StandardScheduleDraft.svg]]  {
    type: String
    value: Long
    intervalUnit: [[IntervalUnit.svg IntervalUnit]]
}
IntervalUnit - -> StandardSchedule #green;text:green : "intervalUnit"
IntervalUnit - -> StandardScheduleDraft #green;text:green : "intervalUnit"
@enduml

PlantUML version 1.2022.13(Sat Nov 19 13:22:17 UTC 2022)
(GPL source distribution)
Java Runtime: OpenJDK Runtime Environment
JVM: OpenJDK 64-Bit Server VM
Default Encoding: UTF-8
Language: en
Country: null
--></g></svg>
