<?xml version="1.0" encoding="UTF-8" standalone="no"?><svg xmlns="http://www.w3.org/2000/svg" xmlns:xlink="http://www.w3.org/1999/xlink" contentStyleType="text/css" height="432px" preserveAspectRatio="none" style="width:4507px;height:432px;background:#FFFFFF;" version="1.1" viewBox="0 0 4507 432" width="4507px" zoomAndPan="magnify"><defs><filter height="1" id="bdrvw7xt5zgy90" width="1" x="0" y="0"><feFlood flood-color="#000000" result="flood"/><feComposite in="SourceGraphic" in2="flood" operator="over"/></filter><filter height="1" id="bdrvw7xt5zgy91" width="1" x="0" y="0"><feFlood flood-color="#008000" result="flood"/><feComposite in="SourceGraphic" in2="flood" operator="over"/></filter><filter height="1" id="bdrvw7xt5zgy92" width="1" x="0" y="0"><feFlood flood-color="#0000FF" result="flood"/><feComposite in="SourceGraphic" in2="flood" operator="over"/></filter></defs><g><!--MD5=[f250bb9ae59046a87420cc1254bad4c1]
class InventoryEntryUpdateAction--><a href="InventoryEntryUpdateAction.svg" target="_top" title="InventoryEntryUpdateAction.svg" xlink:actuate="onRequest" xlink:href="InventoryEntryUpdateAction.svg" xlink:show="new" xlink:title="InventoryEntryUpdateAction.svg" xlink:type="simple"><g id="elem_InventoryEntryUpdateAction"><rect codeLine="10" fill="#F1F1F1" height="56.2969" id="InventoryEntryUpdateAction" rx="2.5" ry="2.5" style="stroke:#181818;stroke-width:0.5;" width="228" x="152.8" y="12"/><ellipse cx="167.8" cy="28" fill="#B4A7E5" rx="11" ry="11" style="stroke:#181818;stroke-width:1.0;"/><path d="M163.7219,23.7656 L163.7219,21.6094 L171.1125,21.6094 L171.1125,23.7656 L168.6438,23.7656 L168.6438,31.8438 L171.1125,31.8438 L171.1125,34 L163.7219,34 L163.7219,31.8438 L166.1906,31.8438 L166.1906,23.7656 L163.7219,23.7656 Z " fill="#000000"/><text fill="#000000" font-family="sans-serif" font-size="14" font-style="italic" lengthAdjust="spacing" textLength="196" x="181.8" y="32.8467">InventoryEntryUpdateAction</text><line style="stroke:#181818;stroke-width:0.5;" x1="153.8" x2="379.8" y1="44" y2="44"/><text fill="#000000" font-family="sans-serif" font-size="14" lengthAdjust="spacing" textLength="91" x="158.8" y="60.9951">action: String</text></g></a><!--MD5=[516d0575db15f2d6f69cc053ec6285a3]
class InventoryEntryAddQuantityAction--><a href="InventoryEntryAddQuantityAction.svg" target="_top" title="InventoryEntryAddQuantityAction.svg" xlink:actuate="onRequest" xlink:href="InventoryEntryAddQuantityAction.svg" xlink:show="new" xlink:title="InventoryEntryAddQuantityAction.svg" xlink:type="simple"><g id="elem_InventoryEntryAddQuantityAction"><rect codeLine="15" fill="#F1F1F1" height="72.5938" id="InventoryEntryAddQuantityAction" rx="2.5" ry="2.5" style="stroke:#181818;stroke-width:0.5;" width="264" x="3926" y="243.4297"/><ellipse cx="3941" cy="259.4297" fill="#B4A7E5" rx="11" ry="11" style="stroke:#181818;stroke-width:1.0;"/><path d="M3936.9219,255.1953 L3936.9219,253.0391 L3944.3125,253.0391 L3944.3125,255.1953 L3941.8438,255.1953 L3941.8438,263.2734 L3944.3125,263.2734 L3944.3125,265.4297 L3936.9219,265.4297 L3936.9219,263.2734 L3939.3906,263.2734 L3939.3906,255.1953 L3936.9219,255.1953 Z " fill="#000000"/><text fill="#000000" font-family="sans-serif" font-size="14" font-style="italic" lengthAdjust="spacing" textLength="232" x="3955" y="264.2764">InventoryEntryAddQuantityAction</text><line style="stroke:#181818;stroke-width:0.5;" x1="3927" x2="4189" y1="275.4297" y2="275.4297"/><text fill="#000000" font-family="sans-serif" font-size="14" lengthAdjust="spacing" textLength="91" x="3932" y="292.4248">action: String</text><text fill="#000000" font-family="sans-serif" font-size="14" lengthAdjust="spacing" textLength="98" x="3932" y="308.7217">quantity: Long</text></g></a><!--MD5=[3f9a566e3df2ea9c6ea90dafbd609c96]
class InventoryEntryChangeQuantityAction--><a href="InventoryEntryChangeQuantityAction.svg" target="_top" title="InventoryEntryChangeQuantityAction.svg" xlink:actuate="onRequest" xlink:href="InventoryEntryChangeQuantityAction.svg" xlink:show="new" xlink:title="InventoryEntryChangeQuantityAction.svg" xlink:type="simple"><g id="elem_InventoryEntryChangeQuantityAction"><rect codeLine="19" fill="#F1F1F1" height="72.5938" id="InventoryEntryChangeQuantityAction" rx="2.5" ry="2.5" style="stroke:#181818;stroke-width:0.5;" width="290" x="4210" y="243.4297"/><ellipse cx="4225" cy="259.4297" fill="#B4A7E5" rx="11" ry="11" style="stroke:#181818;stroke-width:1.0;"/><path d="M4220.9219,255.1953 L4220.9219,253.0391 L4228.3125,253.0391 L4228.3125,255.1953 L4225.8438,255.1953 L4225.8438,263.2734 L4228.3125,263.2734 L4228.3125,265.4297 L4220.9219,265.4297 L4220.9219,263.2734 L4223.3906,263.2734 L4223.3906,255.1953 L4220.9219,255.1953 Z " fill="#000000"/><text fill="#000000" font-family="sans-serif" font-size="14" font-style="italic" lengthAdjust="spacing" textLength="258" x="4239" y="264.2764">InventoryEntryChangeQuantityAction</text><line style="stroke:#181818;stroke-width:0.5;" x1="4211" x2="4499" y1="275.4297" y2="275.4297"/><text fill="#000000" font-family="sans-serif" font-size="14" lengthAdjust="spacing" textLength="91" x="4216" y="292.4248">action: String</text><text fill="#000000" font-family="sans-serif" font-size="14" lengthAdjust="spacing" textLength="98" x="4216" y="308.7217">quantity: Long</text></g></a><!--MD5=[c6eea7adabd30adcbdd23ea0fa8b3331]
class InventoryEntryRemoveQuantityAction--><a href="InventoryEntryRemoveQuantityAction.svg" target="_top" title="InventoryEntryRemoveQuantityAction.svg" xlink:actuate="onRequest" xlink:href="InventoryEntryRemoveQuantityAction.svg" xlink:show="new" xlink:title="InventoryEntryRemoveQuantityAction.svg" xlink:type="simple"><g id="elem_InventoryEntryRemoveQuantityAction"><rect codeLine="23" fill="#F1F1F1" height="72.5938" id="InventoryEntryRemoveQuantityAction" rx="2.5" ry="2.5" style="stroke:#181818;stroke-width:0.5;" width="294" x="21" y="243.4297"/><ellipse cx="36" cy="259.4297" fill="#B4A7E5" rx="11" ry="11" style="stroke:#181818;stroke-width:1.0;"/><path d="M31.9219,255.1953 L31.9219,253.0391 L39.3125,253.0391 L39.3125,255.1953 L36.8438,255.1953 L36.8438,263.2734 L39.3125,263.2734 L39.3125,265.4297 L31.9219,265.4297 L31.9219,263.2734 L34.3906,263.2734 L34.3906,255.1953 L31.9219,255.1953 Z " fill="#000000"/><text fill="#000000" font-family="sans-serif" font-size="14" font-style="italic" lengthAdjust="spacing" textLength="262" x="50" y="264.2764">InventoryEntryRemoveQuantityAction</text><line style="stroke:#181818;stroke-width:0.5;" x1="22" x2="314" y1="275.4297" y2="275.4297"/><text fill="#000000" font-family="sans-serif" font-size="14" lengthAdjust="spacing" textLength="91" x="27" y="292.4248">action: String</text><text fill="#000000" font-family="sans-serif" font-size="14" lengthAdjust="spacing" textLength="98" x="27" y="308.7217">quantity: Long</text></g></a><!--MD5=[1d6817da2e45203bd51e078bd89a58e3]
class InventoryEntrySetCustomFieldAction--><a href="InventoryEntrySetCustomFieldAction.svg" target="_top" title="InventoryEntrySetCustomFieldAction.svg" xlink:actuate="onRequest" xlink:href="InventoryEntrySetCustomFieldAction.svg" xlink:show="new" xlink:title="InventoryEntrySetCustomFieldAction.svg" xlink:type="simple"><g id="elem_InventoryEntrySetCustomFieldAction"><rect codeLine="27" fill="#F1F1F1" height="88.8906" id="InventoryEntrySetCustomFieldAction" rx="2.5" ry="2.5" style="stroke:#181818;stroke-width:0.5;" width="286" x="1373" y="243.4297"/><ellipse cx="1388" cy="259.4297" fill="#B4A7E5" rx="11" ry="11" style="stroke:#181818;stroke-width:1.0;"/><path d="M1383.9219,255.1953 L1383.9219,253.0391 L1391.3125,253.0391 L1391.3125,255.1953 L1388.8438,255.1953 L1388.8438,263.2734 L1391.3125,263.2734 L1391.3125,265.4297 L1383.9219,265.4297 L1383.9219,263.2734 L1386.3906,263.2734 L1386.3906,255.1953 L1383.9219,255.1953 Z " fill="#000000"/><text fill="#000000" font-family="sans-serif" font-size="14" font-style="italic" lengthAdjust="spacing" textLength="254" x="1402" y="264.2764">InventoryEntrySetCustomFieldAction</text><line style="stroke:#181818;stroke-width:0.5;" x1="1374" x2="1658" y1="275.4297" y2="275.4297"/><text fill="#000000" font-family="sans-serif" font-size="14" lengthAdjust="spacing" textLength="91" x="1379" y="292.4248">action: String</text><text fill="#000000" font-family="sans-serif" font-size="14" lengthAdjust="spacing" textLength="88" x="1379" y="308.7217">name: String</text><text fill="#000000" font-family="sans-serif" font-size="14" lengthAdjust="spacing" textLength="41" x="1379" y="325.0186">value:</text><a href="Object.svg" target="_top" title="Object.svg" xlink:actuate="onRequest" xlink:href="Object.svg" xlink:show="new" xlink:title="Object.svg" xlink:type="simple"><text fill="#0000FF" font-family="sans-serif" font-size="14" lengthAdjust="spacing" text-decoration="underline" textLength="45" x="1424" y="325.0186">Object</text></a></g></a><!--MD5=[8711390a1a5c0415e79d2f12d22e3987]
class InventoryEntrySetCustomTypeAction--><a href="InventoryEntrySetCustomTypeAction.svg" target="_top" title="InventoryEntrySetCustomTypeAction.svg" xlink:actuate="onRequest" xlink:href="InventoryEntrySetCustomTypeAction.svg" xlink:show="new" xlink:title="InventoryEntrySetCustomTypeAction.svg" xlink:type="simple"><g id="elem_InventoryEntrySetCustomTypeAction"><rect codeLine="32" fill="#F1F1F1" height="88.8906" id="InventoryEntrySetCustomTypeAction" rx="2.5" ry="2.5" style="stroke:#181818;stroke-width:0.5;" width="289" x="3274" y="243.4297"/><ellipse cx="3289" cy="259.4297" fill="#B4A7E5" rx="11" ry="11" style="stroke:#181818;stroke-width:1.0;"/><path d="M3284.9219,255.1953 L3284.9219,253.0391 L3292.3125,253.0391 L3292.3125,255.1953 L3289.8438,255.1953 L3289.8438,263.2734 L3292.3125,263.2734 L3292.3125,265.4297 L3284.9219,265.4297 L3284.9219,263.2734 L3287.3906,263.2734 L3287.3906,255.1953 L3284.9219,255.1953 Z " fill="#000000"/><text fill="#000000" font-family="sans-serif" font-size="14" font-style="italic" lengthAdjust="spacing" textLength="257" x="3303" y="264.2764">InventoryEntrySetCustomTypeAction</text><line style="stroke:#181818;stroke-width:0.5;" x1="3275" x2="3562" y1="275.4297" y2="275.4297"/><text fill="#000000" font-family="sans-serif" font-size="14" lengthAdjust="spacing" textLength="91" x="3280" y="292.4248">action: String</text><text fill="#000000" font-family="sans-serif" font-size="14" lengthAdjust="spacing" textLength="35" x="3280" y="308.7217">type:</text><a href="TypeResourceIdentifier.svg" target="_top" title="TypeResourceIdentifier.svg" xlink:actuate="onRequest" xlink:href="TypeResourceIdentifier.svg" xlink:show="new" xlink:title="TypeResourceIdentifier.svg" xlink:type="simple"><text fill="#0000FF" font-family="sans-serif" font-size="14" lengthAdjust="spacing" text-decoration="underline" textLength="160" x="3319" y="308.7217">TypeResourceIdentifier</text></a><text fill="#000000" font-family="sans-serif" font-size="14" lengthAdjust="spacing" textLength="41" x="3280" y="325.0186">fields:</text><a href="FieldContainer.svg" target="_top" title="FieldContainer.svg" xlink:actuate="onRequest" xlink:href="FieldContainer.svg" xlink:show="new" xlink:title="FieldContainer.svg" xlink:type="simple"><text fill="#0000FF" font-family="sans-serif" font-size="14" lengthAdjust="spacing" text-decoration="underline" textLength="99" x="3325" y="325.0186">FieldContainer</text></a></g></a><!--MD5=[c96866c75ff4844a361ba06929b32d87]
class InventoryEntrySetExpectedDeliveryAction--><a href="InventoryEntrySetExpectedDeliveryAction.svg" target="_top" title="InventoryEntrySetExpectedDeliveryAction.svg" xlink:actuate="onRequest" xlink:href="InventoryEntrySetExpectedDeliveryAction.svg" xlink:show="new" xlink:title="InventoryEntrySetExpectedDeliveryAction.svg" xlink:type="simple"><g id="elem_InventoryEntrySetExpectedDeliveryAction"><rect codeLine="37" fill="#F1F1F1" height="72.5938" id="InventoryEntrySetExpectedDeliveryAction" rx="2.5" ry="2.5" style="stroke:#181818;stroke-width:0.5;" width="323" x="3583" y="243.4297"/><ellipse cx="3598" cy="259.4297" fill="#B4A7E5" rx="11" ry="11" style="stroke:#181818;stroke-width:1.0;"/><path d="M3593.9219,255.1953 L3593.9219,253.0391 L3601.3125,253.0391 L3601.3125,255.1953 L3598.8438,255.1953 L3598.8438,263.2734 L3601.3125,263.2734 L3601.3125,265.4297 L3593.9219,265.4297 L3593.9219,263.2734 L3596.3906,263.2734 L3596.3906,255.1953 L3593.9219,255.1953 Z " fill="#000000"/><text fill="#000000" font-family="sans-serif" font-size="14" font-style="italic" lengthAdjust="spacing" textLength="291" x="3612" y="264.2764">InventoryEntrySetExpectedDeliveryAction</text><line style="stroke:#181818;stroke-width:0.5;" x1="3584" x2="3905" y1="275.4297" y2="275.4297"/><text fill="#000000" font-family="sans-serif" font-size="14" lengthAdjust="spacing" textLength="91" x="3589" y="292.4248">action: String</text><text fill="#000000" font-family="sans-serif" font-size="14" lengthAdjust="spacing" textLength="195" x="3589" y="308.7217">expectedDelivery: DateTime</text></g></a><!--MD5=[6281a2757ff8f49b7ab8d44598da1071]
class InventoryEntrySetInventoryLimitsAction--><a href="InventoryEntrySetInventoryLimitsAction.svg" target="_top" title="InventoryEntrySetInventoryLimitsAction.svg" xlink:actuate="onRequest" xlink:href="InventoryEntrySetInventoryLimitsAction.svg" xlink:show="new" xlink:title="InventoryEntrySetInventoryLimitsAction.svg" xlink:type="simple"><g id="elem_InventoryEntrySetInventoryLimitsAction"><rect codeLine="41" fill="#F1F1F1" height="88.8906" id="InventoryEntrySetInventoryLimitsAction" rx="2.5" ry="2.5" style="stroke:#181818;stroke-width:0.5;" width="306" x="2948" y="243.4297"/><ellipse cx="2963" cy="259.4297" fill="#B4A7E5" rx="11" ry="11" style="stroke:#181818;stroke-width:1.0;"/><path d="M2958.9219,255.1953 L2958.9219,253.0391 L2966.3125,253.0391 L2966.3125,255.1953 L2963.8438,255.1953 L2963.8438,263.2734 L2966.3125,263.2734 L2966.3125,265.4297 L2958.9219,265.4297 L2958.9219,263.2734 L2961.3906,263.2734 L2961.3906,255.1953 L2958.9219,255.1953 Z " fill="#000000"/><text fill="#000000" font-family="sans-serif" font-size="14" font-style="italic" lengthAdjust="spacing" textLength="274" x="2977" y="264.2764">InventoryEntrySetInventoryLimitsAction</text><line style="stroke:#181818;stroke-width:0.5;" x1="2949" x2="3253" y1="275.4297" y2="275.4297"/><text fill="#000000" font-family="sans-serif" font-size="14" lengthAdjust="spacing" textLength="91" x="2954" y="292.4248">action: String</text><text fill="#000000" font-family="sans-serif" font-size="14" lengthAdjust="spacing" textLength="153" x="2954" y="308.7217">minCartQuantity: Long</text><text fill="#000000" font-family="sans-serif" font-size="14" lengthAdjust="spacing" textLength="156" x="2954" y="325.0186">maxCartQuantity: Long</text></g></a><!--MD5=[630dd01891aa24d9e38352f5b7443773]
class InventoryEntrySetKeyAction--><a href="InventoryEntrySetKeyAction.svg" target="_top" title="InventoryEntrySetKeyAction.svg" xlink:actuate="onRequest" xlink:href="InventoryEntrySetKeyAction.svg" xlink:show="new" xlink:title="InventoryEntrySetKeyAction.svg" xlink:type="simple"><g id="elem_InventoryEntrySetKeyAction"><rect codeLine="46" fill="#F1F1F1" height="72.5938" id="InventoryEntrySetKeyAction" rx="2.5" ry="2.5" style="stroke:#181818;stroke-width:0.5;" width="227" x="688" y="243.4297"/><ellipse cx="703" cy="259.4297" fill="#B4A7E5" rx="11" ry="11" style="stroke:#181818;stroke-width:1.0;"/><path d="M698.9219,255.1953 L698.9219,253.0391 L706.3125,253.0391 L706.3125,255.1953 L703.8438,255.1953 L703.8438,263.2734 L706.3125,263.2734 L706.3125,265.4297 L698.9219,265.4297 L698.9219,263.2734 L701.3906,263.2734 L701.3906,255.1953 L698.9219,255.1953 Z " fill="#000000"/><text fill="#000000" font-family="sans-serif" font-size="14" font-style="italic" lengthAdjust="spacing" textLength="195" x="717" y="264.2764">InventoryEntrySetKeyAction</text><line style="stroke:#181818;stroke-width:0.5;" x1="689" x2="914" y1="275.4297" y2="275.4297"/><text fill="#000000" font-family="sans-serif" font-size="14" lengthAdjust="spacing" textLength="91" x="694" y="292.4248">action: String</text><text fill="#000000" font-family="sans-serif" font-size="14" lengthAdjust="spacing" textLength="73" x="694" y="308.7217">key: String</text></g></a><!--MD5=[2e9217ad502eceb3f6b9f4d8a56d97d1]
class InventoryEntrySetReorderPointAction--><a href="InventoryEntrySetReorderPointAction.svg" target="_top" title="InventoryEntrySetReorderPointAction.svg" xlink:actuate="onRequest" xlink:href="InventoryEntrySetReorderPointAction.svg" xlink:show="new" xlink:title="InventoryEntrySetReorderPointAction.svg" xlink:type="simple"><g id="elem_InventoryEntrySetReorderPointAction"><rect codeLine="50" fill="#F1F1F1" height="72.5938" id="InventoryEntrySetReorderPointAction" rx="2.5" ry="2.5" style="stroke:#181818;stroke-width:0.5;" width="291" x="2005" y="243.4297"/><ellipse cx="2020" cy="259.4297" fill="#B4A7E5" rx="11" ry="11" style="stroke:#181818;stroke-width:1.0;"/><path d="M2015.9219,255.1953 L2015.9219,253.0391 L2023.3125,253.0391 L2023.3125,255.1953 L2020.8438,255.1953 L2020.8438,263.2734 L2023.3125,263.2734 L2023.3125,265.4297 L2015.9219,265.4297 L2015.9219,263.2734 L2018.3906,263.2734 L2018.3906,255.1953 L2015.9219,255.1953 Z " fill="#000000"/><text fill="#000000" font-family="sans-serif" font-size="14" font-style="italic" lengthAdjust="spacing" textLength="259" x="2034" y="264.2764">InventoryEntrySetReorderPointAction</text><line style="stroke:#181818;stroke-width:0.5;" x1="2006" x2="2295" y1="275.4297" y2="275.4297"/><text fill="#000000" font-family="sans-serif" font-size="14" lengthAdjust="spacing" textLength="91" x="2011" y="292.4248">action: String</text><text fill="#000000" font-family="sans-serif" font-size="14" lengthAdjust="spacing" textLength="113" x="2011" y="308.7217">quantity: Integer</text></g></a><!--MD5=[8b6829189a02c561066d37b8d2243953]
class InventoryEntrySetReservationExpirationInMinutesAction--><a href="InventoryEntrySetReservationExpirationInMinutesAction.svg" target="_top" title="InventoryEntrySetReservationExpirationInMinutesAction.svg" xlink:actuate="onRequest" xlink:href="InventoryEntrySetReservationExpirationInMinutesAction.svg" xlink:show="new" xlink:title="InventoryEntrySetReservationExpirationInMinutesAction.svg" xlink:type="simple"><g id="elem_InventoryEntrySetReservationExpirationInMinutesAction"><rect codeLine="54" fill="#F1F1F1" height="72.5938" id="InventoryEntrySetReservationExpirationInMinutesAction" rx="2.5" ry="2.5" style="stroke:#181818;stroke-width:0.5;" width="418" x="935" y="243.4297"/><ellipse cx="950" cy="259.4297" fill="#B4A7E5" rx="11" ry="11" style="stroke:#181818;stroke-width:1.0;"/><path d="M945.9219,255.1953 L945.9219,253.0391 L953.3125,253.0391 L953.3125,255.1953 L950.8438,255.1953 L950.8438,263.2734 L953.3125,263.2734 L953.3125,265.4297 L945.9219,265.4297 L945.9219,263.2734 L948.3906,263.2734 L948.3906,255.1953 L945.9219,255.1953 Z " fill="#000000"/><text fill="#000000" font-family="sans-serif" font-size="14" font-style="italic" lengthAdjust="spacing" textLength="386" x="964" y="264.2764">InventoryEntrySetReservationExpirationInMinutesAction</text><line style="stroke:#181818;stroke-width:0.5;" x1="936" x2="1352" y1="275.4297" y2="275.4297"/><text fill="#000000" font-family="sans-serif" font-size="14" lengthAdjust="spacing" textLength="91" x="941" y="292.4248">action: String</text><text fill="#000000" font-family="sans-serif" font-size="14" lengthAdjust="spacing" textLength="269" x="941" y="308.7217">reservationExpirationInMinutes: Integer</text></g></a><!--MD5=[d5a2a0f501089300ebb353612a96ae27]
class InventoryEntrySetRestockableInDaysAction--><a href="InventoryEntrySetRestockableInDaysAction.svg" target="_top" title="InventoryEntrySetRestockableInDaysAction.svg" xlink:actuate="onRequest" xlink:href="InventoryEntrySetRestockableInDaysAction.svg" xlink:show="new" xlink:title="InventoryEntrySetRestockableInDaysAction.svg" xlink:type="simple"><g id="elem_InventoryEntrySetRestockableInDaysAction"><rect codeLine="58" fill="#F1F1F1" height="72.5938" id="InventoryEntrySetRestockableInDaysAction" rx="2.5" ry="2.5" style="stroke:#181818;stroke-width:0.5;" width="333" x="335" y="243.4297"/><ellipse cx="350" cy="259.4297" fill="#B4A7E5" rx="11" ry="11" style="stroke:#181818;stroke-width:1.0;"/><path d="M345.9219,255.1953 L345.9219,253.0391 L353.3125,253.0391 L353.3125,255.1953 L350.8438,255.1953 L350.8438,263.2734 L353.3125,263.2734 L353.3125,265.4297 L345.9219,265.4297 L345.9219,263.2734 L348.3906,263.2734 L348.3906,255.1953 L345.9219,255.1953 Z " fill="#000000"/><text fill="#000000" font-family="sans-serif" font-size="14" font-style="italic" lengthAdjust="spacing" textLength="301" x="364" y="264.2764">InventoryEntrySetRestockableInDaysAction</text><line style="stroke:#181818;stroke-width:0.5;" x1="336" x2="667" y1="275.4297" y2="275.4297"/><text fill="#000000" font-family="sans-serif" font-size="14" lengthAdjust="spacing" textLength="91" x="341" y="292.4248">action: String</text><text fill="#000000" font-family="sans-serif" font-size="14" lengthAdjust="spacing" textLength="170" x="341" y="308.7217">restockableInDays: Long</text></g></a><!--MD5=[9dd7267d18ad5e8d688b8859d8cd2d29]
class InventoryEntrySetSafetyStockAction--><a href="InventoryEntrySetSafetyStockAction.svg" target="_top" title="InventoryEntrySetSafetyStockAction.svg" xlink:actuate="onRequest" xlink:href="InventoryEntrySetSafetyStockAction.svg" xlink:show="new" xlink:title="InventoryEntrySetSafetyStockAction.svg" xlink:type="simple"><g id="elem_InventoryEntrySetSafetyStockAction"><rect codeLine="62" fill="#F1F1F1" height="72.5938" id="InventoryEntrySetSafetyStockAction" rx="2.5" ry="2.5" style="stroke:#181818;stroke-width:0.5;" width="283" x="2645" y="243.4297"/><ellipse cx="2660" cy="259.4297" fill="#B4A7E5" rx="11" ry="11" style="stroke:#181818;stroke-width:1.0;"/><path d="M2655.9219,255.1953 L2655.9219,253.0391 L2663.3125,253.0391 L2663.3125,255.1953 L2660.8438,255.1953 L2660.8438,263.2734 L2663.3125,263.2734 L2663.3125,265.4297 L2655.9219,265.4297 L2655.9219,263.2734 L2658.3906,263.2734 L2658.3906,255.1953 L2655.9219,255.1953 Z " fill="#000000"/><text fill="#000000" font-family="sans-serif" font-size="14" font-style="italic" lengthAdjust="spacing" textLength="251" x="2674" y="264.2764">InventoryEntrySetSafetyStockAction</text><line style="stroke:#181818;stroke-width:0.5;" x1="2646" x2="2927" y1="275.4297" y2="275.4297"/><text fill="#000000" font-family="sans-serif" font-size="14" lengthAdjust="spacing" textLength="91" x="2651" y="292.4248">action: String</text><text fill="#000000" font-family="sans-serif" font-size="14" lengthAdjust="spacing" textLength="113" x="2651" y="308.7217">quantity: Integer</text></g></a><!--MD5=[3b725f41608cef1574c0d14be7b2a7fa]
class InventoryEntrySetSupplyChannelAction--><a href="InventoryEntrySetSupplyChannelAction.svg" target="_top" title="InventoryEntrySetSupplyChannelAction.svg" xlink:actuate="onRequest" xlink:href="InventoryEntrySetSupplyChannelAction.svg" xlink:show="new" xlink:title="InventoryEntrySetSupplyChannelAction.svg" xlink:type="simple"><g id="elem_InventoryEntrySetSupplyChannelAction"><rect codeLine="66" fill="#F1F1F1" height="72.5938" id="InventoryEntrySetSupplyChannelAction" rx="2.5" ry="2.5" style="stroke:#181818;stroke-width:0.5;" width="306" x="1679" y="243.4297"/><ellipse cx="1694.45" cy="259.4297" fill="#B4A7E5" rx="11" ry="11" style="stroke:#181818;stroke-width:1.0;"/><path d="M1690.3719,255.1953 L1690.3719,253.0391 L1697.7625,253.0391 L1697.7625,255.1953 L1695.2938,255.1953 L1695.2938,263.2734 L1697.7625,263.2734 L1697.7625,265.4297 L1690.3719,265.4297 L1690.3719,263.2734 L1692.8406,263.2734 L1692.8406,255.1953 L1690.3719,255.1953 Z " fill="#000000"/><text fill="#000000" font-family="sans-serif" font-size="14" font-style="italic" lengthAdjust="spacing" textLength="273" x="1708.55" y="264.2764">InventoryEntrySetSupplyChannelAction</text><line style="stroke:#181818;stroke-width:0.5;" x1="1680" x2="1984" y1="275.4297" y2="275.4297"/><text fill="#000000" font-family="sans-serif" font-size="14" lengthAdjust="spacing" textLength="91" x="1685" y="292.4248">action: String</text><text fill="#000000" font-family="sans-serif" font-size="14" lengthAdjust="spacing" textLength="107" x="1685" y="308.7217">supplyChannel:</text><a href="ChannelResourceIdentifier.svg" target="_top" title="ChannelResourceIdentifier.svg" xlink:actuate="onRequest" xlink:href="ChannelResourceIdentifier.svg" xlink:show="new" xlink:title="ChannelResourceIdentifier.svg" xlink:type="simple"><text fill="#0000FF" font-family="sans-serif" font-size="14" lengthAdjust="spacing" text-decoration="underline" textLength="183" x="1796" y="308.7217">ChannelResourceIdentifier</text></a></g></a><!--MD5=[e238dd757eb5a3e7d7664bc0600b04ec]
class InventoryEntryUpdate--><a href="InventoryEntryUpdate.svg" target="_top" title="InventoryEntryUpdate.svg" xlink:actuate="onRequest" xlink:href="InventoryEntryUpdate.svg" xlink:show="new" xlink:title="InventoryEntryUpdate.svg" xlink:type="simple"><g id="elem_InventoryEntryUpdate"><rect codeLine="70" fill="#F1F1F1" height="72.5938" id="InventoryEntryUpdate" rx="2.5" ry="2.5" style="stroke:#181818;stroke-width:0.5;" width="309" x="2316" y="243.4297"/><ellipse cx="2390.25" cy="259.4297" fill="#B4A7E5" rx="11" ry="11" style="stroke:#181818;stroke-width:1.0;"/><path d="M2386.1719,255.1953 L2386.1719,253.0391 L2393.5625,253.0391 L2393.5625,255.1953 L2391.0938,255.1953 L2391.0938,263.2734 L2393.5625,263.2734 L2393.5625,265.4297 L2386.1719,265.4297 L2386.1719,263.2734 L2388.6406,263.2734 L2388.6406,255.1953 L2386.1719,255.1953 Z " fill="#000000"/><text fill="#000000" font-family="sans-serif" font-size="14" font-style="italic" lengthAdjust="spacing" textLength="152" x="2410.75" y="264.2764">InventoryEntryUpdate</text><line style="stroke:#181818;stroke-width:0.5;" x1="2317" x2="2624" y1="275.4297" y2="275.4297"/><text fill="#000000" font-family="sans-serif" font-size="14" lengthAdjust="spacing" textLength="93" x="2322" y="292.4248">version: Long</text><text fill="#000000" font-family="sans-serif" font-size="14" lengthAdjust="spacing" textLength="55" x="2322" y="308.7217">actions:</text><a href="InventoryEntryUpdateAction.svg" target="_top" title="InventoryEntryUpdateAction.svg" xlink:actuate="onRequest" xlink:href="InventoryEntryUpdateAction.svg" xlink:show="new" xlink:title="InventoryEntryUpdateAction.svg" xlink:type="simple"><text fill="#0000FF" font-family="sans-serif" font-size="14" lengthAdjust="spacing" text-decoration="underline" textLength="238" x="2381" y="308.7217">List&lt;InventoryEntryUpdateAction&gt;</text></a></g></a><line style="stroke:#0000FF;stroke-width:1.0;" x1="350.4" x2="350.4" y1="68.2969" y2="88.2969"/><line style="stroke:#0000FF;stroke-width:1.0;" x1="350.4" x2="4058" y1="88.2969" y2="88.2969"/><line style="stroke:#0000FF;stroke-width:1.0;" x1="4058" x2="4058" y1="88.2969" y2="243.4297"/><polygon fill="#0000FF" points="4058,243.4297,4062,234.4297,4058,238.4297,4054,234.4297,4058,243.4297" style="stroke:#0000FF;stroke-width:1.0;"/><text fill="#000000" font-family="sans-serif" font-size="13" lengthAdjust="spacing" textLength="129" x="3927" y="220.3638">action : addQuantity</text><line style="stroke:#0000FF;stroke-width:1.0;" x1="365.6" x2="365.6" y1="68.2969" y2="78.2969"/><line style="stroke:#0000FF;stroke-width:1.0;" x1="365.6" x2="4355" y1="78.2969" y2="78.2969"/><line style="stroke:#0000FF;stroke-width:1.0;" x1="4355" x2="4355" y1="78.2969" y2="243.4297"/><polygon fill="#0000FF" points="4355,243.4297,4359,234.4297,4355,238.4297,4351,234.4297,4355,243.4297" style="stroke:#0000FF;stroke-width:1.0;"/><text fill="#000000" font-family="sans-serif" font-size="13" lengthAdjust="spacing" textLength="152" x="4201" y="220.3638">action : changeQuantity</text><line style="stroke:#0000FF;stroke-width:1.0;" x1="168" x2="168" y1="68.2969" y2="243.4297"/><polygon fill="#0000FF" points="168,243.4297,172,234.4297,168,238.4297,164,234.4297,168,243.4297" style="stroke:#0000FF;stroke-width:1.0;"/><text fill="#000000" font-family="sans-serif" font-size="13" lengthAdjust="spacing" textLength="154" x="12" y="220.3638">action : removeQuantity</text><line style="stroke:#0000FF;stroke-width:1.0;" x1="228.8" x2="228.8" y1="68.2969" y2="168.2969"/><line style="stroke:#0000FF;stroke-width:1.0;" x1="228.8" x2="1516" y1="168.2969" y2="168.2969"/><line style="stroke:#0000FF;stroke-width:1.0;" x1="1516" x2="1516" y1="168.2969" y2="243.4297"/><polygon fill="#0000FF" points="1516,243.4297,1520,234.4297,1516,238.4297,1512,234.4297,1516,243.4297" style="stroke:#0000FF;stroke-width:1.0;"/><text fill="#000000" font-family="sans-serif" font-size="13" lengthAdjust="spacing" textLength="150" x="1364" y="220.3638">action : setCustomField</text><line style="stroke:#0000FF;stroke-width:1.0;" x1="320" x2="320" y1="68.2969" y2="108.2969"/><line style="stroke:#0000FF;stroke-width:1.0;" x1="320" x2="3418.5" y1="108.2969" y2="108.2969"/><line style="stroke:#0000FF;stroke-width:1.0;" x1="3418.5" x2="3418.5" y1="108.2969" y2="243.4297"/><polygon fill="#0000FF" points="3418.5,243.4297,3422.5,234.4297,3418.5,238.4297,3414.5,234.4297,3418.5,243.4297" style="stroke:#0000FF;stroke-width:1.0;"/><text fill="#000000" font-family="sans-serif" font-size="13" lengthAdjust="spacing" textLength="151" x="3265.5" y="220.3638">action : setCustomType</text><line style="stroke:#0000FF;stroke-width:1.0;" x1="335.2" x2="335.2" y1="68.2969" y2="98.2969"/><line style="stroke:#0000FF;stroke-width:1.0;" x1="335.2" x2="3744.5" y1="98.2969" y2="98.2969"/><line style="stroke:#0000FF;stroke-width:1.0;" x1="3744.5" x2="3744.5" y1="98.2969" y2="243.4297"/><polygon fill="#0000FF" points="3744.5,243.4297,3748.5,234.4297,3744.5,238.4297,3740.5,234.4297,3744.5,243.4297" style="stroke:#0000FF;stroke-width:1.0;"/><text fill="#000000" font-family="sans-serif" font-size="13" lengthAdjust="spacing" textLength="181" x="3561.5" y="220.3638">action : setExpectedDelivery</text><line style="stroke:#0000FF;stroke-width:1.0;" x1="304.8" x2="304.8" y1="68.2969" y2="118.2969"/><line style="stroke:#0000FF;stroke-width:1.0;" x1="304.8" x2="3101" y1="118.2969" y2="118.2969"/><line style="stroke:#0000FF;stroke-width:1.0;" x1="3101" x2="3101" y1="118.2969" y2="243.4297"/><polygon fill="#0000FF" points="3101,243.4297,3105,234.4297,3101,238.4297,3097,234.4297,3101,243.4297" style="stroke:#0000FF;stroke-width:1.0;"/><text fill="#000000" font-family="sans-serif" font-size="13" lengthAdjust="spacing" textLength="168" x="2931" y="220.3638">action : setInventoryLimits</text><line style="stroke:#0000FF;stroke-width:1.0;" x1="198.4" x2="198.4" y1="68.2969" y2="188.2969"/><line style="stroke:#0000FF;stroke-width:1.0;" x1="198.4" x2="801.5" y1="188.2969" y2="188.2969"/><line style="stroke:#0000FF;stroke-width:1.0;" x1="801.5" x2="801.5" y1="188.2969" y2="243.4297"/><polygon fill="#0000FF" points="801.5,243.4297,805.5,234.4297,801.5,238.4297,797.5,234.4297,801.5,243.4297" style="stroke:#0000FF;stroke-width:1.0;"/><text fill="#000000" font-family="sans-serif" font-size="13" lengthAdjust="spacing" textLength="94" x="705.5" y="220.3638">action : setKey</text><line style="stroke:#0000FF;stroke-width:1.0;" x1="259.2" x2="259.2" y1="68.2969" y2="148.2969"/><line style="stroke:#0000FF;stroke-width:1.0;" x1="259.2" x2="2150.5" y1="148.2969" y2="148.2969"/><line style="stroke:#0000FF;stroke-width:1.0;" x1="2150.5" x2="2150.5" y1="148.2969" y2="243.4297"/><polygon fill="#0000FF" points="2150.5,243.4297,2154.5,234.4297,2150.5,238.4297,2146.5,234.4297,2150.5,243.4297" style="stroke:#0000FF;stroke-width:1.0;"/><text fill="#000000" font-family="sans-serif" font-size="13" lengthAdjust="spacing" textLength="153" x="1995.5" y="220.3638">action : setReorderPoint</text><line style="stroke:#0000FF;stroke-width:1.0;" x1="213.6" x2="213.6" y1="68.2969" y2="178.2969"/><line style="stroke:#0000FF;stroke-width:1.0;" x1="213.6" x2="1144" y1="178.2969" y2="178.2969"/><line style="stroke:#0000FF;stroke-width:1.0;" x1="1144" x2="1144" y1="178.2969" y2="243.4297"/><polygon fill="#0000FF" points="1144,243.4297,1148,234.4297,1144,238.4297,1140,234.4297,1144,243.4297" style="stroke:#0000FF;stroke-width:1.0;"/><text fill="#000000" font-family="sans-serif" font-size="13" lengthAdjust="spacing" textLength="270" x="872" y="220.3638">action : setReservationExpirationInMinutes</text><line style="stroke:#0000FF;stroke-width:1.0;" x1="183.2" x2="183.2" y1="68.2969" y2="198.2969"/><line style="stroke:#0000FF;stroke-width:1.0;" x1="183.2" x2="501.5" y1="198.2969" y2="198.2969"/><line style="stroke:#0000FF;stroke-width:1.0;" x1="501.5" x2="501.5" y1="198.2969" y2="243.4297"/><polygon fill="#0000FF" points="501.5,243.4297,505.5,234.4297,501.5,238.4297,497.5,234.4297,501.5,243.4297" style="stroke:#0000FF;stroke-width:1.0;"/><text fill="#000000" font-family="sans-serif" font-size="13" lengthAdjust="spacing" textLength="191" x="308.5" y="220.3638">action : setRestockableInDays</text><line style="stroke:#0000FF;stroke-width:1.0;" x1="289.6" x2="289.6" y1="68.2969" y2="128.2969"/><line style="stroke:#0000FF;stroke-width:1.0;" x1="289.6" x2="2786.5" y1="128.2969" y2="128.2969"/><line style="stroke:#0000FF;stroke-width:1.0;" x1="2786.5" x2="2786.5" y1="128.2969" y2="243.4297"/><polygon fill="#0000FF" points="2786.5,243.4297,2790.5,234.4297,2786.5,238.4297,2782.5,234.4297,2786.5,243.4297" style="stroke:#0000FF;stroke-width:1.0;"/><text fill="#000000" font-family="sans-serif" font-size="13" lengthAdjust="spacing" textLength="148" x="2636.5" y="220.3638">action : setSafetyStock</text><line style="stroke:#0000FF;stroke-width:1.0;" x1="244" x2="244" y1="68.2969" y2="158.2969"/><line style="stroke:#0000FF;stroke-width:1.0;" x1="244" x2="1832" y1="158.2969" y2="158.2969"/><line style="stroke:#0000FF;stroke-width:1.0;" x1="1832" x2="1832" y1="158.2969" y2="243.4297"/><polygon fill="#0000FF" points="1832,243.4297,1836,234.4297,1832,238.4297,1828,234.4297,1832,243.4297" style="stroke:#0000FF;stroke-width:1.0;"/><text fill="#000000" font-family="sans-serif" font-size="13" lengthAdjust="spacing" textLength="166" x="1664" y="220.3638">action : setSupplyChannel</text><line style="stroke:#008000;stroke-width:1.0;" x1="274.4" x2="274.4" y1="68.2969" y2="138.2969"/><line style="stroke:#008000;stroke-width:1.0;" x1="274.4" x2="2470.5" y1="138.2969" y2="138.2969"/><line style="stroke:#008000;stroke-width:1.0;" x1="2470.5" x2="2470.5" y1="138.2969" y2="243.4297"/><polygon fill="#008000" points="2470.5,243.4297,2474.5,234.4297,2470.5,238.4297,2466.5,234.4297,2470.5,243.4297" style="stroke:#008000;stroke-width:1.0;"/><text fill="#000000" font-family="sans-serif" font-size="13" lengthAdjust="spacing" textLength="46" x="2422.5" y="220.3638">actions</text><rect fill="#DDDDDD" height="79.1875" id="_legend" rx="7.5" ry="7.5" style="stroke:#000000;stroke-width:1.0;" width="161" x="2163" y="333.3203"/><text fill="#000000" font-family="sans-serif" font-size="14" font-weight="bold" lengthAdjust="spacing" textLength="5" x="2168" y="353.3154"> </text><text fill="#000000" font-family="sans-serif" font-size="14" font-weight="bold" lengthAdjust="spacing" textLength="28" x="2185" y="353.3154">line</text><text fill="#000000" filter="url(#bdrvw7xt5zgy90)" font-family="sans-serif" font-size="14" lengthAdjust="spacing" textLength="12" x="2168" y="369.6123">   </text><text fill="#000000" font-family="sans-serif" font-size="14" lengthAdjust="spacing" textLength="77" x="2184" y="369.6123">inheritance</text><text fill="#000000" filter="url(#bdrvw7xt5zgy91)" font-family="sans-serif" font-size="14" lengthAdjust="spacing" textLength="12" x="2168" y="385.9092">   </text><text fill="#000000" font-family="sans-serif" font-size="14" lengthAdjust="spacing" textLength="129" x="2184" y="385.9092">property reference</text><text fill="#000000" filter="url(#bdrvw7xt5zgy92)" font-family="sans-serif" font-size="14" lengthAdjust="spacing" textLength="12" x="2168" y="402.2061">   </text><text fill="#000000" font-family="sans-serif" font-size="14" lengthAdjust="spacing" textLength="131" x="2184" y="402.2061">discriminated class</text><line style="stroke:#000000;stroke-width:1.0;" x1="2168" x2="2319" y1="340.3203" y2="340.3203"/><line style="stroke:#000000;stroke-width:1.0;" x1="2168" x2="2319" y1="356.6172" y2="356.6172"/><line style="stroke:#000000;stroke-width:1.0;" x1="2168" x2="2319" y1="372.9141" y2="372.9141"/><line style="stroke:#000000;stroke-width:1.0;" x1="2168" x2="2319" y1="389.2109" y2="389.2109"/><line style="stroke:#000000;stroke-width:1.0;" x1="2168" x2="2319" y1="405.5078" y2="405.5078"/><line style="stroke:#000000;stroke-width:1.0;" x1="2168" x2="2168" y1="340.3203" y2="405.5078"/><line style="stroke:#000000;stroke-width:1.0;" x1="2180" x2="2180" y1="340.3203" y2="405.5078"/><line style="stroke:#000000;stroke-width:1.0;" x1="2319" x2="2319" y1="340.3203" y2="405.5078"/><!--MD5=[b27a23370c3da7b998d39ac39efa2b91]
@startuml
!pragma layout elk
hide empty fields
hide empty methods
legend
|= |= line |
|<back:black>   </back>| inheritance |
|<back:green>   </back>| property reference |
|<back:blue>   </back>| discriminated class |
endlegend
interface InventoryEntryUpdateAction [[InventoryEntryUpdateAction.svg]]  {
    action: String
}


interface InventoryEntryAddQuantityAction [[InventoryEntryAddQuantityAction.svg]]  {
    action: String
    quantity: Long
}
interface InventoryEntryChangeQuantityAction [[InventoryEntryChangeQuantityAction.svg]]  {
    action: String
    quantity: Long
}
interface InventoryEntryRemoveQuantityAction [[InventoryEntryRemoveQuantityAction.svg]]  {
    action: String
    quantity: Long
}
interface InventoryEntrySetCustomFieldAction [[InventoryEntrySetCustomFieldAction.svg]]  {
    action: String
    name: String
    value: [[Object.svg Object]]
}
interface InventoryEntrySetCustomTypeAction [[InventoryEntrySetCustomTypeAction.svg]]  {
    action: String
    type: [[TypeResourceIdentifier.svg TypeResourceIdentifier]]
    fields: [[FieldContainer.svg FieldContainer]]
}
interface InventoryEntrySetExpectedDeliveryAction [[InventoryEntrySetExpectedDeliveryAction.svg]]  {
    action: String
    expectedDelivery: DateTime
}
interface InventoryEntrySetInventoryLimitsAction [[InventoryEntrySetInventoryLimitsAction.svg]]  {
    action: String
    minCartQuantity: Long
    maxCartQuantity: Long
}
interface InventoryEntrySetKeyAction [[InventoryEntrySetKeyAction.svg]]  {
    action: String
    key: String
}
interface InventoryEntrySetReorderPointAction [[InventoryEntrySetReorderPointAction.svg]]  {
    action: String
    quantity: Integer
}
interface InventoryEntrySetReservationExpirationInMinutesAction [[InventoryEntrySetReservationExpirationInMinutesAction.svg]]  {
    action: String
    reservationExpirationInMinutes: Integer
}
interface InventoryEntrySetRestockableInDaysAction [[InventoryEntrySetRestockableInDaysAction.svg]]  {
    action: String
    restockableInDays: Long
}
interface InventoryEntrySetSafetyStockAction [[InventoryEntrySetSafetyStockAction.svg]]  {
    action: String
    quantity: Integer
}
interface InventoryEntrySetSupplyChannelAction [[InventoryEntrySetSupplyChannelAction.svg]]  {
    action: String
    supplyChannel: [[ChannelResourceIdentifier.svg ChannelResourceIdentifier]]
}
interface InventoryEntryUpdate [[InventoryEntryUpdate.svg]]  {
    version: Long
    actions: [[InventoryEntryUpdateAction.svg List<InventoryEntryUpdateAction>]]
}
InventoryEntryUpdateAction - -> InventoryEntryAddQuantityAction #blue;text:blue : "action : addQuantity"
InventoryEntryUpdateAction - -> InventoryEntryChangeQuantityAction #blue;text:blue : "action : changeQuantity"
InventoryEntryUpdateAction - -> InventoryEntryRemoveQuantityAction #blue;text:blue : "action : removeQuantity"
InventoryEntryUpdateAction - -> InventoryEntrySetCustomFieldAction #blue;text:blue : "action : setCustomField"
InventoryEntryUpdateAction - -> InventoryEntrySetCustomTypeAction #blue;text:blue : "action : setCustomType"
InventoryEntryUpdateAction - -> InventoryEntrySetExpectedDeliveryAction #blue;text:blue : "action : setExpectedDelivery"
InventoryEntryUpdateAction - -> InventoryEntrySetInventoryLimitsAction #blue;text:blue : "action : setInventoryLimits"
InventoryEntryUpdateAction - -> InventoryEntrySetKeyAction #blue;text:blue : "action : setKey"
InventoryEntryUpdateAction - -> InventoryEntrySetReorderPointAction #blue;text:blue : "action : setReorderPoint"
InventoryEntryUpdateAction - -> InventoryEntrySetReservationExpirationInMinutesAction #blue;text:blue : "action : setReservationExpirationInMinutes"
InventoryEntryUpdateAction - -> InventoryEntrySetRestockableInDaysAction #blue;text:blue : "action : setRestockableInDays"
InventoryEntryUpdateAction - -> InventoryEntrySetSafetyStockAction #blue;text:blue : "action : setSafetyStock"
InventoryEntryUpdateAction - -> InventoryEntrySetSupplyChannelAction #blue;text:blue : "action : setSupplyChannel"
InventoryEntryUpdateAction - -> InventoryEntryUpdate #green;text:green : "actions"
@enduml

PlantUML version 1.2022.13(Sat Nov 19 13:22:17 UTC 2022)
(GPL source distribution)
Java Runtime: OpenJDK Runtime Environment
JVM: OpenJDK 64-Bit Server VM
Default Encoding: UTF-8
Language: en
Country: null
--></g></svg>
