<?xml version="1.0" encoding="UTF-8" standalone="no"?><svg xmlns="http://www.w3.org/2000/svg" xmlns:xlink="http://www.w3.org/1999/xlink" contentStyleType="text/css" height="402px" preserveAspectRatio="none" style="width:3455px;height:402px;background:#FFFFFF;" version="1.1" viewBox="0 0 3455 402" width="3455px" zoomAndPan="magnify"><defs><filter height="1" id="b1e0tqxo56zq510" width="1" x="0" y="0"><feFlood flood-color="#000000" result="flood"/><feComposite in="SourceGraphic" in2="flood" operator="over"/></filter><filter height="1" id="b1e0tqxo56zq511" width="1" x="0" y="0"><feFlood flood-color="#008000" result="flood"/><feComposite in="SourceGraphic" in2="flood" operator="over"/></filter><filter height="1" id="b1e0tqxo56zq512" width="1" x="0" y="0"><feFlood flood-color="#0000FF" result="flood"/><feComposite in="SourceGraphic" in2="flood" operator="over"/></filter></defs><g><!--MD5=[f250bb9ae59046a87420cc1254bad4c1]
class InventoryEntryUpdateAction--><a href="InventoryEntryUpdateAction.svg" target="_top" title="InventoryEntryUpdateAction.svg" xlink:actuate="onRequest" xlink:href="InventoryEntryUpdateAction.svg" xlink:show="new" xlink:title="InventoryEntryUpdateAction.svg" xlink:type="simple"><g id="elem_InventoryEntryUpdateAction"><rect codeLine="10" fill="#F1F1F1" height="56.2969" id="InventoryEntryUpdateAction" rx="2.5" ry="2.5" style="stroke:#181818;stroke-width:0.5;" width="228" x="149" y="12"/><ellipse cx="164" cy="28" fill="#B4A7E5" rx="11" ry="11" style="stroke:#181818;stroke-width:1.0;"/><path d="M159.9219,23.7656 L159.9219,21.6094 L167.3125,21.6094 L167.3125,23.7656 L164.8438,23.7656 L164.8438,31.8438 L167.3125,31.8438 L167.3125,34 L159.9219,34 L159.9219,31.8438 L162.3906,31.8438 L162.3906,23.7656 L159.9219,23.7656 Z " fill="#000000"/><text fill="#000000" font-family="sans-serif" font-size="14" font-style="italic" lengthAdjust="spacing" textLength="196" x="178" y="32.8467">InventoryEntryUpdateAction</text><line style="stroke:#181818;stroke-width:0.5;" x1="150" x2="376" y1="44" y2="44"/><text fill="#000000" font-family="sans-serif" font-size="14" lengthAdjust="spacing" textLength="91" x="155" y="60.9951">action: String</text></g></a><!--MD5=[516d0575db15f2d6f69cc053ec6285a3]
class InventoryEntryAddQuantityAction--><a href="InventoryEntryAddQuantityAction.svg" target="_top" title="InventoryEntryAddQuantityAction.svg" xlink:actuate="onRequest" xlink:href="InventoryEntryAddQuantityAction.svg" xlink:show="new" xlink:title="InventoryEntryAddQuantityAction.svg" xlink:type="simple"><g id="elem_InventoryEntryAddQuantityAction"><rect codeLine="15" fill="#F1F1F1" height="72.5938" id="InventoryEntryAddQuantityAction" rx="2.5" ry="2.5" style="stroke:#181818;stroke-width:0.5;" width="264" x="2874" y="213.4297"/><ellipse cx="2889" cy="229.4297" fill="#B4A7E5" rx="11" ry="11" style="stroke:#181818;stroke-width:1.0;"/><path d="M2884.9219,225.1953 L2884.9219,223.0391 L2892.3125,223.0391 L2892.3125,225.1953 L2889.8438,225.1953 L2889.8438,233.2734 L2892.3125,233.2734 L2892.3125,235.4297 L2884.9219,235.4297 L2884.9219,233.2734 L2887.3906,233.2734 L2887.3906,225.1953 L2884.9219,225.1953 Z " fill="#000000"/><text fill="#000000" font-family="sans-serif" font-size="14" font-style="italic" lengthAdjust="spacing" textLength="232" x="2903" y="234.2764">InventoryEntryAddQuantityAction</text><line style="stroke:#181818;stroke-width:0.5;" x1="2875" x2="3137" y1="245.4297" y2="245.4297"/><text fill="#000000" font-family="sans-serif" font-size="14" lengthAdjust="spacing" textLength="91" x="2880" y="262.4248">action: String</text><text fill="#000000" font-family="sans-serif" font-size="14" lengthAdjust="spacing" textLength="98" x="2880" y="278.7217">quantity: Long</text></g></a><!--MD5=[3f9a566e3df2ea9c6ea90dafbd609c96]
class InventoryEntryChangeQuantityAction--><a href="InventoryEntryChangeQuantityAction.svg" target="_top" title="InventoryEntryChangeQuantityAction.svg" xlink:actuate="onRequest" xlink:href="InventoryEntryChangeQuantityAction.svg" xlink:show="new" xlink:title="InventoryEntryChangeQuantityAction.svg" xlink:type="simple"><g id="elem_InventoryEntryChangeQuantityAction"><rect codeLine="19" fill="#F1F1F1" height="72.5938" id="InventoryEntryChangeQuantityAction" rx="2.5" ry="2.5" style="stroke:#181818;stroke-width:0.5;" width="290" x="3158" y="213.4297"/><ellipse cx="3173" cy="229.4297" fill="#B4A7E5" rx="11" ry="11" style="stroke:#181818;stroke-width:1.0;"/><path d="M3168.9219,225.1953 L3168.9219,223.0391 L3176.3125,223.0391 L3176.3125,225.1953 L3173.8438,225.1953 L3173.8438,233.2734 L3176.3125,233.2734 L3176.3125,235.4297 L3168.9219,235.4297 L3168.9219,233.2734 L3171.3906,233.2734 L3171.3906,225.1953 L3168.9219,225.1953 Z " fill="#000000"/><text fill="#000000" font-family="sans-serif" font-size="14" font-style="italic" lengthAdjust="spacing" textLength="258" x="3187" y="234.2764">InventoryEntryChangeQuantityAction</text><line style="stroke:#181818;stroke-width:0.5;" x1="3159" x2="3447" y1="245.4297" y2="245.4297"/><text fill="#000000" font-family="sans-serif" font-size="14" lengthAdjust="spacing" textLength="91" x="3164" y="262.4248">action: String</text><text fill="#000000" font-family="sans-serif" font-size="14" lengthAdjust="spacing" textLength="98" x="3164" y="278.7217">quantity: Long</text></g></a><!--MD5=[c6eea7adabd30adcbdd23ea0fa8b3331]
class InventoryEntryRemoveQuantityAction--><a href="InventoryEntryRemoveQuantityAction.svg" target="_top" title="InventoryEntryRemoveQuantityAction.svg" xlink:actuate="onRequest" xlink:href="InventoryEntryRemoveQuantityAction.svg" xlink:show="new" xlink:title="InventoryEntryRemoveQuantityAction.svg" xlink:type="simple"><g id="elem_InventoryEntryRemoveQuantityAction"><rect codeLine="23" fill="#F1F1F1" height="72.5938" id="InventoryEntryRemoveQuantityAction" rx="2.5" ry="2.5" style="stroke:#181818;stroke-width:0.5;" width="294" x="21" y="213.4297"/><ellipse cx="36" cy="229.4297" fill="#B4A7E5" rx="11" ry="11" style="stroke:#181818;stroke-width:1.0;"/><path d="M31.9219,225.1953 L31.9219,223.0391 L39.3125,223.0391 L39.3125,225.1953 L36.8438,225.1953 L36.8438,233.2734 L39.3125,233.2734 L39.3125,235.4297 L31.9219,235.4297 L31.9219,233.2734 L34.3906,233.2734 L34.3906,225.1953 L31.9219,225.1953 Z " fill="#000000"/><text fill="#000000" font-family="sans-serif" font-size="14" font-style="italic" lengthAdjust="spacing" textLength="262" x="50" y="234.2764">InventoryEntryRemoveQuantityAction</text><line style="stroke:#181818;stroke-width:0.5;" x1="22" x2="314" y1="245.4297" y2="245.4297"/><text fill="#000000" font-family="sans-serif" font-size="14" lengthAdjust="spacing" textLength="91" x="27" y="262.4248">action: String</text><text fill="#000000" font-family="sans-serif" font-size="14" lengthAdjust="spacing" textLength="98" x="27" y="278.7217">quantity: Long</text></g></a><!--MD5=[1d6817da2e45203bd51e078bd89a58e3]
class InventoryEntrySetCustomFieldAction--><a href="InventoryEntrySetCustomFieldAction.svg" target="_top" title="InventoryEntrySetCustomFieldAction.svg" xlink:actuate="onRequest" xlink:href="InventoryEntrySetCustomFieldAction.svg" xlink:show="new" xlink:title="InventoryEntrySetCustomFieldAction.svg" xlink:type="simple"><g id="elem_InventoryEntrySetCustomFieldAction"><rect codeLine="27" fill="#F1F1F1" height="88.8906" id="InventoryEntrySetCustomFieldAction" rx="2.5" ry="2.5" style="stroke:#181818;stroke-width:0.5;" width="286" x="1237" y="213.4297"/><ellipse cx="1252" cy="229.4297" fill="#B4A7E5" rx="11" ry="11" style="stroke:#181818;stroke-width:1.0;"/><path d="M1247.9219,225.1953 L1247.9219,223.0391 L1255.3125,223.0391 L1255.3125,225.1953 L1252.8438,225.1953 L1252.8438,233.2734 L1255.3125,233.2734 L1255.3125,235.4297 L1247.9219,235.4297 L1247.9219,233.2734 L1250.3906,233.2734 L1250.3906,225.1953 L1247.9219,225.1953 Z " fill="#000000"/><text fill="#000000" font-family="sans-serif" font-size="14" font-style="italic" lengthAdjust="spacing" textLength="254" x="1266" y="234.2764">InventoryEntrySetCustomFieldAction</text><line style="stroke:#181818;stroke-width:0.5;" x1="1238" x2="1522" y1="245.4297" y2="245.4297"/><text fill="#000000" font-family="sans-serif" font-size="14" lengthAdjust="spacing" textLength="91" x="1243" y="262.4248">action: String</text><text fill="#000000" font-family="sans-serif" font-size="14" lengthAdjust="spacing" textLength="88" x="1243" y="278.7217">name: String</text><text fill="#000000" font-family="sans-serif" font-size="14" lengthAdjust="spacing" textLength="41" x="1243" y="295.0186">value:</text><a href="Object.svg" target="_top" title="Object.svg" xlink:actuate="onRequest" xlink:href="Object.svg" xlink:show="new" xlink:title="Object.svg" xlink:type="simple"><text fill="#0000FF" font-family="sans-serif" font-size="14" lengthAdjust="spacing" text-decoration="underline" textLength="45" x="1288" y="295.0186">Object</text></a></g></a><!--MD5=[8711390a1a5c0415e79d2f12d22e3987]
class InventoryEntrySetCustomTypeAction--><a href="InventoryEntrySetCustomTypeAction.svg" target="_top" title="InventoryEntrySetCustomTypeAction.svg" xlink:actuate="onRequest" xlink:href="InventoryEntrySetCustomTypeAction.svg" xlink:show="new" xlink:title="InventoryEntrySetCustomTypeAction.svg" xlink:type="simple"><g id="elem_InventoryEntrySetCustomTypeAction"><rect codeLine="32" fill="#F1F1F1" height="88.8906" id="InventoryEntrySetCustomTypeAction" rx="2.5" ry="2.5" style="stroke:#181818;stroke-width:0.5;" width="289" x="2222" y="213.4297"/><ellipse cx="2237" cy="229.4297" fill="#B4A7E5" rx="11" ry="11" style="stroke:#181818;stroke-width:1.0;"/><path d="M2232.9219,225.1953 L2232.9219,223.0391 L2240.3125,223.0391 L2240.3125,225.1953 L2237.8438,225.1953 L2237.8438,233.2734 L2240.3125,233.2734 L2240.3125,235.4297 L2232.9219,235.4297 L2232.9219,233.2734 L2235.3906,233.2734 L2235.3906,225.1953 L2232.9219,225.1953 Z " fill="#000000"/><text fill="#000000" font-family="sans-serif" font-size="14" font-style="italic" lengthAdjust="spacing" textLength="257" x="2251" y="234.2764">InventoryEntrySetCustomTypeAction</text><line style="stroke:#181818;stroke-width:0.5;" x1="2223" x2="2510" y1="245.4297" y2="245.4297"/><text fill="#000000" font-family="sans-serif" font-size="14" lengthAdjust="spacing" textLength="91" x="2228" y="262.4248">action: String</text><text fill="#000000" font-family="sans-serif" font-size="14" lengthAdjust="spacing" textLength="35" x="2228" y="278.7217">type:</text><a href="TypeResourceIdentifier.svg" target="_top" title="TypeResourceIdentifier.svg" xlink:actuate="onRequest" xlink:href="TypeResourceIdentifier.svg" xlink:show="new" xlink:title="TypeResourceIdentifier.svg" xlink:type="simple"><text fill="#0000FF" font-family="sans-serif" font-size="14" lengthAdjust="spacing" text-decoration="underline" textLength="160" x="2267" y="278.7217">TypeResourceIdentifier</text></a><text fill="#000000" font-family="sans-serif" font-size="14" lengthAdjust="spacing" textLength="41" x="2228" y="295.0186">fields:</text><a href="FieldContainer.svg" target="_top" title="FieldContainer.svg" xlink:actuate="onRequest" xlink:href="FieldContainer.svg" xlink:show="new" xlink:title="FieldContainer.svg" xlink:type="simple"><text fill="#0000FF" font-family="sans-serif" font-size="14" lengthAdjust="spacing" text-decoration="underline" textLength="99" x="2273" y="295.0186">FieldContainer</text></a></g></a><!--MD5=[c96866c75ff4844a361ba06929b32d87]
class InventoryEntrySetExpectedDeliveryAction--><a href="InventoryEntrySetExpectedDeliveryAction.svg" target="_top" title="InventoryEntrySetExpectedDeliveryAction.svg" xlink:actuate="onRequest" xlink:href="InventoryEntrySetExpectedDeliveryAction.svg" xlink:show="new" xlink:title="InventoryEntrySetExpectedDeliveryAction.svg" xlink:type="simple"><g id="elem_InventoryEntrySetExpectedDeliveryAction"><rect codeLine="37" fill="#F1F1F1" height="72.5938" id="InventoryEntrySetExpectedDeliveryAction" rx="2.5" ry="2.5" style="stroke:#181818;stroke-width:0.5;" width="323" x="2531" y="213.4297"/><ellipse cx="2546" cy="229.4297" fill="#B4A7E5" rx="11" ry="11" style="stroke:#181818;stroke-width:1.0;"/><path d="M2541.9219,225.1953 L2541.9219,223.0391 L2549.3125,223.0391 L2549.3125,225.1953 L2546.8438,225.1953 L2546.8438,233.2734 L2549.3125,233.2734 L2549.3125,235.4297 L2541.9219,235.4297 L2541.9219,233.2734 L2544.3906,233.2734 L2544.3906,225.1953 L2541.9219,225.1953 Z " fill="#000000"/><text fill="#000000" font-family="sans-serif" font-size="14" font-style="italic" lengthAdjust="spacing" textLength="291" x="2560" y="234.2764">InventoryEntrySetExpectedDeliveryAction</text><line style="stroke:#181818;stroke-width:0.5;" x1="2532" x2="2853" y1="245.4297" y2="245.4297"/><text fill="#000000" font-family="sans-serif" font-size="14" lengthAdjust="spacing" textLength="91" x="2537" y="262.4248">action: String</text><text fill="#000000" font-family="sans-serif" font-size="14" lengthAdjust="spacing" textLength="195" x="2537" y="278.7217">expectedDelivery: DateTime</text></g></a><!--MD5=[6281a2757ff8f49b7ab8d44598da1071]
class InventoryEntrySetInventoryLimitsAction--><a href="InventoryEntrySetInventoryLimitsAction.svg" target="_top" title="InventoryEntrySetInventoryLimitsAction.svg" xlink:actuate="onRequest" xlink:href="InventoryEntrySetInventoryLimitsAction.svg" xlink:show="new" xlink:title="InventoryEntrySetInventoryLimitsAction.svg" xlink:type="simple"><g id="elem_InventoryEntrySetInventoryLimitsAction"><rect codeLine="41" fill="#F1F1F1" height="88.8906" id="InventoryEntrySetInventoryLimitsAction" rx="2.5" ry="2.5" style="stroke:#181818;stroke-width:0.5;" width="306" x="1896" y="213.4297"/><ellipse cx="1911" cy="229.4297" fill="#B4A7E5" rx="11" ry="11" style="stroke:#181818;stroke-width:1.0;"/><path d="M1906.9219,225.1953 L1906.9219,223.0391 L1914.3125,223.0391 L1914.3125,225.1953 L1911.8438,225.1953 L1911.8438,233.2734 L1914.3125,233.2734 L1914.3125,235.4297 L1906.9219,235.4297 L1906.9219,233.2734 L1909.3906,233.2734 L1909.3906,225.1953 L1906.9219,225.1953 Z " fill="#000000"/><text fill="#000000" font-family="sans-serif" font-size="14" font-style="italic" lengthAdjust="spacing" textLength="274" x="1925" y="234.2764">InventoryEntrySetInventoryLimitsAction</text><line style="stroke:#181818;stroke-width:0.5;" x1="1897" x2="2201" y1="245.4297" y2="245.4297"/><text fill="#000000" font-family="sans-serif" font-size="14" lengthAdjust="spacing" textLength="91" x="1902" y="262.4248">action: String</text><text fill="#000000" font-family="sans-serif" font-size="14" lengthAdjust="spacing" textLength="153" x="1902" y="278.7217">minCartQuantity: Long</text><text fill="#000000" font-family="sans-serif" font-size="14" lengthAdjust="spacing" textLength="156" x="1902" y="295.0186">maxCartQuantity: Long</text></g></a><!--MD5=[630dd01891aa24d9e38352f5b7443773]
class InventoryEntrySetKeyAction--><a href="InventoryEntrySetKeyAction.svg" target="_top" title="InventoryEntrySetKeyAction.svg" xlink:actuate="onRequest" xlink:href="InventoryEntrySetKeyAction.svg" xlink:show="new" xlink:title="InventoryEntrySetKeyAction.svg" xlink:type="simple"><g id="elem_InventoryEntrySetKeyAction"><rect codeLine="46" fill="#F1F1F1" height="72.5938" id="InventoryEntrySetKeyAction" rx="2.5" ry="2.5" style="stroke:#181818;stroke-width:0.5;" width="227" x="664" y="213.4297"/><ellipse cx="679" cy="229.4297" fill="#B4A7E5" rx="11" ry="11" style="stroke:#181818;stroke-width:1.0;"/><path d="M674.9219,225.1953 L674.9219,223.0391 L682.3125,223.0391 L682.3125,225.1953 L679.8438,225.1953 L679.8438,233.2734 L682.3125,233.2734 L682.3125,235.4297 L674.9219,235.4297 L674.9219,233.2734 L677.3906,233.2734 L677.3906,225.1953 L674.9219,225.1953 Z " fill="#000000"/><text fill="#000000" font-family="sans-serif" font-size="14" font-style="italic" lengthAdjust="spacing" textLength="195" x="693" y="234.2764">InventoryEntrySetKeyAction</text><line style="stroke:#181818;stroke-width:0.5;" x1="665" x2="890" y1="245.4297" y2="245.4297"/><text fill="#000000" font-family="sans-serif" font-size="14" lengthAdjust="spacing" textLength="91" x="670" y="262.4248">action: String</text><text fill="#000000" font-family="sans-serif" font-size="14" lengthAdjust="spacing" textLength="73" x="670" y="278.7217">key: String</text></g></a><!--MD5=[d5a2a0f501089300ebb353612a96ae27]
class InventoryEntrySetRestockableInDaysAction--><a href="InventoryEntrySetRestockableInDaysAction.svg" target="_top" title="InventoryEntrySetRestockableInDaysAction.svg" xlink:actuate="onRequest" xlink:href="InventoryEntrySetRestockableInDaysAction.svg" xlink:show="new" xlink:title="InventoryEntrySetRestockableInDaysAction.svg" xlink:type="simple"><g id="elem_InventoryEntrySetRestockableInDaysAction"><rect codeLine="50" fill="#F1F1F1" height="72.5938" id="InventoryEntrySetRestockableInDaysAction" rx="2.5" ry="2.5" style="stroke:#181818;stroke-width:0.5;" width="333" x="1543" y="213.4297"/><ellipse cx="1558" cy="229.4297" fill="#B4A7E5" rx="11" ry="11" style="stroke:#181818;stroke-width:1.0;"/><path d="M1553.9219,225.1953 L1553.9219,223.0391 L1561.3125,223.0391 L1561.3125,225.1953 L1558.8438,225.1953 L1558.8438,233.2734 L1561.3125,233.2734 L1561.3125,235.4297 L1553.9219,235.4297 L1553.9219,233.2734 L1556.3906,233.2734 L1556.3906,225.1953 L1553.9219,225.1953 Z " fill="#000000"/><text fill="#000000" font-family="sans-serif" font-size="14" font-style="italic" lengthAdjust="spacing" textLength="301" x="1572" y="234.2764">InventoryEntrySetRestockableInDaysAction</text><line style="stroke:#181818;stroke-width:0.5;" x1="1544" x2="1875" y1="245.4297" y2="245.4297"/><text fill="#000000" font-family="sans-serif" font-size="14" lengthAdjust="spacing" textLength="91" x="1549" y="262.4248">action: String</text><text fill="#000000" font-family="sans-serif" font-size="14" lengthAdjust="spacing" textLength="170" x="1549" y="278.7217">restockableInDays: Long</text></g></a><!--MD5=[3b725f41608cef1574c0d14be7b2a7fa]
class InventoryEntrySetSupplyChannelAction--><a href="InventoryEntrySetSupplyChannelAction.svg" target="_top" title="InventoryEntrySetSupplyChannelAction.svg" xlink:actuate="onRequest" xlink:href="InventoryEntrySetSupplyChannelAction.svg" xlink:show="new" xlink:title="InventoryEntrySetSupplyChannelAction.svg" xlink:type="simple"><g id="elem_InventoryEntrySetSupplyChannelAction"><rect codeLine="54" fill="#F1F1F1" height="72.5938" id="InventoryEntrySetSupplyChannelAction" rx="2.5" ry="2.5" style="stroke:#181818;stroke-width:0.5;" width="306" x="911" y="213.4297"/><ellipse cx="926.45" cy="229.4297" fill="#B4A7E5" rx="11" ry="11" style="stroke:#181818;stroke-width:1.0;"/><path d="M922.3719,225.1953 L922.3719,223.0391 L929.7625,223.0391 L929.7625,225.1953 L927.2938,225.1953 L927.2938,233.2734 L929.7625,233.2734 L929.7625,235.4297 L922.3719,235.4297 L922.3719,233.2734 L924.8406,233.2734 L924.8406,225.1953 L922.3719,225.1953 Z " fill="#000000"/><text fill="#000000" font-family="sans-serif" font-size="14" font-style="italic" lengthAdjust="spacing" textLength="273" x="940.55" y="234.2764">InventoryEntrySetSupplyChannelAction</text><line style="stroke:#181818;stroke-width:0.5;" x1="912" x2="1216" y1="245.4297" y2="245.4297"/><text fill="#000000" font-family="sans-serif" font-size="14" lengthAdjust="spacing" textLength="91" x="917" y="262.4248">action: String</text><text fill="#000000" font-family="sans-serif" font-size="14" lengthAdjust="spacing" textLength="107" x="917" y="278.7217">supplyChannel:</text><a href="ChannelResourceIdentifier.svg" target="_top" title="ChannelResourceIdentifier.svg" xlink:actuate="onRequest" xlink:href="ChannelResourceIdentifier.svg" xlink:show="new" xlink:title="ChannelResourceIdentifier.svg" xlink:type="simple"><text fill="#0000FF" font-family="sans-serif" font-size="14" lengthAdjust="spacing" text-decoration="underline" textLength="183" x="1028" y="278.7217">ChannelResourceIdentifier</text></a></g></a><!--MD5=[e238dd757eb5a3e7d7664bc0600b04ec]
class InventoryEntryUpdate--><a href="InventoryEntryUpdate.svg" target="_top" title="InventoryEntryUpdate.svg" xlink:actuate="onRequest" xlink:href="InventoryEntryUpdate.svg" xlink:show="new" xlink:title="InventoryEntryUpdate.svg" xlink:type="simple"><g id="elem_InventoryEntryUpdate"><rect codeLine="58" fill="#F1F1F1" height="72.5938" id="InventoryEntryUpdate" rx="2.5" ry="2.5" style="stroke:#181818;stroke-width:0.5;" width="309" x="335" y="213.4297"/><ellipse cx="409.25" cy="229.4297" fill="#B4A7E5" rx="11" ry="11" style="stroke:#181818;stroke-width:1.0;"/><path d="M405.1719,225.1953 L405.1719,223.0391 L412.5625,223.0391 L412.5625,225.1953 L410.0938,225.1953 L410.0938,233.2734 L412.5625,233.2734 L412.5625,235.4297 L405.1719,235.4297 L405.1719,233.2734 L407.6406,233.2734 L407.6406,225.1953 L405.1719,225.1953 Z " fill="#000000"/><text fill="#000000" font-family="sans-serif" font-size="14" font-style="italic" lengthAdjust="spacing" textLength="152" x="429.75" y="234.2764">InventoryEntryUpdate</text><line style="stroke:#181818;stroke-width:0.5;" x1="336" x2="643" y1="245.4297" y2="245.4297"/><text fill="#000000" font-family="sans-serif" font-size="14" lengthAdjust="spacing" textLength="93" x="341" y="262.4248">version: Long</text><text fill="#000000" font-family="sans-serif" font-size="14" lengthAdjust="spacing" textLength="55" x="341" y="278.7217">actions:</text><a href="InventoryEntryUpdateAction.svg" target="_top" title="InventoryEntryUpdateAction.svg" xlink:actuate="onRequest" xlink:href="InventoryEntryUpdateAction.svg" xlink:show="new" xlink:title="InventoryEntryUpdateAction.svg" xlink:type="simple"><text fill="#0000FF" font-family="sans-serif" font-size="14" lengthAdjust="spacing" text-decoration="underline" textLength="238" x="400" y="278.7217">List&lt;InventoryEntryUpdateAction&gt;</text></a></g></a><line style="stroke:#0000FF;stroke-width:1.0;" x1="339" x2="339" y1="68.2969" y2="88.2969"/><line style="stroke:#0000FF;stroke-width:1.0;" x1="339" x2="3006" y1="88.2969" y2="88.2969"/><line style="stroke:#0000FF;stroke-width:1.0;" x1="3006" x2="3006" y1="88.2969" y2="213.4297"/><polygon fill="#0000FF" points="3006,213.4297,3010,204.4297,3006,208.4297,3002,204.4297,3006,213.4297" style="stroke:#0000FF;stroke-width:1.0;"/><text fill="#000000" font-family="sans-serif" font-size="13" lengthAdjust="spacing" textLength="129" x="2875" y="190.3638">action : addQuantity</text><line style="stroke:#0000FF;stroke-width:1.0;" x1="358" x2="358" y1="68.2969" y2="78.2969"/><line style="stroke:#0000FF;stroke-width:1.0;" x1="358" x2="3303" y1="78.2969" y2="78.2969"/><line style="stroke:#0000FF;stroke-width:1.0;" x1="3303" x2="3303" y1="78.2969" y2="213.4297"/><polygon fill="#0000FF" points="3303,213.4297,3307,204.4297,3303,208.4297,3299,204.4297,3303,213.4297" style="stroke:#0000FF;stroke-width:1.0;"/><text fill="#000000" font-family="sans-serif" font-size="13" lengthAdjust="spacing" textLength="152" x="3149" y="190.3638">action : changeQuantity</text><line style="stroke:#0000FF;stroke-width:1.0;" x1="168" x2="168" y1="68.2969" y2="213.4297"/><polygon fill="#0000FF" points="168,213.4297,172,204.4297,168,208.4297,164,204.4297,168,213.4297" style="stroke:#0000FF;stroke-width:1.0;"/><text fill="#000000" font-family="sans-serif" font-size="13" lengthAdjust="spacing" textLength="154" x="12" y="190.3638">action : removeQuantity</text><line style="stroke:#0000FF;stroke-width:1.0;" x1="244" x2="244" y1="68.2969" y2="138.2969"/><line style="stroke:#0000FF;stroke-width:1.0;" x1="244" x2="1380" y1="138.2969" y2="138.2969"/><line style="stroke:#0000FF;stroke-width:1.0;" x1="1380" x2="1380" y1="138.2969" y2="213.4297"/><polygon fill="#0000FF" points="1380,213.4297,1384,204.4297,1380,208.4297,1376,204.4297,1380,213.4297" style="stroke:#0000FF;stroke-width:1.0;"/><text fill="#000000" font-family="sans-serif" font-size="13" lengthAdjust="spacing" textLength="150" x="1228" y="190.3638">action : setCustomField</text><line style="stroke:#0000FF;stroke-width:1.0;" x1="301" x2="301" y1="68.2969" y2="108.2969"/><line style="stroke:#0000FF;stroke-width:1.0;" x1="301" x2="2366.5" y1="108.2969" y2="108.2969"/><line style="stroke:#0000FF;stroke-width:1.0;" x1="2366.5" x2="2366.5" y1="108.2969" y2="213.4297"/><polygon fill="#0000FF" points="2366.5,213.4297,2370.5,204.4297,2366.5,208.4297,2362.5,204.4297,2366.5,213.4297" style="stroke:#0000FF;stroke-width:1.0;"/><text fill="#000000" font-family="sans-serif" font-size="13" lengthAdjust="spacing" textLength="151" x="2213.5" y="190.3638">action : setCustomType</text><line style="stroke:#0000FF;stroke-width:1.0;" x1="320" x2="320" y1="68.2969" y2="98.2969"/><line style="stroke:#0000FF;stroke-width:1.0;" x1="320" x2="2692.5" y1="98.2969" y2="98.2969"/><line style="stroke:#0000FF;stroke-width:1.0;" x1="2692.5" x2="2692.5" y1="98.2969" y2="213.4297"/><polygon fill="#0000FF" points="2692.5,213.4297,2696.5,204.4297,2692.5,208.4297,2688.5,204.4297,2692.5,213.4297" style="stroke:#0000FF;stroke-width:1.0;"/><text fill="#000000" font-family="sans-serif" font-size="13" lengthAdjust="spacing" textLength="181" x="2509.5" y="190.3638">action : setExpectedDelivery</text><line style="stroke:#0000FF;stroke-width:1.0;" x1="282" x2="282" y1="68.2969" y2="118.2969"/><line style="stroke:#0000FF;stroke-width:1.0;" x1="282" x2="2049" y1="118.2969" y2="118.2969"/><line style="stroke:#0000FF;stroke-width:1.0;" x1="2049" x2="2049" y1="118.2969" y2="213.4297"/><polygon fill="#0000FF" points="2049,213.4297,2053,204.4297,2049,208.4297,2045,204.4297,2049,213.4297" style="stroke:#0000FF;stroke-width:1.0;"/><text fill="#000000" font-family="sans-serif" font-size="13" lengthAdjust="spacing" textLength="168" x="1879" y="190.3638">action : setInventoryLimits</text><line style="stroke:#0000FF;stroke-width:1.0;" x1="206" x2="206" y1="68.2969" y2="158.2969"/><line style="stroke:#0000FF;stroke-width:1.0;" x1="206" x2="777.5" y1="158.2969" y2="158.2969"/><line style="stroke:#0000FF;stroke-width:1.0;" x1="777.5" x2="777.5" y1="158.2969" y2="213.4297"/><polygon fill="#0000FF" points="777.5,213.4297,781.5,204.4297,777.5,208.4297,773.5,204.4297,777.5,213.4297" style="stroke:#0000FF;stroke-width:1.0;"/><text fill="#000000" font-family="sans-serif" font-size="13" lengthAdjust="spacing" textLength="94" x="681.5" y="190.3638">action : setKey</text><line style="stroke:#0000FF;stroke-width:1.0;" x1="263" x2="263" y1="68.2969" y2="128.2969"/><line style="stroke:#0000FF;stroke-width:1.0;" x1="263" x2="1709.5" y1="128.2969" y2="128.2969"/><line style="stroke:#0000FF;stroke-width:1.0;" x1="1709.5" x2="1709.5" y1="128.2969" y2="213.4297"/><polygon fill="#0000FF" points="1709.5,213.4297,1713.5,204.4297,1709.5,208.4297,1705.5,204.4297,1709.5,213.4297" style="stroke:#0000FF;stroke-width:1.0;"/><text fill="#000000" font-family="sans-serif" font-size="13" lengthAdjust="spacing" textLength="191" x="1516.5" y="190.3638">action : setRestockableInDays</text><line style="stroke:#0000FF;stroke-width:1.0;" x1="225" x2="225" y1="68.2969" y2="148.2969"/><line style="stroke:#0000FF;stroke-width:1.0;" x1="225" x2="1064" y1="148.2969" y2="148.2969"/><line style="stroke:#0000FF;stroke-width:1.0;" x1="1064" x2="1064" y1="148.2969" y2="213.4297"/><polygon fill="#0000FF" points="1064,213.4297,1068,204.4297,1064,208.4297,1060,204.4297,1064,213.4297" style="stroke:#0000FF;stroke-width:1.0;"/><text fill="#000000" font-family="sans-serif" font-size="13" lengthAdjust="spacing" textLength="166" x="896" y="190.3638">action : setSupplyChannel</text><line style="stroke:#008000;stroke-width:1.0;" x1="187" x2="187" y1="68.2969" y2="168.2969"/><line style="stroke:#008000;stroke-width:1.0;" x1="187" x2="489.5" y1="168.2969" y2="168.2969"/><line style="stroke:#008000;stroke-width:1.0;" x1="489.5" x2="489.5" y1="168.2969" y2="213.4297"/><polygon fill="#008000" points="489.5,213.4297,493.5,204.4297,489.5,208.4297,485.5,204.4297,489.5,213.4297" style="stroke:#008000;stroke-width:1.0;"/><text fill="#000000" font-family="sans-serif" font-size="13" lengthAdjust="spacing" textLength="46" x="441.5" y="190.3638">actions</text><rect fill="#DDDDDD" height="79.1875" id="_legend" rx="7.5" ry="7.5" style="stroke:#000000;stroke-width:1.0;" width="161" x="1637" y="303.3203"/><text fill="#000000" font-family="sans-serif" font-size="14" font-weight="bold" lengthAdjust="spacing" textLength="5" x="1642" y="323.3154"> </text><text fill="#000000" font-family="sans-serif" font-size="14" font-weight="bold" lengthAdjust="spacing" textLength="28" x="1659" y="323.3154">line</text><text fill="#000000" filter="url(#b1e0tqxo56zq510)" font-family="sans-serif" font-size="14" lengthAdjust="spacing" textLength="12" x="1642" y="339.6123">   </text><text fill="#000000" font-family="sans-serif" font-size="14" lengthAdjust="spacing" textLength="77" x="1658" y="339.6123">inheritance</text><text fill="#000000" filter="url(#b1e0tqxo56zq511)" font-family="sans-serif" font-size="14" lengthAdjust="spacing" textLength="12" x="1642" y="355.9092">   </text><text fill="#000000" font-family="sans-serif" font-size="14" lengthAdjust="spacing" textLength="129" x="1658" y="355.9092">property reference</text><text fill="#000000" filter="url(#b1e0tqxo56zq512)" font-family="sans-serif" font-size="14" lengthAdjust="spacing" textLength="12" x="1642" y="372.2061">   </text><text fill="#000000" font-family="sans-serif" font-size="14" lengthAdjust="spacing" textLength="131" x="1658" y="372.2061">discriminated class</text><line style="stroke:#000000;stroke-width:1.0;" x1="1642" x2="1793" y1="310.3203" y2="310.3203"/><line style="stroke:#000000;stroke-width:1.0;" x1="1642" x2="1793" y1="326.6172" y2="326.6172"/><line style="stroke:#000000;stroke-width:1.0;" x1="1642" x2="1793" y1="342.9141" y2="342.9141"/><line style="stroke:#000000;stroke-width:1.0;" x1="1642" x2="1793" y1="359.2109" y2="359.2109"/><line style="stroke:#000000;stroke-width:1.0;" x1="1642" x2="1793" y1="375.5078" y2="375.5078"/><line style="stroke:#000000;stroke-width:1.0;" x1="1642" x2="1642" y1="310.3203" y2="375.5078"/><line style="stroke:#000000;stroke-width:1.0;" x1="1654" x2="1654" y1="310.3203" y2="375.5078"/><line style="stroke:#000000;stroke-width:1.0;" x1="1793" x2="1793" y1="310.3203" y2="375.5078"/><!--MD5=[50d49355b6691769d43e2652c7113b88]
@startuml
!pragma layout elk
hide empty fields
hide empty methods
legend
|= |= line |
|<back:black>   </back>| inheritance |
|<back:green>   </back>| property reference |
|<back:blue>   </back>| discriminated class |
endlegend
interface InventoryEntryUpdateAction [[InventoryEntryUpdateAction.svg]]  {
    action: String
}


interface InventoryEntryAddQuantityAction [[InventoryEntryAddQuantityAction.svg]]  {
    action: String
    quantity: Long
}
interface InventoryEntryChangeQuantityAction [[InventoryEntryChangeQuantityAction.svg]]  {
    action: String
    quantity: Long
}
interface InventoryEntryRemoveQuantityAction [[InventoryEntryRemoveQuantityAction.svg]]  {
    action: String
    quantity: Long
}
interface InventoryEntrySetCustomFieldAction [[InventoryEntrySetCustomFieldAction.svg]]  {
    action: String
    name: String
    value: [[Object.svg Object]]
}
interface InventoryEntrySetCustomTypeAction [[InventoryEntrySetCustomTypeAction.svg]]  {
    action: String
    type: [[TypeResourceIdentifier.svg TypeResourceIdentifier]]
    fields: [[FieldContainer.svg FieldContainer]]
}
interface InventoryEntrySetExpectedDeliveryAction [[InventoryEntrySetExpectedDeliveryAction.svg]]  {
    action: String
    expectedDelivery: DateTime
}
interface InventoryEntrySetInventoryLimitsAction [[InventoryEntrySetInventoryLimitsAction.svg]]  {
    action: String
    minCartQuantity: Long
    maxCartQuantity: Long
}
interface InventoryEntrySetKeyAction [[InventoryEntrySetKeyAction.svg]]  {
    action: String
    key: String
}
interface InventoryEntrySetRestockableInDaysAction [[InventoryEntrySetRestockableInDaysAction.svg]]  {
    action: String
    restockableInDays: Long
}
interface InventoryEntrySetSupplyChannelAction [[InventoryEntrySetSupplyChannelAction.svg]]  {
    action: String
    supplyChannel: [[ChannelResourceIdentifier.svg ChannelResourceIdentifier]]
}
interface InventoryEntryUpdate [[InventoryEntryUpdate.svg]]  {
    version: Long
    actions: [[InventoryEntryUpdateAction.svg List<InventoryEntryUpdateAction>]]
}
InventoryEntryUpdateAction - -> InventoryEntryAddQuantityAction #blue;text:blue : "action : addQuantity"
InventoryEntryUpdateAction - -> InventoryEntryChangeQuantityAction #blue;text:blue : "action : changeQuantity"
InventoryEntryUpdateAction - -> InventoryEntryRemoveQuantityAction #blue;text:blue : "action : removeQuantity"
InventoryEntryUpdateAction - -> InventoryEntrySetCustomFieldAction #blue;text:blue : "action : setCustomField"
InventoryEntryUpdateAction - -> InventoryEntrySetCustomTypeAction #blue;text:blue : "action : setCustomType"
InventoryEntryUpdateAction - -> InventoryEntrySetExpectedDeliveryAction #blue;text:blue : "action : setExpectedDelivery"
InventoryEntryUpdateAction - -> InventoryEntrySetInventoryLimitsAction #blue;text:blue : "action : setInventoryLimits"
InventoryEntryUpdateAction - -> InventoryEntrySetKeyAction #blue;text:blue : "action : setKey"
InventoryEntryUpdateAction - -> InventoryEntrySetRestockableInDaysAction #blue;text:blue : "action : setRestockableInDays"
InventoryEntryUpdateAction - -> InventoryEntrySetSupplyChannelAction #blue;text:blue : "action : setSupplyChannel"
InventoryEntryUpdateAction - -> InventoryEntryUpdate #green;text:green : "actions"
@enduml

PlantUML version 1.2022.13(Sat Nov 19 13:22:17 UTC 2022)
(GPL source distribution)
Java Runtime: OpenJDK Runtime Environment
JVM: OpenJDK 64-Bit Server VM
Default Encoding: UTF-8
Language: en
Country: null
--></g></svg>
