<?xml version="1.0" encoding="UTF-8" standalone="no"?><svg xmlns="http://www.w3.org/2000/svg" xmlns:xlink="http://www.w3.org/1999/xlink" contentStyleType="text/css" height="392px" preserveAspectRatio="none" style="width:3129px;height:392px;background:#FFFFFF;" version="1.1" viewBox="0 0 3129 392" width="3129px" zoomAndPan="magnify"><defs><filter height="1" id="bkywh4hl474rp0" width="1" x="0" y="0"><feFlood flood-color="#000000" result="flood"/><feComposite in="SourceGraphic" in2="flood" operator="over"/></filter><filter height="1" id="bkywh4hl474rp1" width="1" x="0" y="0"><feFlood flood-color="#008000" result="flood"/><feComposite in="SourceGraphic" in2="flood" operator="over"/></filter><filter height="1" id="bkywh4hl474rp2" width="1" x="0" y="0"><feFlood flood-color="#0000FF" result="flood"/><feComposite in="SourceGraphic" in2="flood" operator="over"/></filter></defs><g><!--MD5=[f250bb9ae59046a87420cc1254bad4c1]
class InventoryEntryUpdateAction--><a href="InventoryEntryUpdateAction.svg" target="_top" title="InventoryEntryUpdateAction.svg" xlink:actuate="onRequest" xlink:href="InventoryEntryUpdateAction.svg" xlink:show="new" xlink:title="InventoryEntryUpdateAction.svg" xlink:type="simple"><g id="elem_InventoryEntryUpdateAction"><rect codeLine="10" fill="#F1F1F1" height="56.2969" id="InventoryEntryUpdateAction" rx="2.5" ry="2.5" style="stroke:#181818;stroke-width:0.5;" width="228" x="147.2727" y="12"/><ellipse cx="162.2727" cy="28" fill="#B4A7E5" rx="11" ry="11" style="stroke:#181818;stroke-width:1.0;"/><path d="M158.1946,23.7656 L158.1946,21.6094 L165.5852,21.6094 L165.5852,23.7656 L163.1165,23.7656 L163.1165,31.8438 L165.5852,31.8438 L165.5852,34 L158.1946,34 L158.1946,31.8438 L160.6634,31.8438 L160.6634,23.7656 L158.1946,23.7656 Z " fill="#000000"/><text fill="#000000" font-family="sans-serif" font-size="14" font-style="italic" lengthAdjust="spacing" textLength="196" x="176.2727" y="32.8467">InventoryEntryUpdateAction</text><line style="stroke:#181818;stroke-width:0.5;" x1="148.2727" x2="374.2727" y1="44" y2="44"/><text fill="#000000" font-family="sans-serif" font-size="14" lengthAdjust="spacing" textLength="91" x="153.2727" y="60.9951">action: String</text></g></a><!--MD5=[516d0575db15f2d6f69cc053ec6285a3]
class InventoryEntryAddQuantityAction--><a href="InventoryEntryAddQuantityAction.svg" target="_top" title="InventoryEntryAddQuantityAction.svg" xlink:actuate="onRequest" xlink:href="InventoryEntryAddQuantityAction.svg" xlink:show="new" xlink:title="InventoryEntryAddQuantityAction.svg" xlink:type="simple"><g id="elem_InventoryEntryAddQuantityAction"><rect codeLine="15" fill="#F1F1F1" height="72.5938" id="InventoryEntryAddQuantityAction" rx="2.5" ry="2.5" style="stroke:#181818;stroke-width:0.5;" width="264" x="2548" y="203.4297"/><ellipse cx="2563" cy="219.4297" fill="#B4A7E5" rx="11" ry="11" style="stroke:#181818;stroke-width:1.0;"/><path d="M2558.9219,215.1953 L2558.9219,213.0391 L2566.3125,213.0391 L2566.3125,215.1953 L2563.8438,215.1953 L2563.8438,223.2734 L2566.3125,223.2734 L2566.3125,225.4297 L2558.9219,225.4297 L2558.9219,223.2734 L2561.3906,223.2734 L2561.3906,215.1953 L2558.9219,215.1953 Z " fill="#000000"/><text fill="#000000" font-family="sans-serif" font-size="14" font-style="italic" lengthAdjust="spacing" textLength="232" x="2577" y="224.2764">InventoryEntryAddQuantityAction</text><line style="stroke:#181818;stroke-width:0.5;" x1="2549" x2="2811" y1="235.4297" y2="235.4297"/><text fill="#000000" font-family="sans-serif" font-size="14" lengthAdjust="spacing" textLength="91" x="2554" y="252.4248">action: String</text><text fill="#000000" font-family="sans-serif" font-size="14" lengthAdjust="spacing" textLength="98" x="2554" y="268.7217">quantity: Long</text></g></a><!--MD5=[3f9a566e3df2ea9c6ea90dafbd609c96]
class InventoryEntryChangeQuantityAction--><a href="InventoryEntryChangeQuantityAction.svg" target="_top" title="InventoryEntryChangeQuantityAction.svg" xlink:actuate="onRequest" xlink:href="InventoryEntryChangeQuantityAction.svg" xlink:show="new" xlink:title="InventoryEntryChangeQuantityAction.svg" xlink:type="simple"><g id="elem_InventoryEntryChangeQuantityAction"><rect codeLine="19" fill="#F1F1F1" height="72.5938" id="InventoryEntryChangeQuantityAction" rx="2.5" ry="2.5" style="stroke:#181818;stroke-width:0.5;" width="290" x="2832" y="203.4297"/><ellipse cx="2847" cy="219.4297" fill="#B4A7E5" rx="11" ry="11" style="stroke:#181818;stroke-width:1.0;"/><path d="M2842.9219,215.1953 L2842.9219,213.0391 L2850.3125,213.0391 L2850.3125,215.1953 L2847.8438,215.1953 L2847.8438,223.2734 L2850.3125,223.2734 L2850.3125,225.4297 L2842.9219,225.4297 L2842.9219,223.2734 L2845.3906,223.2734 L2845.3906,215.1953 L2842.9219,215.1953 Z " fill="#000000"/><text fill="#000000" font-family="sans-serif" font-size="14" font-style="italic" lengthAdjust="spacing" textLength="258" x="2861" y="224.2764">InventoryEntryChangeQuantityAction</text><line style="stroke:#181818;stroke-width:0.5;" x1="2833" x2="3121" y1="235.4297" y2="235.4297"/><text fill="#000000" font-family="sans-serif" font-size="14" lengthAdjust="spacing" textLength="91" x="2838" y="252.4248">action: String</text><text fill="#000000" font-family="sans-serif" font-size="14" lengthAdjust="spacing" textLength="98" x="2838" y="268.7217">quantity: Long</text></g></a><!--MD5=[c6eea7adabd30adcbdd23ea0fa8b3331]
class InventoryEntryRemoveQuantityAction--><a href="InventoryEntryRemoveQuantityAction.svg" target="_top" title="InventoryEntryRemoveQuantityAction.svg" xlink:actuate="onRequest" xlink:href="InventoryEntryRemoveQuantityAction.svg" xlink:show="new" xlink:title="InventoryEntryRemoveQuantityAction.svg" xlink:type="simple"><g id="elem_InventoryEntryRemoveQuantityAction"><rect codeLine="23" fill="#F1F1F1" height="72.5938" id="InventoryEntryRemoveQuantityAction" rx="2.5" ry="2.5" style="stroke:#181818;stroke-width:0.5;" width="294" x="21" y="203.4297"/><ellipse cx="36" cy="219.4297" fill="#B4A7E5" rx="11" ry="11" style="stroke:#181818;stroke-width:1.0;"/><path d="M31.9219,215.1953 L31.9219,213.0391 L39.3125,213.0391 L39.3125,215.1953 L36.8438,215.1953 L36.8438,223.2734 L39.3125,223.2734 L39.3125,225.4297 L31.9219,225.4297 L31.9219,223.2734 L34.3906,223.2734 L34.3906,215.1953 L31.9219,215.1953 Z " fill="#000000"/><text fill="#000000" font-family="sans-serif" font-size="14" font-style="italic" lengthAdjust="spacing" textLength="262" x="50" y="224.2764">InventoryEntryRemoveQuantityAction</text><line style="stroke:#181818;stroke-width:0.5;" x1="22" x2="314" y1="235.4297" y2="235.4297"/><text fill="#000000" font-family="sans-serif" font-size="14" lengthAdjust="spacing" textLength="91" x="27" y="252.4248">action: String</text><text fill="#000000" font-family="sans-serif" font-size="14" lengthAdjust="spacing" textLength="98" x="27" y="268.7217">quantity: Long</text></g></a><!--MD5=[1d6817da2e45203bd51e078bd89a58e3]
class InventoryEntrySetCustomFieldAction--><a href="InventoryEntrySetCustomFieldAction.svg" target="_top" title="InventoryEntrySetCustomFieldAction.svg" xlink:actuate="onRequest" xlink:href="InventoryEntrySetCustomFieldAction.svg" xlink:show="new" xlink:title="InventoryEntrySetCustomFieldAction.svg" xlink:type="simple"><g id="elem_InventoryEntrySetCustomFieldAction"><rect codeLine="27" fill="#F1F1F1" height="88.8906" id="InventoryEntrySetCustomFieldAction" rx="2.5" ry="2.5" style="stroke:#181818;stroke-width:0.5;" width="286" x="1017" y="203.4297"/><ellipse cx="1032" cy="219.4297" fill="#B4A7E5" rx="11" ry="11" style="stroke:#181818;stroke-width:1.0;"/><path d="M1027.9219,215.1953 L1027.9219,213.0391 L1035.3125,213.0391 L1035.3125,215.1953 L1032.8438,215.1953 L1032.8438,223.2734 L1035.3125,223.2734 L1035.3125,225.4297 L1027.9219,225.4297 L1027.9219,223.2734 L1030.3906,223.2734 L1030.3906,215.1953 L1027.9219,215.1953 Z " fill="#000000"/><text fill="#000000" font-family="sans-serif" font-size="14" font-style="italic" lengthAdjust="spacing" textLength="254" x="1046" y="224.2764">InventoryEntrySetCustomFieldAction</text><line style="stroke:#181818;stroke-width:0.5;" x1="1018" x2="1302" y1="235.4297" y2="235.4297"/><text fill="#000000" font-family="sans-serif" font-size="14" lengthAdjust="spacing" textLength="91" x="1023" y="252.4248">action: String</text><text fill="#000000" font-family="sans-serif" font-size="14" lengthAdjust="spacing" textLength="88" x="1023" y="268.7217">name: String</text><text fill="#000000" font-family="sans-serif" font-size="14" lengthAdjust="spacing" textLength="41" x="1023" y="285.0186">value:</text><a href="Object.svg" target="_top" title="Object.svg" xlink:actuate="onRequest" xlink:href="Object.svg" xlink:show="new" xlink:title="Object.svg" xlink:type="simple"><text fill="#0000FF" font-family="sans-serif" font-size="14" lengthAdjust="spacing" text-decoration="underline" textLength="45" x="1068" y="285.0186">Object</text></a></g></a><!--MD5=[8711390a1a5c0415e79d2f12d22e3987]
class InventoryEntrySetCustomTypeAction--><a href="InventoryEntrySetCustomTypeAction.svg" target="_top" title="InventoryEntrySetCustomTypeAction.svg" xlink:actuate="onRequest" xlink:href="InventoryEntrySetCustomTypeAction.svg" xlink:show="new" xlink:title="InventoryEntrySetCustomTypeAction.svg" xlink:type="simple"><g id="elem_InventoryEntrySetCustomTypeAction"><rect codeLine="32" fill="#F1F1F1" height="88.8906" id="InventoryEntrySetCustomTypeAction" rx="2.5" ry="2.5" style="stroke:#181818;stroke-width:0.5;" width="289" x="1896" y="203.4297"/><ellipse cx="1911" cy="219.4297" fill="#B4A7E5" rx="11" ry="11" style="stroke:#181818;stroke-width:1.0;"/><path d="M1906.9219,215.1953 L1906.9219,213.0391 L1914.3125,213.0391 L1914.3125,215.1953 L1911.8438,215.1953 L1911.8438,223.2734 L1914.3125,223.2734 L1914.3125,225.4297 L1906.9219,225.4297 L1906.9219,223.2734 L1909.3906,223.2734 L1909.3906,215.1953 L1906.9219,215.1953 Z " fill="#000000"/><text fill="#000000" font-family="sans-serif" font-size="14" font-style="italic" lengthAdjust="spacing" textLength="257" x="1925" y="224.2764">InventoryEntrySetCustomTypeAction</text><line style="stroke:#181818;stroke-width:0.5;" x1="1897" x2="2184" y1="235.4297" y2="235.4297"/><text fill="#000000" font-family="sans-serif" font-size="14" lengthAdjust="spacing" textLength="91" x="1902" y="252.4248">action: String</text><text fill="#000000" font-family="sans-serif" font-size="14" lengthAdjust="spacing" textLength="35" x="1902" y="268.7217">type:</text><a href="TypeResourceIdentifier.svg" target="_top" title="TypeResourceIdentifier.svg" xlink:actuate="onRequest" xlink:href="TypeResourceIdentifier.svg" xlink:show="new" xlink:title="TypeResourceIdentifier.svg" xlink:type="simple"><text fill="#0000FF" font-family="sans-serif" font-size="14" lengthAdjust="spacing" text-decoration="underline" textLength="160" x="1941" y="268.7217">TypeResourceIdentifier</text></a><text fill="#000000" font-family="sans-serif" font-size="14" lengthAdjust="spacing" textLength="41" x="1902" y="285.0186">fields:</text><a href="FieldContainer.svg" target="_top" title="FieldContainer.svg" xlink:actuate="onRequest" xlink:href="FieldContainer.svg" xlink:show="new" xlink:title="FieldContainer.svg" xlink:type="simple"><text fill="#0000FF" font-family="sans-serif" font-size="14" lengthAdjust="spacing" text-decoration="underline" textLength="99" x="1947" y="285.0186">FieldContainer</text></a></g></a><!--MD5=[c96866c75ff4844a361ba06929b32d87]
class InventoryEntrySetExpectedDeliveryAction--><a href="InventoryEntrySetExpectedDeliveryAction.svg" target="_top" title="InventoryEntrySetExpectedDeliveryAction.svg" xlink:actuate="onRequest" xlink:href="InventoryEntrySetExpectedDeliveryAction.svg" xlink:show="new" xlink:title="InventoryEntrySetExpectedDeliveryAction.svg" xlink:type="simple"><g id="elem_InventoryEntrySetExpectedDeliveryAction"><rect codeLine="37" fill="#F1F1F1" height="72.5938" id="InventoryEntrySetExpectedDeliveryAction" rx="2.5" ry="2.5" style="stroke:#181818;stroke-width:0.5;" width="323" x="2205" y="203.4297"/><ellipse cx="2220" cy="219.4297" fill="#B4A7E5" rx="11" ry="11" style="stroke:#181818;stroke-width:1.0;"/><path d="M2215.9219,215.1953 L2215.9219,213.0391 L2223.3125,213.0391 L2223.3125,215.1953 L2220.8438,215.1953 L2220.8438,223.2734 L2223.3125,223.2734 L2223.3125,225.4297 L2215.9219,225.4297 L2215.9219,223.2734 L2218.3906,223.2734 L2218.3906,215.1953 L2215.9219,215.1953 Z " fill="#000000"/><text fill="#000000" font-family="sans-serif" font-size="14" font-style="italic" lengthAdjust="spacing" textLength="291" x="2234" y="224.2764">InventoryEntrySetExpectedDeliveryAction</text><line style="stroke:#181818;stroke-width:0.5;" x1="2206" x2="2527" y1="235.4297" y2="235.4297"/><text fill="#000000" font-family="sans-serif" font-size="14" lengthAdjust="spacing" textLength="91" x="2211" y="252.4248">action: String</text><text fill="#000000" font-family="sans-serif" font-size="14" lengthAdjust="spacing" textLength="195" x="2211" y="268.7217">expectedDelivery: DateTime</text></g></a><!--MD5=[630dd01891aa24d9e38352f5b7443773]
class InventoryEntrySetKeyAction--><a href="InventoryEntrySetKeyAction.svg" target="_top" title="InventoryEntrySetKeyAction.svg" xlink:actuate="onRequest" xlink:href="InventoryEntrySetKeyAction.svg" xlink:show="new" xlink:title="InventoryEntrySetKeyAction.svg" xlink:type="simple"><g id="elem_InventoryEntrySetKeyAction"><rect codeLine="41" fill="#F1F1F1" height="72.5938" id="InventoryEntrySetKeyAction" rx="2.5" ry="2.5" style="stroke:#181818;stroke-width:0.5;" width="227" x="1649" y="203.4297"/><ellipse cx="1664" cy="219.4297" fill="#B4A7E5" rx="11" ry="11" style="stroke:#181818;stroke-width:1.0;"/><path d="M1659.9219,215.1953 L1659.9219,213.0391 L1667.3125,213.0391 L1667.3125,215.1953 L1664.8438,215.1953 L1664.8438,223.2734 L1667.3125,223.2734 L1667.3125,225.4297 L1659.9219,225.4297 L1659.9219,223.2734 L1662.3906,223.2734 L1662.3906,215.1953 L1659.9219,215.1953 Z " fill="#000000"/><text fill="#000000" font-family="sans-serif" font-size="14" font-style="italic" lengthAdjust="spacing" textLength="195" x="1678" y="224.2764">InventoryEntrySetKeyAction</text><line style="stroke:#181818;stroke-width:0.5;" x1="1650" x2="1875" y1="235.4297" y2="235.4297"/><text fill="#000000" font-family="sans-serif" font-size="14" lengthAdjust="spacing" textLength="91" x="1655" y="252.4248">action: String</text><text fill="#000000" font-family="sans-serif" font-size="14" lengthAdjust="spacing" textLength="73" x="1655" y="268.7217">key: String</text></g></a><!--MD5=[d5a2a0f501089300ebb353612a96ae27]
class InventoryEntrySetRestockableInDaysAction--><a href="InventoryEntrySetRestockableInDaysAction.svg" target="_top" title="InventoryEntrySetRestockableInDaysAction.svg" xlink:actuate="onRequest" xlink:href="InventoryEntrySetRestockableInDaysAction.svg" xlink:show="new" xlink:title="InventoryEntrySetRestockableInDaysAction.svg" xlink:type="simple"><g id="elem_InventoryEntrySetRestockableInDaysAction"><rect codeLine="45" fill="#F1F1F1" height="72.5938" id="InventoryEntrySetRestockableInDaysAction" rx="2.5" ry="2.5" style="stroke:#181818;stroke-width:0.5;" width="333" x="335" y="203.4297"/><ellipse cx="350" cy="219.4297" fill="#B4A7E5" rx="11" ry="11" style="stroke:#181818;stroke-width:1.0;"/><path d="M345.9219,215.1953 L345.9219,213.0391 L353.3125,213.0391 L353.3125,215.1953 L350.8438,215.1953 L350.8438,223.2734 L353.3125,223.2734 L353.3125,225.4297 L345.9219,225.4297 L345.9219,223.2734 L348.3906,223.2734 L348.3906,215.1953 L345.9219,215.1953 Z " fill="#000000"/><text fill="#000000" font-family="sans-serif" font-size="14" font-style="italic" lengthAdjust="spacing" textLength="301" x="364" y="224.2764">InventoryEntrySetRestockableInDaysAction</text><line style="stroke:#181818;stroke-width:0.5;" x1="336" x2="667" y1="235.4297" y2="235.4297"/><text fill="#000000" font-family="sans-serif" font-size="14" lengthAdjust="spacing" textLength="91" x="341" y="252.4248">action: String</text><text fill="#000000" font-family="sans-serif" font-size="14" lengthAdjust="spacing" textLength="170" x="341" y="268.7217">restockableInDays: Long</text></g></a><!--MD5=[3b725f41608cef1574c0d14be7b2a7fa]
class InventoryEntrySetSupplyChannelAction--><a href="InventoryEntrySetSupplyChannelAction.svg" target="_top" title="InventoryEntrySetSupplyChannelAction.svg" xlink:actuate="onRequest" xlink:href="InventoryEntrySetSupplyChannelAction.svg" xlink:show="new" xlink:title="InventoryEntrySetSupplyChannelAction.svg" xlink:type="simple"><g id="elem_InventoryEntrySetSupplyChannelAction"><rect codeLine="49" fill="#F1F1F1" height="72.5938" id="InventoryEntrySetSupplyChannelAction" rx="2.5" ry="2.5" style="stroke:#181818;stroke-width:0.5;" width="306" x="1323" y="203.4297"/><ellipse cx="1338.45" cy="219.4297" fill="#B4A7E5" rx="11" ry="11" style="stroke:#181818;stroke-width:1.0;"/><path d="M1334.3719,215.1953 L1334.3719,213.0391 L1341.7625,213.0391 L1341.7625,215.1953 L1339.2938,215.1953 L1339.2938,223.2734 L1341.7625,223.2734 L1341.7625,225.4297 L1334.3719,225.4297 L1334.3719,223.2734 L1336.8406,223.2734 L1336.8406,215.1953 L1334.3719,215.1953 Z " fill="#000000"/><text fill="#000000" font-family="sans-serif" font-size="14" font-style="italic" lengthAdjust="spacing" textLength="273" x="1352.55" y="224.2764">InventoryEntrySetSupplyChannelAction</text><line style="stroke:#181818;stroke-width:0.5;" x1="1324" x2="1628" y1="235.4297" y2="235.4297"/><text fill="#000000" font-family="sans-serif" font-size="14" lengthAdjust="spacing" textLength="91" x="1329" y="252.4248">action: String</text><text fill="#000000" font-family="sans-serif" font-size="14" lengthAdjust="spacing" textLength="107" x="1329" y="268.7217">supplyChannel:</text><a href="ChannelResourceIdentifier.svg" target="_top" title="ChannelResourceIdentifier.svg" xlink:actuate="onRequest" xlink:href="ChannelResourceIdentifier.svg" xlink:show="new" xlink:title="ChannelResourceIdentifier.svg" xlink:type="simple"><text fill="#0000FF" font-family="sans-serif" font-size="14" lengthAdjust="spacing" text-decoration="underline" textLength="183" x="1440" y="268.7217">ChannelResourceIdentifier</text></a></g></a><!--MD5=[e238dd757eb5a3e7d7664bc0600b04ec]
class InventoryEntryUpdate--><a href="InventoryEntryUpdate.svg" target="_top" title="InventoryEntryUpdate.svg" xlink:actuate="onRequest" xlink:href="InventoryEntryUpdate.svg" xlink:show="new" xlink:title="InventoryEntryUpdate.svg" xlink:type="simple"><g id="elem_InventoryEntryUpdate"><rect codeLine="53" fill="#F1F1F1" height="72.5938" id="InventoryEntryUpdate" rx="2.5" ry="2.5" style="stroke:#181818;stroke-width:0.5;" width="309" x="688" y="203.4297"/><ellipse cx="762.25" cy="219.4297" fill="#B4A7E5" rx="11" ry="11" style="stroke:#181818;stroke-width:1.0;"/><path d="M758.1719,215.1953 L758.1719,213.0391 L765.5625,213.0391 L765.5625,215.1953 L763.0938,215.1953 L763.0938,223.2734 L765.5625,223.2734 L765.5625,225.4297 L758.1719,225.4297 L758.1719,223.2734 L760.6406,223.2734 L760.6406,215.1953 L758.1719,215.1953 Z " fill="#000000"/><text fill="#000000" font-family="sans-serif" font-size="14" font-style="italic" lengthAdjust="spacing" textLength="152" x="782.75" y="224.2764">InventoryEntryUpdate</text><line style="stroke:#181818;stroke-width:0.5;" x1="689" x2="996" y1="235.4297" y2="235.4297"/><text fill="#000000" font-family="sans-serif" font-size="14" lengthAdjust="spacing" textLength="93" x="694" y="252.4248">version: Long</text><text fill="#000000" font-family="sans-serif" font-size="14" lengthAdjust="spacing" textLength="55" x="694" y="268.7217">actions:</text><a href="InventoryEntryUpdateAction.svg" target="_top" title="InventoryEntryUpdateAction.svg" xlink:actuate="onRequest" xlink:href="InventoryEntryUpdateAction.svg" xlink:show="new" xlink:title="InventoryEntryUpdateAction.svg" xlink:type="simple"><text fill="#0000FF" font-family="sans-serif" font-size="14" lengthAdjust="spacing" text-decoration="underline" textLength="238" x="753" y="268.7217">List&lt;InventoryEntryUpdateAction&gt;</text></a></g></a><line style="stroke:#0000FF;stroke-width:1.0;" x1="333.8182" x2="333.8182" y1="68.2969" y2="88.2969"/><line style="stroke:#0000FF;stroke-width:1.0;" x1="333.8182" x2="2680" y1="88.2969" y2="88.2969"/><line style="stroke:#0000FF;stroke-width:1.0;" x1="2680" x2="2680" y1="88.2969" y2="203.4297"/><polygon fill="#0000FF" points="2680,203.4297,2684,194.4297,2680,198.4297,2676,194.4297,2680,203.4297" style="stroke:#0000FF;stroke-width:1.0;"/><text fill="#000000" font-family="sans-serif" font-size="13" lengthAdjust="spacing" textLength="129" x="2549" y="180.3638">action : addQuantity</text><line style="stroke:#0000FF;stroke-width:1.0;" x1="354.5455" x2="354.5455" y1="68.2969" y2="78.2969"/><line style="stroke:#0000FF;stroke-width:1.0;" x1="354.5455" x2="2977" y1="78.2969" y2="78.2969"/><line style="stroke:#0000FF;stroke-width:1.0;" x1="2977" x2="2977" y1="78.2969" y2="203.4297"/><polygon fill="#0000FF" points="2977,203.4297,2981,194.4297,2977,198.4297,2973,194.4297,2977,203.4297" style="stroke:#0000FF;stroke-width:1.0;"/><text fill="#000000" font-family="sans-serif" font-size="13" lengthAdjust="spacing" textLength="152" x="2823" y="180.3638">action : changeQuantity</text><line style="stroke:#0000FF;stroke-width:1.0;" x1="168" x2="168" y1="68.2969" y2="203.4297"/><polygon fill="#0000FF" points="168,203.4297,172,194.4297,168,198.4297,164,194.4297,168,203.4297" style="stroke:#0000FF;stroke-width:1.0;"/><text fill="#000000" font-family="sans-serif" font-size="13" lengthAdjust="spacing" textLength="154" x="12" y="180.3638">action : removeQuantity</text><line style="stroke:#0000FF;stroke-width:1.0;" x1="230.1818" x2="230.1818" y1="68.2969" y2="138.2969"/><line style="stroke:#0000FF;stroke-width:1.0;" x1="230.1818" x2="1160" y1="138.2969" y2="138.2969"/><line style="stroke:#0000FF;stroke-width:1.0;" x1="1160" x2="1160" y1="138.2969" y2="203.4297"/><polygon fill="#0000FF" points="1160,203.4297,1164,194.4297,1160,198.4297,1156,194.4297,1160,203.4297" style="stroke:#0000FF;stroke-width:1.0;"/><text fill="#000000" font-family="sans-serif" font-size="13" lengthAdjust="spacing" textLength="150" x="1008" y="180.3638">action : setCustomField</text><line style="stroke:#0000FF;stroke-width:1.0;" x1="292.3636" x2="292.3636" y1="68.2969" y2="108.2969"/><line style="stroke:#0000FF;stroke-width:1.0;" x1="292.3636" x2="2040.5" y1="108.2969" y2="108.2969"/><line style="stroke:#0000FF;stroke-width:1.0;" x1="2040.5" x2="2040.5" y1="108.2969" y2="203.4297"/><polygon fill="#0000FF" points="2040.5,203.4297,2044.5,194.4297,2040.5,198.4297,2036.5,194.4297,2040.5,203.4297" style="stroke:#0000FF;stroke-width:1.0;"/><text fill="#000000" font-family="sans-serif" font-size="13" lengthAdjust="spacing" textLength="151" x="1887.5" y="180.3638">action : setCustomType</text><line style="stroke:#0000FF;stroke-width:1.0;" x1="313.0909" x2="313.0909" y1="68.2969" y2="98.2969"/><line style="stroke:#0000FF;stroke-width:1.0;" x1="313.0909" x2="2366.5" y1="98.2969" y2="98.2969"/><line style="stroke:#0000FF;stroke-width:1.0;" x1="2366.5" x2="2366.5" y1="98.2969" y2="203.4297"/><polygon fill="#0000FF" points="2366.5,203.4297,2370.5,194.4297,2366.5,198.4297,2362.5,194.4297,2366.5,203.4297" style="stroke:#0000FF;stroke-width:1.0;"/><text fill="#000000" font-family="sans-serif" font-size="13" lengthAdjust="spacing" textLength="181" x="2183.5" y="180.3638">action : setExpectedDelivery</text><line style="stroke:#0000FF;stroke-width:1.0;" x1="271.6364" x2="271.6364" y1="68.2969" y2="118.2969"/><line style="stroke:#0000FF;stroke-width:1.0;" x1="271.6364" x2="1762.5" y1="118.2969" y2="118.2969"/><line style="stroke:#0000FF;stroke-width:1.0;" x1="1762.5" x2="1762.5" y1="118.2969" y2="203.4297"/><polygon fill="#0000FF" points="1762.5,203.4297,1766.5,194.4297,1762.5,198.4297,1758.5,194.4297,1762.5,203.4297" style="stroke:#0000FF;stroke-width:1.0;"/><text fill="#000000" font-family="sans-serif" font-size="13" lengthAdjust="spacing" textLength="94" x="1666.5" y="180.3638">action : setKey</text><line style="stroke:#0000FF;stroke-width:1.0;" x1="188.7273" x2="188.7273" y1="68.2969" y2="158.2969"/><line style="stroke:#0000FF;stroke-width:1.0;" x1="188.7273" x2="501.5" y1="158.2969" y2="158.2969"/><line style="stroke:#0000FF;stroke-width:1.0;" x1="501.5" x2="501.5" y1="158.2969" y2="203.4297"/><polygon fill="#0000FF" points="501.5,203.4297,505.5,194.4297,501.5,198.4297,497.5,194.4297,501.5,203.4297" style="stroke:#0000FF;stroke-width:1.0;"/><text fill="#000000" font-family="sans-serif" font-size="13" lengthAdjust="spacing" textLength="191" x="308.5" y="180.3638">action : setRestockableInDays</text><line style="stroke:#0000FF;stroke-width:1.0;" x1="250.9091" x2="250.9091" y1="68.2969" y2="128.2969"/><line style="stroke:#0000FF;stroke-width:1.0;" x1="250.9091" x2="1476" y1="128.2969" y2="128.2969"/><line style="stroke:#0000FF;stroke-width:1.0;" x1="1476" x2="1476" y1="128.2969" y2="203.4297"/><polygon fill="#0000FF" points="1476,203.4297,1480,194.4297,1476,198.4297,1472,194.4297,1476,203.4297" style="stroke:#0000FF;stroke-width:1.0;"/><text fill="#000000" font-family="sans-serif" font-size="13" lengthAdjust="spacing" textLength="166" x="1308" y="180.3638">action : setSupplyChannel</text><line style="stroke:#008000;stroke-width:1.0;" x1="209.4545" x2="209.4545" y1="68.2969" y2="148.2969"/><line style="stroke:#008000;stroke-width:1.0;" x1="209.4545" x2="842.5" y1="148.2969" y2="148.2969"/><line style="stroke:#008000;stroke-width:1.0;" x1="842.5" x2="842.5" y1="148.2969" y2="203.4297"/><polygon fill="#008000" points="842.5,203.4297,846.5,194.4297,842.5,198.4297,838.5,194.4297,842.5,203.4297" style="stroke:#008000;stroke-width:1.0;"/><text fill="#000000" font-family="sans-serif" font-size="13" lengthAdjust="spacing" textLength="46" x="794.5" y="180.3638">actions</text><rect fill="#DDDDDD" height="79.1875" id="_legend" rx="7.5" ry="7.5" style="stroke:#000000;stroke-width:1.0;" width="161" x="1474" y="293.3203"/><text fill="#000000" font-family="sans-serif" font-size="14" font-weight="bold" lengthAdjust="spacing" textLength="5" x="1479" y="313.3154"> </text><text fill="#000000" font-family="sans-serif" font-size="14" font-weight="bold" lengthAdjust="spacing" textLength="28" x="1496" y="313.3154">line</text><text fill="#000000" filter="url(#bkywh4hl474rp0)" font-family="sans-serif" font-size="14" lengthAdjust="spacing" textLength="12" x="1479" y="329.6123">   </text><text fill="#000000" font-family="sans-serif" font-size="14" lengthAdjust="spacing" textLength="77" x="1495" y="329.6123">inheritance</text><text fill="#000000" filter="url(#bkywh4hl474rp1)" font-family="sans-serif" font-size="14" lengthAdjust="spacing" textLength="12" x="1479" y="345.9092">   </text><text fill="#000000" font-family="sans-serif" font-size="14" lengthAdjust="spacing" textLength="129" x="1495" y="345.9092">property reference</text><text fill="#000000" filter="url(#bkywh4hl474rp2)" font-family="sans-serif" font-size="14" lengthAdjust="spacing" textLength="12" x="1479" y="362.2061">   </text><text fill="#000000" font-family="sans-serif" font-size="14" lengthAdjust="spacing" textLength="131" x="1495" y="362.2061">discriminated class</text><line style="stroke:#000000;stroke-width:1.0;" x1="1479" x2="1630" y1="300.3203" y2="300.3203"/><line style="stroke:#000000;stroke-width:1.0;" x1="1479" x2="1630" y1="316.6172" y2="316.6172"/><line style="stroke:#000000;stroke-width:1.0;" x1="1479" x2="1630" y1="332.9141" y2="332.9141"/><line style="stroke:#000000;stroke-width:1.0;" x1="1479" x2="1630" y1="349.2109" y2="349.2109"/><line style="stroke:#000000;stroke-width:1.0;" x1="1479" x2="1630" y1="365.5078" y2="365.5078"/><line style="stroke:#000000;stroke-width:1.0;" x1="1479" x2="1479" y1="300.3203" y2="365.5078"/><line style="stroke:#000000;stroke-width:1.0;" x1="1491" x2="1491" y1="300.3203" y2="365.5078"/><line style="stroke:#000000;stroke-width:1.0;" x1="1630" x2="1630" y1="300.3203" y2="365.5078"/><!--MD5=[c7e8718eeb777df0a8a4634b221424dc]
@startuml
!pragma layout elk
hide empty fields
hide empty methods
legend
|= |= line |
|<back:black>   </back>| inheritance |
|<back:green>   </back>| property reference |
|<back:blue>   </back>| discriminated class |
endlegend
interface InventoryEntryUpdateAction [[InventoryEntryUpdateAction.svg]]  {
    action: String
}


interface InventoryEntryAddQuantityAction [[InventoryEntryAddQuantityAction.svg]]  {
    action: String
    quantity: Long
}
interface InventoryEntryChangeQuantityAction [[InventoryEntryChangeQuantityAction.svg]]  {
    action: String
    quantity: Long
}
interface InventoryEntryRemoveQuantityAction [[InventoryEntryRemoveQuantityAction.svg]]  {
    action: String
    quantity: Long
}
interface InventoryEntrySetCustomFieldAction [[InventoryEntrySetCustomFieldAction.svg]]  {
    action: String
    name: String
    value: [[Object.svg Object]]
}
interface InventoryEntrySetCustomTypeAction [[InventoryEntrySetCustomTypeAction.svg]]  {
    action: String
    type: [[TypeResourceIdentifier.svg TypeResourceIdentifier]]
    fields: [[FieldContainer.svg FieldContainer]]
}
interface InventoryEntrySetExpectedDeliveryAction [[InventoryEntrySetExpectedDeliveryAction.svg]]  {
    action: String
    expectedDelivery: DateTime
}
interface InventoryEntrySetKeyAction [[InventoryEntrySetKeyAction.svg]]  {
    action: String
    key: String
}
interface InventoryEntrySetRestockableInDaysAction [[InventoryEntrySetRestockableInDaysAction.svg]]  {
    action: String
    restockableInDays: Long
}
interface InventoryEntrySetSupplyChannelAction [[InventoryEntrySetSupplyChannelAction.svg]]  {
    action: String
    supplyChannel: [[ChannelResourceIdentifier.svg ChannelResourceIdentifier]]
}
interface InventoryEntryUpdate [[InventoryEntryUpdate.svg]]  {
    version: Long
    actions: [[InventoryEntryUpdateAction.svg List<InventoryEntryUpdateAction>]]
}
InventoryEntryUpdateAction - -> InventoryEntryAddQuantityAction #blue;text:blue : "action : addQuantity"
InventoryEntryUpdateAction - -> InventoryEntryChangeQuantityAction #blue;text:blue : "action : changeQuantity"
InventoryEntryUpdateAction - -> InventoryEntryRemoveQuantityAction #blue;text:blue : "action : removeQuantity"
InventoryEntryUpdateAction - -> InventoryEntrySetCustomFieldAction #blue;text:blue : "action : setCustomField"
InventoryEntryUpdateAction - -> InventoryEntrySetCustomTypeAction #blue;text:blue : "action : setCustomType"
InventoryEntryUpdateAction - -> InventoryEntrySetExpectedDeliveryAction #blue;text:blue : "action : setExpectedDelivery"
InventoryEntryUpdateAction - -> InventoryEntrySetKeyAction #blue;text:blue : "action : setKey"
InventoryEntryUpdateAction - -> InventoryEntrySetRestockableInDaysAction #blue;text:blue : "action : setRestockableInDays"
InventoryEntryUpdateAction - -> InventoryEntrySetSupplyChannelAction #blue;text:blue : "action : setSupplyChannel"
InventoryEntryUpdateAction - -> InventoryEntryUpdate #green;text:green : "actions"
@enduml

PlantUML version 1.2022.13(Sat Nov 19 13:22:17 UTC 2022)
(GPL source distribution)
Java Runtime: OpenJDK Runtime Environment
JVM: OpenJDK 64-Bit Server VM
Default Encoding: UTF-8
Language: en
Country: null
--></g></svg>
