<?xml version="1.0" encoding="UTF-8" standalone="no"?><svg xmlns="http://www.w3.org/2000/svg" xmlns:xlink="http://www.w3.org/1999/xlink" contentStyleType="text/css" height="395px" preserveAspectRatio="none" style="width:1921px;height:395px;background:#FFFFFF;" version="1.1" viewBox="0 0 1921 395" width="1921px" zoomAndPan="magnify"><defs><filter height="1" id="b1drotzipi9pk20" width="1" x="0" y="0"><feFlood flood-color="#000000" result="flood"/><feComposite in="SourceGraphic" in2="flood" operator="over"/></filter><filter height="1" id="b1drotzipi9pk21" width="1" x="0" y="0"><feFlood flood-color="#008000" result="flood"/><feComposite in="SourceGraphic" in2="flood" operator="over"/></filter><filter height="1" id="b1drotzipi9pk22" width="1" x="0" y="0"><feFlood flood-color="#0000FF" result="flood"/><feComposite in="SourceGraphic" in2="flood" operator="over"/></filter></defs><g><!--MD5=[4d83ea3baf3db0ac10540c0c3f9837fe]
class ItemShippingTarget--><a href="ItemShippingTarget.svg" target="_top" title="ItemShippingTarget.svg" xlink:actuate="onRequest" xlink:href="ItemShippingTarget.svg" xlink:show="new" xlink:title="ItemShippingTarget.svg" xlink:type="simple"><g id="elem_ItemShippingTarget"><rect codeLine="10" fill="#F1F1F1" height="88.8906" id="ItemShippingTarget" rx="2.5" ry="2.5" style="stroke:#181818;stroke-width:0.5;" width="198" x="146" y="12"/><ellipse cx="174.5" cy="28" fill="#B4A7E5" rx="11" ry="11" style="stroke:#181818;stroke-width:1.0;"/><path d="M170.4219,23.7656 L170.4219,21.6094 L177.8125,21.6094 L177.8125,23.7656 L175.3438,23.7656 L175.3438,31.8438 L177.8125,31.8438 L177.8125,34 L170.4219,34 L170.4219,31.8438 L172.8906,31.8438 L172.8906,23.7656 L170.4219,23.7656 Z " fill="#000000"/><text fill="#000000" font-family="sans-serif" font-size="14" font-style="italic" lengthAdjust="spacing" textLength="136" x="191.5" y="32.8467">ItemShippingTarget</text><line style="stroke:#181818;stroke-width:0.5;" x1="147" x2="343" y1="44" y2="44"/><text fill="#000000" font-family="sans-serif" font-size="14" lengthAdjust="spacing" textLength="130" x="152" y="60.9951">addressKey: String</text><text fill="#000000" font-family="sans-serif" font-size="14" lengthAdjust="spacing" textLength="98" x="152" y="77.292">quantity: Long</text><text fill="#000000" font-family="sans-serif" font-size="14" lengthAdjust="spacing" textLength="186" x="152" y="93.5889">shippingMethodKey: String</text></g></a><!--MD5=[095d3abe52ec204ebc1e03d44ae842db]
class ItemShippingDetails--><a href="ItemShippingDetails.svg" target="_top" title="ItemShippingDetails.svg" xlink:actuate="onRequest" xlink:href="ItemShippingDetails.svg" xlink:show="new" xlink:title="ItemShippingDetails.svg" xlink:type="simple"><g id="elem_ItemShippingDetails"><rect codeLine="18" fill="#F1F1F1" height="72.5938" id="ItemShippingDetails" rx="2.5" ry="2.5" style="stroke:#181818;stroke-width:0.5;" width="252" x="1390" y="206.0234"/><ellipse cx="1443.25" cy="222.0234" fill="#B4A7E5" rx="11" ry="11" style="stroke:#181818;stroke-width:1.0;"/><path d="M1439.1719,217.7891 L1439.1719,215.6328 L1446.5625,215.6328 L1446.5625,217.7891 L1444.0938,217.7891 L1444.0938,225.8672 L1446.5625,225.8672 L1446.5625,228.0234 L1439.1719,228.0234 L1439.1719,225.8672 L1441.6406,225.8672 L1441.6406,217.7891 L1439.1719,217.7891 Z " fill="#000000"/><text fill="#000000" font-family="sans-serif" font-size="14" font-style="italic" lengthAdjust="spacing" textLength="137" x="1463.75" y="226.8701">ItemShippingDetails</text><line style="stroke:#181818;stroke-width:0.5;" x1="1391" x2="1641" y1="238.0234" y2="238.0234"/><text fill="#000000" font-family="sans-serif" font-size="14" lengthAdjust="spacing" textLength="54" x="1396" y="255.0186">targets:</text><a href="ItemShippingTarget.svg" target="_top" title="ItemShippingTarget.svg" xlink:actuate="onRequest" xlink:href="ItemShippingTarget.svg" xlink:show="new" xlink:title="ItemShippingTarget.svg" xlink:type="simple"><text fill="#0000FF" font-family="sans-serif" font-size="14" lengthAdjust="spacing" text-decoration="underline" textLength="182" x="1454" y="255.0186">List&lt;ItemShippingTarget&gt;</text></a><text fill="#000000" font-family="sans-serif" font-size="14" lengthAdjust="spacing" textLength="96" x="1396" y="271.3154">valid: Boolean</text></g></a><!--MD5=[126b41f02752e174500b3e041e3f18cf]
class ItemShippingDetailsDraft--><a href="ItemShippingDetailsDraft.svg" target="_top" title="ItemShippingDetailsDraft.svg" xlink:actuate="onRequest" xlink:href="ItemShippingDetailsDraft.svg" xlink:show="new" xlink:title="ItemShippingDetailsDraft.svg" xlink:type="simple"><g id="elem_ItemShippingDetailsDraft"><rect codeLine="22" fill="#F1F1F1" height="56.2969" id="ItemShippingDetailsDraft" rx="2.5" ry="2.5" style="stroke:#181818;stroke-width:0.5;" width="252" x="1662" y="206.0234"/><ellipse cx="1699.5" cy="222.0234" fill="#B4A7E5" rx="11" ry="11" style="stroke:#181818;stroke-width:1.0;"/><path d="M1695.4219,217.7891 L1695.4219,215.6328 L1702.8125,215.6328 L1702.8125,217.7891 L1700.3438,217.7891 L1700.3438,225.8672 L1702.8125,225.8672 L1702.8125,228.0234 L1695.4219,228.0234 L1695.4219,225.8672 L1697.8906,225.8672 L1697.8906,217.7891 L1695.4219,217.7891 Z " fill="#000000"/><text fill="#000000" font-family="sans-serif" font-size="14" font-style="italic" lengthAdjust="spacing" textLength="170" x="1718.5" y="226.8701">ItemShippingDetailsDraft</text><line style="stroke:#181818;stroke-width:0.5;" x1="1663" x2="1913" y1="238.0234" y2="238.0234"/><text fill="#000000" font-family="sans-serif" font-size="14" lengthAdjust="spacing" textLength="54" x="1668" y="255.0186">targets:</text><a href="ItemShippingTarget.svg" target="_top" title="ItemShippingTarget.svg" xlink:actuate="onRequest" xlink:href="ItemShippingTarget.svg" xlink:show="new" xlink:title="ItemShippingTarget.svg" xlink:type="simple"><text fill="#0000FF" font-family="sans-serif" font-size="14" lengthAdjust="spacing" text-decoration="underline" textLength="182" x="1726" y="255.0186">List&lt;ItemShippingTarget&gt;</text></a></g></a><!--MD5=[53e822db1dc04fe958287d17ee98699f]
class CartApplyDeltaToCustomLineItemShippingDetailsTargetsAction--><a href="CartApplyDeltaToCustomLineItemShippingDetailsTargetsAction.svg" target="_top" title="CartApplyDeltaToCustomLineItemShippingDetailsTargetsAction.svg" xlink:actuate="onRequest" xlink:href="CartApplyDeltaToCustomLineItemShippingDetailsTargetsAction.svg" xlink:show="new" xlink:title="CartApplyDeltaToCustomLineItemShippingDetailsTargetsAction.svg" xlink:type="simple"><g id="elem_CartApplyDeltaToCustomLineItemShippingDetailsTargetsAction"><rect codeLine="25" fill="#F1F1F1" height="88.8906" id="CartApplyDeltaToCustomLineItemShippingDetailsTargetsAction" rx="2.5" ry="2.5" style="stroke:#181818;stroke-width:0.5;" width="468" x="12" y="206.0234"/><ellipse cx="27" cy="222.0234" fill="#B4A7E5" rx="11" ry="11" style="stroke:#181818;stroke-width:1.0;"/><path d="M22.9219,217.7891 L22.9219,215.6328 L30.3125,215.6328 L30.3125,217.7891 L27.8438,217.7891 L27.8438,225.8672 L30.3125,225.8672 L30.3125,228.0234 L22.9219,228.0234 L22.9219,225.8672 L25.3906,225.8672 L25.3906,217.7891 L22.9219,217.7891 Z " fill="#000000"/><text fill="#000000" font-family="sans-serif" font-size="14" font-style="italic" lengthAdjust="spacing" textLength="436" x="41" y="226.8701">CartApplyDeltaToCustomLineItemShippingDetailsTargetsAction</text><line style="stroke:#181818;stroke-width:0.5;" x1="13" x2="479" y1="238.0234" y2="238.0234"/><text fill="#000000" font-family="sans-serif" font-size="14" lengthAdjust="spacing" textLength="91" x="18" y="255.0186">action: String</text><text fill="#000000" font-family="sans-serif" font-size="14" lengthAdjust="spacing" textLength="171" x="18" y="271.3154">customLineItemId: String</text><text fill="#000000" font-family="sans-serif" font-size="14" lengthAdjust="spacing" textLength="90" x="18" y="287.6123">targetsDelta:</text><a href="ItemShippingTarget.svg" target="_top" title="ItemShippingTarget.svg" xlink:actuate="onRequest" xlink:href="ItemShippingTarget.svg" xlink:show="new" xlink:title="ItemShippingTarget.svg" xlink:type="simple"><text fill="#0000FF" font-family="sans-serif" font-size="14" lengthAdjust="spacing" text-decoration="underline" textLength="182" x="112" y="287.6123">List&lt;ItemShippingTarget&gt;</text></a></g></a><!--MD5=[7f017206e29437e4c0b9647b9e9fa84d]
class CartApplyDeltaToLineItemShippingDetailsTargetsAction--><a href="CartApplyDeltaToLineItemShippingDetailsTargetsAction.svg" target="_top" title="CartApplyDeltaToLineItemShippingDetailsTargetsAction.svg" xlink:actuate="onRequest" xlink:href="CartApplyDeltaToLineItemShippingDetailsTargetsAction.svg" xlink:show="new" xlink:title="CartApplyDeltaToLineItemShippingDetailsTargetsAction.svg" xlink:type="simple"><g id="elem_CartApplyDeltaToLineItemShippingDetailsTargetsAction"><rect codeLine="30" fill="#F1F1F1" height="88.8906" id="CartApplyDeltaToLineItemShippingDetailsTargetsAction" rx="2.5" ry="2.5" style="stroke:#181818;stroke-width:0.5;" width="415" x="500" y="206.0234"/><ellipse cx="515" cy="222.0234" fill="#B4A7E5" rx="11" ry="11" style="stroke:#181818;stroke-width:1.0;"/><path d="M510.9219,217.7891 L510.9219,215.6328 L518.3125,215.6328 L518.3125,217.7891 L515.8438,217.7891 L515.8438,225.8672 L518.3125,225.8672 L518.3125,228.0234 L510.9219,228.0234 L510.9219,225.8672 L513.3906,225.8672 L513.3906,217.7891 L510.9219,217.7891 Z " fill="#000000"/><text fill="#000000" font-family="sans-serif" font-size="14" font-style="italic" lengthAdjust="spacing" textLength="383" x="529" y="226.8701">CartApplyDeltaToLineItemShippingDetailsTargetsAction</text><line style="stroke:#181818;stroke-width:0.5;" x1="501" x2="914" y1="238.0234" y2="238.0234"/><text fill="#000000" font-family="sans-serif" font-size="14" lengthAdjust="spacing" textLength="91" x="506" y="255.0186">action: String</text><text fill="#000000" font-family="sans-serif" font-size="14" lengthAdjust="spacing" textLength="115" x="506" y="271.3154">lineItemId: String</text><text fill="#000000" font-family="sans-serif" font-size="14" lengthAdjust="spacing" textLength="90" x="506" y="287.6123">targetsDelta:</text><a href="ItemShippingTarget.svg" target="_top" title="ItemShippingTarget.svg" xlink:actuate="onRequest" xlink:href="ItemShippingTarget.svg" xlink:show="new" xlink:title="ItemShippingTarget.svg" xlink:type="simple"><text fill="#0000FF" font-family="sans-serif" font-size="14" lengthAdjust="spacing" text-decoration="underline" textLength="182" x="600" y="287.6123">List&lt;ItemShippingTarget&gt;</text></a></g></a><!--MD5=[468ab514b50409b07f4f6d94e62e2666]
class MyCartApplyDeltaToLineItemShippingDetailsTargetsAction--><a href="MyCartApplyDeltaToLineItemShippingDetailsTargetsAction.svg" target="_top" title="MyCartApplyDeltaToLineItemShippingDetailsTargetsAction.svg" xlink:actuate="onRequest" xlink:href="MyCartApplyDeltaToLineItemShippingDetailsTargetsAction.svg" xlink:show="new" xlink:title="MyCartApplyDeltaToLineItemShippingDetailsTargetsAction.svg" xlink:type="simple"><g id="elem_MyCartApplyDeltaToLineItemShippingDetailsTargetsAction"><rect codeLine="35" fill="#F1F1F1" height="88.8906" id="MyCartApplyDeltaToLineItemShippingDetailsTargetsAction" rx="2.5" ry="2.5" style="stroke:#181818;stroke-width:0.5;" width="435" x="935" y="206.0234"/><ellipse cx="950" cy="222.0234" fill="#B4A7E5" rx="11" ry="11" style="stroke:#181818;stroke-width:1.0;"/><path d="M945.9219,217.7891 L945.9219,215.6328 L953.3125,215.6328 L953.3125,217.7891 L950.8438,217.7891 L950.8438,225.8672 L953.3125,225.8672 L953.3125,228.0234 L945.9219,228.0234 L945.9219,225.8672 L948.3906,225.8672 L948.3906,217.7891 L945.9219,217.7891 Z " fill="#000000"/><text fill="#000000" font-family="sans-serif" font-size="14" font-style="italic" lengthAdjust="spacing" textLength="403" x="964" y="226.8701">MyCartApplyDeltaToLineItemShippingDetailsTargetsAction</text><line style="stroke:#181818;stroke-width:0.5;" x1="936" x2="1369" y1="238.0234" y2="238.0234"/><text fill="#000000" font-family="sans-serif" font-size="14" lengthAdjust="spacing" textLength="91" x="941" y="255.0186">action: String</text><text fill="#000000" font-family="sans-serif" font-size="14" lengthAdjust="spacing" textLength="115" x="941" y="271.3154">lineItemId: String</text><text fill="#000000" font-family="sans-serif" font-size="14" lengthAdjust="spacing" textLength="90" x="941" y="287.6123">targetsDelta:</text><a href="ItemShippingTarget.svg" target="_top" title="ItemShippingTarget.svg" xlink:actuate="onRequest" xlink:href="ItemShippingTarget.svg" xlink:show="new" xlink:title="ItemShippingTarget.svg" xlink:type="simple"><text fill="#0000FF" font-family="sans-serif" font-size="14" lengthAdjust="spacing" text-decoration="underline" textLength="182" x="1035" y="287.6123">List&lt;ItemShippingTarget&gt;</text></a></g></a><line style="stroke:#008000;stroke-width:1.0;" x1="300" x2="300" y1="100.8906" y2="120.8906"/><line style="stroke:#008000;stroke-width:1.0;" x1="300" x2="1516" y1="120.8906" y2="120.8906"/><line style="stroke:#008000;stroke-width:1.0;" x1="1516" x2="1516" y1="120.8906" y2="206.0234"/><polygon fill="#008000" points="1516,206.0234,1520,197.0234,1516,201.0234,1512,197.0234,1516,206.0234" style="stroke:#008000;stroke-width:1.0;"/><text fill="#000000" font-family="sans-serif" font-size="13" lengthAdjust="spacing" textLength="46" x="1468" y="182.9575">targets</text><line style="stroke:#008000;stroke-width:1.0;" x1="322" x2="322" y1="100.8906" y2="110.8906"/><line style="stroke:#008000;stroke-width:1.0;" x1="322" x2="1788" y1="110.8906" y2="110.8906"/><line style="stroke:#008000;stroke-width:1.0;" x1="1788" x2="1788" y1="110.8906" y2="206.0234"/><polygon fill="#008000" points="1788,206.0234,1792,197.0234,1788,201.0234,1784,197.0234,1788,206.0234" style="stroke:#008000;stroke-width:1.0;"/><text fill="#000000" font-family="sans-serif" font-size="13" lengthAdjust="spacing" textLength="46" x="1740" y="182.9575">targets</text><line style="stroke:#008000;stroke-width:1.0;" x1="190" x2="190" y1="100.8906" y2="196.0234"/><line style="stroke:#008000;stroke-width:1.0;" x1="190" x2="324" y1="196.0234" y2="196.0234"/><line style="stroke:#008000;stroke-width:1.0;" x1="324" x2="324" y1="196.0234" y2="206.0234"/><polygon fill="#008000" points="324,206.0234,328,197.0234,324,201.0234,320,197.0234,324,206.0234" style="stroke:#008000;stroke-width:1.0;"/><text fill="#000000" font-family="sans-serif" font-size="13" lengthAdjust="spacing" textLength="80" x="193" y="182.9575">targetsDelta</text><line style="stroke:#008000;stroke-width:1.0;" x1="168" x2="168" y1="100.8906" y2="206.0234"/><polygon fill="#008000" points="168,206.0234,172,197.0234,168,201.0234,164,197.0234,168,206.0234" style="stroke:#008000;stroke-width:1.0;"/><text fill="#000000" font-family="sans-serif" font-size="13" lengthAdjust="spacing" textLength="80" x="86" y="182.9575">targetsDelta</text><line style="stroke:#008000;stroke-width:1.0;" x1="234" x2="234" y1="100.8906" y2="150.8906"/><line style="stroke:#008000;stroke-width:1.0;" x1="234" x2="649.3333" y1="150.8906" y2="150.8906"/><line style="stroke:#008000;stroke-width:1.0;" x1="649.3333" x2="649.3333" y1="150.8906" y2="196.0234"/><line style="stroke:#008000;stroke-width:1.0;" x1="649.3333" x2="776.6667" y1="196.0234" y2="196.0234"/><line style="stroke:#008000;stroke-width:1.0;" x1="776.6667" x2="776.6667" y1="196.0234" y2="206.0234"/><polygon fill="#008000" points="776.6667,206.0234,780.6667,197.0234,776.6667,201.0234,772.6667,197.0234,776.6667,206.0234" style="stroke:#008000;stroke-width:1.0;"/><text fill="#000000" font-family="sans-serif" font-size="13" lengthAdjust="spacing" textLength="80" x="652.3333" y="182.9575">targetsDelta</text><line style="stroke:#008000;stroke-width:1.0;" x1="212" x2="212" y1="100.8906" y2="160.8906"/><line style="stroke:#008000;stroke-width:1.0;" x1="212" x2="638.3333" y1="160.8906" y2="160.8906"/><line style="stroke:#008000;stroke-width:1.0;" x1="638.3333" x2="638.3333" y1="160.8906" y2="206.0234"/><polygon fill="#008000" points="638.3333,206.0234,642.3333,197.0234,638.3333,201.0234,634.3333,197.0234,638.3333,206.0234" style="stroke:#008000;stroke-width:1.0;"/><text fill="#000000" font-family="sans-serif" font-size="13" lengthAdjust="spacing" textLength="80" x="556.3333" y="182.9575">targetsDelta</text><line style="stroke:#008000;stroke-width:1.0;" x1="278" x2="278" y1="100.8906" y2="130.8906"/><line style="stroke:#008000;stroke-width:1.0;" x1="278" x2="1091" y1="130.8906" y2="130.8906"/><line style="stroke:#008000;stroke-width:1.0;" x1="1091" x2="1091" y1="130.8906" y2="196.0234"/><line style="stroke:#008000;stroke-width:1.0;" x1="1091" x2="1225" y1="196.0234" y2="196.0234"/><line style="stroke:#008000;stroke-width:1.0;" x1="1225" x2="1225" y1="196.0234" y2="206.0234"/><polygon fill="#008000" points="1225,206.0234,1229,197.0234,1225,201.0234,1221,197.0234,1225,206.0234" style="stroke:#008000;stroke-width:1.0;"/><text fill="#000000" font-family="sans-serif" font-size="13" lengthAdjust="spacing" textLength="80" x="1094" y="182.9575">targetsDelta</text><line style="stroke:#008000;stroke-width:1.0;" x1="256" x2="256" y1="100.8906" y2="140.8906"/><line style="stroke:#008000;stroke-width:1.0;" x1="256" x2="1080" y1="140.8906" y2="140.8906"/><line style="stroke:#008000;stroke-width:1.0;" x1="1080" x2="1080" y1="140.8906" y2="206.0234"/><polygon fill="#008000" points="1080,206.0234,1084,197.0234,1080,201.0234,1076,197.0234,1080,206.0234" style="stroke:#008000;stroke-width:1.0;"/><text fill="#000000" font-family="sans-serif" font-size="13" lengthAdjust="spacing" textLength="80" x="998" y="182.9575">targetsDelta</text><rect fill="#DDDDDD" height="79.1875" id="_legend" rx="7.5" ry="7.5" style="stroke:#000000;stroke-width:1.0;" width="161" x="870.5" y="295.9141"/><text fill="#000000" font-family="sans-serif" font-size="14" font-weight="bold" lengthAdjust="spacing" textLength="5" x="875.5" y="315.9092"> </text><text fill="#000000" font-family="sans-serif" font-size="14" font-weight="bold" lengthAdjust="spacing" textLength="28" x="892.5" y="315.9092">line</text><text fill="#000000" filter="url(#b1drotzipi9pk20)" font-family="sans-serif" font-size="14" lengthAdjust="spacing" textLength="12" x="875.5" y="332.2061">   </text><text fill="#000000" font-family="sans-serif" font-size="14" lengthAdjust="spacing" textLength="77" x="891.5" y="332.2061">inheritance</text><text fill="#000000" filter="url(#b1drotzipi9pk21)" font-family="sans-serif" font-size="14" lengthAdjust="spacing" textLength="12" x="875.5" y="348.5029">   </text><text fill="#000000" font-family="sans-serif" font-size="14" lengthAdjust="spacing" textLength="129" x="891.5" y="348.5029">property reference</text><text fill="#000000" filter="url(#b1drotzipi9pk22)" font-family="sans-serif" font-size="14" lengthAdjust="spacing" textLength="12" x="875.5" y="364.7998">   </text><text fill="#000000" font-family="sans-serif" font-size="14" lengthAdjust="spacing" textLength="131" x="891.5" y="364.7998">discriminated class</text><line style="stroke:#000000;stroke-width:1.0;" x1="875.5" x2="1026.5" y1="302.9141" y2="302.9141"/><line style="stroke:#000000;stroke-width:1.0;" x1="875.5" x2="1026.5" y1="319.2109" y2="319.2109"/><line style="stroke:#000000;stroke-width:1.0;" x1="875.5" x2="1026.5" y1="335.5078" y2="335.5078"/><line style="stroke:#000000;stroke-width:1.0;" x1="875.5" x2="1026.5" y1="351.8047" y2="351.8047"/><line style="stroke:#000000;stroke-width:1.0;" x1="875.5" x2="1026.5" y1="368.1016" y2="368.1016"/><line style="stroke:#000000;stroke-width:1.0;" x1="875.5" x2="875.5" y1="302.9141" y2="368.1016"/><line style="stroke:#000000;stroke-width:1.0;" x1="887.5" x2="887.5" y1="302.9141" y2="368.1016"/><line style="stroke:#000000;stroke-width:1.0;" x1="1026.5" x2="1026.5" y1="302.9141" y2="368.1016"/><!--MD5=[18f4e7d42edbfc1e4827efa6798bf551]
@startuml
!pragma layout elk
hide empty fields
hide empty methods
legend
|= |= line |
|<back:black>   </back>| inheritance |
|<back:green>   </back>| property reference |
|<back:blue>   </back>| discriminated class |
endlegend
interface ItemShippingTarget [[ItemShippingTarget.svg]]  {
    addressKey: String
    quantity: Long
    shippingMethodKey: String
}



interface ItemShippingDetails [[ItemShippingDetails.svg]]  {
    targets: [[ItemShippingTarget.svg List<ItemShippingTarget>]]
    valid: Boolean
}
interface ItemShippingDetailsDraft [[ItemShippingDetailsDraft.svg]]  {
    targets: [[ItemShippingTarget.svg List<ItemShippingTarget>]]
}
interface CartApplyDeltaToCustomLineItemShippingDetailsTargetsAction [[CartApplyDeltaToCustomLineItemShippingDetailsTargetsAction.svg]]  {
    action: String
    customLineItemId: String
    targetsDelta: [[ItemShippingTarget.svg List<ItemShippingTarget>]]
}
interface CartApplyDeltaToLineItemShippingDetailsTargetsAction [[CartApplyDeltaToLineItemShippingDetailsTargetsAction.svg]]  {
    action: String
    lineItemId: String
    targetsDelta: [[ItemShippingTarget.svg List<ItemShippingTarget>]]
}
interface MyCartApplyDeltaToLineItemShippingDetailsTargetsAction [[MyCartApplyDeltaToLineItemShippingDetailsTargetsAction.svg]]  {
    action: String
    lineItemId: String
    targetsDelta: [[ItemShippingTarget.svg List<ItemShippingTarget>]]
}

ItemShippingTarget - -> ItemShippingDetails #green;text:green : "targets"
ItemShippingTarget - -> ItemShippingDetailsDraft #green;text:green : "targets"
ItemShippingTarget - -> CartApplyDeltaToCustomLineItemShippingDetailsTargetsAction #green;text:green : "targetsDelta"
ItemShippingTarget - -> CartApplyDeltaToCustomLineItemShippingDetailsTargetsAction #green;text:green : "targetsDelta"
ItemShippingTarget - -> CartApplyDeltaToLineItemShippingDetailsTargetsAction #green;text:green : "targetsDelta"
ItemShippingTarget - -> CartApplyDeltaToLineItemShippingDetailsTargetsAction #green;text:green : "targetsDelta"
ItemShippingTarget - -> MyCartApplyDeltaToLineItemShippingDetailsTargetsAction #green;text:green : "targetsDelta"
ItemShippingTarget - -> MyCartApplyDeltaToLineItemShippingDetailsTargetsAction #green;text:green : "targetsDelta"
@enduml

PlantUML version 1.2022.13(Sat Nov 19 13:22:17 UTC 2022)
(GPL source distribution)
Java Runtime: OpenJDK Runtime Environment
JVM: OpenJDK 64-Bit Server VM
Default Encoding: UTF-8
Language: en
Country: null
--></g></svg>
