<?xml version="1.0" encoding="UTF-8" standalone="no"?><svg xmlns="http://www.w3.org/2000/svg" xmlns:xlink="http://www.w3.org/1999/xlink" contentStyleType="text/css" height="251px" preserveAspectRatio="none" style="width:179px;height:251px;background:#FFFFFF;" version="1.1" viewBox="0 0 179 251" width="179px" zoomAndPan="magnify"><defs/><g><!--MD5=[aeec9a05db77ab3be7a34ea6eacd0a69]
class MoneyType--><g id="elem_MoneyType"><rect codeLine="3" fill="#F1F1F1" height="72.5938" id="MoneyType" rx="2.5" ry="2.5" style="stroke:#181818;stroke-width:0.5;" width="131" x="26.5" y="12"/><ellipse cx="50.05" cy="28" fill="#EB937F" rx="11" ry="11" style="stroke:#181818;stroke-width:1.0;"/><path d="M54.1594,34 L46.4406,34 L46.4406,21.6094 L54.1594,21.6094 L54.1594,23.7656 L48.8938,23.7656 L48.8938,26.4375 L53.6594,26.4375 L53.6594,28.5938 L48.8938,28.5938 L48.8938,31.8438 L54.1594,31.8438 L54.1594,34 Z " fill="#000000"/><text fill="#000000" font-family="sans-serif" font-size="14" lengthAdjust="spacing" textLength="80" x="65.95" y="32.8467">MoneyType</text><line style="stroke:#181818;stroke-width:0.5;" x1="27.5" x2="156.5" y1="44" y2="44"/><text fill="#000000" font-family="sans-serif" font-size="14" lengthAdjust="spacing" textLength="119" x="32.5" y="60.9951">CENT_PRECISION</text><text fill="#000000" font-family="sans-serif" font-size="14" lengthAdjust="spacing" textLength="115" x="32.5" y="77.292">HIGH_PRECISION</text></g><!--MD5=[3bd9c36241168d97d6dcd0256933e63d]
class TypedMoneyDraft--><a href="TypedMoneyDraft.svg" target="_top" title="TypedMoneyDraft.svg" xlink:actuate="onRequest" xlink:href="TypedMoneyDraft.svg" xlink:show="new" xlink:title="TypedMoneyDraft.svg" xlink:type="simple"><g id="elem_TypedMoneyDraft"><rect codeLine="7" fill="#F1F1F1" height="105.1875" id="TypedMoneyDraft" rx="2.5" ry="2.5" style="stroke:#181818;stroke-width:0.5;" width="160" x="12" y="139.7266"/><ellipse cx="28.8" cy="155.7266" fill="#B4A7E5" rx="11" ry="11" style="stroke:#181818;stroke-width:1.0;"/><path d="M24.7219,151.4922 L24.7219,149.3359 L32.1125,149.3359 L32.1125,151.4922 L29.6438,151.4922 L29.6438,159.5703 L32.1125,159.5703 L32.1125,161.7266 L24.7219,161.7266 L24.7219,159.5703 L27.1906,159.5703 L27.1906,151.4922 L24.7219,151.4922 Z " fill="#000000"/><text fill="#000000" font-family="sans-serif" font-size="14" font-style="italic" lengthAdjust="spacing" textLength="124" x="43.2" y="160.5732">TypedMoneyDraft</text><line style="stroke:#181818;stroke-width:0.5;" x1="13" x2="171" y1="171.7266" y2="171.7266"/><text fill="#000000" font-family="sans-serif" font-size="14" lengthAdjust="spacing" textLength="128" x="18" y="188.7217">centAmount: Long</text><text fill="#000000" font-family="sans-serif" font-size="14" lengthAdjust="spacing" textLength="146" x="18" y="205.0186">currencyCode: String</text><text fill="#000000" font-family="sans-serif" font-size="14" lengthAdjust="spacing" textLength="35" x="18" y="221.3154">type:</text><a href="MoneyType.svg" target="_top" title="MoneyType.svg" xlink:actuate="onRequest" xlink:href="MoneyType.svg" xlink:show="new" xlink:title="MoneyType.svg" xlink:type="simple"><text fill="#0000FF" font-family="sans-serif" font-size="14" lengthAdjust="spacing" text-decoration="underline" textLength="80" x="57" y="221.3154">MoneyType</text></a><text fill="#000000" font-family="sans-serif" font-size="14" lengthAdjust="spacing" textLength="148" x="18" y="237.6123">fractionDigits: Integer</text></g></a><line style="stroke:#008000;stroke-width:1.0;" x1="92" x2="92" y1="84.5938" y2="139.7266"/><polygon fill="#008000" points="92,139.7266,96,130.7266,92,134.7266,88,130.7266,92,139.7266" style="stroke:#008000;stroke-width:1.0;"/><text fill="#000000" font-family="sans-serif" font-size="13" lengthAdjust="spacing" textLength="28" x="62" y="116.6606">type</text><!--MD5=[a567f58438e5641ade5bbc67be51e130]
@startuml
!pragma layout elk
hide methods
enum MoneyType {
    CENT_PRECISION
    HIGH_PRECISION
}
interface TypedMoneyDraft [[TypedMoneyDraft.svg]]  {
    centAmount: Long
    currencyCode: String
    type: [[MoneyType.svg MoneyType]]
    fractionDigits: Integer
}
MoneyType - -> TypedMoneyDraft #green;text:green : "type"
@enduml

PlantUML version 1.2022.13(Sat Nov 19 13:22:17 UTC 2022)
(GPL source distribution)
Java Runtime: OpenJDK Runtime Environment
JVM: OpenJDK 64-Bit Server VM
Default Encoding: UTF-8
Language: en
Country: null
--></g></svg>
