<?xml version="1.0" encoding="UTF-8" standalone="no"?><svg xmlns="http://www.w3.org/2000/svg" xmlns:xlink="http://www.w3.org/1999/xlink" contentStyleType="text/css" height="251px" preserveAspectRatio="none" style="width:359px;height:251px;background:#FFFFFF;" version="1.1" viewBox="0 0 359 251" width="359px" zoomAndPan="magnify"><defs/><g><!--MD5=[aeec9a05db77ab3be7a34ea6eacd0a69]
class MoneyType--><g id="elem_MoneyType"><rect codeLine="3" fill="#F1F1F1" height="72.5938" id="MoneyType" rx="2.5" ry="2.5" style="stroke:#181818;stroke-width:0.5;" width="131" x="48.3333" y="12"/><ellipse cx="71.8833" cy="28" fill="#EB937F" rx="11" ry="11" style="stroke:#181818;stroke-width:1.0;"/><path d="M75.9927,34 L68.274,34 L68.274,21.6094 L75.9927,21.6094 L75.9927,23.7656 L70.7271,23.7656 L70.7271,26.4375 L75.4927,26.4375 L75.4927,28.5938 L70.7271,28.5938 L70.7271,31.8438 L75.9927,31.8438 L75.9927,34 Z " fill="#000000"/><text fill="#000000" font-family="sans-serif" font-size="14" lengthAdjust="spacing" textLength="80" x="87.7833" y="32.8467">MoneyType</text><line style="stroke:#181818;stroke-width:0.5;" x1="49.3333" x2="178.3333" y1="44" y2="44"/><text fill="#000000" font-family="sans-serif" font-size="14" lengthAdjust="spacing" textLength="119" x="54.3333" y="60.9951">CENT_PRECISION</text><text fill="#000000" font-family="sans-serif" font-size="14" lengthAdjust="spacing" textLength="115" x="54.3333" y="77.292">HIGH_PRECISION</text></g><!--MD5=[a640b9538c960613d15791d1c0963e7f]
class TypedMoney--><a href="TypedMoney.svg" target="_top" title="TypedMoney.svg" xlink:actuate="onRequest" xlink:href="TypedMoney.svg" xlink:show="new" xlink:title="TypedMoney.svg" xlink:type="simple"><g id="elem_TypedMoney"><rect codeLine="7" fill="#F1F1F1" height="105.1875" id="TypedMoney" rx="2.5" ry="2.5" style="stroke:#181818;stroke-width:0.5;" width="160" x="12" y="139.7266"/><ellipse cx="43.65" cy="155.7266" fill="#B4A7E5" rx="11" ry="11" style="stroke:#181818;stroke-width:1.0;"/><path d="M39.5719,151.4922 L39.5719,149.3359 L46.9625,149.3359 L46.9625,151.4922 L44.4938,151.4922 L44.4938,159.5703 L46.9625,159.5703 L46.9625,161.7266 L39.5719,161.7266 L39.5719,159.5703 L42.0406,159.5703 L42.0406,151.4922 L39.5719,151.4922 Z " fill="#000000"/><text fill="#000000" font-family="sans-serif" font-size="14" font-style="italic" lengthAdjust="spacing" textLength="91" x="61.35" y="160.5732">TypedMoney</text><line style="stroke:#181818;stroke-width:0.5;" x1="13" x2="171" y1="171.7266" y2="171.7266"/><text fill="#000000" font-family="sans-serif" font-size="14" lengthAdjust="spacing" textLength="128" x="18" y="188.7217">centAmount: Long</text><text fill="#000000" font-family="sans-serif" font-size="14" lengthAdjust="spacing" textLength="146" x="18" y="205.0186">currencyCode: String</text><text fill="#000000" font-family="sans-serif" font-size="14" lengthAdjust="spacing" textLength="35" x="18" y="221.3154">type:</text><a href="MoneyType.svg" target="_top" title="MoneyType.svg" xlink:actuate="onRequest" xlink:href="MoneyType.svg" xlink:show="new" xlink:title="MoneyType.svg" xlink:type="simple"><text fill="#0000FF" font-family="sans-serif" font-size="14" lengthAdjust="spacing" text-decoration="underline" textLength="80" x="57" y="221.3154">MoneyType</text></a><text fill="#000000" font-family="sans-serif" font-size="14" lengthAdjust="spacing" textLength="148" x="18" y="237.6123">fractionDigits: Integer</text></g></a><!--MD5=[3bd9c36241168d97d6dcd0256933e63d]
class TypedMoneyDraft--><a href="TypedMoneyDraft.svg" target="_top" title="TypedMoneyDraft.svg" xlink:actuate="onRequest" xlink:href="TypedMoneyDraft.svg" xlink:show="new" xlink:title="TypedMoneyDraft.svg" xlink:type="simple"><g id="elem_TypedMoneyDraft"><rect codeLine="13" fill="#F1F1F1" height="105.1875" id="TypedMoneyDraft" rx="2.5" ry="2.5" style="stroke:#181818;stroke-width:0.5;" width="160" x="192" y="139.7266"/><ellipse cx="208.8" cy="155.7266" fill="#B4A7E5" rx="11" ry="11" style="stroke:#181818;stroke-width:1.0;"/><path d="M204.7219,151.4922 L204.7219,149.3359 L212.1125,149.3359 L212.1125,151.4922 L209.6438,151.4922 L209.6438,159.5703 L212.1125,159.5703 L212.1125,161.7266 L204.7219,161.7266 L204.7219,159.5703 L207.1906,159.5703 L207.1906,151.4922 L204.7219,151.4922 Z " fill="#000000"/><text fill="#000000" font-family="sans-serif" font-size="14" font-style="italic" lengthAdjust="spacing" textLength="124" x="223.2" y="160.5732">TypedMoneyDraft</text><line style="stroke:#181818;stroke-width:0.5;" x1="193" x2="351" y1="171.7266" y2="171.7266"/><text fill="#000000" font-family="sans-serif" font-size="14" lengthAdjust="spacing" textLength="128" x="198" y="188.7217">centAmount: Long</text><text fill="#000000" font-family="sans-serif" font-size="14" lengthAdjust="spacing" textLength="146" x="198" y="205.0186">currencyCode: String</text><text fill="#000000" font-family="sans-serif" font-size="14" lengthAdjust="spacing" textLength="35" x="198" y="221.3154">type:</text><a href="MoneyType.svg" target="_top" title="MoneyType.svg" xlink:actuate="onRequest" xlink:href="MoneyType.svg" xlink:show="new" xlink:title="MoneyType.svg" xlink:type="simple"><text fill="#0000FF" font-family="sans-serif" font-size="14" lengthAdjust="spacing" text-decoration="underline" textLength="80" x="237" y="221.3154">MoneyType</text></a><text fill="#000000" font-family="sans-serif" font-size="14" lengthAdjust="spacing" textLength="148" x="198" y="237.6123">fractionDigits: Integer</text></g></a><line style="stroke:#008000;stroke-width:1.0;" x1="92" x2="92" y1="84.5938" y2="139.7266"/><polygon fill="#008000" points="92,139.7266,96,130.7266,92,134.7266,88,130.7266,92,139.7266" style="stroke:#008000;stroke-width:1.0;"/><text fill="#000000" font-family="sans-serif" font-size="13" lengthAdjust="spacing" textLength="28" x="62" y="116.6606">type</text><line style="stroke:#008000;stroke-width:1.0;" x1="135.6667" x2="135.6667" y1="84.5938" y2="94.5938"/><line style="stroke:#008000;stroke-width:1.0;" x1="135.6667" x2="272" y1="94.5938" y2="94.5938"/><line style="stroke:#008000;stroke-width:1.0;" x1="272" x2="272" y1="94.5938" y2="139.7266"/><polygon fill="#008000" points="272,139.7266,276,130.7266,272,134.7266,268,130.7266,272,139.7266" style="stroke:#008000;stroke-width:1.0;"/><text fill="#000000" font-family="sans-serif" font-size="13" lengthAdjust="spacing" textLength="28" x="275" y="116.6606">type</text><!--MD5=[31aabe81a5540e29695e4a589d7cf256]
@startuml
!pragma layout elk
hide methods
enum MoneyType {
    CENT_PRECISION
    HIGH_PRECISION
}
interface TypedMoney [[TypedMoney.svg]]  {
    centAmount: Long
    currencyCode: String
    type: [[MoneyType.svg MoneyType]]
    fractionDigits: Integer
}
interface TypedMoneyDraft [[TypedMoneyDraft.svg]]  {
    centAmount: Long
    currencyCode: String
    type: [[MoneyType.svg MoneyType]]
    fractionDigits: Integer
}
MoneyType - -> TypedMoney #green;text:green : "type"
MoneyType - -> TypedMoneyDraft #green;text:green : "type"
@enduml

PlantUML version 1.2022.13(Sat Nov 19 13:22:17 UTC 2022)
(GPL source distribution)
Java Runtime: OpenJDK Runtime Environment
JVM: OpenJDK 64-Bit Server VM
Default Encoding: UTF-8
Language: en
Country: null
--></g></svg>
