<?xml version="1.0" encoding="UTF-8" standalone="no"?><svg xmlns="http://www.w3.org/2000/svg" xmlns:xlink="http://www.w3.org/1999/xlink" contentStyleType="text/css" height="261px" preserveAspectRatio="none" style="width:232px;height:261px;background:#FFFFFF;" version="1.1" viewBox="0 0 232 261" width="232px" zoomAndPan="magnify"><defs><filter height="1" id="byc8vkpbmqwc90" width="1" x="0" y="0"><feFlood flood-color="#000000" result="flood"/><feComposite in="SourceGraphic" in2="flood" operator="over"/></filter><filter height="1" id="byc8vkpbmqwc91" width="1" x="0" y="0"><feFlood flood-color="#008000" result="flood"/><feComposite in="SourceGraphic" in2="flood" operator="over"/></filter><filter height="1" id="byc8vkpbmqwc92" width="1" x="0" y="0"><feFlood flood-color="#0000FF" result="flood"/><feComposite in="SourceGraphic" in2="flood" operator="over"/></filter></defs><g><!--MD5=[2aac9cead1104e66af7b38d5399c6d7b]
class MyCartRecalculateAction--><a href="MyCartRecalculateAction.svg" target="_top" title="MyCartRecalculateAction.svg" xlink:actuate="onRequest" xlink:href="MyCartRecalculateAction.svg" xlink:show="new" xlink:title="MyCartRecalculateAction.svg" xlink:type="simple"><g id="elem_MyCartRecalculateAction"><rect codeLine="10" fill="#F1F1F1" height="72.5938" id="MyCartRecalculateAction" rx="2.5" ry="2.5" style="stroke:#181818;stroke-width:0.5;" width="213" x="12" y="88.2969"/><ellipse cx="31.05" cy="104.2969" fill="#B4A7E5" rx="11" ry="11" style="stroke:#181818;stroke-width:1.0;"/><path d="M26.9719,100.0625 L26.9719,97.9063 L34.3625,97.9063 L34.3625,100.0625 L31.8938,100.0625 L31.8938,108.1406 L34.3625,108.1406 L34.3625,110.2969 L26.9719,110.2969 L26.9719,108.1406 L29.4406,108.1406 L29.4406,100.0625 L26.9719,100.0625 Z " fill="#000000"/><text fill="#000000" font-family="sans-serif" font-size="14" font-style="italic" lengthAdjust="spacing" textLength="172" x="45.95" y="109.1436">MyCartRecalculateAction</text><line style="stroke:#181818;stroke-width:0.5;" x1="13" x2="224" y1="120.2969" y2="120.2969"/><text fill="#000000" font-family="sans-serif" font-size="14" lengthAdjust="spacing" textLength="91" x="18" y="137.292">action: String</text><text fill="#000000" font-family="sans-serif" font-size="14" lengthAdjust="spacing" textLength="201" x="18" y="153.5889">updateProductData: Boolean</text></g></a><!--MD5=[ca4c48babf1405128fd2c9b757f14950]
class MyCartUpdateAction--><a href="MyCartUpdateAction.svg" target="_top" title="MyCartUpdateAction.svg" xlink:actuate="onRequest" xlink:href="MyCartUpdateAction.svg" xlink:show="new" xlink:title="MyCartUpdateAction.svg" xlink:type="simple"><g id="elem_MyCartUpdateAction"><rect codeLine="14" fill="#F1F1F1" height="56.2969" id="MyCartUpdateAction" rx="2.5" ry="2.5" style="stroke:#181818;stroke-width:0.5;" width="174" x="31.5" y="12"/><ellipse cx="46.5" cy="28" fill="#B4A7E5" rx="11" ry="11" style="stroke:#181818;stroke-width:1.0;"/><path d="M42.4219,23.7656 L42.4219,21.6094 L49.8125,21.6094 L49.8125,23.7656 L47.3438,23.7656 L47.3438,31.8438 L49.8125,31.8438 L49.8125,34 L42.4219,34 L42.4219,31.8438 L44.8906,31.8438 L44.8906,23.7656 L42.4219,23.7656 Z " fill="#000000"/><text fill="#000000" font-family="sans-serif" font-size="14" font-style="italic" lengthAdjust="spacing" textLength="142" x="60.5" y="32.8467">MyCartUpdateAction</text><line style="stroke:#181818;stroke-width:0.5;" x1="32.5" x2="204.5" y1="44" y2="44"/><text fill="#000000" font-family="sans-serif" font-size="14" lengthAdjust="spacing" textLength="91" x="37.5" y="60.9951">action: String</text></g></a><line style="stroke:#181818;stroke-width:1.0;" x1="118.5" x2="118.5" y1="68.2969" y2="88.2969"/><polygon fill="#FFFFFF" points="118.5,68.2969,111.5,87.2969,125.5,87.2969,118.5,68.2969" style="stroke:#181818;stroke-width:1.0;"/><rect fill="#DDDDDD" height="79.1875" id="_legend" rx="7.5" ry="7.5" style="stroke:#000000;stroke-width:1.0;" width="161" x="26" y="161.8906"/><text fill="#000000" font-family="sans-serif" font-size="14" font-weight="bold" lengthAdjust="spacing" textLength="5" x="31" y="181.8857"> </text><text fill="#000000" font-family="sans-serif" font-size="14" font-weight="bold" lengthAdjust="spacing" textLength="28" x="48" y="181.8857">line</text><text fill="#000000" filter="url(#byc8vkpbmqwc90)" font-family="sans-serif" font-size="14" lengthAdjust="spacing" textLength="12" x="31" y="198.1826">   </text><text fill="#000000" font-family="sans-serif" font-size="14" lengthAdjust="spacing" textLength="77" x="47" y="198.1826">inheritance</text><text fill="#000000" filter="url(#byc8vkpbmqwc91)" font-family="sans-serif" font-size="14" lengthAdjust="spacing" textLength="12" x="31" y="214.4795">   </text><text fill="#000000" font-family="sans-serif" font-size="14" lengthAdjust="spacing" textLength="129" x="47" y="214.4795">property reference</text><text fill="#000000" filter="url(#byc8vkpbmqwc92)" font-family="sans-serif" font-size="14" lengthAdjust="spacing" textLength="12" x="31" y="230.7764">   </text><text fill="#000000" font-family="sans-serif" font-size="14" lengthAdjust="spacing" textLength="131" x="47" y="230.7764">discriminated class</text><line style="stroke:#000000;stroke-width:1.0;" x1="31" x2="182" y1="168.8906" y2="168.8906"/><line style="stroke:#000000;stroke-width:1.0;" x1="31" x2="182" y1="185.1875" y2="185.1875"/><line style="stroke:#000000;stroke-width:1.0;" x1="31" x2="182" y1="201.4844" y2="201.4844"/><line style="stroke:#000000;stroke-width:1.0;" x1="31" x2="182" y1="217.7813" y2="217.7813"/><line style="stroke:#000000;stroke-width:1.0;" x1="31" x2="182" y1="234.0781" y2="234.0781"/><line style="stroke:#000000;stroke-width:1.0;" x1="31" x2="31" y1="168.8906" y2="234.0781"/><line style="stroke:#000000;stroke-width:1.0;" x1="43" x2="43" y1="168.8906" y2="234.0781"/><line style="stroke:#000000;stroke-width:1.0;" x1="182" x2="182" y1="168.8906" y2="234.0781"/><!--MD5=[7b05508d704ad192997bbee6b1c9e93d]
@startuml
!pragma layout elk
hide empty fields
hide empty methods
legend
|= |= line |
|<back:black>   </back>| inheritance |
|<back:green>   </back>| property reference |
|<back:blue>   </back>| discriminated class |
endlegend
interface MyCartRecalculateAction [[MyCartRecalculateAction.svg]] extends MyCartUpdateAction {
    action: String
    updateProductData: Boolean
}
interface MyCartUpdateAction [[MyCartUpdateAction.svg]]  {
    action: String
}





@enduml

PlantUML version 1.2022.13(Sat Nov 19 13:22:17 UTC 2022)
(GPL source distribution)
Java Runtime: OpenJDK Runtime Environment
JVM: OpenJDK 64-Bit Server VM
Default Encoding: UTF-8
Language: en
Country: null
--></g></svg>
