<?xml version="1.0" encoding="UTF-8" standalone="no"?><svg xmlns="http://www.w3.org/2000/svg" xmlns:xlink="http://www.w3.org/1999/xlink" contentStyleType="text/css" height="261px" preserveAspectRatio="none" style="width:269px;height:261px;background:#FFFFFF;" version="1.1" viewBox="0 0 269 261" width="269px" zoomAndPan="magnify"><defs><filter height="1" id="bnp64hjgnqpt90" width="1" x="0" y="0"><feFlood flood-color="#000000" result="flood"/><feComposite in="SourceGraphic" in2="flood" operator="over"/></filter><filter height="1" id="bnp64hjgnqpt91" width="1" x="0" y="0"><feFlood flood-color="#008000" result="flood"/><feComposite in="SourceGraphic" in2="flood" operator="over"/></filter><filter height="1" id="bnp64hjgnqpt92" width="1" x="0" y="0"><feFlood flood-color="#0000FF" result="flood"/><feComposite in="SourceGraphic" in2="flood" operator="over"/></filter></defs><g><!--MD5=[645072a82933564657cb638ebf16bcfb]
class MyCartAddDiscountCodeAction--><a href="MyCartAddDiscountCodeAction.svg" target="_top" title="MyCartAddDiscountCodeAction.svg" xlink:actuate="onRequest" xlink:href="MyCartAddDiscountCodeAction.svg" xlink:show="new" xlink:title="MyCartAddDiscountCodeAction.svg" xlink:type="simple"><g id="elem_MyCartAddDiscountCodeAction"><rect codeLine="10" fill="#F1F1F1" height="72.5938" id="MyCartAddDiscountCodeAction" rx="2.5" ry="2.5" style="stroke:#181818;stroke-width:0.5;" width="250" x="12" y="88.2969"/><ellipse cx="27" cy="104.2969" fill="#B4A7E5" rx="11" ry="11" style="stroke:#181818;stroke-width:1.0;"/><path d="M22.9219,100.0625 L22.9219,97.9063 L30.3125,97.9063 L30.3125,100.0625 L27.8438,100.0625 L27.8438,108.1406 L30.3125,108.1406 L30.3125,110.2969 L22.9219,110.2969 L22.9219,108.1406 L25.3906,108.1406 L25.3906,100.0625 L22.9219,100.0625 Z " fill="#000000"/><text fill="#000000" font-family="sans-serif" font-size="14" font-style="italic" lengthAdjust="spacing" textLength="218" x="41" y="109.1436">MyCartAddDiscountCodeAction</text><line style="stroke:#181818;stroke-width:0.5;" x1="13" x2="261" y1="120.2969" y2="120.2969"/><text fill="#000000" font-family="sans-serif" font-size="14" lengthAdjust="spacing" textLength="91" x="18" y="137.292">action: String</text><text fill="#000000" font-family="sans-serif" font-size="14" lengthAdjust="spacing" textLength="84" x="18" y="153.5889">code: String</text></g></a><!--MD5=[ca4c48babf1405128fd2c9b757f14950]
class MyCartUpdateAction--><a href="MyCartUpdateAction.svg" target="_top" title="MyCartUpdateAction.svg" xlink:actuate="onRequest" xlink:href="MyCartUpdateAction.svg" xlink:show="new" xlink:title="MyCartUpdateAction.svg" xlink:type="simple"><g id="elem_MyCartUpdateAction"><rect codeLine="14" fill="#F1F1F1" height="56.2969" id="MyCartUpdateAction" rx="2.5" ry="2.5" style="stroke:#181818;stroke-width:0.5;" width="174" x="50" y="12"/><ellipse cx="65" cy="28" fill="#B4A7E5" rx="11" ry="11" style="stroke:#181818;stroke-width:1.0;"/><path d="M60.9219,23.7656 L60.9219,21.6094 L68.3125,21.6094 L68.3125,23.7656 L65.8438,23.7656 L65.8438,31.8438 L68.3125,31.8438 L68.3125,34 L60.9219,34 L60.9219,31.8438 L63.3906,31.8438 L63.3906,23.7656 L60.9219,23.7656 Z " fill="#000000"/><text fill="#000000" font-family="sans-serif" font-size="14" font-style="italic" lengthAdjust="spacing" textLength="142" x="79" y="32.8467">MyCartUpdateAction</text><line style="stroke:#181818;stroke-width:0.5;" x1="51" x2="223" y1="44" y2="44"/><text fill="#000000" font-family="sans-serif" font-size="14" lengthAdjust="spacing" textLength="91" x="56" y="60.9951">action: String</text></g></a><line style="stroke:#181818;stroke-width:1.0;" x1="137" x2="137" y1="68.2969" y2="88.2969"/><polygon fill="#FFFFFF" points="137,68.2969,130,87.2969,144,87.2969,137,68.2969" style="stroke:#181818;stroke-width:1.0;"/><rect fill="#DDDDDD" height="79.1875" id="_legend" rx="7.5" ry="7.5" style="stroke:#000000;stroke-width:1.0;" width="161" x="44.5" y="161.8906"/><text fill="#000000" font-family="sans-serif" font-size="14" font-weight="bold" lengthAdjust="spacing" textLength="5" x="49.5" y="181.8857"> </text><text fill="#000000" font-family="sans-serif" font-size="14" font-weight="bold" lengthAdjust="spacing" textLength="28" x="66.5" y="181.8857">line</text><text fill="#000000" filter="url(#bnp64hjgnqpt90)" font-family="sans-serif" font-size="14" lengthAdjust="spacing" textLength="12" x="49.5" y="198.1826">   </text><text fill="#000000" font-family="sans-serif" font-size="14" lengthAdjust="spacing" textLength="77" x="65.5" y="198.1826">inheritance</text><text fill="#000000" filter="url(#bnp64hjgnqpt91)" font-family="sans-serif" font-size="14" lengthAdjust="spacing" textLength="12" x="49.5" y="214.4795">   </text><text fill="#000000" font-family="sans-serif" font-size="14" lengthAdjust="spacing" textLength="129" x="65.5" y="214.4795">property reference</text><text fill="#000000" filter="url(#bnp64hjgnqpt92)" font-family="sans-serif" font-size="14" lengthAdjust="spacing" textLength="12" x="49.5" y="230.7764">   </text><text fill="#000000" font-family="sans-serif" font-size="14" lengthAdjust="spacing" textLength="131" x="65.5" y="230.7764">discriminated class</text><line style="stroke:#000000;stroke-width:1.0;" x1="49.5" x2="200.5" y1="168.8906" y2="168.8906"/><line style="stroke:#000000;stroke-width:1.0;" x1="49.5" x2="200.5" y1="185.1875" y2="185.1875"/><line style="stroke:#000000;stroke-width:1.0;" x1="49.5" x2="200.5" y1="201.4844" y2="201.4844"/><line style="stroke:#000000;stroke-width:1.0;" x1="49.5" x2="200.5" y1="217.7813" y2="217.7813"/><line style="stroke:#000000;stroke-width:1.0;" x1="49.5" x2="200.5" y1="234.0781" y2="234.0781"/><line style="stroke:#000000;stroke-width:1.0;" x1="49.5" x2="49.5" y1="168.8906" y2="234.0781"/><line style="stroke:#000000;stroke-width:1.0;" x1="61.5" x2="61.5" y1="168.8906" y2="234.0781"/><line style="stroke:#000000;stroke-width:1.0;" x1="200.5" x2="200.5" y1="168.8906" y2="234.0781"/><!--MD5=[a07890da1c3a313f284bbaf91460d1f6]
@startuml
!pragma layout elk
hide empty fields
hide empty methods
legend
|= |= line |
|<back:black>   </back>| inheritance |
|<back:green>   </back>| property reference |
|<back:blue>   </back>| discriminated class |
endlegend
interface MyCartAddDiscountCodeAction [[MyCartAddDiscountCodeAction.svg]] extends MyCartUpdateAction {
    action: String
    code: String
}
interface MyCartUpdateAction [[MyCartUpdateAction.svg]]  {
    action: String
}





@enduml

PlantUML version 1.2022.13(Sat Nov 19 13:22:17 UTC 2022)
(GPL source distribution)
Java Runtime: OpenJDK Runtime Environment
JVM: OpenJDK 64-Bit Server VM
Default Encoding: UTF-8
Language: en
Country: null
--></g></svg>
