<?xml version="1.0" encoding="UTF-8" standalone="no"?><svg xmlns="http://www.w3.org/2000/svg" xmlns:xlink="http://www.w3.org/1999/xlink" contentStyleType="text/css" height="277px" preserveAspectRatio="none" style="width:296px;height:277px;background:#FFFFFF;" version="1.1" viewBox="0 0 296 277" width="296px" zoomAndPan="magnify"><defs><filter height="1" id="b1dzgvbs7q376w0" width="1" x="0" y="0"><feFlood flood-color="#000000" result="flood"/><feComposite in="SourceGraphic" in2="flood" operator="over"/></filter><filter height="1" id="b1dzgvbs7q376w1" width="1" x="0" y="0"><feFlood flood-color="#008000" result="flood"/><feComposite in="SourceGraphic" in2="flood" operator="over"/></filter><filter height="1" id="b1dzgvbs7q376w2" width="1" x="0" y="0"><feFlood flood-color="#0000FF" result="flood"/><feComposite in="SourceGraphic" in2="flood" operator="over"/></filter></defs><g><!--MD5=[3a137553d2b7a62be6b72b673e008f2d]
class MyCustomerRemoveAddressAction--><a href="MyCustomerRemoveAddressAction.svg" target="_top" title="MyCustomerRemoveAddressAction.svg" xlink:actuate="onRequest" xlink:href="MyCustomerRemoveAddressAction.svg" xlink:show="new" xlink:title="MyCustomerRemoveAddressAction.svg" xlink:type="simple"><g id="elem_MyCustomerRemoveAddressAction"><rect codeLine="10" fill="#F1F1F1" height="88.8906" id="MyCustomerRemoveAddressAction" rx="2.5" ry="2.5" style="stroke:#181818;stroke-width:0.5;" width="277" x="12" y="88.2969"/><ellipse cx="27" cy="104.2969" fill="#B4A7E5" rx="11" ry="11" style="stroke:#181818;stroke-width:1.0;"/><path d="M22.9219,100.0625 L22.9219,97.9063 L30.3125,97.9063 L30.3125,100.0625 L27.8438,100.0625 L27.8438,108.1406 L30.3125,108.1406 L30.3125,110.2969 L22.9219,110.2969 L22.9219,108.1406 L25.3906,108.1406 L25.3906,100.0625 L22.9219,100.0625 Z " fill="#000000"/><text fill="#000000" font-family="sans-serif" font-size="14" font-style="italic" lengthAdjust="spacing" textLength="245" x="41" y="109.1436">MyCustomerRemoveAddressAction</text><line style="stroke:#181818;stroke-width:0.5;" x1="13" x2="288" y1="120.2969" y2="120.2969"/><text fill="#000000" font-family="sans-serif" font-size="14" lengthAdjust="spacing" textLength="91" x="18" y="137.292">action: String</text><text fill="#000000" font-family="sans-serif" font-size="14" lengthAdjust="spacing" textLength="117" x="18" y="153.5889">addressId: String</text><text fill="#000000" font-family="sans-serif" font-size="14" lengthAdjust="spacing" textLength="130" x="18" y="169.8857">addressKey: String</text></g></a><!--MD5=[2af8b3cf26065c5efacefe8dcaee4460]
class MyCustomerUpdateAction--><a href="MyCustomerUpdateAction.svg" target="_top" title="MyCustomerUpdateAction.svg" xlink:actuate="onRequest" xlink:href="MyCustomerUpdateAction.svg" xlink:show="new" xlink:title="MyCustomerUpdateAction.svg" xlink:type="simple"><g id="elem_MyCustomerUpdateAction"><rect codeLine="15" fill="#F1F1F1" height="56.2969" id="MyCustomerUpdateAction" rx="2.5" ry="2.5" style="stroke:#181818;stroke-width:0.5;" width="213" x="44" y="12"/><ellipse cx="59" cy="28" fill="#B4A7E5" rx="11" ry="11" style="stroke:#181818;stroke-width:1.0;"/><path d="M54.9219,23.7656 L54.9219,21.6094 L62.3125,21.6094 L62.3125,23.7656 L59.8438,23.7656 L59.8438,31.8438 L62.3125,31.8438 L62.3125,34 L54.9219,34 L54.9219,31.8438 L57.3906,31.8438 L57.3906,23.7656 L54.9219,23.7656 Z " fill="#000000"/><text fill="#000000" font-family="sans-serif" font-size="14" font-style="italic" lengthAdjust="spacing" textLength="181" x="73" y="32.8467">MyCustomerUpdateAction</text><line style="stroke:#181818;stroke-width:0.5;" x1="45" x2="256" y1="44" y2="44"/><text fill="#000000" font-family="sans-serif" font-size="14" lengthAdjust="spacing" textLength="91" x="50" y="60.9951">action: String</text></g></a><line style="stroke:#181818;stroke-width:1.0;" x1="150.5" x2="150.5" y1="68.2969" y2="88.2969"/><polygon fill="#FFFFFF" points="150.5,68.2969,143.5,87.2969,157.5,87.2969,150.5,68.2969" style="stroke:#181818;stroke-width:1.0;"/><rect fill="#DDDDDD" height="79.1875" id="_legend" rx="7.5" ry="7.5" style="stroke:#000000;stroke-width:1.0;" width="161" x="58" y="178.1875"/><text fill="#000000" font-family="sans-serif" font-size="14" font-weight="bold" lengthAdjust="spacing" textLength="5" x="63" y="198.1826"> </text><text fill="#000000" font-family="sans-serif" font-size="14" font-weight="bold" lengthAdjust="spacing" textLength="28" x="80" y="198.1826">line</text><text fill="#000000" filter="url(#b1dzgvbs7q376w0)" font-family="sans-serif" font-size="14" lengthAdjust="spacing" textLength="12" x="63" y="214.4795">   </text><text fill="#000000" font-family="sans-serif" font-size="14" lengthAdjust="spacing" textLength="77" x="79" y="214.4795">inheritance</text><text fill="#000000" filter="url(#b1dzgvbs7q376w1)" font-family="sans-serif" font-size="14" lengthAdjust="spacing" textLength="12" x="63" y="230.7764">   </text><text fill="#000000" font-family="sans-serif" font-size="14" lengthAdjust="spacing" textLength="129" x="79" y="230.7764">property reference</text><text fill="#000000" filter="url(#b1dzgvbs7q376w2)" font-family="sans-serif" font-size="14" lengthAdjust="spacing" textLength="12" x="63" y="247.0732">   </text><text fill="#000000" font-family="sans-serif" font-size="14" lengthAdjust="spacing" textLength="131" x="79" y="247.0732">discriminated class</text><line style="stroke:#000000;stroke-width:1.0;" x1="63" x2="214" y1="185.1875" y2="185.1875"/><line style="stroke:#000000;stroke-width:1.0;" x1="63" x2="214" y1="201.4844" y2="201.4844"/><line style="stroke:#000000;stroke-width:1.0;" x1="63" x2="214" y1="217.7813" y2="217.7813"/><line style="stroke:#000000;stroke-width:1.0;" x1="63" x2="214" y1="234.0781" y2="234.0781"/><line style="stroke:#000000;stroke-width:1.0;" x1="63" x2="214" y1="250.375" y2="250.375"/><line style="stroke:#000000;stroke-width:1.0;" x1="63" x2="63" y1="185.1875" y2="250.375"/><line style="stroke:#000000;stroke-width:1.0;" x1="75" x2="75" y1="185.1875" y2="250.375"/><line style="stroke:#000000;stroke-width:1.0;" x1="214" x2="214" y1="185.1875" y2="250.375"/><!--MD5=[d18f0aeeec87fbd68ba37405326d93f6]
@startuml
!pragma layout elk
hide empty fields
hide empty methods
legend
|= |= line |
|<back:black>   </back>| inheritance |
|<back:green>   </back>| property reference |
|<back:blue>   </back>| discriminated class |
endlegend
interface MyCustomerRemoveAddressAction [[MyCustomerRemoveAddressAction.svg]] extends MyCustomerUpdateAction {
    action: String
    addressId: String
    addressKey: String
}
interface MyCustomerUpdateAction [[MyCustomerUpdateAction.svg]]  {
    action: String
}





@enduml

PlantUML version 1.2022.13(Sat Nov 19 13:22:17 UTC 2022)
(GPL source distribution)
Java Runtime: OpenJDK Runtime Environment
JVM: OpenJDK 64-Bit Server VM
Default Encoding: UTF-8
Language: en
Country: null
--></g></svg>
