<?xml version="1.0" encoding="UTF-8" standalone="no"?><svg xmlns="http://www.w3.org/2000/svg" xmlns:xlink="http://www.w3.org/1999/xlink" contentStyleType="text/css" height="402px" preserveAspectRatio="none" style="width:3716px;height:402px;background:#FFFFFF;" version="1.1" viewBox="0 0 3716 402" width="3716px" zoomAndPan="magnify"><defs><filter height="1" id="b1r82rx6wbw9z10" width="1" x="0" y="0"><feFlood flood-color="#000000" result="flood"/><feComposite in="SourceGraphic" in2="flood" operator="over"/></filter><filter height="1" id="b1r82rx6wbw9z11" width="1" x="0" y="0"><feFlood flood-color="#008000" result="flood"/><feComposite in="SourceGraphic" in2="flood" operator="over"/></filter><filter height="1" id="b1r82rx6wbw9z12" width="1" x="0" y="0"><feFlood flood-color="#0000FF" result="flood"/><feComposite in="SourceGraphic" in2="flood" operator="over"/></filter></defs><g><!--MD5=[e2ee78da7fa7d5d18f605a8414ffe26d]
class MyPaymentUpdateAction--><a href="MyPaymentUpdateAction.svg" target="_top" title="MyPaymentUpdateAction.svg" xlink:actuate="onRequest" xlink:href="MyPaymentUpdateAction.svg" xlink:show="new" xlink:title="MyPaymentUpdateAction.svg" xlink:type="simple"><g id="elem_MyPaymentUpdateAction"><rect codeLine="10" fill="#F1F1F1" height="56.2969" id="MyPaymentUpdateAction" rx="2.5" ry="2.5" style="stroke:#181818;stroke-width:0.5;" width="206" x="146.8333" y="12"/><ellipse cx="161.8333" cy="28" fill="#B4A7E5" rx="11" ry="11" style="stroke:#181818;stroke-width:1.0;"/><path d="M157.7552,23.7656 L157.7552,21.6094 L165.1458,21.6094 L165.1458,23.7656 L162.6771,23.7656 L162.6771,31.8438 L165.1458,31.8438 L165.1458,34 L157.7552,34 L157.7552,31.8438 L160.224,31.8438 L160.224,23.7656 L157.7552,23.7656 Z " fill="#000000"/><text fill="#000000" font-family="sans-serif" font-size="14" font-style="italic" lengthAdjust="spacing" textLength="174" x="175.8333" y="32.8467">MyPaymentUpdateAction</text><line style="stroke:#181818;stroke-width:0.5;" x1="147.8333" x2="351.8333" y1="44" y2="44"/><text fill="#000000" font-family="sans-serif" font-size="14" lengthAdjust="spacing" textLength="91" x="152.8333" y="60.9951">action: String</text></g></a><!--MD5=[d36d480ac80e05d9de3a23b3961ac377]
class MyPaymentAddTransactionAction--><a href="MyPaymentAddTransactionAction.svg" target="_top" title="MyPaymentAddTransactionAction.svg" xlink:actuate="onRequest" xlink:href="MyPaymentAddTransactionAction.svg" xlink:show="new" xlink:title="MyPaymentAddTransactionAction.svg" xlink:type="simple"><g id="elem_MyPaymentAddTransactionAction"><rect codeLine="15" fill="#F1F1F1" height="72.5938" id="MyPaymentAddTransactionAction" rx="2.5" ry="2.5" style="stroke:#181818;stroke-width:0.5;" width="264" x="3105" y="213.4297"/><ellipse cx="3120" cy="229.4297" fill="#B4A7E5" rx="11" ry="11" style="stroke:#181818;stroke-width:1.0;"/><path d="M3115.9219,225.1953 L3115.9219,223.0391 L3123.3125,223.0391 L3123.3125,225.1953 L3120.8438,225.1953 L3120.8438,233.2734 L3123.3125,233.2734 L3123.3125,235.4297 L3115.9219,235.4297 L3115.9219,233.2734 L3118.3906,233.2734 L3118.3906,225.1953 L3115.9219,225.1953 Z " fill="#000000"/><text fill="#000000" font-family="sans-serif" font-size="14" font-style="italic" lengthAdjust="spacing" textLength="232" x="3134" y="234.2764">MyPaymentAddTransactionAction</text><line style="stroke:#181818;stroke-width:0.5;" x1="3106" x2="3368" y1="245.4297" y2="245.4297"/><text fill="#000000" font-family="sans-serif" font-size="14" lengthAdjust="spacing" textLength="91" x="3111" y="262.4248">action: String</text><text fill="#000000" font-family="sans-serif" font-size="14" lengthAdjust="spacing" textLength="82" x="3111" y="278.7217">transaction:</text><a href="TransactionDraft.svg" target="_top" title="TransactionDraft.svg" xlink:actuate="onRequest" xlink:href="TransactionDraft.svg" xlink:show="new" xlink:title="TransactionDraft.svg" xlink:type="simple"><text fill="#0000FF" font-family="sans-serif" font-size="14" lengthAdjust="spacing" text-decoration="underline" textLength="114" x="3197" y="278.7217">TransactionDraft</text></a></g></a><!--MD5=[ab335ac9d8d477daecb222607d87f5ac]
class MyPaymentChangeAmountPlannedAction--><a href="MyPaymentChangeAmountPlannedAction.svg" target="_top" title="MyPaymentChangeAmountPlannedAction.svg" xlink:actuate="onRequest" xlink:href="MyPaymentChangeAmountPlannedAction.svg" xlink:show="new" xlink:title="MyPaymentChangeAmountPlannedAction.svg" xlink:type="simple"><g id="elem_MyPaymentChangeAmountPlannedAction"><rect codeLine="19" fill="#F1F1F1" height="72.5938" id="MyPaymentChangeAmountPlannedAction" rx="2.5" ry="2.5" style="stroke:#181818;stroke-width:0.5;" width="320" x="3389" y="213.4297"/><ellipse cx="3404" cy="229.4297" fill="#B4A7E5" rx="11" ry="11" style="stroke:#181818;stroke-width:1.0;"/><path d="M3399.9219,225.1953 L3399.9219,223.0391 L3407.3125,223.0391 L3407.3125,225.1953 L3404.8438,225.1953 L3404.8438,233.2734 L3407.3125,233.2734 L3407.3125,235.4297 L3399.9219,235.4297 L3399.9219,233.2734 L3402.3906,233.2734 L3402.3906,225.1953 L3399.9219,225.1953 Z " fill="#000000"/><text fill="#000000" font-family="sans-serif" font-size="14" font-style="italic" lengthAdjust="spacing" textLength="288" x="3418" y="234.2764">MyPaymentChangeAmountPlannedAction</text><line style="stroke:#181818;stroke-width:0.5;" x1="3390" x2="3708" y1="245.4297" y2="245.4297"/><text fill="#000000" font-family="sans-serif" font-size="14" lengthAdjust="spacing" textLength="91" x="3395" y="262.4248">action: String</text><text fill="#000000" font-family="sans-serif" font-size="14" lengthAdjust="spacing" textLength="58" x="3395" y="278.7217">amount:</text><a href="Money.svg" target="_top" title="Money.svg" xlink:actuate="onRequest" xlink:href="Money.svg" xlink:show="new" xlink:title="Money.svg" xlink:type="simple"><text fill="#0000FF" font-family="sans-serif" font-size="14" lengthAdjust="spacing" text-decoration="underline" textLength="46" x="3457" y="278.7217">Money</text></a></g></a><!--MD5=[892dbf50c5cc4372791113e2b7c4277a]
class MyPaymentSetCustomFieldAction--><a href="MyPaymentSetCustomFieldAction.svg" target="_top" title="MyPaymentSetCustomFieldAction.svg" xlink:actuate="onRequest" xlink:href="MyPaymentSetCustomFieldAction.svg" xlink:show="new" xlink:title="MyPaymentSetCustomFieldAction.svg" xlink:type="simple"><g id="elem_MyPaymentSetCustomFieldAction"><rect codeLine="23" fill="#F1F1F1" height="88.8906" id="MyPaymentSetCustomFieldAction" rx="2.5" ry="2.5" style="stroke:#181818;stroke-width:0.5;" width="264" x="32" y="213.4297"/><ellipse cx="47" cy="229.4297" fill="#B4A7E5" rx="11" ry="11" style="stroke:#181818;stroke-width:1.0;"/><path d="M42.9219,225.1953 L42.9219,223.0391 L50.3125,223.0391 L50.3125,225.1953 L47.8438,225.1953 L47.8438,233.2734 L50.3125,233.2734 L50.3125,235.4297 L42.9219,235.4297 L42.9219,233.2734 L45.3906,233.2734 L45.3906,225.1953 L42.9219,225.1953 Z " fill="#000000"/><text fill="#000000" font-family="sans-serif" font-size="14" font-style="italic" lengthAdjust="spacing" textLength="232" x="61" y="234.2764">MyPaymentSetCustomFieldAction</text><line style="stroke:#181818;stroke-width:0.5;" x1="33" x2="295" y1="245.4297" y2="245.4297"/><text fill="#000000" font-family="sans-serif" font-size="14" lengthAdjust="spacing" textLength="91" x="38" y="262.4248">action: String</text><text fill="#000000" font-family="sans-serif" font-size="14" lengthAdjust="spacing" textLength="88" x="38" y="278.7217">name: String</text><text fill="#000000" font-family="sans-serif" font-size="14" lengthAdjust="spacing" textLength="41" x="38" y="295.0186">value:</text><a href="Object.svg" target="_top" title="Object.svg" xlink:actuate="onRequest" xlink:href="Object.svg" xlink:show="new" xlink:title="Object.svg" xlink:type="simple"><text fill="#0000FF" font-family="sans-serif" font-size="14" lengthAdjust="spacing" text-decoration="underline" textLength="45" x="83" y="295.0186">Object</text></a></g></a><!--MD5=[3cedd32930bcd3112b18b778ff6e03d6]
class MyPaymentSetMethodInfoCustomFieldAction--><a href="MyPaymentSetMethodInfoCustomFieldAction.svg" target="_top" title="MyPaymentSetMethodInfoCustomFieldAction.svg" xlink:actuate="onRequest" xlink:href="MyPaymentSetMethodInfoCustomFieldAction.svg" xlink:show="new" xlink:title="MyPaymentSetMethodInfoCustomFieldAction.svg" xlink:type="simple"><g id="elem_MyPaymentSetMethodInfoCustomFieldAction"><rect codeLine="28" fill="#F1F1F1" height="88.8906" id="MyPaymentSetMethodInfoCustomFieldAction" rx="2.5" ry="2.5" style="stroke:#181818;stroke-width:0.5;" width="343" x="1321" y="213.4297"/><ellipse cx="1336" cy="229.4297" fill="#B4A7E5" rx="11" ry="11" style="stroke:#181818;stroke-width:1.0;"/><path d="M1331.9219,225.1953 L1331.9219,223.0391 L1339.3125,223.0391 L1339.3125,225.1953 L1336.8438,225.1953 L1336.8438,233.2734 L1339.3125,233.2734 L1339.3125,235.4297 L1331.9219,235.4297 L1331.9219,233.2734 L1334.3906,233.2734 L1334.3906,225.1953 L1331.9219,225.1953 Z " fill="#000000"/><text fill="#000000" font-family="sans-serif" font-size="14" font-style="italic" lengthAdjust="spacing" textLength="311" x="1350" y="234.2764">MyPaymentSetMethodInfoCustomFieldAction</text><line style="stroke:#181818;stroke-width:0.5;" x1="1322" x2="1663" y1="245.4297" y2="245.4297"/><text fill="#000000" font-family="sans-serif" font-size="14" lengthAdjust="spacing" textLength="91" x="1327" y="262.4248">action: String</text><text fill="#000000" font-family="sans-serif" font-size="14" lengthAdjust="spacing" textLength="88" x="1327" y="278.7217">name: String</text><text fill="#000000" font-family="sans-serif" font-size="14" lengthAdjust="spacing" textLength="41" x="1327" y="295.0186">value:</text><a href="Object.svg" target="_top" title="Object.svg" xlink:actuate="onRequest" xlink:href="Object.svg" xlink:show="new" xlink:title="Object.svg" xlink:type="simple"><text fill="#0000FF" font-family="sans-serif" font-size="14" lengthAdjust="spacing" text-decoration="underline" textLength="45" x="1372" y="295.0186">Object</text></a></g></a><!--MD5=[677c72c3ebeef1f7ebc414e44a2745fa]
class MyPaymentSetMethodInfoCustomTypeAction--><a href="MyPaymentSetMethodInfoCustomTypeAction.svg" target="_top" title="MyPaymentSetMethodInfoCustomTypeAction.svg" xlink:actuate="onRequest" xlink:href="MyPaymentSetMethodInfoCustomTypeAction.svg" xlink:show="new" xlink:title="MyPaymentSetMethodInfoCustomTypeAction.svg" xlink:type="simple"><g id="elem_MyPaymentSetMethodInfoCustomTypeAction"><rect codeLine="33" fill="#F1F1F1" height="88.8906" id="MyPaymentSetMethodInfoCustomTypeAction" rx="2.5" ry="2.5" style="stroke:#181818;stroke-width:0.5;" width="346" x="2342" y="213.4297"/><ellipse cx="2357" cy="229.4297" fill="#B4A7E5" rx="11" ry="11" style="stroke:#181818;stroke-width:1.0;"/><path d="M2352.9219,225.1953 L2352.9219,223.0391 L2360.3125,223.0391 L2360.3125,225.1953 L2357.8438,225.1953 L2357.8438,233.2734 L2360.3125,233.2734 L2360.3125,235.4297 L2352.9219,235.4297 L2352.9219,233.2734 L2355.3906,233.2734 L2355.3906,225.1953 L2352.9219,225.1953 Z " fill="#000000"/><text fill="#000000" font-family="sans-serif" font-size="14" font-style="italic" lengthAdjust="spacing" textLength="314" x="2371" y="234.2764">MyPaymentSetMethodInfoCustomTypeAction</text><line style="stroke:#181818;stroke-width:0.5;" x1="2343" x2="2687" y1="245.4297" y2="245.4297"/><text fill="#000000" font-family="sans-serif" font-size="14" lengthAdjust="spacing" textLength="91" x="2348" y="262.4248">action: String</text><text fill="#000000" font-family="sans-serif" font-size="14" lengthAdjust="spacing" textLength="35" x="2348" y="278.7217">type:</text><a href="TypeResourceIdentifier.svg" target="_top" title="TypeResourceIdentifier.svg" xlink:actuate="onRequest" xlink:href="TypeResourceIdentifier.svg" xlink:show="new" xlink:title="TypeResourceIdentifier.svg" xlink:type="simple"><text fill="#0000FF" font-family="sans-serif" font-size="14" lengthAdjust="spacing" text-decoration="underline" textLength="160" x="2387" y="278.7217">TypeResourceIdentifier</text></a><text fill="#000000" font-family="sans-serif" font-size="14" lengthAdjust="spacing" textLength="41" x="2348" y="295.0186">fields:</text><a href="FieldContainer.svg" target="_top" title="FieldContainer.svg" xlink:actuate="onRequest" xlink:href="FieldContainer.svg" xlink:show="new" xlink:title="FieldContainer.svg" xlink:type="simple"><text fill="#0000FF" font-family="sans-serif" font-size="14" lengthAdjust="spacing" text-decoration="underline" textLength="99" x="2393" y="295.0186">FieldContainer</text></a></g></a><!--MD5=[6740049973e1e9ec4cdd6034ef4715b7]
class MyPaymentSetMethodInfoInterfaceAccountAction--><a href="MyPaymentSetMethodInfoInterfaceAccountAction.svg" target="_top" title="MyPaymentSetMethodInfoInterfaceAccountAction.svg" xlink:actuate="onRequest" xlink:href="MyPaymentSetMethodInfoInterfaceAccountAction.svg" xlink:show="new" xlink:title="MyPaymentSetMethodInfoInterfaceAccountAction.svg" xlink:type="simple"><g id="elem_MyPaymentSetMethodInfoInterfaceAccountAction"><rect codeLine="38" fill="#F1F1F1" height="72.5938" id="MyPaymentSetMethodInfoInterfaceAccountAction" rx="2.5" ry="2.5" style="stroke:#181818;stroke-width:0.5;" width="377" x="2708" y="213.4297"/><ellipse cx="2723" cy="229.4297" fill="#B4A7E5" rx="11" ry="11" style="stroke:#181818;stroke-width:1.0;"/><path d="M2718.9219,225.1953 L2718.9219,223.0391 L2726.3125,223.0391 L2726.3125,225.1953 L2723.8438,225.1953 L2723.8438,233.2734 L2726.3125,233.2734 L2726.3125,235.4297 L2718.9219,235.4297 L2718.9219,233.2734 L2721.3906,233.2734 L2721.3906,225.1953 L2718.9219,225.1953 Z " fill="#000000"/><text fill="#000000" font-family="sans-serif" font-size="14" font-style="italic" lengthAdjust="spacing" textLength="345" x="2737" y="234.2764">MyPaymentSetMethodInfoInterfaceAccountAction</text><line style="stroke:#181818;stroke-width:0.5;" x1="2709" x2="3084" y1="245.4297" y2="245.4297"/><text fill="#000000" font-family="sans-serif" font-size="14" lengthAdjust="spacing" textLength="91" x="2714" y="262.4248">action: String</text><text fill="#000000" font-family="sans-serif" font-size="14" lengthAdjust="spacing" textLength="166" x="2714" y="278.7217">interfaceAccount: String</text></g></a><!--MD5=[78bf933ecb765d8826b81528c4748e5c]
class MyPaymentSetMethodInfoInterfaceAction--><a href="MyPaymentSetMethodInfoInterfaceAction.svg" target="_top" title="MyPaymentSetMethodInfoInterfaceAction.svg" xlink:actuate="onRequest" xlink:href="MyPaymentSetMethodInfoInterfaceAction.svg" xlink:show="new" xlink:title="MyPaymentSetMethodInfoInterfaceAction.svg" xlink:type="simple"><g id="elem_MyPaymentSetMethodInfoInterfaceAction"><rect codeLine="42" fill="#F1F1F1" height="72.5938" id="MyPaymentSetMethodInfoInterfaceAction" rx="2.5" ry="2.5" style="stroke:#181818;stroke-width:0.5;" width="319" x="2003" y="213.4297"/><ellipse cx="2018" cy="229.4297" fill="#B4A7E5" rx="11" ry="11" style="stroke:#181818;stroke-width:1.0;"/><path d="M2013.9219,225.1953 L2013.9219,223.0391 L2021.3125,223.0391 L2021.3125,225.1953 L2018.8438,225.1953 L2018.8438,233.2734 L2021.3125,233.2734 L2021.3125,235.4297 L2013.9219,235.4297 L2013.9219,233.2734 L2016.3906,233.2734 L2016.3906,225.1953 L2013.9219,225.1953 Z " fill="#000000"/><text fill="#000000" font-family="sans-serif" font-size="14" font-style="italic" lengthAdjust="spacing" textLength="287" x="2032" y="234.2764">MyPaymentSetMethodInfoInterfaceAction</text><line style="stroke:#181818;stroke-width:0.5;" x1="2004" x2="2321" y1="245.4297" y2="245.4297"/><text fill="#000000" font-family="sans-serif" font-size="14" lengthAdjust="spacing" textLength="91" x="2009" y="262.4248">action: String</text><text fill="#000000" font-family="sans-serif" font-size="14" lengthAdjust="spacing" textLength="109" x="2009" y="278.7217">interface: String</text></g></a><!--MD5=[45f41f9a7769dc5dd4507ae743a2535e]
class MyPaymentSetMethodInfoMethodAction--><a href="MyPaymentSetMethodInfoMethodAction.svg" target="_top" title="MyPaymentSetMethodInfoMethodAction.svg" xlink:actuate="onRequest" xlink:href="MyPaymentSetMethodInfoMethodAction.svg" xlink:show="new" xlink:title="MyPaymentSetMethodInfoMethodAction.svg" xlink:type="simple"><g id="elem_MyPaymentSetMethodInfoMethodAction"><rect codeLine="46" fill="#F1F1F1" height="72.5938" id="MyPaymentSetMethodInfoMethodAction" rx="2.5" ry="2.5" style="stroke:#181818;stroke-width:0.5;" width="311" x="626" y="213.4297"/><ellipse cx="641" cy="229.4297" fill="#B4A7E5" rx="11" ry="11" style="stroke:#181818;stroke-width:1.0;"/><path d="M636.9219,225.1953 L636.9219,223.0391 L644.3125,223.0391 L644.3125,225.1953 L641.8438,225.1953 L641.8438,233.2734 L644.3125,233.2734 L644.3125,235.4297 L636.9219,235.4297 L636.9219,233.2734 L639.3906,233.2734 L639.3906,225.1953 L636.9219,225.1953 Z " fill="#000000"/><text fill="#000000" font-family="sans-serif" font-size="14" font-style="italic" lengthAdjust="spacing" textLength="279" x="655" y="234.2764">MyPaymentSetMethodInfoMethodAction</text><line style="stroke:#181818;stroke-width:0.5;" x1="627" x2="936" y1="245.4297" y2="245.4297"/><text fill="#000000" font-family="sans-serif" font-size="14" lengthAdjust="spacing" textLength="91" x="632" y="262.4248">action: String</text><text fill="#000000" font-family="sans-serif" font-size="14" lengthAdjust="spacing" textLength="103" x="632" y="278.7217">method: String</text></g></a><!--MD5=[080c5a662a979ad616c379d345a089f9]
class MyPaymentSetMethodInfoNameAction--><a href="MyPaymentSetMethodInfoNameAction.svg" target="_top" title="MyPaymentSetMethodInfoNameAction.svg" xlink:actuate="onRequest" xlink:href="MyPaymentSetMethodInfoNameAction.svg" xlink:show="new" xlink:title="MyPaymentSetMethodInfoNameAction.svg" xlink:type="simple"><g id="elem_MyPaymentSetMethodInfoNameAction"><rect codeLine="50" fill="#F1F1F1" height="72.5938" id="MyPaymentSetMethodInfoNameAction" rx="2.5" ry="2.5" style="stroke:#181818;stroke-width:0.5;" width="299" x="1684" y="213.4297"/><ellipse cx="1699" cy="229.4297" fill="#B4A7E5" rx="11" ry="11" style="stroke:#181818;stroke-width:1.0;"/><path d="M1694.9219,225.1953 L1694.9219,223.0391 L1702.3125,223.0391 L1702.3125,225.1953 L1699.8438,225.1953 L1699.8438,233.2734 L1702.3125,233.2734 L1702.3125,235.4297 L1694.9219,235.4297 L1694.9219,233.2734 L1697.3906,233.2734 L1697.3906,225.1953 L1694.9219,225.1953 Z " fill="#000000"/><text fill="#000000" font-family="sans-serif" font-size="14" font-style="italic" lengthAdjust="spacing" textLength="267" x="1713" y="234.2764">MyPaymentSetMethodInfoNameAction</text><line style="stroke:#181818;stroke-width:0.5;" x1="1685" x2="1982" y1="245.4297" y2="245.4297"/><text fill="#000000" font-family="sans-serif" font-size="14" lengthAdjust="spacing" textLength="91" x="1690" y="262.4248">action: String</text><text fill="#000000" font-family="sans-serif" font-size="14" lengthAdjust="spacing" textLength="44" x="1690" y="278.7217">name:</text><a href="LocalizedString.svg" target="_top" title="LocalizedString.svg" xlink:actuate="onRequest" xlink:href="LocalizedString.svg" xlink:show="new" xlink:title="LocalizedString.svg" xlink:type="simple"><text fill="#0000FF" font-family="sans-serif" font-size="14" lengthAdjust="spacing" text-decoration="underline" textLength="104" x="1738" y="278.7217">LocalizedString</text></a></g></a><!--MD5=[63210b9297f8c62b24b69c7f3d55027c]
class MyPaymentSetTransactionCustomFieldAction--><a href="MyPaymentSetTransactionCustomFieldAction.svg" target="_top" title="MyPaymentSetTransactionCustomFieldAction.svg" xlink:actuate="onRequest" xlink:href="MyPaymentSetTransactionCustomFieldAction.svg" xlink:show="new" xlink:title="MyPaymentSetTransactionCustomFieldAction.svg" xlink:type="simple"><g id="elem_MyPaymentSetTransactionCustomFieldAction"><rect codeLine="54" fill="#F1F1F1" height="88.8906" id="MyPaymentSetTransactionCustomFieldAction" rx="2.5" ry="2.5" style="stroke:#181818;stroke-width:0.5;" width="344" x="957" y="213.4297"/><ellipse cx="972" cy="229.4297" fill="#B4A7E5" rx="11" ry="11" style="stroke:#181818;stroke-width:1.0;"/><path d="M967.9219,225.1953 L967.9219,223.0391 L975.3125,223.0391 L975.3125,225.1953 L972.8438,225.1953 L972.8438,233.2734 L975.3125,233.2734 L975.3125,235.4297 L967.9219,235.4297 L967.9219,233.2734 L970.3906,233.2734 L970.3906,225.1953 L967.9219,225.1953 Z " fill="#000000"/><text fill="#000000" font-family="sans-serif" font-size="14" font-style="italic" lengthAdjust="spacing" textLength="312" x="986" y="234.2764">MyPaymentSetTransactionCustomFieldAction</text><line style="stroke:#181818;stroke-width:0.5;" x1="958" x2="1300" y1="245.4297" y2="245.4297"/><text fill="#000000" font-family="sans-serif" font-size="14" lengthAdjust="spacing" textLength="91" x="963" y="262.4248">action: String</text><text fill="#000000" font-family="sans-serif" font-size="14" lengthAdjust="spacing" textLength="88" x="963" y="278.7217">name: String</text><text fill="#000000" font-family="sans-serif" font-size="14" lengthAdjust="spacing" textLength="41" x="963" y="295.0186">value:</text><a href="Object.svg" target="_top" title="Object.svg" xlink:actuate="onRequest" xlink:href="Object.svg" xlink:show="new" xlink:title="Object.svg" xlink:type="simple"><text fill="#0000FF" font-family="sans-serif" font-size="14" lengthAdjust="spacing" text-decoration="underline" textLength="45" x="1008" y="295.0186">Object</text></a></g></a><!--MD5=[97aa006b8f1f6f357eb0e870473be79e]
class MyPaymentUpdate--><a href="MyPaymentUpdate.svg" target="_top" title="MyPaymentUpdate.svg" xlink:actuate="onRequest" xlink:href="MyPaymentUpdate.svg" xlink:show="new" xlink:title="MyPaymentUpdate.svg" xlink:type="simple"><g id="elem_MyPaymentUpdate"><rect codeLine="59" fill="#F1F1F1" height="72.5938" id="MyPaymentUpdate" rx="2.5" ry="2.5" style="stroke:#181818;stroke-width:0.5;" width="290" x="316" y="213.4297"/><ellipse cx="391.75" cy="229.4297" fill="#B4A7E5" rx="11" ry="11" style="stroke:#181818;stroke-width:1.0;"/><path d="M387.6719,225.1953 L387.6719,223.0391 L395.0625,223.0391 L395.0625,225.1953 L392.5938,225.1953 L392.5938,233.2734 L395.0625,233.2734 L395.0625,235.4297 L387.6719,235.4297 L387.6719,233.2734 L390.1406,233.2734 L390.1406,225.1953 L387.6719,225.1953 Z " fill="#000000"/><text fill="#000000" font-family="sans-serif" font-size="14" font-style="italic" lengthAdjust="spacing" textLength="130" x="412.25" y="234.2764">MyPaymentUpdate</text><line style="stroke:#181818;stroke-width:0.5;" x1="317" x2="605" y1="245.4297" y2="245.4297"/><text fill="#000000" font-family="sans-serif" font-size="14" lengthAdjust="spacing" textLength="93" x="322" y="262.4248">version: Long</text><text fill="#000000" font-family="sans-serif" font-size="14" lengthAdjust="spacing" textLength="55" x="322" y="278.7217">actions:</text><a href="MyPaymentUpdateAction.svg" target="_top" title="MyPaymentUpdateAction.svg" xlink:actuate="onRequest" xlink:href="MyPaymentUpdateAction.svg" xlink:show="new" xlink:title="MyPaymentUpdateAction.svg" xlink:type="simple"><text fill="#0000FF" font-family="sans-serif" font-size="14" lengthAdjust="spacing" text-decoration="underline" textLength="219" x="381" y="278.7217">List&lt;MyPaymentUpdateAction&gt;</text></a></g></a><line style="stroke:#0000FF;stroke-width:1.0;" x1="318.5" x2="318.5" y1="68.2969" y2="88.2969"/><line style="stroke:#0000FF;stroke-width:1.0;" x1="318.5" x2="3237" y1="88.2969" y2="88.2969"/><line style="stroke:#0000FF;stroke-width:1.0;" x1="3237" x2="3237" y1="88.2969" y2="213.4297"/><polygon fill="#0000FF" points="3237,213.4297,3241,204.4297,3237,208.4297,3233,204.4297,3237,213.4297" style="stroke:#0000FF;stroke-width:1.0;"/><text fill="#000000" font-family="sans-serif" font-size="13" lengthAdjust="spacing" textLength="149" x="3086" y="190.3638">action : addTransaction</text><line style="stroke:#0000FF;stroke-width:1.0;" x1="335.6667" x2="335.6667" y1="68.2969" y2="78.2969"/><line style="stroke:#0000FF;stroke-width:1.0;" x1="335.6667" x2="3549" y1="78.2969" y2="78.2969"/><line style="stroke:#0000FF;stroke-width:1.0;" x1="3549" x2="3549" y1="78.2969" y2="213.4297"/><polygon fill="#0000FF" points="3549,213.4297,3553,204.4297,3549,208.4297,3545,204.4297,3549,213.4297" style="stroke:#0000FF;stroke-width:1.0;"/><text fill="#000000" font-family="sans-serif" font-size="13" lengthAdjust="spacing" textLength="200" x="3347" y="190.3638">action : changeAmountPlanned</text><line style="stroke:#0000FF;stroke-width:1.0;" x1="164" x2="164" y1="68.2969" y2="213.4297"/><polygon fill="#0000FF" points="164,213.4297,168,204.4297,164,208.4297,160,204.4297,164,213.4297" style="stroke:#0000FF;stroke-width:1.0;"/><text fill="#000000" font-family="sans-serif" font-size="13" lengthAdjust="spacing" textLength="150" x="12" y="190.3638">action : setCustomField</text><line style="stroke:#0000FF;stroke-width:1.0;" x1="232.6667" x2="232.6667" y1="68.2969" y2="138.2969"/><line style="stroke:#0000FF;stroke-width:1.0;" x1="232.6667" x2="1492.5" y1="138.2969" y2="138.2969"/><line style="stroke:#0000FF;stroke-width:1.0;" x1="1492.5" x2="1492.5" y1="138.2969" y2="213.4297"/><polygon fill="#0000FF" points="1492.5,213.4297,1496.5,204.4297,1492.5,208.4297,1488.5,204.4297,1492.5,213.4297" style="stroke:#0000FF;stroke-width:1.0;"/><text fill="#000000" font-family="sans-serif" font-size="13" lengthAdjust="spacing" textLength="221" x="1269.5" y="190.3638">action : setMethodInfoCustomField</text><line style="stroke:#0000FF;stroke-width:1.0;" x1="284.1667" x2="284.1667" y1="68.2969" y2="108.2969"/><line style="stroke:#0000FF;stroke-width:1.0;" x1="284.1667" x2="2515" y1="108.2969" y2="108.2969"/><line style="stroke:#0000FF;stroke-width:1.0;" x1="2515" x2="2515" y1="108.2969" y2="213.4297"/><polygon fill="#0000FF" points="2515,213.4297,2519,204.4297,2515,208.4297,2511,204.4297,2515,213.4297" style="stroke:#0000FF;stroke-width:1.0;"/><text fill="#000000" font-family="sans-serif" font-size="13" lengthAdjust="spacing" textLength="222" x="2291" y="190.3638">action : setMethodInfoCustomType</text><line style="stroke:#0000FF;stroke-width:1.0;" x1="301.3333" x2="301.3333" y1="68.2969" y2="98.2969"/><line style="stroke:#0000FF;stroke-width:1.0;" x1="301.3333" x2="2896.5" y1="98.2969" y2="98.2969"/><line style="stroke:#0000FF;stroke-width:1.0;" x1="2896.5" x2="2896.5" y1="98.2969" y2="213.4297"/><polygon fill="#0000FF" points="2896.5,213.4297,2900.5,204.4297,2896.5,208.4297,2892.5,204.4297,2896.5,213.4297" style="stroke:#0000FF;stroke-width:1.0;"/><text fill="#000000" font-family="sans-serif" font-size="13" lengthAdjust="spacing" textLength="250" x="2644.5" y="190.3638">action : setMethodInfoInterfaceAccount</text><line style="stroke:#0000FF;stroke-width:1.0;" x1="267" x2="267" y1="68.2969" y2="118.2969"/><line style="stroke:#0000FF;stroke-width:1.0;" x1="267" x2="2162.5" y1="118.2969" y2="118.2969"/><line style="stroke:#0000FF;stroke-width:1.0;" x1="2162.5" x2="2162.5" y1="118.2969" y2="213.4297"/><polygon fill="#0000FF" points="2162.5,213.4297,2166.5,204.4297,2162.5,208.4297,2158.5,204.4297,2162.5,213.4297" style="stroke:#0000FF;stroke-width:1.0;"/><text fill="#000000" font-family="sans-serif" font-size="13" lengthAdjust="spacing" textLength="198" x="1962.5" y="190.3638">action : setMethodInfoInterface</text><line style="stroke:#0000FF;stroke-width:1.0;" x1="198.3333" x2="198.3333" y1="68.2969" y2="158.2969"/><line style="stroke:#0000FF;stroke-width:1.0;" x1="198.3333" x2="781.5" y1="158.2969" y2="158.2969"/><line style="stroke:#0000FF;stroke-width:1.0;" x1="781.5" x2="781.5" y1="158.2969" y2="213.4297"/><polygon fill="#0000FF" points="781.5,213.4297,785.5,204.4297,781.5,208.4297,777.5,204.4297,781.5,213.4297" style="stroke:#0000FF;stroke-width:1.0;"/><text fill="#000000" font-family="sans-serif" font-size="13" lengthAdjust="spacing" textLength="190" x="589.5" y="190.3638">action : setMethodInfoMethod</text><line style="stroke:#0000FF;stroke-width:1.0;" x1="249.8333" x2="249.8333" y1="68.2969" y2="128.2969"/><line style="stroke:#0000FF;stroke-width:1.0;" x1="249.8333" x2="1833.5" y1="128.2969" y2="128.2969"/><line style="stroke:#0000FF;stroke-width:1.0;" x1="1833.5" x2="1833.5" y1="128.2969" y2="213.4297"/><polygon fill="#0000FF" points="1833.5,213.4297,1837.5,204.4297,1833.5,208.4297,1829.5,204.4297,1833.5,213.4297" style="stroke:#0000FF;stroke-width:1.0;"/><text fill="#000000" font-family="sans-serif" font-size="13" lengthAdjust="spacing" textLength="181" x="1650.5" y="190.3638">action : setMethodInfoName</text><line style="stroke:#0000FF;stroke-width:1.0;" x1="215.5" x2="215.5" y1="68.2969" y2="148.2969"/><line style="stroke:#0000FF;stroke-width:1.0;" x1="215.5" x2="1129" y1="148.2969" y2="148.2969"/><line style="stroke:#0000FF;stroke-width:1.0;" x1="1129" x2="1129" y1="148.2969" y2="213.4297"/><polygon fill="#0000FF" points="1129,213.4297,1133,204.4297,1129,208.4297,1125,204.4297,1129,213.4297" style="stroke:#0000FF;stroke-width:1.0;"/><text fill="#000000" font-family="sans-serif" font-size="13" lengthAdjust="spacing" textLength="224" x="903" y="190.3638">action : setTransactionCustomField</text><line style="stroke:#008000;stroke-width:1.0;" x1="181.1667" x2="181.1667" y1="68.2969" y2="168.2969"/><line style="stroke:#008000;stroke-width:1.0;" x1="181.1667" x2="461" y1="168.2969" y2="168.2969"/><line style="stroke:#008000;stroke-width:1.0;" x1="461" x2="461" y1="168.2969" y2="213.4297"/><polygon fill="#008000" points="461,213.4297,465,204.4297,461,208.4297,457,204.4297,461,213.4297" style="stroke:#008000;stroke-width:1.0;"/><text fill="#000000" font-family="sans-serif" font-size="13" lengthAdjust="spacing" textLength="46" x="413" y="190.3638">actions</text><rect fill="#DDDDDD" height="79.1875" id="_legend" rx="7.5" ry="7.5" style="stroke:#000000;stroke-width:1.0;" width="161" x="1767.5" y="303.3203"/><text fill="#000000" font-family="sans-serif" font-size="14" font-weight="bold" lengthAdjust="spacing" textLength="5" x="1772.5" y="323.3154"> </text><text fill="#000000" font-family="sans-serif" font-size="14" font-weight="bold" lengthAdjust="spacing" textLength="28" x="1789.5" y="323.3154">line</text><text fill="#000000" filter="url(#b1r82rx6wbw9z10)" font-family="sans-serif" font-size="14" lengthAdjust="spacing" textLength="12" x="1772.5" y="339.6123">   </text><text fill="#000000" font-family="sans-serif" font-size="14" lengthAdjust="spacing" textLength="77" x="1788.5" y="339.6123">inheritance</text><text fill="#000000" filter="url(#b1r82rx6wbw9z11)" font-family="sans-serif" font-size="14" lengthAdjust="spacing" textLength="12" x="1772.5" y="355.9092">   </text><text fill="#000000" font-family="sans-serif" font-size="14" lengthAdjust="spacing" textLength="129" x="1788.5" y="355.9092">property reference</text><text fill="#000000" filter="url(#b1r82rx6wbw9z12)" font-family="sans-serif" font-size="14" lengthAdjust="spacing" textLength="12" x="1772.5" y="372.2061">   </text><text fill="#000000" font-family="sans-serif" font-size="14" lengthAdjust="spacing" textLength="131" x="1788.5" y="372.2061">discriminated class</text><line style="stroke:#000000;stroke-width:1.0;" x1="1772.5" x2="1923.5" y1="310.3203" y2="310.3203"/><line style="stroke:#000000;stroke-width:1.0;" x1="1772.5" x2="1923.5" y1="326.6172" y2="326.6172"/><line style="stroke:#000000;stroke-width:1.0;" x1="1772.5" x2="1923.5" y1="342.9141" y2="342.9141"/><line style="stroke:#000000;stroke-width:1.0;" x1="1772.5" x2="1923.5" y1="359.2109" y2="359.2109"/><line style="stroke:#000000;stroke-width:1.0;" x1="1772.5" x2="1923.5" y1="375.5078" y2="375.5078"/><line style="stroke:#000000;stroke-width:1.0;" x1="1772.5" x2="1772.5" y1="310.3203" y2="375.5078"/><line style="stroke:#000000;stroke-width:1.0;" x1="1784.5" x2="1784.5" y1="310.3203" y2="375.5078"/><line style="stroke:#000000;stroke-width:1.0;" x1="1923.5" x2="1923.5" y1="310.3203" y2="375.5078"/><!--MD5=[2029ce94f1be3b2b49a570545e85f129]
@startuml
!pragma layout elk
hide empty fields
hide empty methods
legend
|= |= line |
|<back:black>   </back>| inheritance |
|<back:green>   </back>| property reference |
|<back:blue>   </back>| discriminated class |
endlegend
interface MyPaymentUpdateAction [[MyPaymentUpdateAction.svg]]  {
    action: String
}


interface MyPaymentAddTransactionAction [[MyPaymentAddTransactionAction.svg]]  {
    action: String
    transaction: [[TransactionDraft.svg TransactionDraft]]
}
interface MyPaymentChangeAmountPlannedAction [[MyPaymentChangeAmountPlannedAction.svg]]  {
    action: String
    amount: [[Money.svg Money]]
}
interface MyPaymentSetCustomFieldAction [[MyPaymentSetCustomFieldAction.svg]]  {
    action: String
    name: String
    value: [[Object.svg Object]]
}
interface MyPaymentSetMethodInfoCustomFieldAction [[MyPaymentSetMethodInfoCustomFieldAction.svg]]  {
    action: String
    name: String
    value: [[Object.svg Object]]
}
interface MyPaymentSetMethodInfoCustomTypeAction [[MyPaymentSetMethodInfoCustomTypeAction.svg]]  {
    action: String
    type: [[TypeResourceIdentifier.svg TypeResourceIdentifier]]
    fields: [[FieldContainer.svg FieldContainer]]
}
interface MyPaymentSetMethodInfoInterfaceAccountAction [[MyPaymentSetMethodInfoInterfaceAccountAction.svg]]  {
    action: String
    interfaceAccount: String
}
interface MyPaymentSetMethodInfoInterfaceAction [[MyPaymentSetMethodInfoInterfaceAction.svg]]  {
    action: String
    interface: String
}
interface MyPaymentSetMethodInfoMethodAction [[MyPaymentSetMethodInfoMethodAction.svg]]  {
    action: String
    method: String
}
interface MyPaymentSetMethodInfoNameAction [[MyPaymentSetMethodInfoNameAction.svg]]  {
    action: String
    name: [[LocalizedString.svg LocalizedString]]
}
interface MyPaymentSetTransactionCustomFieldAction [[MyPaymentSetTransactionCustomFieldAction.svg]]  {
    action: String
    name: String
    value: [[Object.svg Object]]
}
interface MyPaymentUpdate [[MyPaymentUpdate.svg]]  {
    version: Long
    actions: [[MyPaymentUpdateAction.svg List<MyPaymentUpdateAction>]]
}
MyPaymentUpdateAction - -> MyPaymentAddTransactionAction #blue;text:blue : "action : addTransaction"
MyPaymentUpdateAction - -> MyPaymentChangeAmountPlannedAction #blue;text:blue : "action : changeAmountPlanned"
MyPaymentUpdateAction - -> MyPaymentSetCustomFieldAction #blue;text:blue : "action : setCustomField"
MyPaymentUpdateAction - -> MyPaymentSetMethodInfoCustomFieldAction #blue;text:blue : "action : setMethodInfoCustomField"
MyPaymentUpdateAction - -> MyPaymentSetMethodInfoCustomTypeAction #blue;text:blue : "action : setMethodInfoCustomType"
MyPaymentUpdateAction - -> MyPaymentSetMethodInfoInterfaceAccountAction #blue;text:blue : "action : setMethodInfoInterfaceAccount"
MyPaymentUpdateAction - -> MyPaymentSetMethodInfoInterfaceAction #blue;text:blue : "action : setMethodInfoInterface"
MyPaymentUpdateAction - -> MyPaymentSetMethodInfoMethodAction #blue;text:blue : "action : setMethodInfoMethod"
MyPaymentUpdateAction - -> MyPaymentSetMethodInfoNameAction #blue;text:blue : "action : setMethodInfoName"
MyPaymentUpdateAction - -> MyPaymentSetTransactionCustomFieldAction #blue;text:blue : "action : setTransactionCustomField"
MyPaymentUpdateAction - -> MyPaymentUpdate #green;text:green : "actions"
@enduml

PlantUML version 1.2022.13(Sat Nov 19 13:22:17 UTC 2022)
(GPL source distribution)
Java Runtime: OpenJDK Runtime Environment
JVM: OpenJDK 64-Bit Server VM
Default Encoding: UTF-8
Language: en
Country: null
--></g></svg>
