<?xml version="1.0" encoding="UTF-8" standalone="no"?><svg xmlns="http://www.w3.org/2000/svg" xmlns:xlink="http://www.w3.org/1999/xlink" contentStyleType="text/css" height="372px" preserveAspectRatio="none" style="width:2590px;height:372px;background:#FFFFFF;" version="1.1" viewBox="0 0 2590 372" width="2590px" zoomAndPan="magnify"><defs><filter height="1" id="b1oxqzp9ki56lr0" width="1" x="0" y="0"><feFlood flood-color="#000000" result="flood"/><feComposite in="SourceGraphic" in2="flood" operator="over"/></filter><filter height="1" id="b1oxqzp9ki56lr1" width="1" x="0" y="0"><feFlood flood-color="#008000" result="flood"/><feComposite in="SourceGraphic" in2="flood" operator="over"/></filter><filter height="1" id="b1oxqzp9ki56lr2" width="1" x="0" y="0"><feFlood flood-color="#0000FF" result="flood"/><feComposite in="SourceGraphic" in2="flood" operator="over"/></filter></defs><g><!--MD5=[e2ee78da7fa7d5d18f605a8414ffe26d]
class MyPaymentUpdateAction--><a href="MyPaymentUpdateAction.svg" target="_top" title="MyPaymentUpdateAction.svg" xlink:actuate="onRequest" xlink:href="MyPaymentUpdateAction.svg" xlink:show="new" xlink:title="MyPaymentUpdateAction.svg" xlink:type="simple"><g id="elem_MyPaymentUpdateAction"><rect codeLine="10" fill="#F1F1F1" height="56.2969" id="MyPaymentUpdateAction" rx="2.5" ry="2.5" style="stroke:#181818;stroke-width:0.5;" width="206" x="141.1111" y="12"/><ellipse cx="156.1111" cy="28" fill="#B4A7E5" rx="11" ry="11" style="stroke:#181818;stroke-width:1.0;"/><path d="M152.033,23.7656 L152.033,21.6094 L159.4236,21.6094 L159.4236,23.7656 L156.9549,23.7656 L156.9549,31.8438 L159.4236,31.8438 L159.4236,34 L152.033,34 L152.033,31.8438 L154.5017,31.8438 L154.5017,23.7656 L152.033,23.7656 Z " fill="#000000"/><text fill="#000000" font-family="sans-serif" font-size="14" font-style="italic" lengthAdjust="spacing" textLength="174" x="170.1111" y="32.8467">MyPaymentUpdateAction</text><line style="stroke:#181818;stroke-width:0.5;" x1="142.1111" x2="346.1111" y1="44" y2="44"/><text fill="#000000" font-family="sans-serif" font-size="14" lengthAdjust="spacing" textLength="91" x="147.1111" y="60.9951">action: String</text></g></a><!--MD5=[d36d480ac80e05d9de3a23b3961ac377]
class MyPaymentAddTransactionAction--><a href="MyPaymentAddTransactionAction.svg" target="_top" title="MyPaymentAddTransactionAction.svg" xlink:actuate="onRequest" xlink:href="MyPaymentAddTransactionAction.svg" xlink:show="new" xlink:title="MyPaymentAddTransactionAction.svg" xlink:type="simple"><g id="elem_MyPaymentAddTransactionAction"><rect codeLine="15" fill="#F1F1F1" height="72.5938" id="MyPaymentAddTransactionAction" rx="2.5" ry="2.5" style="stroke:#181818;stroke-width:0.5;" width="264" x="1979" y="183.4297"/><ellipse cx="1994" cy="199.4297" fill="#B4A7E5" rx="11" ry="11" style="stroke:#181818;stroke-width:1.0;"/><path d="M1989.9219,195.1953 L1989.9219,193.0391 L1997.3125,193.0391 L1997.3125,195.1953 L1994.8438,195.1953 L1994.8438,203.2734 L1997.3125,203.2734 L1997.3125,205.4297 L1989.9219,205.4297 L1989.9219,203.2734 L1992.3906,203.2734 L1992.3906,195.1953 L1989.9219,195.1953 Z " fill="#000000"/><text fill="#000000" font-family="sans-serif" font-size="14" font-style="italic" lengthAdjust="spacing" textLength="232" x="2008" y="204.2764">MyPaymentAddTransactionAction</text><line style="stroke:#181818;stroke-width:0.5;" x1="1980" x2="2242" y1="215.4297" y2="215.4297"/><text fill="#000000" font-family="sans-serif" font-size="14" lengthAdjust="spacing" textLength="91" x="1985" y="232.4248">action: String</text><text fill="#000000" font-family="sans-serif" font-size="14" lengthAdjust="spacing" textLength="82" x="1985" y="248.7217">transaction:</text><a href="TransactionDraft.svg" target="_top" title="TransactionDraft.svg" xlink:actuate="onRequest" xlink:href="TransactionDraft.svg" xlink:show="new" xlink:title="TransactionDraft.svg" xlink:type="simple"><text fill="#0000FF" font-family="sans-serif" font-size="14" lengthAdjust="spacing" text-decoration="underline" textLength="114" x="2071" y="248.7217">TransactionDraft</text></a></g></a><!--MD5=[ab335ac9d8d477daecb222607d87f5ac]
class MyPaymentChangeAmountPlannedAction--><a href="MyPaymentChangeAmountPlannedAction.svg" target="_top" title="MyPaymentChangeAmountPlannedAction.svg" xlink:actuate="onRequest" xlink:href="MyPaymentChangeAmountPlannedAction.svg" xlink:show="new" xlink:title="MyPaymentChangeAmountPlannedAction.svg" xlink:type="simple"><g id="elem_MyPaymentChangeAmountPlannedAction"><rect codeLine="19" fill="#F1F1F1" height="72.5938" id="MyPaymentChangeAmountPlannedAction" rx="2.5" ry="2.5" style="stroke:#181818;stroke-width:0.5;" width="320" x="2263" y="183.4297"/><ellipse cx="2278" cy="199.4297" fill="#B4A7E5" rx="11" ry="11" style="stroke:#181818;stroke-width:1.0;"/><path d="M2273.9219,195.1953 L2273.9219,193.0391 L2281.3125,193.0391 L2281.3125,195.1953 L2278.8438,195.1953 L2278.8438,203.2734 L2281.3125,203.2734 L2281.3125,205.4297 L2273.9219,205.4297 L2273.9219,203.2734 L2276.3906,203.2734 L2276.3906,195.1953 L2273.9219,195.1953 Z " fill="#000000"/><text fill="#000000" font-family="sans-serif" font-size="14" font-style="italic" lengthAdjust="spacing" textLength="288" x="2292" y="204.2764">MyPaymentChangeAmountPlannedAction</text><line style="stroke:#181818;stroke-width:0.5;" x1="2264" x2="2582" y1="215.4297" y2="215.4297"/><text fill="#000000" font-family="sans-serif" font-size="14" lengthAdjust="spacing" textLength="91" x="2269" y="232.4248">action: String</text><text fill="#000000" font-family="sans-serif" font-size="14" lengthAdjust="spacing" textLength="58" x="2269" y="248.7217">amount:</text><a href="Money.svg" target="_top" title="Money.svg" xlink:actuate="onRequest" xlink:href="Money.svg" xlink:show="new" xlink:title="Money.svg" xlink:type="simple"><text fill="#0000FF" font-family="sans-serif" font-size="14" lengthAdjust="spacing" text-decoration="underline" textLength="46" x="2331" y="248.7217">Money</text></a></g></a><!--MD5=[892dbf50c5cc4372791113e2b7c4277a]
class MyPaymentSetCustomFieldAction--><a href="MyPaymentSetCustomFieldAction.svg" target="_top" title="MyPaymentSetCustomFieldAction.svg" xlink:actuate="onRequest" xlink:href="MyPaymentSetCustomFieldAction.svg" xlink:show="new" xlink:title="MyPaymentSetCustomFieldAction.svg" xlink:type="simple"><g id="elem_MyPaymentSetCustomFieldAction"><rect codeLine="23" fill="#F1F1F1" height="88.8906" id="MyPaymentSetCustomFieldAction" rx="2.5" ry="2.5" style="stroke:#181818;stroke-width:0.5;" width="264" x="32" y="183.4297"/><ellipse cx="47" cy="199.4297" fill="#B4A7E5" rx="11" ry="11" style="stroke:#181818;stroke-width:1.0;"/><path d="M42.9219,195.1953 L42.9219,193.0391 L50.3125,193.0391 L50.3125,195.1953 L47.8438,195.1953 L47.8438,203.2734 L50.3125,203.2734 L50.3125,205.4297 L42.9219,205.4297 L42.9219,203.2734 L45.3906,203.2734 L45.3906,195.1953 L42.9219,195.1953 Z " fill="#000000"/><text fill="#000000" font-family="sans-serif" font-size="14" font-style="italic" lengthAdjust="spacing" textLength="232" x="61" y="204.2764">MyPaymentSetCustomFieldAction</text><line style="stroke:#181818;stroke-width:0.5;" x1="33" x2="295" y1="215.4297" y2="215.4297"/><text fill="#000000" font-family="sans-serif" font-size="14" lengthAdjust="spacing" textLength="91" x="38" y="232.4248">action: String</text><text fill="#000000" font-family="sans-serif" font-size="14" lengthAdjust="spacing" textLength="88" x="38" y="248.7217">name: String</text><text fill="#000000" font-family="sans-serif" font-size="14" lengthAdjust="spacing" textLength="41" x="38" y="265.0186">value:</text><a href="Object.svg" target="_top" title="Object.svg" xlink:actuate="onRequest" xlink:href="Object.svg" xlink:show="new" xlink:title="Object.svg" xlink:type="simple"><text fill="#0000FF" font-family="sans-serif" font-size="14" lengthAdjust="spacing" text-decoration="underline" textLength="45" x="83" y="265.0186">Object</text></a></g></a><!--MD5=[78bf933ecb765d8826b81528c4748e5c]
class MyPaymentSetMethodInfoInterfaceAction--><a href="MyPaymentSetMethodInfoInterfaceAction.svg" target="_top" title="MyPaymentSetMethodInfoInterfaceAction.svg" xlink:actuate="onRequest" xlink:href="MyPaymentSetMethodInfoInterfaceAction.svg" xlink:show="new" xlink:title="MyPaymentSetMethodInfoInterfaceAction.svg" xlink:type="simple"><g id="elem_MyPaymentSetMethodInfoInterfaceAction"><rect codeLine="28" fill="#F1F1F1" height="72.5938" id="MyPaymentSetMethodInfoInterfaceAction" rx="2.5" ry="2.5" style="stroke:#181818;stroke-width:0.5;" width="319" x="626" y="183.4297"/><ellipse cx="641" cy="199.4297" fill="#B4A7E5" rx="11" ry="11" style="stroke:#181818;stroke-width:1.0;"/><path d="M636.9219,195.1953 L636.9219,193.0391 L644.3125,193.0391 L644.3125,195.1953 L641.8438,195.1953 L641.8438,203.2734 L644.3125,203.2734 L644.3125,205.4297 L636.9219,205.4297 L636.9219,203.2734 L639.3906,203.2734 L639.3906,195.1953 L636.9219,195.1953 Z " fill="#000000"/><text fill="#000000" font-family="sans-serif" font-size="14" font-style="italic" lengthAdjust="spacing" textLength="287" x="655" y="204.2764">MyPaymentSetMethodInfoInterfaceAction</text><line style="stroke:#181818;stroke-width:0.5;" x1="627" x2="944" y1="215.4297" y2="215.4297"/><text fill="#000000" font-family="sans-serif" font-size="14" lengthAdjust="spacing" textLength="91" x="632" y="232.4248">action: String</text><text fill="#000000" font-family="sans-serif" font-size="14" lengthAdjust="spacing" textLength="109" x="632" y="248.7217">interface: String</text></g></a><!--MD5=[45f41f9a7769dc5dd4507ae743a2535e]
class MyPaymentSetMethodInfoMethodAction--><a href="MyPaymentSetMethodInfoMethodAction.svg" target="_top" title="MyPaymentSetMethodInfoMethodAction.svg" xlink:actuate="onRequest" xlink:href="MyPaymentSetMethodInfoMethodAction.svg" xlink:show="new" xlink:title="MyPaymentSetMethodInfoMethodAction.svg" xlink:type="simple"><g id="elem_MyPaymentSetMethodInfoMethodAction"><rect codeLine="32" fill="#F1F1F1" height="72.5938" id="MyPaymentSetMethodInfoMethodAction" rx="2.5" ry="2.5" style="stroke:#181818;stroke-width:0.5;" width="311" x="1329" y="183.4297"/><ellipse cx="1344" cy="199.4297" fill="#B4A7E5" rx="11" ry="11" style="stroke:#181818;stroke-width:1.0;"/><path d="M1339.9219,195.1953 L1339.9219,193.0391 L1347.3125,193.0391 L1347.3125,195.1953 L1344.8438,195.1953 L1344.8438,203.2734 L1347.3125,203.2734 L1347.3125,205.4297 L1339.9219,205.4297 L1339.9219,203.2734 L1342.3906,203.2734 L1342.3906,195.1953 L1339.9219,195.1953 Z " fill="#000000"/><text fill="#000000" font-family="sans-serif" font-size="14" font-style="italic" lengthAdjust="spacing" textLength="279" x="1358" y="204.2764">MyPaymentSetMethodInfoMethodAction</text><line style="stroke:#181818;stroke-width:0.5;" x1="1330" x2="1639" y1="215.4297" y2="215.4297"/><text fill="#000000" font-family="sans-serif" font-size="14" lengthAdjust="spacing" textLength="91" x="1335" y="232.4248">action: String</text><text fill="#000000" font-family="sans-serif" font-size="14" lengthAdjust="spacing" textLength="103" x="1335" y="248.7217">method: String</text></g></a><!--MD5=[080c5a662a979ad616c379d345a089f9]
class MyPaymentSetMethodInfoNameAction--><a href="MyPaymentSetMethodInfoNameAction.svg" target="_top" title="MyPaymentSetMethodInfoNameAction.svg" xlink:actuate="onRequest" xlink:href="MyPaymentSetMethodInfoNameAction.svg" xlink:show="new" xlink:title="MyPaymentSetMethodInfoNameAction.svg" xlink:type="simple"><g id="elem_MyPaymentSetMethodInfoNameAction"><rect codeLine="36" fill="#F1F1F1" height="72.5938" id="MyPaymentSetMethodInfoNameAction" rx="2.5" ry="2.5" style="stroke:#181818;stroke-width:0.5;" width="299" x="1660" y="183.4297"/><ellipse cx="1675" cy="199.4297" fill="#B4A7E5" rx="11" ry="11" style="stroke:#181818;stroke-width:1.0;"/><path d="M1670.9219,195.1953 L1670.9219,193.0391 L1678.3125,193.0391 L1678.3125,195.1953 L1675.8438,195.1953 L1675.8438,203.2734 L1678.3125,203.2734 L1678.3125,205.4297 L1670.9219,205.4297 L1670.9219,203.2734 L1673.3906,203.2734 L1673.3906,195.1953 L1670.9219,195.1953 Z " fill="#000000"/><text fill="#000000" font-family="sans-serif" font-size="14" font-style="italic" lengthAdjust="spacing" textLength="267" x="1689" y="204.2764">MyPaymentSetMethodInfoNameAction</text><line style="stroke:#181818;stroke-width:0.5;" x1="1661" x2="1958" y1="215.4297" y2="215.4297"/><text fill="#000000" font-family="sans-serif" font-size="14" lengthAdjust="spacing" textLength="91" x="1666" y="232.4248">action: String</text><text fill="#000000" font-family="sans-serif" font-size="14" lengthAdjust="spacing" textLength="44" x="1666" y="248.7217">name:</text><a href="LocalizedString.svg" target="_top" title="LocalizedString.svg" xlink:actuate="onRequest" xlink:href="LocalizedString.svg" xlink:show="new" xlink:title="LocalizedString.svg" xlink:type="simple"><text fill="#0000FF" font-family="sans-serif" font-size="14" lengthAdjust="spacing" text-decoration="underline" textLength="104" x="1714" y="248.7217">LocalizedString</text></a></g></a><!--MD5=[63210b9297f8c62b24b69c7f3d55027c]
class MyPaymentSetTransactionCustomFieldAction--><a href="MyPaymentSetTransactionCustomFieldAction.svg" target="_top" title="MyPaymentSetTransactionCustomFieldAction.svg" xlink:actuate="onRequest" xlink:href="MyPaymentSetTransactionCustomFieldAction.svg" xlink:show="new" xlink:title="MyPaymentSetTransactionCustomFieldAction.svg" xlink:type="simple"><g id="elem_MyPaymentSetTransactionCustomFieldAction"><rect codeLine="40" fill="#F1F1F1" height="88.8906" id="MyPaymentSetTransactionCustomFieldAction" rx="2.5" ry="2.5" style="stroke:#181818;stroke-width:0.5;" width="344" x="965" y="183.4297"/><ellipse cx="980" cy="199.4297" fill="#B4A7E5" rx="11" ry="11" style="stroke:#181818;stroke-width:1.0;"/><path d="M975.9219,195.1953 L975.9219,193.0391 L983.3125,193.0391 L983.3125,195.1953 L980.8438,195.1953 L980.8438,203.2734 L983.3125,203.2734 L983.3125,205.4297 L975.9219,205.4297 L975.9219,203.2734 L978.3906,203.2734 L978.3906,195.1953 L975.9219,195.1953 Z " fill="#000000"/><text fill="#000000" font-family="sans-serif" font-size="14" font-style="italic" lengthAdjust="spacing" textLength="312" x="994" y="204.2764">MyPaymentSetTransactionCustomFieldAction</text><line style="stroke:#181818;stroke-width:0.5;" x1="966" x2="1308" y1="215.4297" y2="215.4297"/><text fill="#000000" font-family="sans-serif" font-size="14" lengthAdjust="spacing" textLength="91" x="971" y="232.4248">action: String</text><text fill="#000000" font-family="sans-serif" font-size="14" lengthAdjust="spacing" textLength="88" x="971" y="248.7217">name: String</text><text fill="#000000" font-family="sans-serif" font-size="14" lengthAdjust="spacing" textLength="41" x="971" y="265.0186">value:</text><a href="Object.svg" target="_top" title="Object.svg" xlink:actuate="onRequest" xlink:href="Object.svg" xlink:show="new" xlink:title="Object.svg" xlink:type="simple"><text fill="#0000FF" font-family="sans-serif" font-size="14" lengthAdjust="spacing" text-decoration="underline" textLength="45" x="1016" y="265.0186">Object</text></a></g></a><!--MD5=[97aa006b8f1f6f357eb0e870473be79e]
class MyPaymentUpdate--><a href="MyPaymentUpdate.svg" target="_top" title="MyPaymentUpdate.svg" xlink:actuate="onRequest" xlink:href="MyPaymentUpdate.svg" xlink:show="new" xlink:title="MyPaymentUpdate.svg" xlink:type="simple"><g id="elem_MyPaymentUpdate"><rect codeLine="45" fill="#F1F1F1" height="72.5938" id="MyPaymentUpdate" rx="2.5" ry="2.5" style="stroke:#181818;stroke-width:0.5;" width="290" x="316" y="183.4297"/><ellipse cx="391.75" cy="199.4297" fill="#B4A7E5" rx="11" ry="11" style="stroke:#181818;stroke-width:1.0;"/><path d="M387.6719,195.1953 L387.6719,193.0391 L395.0625,193.0391 L395.0625,195.1953 L392.5938,195.1953 L392.5938,203.2734 L395.0625,203.2734 L395.0625,205.4297 L387.6719,205.4297 L387.6719,203.2734 L390.1406,203.2734 L390.1406,195.1953 L387.6719,195.1953 Z " fill="#000000"/><text fill="#000000" font-family="sans-serif" font-size="14" font-style="italic" lengthAdjust="spacing" textLength="130" x="412.25" y="204.2764">MyPaymentUpdate</text><line style="stroke:#181818;stroke-width:0.5;" x1="317" x2="605" y1="215.4297" y2="215.4297"/><text fill="#000000" font-family="sans-serif" font-size="14" lengthAdjust="spacing" textLength="93" x="322" y="232.4248">version: Long</text><text fill="#000000" font-family="sans-serif" font-size="14" lengthAdjust="spacing" textLength="55" x="322" y="248.7217">actions:</text><a href="MyPaymentUpdateAction.svg" target="_top" title="MyPaymentUpdateAction.svg" xlink:actuate="onRequest" xlink:href="MyPaymentUpdateAction.svg" xlink:show="new" xlink:title="MyPaymentUpdateAction.svg" xlink:type="simple"><text fill="#0000FF" font-family="sans-serif" font-size="14" lengthAdjust="spacing" text-decoration="underline" textLength="219" x="381" y="248.7217">List&lt;MyPaymentUpdateAction&gt;</text></a></g></a><line style="stroke:#0000FF;stroke-width:1.0;" x1="301.3333" x2="301.3333" y1="68.2969" y2="88.2969"/><line style="stroke:#0000FF;stroke-width:1.0;" x1="301.3333" x2="2111" y1="88.2969" y2="88.2969"/><line style="stroke:#0000FF;stroke-width:1.0;" x1="2111" x2="2111" y1="88.2969" y2="183.4297"/><polygon fill="#0000FF" points="2111,183.4297,2115,174.4297,2111,178.4297,2107,174.4297,2111,183.4297" style="stroke:#0000FF;stroke-width:1.0;"/><text fill="#000000" font-family="sans-serif" font-size="13" lengthAdjust="spacing" textLength="149" x="1960" y="160.3638">action : addTransaction</text><line style="stroke:#0000FF;stroke-width:1.0;" x1="324.2222" x2="324.2222" y1="68.2969" y2="78.2969"/><line style="stroke:#0000FF;stroke-width:1.0;" x1="324.2222" x2="2423" y1="78.2969" y2="78.2969"/><line style="stroke:#0000FF;stroke-width:1.0;" x1="2423" x2="2423" y1="78.2969" y2="183.4297"/><polygon fill="#0000FF" points="2423,183.4297,2427,174.4297,2423,178.4297,2419,174.4297,2423,183.4297" style="stroke:#0000FF;stroke-width:1.0;"/><text fill="#000000" font-family="sans-serif" font-size="13" lengthAdjust="spacing" textLength="200" x="2221" y="160.3638">action : changeAmountPlanned</text><line style="stroke:#0000FF;stroke-width:1.0;" x1="164" x2="164" y1="68.2969" y2="183.4297"/><polygon fill="#0000FF" points="164,183.4297,168,174.4297,164,178.4297,160,174.4297,164,183.4297" style="stroke:#0000FF;stroke-width:1.0;"/><text fill="#000000" font-family="sans-serif" font-size="13" lengthAdjust="spacing" textLength="150" x="12" y="160.3638">action : setCustomField</text><line style="stroke:#0000FF;stroke-width:1.0;" x1="209.7778" x2="209.7778" y1="68.2969" y2="128.2969"/><line style="stroke:#0000FF;stroke-width:1.0;" x1="209.7778" x2="785.5" y1="128.2969" y2="128.2969"/><line style="stroke:#0000FF;stroke-width:1.0;" x1="785.5" x2="785.5" y1="128.2969" y2="183.4297"/><polygon fill="#0000FF" points="785.5,183.4297,789.5,174.4297,785.5,178.4297,781.5,174.4297,785.5,183.4297" style="stroke:#0000FF;stroke-width:1.0;"/><text fill="#000000" font-family="sans-serif" font-size="13" lengthAdjust="spacing" textLength="198" x="585.5" y="160.3638">action : setMethodInfoInterface</text><line style="stroke:#0000FF;stroke-width:1.0;" x1="255.5556" x2="255.5556" y1="68.2969" y2="108.2969"/><line style="stroke:#0000FF;stroke-width:1.0;" x1="255.5556" x2="1484.5" y1="108.2969" y2="108.2969"/><line style="stroke:#0000FF;stroke-width:1.0;" x1="1484.5" x2="1484.5" y1="108.2969" y2="183.4297"/><polygon fill="#0000FF" points="1484.5,183.4297,1488.5,174.4297,1484.5,178.4297,1480.5,174.4297,1484.5,183.4297" style="stroke:#0000FF;stroke-width:1.0;"/><text fill="#000000" font-family="sans-serif" font-size="13" lengthAdjust="spacing" textLength="190" x="1292.5" y="160.3638">action : setMethodInfoMethod</text><line style="stroke:#0000FF;stroke-width:1.0;" x1="278.4444" x2="278.4444" y1="68.2969" y2="98.2969"/><line style="stroke:#0000FF;stroke-width:1.0;" x1="278.4444" x2="1809.5" y1="98.2969" y2="98.2969"/><line style="stroke:#0000FF;stroke-width:1.0;" x1="1809.5" x2="1809.5" y1="98.2969" y2="183.4297"/><polygon fill="#0000FF" points="1809.5,183.4297,1813.5,174.4297,1809.5,178.4297,1805.5,174.4297,1809.5,183.4297" style="stroke:#0000FF;stroke-width:1.0;"/><text fill="#000000" font-family="sans-serif" font-size="13" lengthAdjust="spacing" textLength="181" x="1626.5" y="160.3638">action : setMethodInfoName</text><line style="stroke:#0000FF;stroke-width:1.0;" x1="232.6667" x2="232.6667" y1="68.2969" y2="118.2969"/><line style="stroke:#0000FF;stroke-width:1.0;" x1="232.6667" x2="1137" y1="118.2969" y2="118.2969"/><line style="stroke:#0000FF;stroke-width:1.0;" x1="1137" x2="1137" y1="118.2969" y2="183.4297"/><polygon fill="#0000FF" points="1137,183.4297,1141,174.4297,1137,178.4297,1133,174.4297,1137,183.4297" style="stroke:#0000FF;stroke-width:1.0;"/><text fill="#000000" font-family="sans-serif" font-size="13" lengthAdjust="spacing" textLength="224" x="911" y="160.3638">action : setTransactionCustomField</text><line style="stroke:#008000;stroke-width:1.0;" x1="186.8889" x2="186.8889" y1="68.2969" y2="138.2969"/><line style="stroke:#008000;stroke-width:1.0;" x1="186.8889" x2="461" y1="138.2969" y2="138.2969"/><line style="stroke:#008000;stroke-width:1.0;" x1="461" x2="461" y1="138.2969" y2="183.4297"/><polygon fill="#008000" points="461,183.4297,465,174.4297,461,178.4297,457,174.4297,461,183.4297" style="stroke:#008000;stroke-width:1.0;"/><text fill="#000000" font-family="sans-serif" font-size="13" lengthAdjust="spacing" textLength="46" x="413" y="160.3638">actions</text><rect fill="#DDDDDD" height="79.1875" id="_legend" rx="7.5" ry="7.5" style="stroke:#000000;stroke-width:1.0;" width="161" x="1204.5" y="273.3203"/><text fill="#000000" font-family="sans-serif" font-size="14" font-weight="bold" lengthAdjust="spacing" textLength="5" x="1209.5" y="293.3154"> </text><text fill="#000000" font-family="sans-serif" font-size="14" font-weight="bold" lengthAdjust="spacing" textLength="28" x="1226.5" y="293.3154">line</text><text fill="#000000" filter="url(#b1oxqzp9ki56lr0)" font-family="sans-serif" font-size="14" lengthAdjust="spacing" textLength="12" x="1209.5" y="309.6123">   </text><text fill="#000000" font-family="sans-serif" font-size="14" lengthAdjust="spacing" textLength="77" x="1225.5" y="309.6123">inheritance</text><text fill="#000000" filter="url(#b1oxqzp9ki56lr1)" font-family="sans-serif" font-size="14" lengthAdjust="spacing" textLength="12" x="1209.5" y="325.9092">   </text><text fill="#000000" font-family="sans-serif" font-size="14" lengthAdjust="spacing" textLength="129" x="1225.5" y="325.9092">property reference</text><text fill="#000000" filter="url(#b1oxqzp9ki56lr2)" font-family="sans-serif" font-size="14" lengthAdjust="spacing" textLength="12" x="1209.5" y="342.2061">   </text><text fill="#000000" font-family="sans-serif" font-size="14" lengthAdjust="spacing" textLength="131" x="1225.5" y="342.2061">discriminated class</text><line style="stroke:#000000;stroke-width:1.0;" x1="1209.5" x2="1360.5" y1="280.3203" y2="280.3203"/><line style="stroke:#000000;stroke-width:1.0;" x1="1209.5" x2="1360.5" y1="296.6172" y2="296.6172"/><line style="stroke:#000000;stroke-width:1.0;" x1="1209.5" x2="1360.5" y1="312.9141" y2="312.9141"/><line style="stroke:#000000;stroke-width:1.0;" x1="1209.5" x2="1360.5" y1="329.2109" y2="329.2109"/><line style="stroke:#000000;stroke-width:1.0;" x1="1209.5" x2="1360.5" y1="345.5078" y2="345.5078"/><line style="stroke:#000000;stroke-width:1.0;" x1="1209.5" x2="1209.5" y1="280.3203" y2="345.5078"/><line style="stroke:#000000;stroke-width:1.0;" x1="1221.5" x2="1221.5" y1="280.3203" y2="345.5078"/><line style="stroke:#000000;stroke-width:1.0;" x1="1360.5" x2="1360.5" y1="280.3203" y2="345.5078"/><!--MD5=[0e70624f92bf5766fb30b6440c21c172]
@startuml
!pragma layout elk
hide empty fields
hide empty methods
legend
|= |= line |
|<back:black>   </back>| inheritance |
|<back:green>   </back>| property reference |
|<back:blue>   </back>| discriminated class |
endlegend
interface MyPaymentUpdateAction [[MyPaymentUpdateAction.svg]]  {
    action: String
}


interface MyPaymentAddTransactionAction [[MyPaymentAddTransactionAction.svg]]  {
    action: String
    transaction: [[TransactionDraft.svg TransactionDraft]]
}
interface MyPaymentChangeAmountPlannedAction [[MyPaymentChangeAmountPlannedAction.svg]]  {
    action: String
    amount: [[Money.svg Money]]
}
interface MyPaymentSetCustomFieldAction [[MyPaymentSetCustomFieldAction.svg]]  {
    action: String
    name: String
    value: [[Object.svg Object]]
}
interface MyPaymentSetMethodInfoInterfaceAction [[MyPaymentSetMethodInfoInterfaceAction.svg]]  {
    action: String
    interface: String
}
interface MyPaymentSetMethodInfoMethodAction [[MyPaymentSetMethodInfoMethodAction.svg]]  {
    action: String
    method: String
}
interface MyPaymentSetMethodInfoNameAction [[MyPaymentSetMethodInfoNameAction.svg]]  {
    action: String
    name: [[LocalizedString.svg LocalizedString]]
}
interface MyPaymentSetTransactionCustomFieldAction [[MyPaymentSetTransactionCustomFieldAction.svg]]  {
    action: String
    name: String
    value: [[Object.svg Object]]
}
interface MyPaymentUpdate [[MyPaymentUpdate.svg]]  {
    version: Long
    actions: [[MyPaymentUpdateAction.svg List<MyPaymentUpdateAction>]]
}
MyPaymentUpdateAction - -> MyPaymentAddTransactionAction #blue;text:blue : "action : addTransaction"
MyPaymentUpdateAction - -> MyPaymentChangeAmountPlannedAction #blue;text:blue : "action : changeAmountPlanned"
MyPaymentUpdateAction - -> MyPaymentSetCustomFieldAction #blue;text:blue : "action : setCustomField"
MyPaymentUpdateAction - -> MyPaymentSetMethodInfoInterfaceAction #blue;text:blue : "action : setMethodInfoInterface"
MyPaymentUpdateAction - -> MyPaymentSetMethodInfoMethodAction #blue;text:blue : "action : setMethodInfoMethod"
MyPaymentUpdateAction - -> MyPaymentSetMethodInfoNameAction #blue;text:blue : "action : setMethodInfoName"
MyPaymentUpdateAction - -> MyPaymentSetTransactionCustomFieldAction #blue;text:blue : "action : setTransactionCustomField"
MyPaymentUpdateAction - -> MyPaymentUpdate #green;text:green : "actions"
@enduml

PlantUML version 1.2022.13(Sat Nov 19 13:22:17 UTC 2022)
(GPL source distribution)
Java Runtime: OpenJDK Runtime Environment
JVM: OpenJDK 64-Bit Server VM
Default Encoding: UTF-8
Language: en
Country: null
--></g></svg>
