<?xml version="1.0" encoding="UTF-8" standalone="no"?><svg xmlns="http://www.w3.org/2000/svg" xmlns:xlink="http://www.w3.org/1999/xlink" contentStyleType="text/css" height="219px" preserveAspectRatio="none" style="width:311px;height:219px;background:#FFFFFF;" version="1.1" viewBox="0 0 311 219" width="311px" zoomAndPan="magnify"><defs/><g><!--MD5=[b98d1012cbf24cfa1965d62b7891bb03]
class MyQuoteState--><g id="elem_MyQuoteState"><rect codeLine="3" fill="#F1F1F1" height="72.5938" id="MyQuoteState" rx="2.5" ry="2.5" style="stroke:#181818;stroke-width:0.5;" width="130" x="93" y="12"/><ellipse cx="108" cy="28" fill="#EB937F" rx="11" ry="11" style="stroke:#181818;stroke-width:1.0;"/><path d="M112.1094,34 L104.3906,34 L104.3906,21.6094 L112.1094,21.6094 L112.1094,23.7656 L106.8438,23.7656 L106.8438,26.4375 L111.6094,26.4375 L111.6094,28.5938 L106.8438,28.5938 L106.8438,31.8438 L112.1094,31.8438 L112.1094,34 Z " fill="#000000"/><text fill="#000000" font-family="sans-serif" font-size="14" lengthAdjust="spacing" textLength="98" x="122" y="32.8467">MyQuoteState</text><line style="stroke:#181818;stroke-width:0.5;" x1="94" x2="222" y1="44" y2="44"/><text fill="#000000" font-family="sans-serif" font-size="14" lengthAdjust="spacing" textLength="70" x="99" y="60.9951">DECLINED</text><text fill="#000000" font-family="sans-serif" font-size="14" lengthAdjust="spacing" textLength="76" x="99" y="77.292">ACCEPTED</text></g><!--MD5=[f13ca641817580d8605c40c55eaf01d6]
class MyQuoteChangeMyQuoteStateAction--><a href="MyQuoteChangeMyQuoteStateAction.svg" target="_top" title="MyQuoteChangeMyQuoteStateAction.svg" xlink:actuate="onRequest" xlink:href="MyQuoteChangeMyQuoteStateAction.svg" xlink:show="new" xlink:title="MyQuoteChangeMyQuoteStateAction.svg" xlink:type="simple"><g id="elem_MyQuoteChangeMyQuoteStateAction"><rect codeLine="7" fill="#F1F1F1" height="72.5938" id="MyQuoteChangeMyQuoteStateAction" rx="2.5" ry="2.5" style="stroke:#181818;stroke-width:0.5;" width="292" x="12" y="139.7266"/><ellipse cx="27" cy="155.7266" fill="#B4A7E5" rx="11" ry="11" style="stroke:#181818;stroke-width:1.0;"/><path d="M22.9219,151.4922 L22.9219,149.3359 L30.3125,149.3359 L30.3125,151.4922 L27.8438,151.4922 L27.8438,159.5703 L30.3125,159.5703 L30.3125,161.7266 L22.9219,161.7266 L22.9219,159.5703 L25.3906,159.5703 L25.3906,151.4922 L22.9219,151.4922 Z " fill="#000000"/><text fill="#000000" font-family="sans-serif" font-size="14" font-style="italic" lengthAdjust="spacing" textLength="260" x="41" y="160.5732">MyQuoteChangeMyQuoteStateAction</text><line style="stroke:#181818;stroke-width:0.5;" x1="13" x2="303" y1="171.7266" y2="171.7266"/><text fill="#000000" font-family="sans-serif" font-size="14" lengthAdjust="spacing" textLength="91" x="18" y="188.7217">action: String</text><text fill="#000000" font-family="sans-serif" font-size="14" lengthAdjust="spacing" textLength="82" x="18" y="205.0186">quoteState:</text><a href="MyQuoteState.svg" target="_top" title="MyQuoteState.svg" xlink:actuate="onRequest" xlink:href="MyQuoteState.svg" xlink:show="new" xlink:title="MyQuoteState.svg" xlink:type="simple"><text fill="#0000FF" font-family="sans-serif" font-size="14" lengthAdjust="spacing" text-decoration="underline" textLength="98" x="104" y="205.0186">MyQuoteState</text></a></g></a><line style="stroke:#008000;stroke-width:1.0;" x1="158" x2="158" y1="84.5938" y2="139.7266"/><polygon fill="#008000" points="158,139.7266,162,130.7266,158,134.7266,154,130.7266,158,139.7266" style="stroke:#008000;stroke-width:1.0;"/><text fill="#000000" font-family="sans-serif" font-size="13" lengthAdjust="spacing" textLength="72" x="84" y="116.6606">quoteState</text><!--MD5=[959a1229e82b3eafd2955a964efee9df]
@startuml
!pragma layout elk
hide methods
enum MyQuoteState {
    DECLINED
    ACCEPTED
}
interface MyQuoteChangeMyQuoteStateAction [[MyQuoteChangeMyQuoteStateAction.svg]]  {
    action: String
    quoteState: [[MyQuoteState.svg MyQuoteState]]
}
MyQuoteState - -> MyQuoteChangeMyQuoteStateAction #green;text:green : "quoteState"
@enduml

PlantUML version 1.2022.13(Sat Nov 19 13:22:17 UTC 2022)
(GPL source distribution)
Java Runtime: OpenJDK Runtime Environment
JVM: OpenJDK 64-Bit Server VM
Default Encoding: UTF-8
Language: en
Country: null
--></g></svg>
