<?xml version="1.0" encoding="UTF-8" standalone="no"?><svg xmlns="http://www.w3.org/2000/svg" xmlns:xlink="http://www.w3.org/1999/xlink" contentStyleType="text/css" height="244px" preserveAspectRatio="none" style="width:266px;height:244px;background:#FFFFFF;" version="1.1" viewBox="0 0 266 244" width="266px" zoomAndPan="magnify"><defs><filter height="1" id="bhghszptpnlqh0" width="1" x="0" y="0"><feFlood flood-color="#000000" result="flood"/><feComposite in="SourceGraphic" in2="flood" operator="over"/></filter><filter height="1" id="bhghszptpnlqh1" width="1" x="0" y="0"><feFlood flood-color="#008000" result="flood"/><feComposite in="SourceGraphic" in2="flood" operator="over"/></filter><filter height="1" id="bhghszptpnlqh2" width="1" x="0" y="0"><feFlood flood-color="#0000FF" result="flood"/><feComposite in="SourceGraphic" in2="flood" operator="over"/></filter></defs><g><!--MD5=[60a769a6752893d1919e0307e5a54790]
class MyQuoteRequestCancelAction--><a href="MyQuoteRequestCancelAction.svg" target="_top" title="MyQuoteRequestCancelAction.svg" xlink:actuate="onRequest" xlink:href="MyQuoteRequestCancelAction.svg" xlink:show="new" xlink:title="MyQuoteRequestCancelAction.svg" xlink:type="simple"><g id="elem_MyQuoteRequestCancelAction"><rect codeLine="10" fill="#F1F1F1" height="56.2969" id="MyQuoteRequestCancelAction" rx="2.5" ry="2.5" style="stroke:#181818;stroke-width:0.5;" width="244" x="13.5" y="88.2969"/><ellipse cx="28.5" cy="104.2969" fill="#B4A7E5" rx="11" ry="11" style="stroke:#181818;stroke-width:1.0;"/><path d="M24.4219,100.0625 L24.4219,97.9063 L31.8125,97.9063 L31.8125,100.0625 L29.3438,100.0625 L29.3438,108.1406 L31.8125,108.1406 L31.8125,110.2969 L24.4219,110.2969 L24.4219,108.1406 L26.8906,108.1406 L26.8906,100.0625 L24.4219,100.0625 Z " fill="#000000"/><text fill="#000000" font-family="sans-serif" font-size="14" font-style="italic" lengthAdjust="spacing" textLength="212" x="42.5" y="109.1436">MyQuoteRequestCancelAction</text><line style="stroke:#181818;stroke-width:0.5;" x1="14.5" x2="256.5" y1="120.2969" y2="120.2969"/><text fill="#000000" font-family="sans-serif" font-size="14" lengthAdjust="spacing" textLength="91" x="19.5" y="137.292">action: String</text></g></a><!--MD5=[7510921578834f8c36ced566326b0af8]
class MyQuoteRequestUpdateAction--><a href="MyQuoteRequestUpdateAction.svg" target="_top" title="MyQuoteRequestUpdateAction.svg" xlink:actuate="onRequest" xlink:href="MyQuoteRequestUpdateAction.svg" xlink:show="new" xlink:title="MyQuoteRequestUpdateAction.svg" xlink:type="simple"><g id="elem_MyQuoteRequestUpdateAction"><rect codeLine="13" fill="#F1F1F1" height="56.2969" id="MyQuoteRequestUpdateAction" rx="2.5" ry="2.5" style="stroke:#181818;stroke-width:0.5;" width="247" x="12" y="12"/><ellipse cx="27" cy="28" fill="#B4A7E5" rx="11" ry="11" style="stroke:#181818;stroke-width:1.0;"/><path d="M22.9219,23.7656 L22.9219,21.6094 L30.3125,21.6094 L30.3125,23.7656 L27.8438,23.7656 L27.8438,31.8438 L30.3125,31.8438 L30.3125,34 L22.9219,34 L22.9219,31.8438 L25.3906,31.8438 L25.3906,23.7656 L22.9219,23.7656 Z " fill="#000000"/><text fill="#000000" font-family="sans-serif" font-size="14" font-style="italic" lengthAdjust="spacing" textLength="215" x="41" y="32.8467">MyQuoteRequestUpdateAction</text><line style="stroke:#181818;stroke-width:0.5;" x1="13" x2="258" y1="44" y2="44"/><text fill="#000000" font-family="sans-serif" font-size="14" lengthAdjust="spacing" textLength="91" x="18" y="60.9951">action: String</text></g></a><line style="stroke:#181818;stroke-width:1.0;" x1="135.5" x2="135.5" y1="68.2969" y2="88.2969"/><polygon fill="#FFFFFF" points="135.5,68.2969,128.5,87.2969,142.5,87.2969,135.5,68.2969" style="stroke:#181818;stroke-width:1.0;"/><rect fill="#DDDDDD" height="79.1875" id="_legend" rx="7.5" ry="7.5" style="stroke:#000000;stroke-width:1.0;" width="161" x="43" y="145.5938"/><text fill="#000000" font-family="sans-serif" font-size="14" font-weight="bold" lengthAdjust="spacing" textLength="5" x="48" y="165.5889"> </text><text fill="#000000" font-family="sans-serif" font-size="14" font-weight="bold" lengthAdjust="spacing" textLength="28" x="65" y="165.5889">line</text><text fill="#000000" filter="url(#bhghszptpnlqh0)" font-family="sans-serif" font-size="14" lengthAdjust="spacing" textLength="12" x="48" y="181.8857">   </text><text fill="#000000" font-family="sans-serif" font-size="14" lengthAdjust="spacing" textLength="77" x="64" y="181.8857">inheritance</text><text fill="#000000" filter="url(#bhghszptpnlqh1)" font-family="sans-serif" font-size="14" lengthAdjust="spacing" textLength="12" x="48" y="198.1826">   </text><text fill="#000000" font-family="sans-serif" font-size="14" lengthAdjust="spacing" textLength="129" x="64" y="198.1826">property reference</text><text fill="#000000" filter="url(#bhghszptpnlqh2)" font-family="sans-serif" font-size="14" lengthAdjust="spacing" textLength="12" x="48" y="214.4795">   </text><text fill="#000000" font-family="sans-serif" font-size="14" lengthAdjust="spacing" textLength="131" x="64" y="214.4795">discriminated class</text><line style="stroke:#000000;stroke-width:1.0;" x1="48" x2="199" y1="152.5938" y2="152.5938"/><line style="stroke:#000000;stroke-width:1.0;" x1="48" x2="199" y1="168.8906" y2="168.8906"/><line style="stroke:#000000;stroke-width:1.0;" x1="48" x2="199" y1="185.1875" y2="185.1875"/><line style="stroke:#000000;stroke-width:1.0;" x1="48" x2="199" y1="201.4844" y2="201.4844"/><line style="stroke:#000000;stroke-width:1.0;" x1="48" x2="199" y1="217.7813" y2="217.7813"/><line style="stroke:#000000;stroke-width:1.0;" x1="48" x2="48" y1="152.5938" y2="217.7813"/><line style="stroke:#000000;stroke-width:1.0;" x1="60" x2="60" y1="152.5938" y2="217.7813"/><line style="stroke:#000000;stroke-width:1.0;" x1="199" x2="199" y1="152.5938" y2="217.7813"/><!--MD5=[91610a721e84686e027c24300fe81d37]
@startuml
!pragma layout elk
hide empty fields
hide empty methods
legend
|= |= line |
|<back:black>   </back>| inheritance |
|<back:green>   </back>| property reference |
|<back:blue>   </back>| discriminated class |
endlegend
interface MyQuoteRequestCancelAction [[MyQuoteRequestCancelAction.svg]] extends MyQuoteRequestUpdateAction {
    action: String
}
interface MyQuoteRequestUpdateAction [[MyQuoteRequestUpdateAction.svg]]  {
    action: String
}





@enduml

PlantUML version 1.2022.13(Sat Nov 19 13:22:17 UTC 2022)
(GPL source distribution)
Java Runtime: OpenJDK Runtime Environment
JVM: OpenJDK 64-Bit Server VM
Default Encoding: UTF-8
Language: en
Country: null
--></g></svg>
