<?xml version="1.0" encoding="UTF-8" standalone="no"?><svg xmlns="http://www.w3.org/2000/svg" xmlns:xlink="http://www.w3.org/1999/xlink" contentStyleType="text/css" height="296px" preserveAspectRatio="none" style="width:678px;height:296px;background:#FFFFFF;" version="1.1" viewBox="0 0 678 296" width="678px" zoomAndPan="magnify"><defs><filter height="1" id="bq7phu1myhlt80" width="1" x="0" y="0"><feFlood flood-color="#000000" result="flood"/><feComposite in="SourceGraphic" in2="flood" operator="over"/></filter><filter height="1" id="bq7phu1myhlt81" width="1" x="0" y="0"><feFlood flood-color="#008000" result="flood"/><feComposite in="SourceGraphic" in2="flood" operator="over"/></filter><filter height="1" id="bq7phu1myhlt82" width="1" x="0" y="0"><feFlood flood-color="#0000FF" result="flood"/><feComposite in="SourceGraphic" in2="flood" operator="over"/></filter></defs><g><!--MD5=[7510921578834f8c36ced566326b0af8]
class MyQuoteRequestUpdateAction--><a href="MyQuoteRequestUpdateAction.svg" target="_top" title="MyQuoteRequestUpdateAction.svg" xlink:actuate="onRequest" xlink:href="MyQuoteRequestUpdateAction.svg" xlink:show="new" xlink:title="MyQuoteRequestUpdateAction.svg" xlink:type="simple"><g id="elem_MyQuoteRequestUpdateAction"><rect codeLine="10" fill="#F1F1F1" height="56.2969" id="MyQuoteRequestUpdateAction" rx="2.5" ry="2.5" style="stroke:#181818;stroke-width:0.5;" width="247" x="114.6667" y="12"/><ellipse cx="129.6667" cy="28" fill="#B4A7E5" rx="11" ry="11" style="stroke:#181818;stroke-width:1.0;"/><path d="M125.5885,23.7656 L125.5885,21.6094 L132.9792,21.6094 L132.9792,23.7656 L130.5104,23.7656 L130.5104,31.8438 L132.9792,31.8438 L132.9792,34 L125.5885,34 L125.5885,31.8438 L128.0573,31.8438 L128.0573,23.7656 L125.5885,23.7656 Z " fill="#000000"/><text fill="#000000" font-family="sans-serif" font-size="14" font-style="italic" lengthAdjust="spacing" textLength="215" x="143.6667" y="32.8467">MyQuoteRequestUpdateAction</text><line style="stroke:#181818;stroke-width:0.5;" x1="115.6667" x2="360.6667" y1="44" y2="44"/><text fill="#000000" font-family="sans-serif" font-size="14" lengthAdjust="spacing" textLength="91" x="120.6667" y="60.9951">action: String</text></g></a><!--MD5=[60a769a6752893d1919e0307e5a54790]
class MyQuoteRequestCancelAction--><a href="MyQuoteRequestCancelAction.svg" target="_top" title="MyQuoteRequestCancelAction.svg" xlink:actuate="onRequest" xlink:href="MyQuoteRequestCancelAction.svg" xlink:show="new" xlink:title="MyQuoteRequestCancelAction.svg" xlink:type="simple"><g id="elem_MyQuoteRequestCancelAction"><rect codeLine="15" fill="#F1F1F1" height="56.2969" id="MyQuoteRequestCancelAction" rx="2.5" ry="2.5" style="stroke:#181818;stroke-width:0.5;" width="244" x="75" y="123.4297"/><ellipse cx="90" cy="139.4297" fill="#B4A7E5" rx="11" ry="11" style="stroke:#181818;stroke-width:1.0;"/><path d="M85.9219,135.1953 L85.9219,133.0391 L93.3125,133.0391 L93.3125,135.1953 L90.8438,135.1953 L90.8438,143.2734 L93.3125,143.2734 L93.3125,145.4297 L85.9219,145.4297 L85.9219,143.2734 L88.3906,143.2734 L88.3906,135.1953 L85.9219,135.1953 Z " fill="#000000"/><text fill="#000000" font-family="sans-serif" font-size="14" font-style="italic" lengthAdjust="spacing" textLength="212" x="104" y="144.2764">MyQuoteRequestCancelAction</text><line style="stroke:#181818;stroke-width:0.5;" x1="76" x2="318" y1="155.4297" y2="155.4297"/><text fill="#000000" font-family="sans-serif" font-size="14" lengthAdjust="spacing" textLength="91" x="81" y="172.4248">action: String</text></g></a><!--MD5=[7904354e1119d043b6b3106b902a5b35]
class MyQuoteRequestUpdate--><a href="MyQuoteRequestUpdate.svg" target="_top" title="MyQuoteRequestUpdate.svg" xlink:actuate="onRequest" xlink:href="MyQuoteRequestUpdate.svg" xlink:show="new" xlink:title="MyQuoteRequestUpdate.svg" xlink:type="simple"><g id="elem_MyQuoteRequestUpdate"><rect codeLine="18" fill="#F1F1F1" height="72.5938" id="MyQuoteRequestUpdate" rx="2.5" ry="2.5" style="stroke:#181818;stroke-width:0.5;" width="332" x="339" y="123.4297"/><ellipse cx="415.25" cy="139.4297" fill="#B4A7E5" rx="11" ry="11" style="stroke:#181818;stroke-width:1.0;"/><path d="M411.1719,135.1953 L411.1719,133.0391 L418.5625,133.0391 L418.5625,135.1953 L416.0938,135.1953 L416.0938,143.2734 L418.5625,143.2734 L418.5625,145.4297 L411.1719,145.4297 L411.1719,143.2734 L413.6406,143.2734 L413.6406,135.1953 L411.1719,135.1953 Z " fill="#000000"/><text fill="#000000" font-family="sans-serif" font-size="14" font-style="italic" lengthAdjust="spacing" textLength="171" x="435.75" y="144.2764">MyQuoteRequestUpdate</text><line style="stroke:#181818;stroke-width:0.5;" x1="340" x2="670" y1="155.4297" y2="155.4297"/><text fill="#000000" font-family="sans-serif" font-size="14" lengthAdjust="spacing" textLength="93" x="345" y="172.4248">version: Long</text><text fill="#000000" font-family="sans-serif" font-size="14" lengthAdjust="spacing" textLength="55" x="345" y="188.7217">actions:</text><a href="MyQuoteRequestUpdateAction.svg" target="_top" title="MyQuoteRequestUpdateAction.svg" xlink:actuate="onRequest" xlink:href="MyQuoteRequestUpdateAction.svg" xlink:show="new" xlink:title="MyQuoteRequestUpdateAction.svg" xlink:type="simple"><text fill="#0000FF" font-family="sans-serif" font-size="14" lengthAdjust="spacing" text-decoration="underline" textLength="261" x="404" y="188.7217">List&lt;MyQuoteRequestUpdateAction&gt;</text></a></g></a><line style="stroke:#0000FF;stroke-width:1.0;" x1="197" x2="197" y1="68.2969" y2="123.4297"/><polygon fill="#0000FF" points="197,123.4297,201,114.4297,197,118.4297,193,114.4297,197,123.4297" style="stroke:#0000FF;stroke-width:1.0;"/><text fill="#000000" font-family="sans-serif" font-size="13" lengthAdjust="spacing" textLength="183" x="12" y="100.3638">action : cancelQuoteRequest</text><line style="stroke:#008000;stroke-width:1.0;" x1="279.3333" x2="279.3333" y1="68.2969" y2="78.2969"/><line style="stroke:#008000;stroke-width:1.0;" x1="279.3333" x2="505" y1="78.2969" y2="78.2969"/><line style="stroke:#008000;stroke-width:1.0;" x1="505" x2="505" y1="78.2969" y2="123.4297"/><polygon fill="#008000" points="505,123.4297,509,114.4297,505,118.4297,501,114.4297,505,123.4297" style="stroke:#008000;stroke-width:1.0;"/><text fill="#000000" font-family="sans-serif" font-size="13" lengthAdjust="spacing" textLength="46" x="508" y="100.3638">actions</text><rect fill="#DDDDDD" height="79.1875" id="_legend" rx="7.5" ry="7.5" style="stroke:#000000;stroke-width:1.0;" width="161" x="248.5" y="197.0234"/><text fill="#000000" font-family="sans-serif" font-size="14" font-weight="bold" lengthAdjust="spacing" textLength="5" x="253.5" y="217.0186"> </text><text fill="#000000" font-family="sans-serif" font-size="14" font-weight="bold" lengthAdjust="spacing" textLength="28" x="270.5" y="217.0186">line</text><text fill="#000000" filter="url(#bq7phu1myhlt80)" font-family="sans-serif" font-size="14" lengthAdjust="spacing" textLength="12" x="253.5" y="233.3154">   </text><text fill="#000000" font-family="sans-serif" font-size="14" lengthAdjust="spacing" textLength="77" x="269.5" y="233.3154">inheritance</text><text fill="#000000" filter="url(#bq7phu1myhlt81)" font-family="sans-serif" font-size="14" lengthAdjust="spacing" textLength="12" x="253.5" y="249.6123">   </text><text fill="#000000" font-family="sans-serif" font-size="14" lengthAdjust="spacing" textLength="129" x="269.5" y="249.6123">property reference</text><text fill="#000000" filter="url(#bq7phu1myhlt82)" font-family="sans-serif" font-size="14" lengthAdjust="spacing" textLength="12" x="253.5" y="265.9092">   </text><text fill="#000000" font-family="sans-serif" font-size="14" lengthAdjust="spacing" textLength="131" x="269.5" y="265.9092">discriminated class</text><line style="stroke:#000000;stroke-width:1.0;" x1="253.5" x2="404.5" y1="204.0234" y2="204.0234"/><line style="stroke:#000000;stroke-width:1.0;" x1="253.5" x2="404.5" y1="220.3203" y2="220.3203"/><line style="stroke:#000000;stroke-width:1.0;" x1="253.5" x2="404.5" y1="236.6172" y2="236.6172"/><line style="stroke:#000000;stroke-width:1.0;" x1="253.5" x2="404.5" y1="252.9141" y2="252.9141"/><line style="stroke:#000000;stroke-width:1.0;" x1="253.5" x2="404.5" y1="269.2109" y2="269.2109"/><line style="stroke:#000000;stroke-width:1.0;" x1="253.5" x2="253.5" y1="204.0234" y2="269.2109"/><line style="stroke:#000000;stroke-width:1.0;" x1="265.5" x2="265.5" y1="204.0234" y2="269.2109"/><line style="stroke:#000000;stroke-width:1.0;" x1="404.5" x2="404.5" y1="204.0234" y2="269.2109"/><!--MD5=[d4d42c2de55e7d23e06e7f0e1fd7030a]
@startuml
!pragma layout elk
hide empty fields
hide empty methods
legend
|= |= line |
|<back:black>   </back>| inheritance |
|<back:green>   </back>| property reference |
|<back:blue>   </back>| discriminated class |
endlegend
interface MyQuoteRequestUpdateAction [[MyQuoteRequestUpdateAction.svg]]  {
    action: String
}


interface MyQuoteRequestCancelAction [[MyQuoteRequestCancelAction.svg]]  {
    action: String
}
interface MyQuoteRequestUpdate [[MyQuoteRequestUpdate.svg]]  {
    version: Long
    actions: [[MyQuoteRequestUpdateAction.svg List<MyQuoteRequestUpdateAction>]]
}
MyQuoteRequestUpdateAction - -> MyQuoteRequestCancelAction #blue;text:blue : "action : cancelQuoteRequest"
MyQuoteRequestUpdateAction - -> MyQuoteRequestUpdate #green;text:green : "actions"
@enduml

PlantUML version 1.2022.13(Sat Nov 19 13:22:17 UTC 2022)
(GPL source distribution)
Java Runtime: OpenJDK Runtime Environment
JVM: OpenJDK 64-Bit Server VM
Default Encoding: UTF-8
Language: en
Country: null
--></g></svg>
