<?xml version="1.0" encoding="UTF-8" standalone="no"?><svg xmlns="http://www.w3.org/2000/svg" xmlns:xlink="http://www.w3.org/1999/xlink" contentStyleType="text/css" height="219px" preserveAspectRatio="none" style="width:326px;height:219px;background:#FFFFFF;" version="1.1" viewBox="0 0 326 219" width="326px" zoomAndPan="magnify"><defs/><g><!--MD5=[99cdfc66d238d4c33b757e8e70f6df69]
class OrderSearchStatus--><g id="elem_OrderSearchStatus"><rect codeLine="3" fill="#F1F1F1" height="72.5938" id="OrderSearchStatus" rx="2.5" ry="2.5" style="stroke:#181818;stroke-width:0.5;" width="163" x="84" y="12"/><ellipse cx="99" cy="28" fill="#EB937F" rx="11" ry="11" style="stroke:#181818;stroke-width:1.0;"/><path d="M103.1094,34 L95.3906,34 L95.3906,21.6094 L103.1094,21.6094 L103.1094,23.7656 L97.8438,23.7656 L97.8438,26.4375 L102.6094,26.4375 L102.6094,28.5938 L97.8438,28.5938 L97.8438,31.8438 L103.1094,31.8438 L103.1094,34 Z " fill="#000000"/><text fill="#000000" font-family="sans-serif" font-size="14" lengthAdjust="spacing" textLength="131" x="113" y="32.8467">OrderSearchStatus</text><line style="stroke:#181818;stroke-width:0.5;" x1="85" x2="246" y1="44" y2="44"/><text fill="#000000" font-family="sans-serif" font-size="14" lengthAdjust="spacing" textLength="78" x="90" y="60.9951">ACTIVATED</text><text fill="#000000" font-family="sans-serif" font-size="14" lengthAdjust="spacing" textLength="98" x="90" y="77.292">DEACTIVATED</text></g><!--MD5=[ec15b4b9185125589f59b7719fe4adbc]
class ProjectChangeOrderSearchStatusAction--><a href="ProjectChangeOrderSearchStatusAction.svg" target="_top" title="ProjectChangeOrderSearchStatusAction.svg" xlink:actuate="onRequest" xlink:href="ProjectChangeOrderSearchStatusAction.svg" xlink:show="new" xlink:title="ProjectChangeOrderSearchStatusAction.svg" xlink:type="simple"><g id="elem_ProjectChangeOrderSearchStatusAction"><rect codeLine="7" fill="#F1F1F1" height="72.5938" id="ProjectChangeOrderSearchStatusAction" rx="2.5" ry="2.5" style="stroke:#181818;stroke-width:0.5;" width="307" x="12" y="139.7266"/><ellipse cx="27" cy="155.7266" fill="#B4A7E5" rx="11" ry="11" style="stroke:#181818;stroke-width:1.0;"/><path d="M22.9219,151.4922 L22.9219,149.3359 L30.3125,149.3359 L30.3125,151.4922 L27.8438,151.4922 L27.8438,159.5703 L30.3125,159.5703 L30.3125,161.7266 L22.9219,161.7266 L22.9219,159.5703 L25.3906,159.5703 L25.3906,151.4922 L22.9219,151.4922 Z " fill="#000000"/><text fill="#000000" font-family="sans-serif" font-size="14" font-style="italic" lengthAdjust="spacing" textLength="275" x="41" y="160.5732">ProjectChangeOrderSearchStatusAction</text><line style="stroke:#181818;stroke-width:0.5;" x1="13" x2="318" y1="171.7266" y2="171.7266"/><text fill="#000000" font-family="sans-serif" font-size="14" lengthAdjust="spacing" textLength="91" x="18" y="188.7217">action: String</text><text fill="#000000" font-family="sans-serif" font-size="14" lengthAdjust="spacing" textLength="48" x="18" y="205.0186">status:</text><a href="OrderSearchStatus.svg" target="_top" title="OrderSearchStatus.svg" xlink:actuate="onRequest" xlink:href="OrderSearchStatus.svg" xlink:show="new" xlink:title="OrderSearchStatus.svg" xlink:type="simple"><text fill="#0000FF" font-family="sans-serif" font-size="14" lengthAdjust="spacing" text-decoration="underline" textLength="131" x="70" y="205.0186">OrderSearchStatus</text></a></g></a><line style="stroke:#008000;stroke-width:1.0;" x1="165.5" x2="165.5" y1="84.5938" y2="139.7266"/><polygon fill="#008000" points="165.5,139.7266,169.5,130.7266,165.5,134.7266,161.5,130.7266,165.5,139.7266" style="stroke:#008000;stroke-width:1.0;"/><text fill="#000000" font-family="sans-serif" font-size="13" lengthAdjust="spacing" textLength="40" x="123.5" y="116.6606">status</text><!--MD5=[3241f850cca59a0cd7ab53c7dbdc29e9]
@startuml
!pragma layout elk
hide methods
enum OrderSearchStatus {
    ACTIVATED
    DEACTIVATED
}
interface ProjectChangeOrderSearchStatusAction [[ProjectChangeOrderSearchStatusAction.svg]]  {
    action: String
    status: [[OrderSearchStatus.svg OrderSearchStatus]]
}
OrderSearchStatus - -> ProjectChangeOrderSearchStatusAction #green;text:green : "status"
@enduml

PlantUML version 1.2022.13(Sat Nov 19 13:22:17 UTC 2022)
(GPL source distribution)
Java Runtime: OpenJDK Runtime Environment
JVM: OpenJDK 64-Bit Server VM
Default Encoding: UTF-8
Language: en
Country: null
--></g></svg>
