<?xml version="1.0" encoding="UTF-8" standalone="no"?><svg xmlns="http://www.w3.org/2000/svg" xmlns:xlink="http://www.w3.org/1999/xlink" contentStyleType="text/css" height="372px" preserveAspectRatio="none" style="width:2006px;height:372px;background:#FFFFFF;" version="1.1" viewBox="0 0 2006 372" width="2006px" zoomAndPan="magnify"><defs><filter height="1" id="b1m117pcjm4jk80" width="1" x="0" y="0"><feFlood flood-color="#000000" result="flood"/><feComposite in="SourceGraphic" in2="flood" operator="over"/></filter><filter height="1" id="b1m117pcjm4jk81" width="1" x="0" y="0"><feFlood flood-color="#008000" result="flood"/><feComposite in="SourceGraphic" in2="flood" operator="over"/></filter><filter height="1" id="b1m117pcjm4jk82" width="1" x="0" y="0"><feFlood flood-color="#0000FF" result="flood"/><feComposite in="SourceGraphic" in2="flood" operator="over"/></filter></defs><g><!--MD5=[691f82a744c56f0ec2abba241d1d27c5]
class OrderEditUpdateAction--><a href="OrderEditUpdateAction.svg" target="_top" title="OrderEditUpdateAction.svg" xlink:actuate="onRequest" xlink:href="OrderEditUpdateAction.svg" xlink:show="new" xlink:title="OrderEditUpdateAction.svg" xlink:type="simple"><g id="elem_OrderEditUpdateAction"><rect codeLine="10" fill="#F1F1F1" height="56.2969" id="OrderEditUpdateAction" rx="2.5" ry="2.5" style="stroke:#181818;stroke-width:0.5;" width="191" x="142.7778" y="12"/><ellipse cx="157.7778" cy="28" fill="#B4A7E5" rx="11" ry="11" style="stroke:#181818;stroke-width:1.0;"/><path d="M153.6997,23.7656 L153.6997,21.6094 L161.0903,21.6094 L161.0903,23.7656 L158.6215,23.7656 L158.6215,31.8438 L161.0903,31.8438 L161.0903,34 L153.6997,34 L153.6997,31.8438 L156.1684,31.8438 L156.1684,23.7656 L153.6997,23.7656 Z " fill="#000000"/><text fill="#000000" font-family="sans-serif" font-size="14" font-style="italic" lengthAdjust="spacing" textLength="159" x="171.7778" y="32.8467">OrderEditUpdateAction</text><line style="stroke:#181818;stroke-width:0.5;" x1="143.7778" x2="332.7778" y1="44" y2="44"/><text fill="#000000" font-family="sans-serif" font-size="14" lengthAdjust="spacing" textLength="91" x="148.7778" y="60.9951">action: String</text></g></a><!--MD5=[ff6d786f38e4f5504f93210f8c525e8c]
class OrderEditAddStagedActionAction--><a href="OrderEditAddStagedActionAction.svg" target="_top" title="OrderEditAddStagedActionAction.svg" xlink:actuate="onRequest" xlink:href="OrderEditAddStagedActionAction.svg" xlink:show="new" xlink:title="OrderEditAddStagedActionAction.svg" xlink:type="simple"><g id="elem_OrderEditAddStagedActionAction"><rect codeLine="15" fill="#F1F1F1" height="72.5938" id="OrderEditAddStagedActionAction" rx="2.5" ry="2.5" style="stroke:#181818;stroke-width:0.5;" width="293" x="1454.5" y="183.4297"/><ellipse cx="1483.45" cy="199.4297" fill="#B4A7E5" rx="11" ry="11" style="stroke:#181818;stroke-width:1.0;"/><path d="M1479.3719,195.1953 L1479.3719,193.0391 L1486.7625,193.0391 L1486.7625,195.1953 L1484.2938,195.1953 L1484.2938,203.2734 L1486.7625,203.2734 L1486.7625,205.4297 L1479.3719,205.4297 L1479.3719,203.2734 L1481.8406,203.2734 L1481.8406,195.1953 L1479.3719,195.1953 Z " fill="#000000"/><text fill="#000000" font-family="sans-serif" font-size="14" font-style="italic" lengthAdjust="spacing" textLength="230" x="1500.55" y="204.2764">OrderEditAddStagedActionAction</text><line style="stroke:#181818;stroke-width:0.5;" x1="1455.5" x2="1746.5" y1="215.4297" y2="215.4297"/><text fill="#000000" font-family="sans-serif" font-size="14" lengthAdjust="spacing" textLength="91" x="1460.5" y="232.4248">action: String</text><text fill="#000000" font-family="sans-serif" font-size="14" lengthAdjust="spacing" textLength="96" x="1460.5" y="248.7217">stagedAction:</text><a href="StagedOrderUpdateAction.svg" target="_top" title="StagedOrderUpdateAction.svg" xlink:actuate="onRequest" xlink:href="StagedOrderUpdateAction.svg" xlink:show="new" xlink:title="StagedOrderUpdateAction.svg" xlink:type="simple"><text fill="#0000FF" font-family="sans-serif" font-size="14" lengthAdjust="spacing" text-decoration="underline" textLength="181" x="1560.5" y="248.7217">StagedOrderUpdateAction</text></a></g></a><!--MD5=[bdfc1b9fe879bd6a6479fbc7c69bf15c]
class OrderEditSetCommentAction--><a href="OrderEditSetCommentAction.svg" target="_top" title="OrderEditSetCommentAction.svg" xlink:actuate="onRequest" xlink:href="OrderEditSetCommentAction.svg" xlink:show="new" xlink:title="OrderEditSetCommentAction.svg" xlink:type="simple"><g id="elem_OrderEditSetCommentAction"><rect codeLine="19" fill="#F1F1F1" height="72.5938" id="OrderEditSetCommentAction" rx="2.5" ry="2.5" style="stroke:#181818;stroke-width:0.5;" width="232" x="1767.5" y="183.4297"/><ellipse cx="1782.5" cy="199.4297" fill="#B4A7E5" rx="11" ry="11" style="stroke:#181818;stroke-width:1.0;"/><path d="M1778.4219,195.1953 L1778.4219,193.0391 L1785.8125,193.0391 L1785.8125,195.1953 L1783.3438,195.1953 L1783.3438,203.2734 L1785.8125,203.2734 L1785.8125,205.4297 L1778.4219,205.4297 L1778.4219,203.2734 L1780.8906,203.2734 L1780.8906,195.1953 L1778.4219,195.1953 Z " fill="#000000"/><text fill="#000000" font-family="sans-serif" font-size="14" font-style="italic" lengthAdjust="spacing" textLength="200" x="1796.5" y="204.2764">OrderEditSetCommentAction</text><line style="stroke:#181818;stroke-width:0.5;" x1="1768.5" x2="1998.5" y1="215.4297" y2="215.4297"/><text fill="#000000" font-family="sans-serif" font-size="14" lengthAdjust="spacing" textLength="91" x="1773.5" y="232.4248">action: String</text><text fill="#000000" font-family="sans-serif" font-size="14" lengthAdjust="spacing" textLength="115" x="1773.5" y="248.7217">comment: String</text></g></a><!--MD5=[16088f6865396125f87e2359fc7adb6a]
class OrderEditSetCustomFieldAction--><a href="OrderEditSetCustomFieldAction.svg" target="_top" title="OrderEditSetCustomFieldAction.svg" xlink:actuate="onRequest" xlink:href="OrderEditSetCustomFieldAction.svg" xlink:show="new" xlink:title="OrderEditSetCustomFieldAction.svg" xlink:type="simple"><g id="elem_OrderEditSetCustomFieldAction"><rect codeLine="23" fill="#F1F1F1" height="88.8906" id="OrderEditSetCustomFieldAction" rx="2.5" ry="2.5" style="stroke:#181818;stroke-width:0.5;" width="249" x="39.5" y="183.4297"/><ellipse cx="54.5" cy="199.4297" fill="#B4A7E5" rx="11" ry="11" style="stroke:#181818;stroke-width:1.0;"/><path d="M50.4219,195.1953 L50.4219,193.0391 L57.8125,193.0391 L57.8125,195.1953 L55.3438,195.1953 L55.3438,203.2734 L57.8125,203.2734 L57.8125,205.4297 L50.4219,205.4297 L50.4219,203.2734 L52.8906,203.2734 L52.8906,195.1953 L50.4219,195.1953 Z " fill="#000000"/><text fill="#000000" font-family="sans-serif" font-size="14" font-style="italic" lengthAdjust="spacing" textLength="217" x="68.5" y="204.2764">OrderEditSetCustomFieldAction</text><line style="stroke:#181818;stroke-width:0.5;" x1="40.5" x2="287.5" y1="215.4297" y2="215.4297"/><text fill="#000000" font-family="sans-serif" font-size="14" lengthAdjust="spacing" textLength="91" x="45.5" y="232.4248">action: String</text><text fill="#000000" font-family="sans-serif" font-size="14" lengthAdjust="spacing" textLength="88" x="45.5" y="248.7217">name: String</text><text fill="#000000" font-family="sans-serif" font-size="14" lengthAdjust="spacing" textLength="41" x="45.5" y="265.0186">value:</text><a href="Object.svg" target="_top" title="Object.svg" xlink:actuate="onRequest" xlink:href="Object.svg" xlink:show="new" xlink:title="Object.svg" xlink:type="simple"><text fill="#0000FF" font-family="sans-serif" font-size="14" lengthAdjust="spacing" text-decoration="underline" textLength="45" x="90.5" y="265.0186">Object</text></a></g></a><!--MD5=[20974228ce59559c765d8fb2abaab5aa]
class OrderEditSetCustomTypeAction--><a href="OrderEditSetCustomTypeAction.svg" target="_top" title="OrderEditSetCustomTypeAction.svg" xlink:actuate="onRequest" xlink:href="OrderEditSetCustomTypeAction.svg" xlink:show="new" xlink:title="OrderEditSetCustomTypeAction.svg" xlink:type="simple"><g id="elem_OrderEditSetCustomTypeAction"><rect codeLine="28" fill="#F1F1F1" height="88.8906" id="OrderEditSetCustomTypeAction" rx="2.5" ry="2.5" style="stroke:#181818;stroke-width:0.5;" width="252" x="308.5" y="183.4297"/><ellipse cx="323.5" cy="199.4297" fill="#B4A7E5" rx="11" ry="11" style="stroke:#181818;stroke-width:1.0;"/><path d="M319.4219,195.1953 L319.4219,193.0391 L326.8125,193.0391 L326.8125,195.1953 L324.3438,195.1953 L324.3438,203.2734 L326.8125,203.2734 L326.8125,205.4297 L319.4219,205.4297 L319.4219,203.2734 L321.8906,203.2734 L321.8906,195.1953 L319.4219,195.1953 Z " fill="#000000"/><text fill="#000000" font-family="sans-serif" font-size="14" font-style="italic" lengthAdjust="spacing" textLength="220" x="337.5" y="204.2764">OrderEditSetCustomTypeAction</text><line style="stroke:#181818;stroke-width:0.5;" x1="309.5" x2="559.5" y1="215.4297" y2="215.4297"/><text fill="#000000" font-family="sans-serif" font-size="14" lengthAdjust="spacing" textLength="91" x="314.5" y="232.4248">action: String</text><text fill="#000000" font-family="sans-serif" font-size="14" lengthAdjust="spacing" textLength="35" x="314.5" y="248.7217">type:</text><a href="TypeResourceIdentifier.svg" target="_top" title="TypeResourceIdentifier.svg" xlink:actuate="onRequest" xlink:href="TypeResourceIdentifier.svg" xlink:show="new" xlink:title="TypeResourceIdentifier.svg" xlink:type="simple"><text fill="#0000FF" font-family="sans-serif" font-size="14" lengthAdjust="spacing" text-decoration="underline" textLength="160" x="353.5" y="248.7217">TypeResourceIdentifier</text></a><text fill="#000000" font-family="sans-serif" font-size="14" lengthAdjust="spacing" textLength="41" x="314.5" y="265.0186">fields:</text><a href="FieldContainer.svg" target="_top" title="FieldContainer.svg" xlink:actuate="onRequest" xlink:href="FieldContainer.svg" xlink:show="new" xlink:title="FieldContainer.svg" xlink:type="simple"><text fill="#0000FF" font-family="sans-serif" font-size="14" lengthAdjust="spacing" text-decoration="underline" textLength="99" x="359.5" y="265.0186">FieldContainer</text></a></g></a><!--MD5=[4424b06928038e79c2b51fd504ab8661]
class OrderEditSetKeyAction--><a href="OrderEditSetKeyAction.svg" target="_top" title="OrderEditSetKeyAction.svg" xlink:actuate="onRequest" xlink:href="OrderEditSetKeyAction.svg" xlink:show="new" xlink:title="OrderEditSetKeyAction.svg" xlink:type="simple"><g id="elem_OrderEditSetKeyAction"><rect codeLine="33" fill="#F1F1F1" height="72.5938" id="OrderEditSetKeyAction" rx="2.5" ry="2.5" style="stroke:#181818;stroke-width:0.5;" width="190" x="876.5" y="183.4297"/><ellipse cx="891.5" cy="199.4297" fill="#B4A7E5" rx="11" ry="11" style="stroke:#181818;stroke-width:1.0;"/><path d="M887.4219,195.1953 L887.4219,193.0391 L894.8125,193.0391 L894.8125,195.1953 L892.3438,195.1953 L892.3438,203.2734 L894.8125,203.2734 L894.8125,205.4297 L887.4219,205.4297 L887.4219,203.2734 L889.8906,203.2734 L889.8906,195.1953 L887.4219,195.1953 Z " fill="#000000"/><text fill="#000000" font-family="sans-serif" font-size="14" font-style="italic" lengthAdjust="spacing" textLength="158" x="905.5" y="204.2764">OrderEditSetKeyAction</text><line style="stroke:#181818;stroke-width:0.5;" x1="877.5" x2="1065.5" y1="215.4297" y2="215.4297"/><text fill="#000000" font-family="sans-serif" font-size="14" lengthAdjust="spacing" textLength="91" x="882.5" y="232.4248">action: String</text><text fill="#000000" font-family="sans-serif" font-size="14" lengthAdjust="spacing" textLength="73" x="882.5" y="248.7217">key: String</text></g></a><!--MD5=[30e092fb8580ec712b1442f56c5fdc39]
class OrderEditSetStagedActionsAction--><a href="OrderEditSetStagedActionsAction.svg" target="_top" title="OrderEditSetStagedActionsAction.svg" xlink:actuate="onRequest" xlink:href="OrderEditSetStagedActionsAction.svg" xlink:show="new" xlink:title="OrderEditSetStagedActionsAction.svg" xlink:type="simple"><g id="elem_OrderEditSetStagedActionsAction"><rect codeLine="37" fill="#F1F1F1" height="72.5938" id="OrderEditSetStagedActionsAction" rx="2.5" ry="2.5" style="stroke:#181818;stroke-width:0.5;" width="348" x="1086.5" y="183.4297"/><ellipse cx="1140.25" cy="199.4297" fill="#B4A7E5" rx="11" ry="11" style="stroke:#181818;stroke-width:1.0;"/><path d="M1136.1719,195.1953 L1136.1719,193.0391 L1143.5625,193.0391 L1143.5625,195.1953 L1141.0938,195.1953 L1141.0938,203.2734 L1143.5625,203.2734 L1143.5625,205.4297 L1136.1719,205.4297 L1136.1719,203.2734 L1138.6406,203.2734 L1138.6406,195.1953 L1136.1719,195.1953 Z " fill="#000000"/><text fill="#000000" font-family="sans-serif" font-size="14" font-style="italic" lengthAdjust="spacing" textLength="232" x="1160.75" y="204.2764">OrderEditSetStagedActionsAction</text><line style="stroke:#181818;stroke-width:0.5;" x1="1087.5" x2="1433.5" y1="215.4297" y2="215.4297"/><text fill="#000000" font-family="sans-serif" font-size="14" lengthAdjust="spacing" textLength="91" x="1092.5" y="232.4248">action: String</text><text fill="#000000" font-family="sans-serif" font-size="14" lengthAdjust="spacing" textLength="104" x="1092.5" y="248.7217">stagedActions:</text><a href="StagedOrderUpdateAction.svg" target="_top" title="StagedOrderUpdateAction.svg" xlink:actuate="onRequest" xlink:href="StagedOrderUpdateAction.svg" xlink:show="new" xlink:title="StagedOrderUpdateAction.svg" xlink:type="simple"><text fill="#0000FF" font-family="sans-serif" font-size="14" lengthAdjust="spacing" text-decoration="underline" textLength="228" x="1200.5" y="248.7217">List&lt;StagedOrderUpdateAction&gt;</text></a></g></a><!--MD5=[2fb61d442ef48c5469efbbd65083fc33]
class OrderEditUpdate--><a href="OrderEditUpdate.svg" target="_top" title="OrderEditUpdate.svg" xlink:actuate="onRequest" xlink:href="OrderEditUpdate.svg" xlink:show="new" xlink:title="OrderEditUpdate.svg" xlink:type="simple"><g id="elem_OrderEditUpdate"><rect codeLine="41" fill="#F1F1F1" height="88.8906" id="OrderEditUpdate" rx="2.5" ry="2.5" style="stroke:#181818;stroke-width:0.5;" width="276" x="580.5" y="183.4297"/><ellipse cx="656.75" cy="199.4297" fill="#B4A7E5" rx="11" ry="11" style="stroke:#181818;stroke-width:1.0;"/><path d="M652.6719,195.1953 L652.6719,193.0391 L660.0625,193.0391 L660.0625,195.1953 L657.5938,195.1953 L657.5938,203.2734 L660.0625,203.2734 L660.0625,205.4297 L652.6719,205.4297 L652.6719,203.2734 L655.1406,203.2734 L655.1406,195.1953 L652.6719,195.1953 Z " fill="#000000"/><text fill="#000000" font-family="sans-serif" font-size="14" font-style="italic" lengthAdjust="spacing" textLength="115" x="677.25" y="204.2764">OrderEditUpdate</text><line style="stroke:#181818;stroke-width:0.5;" x1="581.5" x2="855.5" y1="215.4297" y2="215.4297"/><text fill="#000000" font-family="sans-serif" font-size="14" lengthAdjust="spacing" textLength="93" x="586.5" y="232.4248">version: Long</text><text fill="#000000" font-family="sans-serif" font-size="14" lengthAdjust="spacing" textLength="55" x="586.5" y="248.7217">actions:</text><a href="OrderEditUpdateAction.svg" target="_top" title="OrderEditUpdateAction.svg" xlink:actuate="onRequest" xlink:href="OrderEditUpdateAction.svg" xlink:show="new" xlink:title="OrderEditUpdateAction.svg" xlink:type="simple"><text fill="#0000FF" font-family="sans-serif" font-size="14" lengthAdjust="spacing" text-decoration="underline" textLength="205" x="645.5" y="248.7217">List&lt;OrderEditUpdateAction&gt;</text></a><text fill="#000000" font-family="sans-serif" font-size="14" lengthAdjust="spacing" textLength="115" x="586.5" y="265.0186">dryRun: Boolean</text></g></a><line style="stroke:#0000FF;stroke-width:1.0;" x1="291.3333" x2="291.3333" y1="68.2969" y2="88.2969"/><line style="stroke:#0000FF;stroke-width:1.0;" x1="291.3333" x2="1601" y1="88.2969" y2="88.2969"/><line style="stroke:#0000FF;stroke-width:1.0;" x1="1601" x2="1601" y1="88.2969" y2="183.4297"/><polygon fill="#0000FF" points="1601,183.4297,1605,174.4297,1601,178.4297,1597,174.4297,1601,183.4297" style="stroke:#0000FF;stroke-width:1.0;"/><text fill="#000000" font-family="sans-serif" font-size="13" lengthAdjust="spacing" textLength="161" x="1438" y="160.3638">action : addStagedAction</text><line style="stroke:#0000FF;stroke-width:1.0;" x1="312.5556" x2="312.5556" y1="68.2969" y2="78.2969"/><line style="stroke:#0000FF;stroke-width:1.0;" x1="312.5556" x2="1883.5" y1="78.2969" y2="78.2969"/><line style="stroke:#0000FF;stroke-width:1.0;" x1="1883.5" x2="1883.5" y1="78.2969" y2="183.4297"/><polygon fill="#0000FF" points="1883.5,183.4297,1887.5,174.4297,1883.5,178.4297,1879.5,174.4297,1883.5,183.4297" style="stroke:#0000FF;stroke-width:1.0;"/><text fill="#000000" font-family="sans-serif" font-size="13" lengthAdjust="spacing" textLength="135" x="1746.5" y="160.3638">action : setComment</text><line style="stroke:#0000FF;stroke-width:1.0;" x1="164" x2="164" y1="68.2969" y2="183.4297"/><polygon fill="#0000FF" points="164,183.4297,168,174.4297,164,178.4297,160,174.4297,164,183.4297" style="stroke:#0000FF;stroke-width:1.0;"/><text fill="#000000" font-family="sans-serif" font-size="13" lengthAdjust="spacing" textLength="150" x="12" y="160.3638">action : setCustomField</text><line style="stroke:#0000FF;stroke-width:1.0;" x1="185.2222" x2="185.2222" y1="68.2969" y2="138.2969"/><line style="stroke:#0000FF;stroke-width:1.0;" x1="185.2222" x2="434.5" y1="138.2969" y2="138.2969"/><line style="stroke:#0000FF;stroke-width:1.0;" x1="434.5" x2="434.5" y1="138.2969" y2="183.4297"/><polygon fill="#0000FF" points="434.5,183.4297,438.5,174.4297,434.5,178.4297,430.5,174.4297,434.5,183.4297" style="stroke:#0000FF;stroke-width:1.0;"/><text fill="#000000" font-family="sans-serif" font-size="13" lengthAdjust="spacing" textLength="151" x="281.5" y="160.3638">action : setCustomType</text><line style="stroke:#0000FF;stroke-width:1.0;" x1="248.8889" x2="248.8889" y1="68.2969" y2="108.2969"/><line style="stroke:#0000FF;stroke-width:1.0;" x1="248.8889" x2="971.5" y1="108.2969" y2="108.2969"/><line style="stroke:#0000FF;stroke-width:1.0;" x1="971.5" x2="971.5" y1="108.2969" y2="183.4297"/><polygon fill="#0000FF" points="971.5,183.4297,975.5,174.4297,971.5,178.4297,967.5,174.4297,971.5,183.4297" style="stroke:#0000FF;stroke-width:1.0;"/><text fill="#000000" font-family="sans-serif" font-size="13" lengthAdjust="spacing" textLength="94" x="875.5" y="160.3638">action : setKey</text><line style="stroke:#0000FF;stroke-width:1.0;" x1="270.1111" x2="270.1111" y1="68.2969" y2="98.2969"/><line style="stroke:#0000FF;stroke-width:1.0;" x1="270.1111" x2="1260.5" y1="98.2969" y2="98.2969"/><line style="stroke:#0000FF;stroke-width:1.0;" x1="1260.5" x2="1260.5" y1="98.2969" y2="183.4297"/><polygon fill="#0000FF" points="1260.5,183.4297,1264.5,174.4297,1260.5,178.4297,1256.5,174.4297,1260.5,183.4297" style="stroke:#0000FF;stroke-width:1.0;"/><text fill="#000000" font-family="sans-serif" font-size="13" lengthAdjust="spacing" textLength="164" x="1094.5" y="160.3638">action : setStagedActions</text><line style="stroke:#008000;stroke-width:1.0;" x1="227.6667" x2="227.6667" y1="68.2969" y2="118.2969"/><line style="stroke:#008000;stroke-width:1.0;" x1="227.6667" x2="683.5" y1="118.2969" y2="118.2969"/><line style="stroke:#008000;stroke-width:1.0;" x1="683.5" x2="683.5" y1="118.2969" y2="173.4297"/><line style="stroke:#008000;stroke-width:1.0;" x1="683.5" x2="764.5" y1="173.4297" y2="173.4297"/><line style="stroke:#008000;stroke-width:1.0;" x1="764.5" x2="764.5" y1="173.4297" y2="183.4297"/><polygon fill="#008000" points="764.5,183.4297,768.5,174.4297,764.5,178.4297,760.5,174.4297,764.5,183.4297" style="stroke:#008000;stroke-width:1.0;"/><text fill="#000000" font-family="sans-serif" font-size="13" lengthAdjust="spacing" textLength="46" x="686.5" y="160.3638">actions</text><line style="stroke:#008000;stroke-width:1.0;" x1="206.4444" x2="206.4444" y1="68.2969" y2="128.2969"/><line style="stroke:#008000;stroke-width:1.0;" x1="206.4444" x2="672.5" y1="128.2969" y2="128.2969"/><line style="stroke:#008000;stroke-width:1.0;" x1="672.5" x2="672.5" y1="128.2969" y2="183.4297"/><polygon fill="#008000" points="672.5,183.4297,676.5,174.4297,672.5,178.4297,668.5,174.4297,672.5,183.4297" style="stroke:#008000;stroke-width:1.0;"/><text fill="#000000" font-family="sans-serif" font-size="13" lengthAdjust="spacing" textLength="46" x="624.5" y="160.3638">actions</text><rect fill="#DDDDDD" height="79.1875" id="_legend" rx="7.5" ry="7.5" style="stroke:#000000;stroke-width:1.0;" width="161" x="912.75" y="273.3203"/><text fill="#000000" font-family="sans-serif" font-size="14" font-weight="bold" lengthAdjust="spacing" textLength="5" x="917.75" y="293.3154"> </text><text fill="#000000" font-family="sans-serif" font-size="14" font-weight="bold" lengthAdjust="spacing" textLength="28" x="934.75" y="293.3154">line</text><text fill="#000000" filter="url(#b1m117pcjm4jk80)" font-family="sans-serif" font-size="14" lengthAdjust="spacing" textLength="12" x="917.75" y="309.6123">   </text><text fill="#000000" font-family="sans-serif" font-size="14" lengthAdjust="spacing" textLength="77" x="933.75" y="309.6123">inheritance</text><text fill="#000000" filter="url(#b1m117pcjm4jk81)" font-family="sans-serif" font-size="14" lengthAdjust="spacing" textLength="12" x="917.75" y="325.9092">   </text><text fill="#000000" font-family="sans-serif" font-size="14" lengthAdjust="spacing" textLength="129" x="933.75" y="325.9092">property reference</text><text fill="#000000" filter="url(#b1m117pcjm4jk82)" font-family="sans-serif" font-size="14" lengthAdjust="spacing" textLength="12" x="917.75" y="342.2061">   </text><text fill="#000000" font-family="sans-serif" font-size="14" lengthAdjust="spacing" textLength="131" x="933.75" y="342.2061">discriminated class</text><line style="stroke:#000000;stroke-width:1.0;" x1="917.75" x2="1068.75" y1="280.3203" y2="280.3203"/><line style="stroke:#000000;stroke-width:1.0;" x1="917.75" x2="1068.75" y1="296.6172" y2="296.6172"/><line style="stroke:#000000;stroke-width:1.0;" x1="917.75" x2="1068.75" y1="312.9141" y2="312.9141"/><line style="stroke:#000000;stroke-width:1.0;" x1="917.75" x2="1068.75" y1="329.2109" y2="329.2109"/><line style="stroke:#000000;stroke-width:1.0;" x1="917.75" x2="1068.75" y1="345.5078" y2="345.5078"/><line style="stroke:#000000;stroke-width:1.0;" x1="917.75" x2="917.75" y1="280.3203" y2="345.5078"/><line style="stroke:#000000;stroke-width:1.0;" x1="929.75" x2="929.75" y1="280.3203" y2="345.5078"/><line style="stroke:#000000;stroke-width:1.0;" x1="1068.75" x2="1068.75" y1="280.3203" y2="345.5078"/><!--MD5=[47b19bf60be60077070bd25c4b0ffe0e]
@startuml
!pragma layout elk
hide empty fields
hide empty methods
legend
|= |= line |
|<back:black>   </back>| inheritance |
|<back:green>   </back>| property reference |
|<back:blue>   </back>| discriminated class |
endlegend
interface OrderEditUpdateAction [[OrderEditUpdateAction.svg]]  {
    action: String
}


interface OrderEditAddStagedActionAction [[OrderEditAddStagedActionAction.svg]]  {
    action: String
    stagedAction: [[StagedOrderUpdateAction.svg StagedOrderUpdateAction]]
}
interface OrderEditSetCommentAction [[OrderEditSetCommentAction.svg]]  {
    action: String
    comment: String
}
interface OrderEditSetCustomFieldAction [[OrderEditSetCustomFieldAction.svg]]  {
    action: String
    name: String
    value: [[Object.svg Object]]
}
interface OrderEditSetCustomTypeAction [[OrderEditSetCustomTypeAction.svg]]  {
    action: String
    type: [[TypeResourceIdentifier.svg TypeResourceIdentifier]]
    fields: [[FieldContainer.svg FieldContainer]]
}
interface OrderEditSetKeyAction [[OrderEditSetKeyAction.svg]]  {
    action: String
    key: String
}
interface OrderEditSetStagedActionsAction [[OrderEditSetStagedActionsAction.svg]]  {
    action: String
    stagedActions: [[StagedOrderUpdateAction.svg List<StagedOrderUpdateAction>]]
}
interface OrderEditUpdate [[OrderEditUpdate.svg]]  {
    version: Long
    actions: [[OrderEditUpdateAction.svg List<OrderEditUpdateAction>]]
    dryRun: Boolean
}
OrderEditUpdateAction - -> OrderEditAddStagedActionAction #blue;text:blue : "action : addStagedAction"
OrderEditUpdateAction - -> OrderEditSetCommentAction #blue;text:blue : "action : setComment"
OrderEditUpdateAction - -> OrderEditSetCustomFieldAction #blue;text:blue : "action : setCustomField"
OrderEditUpdateAction - -> OrderEditSetCustomTypeAction #blue;text:blue : "action : setCustomType"
OrderEditUpdateAction - -> OrderEditSetKeyAction #blue;text:blue : "action : setKey"
OrderEditUpdateAction - -> OrderEditSetStagedActionsAction #blue;text:blue : "action : setStagedActions"
OrderEditUpdateAction - -> OrderEditUpdate #green;text:green : "actions"
OrderEditUpdateAction - -> OrderEditUpdate #green;text:green : "actions"
@enduml

PlantUML version 1.2022.13(Sat Nov 19 13:22:17 UTC 2022)
(GPL source distribution)
Java Runtime: OpenJDK Runtime Environment
JVM: OpenJDK 64-Bit Server VM
Default Encoding: UTF-8
Language: en
Country: null
--></g></svg>
