<?xml version="1.0" encoding="UTF-8" standalone="no"?><svg xmlns="http://www.w3.org/2000/svg" xmlns:xlink="http://www.w3.org/1999/xlink" contentStyleType="text/css" height="292px" preserveAspectRatio="none" style="width:1031px;height:292px;background:#FFFFFF;" version="1.1" viewBox="0 0 1031 292" width="1031px" zoomAndPan="magnify"><defs><filter height="1" id="b135522lukh8ep0" width="1" x="0" y="0"><feFlood flood-color="#000000" result="flood"/><feComposite in="SourceGraphic" in2="flood" operator="over"/></filter><filter height="1" id="b135522lukh8ep1" width="1" x="0" y="0"><feFlood flood-color="#008000" result="flood"/><feComposite in="SourceGraphic" in2="flood" operator="over"/></filter><filter height="1" id="b135522lukh8ep2" width="1" x="0" y="0"><feFlood flood-color="#0000FF" result="flood"/><feComposite in="SourceGraphic" in2="flood" operator="over"/></filter></defs><g><!--MD5=[59d61d00c8617775912debaf12e9c5fb]
class OrderSearchCompoundExpression--><a href="OrderSearchCompoundExpression.svg" target="_top" title="OrderSearchCompoundExpression.svg" xlink:actuate="onRequest" xlink:href="OrderSearchCompoundExpression.svg" xlink:show="new" xlink:title="OrderSearchCompoundExpression.svg" xlink:type="simple"><g id="elem_OrderSearchCompoundExpression"><rect codeLine="10" fill="#F1F1F1" height="32" id="OrderSearchCompoundExpression" rx="2.5" ry="2.5" style="stroke:#181818;stroke-width:0.5;" width="271" x="67.3" y="64"/><ellipse cx="82.3" cy="80" fill="#B4A7E5" rx="11" ry="11" style="stroke:#181818;stroke-width:1.0;"/><path d="M78.2219,75.7656 L78.2219,73.6094 L85.6125,73.6094 L85.6125,75.7656 L83.1438,75.7656 L83.1438,83.8438 L85.6125,83.8438 L85.6125,86 L78.2219,86 L78.2219,83.8438 L80.6906,83.8438 L80.6906,75.7656 L78.2219,75.7656 Z " fill="#000000"/><text fill="#000000" font-family="sans-serif" font-size="14" font-style="italic" lengthAdjust="spacing" textLength="239" x="96.3" y="84.8467">OrderSearchCompoundExpression</text></g></a><!--MD5=[b1fc467efb251bce9fd52820bb16e14c]
class OrderSearchQuery--><a href="OrderSearchQuery.svg" target="_top" title="OrderSearchQuery.svg" xlink:actuate="onRequest" xlink:href="OrderSearchQuery.svg" xlink:show="new" xlink:title="OrderSearchQuery.svg" xlink:type="simple"><g id="elem_OrderSearchQuery"><rect codeLine="12" fill="#F1F1F1" height="32" id="OrderSearchQuery" rx="2.5" ry="2.5" style="stroke:#181818;stroke-width:0.5;" width="161" x="122.3" y="12"/><ellipse cx="137.3" cy="28" fill="#B4A7E5" rx="11" ry="11" style="stroke:#181818;stroke-width:1.0;"/><path d="M133.2219,23.7656 L133.2219,21.6094 L140.6125,21.6094 L140.6125,23.7656 L138.1438,23.7656 L138.1438,31.8438 L140.6125,31.8438 L140.6125,34 L133.2219,34 L133.2219,31.8438 L135.6906,31.8438 L135.6906,23.7656 L133.2219,23.7656 Z " fill="#000000"/><text fill="#000000" font-family="sans-serif" font-size="14" font-style="italic" lengthAdjust="spacing" textLength="129" x="151.3" y="32.8467">OrderSearchQuery</text></g></a><!--MD5=[2c8d170eaac2cd8adcff37d3353c623c]
class OrderSearchAndExpression--><a href="OrderSearchAndExpression.svg" target="_top" title="OrderSearchAndExpression.svg" xlink:actuate="onRequest" xlink:href="OrderSearchAndExpression.svg" xlink:show="new" xlink:title="OrderSearchAndExpression.svg" xlink:type="simple"><g id="elem_OrderSearchAndExpression"><rect codeLine="14" fill="#F1F1F1" height="56.2969" id="OrderSearchAndExpression" rx="2.5" ry="2.5" style="stroke:#181818;stroke-width:0.5;" width="222" x="481" y="136"/><ellipse cx="496" cy="152" fill="#B4A7E5" rx="11" ry="11" style="stroke:#181818;stroke-width:1.0;"/><path d="M491.9219,147.7656 L491.9219,145.6094 L499.3125,145.6094 L499.3125,147.7656 L496.8438,147.7656 L496.8438,155.8438 L499.3125,155.8438 L499.3125,158 L491.9219,158 L491.9219,155.8438 L494.3906,155.8438 L494.3906,147.7656 L491.9219,147.7656 Z " fill="#000000"/><text fill="#000000" font-family="sans-serif" font-size="14" font-style="italic" lengthAdjust="spacing" textLength="190" x="510" y="156.8467">OrderSearchAndExpression</text><line style="stroke:#181818;stroke-width:0.5;" x1="482" x2="702" y1="168" y2="168"/><text fill="#000000" font-family="sans-serif" font-size="14" lengthAdjust="spacing" textLength="31" x="487" y="184.9951">and:</text><a href="OrderSearchQuery.svg" target="_top" title="OrderSearchQuery.svg" xlink:actuate="onRequest" xlink:href="OrderSearchQuery.svg" xlink:show="new" xlink:title="OrderSearchQuery.svg" xlink:type="simple"><text fill="#0000FF" font-family="sans-serif" font-size="14" lengthAdjust="spacing" text-decoration="underline" textLength="175" x="522" y="184.9951">List&lt;OrderSearchQuery&gt;</text></a></g></a><!--MD5=[bc7bc33d31e464064e236f2744147299]
class OrderSearchFilterExpression--><a href="OrderSearchFilterExpression.svg" target="_top" title="OrderSearchFilterExpression.svg" xlink:actuate="onRequest" xlink:href="OrderSearchFilterExpression.svg" xlink:show="new" xlink:title="OrderSearchFilterExpression.svg" xlink:type="simple"><g id="elem_OrderSearchFilterExpression"><rect codeLine="17" fill="#F1F1F1" height="56.2969" id="OrderSearchFilterExpression" rx="2.5" ry="2.5" style="stroke:#181818;stroke-width:0.5;" width="301" x="723" y="136"/><ellipse cx="771.75" cy="152" fill="#B4A7E5" rx="11" ry="11" style="stroke:#181818;stroke-width:1.0;"/><path d="M767.6719,147.7656 L767.6719,145.6094 L775.0625,145.6094 L775.0625,147.7656 L772.5938,147.7656 L772.5938,155.8438 L775.0625,155.8438 L775.0625,158 L767.6719,158 L767.6719,155.8438 L770.1406,155.8438 L770.1406,147.7656 L767.6719,147.7656 Z " fill="#000000"/><text fill="#000000" font-family="sans-serif" font-size="14" font-style="italic" lengthAdjust="spacing" textLength="195" x="792.25" y="156.8467">OrderSearchFilterExpression</text><line style="stroke:#181818;stroke-width:0.5;" x1="724" x2="1023" y1="168" y2="168"/><text fill="#000000" font-family="sans-serif" font-size="14" lengthAdjust="spacing" textLength="34" x="729" y="184.9951">filter:</text><a href="OrderSearchQueryExpression.svg" target="_top" title="OrderSearchQueryExpression.svg" xlink:actuate="onRequest" xlink:href="OrderSearchQueryExpression.svg" xlink:show="new" xlink:title="OrderSearchQueryExpression.svg" xlink:type="simple"><text fill="#0000FF" font-family="sans-serif" font-size="14" lengthAdjust="spacing" text-decoration="underline" textLength="251" x="767" y="184.9951">List&lt;OrderSearchQueryExpression&gt;</text></a></g></a><!--MD5=[d14a015eebba25e6ec9daa6584b147fa]
class OrderSearchNotExpression--><a href="OrderSearchNotExpression.svg" target="_top" title="OrderSearchNotExpression.svg" xlink:actuate="onRequest" xlink:href="OrderSearchNotExpression.svg" xlink:show="new" xlink:title="OrderSearchNotExpression.svg" xlink:type="simple"><g id="elem_OrderSearchNotExpression"><rect codeLine="20" fill="#F1F1F1" height="56.2969" id="OrderSearchNotExpression" rx="2.5" ry="2.5" style="stroke:#181818;stroke-width:0.5;" width="219" x="12" y="136"/><ellipse cx="27" cy="152" fill="#B4A7E5" rx="11" ry="11" style="stroke:#181818;stroke-width:1.0;"/><path d="M22.9219,147.7656 L22.9219,145.6094 L30.3125,145.6094 L30.3125,147.7656 L27.8438,147.7656 L27.8438,155.8438 L30.3125,155.8438 L30.3125,158 L22.9219,158 L22.9219,155.8438 L25.3906,155.8438 L25.3906,147.7656 L22.9219,147.7656 Z " fill="#000000"/><text fill="#000000" font-family="sans-serif" font-size="14" font-style="italic" lengthAdjust="spacing" textLength="187" x="41" y="156.8467">OrderSearchNotExpression</text><line style="stroke:#181818;stroke-width:0.5;" x1="13" x2="230" y1="168" y2="168"/><text fill="#000000" font-family="sans-serif" font-size="14" lengthAdjust="spacing" textLength="28" x="18" y="184.9951">not:</text><a href="OrderSearchQuery.svg" target="_top" title="OrderSearchQuery.svg" xlink:actuate="onRequest" xlink:href="OrderSearchQuery.svg" xlink:show="new" xlink:title="OrderSearchQuery.svg" xlink:type="simple"><text fill="#0000FF" font-family="sans-serif" font-size="14" lengthAdjust="spacing" text-decoration="underline" textLength="175" x="50" y="184.9951">List&lt;OrderSearchQuery&gt;</text></a></g></a><!--MD5=[3d215d6c00425d8b60fd16f44dc3eaca]
class OrderSearchOrExpression--><a href="OrderSearchOrExpression.svg" target="_top" title="OrderSearchOrExpression.svg" xlink:actuate="onRequest" xlink:href="OrderSearchOrExpression.svg" xlink:show="new" xlink:title="OrderSearchOrExpression.svg" xlink:type="simple"><g id="elem_OrderSearchOrExpression"><rect codeLine="23" fill="#F1F1F1" height="56.2969" id="OrderSearchOrExpression" rx="2.5" ry="2.5" style="stroke:#181818;stroke-width:0.5;" width="210" x="251" y="136"/><ellipse cx="266" cy="152" fill="#B4A7E5" rx="11" ry="11" style="stroke:#181818;stroke-width:1.0;"/><path d="M261.9219,147.7656 L261.9219,145.6094 L269.3125,145.6094 L269.3125,147.7656 L266.8438,147.7656 L266.8438,155.8438 L269.3125,155.8438 L269.3125,158 L261.9219,158 L261.9219,155.8438 L264.3906,155.8438 L264.3906,147.7656 L261.9219,147.7656 Z " fill="#000000"/><text fill="#000000" font-family="sans-serif" font-size="14" font-style="italic" lengthAdjust="spacing" textLength="178" x="280" y="156.8467">OrderSearchOrExpression</text><line style="stroke:#181818;stroke-width:0.5;" x1="252" x2="460" y1="168" y2="168"/><text fill="#000000" font-family="sans-serif" font-size="14" lengthAdjust="spacing" textLength="19" x="257" y="184.9951">or:</text><a href="OrderSearchQuery.svg" target="_top" title="OrderSearchQuery.svg" xlink:actuate="onRequest" xlink:href="OrderSearchQuery.svg" xlink:show="new" xlink:title="OrderSearchQuery.svg" xlink:type="simple"><text fill="#0000FF" font-family="sans-serif" font-size="14" lengthAdjust="spacing" text-decoration="underline" textLength="175" x="280" y="184.9951">List&lt;OrderSearchQuery&gt;</text></a></g></a><line style="stroke:#181818;stroke-width:1.0;" x1="202.8" x2="202.8" y1="44" y2="64"/><polygon fill="#FFFFFF" points="202.8,44,195.8,63,209.8,63,202.8,44" style="stroke:#181818;stroke-width:1.0;"/><line style="stroke:#181818;stroke-width:1.0;" x1="229.9" x2="229.9" y1="96" y2="116"/><line style="stroke:#181818;stroke-width:1.0;" x1="229.9" x2="592" y1="116" y2="116"/><line style="stroke:#181818;stroke-width:1.0;" x1="592" x2="592" y1="116" y2="136"/><polygon fill="#FFFFFF" points="229.9,96,222.9,115,236.9,115,229.9,96" style="stroke:#181818;stroke-width:1.0;"/><line style="stroke:#181818;stroke-width:1.0;" x1="284.1" x2="284.1" y1="96" y2="106"/><line style="stroke:#181818;stroke-width:1.0;" x1="284.1" x2="873.5" y1="106" y2="106"/><line style="stroke:#181818;stroke-width:1.0;" x1="873.5" x2="873.5" y1="106" y2="136"/><polygon fill="#FFFFFF" points="284.1,96,277.1,115,291.1,115,284.1,96" style="stroke:#181818;stroke-width:1.0;"/><line style="stroke:#181818;stroke-width:1.0;" x1="121.5" x2="121.5" y1="96" y2="136"/><polygon fill="#FFFFFF" points="121.5,96,114.5,115,128.5,115,121.5,96" style="stroke:#181818;stroke-width:1.0;"/><line style="stroke:#181818;stroke-width:1.0;" x1="175.7" x2="175.7" y1="96" y2="126"/><line style="stroke:#181818;stroke-width:1.0;" x1="175.7" x2="356" y1="126" y2="126"/><line style="stroke:#181818;stroke-width:1.0;" x1="356" x2="356" y1="126" y2="136"/><polygon fill="#FFFFFF" points="175.7,96,168.7,115,182.7,115,175.7,96" style="stroke:#181818;stroke-width:1.0;"/><rect fill="#DDDDDD" height="79.1875" id="_legend" rx="7.5" ry="7.5" style="stroke:#000000;stroke-width:1.0;" width="161" x="425.5" y="193.2969"/><text fill="#000000" font-family="sans-serif" font-size="14" font-weight="bold" lengthAdjust="spacing" textLength="5" x="430.5" y="213.292"> </text><text fill="#000000" font-family="sans-serif" font-size="14" font-weight="bold" lengthAdjust="spacing" textLength="28" x="447.5" y="213.292">line</text><text fill="#000000" filter="url(#b135522lukh8ep0)" font-family="sans-serif" font-size="14" lengthAdjust="spacing" textLength="12" x="430.5" y="229.5889">   </text><text fill="#000000" font-family="sans-serif" font-size="14" lengthAdjust="spacing" textLength="77" x="446.5" y="229.5889">inheritance</text><text fill="#000000" filter="url(#b135522lukh8ep1)" font-family="sans-serif" font-size="14" lengthAdjust="spacing" textLength="12" x="430.5" y="245.8857">   </text><text fill="#000000" font-family="sans-serif" font-size="14" lengthAdjust="spacing" textLength="129" x="446.5" y="245.8857">property reference</text><text fill="#000000" filter="url(#b135522lukh8ep2)" font-family="sans-serif" font-size="14" lengthAdjust="spacing" textLength="12" x="430.5" y="262.1826">   </text><text fill="#000000" font-family="sans-serif" font-size="14" lengthAdjust="spacing" textLength="131" x="446.5" y="262.1826">discriminated class</text><line style="stroke:#000000;stroke-width:1.0;" x1="430.5" x2="581.5" y1="200.2969" y2="200.2969"/><line style="stroke:#000000;stroke-width:1.0;" x1="430.5" x2="581.5" y1="216.5938" y2="216.5938"/><line style="stroke:#000000;stroke-width:1.0;" x1="430.5" x2="581.5" y1="232.8906" y2="232.8906"/><line style="stroke:#000000;stroke-width:1.0;" x1="430.5" x2="581.5" y1="249.1875" y2="249.1875"/><line style="stroke:#000000;stroke-width:1.0;" x1="430.5" x2="581.5" y1="265.4844" y2="265.4844"/><line style="stroke:#000000;stroke-width:1.0;" x1="430.5" x2="430.5" y1="200.2969" y2="265.4844"/><line style="stroke:#000000;stroke-width:1.0;" x1="442.5" x2="442.5" y1="200.2969" y2="265.4844"/><line style="stroke:#000000;stroke-width:1.0;" x1="581.5" x2="581.5" y1="200.2969" y2="265.4844"/><!--MD5=[fa0c239e9f428bd876740887b70dfa00]
@startuml
!pragma layout elk
hide empty fields
hide empty methods
legend
|= |= line |
|<back:black>   </back>| inheritance |
|<back:green>   </back>| property reference |
|<back:blue>   </back>| discriminated class |
endlegend
interface OrderSearchCompoundExpression [[OrderSearchCompoundExpression.svg]] extends OrderSearchQuery {
}
interface OrderSearchQuery [[OrderSearchQuery.svg]]  {
}
interface OrderSearchAndExpression [[OrderSearchAndExpression.svg]] extends OrderSearchCompoundExpression {
    and: [[OrderSearchQuery.svg List<OrderSearchQuery>]]
}
interface OrderSearchFilterExpression [[OrderSearchFilterExpression.svg]] extends OrderSearchCompoundExpression {
    filter: [[OrderSearchQueryExpression.svg List<OrderSearchQueryExpression>]]
}
interface OrderSearchNotExpression [[OrderSearchNotExpression.svg]] extends OrderSearchCompoundExpression {
    not: [[OrderSearchQuery.svg List<OrderSearchQuery>]]
}
interface OrderSearchOrExpression [[OrderSearchOrExpression.svg]] extends OrderSearchCompoundExpression {
    or: [[OrderSearchQuery.svg List<OrderSearchQuery>]]
}




@enduml

PlantUML version 1.2022.13(Sat Nov 19 13:22:17 UTC 2022)
(GPL source distribution)
Java Runtime: OpenJDK Runtime Environment
JVM: OpenJDK 64-Bit Server VM
Default Encoding: UTF-8
Language: en
Country: null
--></g></svg>
