<?xml version="1.0" encoding="UTF-8" standalone="no"?><svg xmlns="http://www.w3.org/2000/svg" xmlns:xlink="http://www.w3.org/1999/xlink" contentStyleType="text/css" height="471px" preserveAspectRatio="none" style="width:3552px;height:471px;background:#FFFFFF;" version="1.1" viewBox="0 0 3552 471" width="3552px" zoomAndPan="magnify"><defs><filter height="1" id="bk9u1d8rtlk90" width="1" x="0" y="0"><feFlood flood-color="#000000" result="flood"/><feComposite in="SourceGraphic" in2="flood" operator="over"/></filter><filter height="1" id="bk9u1d8rtlk91" width="1" x="0" y="0"><feFlood flood-color="#008000" result="flood"/><feComposite in="SourceGraphic" in2="flood" operator="over"/></filter><filter height="1" id="bk9u1d8rtlk92" width="1" x="0" y="0"><feFlood flood-color="#0000FF" result="flood"/><feComposite in="SourceGraphic" in2="flood" operator="over"/></filter></defs><g><!--MD5=[b1fc467efb251bce9fd52820bb16e14c]
class OrderSearchQuery--><a href="OrderSearchQuery.svg" target="_top" title="OrderSearchQuery.svg" xlink:actuate="onRequest" xlink:href="OrderSearchQuery.svg" xlink:show="new" xlink:title="OrderSearchQuery.svg" xlink:type="simple"><g id="elem_OrderSearchQuery"><rect codeLine="10" fill="#F1F1F1" height="32" id="OrderSearchQuery" rx="2.5" ry="2.5" style="stroke:#181818;stroke-width:0.5;" width="161" x="111.4" y="12"/><ellipse cx="126.4" cy="28" fill="#B4A7E5" rx="11" ry="11" style="stroke:#181818;stroke-width:1.0;"/><path d="M122.3219,23.7656 L122.3219,21.6094 L129.7125,21.6094 L129.7125,23.7656 L127.2438,23.7656 L127.2438,31.8438 L129.7125,31.8438 L129.7125,34 L122.3219,34 L122.3219,31.8438 L124.7906,31.8438 L124.7906,23.7656 L122.3219,23.7656 Z " fill="#000000"/><text fill="#000000" font-family="sans-serif" font-size="14" font-style="italic" lengthAdjust="spacing" textLength="129" x="140.4" y="32.8467">OrderSearchQuery</text></g></a><!--MD5=[2c8d170eaac2cd8adcff37d3353c623c]
class OrderSearchAndExpression--><a href="OrderSearchAndExpression.svg" target="_top" title="OrderSearchAndExpression.svg" xlink:actuate="onRequest" xlink:href="OrderSearchAndExpression.svg" xlink:show="new" xlink:title="OrderSearchAndExpression.svg" xlink:type="simple"><g id="elem_OrderSearchAndExpression"><rect codeLine="54" fill="#F1F1F1" height="72.5938" id="OrderSearchAndExpression" rx="2.5" ry="2.5" style="stroke:#181818;stroke-width:0.5;" width="222" x="3323" y="266"/><ellipse cx="3338" cy="282" fill="#B4A7E5" rx="11" ry="11" style="stroke:#181818;stroke-width:1.0;"/><path d="M3333.9219,277.7656 L3333.9219,275.6094 L3341.3125,275.6094 L3341.3125,277.7656 L3338.8438,277.7656 L3338.8438,285.8438 L3341.3125,285.8438 L3341.3125,288 L3333.9219,288 L3333.9219,285.8438 L3336.3906,285.8438 L3336.3906,277.7656 L3333.9219,277.7656 Z " fill="#000000"/><text fill="#000000" font-family="sans-serif" font-size="14" font-style="italic" lengthAdjust="spacing" textLength="190" x="3352" y="286.8467">OrderSearchAndExpression</text><line style="stroke:#181818;stroke-width:0.5;" x1="3324" x2="3544" y1="298" y2="298"/><text fill="#000000" font-family="sans-serif" font-size="14" lengthAdjust="spacing" textLength="31" x="3329" y="314.9951">and:</text><a href="OrderSearchQuery.svg" target="_top" title="OrderSearchQuery.svg" xlink:actuate="onRequest" xlink:href="OrderSearchQuery.svg" xlink:show="new" xlink:title="OrderSearchQuery.svg" xlink:type="simple"><text fill="#0000FF" font-family="sans-serif" font-size="14" lengthAdjust="spacing" text-decoration="underline" textLength="175" x="3364" y="314.9951">List&lt;OrderSearchQuery&gt;</text></a><text fill="#000000" font-family="sans-serif" font-size="14" lengthAdjust="spacing" textLength="31" x="3329" y="331.292">and:</text><a href="OrderSearchQuery.svg" target="_top" title="OrderSearchQuery.svg" xlink:actuate="onRequest" xlink:href="OrderSearchQuery.svg" xlink:show="new" xlink:title="OrderSearchQuery.svg" xlink:type="simple"><text fill="#0000FF" font-family="sans-serif" font-size="14" lengthAdjust="spacing" text-decoration="underline" textLength="175" x="3364" y="331.292">List&lt;OrderSearchQuery&gt;</text></a></g></a><!--MD5=[59d61d00c8617775912debaf12e9c5fb]
class OrderSearchCompoundExpression--><a href="OrderSearchCompoundExpression.svg" target="_top" title="OrderSearchCompoundExpression.svg" xlink:actuate="onRequest" xlink:href="OrderSearchCompoundExpression.svg" xlink:show="new" xlink:title="OrderSearchCompoundExpression.svg" xlink:type="simple"><g id="elem_OrderSearchCompoundExpression"><rect codeLine="16" fill="#F1F1F1" height="32" id="OrderSearchCompoundExpression" rx="2.5" ry="2.5" style="stroke:#181818;stroke-width:0.5;" width="271" x="2764.1" y="114"/><ellipse cx="2779.1" cy="130" fill="#B4A7E5" rx="11" ry="11" style="stroke:#181818;stroke-width:1.0;"/><path d="M2775.0219,125.7656 L2775.0219,123.6094 L2782.4125,123.6094 L2782.4125,125.7656 L2779.9438,125.7656 L2779.9438,133.8438 L2782.4125,133.8438 L2782.4125,136 L2775.0219,136 L2775.0219,133.8438 L2777.4906,133.8438 L2777.4906,125.7656 L2775.0219,125.7656 Z " fill="#000000"/><text fill="#000000" font-family="sans-serif" font-size="14" font-style="italic" lengthAdjust="spacing" textLength="239" x="2793.1" y="134.8467">OrderSearchCompoundExpression</text></g></a><!--MD5=[7d930f9f8a35eff17a99d36d2d237be9]
class OrderSearchDateRangeExpression--><a href="OrderSearchDateRangeExpression.svg" target="_top" title="OrderSearchDateRangeExpression.svg" xlink:actuate="onRequest" xlink:href="OrderSearchDateRangeExpression.svg" xlink:show="new" xlink:title="OrderSearchDateRangeExpression.svg" xlink:type="simple"><g id="elem_OrderSearchDateRangeExpression"><rect codeLine="18" fill="#F1F1F1" height="56.2969" id="OrderSearchDateRangeExpression" rx="2.5" ry="2.5" style="stroke:#181818;stroke-width:0.5;" width="272" x="2156" y="266"/><ellipse cx="2171" cy="282" fill="#B4A7E5" rx="11" ry="11" style="stroke:#181818;stroke-width:1.0;"/><path d="M2166.9219,277.7656 L2166.9219,275.6094 L2174.3125,275.6094 L2174.3125,277.7656 L2171.8438,277.7656 L2171.8438,285.8438 L2174.3125,285.8438 L2174.3125,288 L2166.9219,288 L2166.9219,285.8438 L2169.3906,285.8438 L2169.3906,277.7656 L2166.9219,277.7656 Z " fill="#000000"/><text fill="#000000" font-family="sans-serif" font-size="14" font-style="italic" lengthAdjust="spacing" textLength="240" x="2185" y="286.8467">OrderSearchDateRangeExpression</text><line style="stroke:#181818;stroke-width:0.5;" x1="2157" x2="2427" y1="298" y2="298"/><text fill="#000000" font-family="sans-serif" font-size="14" lengthAdjust="spacing" textLength="45" x="2162" y="314.9951">range:</text><a href="OrderSearchDateRangeValue.svg" target="_top" title="OrderSearchDateRangeValue.svg" xlink:actuate="onRequest" xlink:href="OrderSearchDateRangeValue.svg" xlink:show="new" xlink:title="OrderSearchDateRangeValue.svg" xlink:type="simple"><text fill="#0000FF" font-family="sans-serif" font-size="14" lengthAdjust="spacing" text-decoration="underline" textLength="203" x="2211" y="314.9951">OrderSearchDateRangeValue</text></a></g></a><!--MD5=[49e42dc85677f6a41ef340884c6ffe54]
class OrderSearchQueryExpression--><a href="OrderSearchQueryExpression.svg" target="_top" title="OrderSearchQueryExpression.svg" xlink:actuate="onRequest" xlink:href="OrderSearchQueryExpression.svg" xlink:show="new" xlink:title="OrderSearchQueryExpression.svg" xlink:type="simple"><g id="elem_OrderSearchQueryExpression"><rect codeLine="48" fill="#F1F1F1" height="32" id="OrderSearchQueryExpression" rx="2.5" ry="2.5" style="stroke:#181818;stroke-width:0.5;" width="236" x="360.7778" y="114"/><ellipse cx="375.7778" cy="130" fill="#B4A7E5" rx="11" ry="11" style="stroke:#181818;stroke-width:1.0;"/><path d="M371.6997,125.7656 L371.6997,123.6094 L379.0903,123.6094 L379.0903,125.7656 L376.6215,125.7656 L376.6215,133.8438 L379.0903,133.8438 L379.0903,136 L371.6997,136 L371.6997,133.8438 L374.1684,133.8438 L374.1684,125.7656 L371.6997,125.7656 Z " fill="#000000"/><text fill="#000000" font-family="sans-serif" font-size="14" font-style="italic" lengthAdjust="spacing" textLength="204" x="389.7778" y="134.8467">OrderSearchQueryExpression</text></g></a><!--MD5=[14eae8a6ba292e2a61638033077abc1f]
class OrderSearchExactExpression--><a href="OrderSearchExactExpression.svg" target="_top" title="OrderSearchExactExpression.svg" xlink:actuate="onRequest" xlink:href="OrderSearchExactExpression.svg" xlink:show="new" xlink:title="OrderSearchExactExpression.svg" xlink:type="simple"><g id="elem_OrderSearchExactExpression"><rect codeLine="21" fill="#F1F1F1" height="56.2969" id="OrderSearchExactExpression" rx="2.5" ry="2.5" style="stroke:#181818;stroke-width:0.5;" width="232" x="1610" y="266"/><ellipse cx="1625" cy="282" fill="#B4A7E5" rx="11" ry="11" style="stroke:#181818;stroke-width:1.0;"/><path d="M1620.9219,277.7656 L1620.9219,275.6094 L1628.3125,275.6094 L1628.3125,277.7656 L1625.8438,277.7656 L1625.8438,285.8438 L1628.3125,285.8438 L1628.3125,288 L1620.9219,288 L1620.9219,285.8438 L1623.3906,285.8438 L1623.3906,277.7656 L1620.9219,277.7656 Z " fill="#000000"/><text fill="#000000" font-family="sans-serif" font-size="14" font-style="italic" lengthAdjust="spacing" textLength="200" x="1639" y="286.8467">OrderSearchExactExpression</text><line style="stroke:#181818;stroke-width:0.5;" x1="1611" x2="1841" y1="298" y2="298"/><text fill="#000000" font-family="sans-serif" font-size="14" lengthAdjust="spacing" textLength="42" x="1616" y="314.9951">exact:</text><a href="OrderSearchAnyValue.svg" target="_top" title="OrderSearchAnyValue.svg" xlink:actuate="onRequest" xlink:href="OrderSearchAnyValue.svg" xlink:show="new" xlink:title="OrderSearchAnyValue.svg" xlink:type="simple"><text fill="#0000FF" font-family="sans-serif" font-size="14" lengthAdjust="spacing" text-decoration="underline" textLength="150" x="1662" y="314.9951">OrderSearchAnyValue</text></a></g></a><!--MD5=[effa7c70c76aa4119741fd3739788988]
class OrderSearchExistsExpression--><a href="OrderSearchExistsExpression.svg" target="_top" title="OrderSearchExistsExpression.svg" xlink:actuate="onRequest" xlink:href="OrderSearchExistsExpression.svg" xlink:show="new" xlink:title="OrderSearchExistsExpression.svg" xlink:type="simple"><g id="elem_OrderSearchExistsExpression"><rect codeLine="24" fill="#F1F1F1" height="56.2969" id="OrderSearchExistsExpression" rx="2.5" ry="2.5" style="stroke:#181818;stroke-width:0.5;" width="303" x="1012" y="266"/><ellipse cx="1058.75" cy="282" fill="#B4A7E5" rx="11" ry="11" style="stroke:#181818;stroke-width:1.0;"/><path d="M1054.6719,277.7656 L1054.6719,275.6094 L1062.0625,275.6094 L1062.0625,277.7656 L1059.5938,277.7656 L1059.5938,285.8438 L1062.0625,285.8438 L1062.0625,288 L1054.6719,288 L1054.6719,285.8438 L1057.1406,285.8438 L1057.1406,277.7656 L1054.6719,277.7656 Z " fill="#000000"/><text fill="#000000" font-family="sans-serif" font-size="14" font-style="italic" lengthAdjust="spacing" textLength="201" x="1079.25" y="286.8467">OrderSearchExistsExpression</text><line style="stroke:#181818;stroke-width:0.5;" x1="1013" x2="1314" y1="298" y2="298"/><text fill="#000000" font-family="sans-serif" font-size="14" lengthAdjust="spacing" textLength="45" x="1018" y="314.9951">exists:</text><a href="OrderSearchQueryExpressionValue.svg" target="_top" title="OrderSearchQueryExpressionValue.svg" xlink:actuate="onRequest" xlink:href="OrderSearchQueryExpressionValue.svg" xlink:show="new" xlink:title="OrderSearchQueryExpressionValue.svg" xlink:type="simple"><text fill="#0000FF" font-family="sans-serif" font-size="14" lengthAdjust="spacing" text-decoration="underline" textLength="242" x="1067" y="314.9951">OrderSearchQueryExpressionValue</text></a></g></a><!--MD5=[bc7bc33d31e464064e236f2744147299]
class OrderSearchFilterExpression--><a href="OrderSearchFilterExpression.svg" target="_top" title="OrderSearchFilterExpression.svg" xlink:actuate="onRequest" xlink:href="OrderSearchFilterExpression.svg" xlink:show="new" xlink:title="OrderSearchFilterExpression.svg" xlink:type="simple"><g id="elem_OrderSearchFilterExpression"><rect codeLine="27" fill="#F1F1F1" height="56.2969" id="OrderSearchFilterExpression" rx="2.5" ry="2.5" style="stroke:#181818;stroke-width:0.5;" width="301" x="3002" y="266"/><ellipse cx="3050.75" cy="282" fill="#B4A7E5" rx="11" ry="11" style="stroke:#181818;stroke-width:1.0;"/><path d="M3046.6719,277.7656 L3046.6719,275.6094 L3054.0625,275.6094 L3054.0625,277.7656 L3051.5938,277.7656 L3051.5938,285.8438 L3054.0625,285.8438 L3054.0625,288 L3046.6719,288 L3046.6719,285.8438 L3049.1406,285.8438 L3049.1406,277.7656 L3046.6719,277.7656 Z " fill="#000000"/><text fill="#000000" font-family="sans-serif" font-size="14" font-style="italic" lengthAdjust="spacing" textLength="195" x="3071.25" y="286.8467">OrderSearchFilterExpression</text><line style="stroke:#181818;stroke-width:0.5;" x1="3003" x2="3302" y1="298" y2="298"/><text fill="#000000" font-family="sans-serif" font-size="14" lengthAdjust="spacing" textLength="34" x="3008" y="314.9951">filter:</text><a href="OrderSearchQueryExpression.svg" target="_top" title="OrderSearchQueryExpression.svg" xlink:actuate="onRequest" xlink:href="OrderSearchQueryExpression.svg" xlink:show="new" xlink:title="OrderSearchQueryExpression.svg" xlink:type="simple"><text fill="#0000FF" font-family="sans-serif" font-size="14" lengthAdjust="spacing" text-decoration="underline" textLength="251" x="3046" y="314.9951">List&lt;OrderSearchQueryExpression&gt;</text></a></g></a><!--MD5=[0443c8cd8c5f9163c0993f7233b9d39e]
class OrderSearchFullTextExpression--><a href="OrderSearchFullTextExpression.svg" target="_top" title="OrderSearchFullTextExpression.svg" xlink:actuate="onRequest" xlink:href="OrderSearchFullTextExpression.svg" xlink:show="new" xlink:title="OrderSearchFullTextExpression.svg" xlink:type="simple"><g id="elem_OrderSearchFullTextExpression"><rect codeLine="30" fill="#F1F1F1" height="56.2969" id="OrderSearchFullTextExpression" rx="2.5" ry="2.5" style="stroke:#181818;stroke-width:0.5;" width="248" x="263" y="266"/><ellipse cx="278" cy="282" fill="#B4A7E5" rx="11" ry="11" style="stroke:#181818;stroke-width:1.0;"/><path d="M273.9219,277.7656 L273.9219,275.6094 L281.3125,275.6094 L281.3125,277.7656 L278.8438,277.7656 L278.8438,285.8438 L281.3125,285.8438 L281.3125,288 L273.9219,288 L273.9219,285.8438 L276.3906,285.8438 L276.3906,277.7656 L273.9219,277.7656 Z " fill="#000000"/><text fill="#000000" font-family="sans-serif" font-size="14" font-style="italic" lengthAdjust="spacing" textLength="216" x="292" y="286.8467">OrderSearchFullTextExpression</text><line style="stroke:#181818;stroke-width:0.5;" x1="264" x2="510" y1="298" y2="298"/><text fill="#000000" font-family="sans-serif" font-size="14" lengthAdjust="spacing" textLength="54" x="269" y="314.9951">fullText:</text><a href="OrderSearchFullTextValue.svg" target="_top" title="OrderSearchFullTextValue.svg" xlink:actuate="onRequest" xlink:href="OrderSearchFullTextValue.svg" xlink:show="new" xlink:title="OrderSearchFullTextValue.svg" xlink:type="simple"><text fill="#0000FF" font-family="sans-serif" font-size="14" lengthAdjust="spacing" text-decoration="underline" textLength="178" x="327" y="314.9951">OrderSearchFullTextValue</text></a></g></a><!--MD5=[818f129c7541f27a46eb5ba896d3d5bb]
class OrderSearchLongRangeExpression--><a href="OrderSearchLongRangeExpression.svg" target="_top" title="OrderSearchLongRangeExpression.svg" xlink:actuate="onRequest" xlink:href="OrderSearchLongRangeExpression.svg" xlink:show="new" xlink:title="OrderSearchLongRangeExpression.svg" xlink:type="simple"><g id="elem_OrderSearchLongRangeExpression"><rect codeLine="33" fill="#F1F1F1" height="56.2969" id="OrderSearchLongRangeExpression" rx="2.5" ry="2.5" style="stroke:#181818;stroke-width:0.5;" width="274" x="1862" y="266"/><ellipse cx="1877" cy="282" fill="#B4A7E5" rx="11" ry="11" style="stroke:#181818;stroke-width:1.0;"/><path d="M1872.9219,277.7656 L1872.9219,275.6094 L1880.3125,275.6094 L1880.3125,277.7656 L1877.8438,277.7656 L1877.8438,285.8438 L1880.3125,285.8438 L1880.3125,288 L1872.9219,288 L1872.9219,285.8438 L1875.3906,285.8438 L1875.3906,277.7656 L1872.9219,277.7656 Z " fill="#000000"/><text fill="#000000" font-family="sans-serif" font-size="14" font-style="italic" lengthAdjust="spacing" textLength="242" x="1891" y="286.8467">OrderSearchLongRangeExpression</text><line style="stroke:#181818;stroke-width:0.5;" x1="1863" x2="2135" y1="298" y2="298"/><text fill="#000000" font-family="sans-serif" font-size="14" lengthAdjust="spacing" textLength="45" x="1868" y="314.9951">range:</text><a href="OrderSearchLongRangeValue.svg" target="_top" title="OrderSearchLongRangeValue.svg" xlink:actuate="onRequest" xlink:href="OrderSearchLongRangeValue.svg" xlink:show="new" xlink:title="OrderSearchLongRangeValue.svg" xlink:type="simple"><text fill="#0000FF" font-family="sans-serif" font-size="14" lengthAdjust="spacing" text-decoration="underline" textLength="204" x="1917" y="314.9951">OrderSearchLongRangeValue</text></a></g></a><!--MD5=[d14a015eebba25e6ec9daa6584b147fa]
class OrderSearchNotExpression--><a href="OrderSearchNotExpression.svg" target="_top" title="OrderSearchNotExpression.svg" xlink:actuate="onRequest" xlink:href="OrderSearchNotExpression.svg" xlink:show="new" xlink:title="OrderSearchNotExpression.svg" xlink:type="simple"><g id="elem_OrderSearchNotExpression"><rect codeLine="57" fill="#F1F1F1" height="72.5938" id="OrderSearchNotExpression" rx="2.5" ry="2.5" style="stroke:#181818;stroke-width:0.5;" width="219" x="2763" y="266"/><ellipse cx="2778" cy="282" fill="#B4A7E5" rx="11" ry="11" style="stroke:#181818;stroke-width:1.0;"/><path d="M2773.9219,277.7656 L2773.9219,275.6094 L2781.3125,275.6094 L2781.3125,277.7656 L2778.8438,277.7656 L2778.8438,285.8438 L2781.3125,285.8438 L2781.3125,288 L2773.9219,288 L2773.9219,285.8438 L2776.3906,285.8438 L2776.3906,277.7656 L2773.9219,277.7656 Z " fill="#000000"/><text fill="#000000" font-family="sans-serif" font-size="14" font-style="italic" lengthAdjust="spacing" textLength="187" x="2792" y="286.8467">OrderSearchNotExpression</text><line style="stroke:#181818;stroke-width:0.5;" x1="2764" x2="2981" y1="298" y2="298"/><text fill="#000000" font-family="sans-serif" font-size="14" lengthAdjust="spacing" textLength="28" x="2769" y="314.9951">not:</text><a href="OrderSearchQuery.svg" target="_top" title="OrderSearchQuery.svg" xlink:actuate="onRequest" xlink:href="OrderSearchQuery.svg" xlink:show="new" xlink:title="OrderSearchQuery.svg" xlink:type="simple"><text fill="#0000FF" font-family="sans-serif" font-size="14" lengthAdjust="spacing" text-decoration="underline" textLength="175" x="2801" y="314.9951">List&lt;OrderSearchQuery&gt;</text></a><text fill="#000000" font-family="sans-serif" font-size="14" lengthAdjust="spacing" textLength="28" x="2769" y="331.292">not:</text><a href="OrderSearchQuery.svg" target="_top" title="OrderSearchQuery.svg" xlink:actuate="onRequest" xlink:href="OrderSearchQuery.svg" xlink:show="new" xlink:title="OrderSearchQuery.svg" xlink:type="simple"><text fill="#0000FF" font-family="sans-serif" font-size="14" lengthAdjust="spacing" text-decoration="underline" textLength="175" x="2801" y="331.292">List&lt;OrderSearchQuery&gt;</text></a></g></a><!--MD5=[d7671d8a67847951b9407f369982ac0b]
class OrderSearchNumberRangeExpression--><a href="OrderSearchNumberRangeExpression.svg" target="_top" title="OrderSearchNumberRangeExpression.svg" xlink:actuate="onRequest" xlink:href="OrderSearchNumberRangeExpression.svg" xlink:show="new" xlink:title="OrderSearchNumberRangeExpression.svg" xlink:type="simple"><g id="elem_OrderSearchNumberRangeExpression"><rect codeLine="39" fill="#F1F1F1" height="56.2969" id="OrderSearchNumberRangeExpression" rx="2.5" ry="2.5" style="stroke:#181818;stroke-width:0.5;" width="295" x="2448" y="266"/><ellipse cx="2463" cy="282" fill="#B4A7E5" rx="11" ry="11" style="stroke:#181818;stroke-width:1.0;"/><path d="M2458.9219,277.7656 L2458.9219,275.6094 L2466.3125,275.6094 L2466.3125,277.7656 L2463.8438,277.7656 L2463.8438,285.8438 L2466.3125,285.8438 L2466.3125,288 L2458.9219,288 L2458.9219,285.8438 L2461.3906,285.8438 L2461.3906,277.7656 L2458.9219,277.7656 Z " fill="#000000"/><text fill="#000000" font-family="sans-serif" font-size="14" font-style="italic" lengthAdjust="spacing" textLength="263" x="2477" y="286.8467">OrderSearchNumberRangeExpression</text><line style="stroke:#181818;stroke-width:0.5;" x1="2449" x2="2742" y1="298" y2="298"/><text fill="#000000" font-family="sans-serif" font-size="14" lengthAdjust="spacing" textLength="45" x="2454" y="314.9951">range:</text><a href="OrderSearchNumberRangeValue.svg" target="_top" title="OrderSearchNumberRangeValue.svg" xlink:actuate="onRequest" xlink:href="OrderSearchNumberRangeValue.svg" xlink:show="new" xlink:title="OrderSearchNumberRangeValue.svg" xlink:type="simple"><text fill="#0000FF" font-family="sans-serif" font-size="14" lengthAdjust="spacing" text-decoration="underline" textLength="225" x="2503" y="314.9951">OrderSearchNumberRangeValue</text></a></g></a><!--MD5=[3d215d6c00425d8b60fd16f44dc3eaca]
class OrderSearchOrExpression--><a href="OrderSearchOrExpression.svg" target="_top" title="OrderSearchOrExpression.svg" xlink:actuate="onRequest" xlink:href="OrderSearchOrExpression.svg" xlink:show="new" xlink:title="OrderSearchOrExpression.svg" xlink:type="simple"><g id="elem_OrderSearchOrExpression"><rect codeLine="60" fill="#F1F1F1" height="72.5938" id="OrderSearchOrExpression" rx="2.5" ry="2.5" style="stroke:#181818;stroke-width:0.5;" width="210" x="782" y="266"/><ellipse cx="797" cy="282" fill="#B4A7E5" rx="11" ry="11" style="stroke:#181818;stroke-width:1.0;"/><path d="M792.9219,277.7656 L792.9219,275.6094 L800.3125,275.6094 L800.3125,277.7656 L797.8438,277.7656 L797.8438,285.8438 L800.3125,285.8438 L800.3125,288 L792.9219,288 L792.9219,285.8438 L795.3906,285.8438 L795.3906,277.7656 L792.9219,277.7656 Z " fill="#000000"/><text fill="#000000" font-family="sans-serif" font-size="14" font-style="italic" lengthAdjust="spacing" textLength="178" x="811" y="286.8467">OrderSearchOrExpression</text><line style="stroke:#181818;stroke-width:0.5;" x1="783" x2="991" y1="298" y2="298"/><text fill="#000000" font-family="sans-serif" font-size="14" lengthAdjust="spacing" textLength="19" x="788" y="314.9951">or:</text><a href="OrderSearchQuery.svg" target="_top" title="OrderSearchQuery.svg" xlink:actuate="onRequest" xlink:href="OrderSearchQuery.svg" xlink:show="new" xlink:title="OrderSearchQuery.svg" xlink:type="simple"><text fill="#0000FF" font-family="sans-serif" font-size="14" lengthAdjust="spacing" text-decoration="underline" textLength="175" x="811" y="314.9951">List&lt;OrderSearchQuery&gt;</text></a><text fill="#000000" font-family="sans-serif" font-size="14" lengthAdjust="spacing" textLength="19" x="788" y="331.292">or:</text><a href="OrderSearchQuery.svg" target="_top" title="OrderSearchQuery.svg" xlink:actuate="onRequest" xlink:href="OrderSearchQuery.svg" xlink:show="new" xlink:title="OrderSearchQuery.svg" xlink:type="simple"><text fill="#0000FF" font-family="sans-serif" font-size="14" lengthAdjust="spacing" text-decoration="underline" textLength="175" x="811" y="331.292">List&lt;OrderSearchQuery&gt;</text></a></g></a><!--MD5=[a579db98305edfa470ff9d27ed9f9fa8]
class OrderSearchPrefixExpression--><a href="OrderSearchPrefixExpression.svg" target="_top" title="OrderSearchPrefixExpression.svg" xlink:actuate="onRequest" xlink:href="OrderSearchPrefixExpression.svg" xlink:show="new" xlink:title="OrderSearchPrefixExpression.svg" xlink:type="simple"><g id="elem_OrderSearchPrefixExpression"><rect codeLine="45" fill="#F1F1F1" height="56.2969" id="OrderSearchPrefixExpression" rx="2.5" ry="2.5" style="stroke:#181818;stroke-width:0.5;" width="231" x="531" y="266"/><ellipse cx="546" cy="282" fill="#B4A7E5" rx="11" ry="11" style="stroke:#181818;stroke-width:1.0;"/><path d="M541.9219,277.7656 L541.9219,275.6094 L549.3125,275.6094 L549.3125,277.7656 L546.8438,277.7656 L546.8438,285.8438 L549.3125,285.8438 L549.3125,288 L541.9219,288 L541.9219,285.8438 L544.3906,285.8438 L544.3906,277.7656 L541.9219,277.7656 Z " fill="#000000"/><text fill="#000000" font-family="sans-serif" font-size="14" font-style="italic" lengthAdjust="spacing" textLength="199" x="560" y="286.8467">OrderSearchPrefixExpression</text><line style="stroke:#181818;stroke-width:0.5;" x1="532" x2="761" y1="298" y2="298"/><text fill="#000000" font-family="sans-serif" font-size="14" lengthAdjust="spacing" textLength="42" x="537" y="314.9951">prefix:</text><a href="OrderSearchStringValue.svg" target="_top" title="OrderSearchStringValue.svg" xlink:actuate="onRequest" xlink:href="OrderSearchStringValue.svg" xlink:show="new" xlink:title="OrderSearchStringValue.svg" xlink:type="simple"><text fill="#0000FF" font-family="sans-serif" font-size="14" lengthAdjust="spacing" text-decoration="underline" textLength="165" x="583" y="314.9951">OrderSearchStringValue</text></a></g></a><!--MD5=[8177efc529999fddfd3965fbcaaac2d1]
class OrderSearchWildCardExpression--><a href="OrderSearchWildCardExpression.svg" target="_top" title="OrderSearchWildCardExpression.svg" xlink:actuate="onRequest" xlink:href="OrderSearchWildCardExpression.svg" xlink:show="new" xlink:title="OrderSearchWildCardExpression.svg" xlink:type="simple"><g id="elem_OrderSearchWildCardExpression"><rect codeLine="50" fill="#F1F1F1" height="56.2969" id="OrderSearchWildCardExpression" rx="2.5" ry="2.5" style="stroke:#181818;stroke-width:0.5;" width="255" x="1335" y="266"/><ellipse cx="1350" cy="282" fill="#B4A7E5" rx="11" ry="11" style="stroke:#181818;stroke-width:1.0;"/><path d="M1345.9219,277.7656 L1345.9219,275.6094 L1353.3125,275.6094 L1353.3125,277.7656 L1350.8438,277.7656 L1350.8438,285.8438 L1353.3125,285.8438 L1353.3125,288 L1345.9219,288 L1345.9219,285.8438 L1348.3906,285.8438 L1348.3906,277.7656 L1345.9219,277.7656 Z " fill="#000000"/><text fill="#000000" font-family="sans-serif" font-size="14" font-style="italic" lengthAdjust="spacing" textLength="223" x="1364" y="286.8467">OrderSearchWildCardExpression</text><line style="stroke:#181818;stroke-width:0.5;" x1="1336" x2="1589" y1="298" y2="298"/><text fill="#000000" font-family="sans-serif" font-size="14" lengthAdjust="spacing" textLength="61" x="1341" y="314.9951">wildcard:</text><a href="OrderSearchStringValue.svg" target="_top" title="OrderSearchStringValue.svg" xlink:actuate="onRequest" xlink:href="OrderSearchStringValue.svg" xlink:show="new" xlink:title="OrderSearchStringValue.svg" xlink:type="simple"><text fill="#0000FF" font-family="sans-serif" font-size="14" lengthAdjust="spacing" text-decoration="underline" textLength="165" x="1406" y="314.9951">OrderSearchStringValue</text></a></g></a><!--MD5=[5ef0d9d0dcef2a7eb49e1deebc0c701f]
class OrderSearchRequest--><a href="OrderSearchRequest.svg" target="_top" title="OrderSearchRequest.svg" xlink:actuate="onRequest" xlink:href="OrderSearchRequest.svg" xlink:show="new" xlink:title="OrderSearchRequest.svg" xlink:type="simple"><g id="elem_OrderSearchRequest"><rect codeLine="63" fill="#F1F1F1" height="105.1875" id="OrderSearchRequest" rx="2.5" ry="2.5" style="stroke:#181818;stroke-width:0.5;" width="231" x="12" y="266"/><ellipse cx="51.3" cy="282" fill="#B4A7E5" rx="11" ry="11" style="stroke:#181818;stroke-width:1.0;"/><path d="M47.2219,277.7656 L47.2219,275.6094 L54.6125,275.6094 L54.6125,277.7656 L52.1438,277.7656 L52.1438,285.8438 L54.6125,285.8438 L54.6125,288 L47.2219,288 L47.2219,285.8438 L49.6906,285.8438 L49.6906,277.7656 L47.2219,277.7656 Z " fill="#000000"/><text fill="#000000" font-family="sans-serif" font-size="14" font-style="italic" lengthAdjust="spacing" textLength="145" x="70.7" y="286.8467">OrderSearchRequest</text><line style="stroke:#181818;stroke-width:0.5;" x1="13" x2="242" y1="298" y2="298"/><text fill="#000000" font-family="sans-serif" font-size="14" lengthAdjust="spacing" textLength="44" x="18" y="314.9951">query:</text><a href="OrderSearchQuery.svg" target="_top" title="OrderSearchQuery.svg" xlink:actuate="onRequest" xlink:href="OrderSearchQuery.svg" xlink:show="new" xlink:title="OrderSearchQuery.svg" xlink:type="simple"><text fill="#0000FF" font-family="sans-serif" font-size="14" lengthAdjust="spacing" text-decoration="underline" textLength="128" x="66" y="314.9951">OrderSearchQuery</text></a><text fill="#000000" font-family="sans-serif" font-size="14" lengthAdjust="spacing" textLength="32" x="18" y="331.292">sort:</text><a href="OrderSearchSorting.svg" target="_top" title="OrderSearchSorting.svg" xlink:actuate="onRequest" xlink:href="OrderSearchSorting.svg" xlink:show="new" xlink:title="OrderSearchSorting.svg" xlink:type="simple"><text fill="#0000FF" font-family="sans-serif" font-size="14" lengthAdjust="spacing" text-decoration="underline" textLength="183" x="54" y="331.292">List&lt;OrderSearchSorting&gt;</text></a><text fill="#000000" font-family="sans-serif" font-size="14" lengthAdjust="spacing" textLength="85" x="18" y="347.5889">limit: Integer</text><text fill="#000000" font-family="sans-serif" font-size="14" lengthAdjust="spacing" textLength="97" x="18" y="363.8857">offset: Integer</text></g></a><line style="stroke:#181818;stroke-width:1.0;" x1="2980.9" x2="2980.9" y1="146" y2="156"/><line style="stroke:#181818;stroke-width:1.0;" x1="2980.9" x2="3378.5" y1="156" y2="156"/><line style="stroke:#181818;stroke-width:1.0;" x1="3378.5" x2="3378.5" y1="156" y2="266"/><polygon fill="#FFFFFF" points="2980.9,146,2973.9,165,2987.9,165,2980.9,146" style="stroke:#181818;stroke-width:1.0;"/><line style="stroke:#181818;stroke-width:1.0;" x1="208" x2="208" y1="44" y2="84"/><line style="stroke:#181818;stroke-width:1.0;" x1="208" x2="2899.6" y1="84" y2="84"/><line style="stroke:#181818;stroke-width:1.0;" x1="2899.6" x2="2899.6" y1="84" y2="114"/><polygon fill="#FFFFFF" points="208,44,201,63,215,63,208,44" style="stroke:#181818;stroke-width:1.0;"/><line style="stroke:#181818;stroke-width:1.0;" x1="544.3333" x2="544.3333" y1="146" y2="186"/><line style="stroke:#181818;stroke-width:1.0;" x1="544.3333" x2="2292" y1="186" y2="186"/><line style="stroke:#181818;stroke-width:1.0;" x1="2292" x2="2292" y1="186" y2="266"/><polygon fill="#FFFFFF" points="544.3333,146,537.3333,165,551.3333,165,544.3333,146" style="stroke:#181818;stroke-width:1.0;"/><line style="stroke:#181818;stroke-width:1.0;" x1="491.8889" x2="491.8889" y1="146" y2="206"/><line style="stroke:#181818;stroke-width:1.0;" x1="491.8889" x2="1726" y1="206" y2="206"/><line style="stroke:#181818;stroke-width:1.0;" x1="1726" x2="1726" y1="206" y2="266"/><polygon fill="#FFFFFF" points="491.8889,146,484.8889,165,498.8889,165,491.8889,146" style="stroke:#181818;stroke-width:1.0;"/><line style="stroke:#181818;stroke-width:1.0;" x1="439.4444" x2="439.4444" y1="146" y2="226"/><line style="stroke:#181818;stroke-width:1.0;" x1="439.4444" x2="1163.5" y1="226" y2="226"/><line style="stroke:#181818;stroke-width:1.0;" x1="1163.5" x2="1163.5" y1="226" y2="266"/><polygon fill="#FFFFFF" points="439.4444,146,432.4444,165,446.4444,165,439.4444,146" style="stroke:#181818;stroke-width:1.0;"/><line style="stroke:#181818;stroke-width:1.0;" x1="2926.7" x2="2926.7" y1="146" y2="166"/><line style="stroke:#181818;stroke-width:1.0;" x1="2926.7" x2="3152.5" y1="166" y2="166"/><line style="stroke:#181818;stroke-width:1.0;" x1="3152.5" x2="3152.5" y1="166" y2="266"/><polygon fill="#FFFFFF" points="2926.7,146,2919.7,165,2933.7,165,2926.7,146" style="stroke:#181818;stroke-width:1.0;"/><line style="stroke:#181818;stroke-width:1.0;" x1="387" x2="387" y1="146" y2="266"/><polygon fill="#FFFFFF" points="387,146,380,165,394,165,387,146" style="stroke:#181818;stroke-width:1.0;"/><line style="stroke:#181818;stroke-width:1.0;" x1="518.1111" x2="518.1111" y1="146" y2="196"/><line style="stroke:#181818;stroke-width:1.0;" x1="518.1111" x2="1999" y1="196" y2="196"/><line style="stroke:#181818;stroke-width:1.0;" x1="1999" x2="1999" y1="196" y2="266"/><polygon fill="#FFFFFF" points="518.1111,146,511.1111,165,525.1111,165,518.1111,146" style="stroke:#181818;stroke-width:1.0;"/><line style="stroke:#181818;stroke-width:1.0;" x1="2872.5" x2="2872.5" y1="146" y2="266"/><polygon fill="#FFFFFF" points="2872.5,146,2865.5,165,2879.5,165,2872.5,146" style="stroke:#181818;stroke-width:1.0;"/><line style="stroke:#181818;stroke-width:1.0;" x1="570.5556" x2="570.5556" y1="146" y2="176"/><line style="stroke:#181818;stroke-width:1.0;" x1="570.5556" x2="2595.5" y1="176" y2="176"/><line style="stroke:#181818;stroke-width:1.0;" x1="2595.5" x2="2595.5" y1="176" y2="266"/><polygon fill="#FFFFFF" points="570.5556,146,563.5556,165,577.5556,165,570.5556,146" style="stroke:#181818;stroke-width:1.0;"/><line style="stroke:#181818;stroke-width:1.0;" x1="2818.3" x2="2818.3" y1="146" y2="156"/><line style="stroke:#181818;stroke-width:1.0;" x1="2818.3" x2="939.5" y1="156" y2="156"/><line style="stroke:#181818;stroke-width:1.0;" x1="939.5" x2="939.5" y1="156" y2="266"/><polygon fill="#FFFFFF" points="2818.3,146,2811.3,165,2825.3,165,2818.3,146" style="stroke:#181818;stroke-width:1.0;"/><line style="stroke:#181818;stroke-width:1.0;" x1="413.2222" x2="413.2222" y1="146" y2="246"/><line style="stroke:#181818;stroke-width:1.0;" x1="413.2222" x2="646.5" y1="246" y2="246"/><line style="stroke:#181818;stroke-width:1.0;" x1="646.5" x2="646.5" y1="246" y2="266"/><polygon fill="#FFFFFF" points="413.2222,146,406.2222,165,420.2222,165,413.2222,146" style="stroke:#181818;stroke-width:1.0;"/><line style="stroke:#181818;stroke-width:1.0;" x1="175.8" x2="175.8" y1="44" y2="104"/><line style="stroke:#181818;stroke-width:1.0;" x1="175.8" x2="478.7778" y1="104" y2="104"/><line style="stroke:#181818;stroke-width:1.0;" x1="478.7778" x2="478.7778" y1="104" y2="114"/><polygon fill="#FFFFFF" points="175.8,44,168.8,63,182.8,63,175.8,44" style="stroke:#181818;stroke-width:1.0;"/><line style="stroke:#181818;stroke-width:1.0;" x1="465.6667" x2="465.6667" y1="146" y2="216"/><line style="stroke:#181818;stroke-width:1.0;" x1="465.6667" x2="1462.5" y1="216" y2="216"/><line style="stroke:#181818;stroke-width:1.0;" x1="1462.5" x2="1462.5" y1="216" y2="266"/><polygon fill="#FFFFFF" points="465.6667,146,458.6667,165,472.6667,165,465.6667,146" style="stroke:#181818;stroke-width:1.0;"/><line style="stroke:#008000;stroke-width:1.0;" x1="256.3" x2="256.3" y1="44" y2="54"/><line style="stroke:#008000;stroke-width:1.0;" x1="256.3" x2="3445" y1="54" y2="54"/><line style="stroke:#008000;stroke-width:1.0;" x1="3445" x2="3445" y1="54" y2="156"/><line style="stroke:#008000;stroke-width:1.0;" x1="3445" x2="3489.5" y1="156" y2="156"/><line style="stroke:#008000;stroke-width:1.0;" x1="3489.5" x2="3489.5" y1="156" y2="266"/><polygon fill="#008000" points="3489.5,266,3493.5,257,3489.5,261,3485.5,257,3489.5,266" style="stroke:#008000;stroke-width:1.0;"/><text fill="#000000" font-family="sans-serif" font-size="13" lengthAdjust="spacing" textLength="24" x="3448" y="134.5005">and</text><line style="stroke:#008000;stroke-width:1.0;" x1="240.2" x2="240.2" y1="44" y2="64"/><line style="stroke:#008000;stroke-width:1.0;" x1="240.2" x2="3434" y1="64" y2="64"/><line style="stroke:#008000;stroke-width:1.0;" x1="3434" x2="3434" y1="64" y2="266"/><polygon fill="#008000" points="3434,266,3438,257,3434,261,3430,257,3434,266" style="stroke:#008000;stroke-width:1.0;"/><text fill="#000000" font-family="sans-serif" font-size="13" lengthAdjust="spacing" textLength="24" x="3408" y="134.5005">and</text><line style="stroke:#008000;stroke-width:1.0;" x1="224.1" x2="224.1" y1="44" y2="74"/><line style="stroke:#008000;stroke-width:1.0;" x1="224.1" x2="3078.1" y1="74" y2="74"/><line style="stroke:#008000;stroke-width:1.0;" x1="3078.1" x2="3078.1" y1="74" y2="176"/><line style="stroke:#008000;stroke-width:1.0;" x1="3078.1" x2="2927.25" y1="176" y2="176"/><line style="stroke:#008000;stroke-width:1.0;" x1="2927.25" x2="2927.25" y1="176" y2="266"/><polygon fill="#008000" points="2927.25,266,2931.25,257,2927.25,261,2923.25,257,2927.25,266" style="stroke:#008000;stroke-width:1.0;"/><text fill="#000000" font-family="sans-serif" font-size="13" lengthAdjust="spacing" textLength="21" x="3055.1" y="134.5005">not</text><line style="stroke:#008000;stroke-width:1.0;" x1="191.9" x2="191.9" y1="44" y2="94"/><line style="stroke:#008000;stroke-width:1.0;" x1="191.9" x2="639.7778" y1="94" y2="94"/><line style="stroke:#008000;stroke-width:1.0;" x1="639.7778" x2="639.7778" y1="94" y2="166"/><line style="stroke:#008000;stroke-width:1.0;" x1="639.7778" x2="2817.75" y1="166" y2="166"/><line style="stroke:#008000;stroke-width:1.0;" x1="2817.75" x2="2817.75" y1="166" y2="266"/><polygon fill="#008000" points="2817.75,266,2821.75,257,2817.75,261,2813.75,257,2817.75,266" style="stroke:#008000;stroke-width:1.0;"/><text fill="#000000" font-family="sans-serif" font-size="13" lengthAdjust="spacing" textLength="21" x="616.7778" y="134.5005">not</text><line style="stroke:#008000;stroke-width:1.0;" x1="159.7" x2="159.7" y1="44" y2="54"/><line style="stroke:#008000;stroke-width:1.0;" x1="159.7" x2="164.5" y1="54" y2="54"/><line style="stroke:#008000;stroke-width:1.0;" x1="164.5" x2="164.5" y1="54" y2="236"/><line style="stroke:#008000;stroke-width:1.0;" x1="164.5" x2="887" y1="236" y2="236"/><line style="stroke:#008000;stroke-width:1.0;" x1="887" x2="887" y1="236" y2="266"/><polygon fill="#008000" points="887,266,891,257,887,261,883,257,887,266" style="stroke:#008000;stroke-width:1.0;"/><text fill="#000000" font-family="sans-serif" font-size="13" lengthAdjust="spacing" textLength="13" x="167.5" y="134.5005">or</text><line style="stroke:#008000;stroke-width:1.0;" x1="143.6" x2="143.6" y1="44" y2="54"/><line style="stroke:#008000;stroke-width:1.0;" x1="143.6" x2="153.5" y1="54" y2="54"/><line style="stroke:#008000;stroke-width:1.0;" x1="153.5" x2="153.5" y1="54" y2="256"/><line style="stroke:#008000;stroke-width:1.0;" x1="153.5" x2="834.5" y1="256" y2="256"/><line style="stroke:#008000;stroke-width:1.0;" x1="834.5" x2="834.5" y1="256" y2="266"/><polygon fill="#008000" points="834.5,266,838.5,257,834.5,261,830.5,257,834.5,266" style="stroke:#008000;stroke-width:1.0;"/><text fill="#000000" font-family="sans-serif" font-size="13" lengthAdjust="spacing" textLength="13" x="138.5" y="134.5005">or</text><line style="stroke:#008000;stroke-width:1.0;" x1="127.5" x2="127.5" y1="44" y2="266"/><polygon fill="#008000" points="127.5,266,131.5,257,127.5,261,123.5,257,127.5,266" style="stroke:#008000;stroke-width:1.0;"/><text fill="#000000" font-family="sans-serif" font-size="13" lengthAdjust="spacing" textLength="36" x="89.5" y="134.5005">query</text><rect fill="#DDDDDD" height="79.1875" id="_legend" rx="7.5" ry="7.5" style="stroke:#000000;stroke-width:1.0;" width="161" x="1686" y="372.1875"/><text fill="#000000" font-family="sans-serif" font-size="14" font-weight="bold" lengthAdjust="spacing" textLength="5" x="1691" y="392.1826"> </text><text fill="#000000" font-family="sans-serif" font-size="14" font-weight="bold" lengthAdjust="spacing" textLength="28" x="1708" y="392.1826">line</text><text fill="#000000" filter="url(#bk9u1d8rtlk90)" font-family="sans-serif" font-size="14" lengthAdjust="spacing" textLength="12" x="1691" y="408.4795">   </text><text fill="#000000" font-family="sans-serif" font-size="14" lengthAdjust="spacing" textLength="77" x="1707" y="408.4795">inheritance</text><text fill="#000000" filter="url(#bk9u1d8rtlk91)" font-family="sans-serif" font-size="14" lengthAdjust="spacing" textLength="12" x="1691" y="424.7764">   </text><text fill="#000000" font-family="sans-serif" font-size="14" lengthAdjust="spacing" textLength="129" x="1707" y="424.7764">property reference</text><text fill="#000000" filter="url(#bk9u1d8rtlk92)" font-family="sans-serif" font-size="14" lengthAdjust="spacing" textLength="12" x="1691" y="441.0732">   </text><text fill="#000000" font-family="sans-serif" font-size="14" lengthAdjust="spacing" textLength="131" x="1707" y="441.0732">discriminated class</text><line style="stroke:#000000;stroke-width:1.0;" x1="1691" x2="1842" y1="379.1875" y2="379.1875"/><line style="stroke:#000000;stroke-width:1.0;" x1="1691" x2="1842" y1="395.4844" y2="395.4844"/><line style="stroke:#000000;stroke-width:1.0;" x1="1691" x2="1842" y1="411.7813" y2="411.7813"/><line style="stroke:#000000;stroke-width:1.0;" x1="1691" x2="1842" y1="428.0781" y2="428.0781"/><line style="stroke:#000000;stroke-width:1.0;" x1="1691" x2="1842" y1="444.375" y2="444.375"/><line style="stroke:#000000;stroke-width:1.0;" x1="1691" x2="1691" y1="379.1875" y2="444.375"/><line style="stroke:#000000;stroke-width:1.0;" x1="1703" x2="1703" y1="379.1875" y2="444.375"/><line style="stroke:#000000;stroke-width:1.0;" x1="1842" x2="1842" y1="379.1875" y2="444.375"/><!--MD5=[a86164d15f21cd600dc1f07e2c13f95e]
@startuml
!pragma layout elk
hide empty fields
hide empty methods
legend
|= |= line |
|<back:black>   </back>| inheritance |
|<back:green>   </back>| property reference |
|<back:blue>   </back>| discriminated class |
endlegend
interface OrderSearchQuery [[OrderSearchQuery.svg]]  {
}

interface OrderSearchAndExpression [[OrderSearchAndExpression.svg]] extends OrderSearchCompoundExpression {
    and: [[OrderSearchQuery.svg List<OrderSearchQuery>]]
}
interface OrderSearchCompoundExpression [[OrderSearchCompoundExpression.svg]] extends OrderSearchQuery {
}
interface OrderSearchDateRangeExpression [[OrderSearchDateRangeExpression.svg]] extends OrderSearchQueryExpression {
    range: [[OrderSearchDateRangeValue.svg OrderSearchDateRangeValue]]
}
interface OrderSearchExactExpression [[OrderSearchExactExpression.svg]] extends OrderSearchQueryExpression {
    exact: [[OrderSearchAnyValue.svg OrderSearchAnyValue]]
}
interface OrderSearchExistsExpression [[OrderSearchExistsExpression.svg]] extends OrderSearchQueryExpression {
    exists: [[OrderSearchQueryExpressionValue.svg OrderSearchQueryExpressionValue]]
}
interface OrderSearchFilterExpression [[OrderSearchFilterExpression.svg]] extends OrderSearchCompoundExpression {
    filter: [[OrderSearchQueryExpression.svg List<OrderSearchQueryExpression>]]
}
interface OrderSearchFullTextExpression [[OrderSearchFullTextExpression.svg]] extends OrderSearchQueryExpression {
    fullText: [[OrderSearchFullTextValue.svg OrderSearchFullTextValue]]
}
interface OrderSearchLongRangeExpression [[OrderSearchLongRangeExpression.svg]] extends OrderSearchQueryExpression {
    range: [[OrderSearchLongRangeValue.svg OrderSearchLongRangeValue]]
}
interface OrderSearchNotExpression [[OrderSearchNotExpression.svg]] extends OrderSearchCompoundExpression {
    not: [[OrderSearchQuery.svg List<OrderSearchQuery>]]
}
interface OrderSearchNumberRangeExpression [[OrderSearchNumberRangeExpression.svg]] extends OrderSearchQueryExpression {
    range: [[OrderSearchNumberRangeValue.svg OrderSearchNumberRangeValue]]
}
interface OrderSearchOrExpression [[OrderSearchOrExpression.svg]] extends OrderSearchCompoundExpression {
    or: [[OrderSearchQuery.svg List<OrderSearchQuery>]]
}
interface OrderSearchPrefixExpression [[OrderSearchPrefixExpression.svg]] extends OrderSearchQueryExpression {
    prefix: [[OrderSearchStringValue.svg OrderSearchStringValue]]
}
interface OrderSearchQueryExpression [[OrderSearchQueryExpression.svg]] extends OrderSearchQuery {
}
interface OrderSearchWildCardExpression [[OrderSearchWildCardExpression.svg]] extends OrderSearchQueryExpression {
    wildcard: [[OrderSearchStringValue.svg OrderSearchStringValue]]
}

interface OrderSearchAndExpression [[OrderSearchAndExpression.svg]]  {
    and: [[OrderSearchQuery.svg List<OrderSearchQuery>]]
}
interface OrderSearchNotExpression [[OrderSearchNotExpression.svg]]  {
    not: [[OrderSearchQuery.svg List<OrderSearchQuery>]]
}
interface OrderSearchOrExpression [[OrderSearchOrExpression.svg]]  {
    or: [[OrderSearchQuery.svg List<OrderSearchQuery>]]
}
interface OrderSearchRequest [[OrderSearchRequest.svg]]  {
    query: [[OrderSearchQuery.svg OrderSearchQuery]]
    sort: [[OrderSearchSorting.svg List<OrderSearchSorting>]]
    limit: Integer
    offset: Integer
}

OrderSearchQuery - -> OrderSearchAndExpression #green;text:green : "and"
OrderSearchQuery - -> OrderSearchAndExpression #green;text:green : "and"
OrderSearchQuery - -> OrderSearchNotExpression #green;text:green : "not"
OrderSearchQuery - -> OrderSearchNotExpression #green;text:green : "not"
OrderSearchQuery - -> OrderSearchOrExpression #green;text:green : "or"
OrderSearchQuery - -> OrderSearchOrExpression #green;text:green : "or"
OrderSearchQuery - -> OrderSearchRequest #green;text:green : "query"
@enduml

PlantUML version 1.2022.13(Sat Nov 19 13:22:17 UTC 2022)
(GPL source distribution)
Java Runtime: OpenJDK Runtime Environment
JVM: OpenJDK 64-Bit Server VM
Default Encoding: UTF-8
Language: en
Country: null
--></g></svg>
