<?xml version="1.0" encoding="UTF-8" standalone="no"?><svg xmlns="http://www.w3.org/2000/svg" xmlns:xlink="http://www.w3.org/1999/xlink" contentStyleType="text/css" height="261px" preserveAspectRatio="none" style="width:356px;height:261px;background:#FFFFFF;" version="1.1" viewBox="0 0 356 261" width="356px" zoomAndPan="magnify"><defs><filter height="1" id="beae8uigv9obz0" width="1" x="0" y="0"><feFlood flood-color="#000000" result="flood"/><feComposite in="SourceGraphic" in2="flood" operator="over"/></filter><filter height="1" id="beae8uigv9obz1" width="1" x="0" y="0"><feFlood flood-color="#008000" result="flood"/><feComposite in="SourceGraphic" in2="flood" operator="over"/></filter><filter height="1" id="beae8uigv9obz2" width="1" x="0" y="0"><feFlood flood-color="#0000FF" result="flood"/><feComposite in="SourceGraphic" in2="flood" operator="over"/></filter></defs><g><!--MD5=[037d5c258126b00f07f7558b7e9c87d2]
class OrderCustomFieldRemovedMessagePayload--><a href="OrderCustomFieldRemovedMessagePayload.svg" target="_top" title="OrderCustomFieldRemovedMessagePayload.svg" xlink:actuate="onRequest" xlink:href="OrderCustomFieldRemovedMessagePayload.svg" xlink:show="new" xlink:title="OrderCustomFieldRemovedMessagePayload.svg" xlink:type="simple"><g id="elem_OrderCustomFieldRemovedMessagePayload"><rect codeLine="10" fill="#F1F1F1" height="72.5938" id="OrderCustomFieldRemovedMessagePayload" rx="2.5" ry="2.5" style="stroke:#181818;stroke-width:0.5;" width="337" x="12" y="88.2969"/><ellipse cx="27" cy="104.2969" fill="#B4A7E5" rx="11" ry="11" style="stroke:#181818;stroke-width:1.0;"/><path d="M22.9219,100.0625 L22.9219,97.9063 L30.3125,97.9063 L30.3125,100.0625 L27.8438,100.0625 L27.8438,108.1406 L30.3125,108.1406 L30.3125,110.2969 L22.9219,110.2969 L22.9219,108.1406 L25.3906,108.1406 L25.3906,100.0625 L22.9219,100.0625 Z " fill="#000000"/><text fill="#000000" font-family="sans-serif" font-size="14" font-style="italic" lengthAdjust="spacing" textLength="305" x="41" y="109.1436">OrderCustomFieldRemovedMessagePayload</text><line style="stroke:#181818;stroke-width:0.5;" x1="13" x2="348" y1="120.2969" y2="120.2969"/><text fill="#000000" font-family="sans-serif" font-size="14" lengthAdjust="spacing" textLength="79" x="18" y="137.292">type: String</text><text fill="#000000" font-family="sans-serif" font-size="14" lengthAdjust="spacing" textLength="88" x="18" y="153.5889">name: String</text></g></a><!--MD5=[5eafe6801adca4563f4cad2daaeaa16b]
class OrderMessagePayload--><a href="OrderMessagePayload.svg" target="_top" title="OrderMessagePayload.svg" xlink:actuate="onRequest" xlink:href="OrderMessagePayload.svg" xlink:show="new" xlink:title="OrderMessagePayload.svg" xlink:type="simple"><g id="elem_OrderMessagePayload"><rect codeLine="14" fill="#F1F1F1" height="56.2969" id="OrderMessagePayload" rx="2.5" ry="2.5" style="stroke:#181818;stroke-width:0.5;" width="185" x="88" y="12"/><ellipse cx="103" cy="28" fill="#B4A7E5" rx="11" ry="11" style="stroke:#181818;stroke-width:1.0;"/><path d="M98.9219,23.7656 L98.9219,21.6094 L106.3125,21.6094 L106.3125,23.7656 L103.8438,23.7656 L103.8438,31.8438 L106.3125,31.8438 L106.3125,34 L98.9219,34 L98.9219,31.8438 L101.3906,31.8438 L101.3906,23.7656 L98.9219,23.7656 Z " fill="#000000"/><text fill="#000000" font-family="sans-serif" font-size="14" font-style="italic" lengthAdjust="spacing" textLength="153" x="117" y="32.8467">OrderMessagePayload</text><line style="stroke:#181818;stroke-width:0.5;" x1="89" x2="272" y1="44" y2="44"/><text fill="#000000" font-family="sans-serif" font-size="14" lengthAdjust="spacing" textLength="79" x="94" y="60.9951">type: String</text></g></a><line style="stroke:#181818;stroke-width:1.0;" x1="180.5" x2="180.5" y1="68.2969" y2="88.2969"/><polygon fill="#FFFFFF" points="180.5,68.2969,173.5,87.2969,187.5,87.2969,180.5,68.2969" style="stroke:#181818;stroke-width:1.0;"/><rect fill="#DDDDDD" height="79.1875" id="_legend" rx="7.5" ry="7.5" style="stroke:#000000;stroke-width:1.0;" width="161" x="88" y="161.8906"/><text fill="#000000" font-family="sans-serif" font-size="14" font-weight="bold" lengthAdjust="spacing" textLength="5" x="93" y="181.8857"> </text><text fill="#000000" font-family="sans-serif" font-size="14" font-weight="bold" lengthAdjust="spacing" textLength="28" x="110" y="181.8857">line</text><text fill="#000000" filter="url(#beae8uigv9obz0)" font-family="sans-serif" font-size="14" lengthAdjust="spacing" textLength="12" x="93" y="198.1826">   </text><text fill="#000000" font-family="sans-serif" font-size="14" lengthAdjust="spacing" textLength="77" x="109" y="198.1826">inheritance</text><text fill="#000000" filter="url(#beae8uigv9obz1)" font-family="sans-serif" font-size="14" lengthAdjust="spacing" textLength="12" x="93" y="214.4795">   </text><text fill="#000000" font-family="sans-serif" font-size="14" lengthAdjust="spacing" textLength="129" x="109" y="214.4795">property reference</text><text fill="#000000" filter="url(#beae8uigv9obz2)" font-family="sans-serif" font-size="14" lengthAdjust="spacing" textLength="12" x="93" y="230.7764">   </text><text fill="#000000" font-family="sans-serif" font-size="14" lengthAdjust="spacing" textLength="131" x="109" y="230.7764">discriminated class</text><line style="stroke:#000000;stroke-width:1.0;" x1="93" x2="244" y1="168.8906" y2="168.8906"/><line style="stroke:#000000;stroke-width:1.0;" x1="93" x2="244" y1="185.1875" y2="185.1875"/><line style="stroke:#000000;stroke-width:1.0;" x1="93" x2="244" y1="201.4844" y2="201.4844"/><line style="stroke:#000000;stroke-width:1.0;" x1="93" x2="244" y1="217.7813" y2="217.7813"/><line style="stroke:#000000;stroke-width:1.0;" x1="93" x2="244" y1="234.0781" y2="234.0781"/><line style="stroke:#000000;stroke-width:1.0;" x1="93" x2="93" y1="168.8906" y2="234.0781"/><line style="stroke:#000000;stroke-width:1.0;" x1="105" x2="105" y1="168.8906" y2="234.0781"/><line style="stroke:#000000;stroke-width:1.0;" x1="244" x2="244" y1="168.8906" y2="234.0781"/><!--MD5=[136703bd5f5c44a469690db68b6cefcc]
@startuml
!pragma layout elk
hide empty fields
hide empty methods
legend
|= |= line |
|<back:black>   </back>| inheritance |
|<back:green>   </back>| property reference |
|<back:blue>   </back>| discriminated class |
endlegend
interface OrderCustomFieldRemovedMessagePayload [[OrderCustomFieldRemovedMessagePayload.svg]] extends OrderMessagePayload {
    type: String
    name: String
}
interface OrderMessagePayload [[OrderMessagePayload.svg]]  {
    type: String
}





@enduml

PlantUML version 1.2022.13(Sat Nov 19 13:22:17 UTC 2022)
(GPL source distribution)
Java Runtime: OpenJDK Runtime Environment
JVM: OpenJDK 64-Bit Server VM
Default Encoding: UTF-8
Language: en
Country: null
--></g></svg>
