<?xml version="1.0" encoding="UTF-8" standalone="no"?><svg xmlns="http://www.w3.org/2000/svg" xmlns:xlink="http://www.w3.org/1999/xlink" contentStyleType="text/css" height="398px" preserveAspectRatio="none" style="width:1496px;height:398px;background:#FFFFFF;" version="1.1" viewBox="0 0 1496 398" width="1496px" zoomAndPan="magnify"><defs><filter height="1" id="b76a4ap7ekw340" width="1" x="0" y="0"><feFlood flood-color="#000000" result="flood"/><feComposite in="SourceGraphic" in2="flood" operator="over"/></filter><filter height="1" id="b76a4ap7ekw341" width="1" x="0" y="0"><feFlood flood-color="#008000" result="flood"/><feComposite in="SourceGraphic" in2="flood" operator="over"/></filter><filter height="1" id="b76a4ap7ekw342" width="1" x="0" y="0"><feFlood flood-color="#0000FF" result="flood"/><feComposite in="SourceGraphic" in2="flood" operator="over"/></filter></defs><g><!--MD5=[d487dcf2904bf1c843590a43c1f0d7d3]
class OrderSearchQueryExpressionValue--><a href="OrderSearchQueryExpressionValue.svg" target="_top" title="OrderSearchQueryExpressionValue.svg" xlink:actuate="onRequest" xlink:href="OrderSearchQueryExpressionValue.svg" xlink:show="new" xlink:title="OrderSearchQueryExpressionValue.svg" xlink:type="simple"><g id="elem_OrderSearchQueryExpressionValue"><rect codeLine="10" fill="#F1F1F1" height="88.8906" id="OrderSearchQueryExpressionValue" rx="2.5" ry="2.5" style="stroke:#181818;stroke-width:0.5;" width="275" x="103.2143" y="12"/><ellipse cx="118.2143" cy="28" fill="#B4A7E5" rx="11" ry="11" style="stroke:#181818;stroke-width:1.0;"/><path d="M114.1362,23.7656 L114.1362,21.6094 L121.5268,21.6094 L121.5268,23.7656 L119.058,23.7656 L119.058,31.8438 L121.5268,31.8438 L121.5268,34 L114.1362,34 L114.1362,31.8438 L116.6049,31.8438 L116.6049,23.7656 L114.1362,23.7656 Z " fill="#000000"/><text fill="#000000" font-family="sans-serif" font-size="14" font-style="italic" lengthAdjust="spacing" textLength="243" x="132.2143" y="32.8467">OrderSearchQueryExpressionValue</text><line style="stroke:#181818;stroke-width:0.5;" x1="104.2143" x2="377.2143" y1="44" y2="44"/><text fill="#000000" font-family="sans-serif" font-size="14" lengthAdjust="spacing" textLength="77" x="109.2143" y="60.9951">field: String</text><text fill="#000000" font-family="sans-serif" font-size="14" lengthAdjust="spacing" textLength="98" x="109.2143" y="77.292">boost: Integer</text><text fill="#000000" font-family="sans-serif" font-size="14" lengthAdjust="spacing" textLength="135" x="109.2143" y="93.5889">customType: String</text></g></a><!--MD5=[5e01278078d0646c00174e7e1d326bf1]
class OrderSearchAnyValue--><a href="OrderSearchAnyValue.svg" target="_top" title="OrderSearchAnyValue.svg" xlink:actuate="onRequest" xlink:href="OrderSearchAnyValue.svg" xlink:show="new" xlink:title="OrderSearchAnyValue.svg" xlink:type="simple"><g id="elem_OrderSearchAnyValue"><rect codeLine="16" fill="#F1F1F1" height="137.7813" id="OrderSearchAnyValue" rx="2.5" ry="2.5" style="stroke:#181818;stroke-width:0.5;" width="185" x="1048" y="160.8906"/><ellipse cx="1063" cy="176.8906" fill="#B4A7E5" rx="11" ry="11" style="stroke:#181818;stroke-width:1.0;"/><path d="M1058.9219,172.6563 L1058.9219,170.5 L1066.3125,170.5 L1066.3125,172.6563 L1063.8438,172.6563 L1063.8438,180.7344 L1066.3125,180.7344 L1066.3125,182.8906 L1058.9219,182.8906 L1058.9219,180.7344 L1061.3906,180.7344 L1061.3906,172.6563 L1058.9219,172.6563 Z " fill="#000000"/><text fill="#000000" font-family="sans-serif" font-size="14" font-style="italic" lengthAdjust="spacing" textLength="153" x="1077" y="181.7373">OrderSearchAnyValue</text><line style="stroke:#181818;stroke-width:0.5;" x1="1049" x2="1232" y1="192.8906" y2="192.8906"/><text fill="#000000" font-family="sans-serif" font-size="14" lengthAdjust="spacing" textLength="77" x="1054" y="209.8857">field: String</text><text fill="#000000" font-family="sans-serif" font-size="14" lengthAdjust="spacing" textLength="98" x="1054" y="226.1826">boost: Integer</text><text fill="#000000" font-family="sans-serif" font-size="14" lengthAdjust="spacing" textLength="135" x="1054" y="242.4795">customType: String</text><text fill="#000000" font-family="sans-serif" font-size="14" lengthAdjust="spacing" textLength="41" x="1054" y="258.7764">value:</text><a href="Object.svg" target="_top" title="Object.svg" xlink:actuate="onRequest" xlink:href="Object.svg" xlink:show="new" xlink:title="Object.svg" xlink:type="simple"><text fill="#0000FF" font-family="sans-serif" font-size="14" lengthAdjust="spacing" text-decoration="underline" textLength="45" x="1099" y="258.7764">Object</text></a><text fill="#000000" font-family="sans-serif" font-size="14" lengthAdjust="spacing" textLength="113" x="1054" y="275.0732">language: String</text><text fill="#000000" font-family="sans-serif" font-size="14" lengthAdjust="spacing" textLength="172" x="1054" y="291.3701">caseInsensitive: Boolean</text></g></a><!--MD5=[f0c9abbad87c7a6d6072a592b5275fc2]
class OrderSearchDateRangeValue--><a href="OrderSearchDateRangeValue.svg" target="_top" title="OrderSearchDateRangeValue.svg" xlink:actuate="onRequest" xlink:href="OrderSearchDateRangeValue.svg" xlink:show="new" xlink:title="OrderSearchDateRangeValue.svg" xlink:type="simple"><g id="elem_OrderSearchDateRangeValue"><rect codeLine="24" fill="#F1F1F1" height="121.4844" id="OrderSearchDateRangeValue" rx="2.5" ry="2.5" style="stroke:#181818;stroke-width:0.5;" width="236" x="1253" y="160.8906"/><ellipse cx="1268" cy="176.8906" fill="#B4A7E5" rx="11" ry="11" style="stroke:#181818;stroke-width:1.0;"/><path d="M1263.9219,172.6563 L1263.9219,170.5 L1271.3125,170.5 L1271.3125,172.6563 L1268.8438,172.6563 L1268.8438,180.7344 L1271.3125,180.7344 L1271.3125,182.8906 L1263.9219,182.8906 L1263.9219,180.7344 L1266.3906,180.7344 L1266.3906,172.6563 L1263.9219,172.6563 Z " fill="#000000"/><text fill="#000000" font-family="sans-serif" font-size="14" font-style="italic" lengthAdjust="spacing" textLength="204" x="1282" y="181.7373">OrderSearchDateRangeValue</text><line style="stroke:#181818;stroke-width:0.5;" x1="1254" x2="1488" y1="192.8906" y2="192.8906"/><text fill="#000000" font-family="sans-serif" font-size="14" lengthAdjust="spacing" textLength="77" x="1259" y="209.8857">field: String</text><text fill="#000000" font-family="sans-serif" font-size="14" lengthAdjust="spacing" textLength="98" x="1259" y="226.1826">boost: Integer</text><text fill="#000000" font-family="sans-serif" font-size="14" lengthAdjust="spacing" textLength="135" x="1259" y="242.4795">customType: String</text><text fill="#000000" font-family="sans-serif" font-size="14" lengthAdjust="spacing" textLength="99" x="1259" y="258.7764">gte: DateTime</text><text fill="#000000" font-family="sans-serif" font-size="14" lengthAdjust="spacing" textLength="93" x="1259" y="275.0732">lte: DateTime</text></g></a><!--MD5=[5b1583ef6d42646c3ec51e60dcddd328]
class OrderSearchFullTextValue--><a href="OrderSearchFullTextValue.svg" target="_top" title="OrderSearchFullTextValue.svg" xlink:actuate="onRequest" xlink:href="OrderSearchFullTextValue.svg" xlink:show="new" xlink:title="OrderSearchFullTextValue.svg" xlink:type="simple"><g id="elem_OrderSearchFullTextValue"><rect codeLine="31" fill="#F1F1F1" height="137.7813" id="OrderSearchFullTextValue" rx="2.5" ry="2.5" style="stroke:#181818;stroke-width:0.5;" width="261" x="12" y="160.8906"/><ellipse cx="49.05" cy="176.8906" fill="#B4A7E5" rx="11" ry="11" style="stroke:#181818;stroke-width:1.0;"/><path d="M44.9719,172.6563 L44.9719,170.5 L52.3625,170.5 L52.3625,172.6563 L49.8938,172.6563 L49.8938,180.7344 L52.3625,180.7344 L52.3625,182.8906 L44.9719,182.8906 L44.9719,180.7344 L47.4406,180.7344 L47.4406,172.6563 L44.9719,172.6563 Z " fill="#000000"/><text fill="#000000" font-family="sans-serif" font-size="14" font-style="italic" lengthAdjust="spacing" textLength="180" x="67.95" y="181.7373">OrderSearchFullTextValue</text><line style="stroke:#181818;stroke-width:0.5;" x1="13" x2="272" y1="192.8906" y2="192.8906"/><text fill="#000000" font-family="sans-serif" font-size="14" lengthAdjust="spacing" textLength="77" x="18" y="209.8857">field: String</text><text fill="#000000" font-family="sans-serif" font-size="14" lengthAdjust="spacing" textLength="98" x="18" y="226.1826">boost: Integer</text><text fill="#000000" font-family="sans-serif" font-size="14" lengthAdjust="spacing" textLength="135" x="18" y="242.4795">customType: String</text><text fill="#000000" font-family="sans-serif" font-size="14" lengthAdjust="spacing" textLength="85" x="18" y="258.7764">value: String</text><text fill="#000000" font-family="sans-serif" font-size="14" lengthAdjust="spacing" textLength="113" x="18" y="275.0732">language: String</text><text fill="#000000" font-family="sans-serif" font-size="14" lengthAdjust="spacing" textLength="82" x="18" y="291.3701">mustMatch:</text><a href="OrderSearchMatchType.svg" target="_top" title="OrderSearchMatchType.svg" xlink:actuate="onRequest" xlink:href="OrderSearchMatchType.svg" xlink:show="new" xlink:title="OrderSearchMatchType.svg" xlink:type="simple"><text fill="#0000FF" font-family="sans-serif" font-size="14" lengthAdjust="spacing" text-decoration="underline" textLength="163" x="104" y="291.3701">OrderSearchMatchType</text></a></g></a><!--MD5=[0804a922908771aef5ed1b82029c3534]
class OrderSearchLongRangeValue--><a href="OrderSearchLongRangeValue.svg" target="_top" title="OrderSearchLongRangeValue.svg" xlink:actuate="onRequest" xlink:href="OrderSearchLongRangeValue.svg" xlink:show="new" xlink:title="OrderSearchLongRangeValue.svg" xlink:type="simple"><g id="elem_OrderSearchLongRangeValue"><rect codeLine="39" fill="#F1F1F1" height="121.4844" id="OrderSearchLongRangeValue" rx="2.5" ry="2.5" style="stroke:#181818;stroke-width:0.5;" width="238" x="293" y="160.8906"/><ellipse cx="308" cy="176.8906" fill="#B4A7E5" rx="11" ry="11" style="stroke:#181818;stroke-width:1.0;"/><path d="M303.9219,172.6563 L303.9219,170.5 L311.3125,170.5 L311.3125,172.6563 L308.8438,172.6563 L308.8438,180.7344 L311.3125,180.7344 L311.3125,182.8906 L303.9219,182.8906 L303.9219,180.7344 L306.3906,180.7344 L306.3906,172.6563 L303.9219,172.6563 Z " fill="#000000"/><text fill="#000000" font-family="sans-serif" font-size="14" font-style="italic" lengthAdjust="spacing" textLength="206" x="322" y="181.7373">OrderSearchLongRangeValue</text><line style="stroke:#181818;stroke-width:0.5;" x1="294" x2="530" y1="192.8906" y2="192.8906"/><text fill="#000000" font-family="sans-serif" font-size="14" lengthAdjust="spacing" textLength="77" x="299" y="209.8857">field: String</text><text fill="#000000" font-family="sans-serif" font-size="14" lengthAdjust="spacing" textLength="98" x="299" y="226.1826">boost: Integer</text><text fill="#000000" font-family="sans-serif" font-size="14" lengthAdjust="spacing" textLength="135" x="299" y="242.4795">customType: String</text><text fill="#000000" font-family="sans-serif" font-size="14" lengthAdjust="spacing" textLength="66" x="299" y="258.7764">gte: Long</text><text fill="#000000" font-family="sans-serif" font-size="14" lengthAdjust="spacing" textLength="60" x="299" y="275.0732">lte: Long</text></g></a><!--MD5=[460387a1be16403b117f447f9f0b8502]
class OrderSearchNumberRangeValue--><a href="OrderSearchNumberRangeValue.svg" target="_top" title="OrderSearchNumberRangeValue.svg" xlink:actuate="onRequest" xlink:href="OrderSearchNumberRangeValue.svg" xlink:show="new" xlink:title="OrderSearchNumberRangeValue.svg" xlink:type="simple"><g id="elem_OrderSearchNumberRangeValue"><rect codeLine="46" fill="#F1F1F1" height="121.4844" id="OrderSearchNumberRangeValue" rx="2.5" ry="2.5" style="stroke:#181818;stroke-width:0.5;" width="259" x="551" y="160.8906"/><ellipse cx="566" cy="176.8906" fill="#B4A7E5" rx="11" ry="11" style="stroke:#181818;stroke-width:1.0;"/><path d="M561.9219,172.6563 L561.9219,170.5 L569.3125,170.5 L569.3125,172.6563 L566.8438,172.6563 L566.8438,180.7344 L569.3125,180.7344 L569.3125,182.8906 L561.9219,182.8906 L561.9219,180.7344 L564.3906,180.7344 L564.3906,172.6563 L561.9219,172.6563 Z " fill="#000000"/><text fill="#000000" font-family="sans-serif" font-size="14" font-style="italic" lengthAdjust="spacing" textLength="227" x="580" y="181.7373">OrderSearchNumberRangeValue</text><line style="stroke:#181818;stroke-width:0.5;" x1="552" x2="809" y1="192.8906" y2="192.8906"/><text fill="#000000" font-family="sans-serif" font-size="14" lengthAdjust="spacing" textLength="77" x="557" y="209.8857">field: String</text><text fill="#000000" font-family="sans-serif" font-size="14" lengthAdjust="spacing" textLength="98" x="557" y="226.1826">boost: Integer</text><text fill="#000000" font-family="sans-serif" font-size="14" lengthAdjust="spacing" textLength="135" x="557" y="242.4795">customType: String</text><text fill="#000000" font-family="sans-serif" font-size="14" lengthAdjust="spacing" textLength="82" x="557" y="258.7764">gte: Double</text><text fill="#000000" font-family="sans-serif" font-size="14" lengthAdjust="spacing" textLength="76" x="557" y="275.0732">lte: Double</text></g></a><!--MD5=[28ed39c2e2aca191159ba7cf3b6fedab]
class OrderSearchStringValue--><a href="OrderSearchStringValue.svg" target="_top" title="OrderSearchStringValue.svg" xlink:actuate="onRequest" xlink:href="OrderSearchStringValue.svg" xlink:show="new" xlink:title="OrderSearchStringValue.svg" xlink:type="simple"><g id="elem_OrderSearchStringValue"><rect codeLine="53" fill="#F1F1F1" height="137.7813" id="OrderSearchStringValue" rx="2.5" ry="2.5" style="stroke:#181818;stroke-width:0.5;" width="198" x="830" y="160.8906"/><ellipse cx="845" cy="176.8906" fill="#B4A7E5" rx="11" ry="11" style="stroke:#181818;stroke-width:1.0;"/><path d="M840.9219,172.6563 L840.9219,170.5 L848.3125,170.5 L848.3125,172.6563 L845.8438,172.6563 L845.8438,180.7344 L848.3125,180.7344 L848.3125,182.8906 L840.9219,182.8906 L840.9219,180.7344 L843.3906,180.7344 L843.3906,172.6563 L840.9219,172.6563 Z " fill="#000000"/><text fill="#000000" font-family="sans-serif" font-size="14" font-style="italic" lengthAdjust="spacing" textLength="166" x="859" y="181.7373">OrderSearchStringValue</text><line style="stroke:#181818;stroke-width:0.5;" x1="831" x2="1027" y1="192.8906" y2="192.8906"/><text fill="#000000" font-family="sans-serif" font-size="14" lengthAdjust="spacing" textLength="77" x="836" y="209.8857">field: String</text><text fill="#000000" font-family="sans-serif" font-size="14" lengthAdjust="spacing" textLength="98" x="836" y="226.1826">boost: Integer</text><text fill="#000000" font-family="sans-serif" font-size="14" lengthAdjust="spacing" textLength="135" x="836" y="242.4795">customType: String</text><text fill="#000000" font-family="sans-serif" font-size="14" lengthAdjust="spacing" textLength="85" x="836" y="258.7764">value: String</text><text fill="#000000" font-family="sans-serif" font-size="14" lengthAdjust="spacing" textLength="113" x="836" y="275.0732">language: String</text><text fill="#000000" font-family="sans-serif" font-size="14" lengthAdjust="spacing" textLength="172" x="836" y="291.3701">caseInsensitive: Boolean</text></g></a><line style="stroke:#181818;stroke-width:1.0;" x1="299.6429" x2="299.6429" y1="100.8906" y2="120.8906"/><line style="stroke:#181818;stroke-width:1.0;" x1="299.6429" x2="1140.5" y1="120.8906" y2="120.8906"/><line style="stroke:#181818;stroke-width:1.0;" x1="1140.5" x2="1140.5" y1="120.8906" y2="160.8906"/><polygon fill="#FFFFFF" points="299.6429,100.8906,292.6429,119.8906,306.6429,119.8906,299.6429,100.8906" style="stroke:#181818;stroke-width:1.0;"/><line style="stroke:#181818;stroke-width:1.0;" x1="338.9286" x2="338.9286" y1="100.8906" y2="110.8906"/><line style="stroke:#181818;stroke-width:1.0;" x1="338.9286" x2="1371" y1="110.8906" y2="110.8906"/><line style="stroke:#181818;stroke-width:1.0;" x1="1371" x2="1371" y1="110.8906" y2="160.8906"/><polygon fill="#FFFFFF" points="338.9286,100.8906,331.9286,119.8906,345.9286,119.8906,338.9286,100.8906" style="stroke:#181818;stroke-width:1.0;"/><line style="stroke:#181818;stroke-width:1.0;" x1="142.5" x2="142.5" y1="100.8906" y2="160.8906"/><polygon fill="#FFFFFF" points="142.5,100.8906,135.5,119.8906,149.5,119.8906,142.5,100.8906" style="stroke:#181818;stroke-width:1.0;"/><line style="stroke:#181818;stroke-width:1.0;" x1="181.7857" x2="181.7857" y1="100.8906" y2="150.8906"/><line style="stroke:#181818;stroke-width:1.0;" x1="181.7857" x2="412" y1="150.8906" y2="150.8906"/><line style="stroke:#181818;stroke-width:1.0;" x1="412" x2="412" y1="150.8906" y2="160.8906"/><polygon fill="#FFFFFF" points="181.7857,100.8906,174.7857,119.8906,188.7857,119.8906,181.7857,100.8906" style="stroke:#181818;stroke-width:1.0;"/><line style="stroke:#181818;stroke-width:1.0;" x1="221.0714" x2="221.0714" y1="100.8906" y2="140.8906"/><line style="stroke:#181818;stroke-width:1.0;" x1="221.0714" x2="680.5" y1="140.8906" y2="140.8906"/><line style="stroke:#181818;stroke-width:1.0;" x1="680.5" x2="680.5" y1="140.8906" y2="160.8906"/><polygon fill="#FFFFFF" points="221.0714,100.8906,214.0714,119.8906,228.0714,119.8906,221.0714,100.8906" style="stroke:#181818;stroke-width:1.0;"/><line style="stroke:#181818;stroke-width:1.0;" x1="260.3571" x2="260.3571" y1="100.8906" y2="130.8906"/><line style="stroke:#181818;stroke-width:1.0;" x1="260.3571" x2="929" y1="130.8906" y2="130.8906"/><line style="stroke:#181818;stroke-width:1.0;" x1="929" x2="929" y1="130.8906" y2="160.8906"/><polygon fill="#FFFFFF" points="260.3571,100.8906,253.3571,119.8906,267.3571,119.8906,260.3571,100.8906" style="stroke:#181818;stroke-width:1.0;"/><rect fill="#DDDDDD" height="79.1875" id="_legend" rx="7.5" ry="7.5" style="stroke:#000000;stroke-width:1.0;" width="161" x="658" y="299.6719"/><text fill="#000000" font-family="sans-serif" font-size="14" font-weight="bold" lengthAdjust="spacing" textLength="5" x="663" y="319.667"> </text><text fill="#000000" font-family="sans-serif" font-size="14" font-weight="bold" lengthAdjust="spacing" textLength="28" x="680" y="319.667">line</text><text fill="#000000" filter="url(#b76a4ap7ekw340)" font-family="sans-serif" font-size="14" lengthAdjust="spacing" textLength="12" x="663" y="335.9639">   </text><text fill="#000000" font-family="sans-serif" font-size="14" lengthAdjust="spacing" textLength="77" x="679" y="335.9639">inheritance</text><text fill="#000000" filter="url(#b76a4ap7ekw341)" font-family="sans-serif" font-size="14" lengthAdjust="spacing" textLength="12" x="663" y="352.2607">   </text><text fill="#000000" font-family="sans-serif" font-size="14" lengthAdjust="spacing" textLength="129" x="679" y="352.2607">property reference</text><text fill="#000000" filter="url(#b76a4ap7ekw342)" font-family="sans-serif" font-size="14" lengthAdjust="spacing" textLength="12" x="663" y="368.5576">   </text><text fill="#000000" font-family="sans-serif" font-size="14" lengthAdjust="spacing" textLength="131" x="679" y="368.5576">discriminated class</text><line style="stroke:#000000;stroke-width:1.0;" x1="663" x2="814" y1="306.6719" y2="306.6719"/><line style="stroke:#000000;stroke-width:1.0;" x1="663" x2="814" y1="322.9688" y2="322.9688"/><line style="stroke:#000000;stroke-width:1.0;" x1="663" x2="814" y1="339.2656" y2="339.2656"/><line style="stroke:#000000;stroke-width:1.0;" x1="663" x2="814" y1="355.5625" y2="355.5625"/><line style="stroke:#000000;stroke-width:1.0;" x1="663" x2="814" y1="371.8594" y2="371.8594"/><line style="stroke:#000000;stroke-width:1.0;" x1="663" x2="663" y1="306.6719" y2="371.8594"/><line style="stroke:#000000;stroke-width:1.0;" x1="675" x2="675" y1="306.6719" y2="371.8594"/><line style="stroke:#000000;stroke-width:1.0;" x1="814" x2="814" y1="306.6719" y2="371.8594"/><!--MD5=[c4f29b12fa822746d387df4d6241c892]
@startuml
!pragma layout elk
hide empty fields
hide empty methods
legend
|= |= line |
|<back:black>   </back>| inheritance |
|<back:green>   </back>| property reference |
|<back:blue>   </back>| discriminated class |
endlegend
interface OrderSearchQueryExpressionValue [[OrderSearchQueryExpressionValue.svg]]  {
    field: String
    boost: Integer
    customType: String
}

interface OrderSearchAnyValue [[OrderSearchAnyValue.svg]] extends OrderSearchQueryExpressionValue {
    field: String
    boost: Integer
    customType: String
    value: [[Object.svg Object]]
    language: String
    caseInsensitive: Boolean
}
interface OrderSearchDateRangeValue [[OrderSearchDateRangeValue.svg]] extends OrderSearchQueryExpressionValue {
    field: String
    boost: Integer
    customType: String
    gte: DateTime
    lte: DateTime
}
interface OrderSearchFullTextValue [[OrderSearchFullTextValue.svg]] extends OrderSearchQueryExpressionValue {
    field: String
    boost: Integer
    customType: String
    value: String
    language: String
    mustMatch: [[OrderSearchMatchType.svg OrderSearchMatchType]]
}
interface OrderSearchLongRangeValue [[OrderSearchLongRangeValue.svg]] extends OrderSearchQueryExpressionValue {
    field: String
    boost: Integer
    customType: String
    gte: Long
    lte: Long
}
interface OrderSearchNumberRangeValue [[OrderSearchNumberRangeValue.svg]] extends OrderSearchQueryExpressionValue {
    field: String
    boost: Integer
    customType: String
    gte: Double
    lte: Double
}
interface OrderSearchStringValue [[OrderSearchStringValue.svg]] extends OrderSearchQueryExpressionValue {
    field: String
    boost: Integer
    customType: String
    value: String
    language: String
    caseInsensitive: Boolean
}




@enduml

PlantUML version 1.2022.13(Sat Nov 19 13:22:17 UTC 2022)
(GPL source distribution)
Java Runtime: OpenJDK Runtime Environment
JVM: OpenJDK 64-Bit Server VM
Default Encoding: UTF-8
Language: en
Country: null
--></g></svg>
