<?xml version="1.0" encoding="UTF-8" standalone="no"?><svg xmlns="http://www.w3.org/2000/svg" xmlns:xlink="http://www.w3.org/1999/xlink" contentStyleType="text/css" height="428px" preserveAspectRatio="none" style="width:2371px;height:428px;background:#FFFFFF;" version="1.1" viewBox="0 0 2371 428" width="2371px" zoomAndPan="magnify"><defs><filter height="1" id="bk2by9fb9cr9m0" width="1" x="0" y="0"><feFlood flood-color="#000000" result="flood"/><feComposite in="SourceGraphic" in2="flood" operator="over"/></filter><filter height="1" id="bk2by9fb9cr9m1" width="1" x="0" y="0"><feFlood flood-color="#008000" result="flood"/><feComposite in="SourceGraphic" in2="flood" operator="over"/></filter><filter height="1" id="bk2by9fb9cr9m2" width="1" x="0" y="0"><feFlood flood-color="#0000FF" result="flood"/><feComposite in="SourceGraphic" in2="flood" operator="over"/></filter></defs><g><!--MD5=[49e42dc85677f6a41ef340884c6ffe54]
class OrderSearchQueryExpression--><a href="OrderSearchQueryExpression.svg" target="_top" title="OrderSearchQueryExpression.svg" xlink:actuate="onRequest" xlink:href="OrderSearchQueryExpression.svg" xlink:show="new" xlink:title="OrderSearchQueryExpression.svg" xlink:type="simple"><g id="elem_OrderSearchQueryExpression"><rect codeLine="10" fill="#F1F1F1" height="32" id="OrderSearchQueryExpression" rx="2.5" ry="2.5" style="stroke:#181818;stroke-width:0.5;" width="236" x="126.5455" y="64"/><ellipse cx="141.5455" cy="80" fill="#B4A7E5" rx="11" ry="11" style="stroke:#181818;stroke-width:1.0;"/><path d="M137.4673,75.7656 L137.4673,73.6094 L144.858,73.6094 L144.858,75.7656 L142.3892,75.7656 L142.3892,83.8438 L144.858,83.8438 L144.858,86 L137.4673,86 L137.4673,83.8438 L139.9361,83.8438 L139.9361,75.7656 L137.4673,75.7656 Z " fill="#000000"/><text fill="#000000" font-family="sans-serif" font-size="14" font-style="italic" lengthAdjust="spacing" textLength="204" x="155.5455" y="84.8467">OrderSearchQueryExpression</text></g></a><!--MD5=[b1fc467efb251bce9fd52820bb16e14c]
class OrderSearchQuery--><a href="OrderSearchQuery.svg" target="_top" title="OrderSearchQuery.svg" xlink:actuate="onRequest" xlink:href="OrderSearchQuery.svg" xlink:show="new" xlink:title="OrderSearchQuery.svg" xlink:type="simple"><g id="elem_OrderSearchQuery"><rect codeLine="12" fill="#F1F1F1" height="32" id="OrderSearchQuery" rx="2.5" ry="2.5" style="stroke:#181818;stroke-width:0.5;" width="161" x="164.0455" y="12"/><ellipse cx="179.0455" cy="28" fill="#B4A7E5" rx="11" ry="11" style="stroke:#181818;stroke-width:1.0;"/><path d="M174.9673,23.7656 L174.9673,21.6094 L182.358,21.6094 L182.358,23.7656 L179.8892,23.7656 L179.8892,31.8438 L182.358,31.8438 L182.358,34 L174.9673,34 L174.9673,31.8438 L177.4361,31.8438 L177.4361,23.7656 L174.9673,23.7656 Z " fill="#000000"/><text fill="#000000" font-family="sans-serif" font-size="14" font-style="italic" lengthAdjust="spacing" textLength="129" x="193.0455" y="32.8467">OrderSearchQuery</text></g></a><!--MD5=[7d930f9f8a35eff17a99d36d2d237be9]
class OrderSearchDateRangeExpression--><a href="OrderSearchDateRangeExpression.svg" target="_top" title="OrderSearchDateRangeExpression.svg" xlink:actuate="onRequest" xlink:href="OrderSearchDateRangeExpression.svg" xlink:show="new" xlink:title="OrderSearchDateRangeExpression.svg" xlink:type="simple"><g id="elem_OrderSearchDateRangeExpression"><rect codeLine="14" fill="#F1F1F1" height="56.2969" id="OrderSearchDateRangeExpression" rx="2.5" ry="2.5" style="stroke:#181818;stroke-width:0.5;" width="272" x="12" y="196"/><ellipse cx="27" cy="212" fill="#B4A7E5" rx="11" ry="11" style="stroke:#181818;stroke-width:1.0;"/><path d="M22.9219,207.7656 L22.9219,205.6094 L30.3125,205.6094 L30.3125,207.7656 L27.8438,207.7656 L27.8438,215.8438 L30.3125,215.8438 L30.3125,218 L22.9219,218 L22.9219,215.8438 L25.3906,215.8438 L25.3906,207.7656 L22.9219,207.7656 Z " fill="#000000"/><text fill="#000000" font-family="sans-serif" font-size="14" font-style="italic" lengthAdjust="spacing" textLength="240" x="41" y="216.8467">OrderSearchDateRangeExpression</text><line style="stroke:#181818;stroke-width:0.5;" x1="13" x2="283" y1="228" y2="228"/><text fill="#000000" font-family="sans-serif" font-size="14" lengthAdjust="spacing" textLength="45" x="18" y="244.9951">range:</text><a href="OrderSearchDateRangeValue.svg" target="_top" title="OrderSearchDateRangeValue.svg" xlink:actuate="onRequest" xlink:href="OrderSearchDateRangeValue.svg" xlink:show="new" xlink:title="OrderSearchDateRangeValue.svg" xlink:type="simple"><text fill="#0000FF" font-family="sans-serif" font-size="14" lengthAdjust="spacing" text-decoration="underline" textLength="203" x="67" y="244.9951">OrderSearchDateRangeValue</text></a></g></a><!--MD5=[14eae8a6ba292e2a61638033077abc1f]
class OrderSearchExactExpression--><a href="OrderSearchExactExpression.svg" target="_top" title="OrderSearchExactExpression.svg" xlink:actuate="onRequest" xlink:href="OrderSearchExactExpression.svg" xlink:show="new" xlink:title="OrderSearchExactExpression.svg" xlink:type="simple"><g id="elem_OrderSearchExactExpression"><rect codeLine="17" fill="#F1F1F1" height="56.2969" id="OrderSearchExactExpression" rx="2.5" ry="2.5" style="stroke:#181818;stroke-width:0.5;" width="232" x="1830" y="196"/><ellipse cx="1845" cy="212" fill="#B4A7E5" rx="11" ry="11" style="stroke:#181818;stroke-width:1.0;"/><path d="M1840.9219,207.7656 L1840.9219,205.6094 L1848.3125,205.6094 L1848.3125,207.7656 L1845.8438,207.7656 L1845.8438,215.8438 L1848.3125,215.8438 L1848.3125,218 L1840.9219,218 L1840.9219,215.8438 L1843.3906,215.8438 L1843.3906,207.7656 L1840.9219,207.7656 Z " fill="#000000"/><text fill="#000000" font-family="sans-serif" font-size="14" font-style="italic" lengthAdjust="spacing" textLength="200" x="1859" y="216.8467">OrderSearchExactExpression</text><line style="stroke:#181818;stroke-width:0.5;" x1="1831" x2="2061" y1="228" y2="228"/><text fill="#000000" font-family="sans-serif" font-size="14" lengthAdjust="spacing" textLength="42" x="1836" y="244.9951">exact:</text><a href="OrderSearchAnyValue.svg" target="_top" title="OrderSearchAnyValue.svg" xlink:actuate="onRequest" xlink:href="OrderSearchAnyValue.svg" xlink:show="new" xlink:title="OrderSearchAnyValue.svg" xlink:type="simple"><text fill="#0000FF" font-family="sans-serif" font-size="14" lengthAdjust="spacing" text-decoration="underline" textLength="150" x="1882" y="244.9951">OrderSearchAnyValue</text></a></g></a><!--MD5=[effa7c70c76aa4119741fd3739788988]
class OrderSearchExistsExpression--><a href="OrderSearchExistsExpression.svg" target="_top" title="OrderSearchExistsExpression.svg" xlink:actuate="onRequest" xlink:href="OrderSearchExistsExpression.svg" xlink:show="new" xlink:title="OrderSearchExistsExpression.svg" xlink:type="simple"><g id="elem_OrderSearchExistsExpression"><rect codeLine="20" fill="#F1F1F1" height="56.2969" id="OrderSearchExistsExpression" rx="2.5" ry="2.5" style="stroke:#181818;stroke-width:0.5;" width="303" x="887" y="196"/><ellipse cx="933.75" cy="212" fill="#B4A7E5" rx="11" ry="11" style="stroke:#181818;stroke-width:1.0;"/><path d="M929.6719,207.7656 L929.6719,205.6094 L937.0625,205.6094 L937.0625,207.7656 L934.5938,207.7656 L934.5938,215.8438 L937.0625,215.8438 L937.0625,218 L929.6719,218 L929.6719,215.8438 L932.1406,215.8438 L932.1406,207.7656 L929.6719,207.7656 Z " fill="#000000"/><text fill="#000000" font-family="sans-serif" font-size="14" font-style="italic" lengthAdjust="spacing" textLength="201" x="954.25" y="216.8467">OrderSearchExistsExpression</text><line style="stroke:#181818;stroke-width:0.5;" x1="888" x2="1189" y1="228" y2="228"/><text fill="#000000" font-family="sans-serif" font-size="14" lengthAdjust="spacing" textLength="45" x="893" y="244.9951">exists:</text><a href="OrderSearchQueryExpressionValue.svg" target="_top" title="OrderSearchQueryExpressionValue.svg" xlink:actuate="onRequest" xlink:href="OrderSearchQueryExpressionValue.svg" xlink:show="new" xlink:title="OrderSearchQueryExpressionValue.svg" xlink:type="simple"><text fill="#0000FF" font-family="sans-serif" font-size="14" lengthAdjust="spacing" text-decoration="underline" textLength="242" x="942" y="244.9951">OrderSearchQueryExpressionValue</text></a></g></a><!--MD5=[0443c8cd8c5f9163c0993f7233b9d39e]
class OrderSearchFullTextExpression--><a href="OrderSearchFullTextExpression.svg" target="_top" title="OrderSearchFullTextExpression.svg" xlink:actuate="onRequest" xlink:href="OrderSearchFullTextExpression.svg" xlink:show="new" xlink:title="OrderSearchFullTextExpression.svg" xlink:type="simple"><g id="elem_OrderSearchFullTextExpression"><rect codeLine="23" fill="#F1F1F1" height="56.2969" id="OrderSearchFullTextExpression" rx="2.5" ry="2.5" style="stroke:#181818;stroke-width:0.5;" width="248" x="304" y="196"/><ellipse cx="319" cy="212" fill="#B4A7E5" rx="11" ry="11" style="stroke:#181818;stroke-width:1.0;"/><path d="M314.9219,207.7656 L314.9219,205.6094 L322.3125,205.6094 L322.3125,207.7656 L319.8438,207.7656 L319.8438,215.8438 L322.3125,215.8438 L322.3125,218 L314.9219,218 L314.9219,215.8438 L317.3906,215.8438 L317.3906,207.7656 L314.9219,207.7656 Z " fill="#000000"/><text fill="#000000" font-family="sans-serif" font-size="14" font-style="italic" lengthAdjust="spacing" textLength="216" x="333" y="216.8467">OrderSearchFullTextExpression</text><line style="stroke:#181818;stroke-width:0.5;" x1="305" x2="551" y1="228" y2="228"/><text fill="#000000" font-family="sans-serif" font-size="14" lengthAdjust="spacing" textLength="54" x="310" y="244.9951">fullText:</text><a href="OrderSearchFullTextValue.svg" target="_top" title="OrderSearchFullTextValue.svg" xlink:actuate="onRequest" xlink:href="OrderSearchFullTextValue.svg" xlink:show="new" xlink:title="OrderSearchFullTextValue.svg" xlink:type="simple"><text fill="#0000FF" font-family="sans-serif" font-size="14" lengthAdjust="spacing" text-decoration="underline" textLength="178" x="368" y="244.9951">OrderSearchFullTextValue</text></a></g></a><!--MD5=[818f129c7541f27a46eb5ba896d3d5bb]
class OrderSearchLongRangeExpression--><a href="OrderSearchLongRangeExpression.svg" target="_top" title="OrderSearchLongRangeExpression.svg" xlink:actuate="onRequest" xlink:href="OrderSearchLongRangeExpression.svg" xlink:show="new" xlink:title="OrderSearchLongRangeExpression.svg" xlink:type="simple"><g id="elem_OrderSearchLongRangeExpression"><rect codeLine="26" fill="#F1F1F1" height="56.2969" id="OrderSearchLongRangeExpression" rx="2.5" ry="2.5" style="stroke:#181818;stroke-width:0.5;" width="274" x="1261" y="196"/><ellipse cx="1276" cy="212" fill="#B4A7E5" rx="11" ry="11" style="stroke:#181818;stroke-width:1.0;"/><path d="M1271.9219,207.7656 L1271.9219,205.6094 L1279.3125,205.6094 L1279.3125,207.7656 L1276.8438,207.7656 L1276.8438,215.8438 L1279.3125,215.8438 L1279.3125,218 L1271.9219,218 L1271.9219,215.8438 L1274.3906,215.8438 L1274.3906,207.7656 L1271.9219,207.7656 Z " fill="#000000"/><text fill="#000000" font-family="sans-serif" font-size="14" font-style="italic" lengthAdjust="spacing" textLength="242" x="1290" y="216.8467">OrderSearchLongRangeExpression</text><line style="stroke:#181818;stroke-width:0.5;" x1="1262" x2="1534" y1="228" y2="228"/><text fill="#000000" font-family="sans-serif" font-size="14" lengthAdjust="spacing" textLength="45" x="1267" y="244.9951">range:</text><a href="OrderSearchLongRangeValue.svg" target="_top" title="OrderSearchLongRangeValue.svg" xlink:actuate="onRequest" xlink:href="OrderSearchLongRangeValue.svg" xlink:show="new" xlink:title="OrderSearchLongRangeValue.svg" xlink:type="simple"><text fill="#0000FF" font-family="sans-serif" font-size="14" lengthAdjust="spacing" text-decoration="underline" textLength="204" x="1316" y="244.9951">OrderSearchLongRangeValue</text></a></g></a><!--MD5=[d7671d8a67847951b9407f369982ac0b]
class OrderSearchNumberRangeExpression--><a href="OrderSearchNumberRangeExpression.svg" target="_top" title="OrderSearchNumberRangeExpression.svg" xlink:actuate="onRequest" xlink:href="OrderSearchNumberRangeExpression.svg" xlink:show="new" xlink:title="OrderSearchNumberRangeExpression.svg" xlink:type="simple"><g id="elem_OrderSearchNumberRangeExpression"><rect codeLine="29" fill="#F1F1F1" height="56.2969" id="OrderSearchNumberRangeExpression" rx="2.5" ry="2.5" style="stroke:#181818;stroke-width:0.5;" width="295" x="572" y="196"/><ellipse cx="587" cy="212" fill="#B4A7E5" rx="11" ry="11" style="stroke:#181818;stroke-width:1.0;"/><path d="M582.9219,207.7656 L582.9219,205.6094 L590.3125,205.6094 L590.3125,207.7656 L587.8438,207.7656 L587.8438,215.8438 L590.3125,215.8438 L590.3125,218 L582.9219,218 L582.9219,215.8438 L585.3906,215.8438 L585.3906,207.7656 L582.9219,207.7656 Z " fill="#000000"/><text fill="#000000" font-family="sans-serif" font-size="14" font-style="italic" lengthAdjust="spacing" textLength="263" x="601" y="216.8467">OrderSearchNumberRangeExpression</text><line style="stroke:#181818;stroke-width:0.5;" x1="573" x2="866" y1="228" y2="228"/><text fill="#000000" font-family="sans-serif" font-size="14" lengthAdjust="spacing" textLength="45" x="578" y="244.9951">range:</text><a href="OrderSearchNumberRangeValue.svg" target="_top" title="OrderSearchNumberRangeValue.svg" xlink:actuate="onRequest" xlink:href="OrderSearchNumberRangeValue.svg" xlink:show="new" xlink:title="OrderSearchNumberRangeValue.svg" xlink:type="simple"><text fill="#0000FF" font-family="sans-serif" font-size="14" lengthAdjust="spacing" text-decoration="underline" textLength="225" x="627" y="244.9951">OrderSearchNumberRangeValue</text></a></g></a><!--MD5=[a579db98305edfa470ff9d27ed9f9fa8]
class OrderSearchPrefixExpression--><a href="OrderSearchPrefixExpression.svg" target="_top" title="OrderSearchPrefixExpression.svg" xlink:actuate="onRequest" xlink:href="OrderSearchPrefixExpression.svg" xlink:show="new" xlink:title="OrderSearchPrefixExpression.svg" xlink:type="simple"><g id="elem_OrderSearchPrefixExpression"><rect codeLine="32" fill="#F1F1F1" height="56.2969" id="OrderSearchPrefixExpression" rx="2.5" ry="2.5" style="stroke:#181818;stroke-width:0.5;" width="231" x="2082" y="196"/><ellipse cx="2097" cy="212" fill="#B4A7E5" rx="11" ry="11" style="stroke:#181818;stroke-width:1.0;"/><path d="M2092.9219,207.7656 L2092.9219,205.6094 L2100.3125,205.6094 L2100.3125,207.7656 L2097.8438,207.7656 L2097.8438,215.8438 L2100.3125,215.8438 L2100.3125,218 L2092.9219,218 L2092.9219,215.8438 L2095.3906,215.8438 L2095.3906,207.7656 L2092.9219,207.7656 Z " fill="#000000"/><text fill="#000000" font-family="sans-serif" font-size="14" font-style="italic" lengthAdjust="spacing" textLength="199" x="2111" y="216.8467">OrderSearchPrefixExpression</text><line style="stroke:#181818;stroke-width:0.5;" x1="2083" x2="2312" y1="228" y2="228"/><text fill="#000000" font-family="sans-serif" font-size="14" lengthAdjust="spacing" textLength="42" x="2088" y="244.9951">prefix:</text><a href="OrderSearchStringValue.svg" target="_top" title="OrderSearchStringValue.svg" xlink:actuate="onRequest" xlink:href="OrderSearchStringValue.svg" xlink:show="new" xlink:title="OrderSearchStringValue.svg" xlink:type="simple"><text fill="#0000FF" font-family="sans-serif" font-size="14" lengthAdjust="spacing" text-decoration="underline" textLength="165" x="2134" y="244.9951">OrderSearchStringValue</text></a></g></a><!--MD5=[8177efc529999fddfd3965fbcaaac2d1]
class OrderSearchWildCardExpression--><a href="OrderSearchWildCardExpression.svg" target="_top" title="OrderSearchWildCardExpression.svg" xlink:actuate="onRequest" xlink:href="OrderSearchWildCardExpression.svg" xlink:show="new" xlink:title="OrderSearchWildCardExpression.svg" xlink:type="simple"><g id="elem_OrderSearchWildCardExpression"><rect codeLine="35" fill="#F1F1F1" height="56.2969" id="OrderSearchWildCardExpression" rx="2.5" ry="2.5" style="stroke:#181818;stroke-width:0.5;" width="255" x="1555" y="196"/><ellipse cx="1570" cy="212" fill="#B4A7E5" rx="11" ry="11" style="stroke:#181818;stroke-width:1.0;"/><path d="M1565.9219,207.7656 L1565.9219,205.6094 L1573.3125,205.6094 L1573.3125,207.7656 L1570.8438,207.7656 L1570.8438,215.8438 L1573.3125,215.8438 L1573.3125,218 L1565.9219,218 L1565.9219,215.8438 L1568.3906,215.8438 L1568.3906,207.7656 L1565.9219,207.7656 Z " fill="#000000"/><text fill="#000000" font-family="sans-serif" font-size="14" font-style="italic" lengthAdjust="spacing" textLength="223" x="1584" y="216.8467">OrderSearchWildCardExpression</text><line style="stroke:#181818;stroke-width:0.5;" x1="1556" x2="1809" y1="228" y2="228"/><text fill="#000000" font-family="sans-serif" font-size="14" lengthAdjust="spacing" textLength="61" x="1561" y="244.9951">wildcard:</text><a href="OrderSearchStringValue.svg" target="_top" title="OrderSearchStringValue.svg" xlink:actuate="onRequest" xlink:href="OrderSearchStringValue.svg" xlink:show="new" xlink:title="OrderSearchStringValue.svg" xlink:type="simple"><text fill="#0000FF" font-family="sans-serif" font-size="14" lengthAdjust="spacing" text-decoration="underline" textLength="165" x="1626" y="244.9951">OrderSearchStringValue</text></a></g></a><!--MD5=[bc7bc33d31e464064e236f2744147299]
class OrderSearchFilterExpression--><a href="OrderSearchFilterExpression.svg" target="_top" title="OrderSearchFilterExpression.svg" xlink:actuate="onRequest" xlink:href="OrderSearchFilterExpression.svg" xlink:show="new" xlink:title="OrderSearchFilterExpression.svg" xlink:type="simple"><g id="elem_OrderSearchFilterExpression"><rect codeLine="39" fill="#F1F1F1" height="56.2969" id="OrderSearchFilterExpression" rx="2.5" ry="2.5" style="stroke:#181818;stroke-width:0.5;" width="301" x="1139.6667" y="272.2969"/><ellipse cx="1188.4167" cy="288.2969" fill="#B4A7E5" rx="11" ry="11" style="stroke:#181818;stroke-width:1.0;"/><path d="M1184.3385,284.0625 L1184.3385,281.9063 L1191.7292,281.9063 L1191.7292,284.0625 L1189.2604,284.0625 L1189.2604,292.1406 L1191.7292,292.1406 L1191.7292,294.2969 L1184.3385,294.2969 L1184.3385,292.1406 L1186.8073,292.1406 L1186.8073,284.0625 L1184.3385,284.0625 Z " fill="#000000"/><text fill="#000000" font-family="sans-serif" font-size="14" font-style="italic" lengthAdjust="spacing" textLength="195" x="1208.9167" y="293.1436">OrderSearchFilterExpression</text><line style="stroke:#181818;stroke-width:0.5;" x1="1140.6667" x2="1439.6667" y1="304.2969" y2="304.2969"/><text fill="#000000" font-family="sans-serif" font-size="14" lengthAdjust="spacing" textLength="34" x="1145.6667" y="321.292">filter:</text><a href="OrderSearchQueryExpression.svg" target="_top" title="OrderSearchQueryExpression.svg" xlink:actuate="onRequest" xlink:href="OrderSearchQueryExpression.svg" xlink:show="new" xlink:title="OrderSearchQueryExpression.svg" xlink:type="simple"><text fill="#0000FF" font-family="sans-serif" font-size="14" lengthAdjust="spacing" text-decoration="underline" textLength="251" x="1183.6667" y="321.292">List&lt;OrderSearchQueryExpression&gt;</text></a></g></a><line style="stroke:#181818;stroke-width:1.0;" x1="244.5455" x2="244.5455" y1="44" y2="64"/><polygon fill="#FFFFFF" points="244.5455,44,237.5455,63,251.5455,63,244.5455,44" style="stroke:#181818;stroke-width:1.0;"/><line style="stroke:#181818;stroke-width:1.0;" x1="148" x2="148" y1="96" y2="196"/><polygon fill="#FFFFFF" points="148,96,141,115,155,115,148,96" style="stroke:#181818;stroke-width:1.0;"/><line style="stroke:#181818;stroke-width:1.0;" x1="298.1818" x2="298.1818" y1="96" y2="126"/><line style="stroke:#181818;stroke-width:1.0;" x1="298.1818" x2="1946" y1="126" y2="126"/><line style="stroke:#181818;stroke-width:1.0;" x1="1946" x2="1946" y1="126" y2="196"/><polygon fill="#FFFFFF" points="298.1818,96,291.1818,115,305.1818,115,298.1818,96" style="stroke:#181818;stroke-width:1.0;"/><line style="stroke:#181818;stroke-width:1.0;" x1="212.3636" x2="212.3636" y1="96" y2="166"/><line style="stroke:#181818;stroke-width:1.0;" x1="212.3636" x2="1038.5" y1="166" y2="166"/><line style="stroke:#181818;stroke-width:1.0;" x1="1038.5" x2="1038.5" y1="166" y2="196"/><polygon fill="#FFFFFF" points="212.3636,96,205.3636,115,219.3636,115,212.3636,96" style="stroke:#181818;stroke-width:1.0;"/><line style="stroke:#181818;stroke-width:1.0;" x1="169.4545" x2="169.4545" y1="96" y2="186"/><line style="stroke:#181818;stroke-width:1.0;" x1="169.4545" x2="428" y1="186" y2="186"/><line style="stroke:#181818;stroke-width:1.0;" x1="428" x2="428" y1="186" y2="196"/><polygon fill="#FFFFFF" points="169.4545,96,162.4545,115,176.4545,115,169.4545,96" style="stroke:#181818;stroke-width:1.0;"/><line style="stroke:#181818;stroke-width:1.0;" x1="255.2727" x2="255.2727" y1="96" y2="146"/><line style="stroke:#181818;stroke-width:1.0;" x1="255.2727" x2="1398" y1="146" y2="146"/><line style="stroke:#181818;stroke-width:1.0;" x1="1398" x2="1398" y1="146" y2="196"/><polygon fill="#FFFFFF" points="255.2727,96,248.2727,115,262.2727,115,255.2727,96" style="stroke:#181818;stroke-width:1.0;"/><line style="stroke:#181818;stroke-width:1.0;" x1="190.9091" x2="190.9091" y1="96" y2="176"/><line style="stroke:#181818;stroke-width:1.0;" x1="190.9091" x2="719.5" y1="176" y2="176"/><line style="stroke:#181818;stroke-width:1.0;" x1="719.5" x2="719.5" y1="176" y2="196"/><polygon fill="#FFFFFF" points="190.9091,96,183.9091,115,197.9091,115,190.9091,96" style="stroke:#181818;stroke-width:1.0;"/><line style="stroke:#181818;stroke-width:1.0;" x1="319.6364" x2="319.6364" y1="96" y2="116"/><line style="stroke:#181818;stroke-width:1.0;" x1="319.6364" x2="2197.5" y1="116" y2="116"/><line style="stroke:#181818;stroke-width:1.0;" x1="2197.5" x2="2197.5" y1="116" y2="196"/><polygon fill="#FFFFFF" points="319.6364,96,312.6364,115,326.6364,115,319.6364,96" style="stroke:#181818;stroke-width:1.0;"/><line style="stroke:#181818;stroke-width:1.0;" x1="276.7273" x2="276.7273" y1="96" y2="136"/><line style="stroke:#181818;stroke-width:1.0;" x1="276.7273" x2="1682.5" y1="136" y2="136"/><line style="stroke:#181818;stroke-width:1.0;" x1="1682.5" x2="1682.5" y1="136" y2="196"/><polygon fill="#FFFFFF" points="276.7273,96,269.7273,115,283.7273,115,276.7273,96" style="stroke:#181818;stroke-width:1.0;"/><line style="stroke:#008000;stroke-width:1.0;" x1="341.0909" x2="341.0909" y1="96" y2="106"/><line style="stroke:#008000;stroke-width:1.0;" x1="341.0909" x2="2333" y1="106" y2="106"/><line style="stroke:#008000;stroke-width:1.0;" x1="2333" x2="2333" y1="106" y2="262.2969"/><line style="stroke:#008000;stroke-width:1.0;" x1="2333" x2="1340.3333" y1="262.2969" y2="262.2969"/><line style="stroke:#008000;stroke-width:1.0;" x1="1340.3333" x2="1340.3333" y1="262.2969" y2="272.2969"/><polygon fill="#008000" points="1340.3333,272.2969,1344.3333,263.2969,1340.3333,267.2969,1336.3333,263.2969,1340.3333,272.2969" style="stroke:#008000;stroke-width:1.0;"/><text fill="#000000" font-family="sans-serif" font-size="13" lengthAdjust="spacing" textLength="28" x="2336" y="228.6489">filter</text><line style="stroke:#008000;stroke-width:1.0;" x1="233.8182" x2="233.8182" y1="96" y2="156"/><line style="stroke:#008000;stroke-width:1.0;" x1="233.8182" x2="1240" y1="156" y2="156"/><line style="stroke:#008000;stroke-width:1.0;" x1="1240" x2="1240" y1="156" y2="272.2969"/><polygon fill="#008000" points="1240,272.2969,1244,263.2969,1240,267.2969,1236,263.2969,1240,272.2969" style="stroke:#008000;stroke-width:1.0;"/><text fill="#000000" font-family="sans-serif" font-size="13" lengthAdjust="spacing" textLength="28" x="1210" y="228.6489">filter</text><rect fill="#DDDDDD" height="79.1875" id="_legend" rx="7.5" ry="7.5" style="stroke:#000000;stroke-width:1.0;" width="161" x="1095.5" y="329.5938"/><text fill="#000000" font-family="sans-serif" font-size="14" font-weight="bold" lengthAdjust="spacing" textLength="5" x="1100.5" y="349.5889"> </text><text fill="#000000" font-family="sans-serif" font-size="14" font-weight="bold" lengthAdjust="spacing" textLength="28" x="1117.5" y="349.5889">line</text><text fill="#000000" filter="url(#bk2by9fb9cr9m0)" font-family="sans-serif" font-size="14" lengthAdjust="spacing" textLength="12" x="1100.5" y="365.8857">   </text><text fill="#000000" font-family="sans-serif" font-size="14" lengthAdjust="spacing" textLength="77" x="1116.5" y="365.8857">inheritance</text><text fill="#000000" filter="url(#bk2by9fb9cr9m1)" font-family="sans-serif" font-size="14" lengthAdjust="spacing" textLength="12" x="1100.5" y="382.1826">   </text><text fill="#000000" font-family="sans-serif" font-size="14" lengthAdjust="spacing" textLength="129" x="1116.5" y="382.1826">property reference</text><text fill="#000000" filter="url(#bk2by9fb9cr9m2)" font-family="sans-serif" font-size="14" lengthAdjust="spacing" textLength="12" x="1100.5" y="398.4795">   </text><text fill="#000000" font-family="sans-serif" font-size="14" lengthAdjust="spacing" textLength="131" x="1116.5" y="398.4795">discriminated class</text><line style="stroke:#000000;stroke-width:1.0;" x1="1100.5" x2="1251.5" y1="336.5938" y2="336.5938"/><line style="stroke:#000000;stroke-width:1.0;" x1="1100.5" x2="1251.5" y1="352.8906" y2="352.8906"/><line style="stroke:#000000;stroke-width:1.0;" x1="1100.5" x2="1251.5" y1="369.1875" y2="369.1875"/><line style="stroke:#000000;stroke-width:1.0;" x1="1100.5" x2="1251.5" y1="385.4844" y2="385.4844"/><line style="stroke:#000000;stroke-width:1.0;" x1="1100.5" x2="1251.5" y1="401.7813" y2="401.7813"/><line style="stroke:#000000;stroke-width:1.0;" x1="1100.5" x2="1100.5" y1="336.5938" y2="401.7813"/><line style="stroke:#000000;stroke-width:1.0;" x1="1112.5" x2="1112.5" y1="336.5938" y2="401.7813"/><line style="stroke:#000000;stroke-width:1.0;" x1="1251.5" x2="1251.5" y1="336.5938" y2="401.7813"/><!--MD5=[493a8437fec79445b04f2dc8ea8d90d7]
@startuml
!pragma layout elk
hide empty fields
hide empty methods
legend
|= |= line |
|<back:black>   </back>| inheritance |
|<back:green>   </back>| property reference |
|<back:blue>   </back>| discriminated class |
endlegend
interface OrderSearchQueryExpression [[OrderSearchQueryExpression.svg]] extends OrderSearchQuery {
}
interface OrderSearchQuery [[OrderSearchQuery.svg]]  {
}
interface OrderSearchDateRangeExpression [[OrderSearchDateRangeExpression.svg]] extends OrderSearchQueryExpression {
    range: [[OrderSearchDateRangeValue.svg OrderSearchDateRangeValue]]
}
interface OrderSearchExactExpression [[OrderSearchExactExpression.svg]] extends OrderSearchQueryExpression {
    exact: [[OrderSearchAnyValue.svg OrderSearchAnyValue]]
}
interface OrderSearchExistsExpression [[OrderSearchExistsExpression.svg]] extends OrderSearchQueryExpression {
    exists: [[OrderSearchQueryExpressionValue.svg OrderSearchQueryExpressionValue]]
}
interface OrderSearchFullTextExpression [[OrderSearchFullTextExpression.svg]] extends OrderSearchQueryExpression {
    fullText: [[OrderSearchFullTextValue.svg OrderSearchFullTextValue]]
}
interface OrderSearchLongRangeExpression [[OrderSearchLongRangeExpression.svg]] extends OrderSearchQueryExpression {
    range: [[OrderSearchLongRangeValue.svg OrderSearchLongRangeValue]]
}
interface OrderSearchNumberRangeExpression [[OrderSearchNumberRangeExpression.svg]] extends OrderSearchQueryExpression {
    range: [[OrderSearchNumberRangeValue.svg OrderSearchNumberRangeValue]]
}
interface OrderSearchPrefixExpression [[OrderSearchPrefixExpression.svg]] extends OrderSearchQueryExpression {
    prefix: [[OrderSearchStringValue.svg OrderSearchStringValue]]
}
interface OrderSearchWildCardExpression [[OrderSearchWildCardExpression.svg]] extends OrderSearchQueryExpression {
    wildcard: [[OrderSearchStringValue.svg OrderSearchStringValue]]
}

interface OrderSearchFilterExpression [[OrderSearchFilterExpression.svg]]  {
    filter: [[OrderSearchQueryExpression.svg List<OrderSearchQueryExpression>]]
}

OrderSearchQueryExpression - -> OrderSearchFilterExpression #green;text:green : "filter"
OrderSearchQueryExpression - -> OrderSearchFilterExpression #green;text:green : "filter"
@enduml

PlantUML version 1.2022.13(Sat Nov 19 13:22:17 UTC 2022)
(GPL source distribution)
Java Runtime: OpenJDK Runtime Environment
JVM: OpenJDK 64-Bit Server VM
Default Encoding: UTF-8
Language: en
Country: null
--></g></svg>
