<?xml version="1.0" encoding="UTF-8" standalone="no"?><svg xmlns="http://www.w3.org/2000/svg" xmlns:xlink="http://www.w3.org/1999/xlink" contentStyleType="text/css" height="277px" preserveAspectRatio="none" style="width:193px;height:277px;background:#FFFFFF;" version="1.1" viewBox="0 0 193 277" width="193px" zoomAndPan="magnify"><defs><filter height="1" id="bb7exn8yxehve0" width="1" x="0" y="0"><feFlood flood-color="#000000" result="flood"/><feComposite in="SourceGraphic" in2="flood" operator="over"/></filter><filter height="1" id="bb7exn8yxehve1" width="1" x="0" y="0"><feFlood flood-color="#008000" result="flood"/><feComposite in="SourceGraphic" in2="flood" operator="over"/></filter><filter height="1" id="bb7exn8yxehve2" width="1" x="0" y="0"><feFlood flood-color="#0000FF" result="flood"/><feComposite in="SourceGraphic" in2="flood" operator="over"/></filter></defs><g><!--MD5=[a4912561270a87680355644b65ebaedb]
class OverCapacityError--><a href="OverCapacityError.svg" target="_top" title="OverCapacityError.svg" xlink:actuate="onRequest" xlink:href="OverCapacityError.svg" xlink:show="new" xlink:title="OverCapacityError.svg" xlink:type="simple"><g id="elem_OverCapacityError"><rect codeLine="10" fill="#F1F1F1" height="72.5938" id="OverCapacityError" rx="2.5" ry="2.5" style="stroke:#181818;stroke-width:0.5;" width="157" x="26" y="104.5938"/><ellipse cx="41" cy="120.5938" fill="#B4A7E5" rx="11" ry="11" style="stroke:#181818;stroke-width:1.0;"/><path d="M36.9219,116.3594 L36.9219,114.2031 L44.3125,114.2031 L44.3125,116.3594 L41.8438,116.3594 L41.8438,124.4375 L44.3125,124.4375 L44.3125,126.5938 L36.9219,126.5938 L36.9219,124.4375 L39.3906,124.4375 L39.3906,116.3594 L36.9219,116.3594 Z " fill="#000000"/><text fill="#000000" font-family="sans-serif" font-size="14" font-style="italic" lengthAdjust="spacing" textLength="125" x="55" y="125.4404">OverCapacityError</text><line style="stroke:#181818;stroke-width:0.5;" x1="27" x2="182" y1="136.5938" y2="136.5938"/><text fill="#000000" font-family="sans-serif" font-size="14" lengthAdjust="spacing" textLength="84" x="32" y="153.5889">code: String</text><text fill="#000000" font-family="sans-serif" font-size="14" lengthAdjust="spacing" textLength="113" x="32" y="169.8857">message: String</text></g></a><!--MD5=[e5a6ebf709f52fb314c3061842d3af29]
class ErrorObject--><a href="ErrorObject.svg" target="_top" title="ErrorObject.svg" xlink:actuate="onRequest" xlink:href="ErrorObject.svg" xlink:show="new" xlink:title="ErrorObject.svg" xlink:type="simple"><g id="elem_ErrorObject"><rect codeLine="14" fill="#F1F1F1" height="72.5938" id="ErrorObject" rx="2.5" ry="2.5" style="stroke:#181818;stroke-width:0.5;" width="125" x="42" y="12"/><ellipse cx="63.75" cy="28" fill="#B4A7E5" rx="11" ry="11" style="stroke:#181818;stroke-width:1.0;"/><path d="M59.6719,23.7656 L59.6719,21.6094 L67.0625,21.6094 L67.0625,23.7656 L64.5938,23.7656 L64.5938,31.8438 L67.0625,31.8438 L67.0625,34 L59.6719,34 L59.6719,31.8438 L62.1406,31.8438 L62.1406,23.7656 L59.6719,23.7656 Z " fill="#000000"/><text fill="#000000" font-family="sans-serif" font-size="14" font-style="italic" lengthAdjust="spacing" textLength="78" x="79.25" y="32.8467">ErrorObject</text><line style="stroke:#181818;stroke-width:0.5;" x1="43" x2="166" y1="44" y2="44"/><text fill="#000000" font-family="sans-serif" font-size="14" lengthAdjust="spacing" textLength="84" x="48" y="60.9951">code: String</text><text fill="#000000" font-family="sans-serif" font-size="14" lengthAdjust="spacing" textLength="113" x="48" y="77.292">message: String</text></g></a><line style="stroke:#181818;stroke-width:1.0;" x1="104.5" x2="104.5" y1="84.5938" y2="104.5938"/><polygon fill="#FFFFFF" points="104.5,84.5938,97.5,103.5938,111.5,103.5938,104.5,84.5938" style="stroke:#181818;stroke-width:1.0;"/><rect fill="#DDDDDD" height="79.1875" id="_legend" rx="7.5" ry="7.5" style="stroke:#000000;stroke-width:1.0;" width="161" x="12" y="178.1875"/><text fill="#000000" font-family="sans-serif" font-size="14" font-weight="bold" lengthAdjust="spacing" textLength="5" x="17" y="198.1826"> </text><text fill="#000000" font-family="sans-serif" font-size="14" font-weight="bold" lengthAdjust="spacing" textLength="28" x="34" y="198.1826">line</text><text fill="#000000" filter="url(#bb7exn8yxehve0)" font-family="sans-serif" font-size="14" lengthAdjust="spacing" textLength="12" x="17" y="214.4795">   </text><text fill="#000000" font-family="sans-serif" font-size="14" lengthAdjust="spacing" textLength="77" x="33" y="214.4795">inheritance</text><text fill="#000000" filter="url(#bb7exn8yxehve1)" font-family="sans-serif" font-size="14" lengthAdjust="spacing" textLength="12" x="17" y="230.7764">   </text><text fill="#000000" font-family="sans-serif" font-size="14" lengthAdjust="spacing" textLength="129" x="33" y="230.7764">property reference</text><text fill="#000000" filter="url(#bb7exn8yxehve2)" font-family="sans-serif" font-size="14" lengthAdjust="spacing" textLength="12" x="17" y="247.0732">   </text><text fill="#000000" font-family="sans-serif" font-size="14" lengthAdjust="spacing" textLength="131" x="33" y="247.0732">discriminated class</text><line style="stroke:#000000;stroke-width:1.0;" x1="17" x2="168" y1="185.1875" y2="185.1875"/><line style="stroke:#000000;stroke-width:1.0;" x1="17" x2="168" y1="201.4844" y2="201.4844"/><line style="stroke:#000000;stroke-width:1.0;" x1="17" x2="168" y1="217.7813" y2="217.7813"/><line style="stroke:#000000;stroke-width:1.0;" x1="17" x2="168" y1="234.0781" y2="234.0781"/><line style="stroke:#000000;stroke-width:1.0;" x1="17" x2="168" y1="250.375" y2="250.375"/><line style="stroke:#000000;stroke-width:1.0;" x1="17" x2="17" y1="185.1875" y2="250.375"/><line style="stroke:#000000;stroke-width:1.0;" x1="29" x2="29" y1="185.1875" y2="250.375"/><line style="stroke:#000000;stroke-width:1.0;" x1="168" x2="168" y1="185.1875" y2="250.375"/><!--MD5=[09ae0465608d08d30df81dc14886a278]
@startuml
!pragma layout elk
hide empty fields
hide empty methods
legend
|= |= line |
|<back:black>   </back>| inheritance |
|<back:green>   </back>| property reference |
|<back:blue>   </back>| discriminated class |
endlegend
interface OverCapacityError [[OverCapacityError.svg]] extends ErrorObject {
    code: String
    message: String
}
interface ErrorObject [[ErrorObject.svg]]  {
    code: String
    message: String
}





@enduml

PlantUML version 1.2022.13(Sat Nov 19 13:22:17 UTC 2022)
(GPL source distribution)
Java Runtime: OpenJDK Runtime Environment
JVM: OpenJDK 64-Bit Server VM
Default Encoding: UTF-8
Language: en
Country: null
--></g></svg>
