<?xml version="1.0" encoding="UTF-8" standalone="no"?><svg xmlns="http://www.w3.org/2000/svg" xmlns:xlink="http://www.w3.org/1999/xlink" contentStyleType="text/css" height="261px" preserveAspectRatio="none" style="width:280px;height:261px;background:#FFFFFF;" version="1.1" viewBox="0 0 280 261" width="280px" zoomAndPan="magnify"><defs><filter height="1" id="bbq619akrwa830" width="1" x="0" y="0"><feFlood flood-color="#000000" result="flood"/><feComposite in="SourceGraphic" in2="flood" operator="over"/></filter><filter height="1" id="bbq619akrwa831" width="1" x="0" y="0"><feFlood flood-color="#008000" result="flood"/><feComposite in="SourceGraphic" in2="flood" operator="over"/></filter><filter height="1" id="bbq619akrwa832" width="1" x="0" y="0"><feFlood flood-color="#0000FF" result="flood"/><feComposite in="SourceGraphic" in2="flood" operator="over"/></filter></defs><g><!--MD5=[90e3e754b6e05c18aed7c65ef248498b]
class PaymentMethodSetDefaultAction--><a href="PaymentMethodSetDefaultAction.svg" target="_top" title="PaymentMethodSetDefaultAction.svg" xlink:actuate="onRequest" xlink:href="PaymentMethodSetDefaultAction.svg" xlink:show="new" xlink:title="PaymentMethodSetDefaultAction.svg" xlink:type="simple"><g id="elem_PaymentMethodSetDefaultAction"><rect codeLine="10" fill="#F1F1F1" height="72.5938" id="PaymentMethodSetDefaultAction" rx="2.5" ry="2.5" style="stroke:#181818;stroke-width:0.5;" width="261" x="12" y="88.2969"/><ellipse cx="27" cy="104.2969" fill="#B4A7E5" rx="11" ry="11" style="stroke:#181818;stroke-width:1.0;"/><path d="M22.9219,100.0625 L22.9219,97.9063 L30.3125,97.9063 L30.3125,100.0625 L27.8438,100.0625 L27.8438,108.1406 L30.3125,108.1406 L30.3125,110.2969 L22.9219,110.2969 L22.9219,108.1406 L25.3906,108.1406 L25.3906,100.0625 L22.9219,100.0625 Z " fill="#000000"/><text fill="#000000" font-family="sans-serif" font-size="14" font-style="italic" lengthAdjust="spacing" textLength="229" x="41" y="109.1436">PaymentMethodSetDefaultAction</text><line style="stroke:#181818;stroke-width:0.5;" x1="13" x2="272" y1="120.2969" y2="120.2969"/><text fill="#000000" font-family="sans-serif" font-size="14" lengthAdjust="spacing" textLength="91" x="18" y="137.292">action: String</text><text fill="#000000" font-family="sans-serif" font-size="14" lengthAdjust="spacing" textLength="113" x="18" y="153.5889">default: Boolean</text></g></a><!--MD5=[184f125cce0a795d5e11febea9de83a4]
class PaymentMethodUpdateAction--><a href="PaymentMethodUpdateAction.svg" target="_top" title="PaymentMethodUpdateAction.svg" xlink:actuate="onRequest" xlink:href="PaymentMethodUpdateAction.svg" xlink:show="new" xlink:title="PaymentMethodUpdateAction.svg" xlink:type="simple"><g id="elem_PaymentMethodUpdateAction"><rect codeLine="14" fill="#F1F1F1" height="56.2969" id="PaymentMethodUpdateAction" rx="2.5" ry="2.5" style="stroke:#181818;stroke-width:0.5;" width="239" x="23" y="12"/><ellipse cx="38" cy="28" fill="#B4A7E5" rx="11" ry="11" style="stroke:#181818;stroke-width:1.0;"/><path d="M33.9219,23.7656 L33.9219,21.6094 L41.3125,21.6094 L41.3125,23.7656 L38.8438,23.7656 L38.8438,31.8438 L41.3125,31.8438 L41.3125,34 L33.9219,34 L33.9219,31.8438 L36.3906,31.8438 L36.3906,23.7656 L33.9219,23.7656 Z " fill="#000000"/><text fill="#000000" font-family="sans-serif" font-size="14" font-style="italic" lengthAdjust="spacing" textLength="207" x="52" y="32.8467">PaymentMethodUpdateAction</text><line style="stroke:#181818;stroke-width:0.5;" x1="24" x2="261" y1="44" y2="44"/><text fill="#000000" font-family="sans-serif" font-size="14" lengthAdjust="spacing" textLength="91" x="29" y="60.9951">action: String</text></g></a><line style="stroke:#181818;stroke-width:1.0;" x1="142.5" x2="142.5" y1="68.2969" y2="88.2969"/><polygon fill="#FFFFFF" points="142.5,68.2969,135.5,87.2969,149.5,87.2969,142.5,68.2969" style="stroke:#181818;stroke-width:1.0;"/><rect fill="#DDDDDD" height="79.1875" id="_legend" rx="7.5" ry="7.5" style="stroke:#000000;stroke-width:1.0;" width="161" x="50" y="161.8906"/><text fill="#000000" font-family="sans-serif" font-size="14" font-weight="bold" lengthAdjust="spacing" textLength="5" x="55" y="181.8857"> </text><text fill="#000000" font-family="sans-serif" font-size="14" font-weight="bold" lengthAdjust="spacing" textLength="28" x="72" y="181.8857">line</text><text fill="#000000" filter="url(#bbq619akrwa830)" font-family="sans-serif" font-size="14" lengthAdjust="spacing" textLength="12" x="55" y="198.1826">   </text><text fill="#000000" font-family="sans-serif" font-size="14" lengthAdjust="spacing" textLength="77" x="71" y="198.1826">inheritance</text><text fill="#000000" filter="url(#bbq619akrwa831)" font-family="sans-serif" font-size="14" lengthAdjust="spacing" textLength="12" x="55" y="214.4795">   </text><text fill="#000000" font-family="sans-serif" font-size="14" lengthAdjust="spacing" textLength="129" x="71" y="214.4795">property reference</text><text fill="#000000" filter="url(#bbq619akrwa832)" font-family="sans-serif" font-size="14" lengthAdjust="spacing" textLength="12" x="55" y="230.7764">   </text><text fill="#000000" font-family="sans-serif" font-size="14" lengthAdjust="spacing" textLength="131" x="71" y="230.7764">discriminated class</text><line style="stroke:#000000;stroke-width:1.0;" x1="55" x2="206" y1="168.8906" y2="168.8906"/><line style="stroke:#000000;stroke-width:1.0;" x1="55" x2="206" y1="185.1875" y2="185.1875"/><line style="stroke:#000000;stroke-width:1.0;" x1="55" x2="206" y1="201.4844" y2="201.4844"/><line style="stroke:#000000;stroke-width:1.0;" x1="55" x2="206" y1="217.7813" y2="217.7813"/><line style="stroke:#000000;stroke-width:1.0;" x1="55" x2="206" y1="234.0781" y2="234.0781"/><line style="stroke:#000000;stroke-width:1.0;" x1="55" x2="55" y1="168.8906" y2="234.0781"/><line style="stroke:#000000;stroke-width:1.0;" x1="67" x2="67" y1="168.8906" y2="234.0781"/><line style="stroke:#000000;stroke-width:1.0;" x1="206" x2="206" y1="168.8906" y2="234.0781"/><!--MD5=[d31a2fa99a12c1a4719fec7b7525f899]
@startuml
!pragma layout elk
hide empty fields
hide empty methods
legend
|= |= line |
|<back:black>   </back>| inheritance |
|<back:green>   </back>| property reference |
|<back:blue>   </back>| discriminated class |
endlegend
interface PaymentMethodSetDefaultAction [[PaymentMethodSetDefaultAction.svg]] extends PaymentMethodUpdateAction {
    action: String
    default: Boolean
}
interface PaymentMethodUpdateAction [[PaymentMethodUpdateAction.svg]]  {
    action: String
}





@enduml

PlantUML version 1.2022.13(Sat Nov 19 13:22:17 UTC 2022)
(GPL source distribution)
Java Runtime: OpenJDK Runtime Environment
JVM: OpenJDK 64-Bit Server VM
Default Encoding: UTF-8
Language: en
Country: null
--></g></svg>
