<?xml version="1.0" encoding="UTF-8" standalone="no"?><svg xmlns="http://www.w3.org/2000/svg" xmlns:xlink="http://www.w3.org/1999/xlink" contentStyleType="text/css" height="277px" preserveAspectRatio="none" style="width:354px;height:277px;background:#FFFFFF;" version="1.1" viewBox="0 0 354 277" width="354px" zoomAndPan="magnify"><defs><filter height="1" id="b1oathziq7vfqp0" width="1" x="0" y="0"><feFlood flood-color="#000000" result="flood"/><feComposite in="SourceGraphic" in2="flood" operator="over"/></filter><filter height="1" id="b1oathziq7vfqp1" width="1" x="0" y="0"><feFlood flood-color="#008000" result="flood"/><feComposite in="SourceGraphic" in2="flood" operator="over"/></filter><filter height="1" id="b1oathziq7vfqp2" width="1" x="0" y="0"><feFlood flood-color="#0000FF" result="flood"/><feComposite in="SourceGraphic" in2="flood" operator="over"/></filter></defs><g><!--MD5=[122d0be4a4fe2316e64b93398f074315]
class PaymentMethodMethodSetMessagePayload--><a href="PaymentMethodMethodSetMessagePayload.svg" target="_top" title="PaymentMethodMethodSetMessagePayload.svg" xlink:actuate="onRequest" xlink:href="PaymentMethodMethodSetMessagePayload.svg" xlink:show="new" xlink:title="PaymentMethodMethodSetMessagePayload.svg" xlink:type="simple"><g id="elem_PaymentMethodMethodSetMessagePayload"><rect codeLine="10" fill="#F1F1F1" height="88.8906" id="PaymentMethodMethodSetMessagePayload" rx="2.5" ry="2.5" style="stroke:#181818;stroke-width:0.5;" width="335" x="12" y="88.2969"/><ellipse cx="27" cy="104.2969" fill="#B4A7E5" rx="11" ry="11" style="stroke:#181818;stroke-width:1.0;"/><path d="M22.9219,100.0625 L22.9219,97.9063 L30.3125,97.9063 L30.3125,100.0625 L27.8438,100.0625 L27.8438,108.1406 L30.3125,108.1406 L30.3125,110.2969 L22.9219,110.2969 L22.9219,108.1406 L25.3906,108.1406 L25.3906,100.0625 L22.9219,100.0625 Z " fill="#000000"/><text fill="#000000" font-family="sans-serif" font-size="14" font-style="italic" lengthAdjust="spacing" textLength="303" x="41" y="109.1436">PaymentMethodMethodSetMessagePayload</text><line style="stroke:#181818;stroke-width:0.5;" x1="13" x2="346" y1="120.2969" y2="120.2969"/><text fill="#000000" font-family="sans-serif" font-size="14" lengthAdjust="spacing" textLength="79" x="18" y="137.292">type: String</text><text fill="#000000" font-family="sans-serif" font-size="14" lengthAdjust="spacing" textLength="103" x="18" y="153.5889">method: String</text><text fill="#000000" font-family="sans-serif" font-size="14" lengthAdjust="spacing" textLength="123" x="18" y="169.8857">oldMethod: String</text></g></a><!--MD5=[bdcbbeb6ff0ef09532e1ab42fdec1480]
class MessagePayload--><a href="MessagePayload.svg" target="_top" title="MessagePayload.svg" xlink:actuate="onRequest" xlink:href="MessagePayload.svg" xlink:show="new" xlink:title="MessagePayload.svg" xlink:type="simple"><g id="elem_MessagePayload"><rect codeLine="15" fill="#F1F1F1" height="56.2969" id="MessagePayload" rx="2.5" ry="2.5" style="stroke:#181818;stroke-width:0.5;" width="146" x="106.5" y="12"/><ellipse cx="121.5" cy="28" fill="#B4A7E5" rx="11" ry="11" style="stroke:#181818;stroke-width:1.0;"/><path d="M117.4219,23.7656 L117.4219,21.6094 L124.8125,21.6094 L124.8125,23.7656 L122.3438,23.7656 L122.3438,31.8438 L124.8125,31.8438 L124.8125,34 L117.4219,34 L117.4219,31.8438 L119.8906,31.8438 L119.8906,23.7656 L117.4219,23.7656 Z " fill="#000000"/><text fill="#000000" font-family="sans-serif" font-size="14" font-style="italic" lengthAdjust="spacing" textLength="114" x="135.5" y="32.8467">MessagePayload</text><line style="stroke:#181818;stroke-width:0.5;" x1="107.5" x2="251.5" y1="44" y2="44"/><text fill="#000000" font-family="sans-serif" font-size="14" lengthAdjust="spacing" textLength="79" x="112.5" y="60.9951">type: String</text></g></a><line style="stroke:#181818;stroke-width:1.0;" x1="179.5" x2="179.5" y1="68.2969" y2="88.2969"/><polygon fill="#FFFFFF" points="179.5,68.2969,172.5,87.2969,186.5,87.2969,179.5,68.2969" style="stroke:#181818;stroke-width:1.0;"/><rect fill="#DDDDDD" height="79.1875" id="_legend" rx="7.5" ry="7.5" style="stroke:#000000;stroke-width:1.0;" width="161" x="87" y="178.1875"/><text fill="#000000" font-family="sans-serif" font-size="14" font-weight="bold" lengthAdjust="spacing" textLength="5" x="92" y="198.1826"> </text><text fill="#000000" font-family="sans-serif" font-size="14" font-weight="bold" lengthAdjust="spacing" textLength="28" x="109" y="198.1826">line</text><text fill="#000000" filter="url(#b1oathziq7vfqp0)" font-family="sans-serif" font-size="14" lengthAdjust="spacing" textLength="12" x="92" y="214.4795">   </text><text fill="#000000" font-family="sans-serif" font-size="14" lengthAdjust="spacing" textLength="77" x="108" y="214.4795">inheritance</text><text fill="#000000" filter="url(#b1oathziq7vfqp1)" font-family="sans-serif" font-size="14" lengthAdjust="spacing" textLength="12" x="92" y="230.7764">   </text><text fill="#000000" font-family="sans-serif" font-size="14" lengthAdjust="spacing" textLength="129" x="108" y="230.7764">property reference</text><text fill="#000000" filter="url(#b1oathziq7vfqp2)" font-family="sans-serif" font-size="14" lengthAdjust="spacing" textLength="12" x="92" y="247.0732">   </text><text fill="#000000" font-family="sans-serif" font-size="14" lengthAdjust="spacing" textLength="131" x="108" y="247.0732">discriminated class</text><line style="stroke:#000000;stroke-width:1.0;" x1="92" x2="243" y1="185.1875" y2="185.1875"/><line style="stroke:#000000;stroke-width:1.0;" x1="92" x2="243" y1="201.4844" y2="201.4844"/><line style="stroke:#000000;stroke-width:1.0;" x1="92" x2="243" y1="217.7813" y2="217.7813"/><line style="stroke:#000000;stroke-width:1.0;" x1="92" x2="243" y1="234.0781" y2="234.0781"/><line style="stroke:#000000;stroke-width:1.0;" x1="92" x2="243" y1="250.375" y2="250.375"/><line style="stroke:#000000;stroke-width:1.0;" x1="92" x2="92" y1="185.1875" y2="250.375"/><line style="stroke:#000000;stroke-width:1.0;" x1="104" x2="104" y1="185.1875" y2="250.375"/><line style="stroke:#000000;stroke-width:1.0;" x1="243" x2="243" y1="185.1875" y2="250.375"/><!--MD5=[3c16ab13a960e8861cc6c33d4d81e6a3]
@startuml
!pragma layout elk
hide empty fields
hide empty methods
legend
|= |= line |
|<back:black>   </back>| inheritance |
|<back:green>   </back>| property reference |
|<back:blue>   </back>| discriminated class |
endlegend
interface PaymentMethodMethodSetMessagePayload [[PaymentMethodMethodSetMessagePayload.svg]] extends MessagePayload {
    type: String
    method: String
    oldMethod: String
}
interface MessagePayload [[MessagePayload.svg]]  {
    type: String
}





@enduml

PlantUML version 1.2022.13(Sat Nov 19 13:22:17 UTC 2022)
(GPL source distribution)
Java Runtime: OpenJDK Runtime Environment
JVM: OpenJDK 64-Bit Server VM
Default Encoding: UTF-8
Language: en
Country: null
--></g></svg>
