<?xml version="1.0" encoding="UTF-8" standalone="no"?><svg xmlns="http://www.w3.org/2000/svg" xmlns:xlink="http://www.w3.org/1999/xlink" contentStyleType="text/css" height="392px" preserveAspectRatio="none" style="width:3169px;height:392px;background:#FFFFFF;" version="1.1" viewBox="0 0 3169 392" width="3169px" zoomAndPan="magnify"><defs><filter height="1" id="bj2gt0gicnjbc0" width="1" x="0" y="0"><feFlood flood-color="#000000" result="flood"/><feComposite in="SourceGraphic" in2="flood" operator="over"/></filter><filter height="1" id="bj2gt0gicnjbc1" width="1" x="0" y="0"><feFlood flood-color="#008000" result="flood"/><feComposite in="SourceGraphic" in2="flood" operator="over"/></filter><filter height="1" id="bj2gt0gicnjbc2" width="1" x="0" y="0"><feFlood flood-color="#0000FF" result="flood"/><feComposite in="SourceGraphic" in2="flood" operator="over"/></filter></defs><g><!--MD5=[184f125cce0a795d5e11febea9de83a4]
class PaymentMethodUpdateAction--><a href="PaymentMethodUpdateAction.svg" target="_top" title="PaymentMethodUpdateAction.svg" xlink:actuate="onRequest" xlink:href="PaymentMethodUpdateAction.svg" xlink:show="new" xlink:title="PaymentMethodUpdateAction.svg" xlink:type="simple"><g id="elem_PaymentMethodUpdateAction"><rect codeLine="10" fill="#F1F1F1" height="56.2969" id="PaymentMethodUpdateAction" rx="2.5" ry="2.5" style="stroke:#181818;stroke-width:0.5;" width="239" x="120.7727" y="12"/><ellipse cx="135.7727" cy="28" fill="#B4A7E5" rx="11" ry="11" style="stroke:#181818;stroke-width:1.0;"/><path d="M131.6946,23.7656 L131.6946,21.6094 L139.0852,21.6094 L139.0852,23.7656 L136.6165,23.7656 L136.6165,31.8438 L139.0852,31.8438 L139.0852,34 L131.6946,34 L131.6946,31.8438 L134.1634,31.8438 L134.1634,23.7656 L131.6946,23.7656 Z " fill="#000000"/><text fill="#000000" font-family="sans-serif" font-size="14" font-style="italic" lengthAdjust="spacing" textLength="207" x="149.7727" y="32.8467">PaymentMethodUpdateAction</text><line style="stroke:#181818;stroke-width:0.5;" x1="121.7727" x2="358.7727" y1="44" y2="44"/><text fill="#000000" font-family="sans-serif" font-size="14" lengthAdjust="spacing" textLength="91" x="126.7727" y="60.9951">action: String</text></g></a><!--MD5=[aba0badf0a5b9c7f7120f81d2dea9a7d]
class PaymentMethodSetCustomFieldAction--><a href="PaymentMethodSetCustomFieldAction.svg" target="_top" title="PaymentMethodSetCustomFieldAction.svg" xlink:actuate="onRequest" xlink:href="PaymentMethodSetCustomFieldAction.svg" xlink:show="new" xlink:title="PaymentMethodSetCustomFieldAction.svg" xlink:type="simple"><g id="elem_PaymentMethodSetCustomFieldAction"><rect codeLine="15" fill="#F1F1F1" height="88.8906" id="PaymentMethodSetCustomFieldAction" rx="2.5" ry="2.5" style="stroke:#181818;stroke-width:0.5;" width="297" x="2545" y="203.4297"/><ellipse cx="2560" cy="219.4297" fill="#B4A7E5" rx="11" ry="11" style="stroke:#181818;stroke-width:1.0;"/><path d="M2555.9219,215.1953 L2555.9219,213.0391 L2563.3125,213.0391 L2563.3125,215.1953 L2560.8438,215.1953 L2560.8438,223.2734 L2563.3125,223.2734 L2563.3125,225.4297 L2555.9219,225.4297 L2555.9219,223.2734 L2558.3906,223.2734 L2558.3906,215.1953 L2555.9219,215.1953 Z " fill="#000000"/><text fill="#000000" font-family="sans-serif" font-size="14" font-style="italic" lengthAdjust="spacing" textLength="265" x="2574" y="224.2764">PaymentMethodSetCustomFieldAction</text><line style="stroke:#181818;stroke-width:0.5;" x1="2546" x2="2841" y1="235.4297" y2="235.4297"/><text fill="#000000" font-family="sans-serif" font-size="14" lengthAdjust="spacing" textLength="91" x="2551" y="252.4248">action: String</text><text fill="#000000" font-family="sans-serif" font-size="14" lengthAdjust="spacing" textLength="88" x="2551" y="268.7217">name: String</text><text fill="#000000" font-family="sans-serif" font-size="14" lengthAdjust="spacing" textLength="41" x="2551" y="285.0186">value:</text><a href="Object.svg" target="_top" title="Object.svg" xlink:actuate="onRequest" xlink:href="Object.svg" xlink:show="new" xlink:title="Object.svg" xlink:type="simple"><text fill="#0000FF" font-family="sans-serif" font-size="14" lengthAdjust="spacing" text-decoration="underline" textLength="45" x="2596" y="285.0186">Object</text></a></g></a><!--MD5=[4f5300b6692579214980768400792379]
class PaymentMethodSetCustomTypeAction--><a href="PaymentMethodSetCustomTypeAction.svg" target="_top" title="PaymentMethodSetCustomTypeAction.svg" xlink:actuate="onRequest" xlink:href="PaymentMethodSetCustomTypeAction.svg" xlink:show="new" xlink:title="PaymentMethodSetCustomTypeAction.svg" xlink:type="simple"><g id="elem_PaymentMethodSetCustomTypeAction"><rect codeLine="20" fill="#F1F1F1" height="88.8906" id="PaymentMethodSetCustomTypeAction" rx="2.5" ry="2.5" style="stroke:#181818;stroke-width:0.5;" width="300" x="2862" y="203.4297"/><ellipse cx="2877" cy="219.4297" fill="#B4A7E5" rx="11" ry="11" style="stroke:#181818;stroke-width:1.0;"/><path d="M2872.9219,215.1953 L2872.9219,213.0391 L2880.3125,213.0391 L2880.3125,215.1953 L2877.8438,215.1953 L2877.8438,223.2734 L2880.3125,223.2734 L2880.3125,225.4297 L2872.9219,225.4297 L2872.9219,223.2734 L2875.3906,223.2734 L2875.3906,215.1953 L2872.9219,215.1953 Z " fill="#000000"/><text fill="#000000" font-family="sans-serif" font-size="14" font-style="italic" lengthAdjust="spacing" textLength="268" x="2891" y="224.2764">PaymentMethodSetCustomTypeAction</text><line style="stroke:#181818;stroke-width:0.5;" x1="2863" x2="3161" y1="235.4297" y2="235.4297"/><text fill="#000000" font-family="sans-serif" font-size="14" lengthAdjust="spacing" textLength="91" x="2868" y="252.4248">action: String</text><text fill="#000000" font-family="sans-serif" font-size="14" lengthAdjust="spacing" textLength="35" x="2868" y="268.7217">type:</text><a href="TypeResourceIdentifier.svg" target="_top" title="TypeResourceIdentifier.svg" xlink:actuate="onRequest" xlink:href="TypeResourceIdentifier.svg" xlink:show="new" xlink:title="TypeResourceIdentifier.svg" xlink:type="simple"><text fill="#0000FF" font-family="sans-serif" font-size="14" lengthAdjust="spacing" text-decoration="underline" textLength="160" x="2907" y="268.7217">TypeResourceIdentifier</text></a><text fill="#000000" font-family="sans-serif" font-size="14" lengthAdjust="spacing" textLength="41" x="2868" y="285.0186">fields:</text><a href="FieldContainer.svg" target="_top" title="FieldContainer.svg" xlink:actuate="onRequest" xlink:href="FieldContainer.svg" xlink:show="new" xlink:title="FieldContainer.svg" xlink:type="simple"><text fill="#0000FF" font-family="sans-serif" font-size="14" lengthAdjust="spacing" text-decoration="underline" textLength="99" x="2913" y="285.0186">FieldContainer</text></a></g></a><!--MD5=[90e3e754b6e05c18aed7c65ef248498b]
class PaymentMethodSetDefaultAction--><a href="PaymentMethodSetDefaultAction.svg" target="_top" title="PaymentMethodSetDefaultAction.svg" xlink:actuate="onRequest" xlink:href="PaymentMethodSetDefaultAction.svg" xlink:show="new" xlink:title="PaymentMethodSetDefaultAction.svg" xlink:type="simple"><g id="elem_PaymentMethodSetDefaultAction"><rect codeLine="25" fill="#F1F1F1" height="72.5938" id="PaymentMethodSetDefaultAction" rx="2.5" ry="2.5" style="stroke:#181818;stroke-width:0.5;" width="261" x="12" y="203.4297"/><ellipse cx="27" cy="219.4297" fill="#B4A7E5" rx="11" ry="11" style="stroke:#181818;stroke-width:1.0;"/><path d="M22.9219,215.1953 L22.9219,213.0391 L30.3125,213.0391 L30.3125,215.1953 L27.8438,215.1953 L27.8438,223.2734 L30.3125,223.2734 L30.3125,225.4297 L22.9219,225.4297 L22.9219,223.2734 L25.3906,223.2734 L25.3906,215.1953 L22.9219,215.1953 Z " fill="#000000"/><text fill="#000000" font-family="sans-serif" font-size="14" font-style="italic" lengthAdjust="spacing" textLength="229" x="41" y="224.2764">PaymentMethodSetDefaultAction</text><line style="stroke:#181818;stroke-width:0.5;" x1="13" x2="272" y1="235.4297" y2="235.4297"/><text fill="#000000" font-family="sans-serif" font-size="14" lengthAdjust="spacing" textLength="91" x="18" y="252.4248">action: String</text><text fill="#000000" font-family="sans-serif" font-size="14" lengthAdjust="spacing" textLength="113" x="18" y="268.7217">default: Boolean</text></g></a><!--MD5=[13bf7411a8c673187b99b03d7bd4f0ca]
class PaymentMethodSetInterfaceAccountAction--><a href="PaymentMethodSetInterfaceAccountAction.svg" target="_top" title="PaymentMethodSetInterfaceAccountAction.svg" xlink:actuate="onRequest" xlink:href="PaymentMethodSetInterfaceAccountAction.svg" xlink:show="new" xlink:title="PaymentMethodSetInterfaceAccountAction.svg" xlink:type="simple"><g id="elem_PaymentMethodSetInterfaceAccountAction"><rect codeLine="29" fill="#F1F1F1" height="72.5938" id="PaymentMethodSetInterfaceAccountAction" rx="2.5" ry="2.5" style="stroke:#181818;stroke-width:0.5;" width="331" x="990" y="203.4297"/><ellipse cx="1005" cy="219.4297" fill="#B4A7E5" rx="11" ry="11" style="stroke:#181818;stroke-width:1.0;"/><path d="M1000.9219,215.1953 L1000.9219,213.0391 L1008.3125,213.0391 L1008.3125,215.1953 L1005.8438,215.1953 L1005.8438,223.2734 L1008.3125,223.2734 L1008.3125,225.4297 L1000.9219,225.4297 L1000.9219,223.2734 L1003.3906,223.2734 L1003.3906,215.1953 L1000.9219,215.1953 Z " fill="#000000"/><text fill="#000000" font-family="sans-serif" font-size="14" font-style="italic" lengthAdjust="spacing" textLength="299" x="1019" y="224.2764">PaymentMethodSetInterfaceAccountAction</text><line style="stroke:#181818;stroke-width:0.5;" x1="991" x2="1320" y1="235.4297" y2="235.4297"/><text fill="#000000" font-family="sans-serif" font-size="14" lengthAdjust="spacing" textLength="91" x="996" y="252.4248">action: String</text><text fill="#000000" font-family="sans-serif" font-size="14" lengthAdjust="spacing" textLength="166" x="996" y="268.7217">interfaceAccount: String</text></g></a><!--MD5=[e8a204bb288be718153482439093a03f]
class PaymentMethodSetKeyAction--><a href="PaymentMethodSetKeyAction.svg" target="_top" title="PaymentMethodSetKeyAction.svg" xlink:actuate="onRequest" xlink:href="PaymentMethodSetKeyAction.svg" xlink:show="new" xlink:title="PaymentMethodSetKeyAction.svg" xlink:type="simple"><g id="elem_PaymentMethodSetKeyAction"><rect codeLine="33" fill="#F1F1F1" height="72.5938" id="PaymentMethodSetKeyAction" rx="2.5" ry="2.5" style="stroke:#181818;stroke-width:0.5;" width="238" x="2002" y="203.4297"/><ellipse cx="2017" cy="219.4297" fill="#B4A7E5" rx="11" ry="11" style="stroke:#181818;stroke-width:1.0;"/><path d="M2012.9219,215.1953 L2012.9219,213.0391 L2020.3125,213.0391 L2020.3125,215.1953 L2017.8438,215.1953 L2017.8438,223.2734 L2020.3125,223.2734 L2020.3125,225.4297 L2012.9219,225.4297 L2012.9219,223.2734 L2015.3906,223.2734 L2015.3906,215.1953 L2012.9219,215.1953 Z " fill="#000000"/><text fill="#000000" font-family="sans-serif" font-size="14" font-style="italic" lengthAdjust="spacing" textLength="206" x="2031" y="224.2764">PaymentMethodSetKeyAction</text><line style="stroke:#181818;stroke-width:0.5;" x1="2003" x2="2239" y1="235.4297" y2="235.4297"/><text fill="#000000" font-family="sans-serif" font-size="14" lengthAdjust="spacing" textLength="91" x="2008" y="252.4248">action: String</text><text fill="#000000" font-family="sans-serif" font-size="14" lengthAdjust="spacing" textLength="73" x="2008" y="268.7217">key: String</text></g></a><!--MD5=[3babff92d3b5266906c500162702ba8f]
class PaymentMethodSetMethodAction--><a href="PaymentMethodSetMethodAction.svg" target="_top" title="PaymentMethodSetMethodAction.svg" xlink:actuate="onRequest" xlink:href="PaymentMethodSetMethodAction.svg" xlink:show="new" xlink:title="PaymentMethodSetMethodAction.svg" xlink:type="simple"><g id="elem_PaymentMethodSetMethodAction"><rect codeLine="37" fill="#F1F1F1" height="72.5938" id="PaymentMethodSetMethodAction" rx="2.5" ry="2.5" style="stroke:#181818;stroke-width:0.5;" width="265" x="2260" y="203.4297"/><ellipse cx="2275" cy="219.4297" fill="#B4A7E5" rx="11" ry="11" style="stroke:#181818;stroke-width:1.0;"/><path d="M2270.9219,215.1953 L2270.9219,213.0391 L2278.3125,213.0391 L2278.3125,215.1953 L2275.8438,215.1953 L2275.8438,223.2734 L2278.3125,223.2734 L2278.3125,225.4297 L2270.9219,225.4297 L2270.9219,223.2734 L2273.3906,223.2734 L2273.3906,215.1953 L2270.9219,215.1953 Z " fill="#000000"/><text fill="#000000" font-family="sans-serif" font-size="14" font-style="italic" lengthAdjust="spacing" textLength="233" x="2289" y="224.2764">PaymentMethodSetMethodAction</text><line style="stroke:#181818;stroke-width:0.5;" x1="2261" x2="2524" y1="235.4297" y2="235.4297"/><text fill="#000000" font-family="sans-serif" font-size="14" lengthAdjust="spacing" textLength="91" x="2266" y="252.4248">action: String</text><text fill="#000000" font-family="sans-serif" font-size="14" lengthAdjust="spacing" textLength="103" x="2266" y="268.7217">method: String</text></g></a><!--MD5=[53430c1350b91f25fc1ecdb1211622ce]
class PaymentMethodSetNameAction--><a href="PaymentMethodSetNameAction.svg" target="_top" title="PaymentMethodSetNameAction.svg" xlink:actuate="onRequest" xlink:href="PaymentMethodSetNameAction.svg" xlink:show="new" xlink:title="PaymentMethodSetNameAction.svg" xlink:type="simple"><g id="elem_PaymentMethodSetNameAction"><rect codeLine="41" fill="#F1F1F1" height="72.5938" id="PaymentMethodSetNameAction" rx="2.5" ry="2.5" style="stroke:#181818;stroke-width:0.5;" width="253" x="1729" y="203.4297"/><ellipse cx="1744" cy="219.4297" fill="#B4A7E5" rx="11" ry="11" style="stroke:#181818;stroke-width:1.0;"/><path d="M1739.9219,215.1953 L1739.9219,213.0391 L1747.3125,213.0391 L1747.3125,215.1953 L1744.8438,215.1953 L1744.8438,223.2734 L1747.3125,223.2734 L1747.3125,225.4297 L1739.9219,225.4297 L1739.9219,223.2734 L1742.3906,223.2734 L1742.3906,215.1953 L1739.9219,215.1953 Z " fill="#000000"/><text fill="#000000" font-family="sans-serif" font-size="14" font-style="italic" lengthAdjust="spacing" textLength="221" x="1758" y="224.2764">PaymentMethodSetNameAction</text><line style="stroke:#181818;stroke-width:0.5;" x1="1730" x2="1981" y1="235.4297" y2="235.4297"/><text fill="#000000" font-family="sans-serif" font-size="14" lengthAdjust="spacing" textLength="91" x="1735" y="252.4248">action: String</text><text fill="#000000" font-family="sans-serif" font-size="14" lengthAdjust="spacing" textLength="44" x="1735" y="268.7217">name:</text><a href="LocalizedString.svg" target="_top" title="LocalizedString.svg" xlink:actuate="onRequest" xlink:href="LocalizedString.svg" xlink:show="new" xlink:title="LocalizedString.svg" xlink:type="simple"><text fill="#0000FF" font-family="sans-serif" font-size="14" lengthAdjust="spacing" text-decoration="underline" textLength="104" x="1783" y="268.7217">LocalizedString</text></a></g></a><!--MD5=[f1bb209062cc01ea7e6a24b1ff8397dc]
class PaymentMethodSetPaymentInterfaceAction--><a href="PaymentMethodSetPaymentInterfaceAction.svg" target="_top" title="PaymentMethodSetPaymentInterfaceAction.svg" xlink:actuate="onRequest" xlink:href="PaymentMethodSetPaymentInterfaceAction.svg" xlink:show="new" xlink:title="PaymentMethodSetPaymentInterfaceAction.svg" xlink:type="simple"><g id="elem_PaymentMethodSetPaymentInterfaceAction"><rect codeLine="45" fill="#F1F1F1" height="72.5938" id="PaymentMethodSetPaymentInterfaceAction" rx="2.5" ry="2.5" style="stroke:#181818;stroke-width:0.5;" width="333" x="293" y="203.4297"/><ellipse cx="308" cy="219.4297" fill="#B4A7E5" rx="11" ry="11" style="stroke:#181818;stroke-width:1.0;"/><path d="M303.9219,215.1953 L303.9219,213.0391 L311.3125,213.0391 L311.3125,215.1953 L308.8438,215.1953 L308.8438,223.2734 L311.3125,223.2734 L311.3125,225.4297 L303.9219,225.4297 L303.9219,223.2734 L306.3906,223.2734 L306.3906,215.1953 L303.9219,215.1953 Z " fill="#000000"/><text fill="#000000" font-family="sans-serif" font-size="14" font-style="italic" lengthAdjust="spacing" textLength="301" x="322" y="224.2764">PaymentMethodSetPaymentInterfaceAction</text><line style="stroke:#181818;stroke-width:0.5;" x1="294" x2="625" y1="235.4297" y2="235.4297"/><text fill="#000000" font-family="sans-serif" font-size="14" lengthAdjust="spacing" textLength="91" x="299" y="252.4248">action: String</text><text fill="#000000" font-family="sans-serif" font-size="14" lengthAdjust="spacing" textLength="169" x="299" y="268.7217">paymentInterface: String</text></g></a><!--MD5=[963594f889d4cd082e50231c1d3b3a2e]
class PaymentMethodSetPaymentMethodStatusAction--><a href="PaymentMethodSetPaymentMethodStatusAction.svg" target="_top" title="PaymentMethodSetPaymentMethodStatusAction.svg" xlink:actuate="onRequest" xlink:href="PaymentMethodSetPaymentMethodStatusAction.svg" xlink:show="new" xlink:title="PaymentMethodSetPaymentMethodStatusAction.svg" xlink:type="simple"><g id="elem_PaymentMethodSetPaymentMethodStatusAction"><rect codeLine="49" fill="#F1F1F1" height="72.5938" id="PaymentMethodSetPaymentMethodStatusAction" rx="2.5" ry="2.5" style="stroke:#181818;stroke-width:0.5;" width="368" x="1341" y="203.4297"/><ellipse cx="1356" cy="219.4297" fill="#B4A7E5" rx="11" ry="11" style="stroke:#181818;stroke-width:1.0;"/><path d="M1351.9219,215.1953 L1351.9219,213.0391 L1359.3125,213.0391 L1359.3125,215.1953 L1356.8438,215.1953 L1356.8438,223.2734 L1359.3125,223.2734 L1359.3125,225.4297 L1351.9219,225.4297 L1351.9219,223.2734 L1354.3906,223.2734 L1354.3906,215.1953 L1351.9219,215.1953 Z " fill="#000000"/><text fill="#000000" font-family="sans-serif" font-size="14" font-style="italic" lengthAdjust="spacing" textLength="336" x="1370" y="224.2764">PaymentMethodSetPaymentMethodStatusAction</text><line style="stroke:#181818;stroke-width:0.5;" x1="1342" x2="1708" y1="235.4297" y2="235.4297"/><text fill="#000000" font-family="sans-serif" font-size="14" lengthAdjust="spacing" textLength="91" x="1347" y="252.4248">action: String</text><text fill="#000000" font-family="sans-serif" font-size="14" lengthAdjust="spacing" textLength="162" x="1347" y="268.7217">paymentMethodStatus:</text><a href="PaymentMethodStatus.svg" target="_top" title="PaymentMethodStatus.svg" xlink:actuate="onRequest" xlink:href="PaymentMethodStatus.svg" xlink:show="new" xlink:title="PaymentMethodStatus.svg" xlink:type="simple"><text fill="#0000FF" font-family="sans-serif" font-size="14" lengthAdjust="spacing" text-decoration="underline" textLength="157" x="1513" y="268.7217">PaymentMethodStatus</text></a></g></a><!--MD5=[adb20a872e50a3877c7e0025fb3ae817]
class PaymentMethodUpdate--><a href="PaymentMethodUpdate.svg" target="_top" title="PaymentMethodUpdate.svg" xlink:actuate="onRequest" xlink:href="PaymentMethodUpdate.svg" xlink:show="new" xlink:title="PaymentMethodUpdate.svg" xlink:type="simple"><g id="elem_PaymentMethodUpdate"><rect codeLine="53" fill="#F1F1F1" height="72.5938" id="PaymentMethodUpdate" rx="2.5" ry="2.5" style="stroke:#181818;stroke-width:0.5;" width="324" x="646" y="203.4297"/><ellipse cx="722.25" cy="219.4297" fill="#B4A7E5" rx="11" ry="11" style="stroke:#181818;stroke-width:1.0;"/><path d="M718.1719,215.1953 L718.1719,213.0391 L725.5625,213.0391 L725.5625,215.1953 L723.0938,215.1953 L723.0938,223.2734 L725.5625,223.2734 L725.5625,225.4297 L718.1719,225.4297 L718.1719,223.2734 L720.6406,223.2734 L720.6406,215.1953 L718.1719,215.1953 Z " fill="#000000"/><text fill="#000000" font-family="sans-serif" font-size="14" font-style="italic" lengthAdjust="spacing" textLength="163" x="742.75" y="224.2764">PaymentMethodUpdate</text><line style="stroke:#181818;stroke-width:0.5;" x1="647" x2="969" y1="235.4297" y2="235.4297"/><text fill="#000000" font-family="sans-serif" font-size="14" lengthAdjust="spacing" textLength="93" x="652" y="252.4248">version: Long</text><text fill="#000000" font-family="sans-serif" font-size="14" lengthAdjust="spacing" textLength="55" x="652" y="268.7217">actions:</text><a href="PaymentMethodUpdateAction.svg" target="_top" title="PaymentMethodUpdateAction.svg" xlink:actuate="onRequest" xlink:href="PaymentMethodUpdateAction.svg" xlink:show="new" xlink:title="PaymentMethodUpdateAction.svg" xlink:type="simple"><text fill="#0000FF" font-family="sans-serif" font-size="14" lengthAdjust="spacing" text-decoration="underline" textLength="253" x="711" y="268.7217">List&lt;PaymentMethodUpdateAction&gt;</text></a></g></a><line style="stroke:#0000FF;stroke-width:1.0;" x1="316.3182" x2="316.3182" y1="68.2969" y2="88.2969"/><line style="stroke:#0000FF;stroke-width:1.0;" x1="316.3182" x2="2693.5" y1="88.2969" y2="88.2969"/><line style="stroke:#0000FF;stroke-width:1.0;" x1="2693.5" x2="2693.5" y1="88.2969" y2="203.4297"/><polygon fill="#0000FF" points="2693.5,203.4297,2697.5,194.4297,2693.5,198.4297,2689.5,194.4297,2693.5,203.4297" style="stroke:#0000FF;stroke-width:1.0;"/><text fill="#000000" font-family="sans-serif" font-size="13" lengthAdjust="spacing" textLength="150" x="2541.5" y="180.3638">action : setCustomField</text><line style="stroke:#0000FF;stroke-width:1.0;" x1="338.0455" x2="338.0455" y1="68.2969" y2="78.2969"/><line style="stroke:#0000FF;stroke-width:1.0;" x1="338.0455" x2="3012" y1="78.2969" y2="78.2969"/><line style="stroke:#0000FF;stroke-width:1.0;" x1="3012" x2="3012" y1="78.2969" y2="203.4297"/><polygon fill="#0000FF" points="3012,203.4297,3016,194.4297,3012,198.4297,3008,194.4297,3012,203.4297" style="stroke:#0000FF;stroke-width:1.0;"/><text fill="#000000" font-family="sans-serif" font-size="13" lengthAdjust="spacing" textLength="151" x="2859" y="180.3638">action : setCustomType</text><line style="stroke:#0000FF;stroke-width:1.0;" x1="142.5" x2="142.5" y1="68.2969" y2="203.4297"/><polygon fill="#0000FF" points="142.5,203.4297,146.5,194.4297,142.5,198.4297,138.5,194.4297,142.5,203.4297" style="stroke:#0000FF;stroke-width:1.0;"/><text fill="#000000" font-family="sans-serif" font-size="13" lengthAdjust="spacing" textLength="117" x="23.5" y="180.3638">action : setDefault</text><line style="stroke:#0000FF;stroke-width:1.0;" x1="207.6818" x2="207.6818" y1="68.2969" y2="138.2969"/><line style="stroke:#0000FF;stroke-width:1.0;" x1="207.6818" x2="1155.5" y1="138.2969" y2="138.2969"/><line style="stroke:#0000FF;stroke-width:1.0;" x1="1155.5" x2="1155.5" y1="138.2969" y2="203.4297"/><polygon fill="#0000FF" points="1155.5,203.4297,1159.5,194.4297,1155.5,198.4297,1151.5,194.4297,1155.5,203.4297" style="stroke:#0000FF;stroke-width:1.0;"/><text fill="#000000" font-family="sans-serif" font-size="13" lengthAdjust="spacing" textLength="179" x="974.5" y="180.3638">action : setInterfaceAccount</text><line style="stroke:#0000FF;stroke-width:1.0;" x1="272.8636" x2="272.8636" y1="68.2969" y2="108.2969"/><line style="stroke:#0000FF;stroke-width:1.0;" x1="272.8636" x2="2121" y1="108.2969" y2="108.2969"/><line style="stroke:#0000FF;stroke-width:1.0;" x1="2121" x2="2121" y1="108.2969" y2="203.4297"/><polygon fill="#0000FF" points="2121,203.4297,2125,194.4297,2121,198.4297,2117,194.4297,2121,203.4297" style="stroke:#0000FF;stroke-width:1.0;"/><text fill="#000000" font-family="sans-serif" font-size="13" lengthAdjust="spacing" textLength="94" x="2025" y="180.3638">action : setKey</text><line style="stroke:#0000FF;stroke-width:1.0;" x1="294.5909" x2="294.5909" y1="68.2969" y2="98.2969"/><line style="stroke:#0000FF;stroke-width:1.0;" x1="294.5909" x2="2392.5" y1="98.2969" y2="98.2969"/><line style="stroke:#0000FF;stroke-width:1.0;" x1="2392.5" x2="2392.5" y1="98.2969" y2="203.4297"/><polygon fill="#0000FF" points="2392.5,203.4297,2396.5,194.4297,2392.5,198.4297,2388.5,194.4297,2392.5,203.4297" style="stroke:#0000FF;stroke-width:1.0;"/><text fill="#000000" font-family="sans-serif" font-size="13" lengthAdjust="spacing" textLength="119" x="2271.5" y="180.3638">action : setMethod</text><line style="stroke:#0000FF;stroke-width:1.0;" x1="251.1364" x2="251.1364" y1="68.2969" y2="118.2969"/><line style="stroke:#0000FF;stroke-width:1.0;" x1="251.1364" x2="1855.5" y1="118.2969" y2="118.2969"/><line style="stroke:#0000FF;stroke-width:1.0;" x1="1855.5" x2="1855.5" y1="118.2969" y2="203.4297"/><polygon fill="#0000FF" points="1855.5,203.4297,1859.5,194.4297,1855.5,198.4297,1851.5,194.4297,1855.5,203.4297" style="stroke:#0000FF;stroke-width:1.0;"/><text fill="#000000" font-family="sans-serif" font-size="13" lengthAdjust="spacing" textLength="110" x="1743.5" y="180.3638">action : setName</text><line style="stroke:#0000FF;stroke-width:1.0;" x1="164.2273" x2="164.2273" y1="68.2969" y2="158.2969"/><line style="stroke:#0000FF;stroke-width:1.0;" x1="164.2273" x2="459.5" y1="158.2969" y2="158.2969"/><line style="stroke:#0000FF;stroke-width:1.0;" x1="459.5" x2="459.5" y1="158.2969" y2="203.4297"/><polygon fill="#0000FF" points="459.5,203.4297,463.5,194.4297,459.5,198.4297,455.5,194.4297,459.5,203.4297" style="stroke:#0000FF;stroke-width:1.0;"/><text fill="#000000" font-family="sans-serif" font-size="13" lengthAdjust="spacing" textLength="184" x="273.5" y="180.3638">action : setPaymentInterface</text><line style="stroke:#0000FF;stroke-width:1.0;" x1="229.4091" x2="229.4091" y1="68.2969" y2="128.2969"/><line style="stroke:#0000FF;stroke-width:1.0;" x1="229.4091" x2="1525" y1="128.2969" y2="128.2969"/><line style="stroke:#0000FF;stroke-width:1.0;" x1="1525" x2="1525" y1="128.2969" y2="203.4297"/><polygon fill="#0000FF" points="1525,203.4297,1529,194.4297,1525,198.4297,1521,194.4297,1525,203.4297" style="stroke:#0000FF;stroke-width:1.0;"/><text fill="#000000" font-family="sans-serif" font-size="13" lengthAdjust="spacing" textLength="218" x="1305" y="180.3638">action : setPaymentMethodStatus</text><line style="stroke:#008000;stroke-width:1.0;" x1="185.9545" x2="185.9545" y1="68.2969" y2="148.2969"/><line style="stroke:#008000;stroke-width:1.0;" x1="185.9545" x2="808" y1="148.2969" y2="148.2969"/><line style="stroke:#008000;stroke-width:1.0;" x1="808" x2="808" y1="148.2969" y2="203.4297"/><polygon fill="#008000" points="808,203.4297,812,194.4297,808,198.4297,804,194.4297,808,203.4297" style="stroke:#008000;stroke-width:1.0;"/><text fill="#000000" font-family="sans-serif" font-size="13" lengthAdjust="spacing" textLength="46" x="760" y="180.3638">actions</text><rect fill="#DDDDDD" height="79.1875" id="_legend" rx="7.5" ry="7.5" style="stroke:#000000;stroke-width:1.0;" width="161" x="1494.5" y="293.3203"/><text fill="#000000" font-family="sans-serif" font-size="14" font-weight="bold" lengthAdjust="spacing" textLength="5" x="1499.5" y="313.3154"> </text><text fill="#000000" font-family="sans-serif" font-size="14" font-weight="bold" lengthAdjust="spacing" textLength="28" x="1516.5" y="313.3154">line</text><text fill="#000000" filter="url(#bj2gt0gicnjbc0)" font-family="sans-serif" font-size="14" lengthAdjust="spacing" textLength="12" x="1499.5" y="329.6123">   </text><text fill="#000000" font-family="sans-serif" font-size="14" lengthAdjust="spacing" textLength="77" x="1515.5" y="329.6123">inheritance</text><text fill="#000000" filter="url(#bj2gt0gicnjbc1)" font-family="sans-serif" font-size="14" lengthAdjust="spacing" textLength="12" x="1499.5" y="345.9092">   </text><text fill="#000000" font-family="sans-serif" font-size="14" lengthAdjust="spacing" textLength="129" x="1515.5" y="345.9092">property reference</text><text fill="#000000" filter="url(#bj2gt0gicnjbc2)" font-family="sans-serif" font-size="14" lengthAdjust="spacing" textLength="12" x="1499.5" y="362.2061">   </text><text fill="#000000" font-family="sans-serif" font-size="14" lengthAdjust="spacing" textLength="131" x="1515.5" y="362.2061">discriminated class</text><line style="stroke:#000000;stroke-width:1.0;" x1="1499.5" x2="1650.5" y1="300.3203" y2="300.3203"/><line style="stroke:#000000;stroke-width:1.0;" x1="1499.5" x2="1650.5" y1="316.6172" y2="316.6172"/><line style="stroke:#000000;stroke-width:1.0;" x1="1499.5" x2="1650.5" y1="332.9141" y2="332.9141"/><line style="stroke:#000000;stroke-width:1.0;" x1="1499.5" x2="1650.5" y1="349.2109" y2="349.2109"/><line style="stroke:#000000;stroke-width:1.0;" x1="1499.5" x2="1650.5" y1="365.5078" y2="365.5078"/><line style="stroke:#000000;stroke-width:1.0;" x1="1499.5" x2="1499.5" y1="300.3203" y2="365.5078"/><line style="stroke:#000000;stroke-width:1.0;" x1="1511.5" x2="1511.5" y1="300.3203" y2="365.5078"/><line style="stroke:#000000;stroke-width:1.0;" x1="1650.5" x2="1650.5" y1="300.3203" y2="365.5078"/><!--MD5=[3f10fb4ce457fd2bf87dc3b107556eea]
@startuml
!pragma layout elk
hide empty fields
hide empty methods
legend
|= |= line |
|<back:black>   </back>| inheritance |
|<back:green>   </back>| property reference |
|<back:blue>   </back>| discriminated class |
endlegend
interface PaymentMethodUpdateAction [[PaymentMethodUpdateAction.svg]]  {
    action: String
}


interface PaymentMethodSetCustomFieldAction [[PaymentMethodSetCustomFieldAction.svg]]  {
    action: String
    name: String
    value: [[Object.svg Object]]
}
interface PaymentMethodSetCustomTypeAction [[PaymentMethodSetCustomTypeAction.svg]]  {
    action: String
    type: [[TypeResourceIdentifier.svg TypeResourceIdentifier]]
    fields: [[FieldContainer.svg FieldContainer]]
}
interface PaymentMethodSetDefaultAction [[PaymentMethodSetDefaultAction.svg]]  {
    action: String
    default: Boolean
}
interface PaymentMethodSetInterfaceAccountAction [[PaymentMethodSetInterfaceAccountAction.svg]]  {
    action: String
    interfaceAccount: String
}
interface PaymentMethodSetKeyAction [[PaymentMethodSetKeyAction.svg]]  {
    action: String
    key: String
}
interface PaymentMethodSetMethodAction [[PaymentMethodSetMethodAction.svg]]  {
    action: String
    method: String
}
interface PaymentMethodSetNameAction [[PaymentMethodSetNameAction.svg]]  {
    action: String
    name: [[LocalizedString.svg LocalizedString]]
}
interface PaymentMethodSetPaymentInterfaceAction [[PaymentMethodSetPaymentInterfaceAction.svg]]  {
    action: String
    paymentInterface: String
}
interface PaymentMethodSetPaymentMethodStatusAction [[PaymentMethodSetPaymentMethodStatusAction.svg]]  {
    action: String
    paymentMethodStatus: [[PaymentMethodStatus.svg PaymentMethodStatus]]
}
interface PaymentMethodUpdate [[PaymentMethodUpdate.svg]]  {
    version: Long
    actions: [[PaymentMethodUpdateAction.svg List<PaymentMethodUpdateAction>]]
}
PaymentMethodUpdateAction - -> PaymentMethodSetCustomFieldAction #blue;text:blue : "action : setCustomField"
PaymentMethodUpdateAction - -> PaymentMethodSetCustomTypeAction #blue;text:blue : "action : setCustomType"
PaymentMethodUpdateAction - -> PaymentMethodSetDefaultAction #blue;text:blue : "action : setDefault"
PaymentMethodUpdateAction - -> PaymentMethodSetInterfaceAccountAction #blue;text:blue : "action : setInterfaceAccount"
PaymentMethodUpdateAction - -> PaymentMethodSetKeyAction #blue;text:blue : "action : setKey"
PaymentMethodUpdateAction - -> PaymentMethodSetMethodAction #blue;text:blue : "action : setMethod"
PaymentMethodUpdateAction - -> PaymentMethodSetNameAction #blue;text:blue : "action : setName"
PaymentMethodUpdateAction - -> PaymentMethodSetPaymentInterfaceAction #blue;text:blue : "action : setPaymentInterface"
PaymentMethodUpdateAction - -> PaymentMethodSetPaymentMethodStatusAction #blue;text:blue : "action : setPaymentMethodStatus"
PaymentMethodUpdateAction - -> PaymentMethodUpdate #green;text:green : "actions"
@enduml

PlantUML version 1.2022.13(Sat Nov 19 13:22:17 UTC 2022)
(GPL source distribution)
Java Runtime: OpenJDK Runtime Environment
JVM: OpenJDK 64-Bit Server VM
Default Encoding: UTF-8
Language: en
Country: null
--></g></svg>
