<?xml version="1.0" encoding="UTF-8" standalone="no"?><svg xmlns="http://www.w3.org/2000/svg" xmlns:xlink="http://www.w3.org/1999/xlink" contentStyleType="text/css" height="497px" preserveAspectRatio="none" style="width:2310px;height:497px;background:#FFFFFF;" version="1.1" viewBox="0 0 2310 497" width="2310px" zoomAndPan="magnify"><defs><filter height="1" id="b12f997c7f15rg0" width="1" x="0" y="0"><feFlood flood-color="#000000" result="flood"/><feComposite in="SourceGraphic" in2="flood" operator="over"/></filter><filter height="1" id="b12f997c7f15rg1" width="1" x="0" y="0"><feFlood flood-color="#008000" result="flood"/><feComposite in="SourceGraphic" in2="flood" operator="over"/></filter><filter height="1" id="b12f997c7f15rg2" width="1" x="0" y="0"><feFlood flood-color="#0000FF" result="flood"/><feComposite in="SourceGraphic" in2="flood" operator="over"/></filter></defs><g><!--MD5=[d9bf7bcc2f6f373af3a143342ee3d014]
class PaymentResourceIdentifier--><a href="PaymentResourceIdentifier.svg" target="_top" title="PaymentResourceIdentifier.svg" xlink:actuate="onRequest" xlink:href="PaymentResourceIdentifier.svg" xlink:show="new" xlink:title="PaymentResourceIdentifier.svg" xlink:type="simple"><g id="elem_PaymentResourceIdentifier"><rect codeLine="10" fill="#F1F1F1" height="88.8906" id="PaymentResourceIdentifier" rx="2.5" ry="2.5" style="stroke:#181818;stroke-width:0.5;" width="218" x="121.2778" y="120.8906"/><ellipse cx="136.2778" cy="136.8906" fill="#B4A7E5" rx="11" ry="11" style="stroke:#181818;stroke-width:1.0;"/><path d="M132.1997,132.6563 L132.1997,130.5 L139.5903,130.5 L139.5903,132.6563 L137.1215,132.6563 L137.1215,140.7344 L139.5903,140.7344 L139.5903,142.8906 L132.1997,142.8906 L132.1997,140.7344 L134.6684,140.7344 L134.6684,132.6563 L132.1997,132.6563 Z " fill="#000000"/><text fill="#000000" font-family="sans-serif" font-size="14" font-style="italic" lengthAdjust="spacing" textLength="186" x="150.2778" y="141.7373">PaymentResourceIdentifier</text><line style="stroke:#181818;stroke-width:0.5;" x1="122.2778" x2="338.2778" y1="152.8906" y2="152.8906"/><text fill="#000000" font-family="sans-serif" font-size="14" lengthAdjust="spacing" textLength="47" x="127.2778" y="169.8857">typeId:</text><a href="ReferenceTypeId.svg" target="_top" title="ReferenceTypeId.svg" xlink:actuate="onRequest" xlink:href="ReferenceTypeId.svg" xlink:show="new" xlink:title="ReferenceTypeId.svg" xlink:type="simple"><text fill="#0000FF" font-family="sans-serif" font-size="14" lengthAdjust="spacing" text-decoration="underline" textLength="118" x="178.2778" y="169.8857">ReferenceTypeId</text></a><text fill="#000000" font-family="sans-serif" font-size="14" lengthAdjust="spacing" textLength="61" x="127.2778" y="186.1826">id: String</text><text fill="#000000" font-family="sans-serif" font-size="14" lengthAdjust="spacing" textLength="73" x="127.2778" y="202.4795">key: String</text></g></a><!--MD5=[73d65badb5beeaa6d66a0597f08d9664]
class ResourceIdentifier--><a href="ResourceIdentifier.svg" target="_top" title="ResourceIdentifier.svg" xlink:actuate="onRequest" xlink:href="ResourceIdentifier.svg" xlink:show="new" xlink:title="ResourceIdentifier.svg" xlink:type="simple"><g id="elem_ResourceIdentifier"><rect codeLine="15" fill="#F1F1F1" height="88.8906" id="ResourceIdentifier" rx="2.5" ry="2.5" style="stroke:#181818;stroke-width:0.5;" width="181" x="139.7778" y="12"/><ellipse cx="165.1278" cy="28" fill="#B4A7E5" rx="11" ry="11" style="stroke:#181818;stroke-width:1.0;"/><path d="M161.0497,23.7656 L161.0497,21.6094 L168.4403,21.6094 L168.4403,23.7656 L165.9715,23.7656 L165.9715,31.8438 L168.4403,31.8438 L168.4403,34 L161.0497,34 L161.0497,31.8438 L163.5184,31.8438 L163.5184,23.7656 L161.0497,23.7656 Z " fill="#000000"/><text fill="#000000" font-family="sans-serif" font-size="14" font-style="italic" lengthAdjust="spacing" textLength="126" x="181.4278" y="32.8467">ResourceIdentifier</text><line style="stroke:#181818;stroke-width:0.5;" x1="140.7778" x2="319.7778" y1="44" y2="44"/><text fill="#000000" font-family="sans-serif" font-size="14" lengthAdjust="spacing" textLength="47" x="145.7778" y="60.9951">typeId:</text><a href="ReferenceTypeId.svg" target="_top" title="ReferenceTypeId.svg" xlink:actuate="onRequest" xlink:href="ReferenceTypeId.svg" xlink:show="new" xlink:title="ReferenceTypeId.svg" xlink:type="simple"><text fill="#0000FF" font-family="sans-serif" font-size="14" lengthAdjust="spacing" text-decoration="underline" textLength="118" x="196.7778" y="60.9951">ReferenceTypeId</text></a><text fill="#000000" font-family="sans-serif" font-size="14" lengthAdjust="spacing" textLength="61" x="145.7778" y="77.292">id: String</text><text fill="#000000" font-family="sans-serif" font-size="14" lengthAdjust="spacing" textLength="73" x="145.7778" y="93.5889">key: String</text></g></a><!--MD5=[b6f000b4569b0154c8ccbf93333761ee]
class CartAddPaymentAction--><a href="CartAddPaymentAction.svg" target="_top" title="CartAddPaymentAction.svg" xlink:actuate="onRequest" xlink:href="CartAddPaymentAction.svg" xlink:show="new" xlink:title="CartAddPaymentAction.svg" xlink:type="simple"><g id="elem_CartAddPaymentAction"><rect codeLine="22" fill="#F1F1F1" height="72.5938" id="CartAddPaymentAction" rx="2.5" ry="2.5" style="stroke:#181818;stroke-width:0.5;" width="267" x="1749" y="324.9141"/><ellipse cx="1798.25" cy="340.9141" fill="#B4A7E5" rx="11" ry="11" style="stroke:#181818;stroke-width:1.0;"/><path d="M1794.1719,336.6797 L1794.1719,334.5234 L1801.5625,334.5234 L1801.5625,336.6797 L1799.0938,336.6797 L1799.0938,344.7578 L1801.5625,344.7578 L1801.5625,346.9141 L1794.1719,346.9141 L1794.1719,344.7578 L1796.6406,344.7578 L1796.6406,336.6797 L1794.1719,336.6797 Z " fill="#000000"/><text fill="#000000" font-family="sans-serif" font-size="14" font-style="italic" lengthAdjust="spacing" textLength="160" x="1818.75" y="345.7607">CartAddPaymentAction</text><line style="stroke:#181818;stroke-width:0.5;" x1="1750" x2="2015" y1="356.9141" y2="356.9141"/><text fill="#000000" font-family="sans-serif" font-size="14" lengthAdjust="spacing" textLength="91" x="1755" y="373.9092">action: String</text><text fill="#000000" font-family="sans-serif" font-size="14" lengthAdjust="spacing" textLength="65" x="1755" y="390.2061">payment:</text><a href="PaymentResourceIdentifier.svg" target="_top" title="PaymentResourceIdentifier.svg" xlink:actuate="onRequest" xlink:href="PaymentResourceIdentifier.svg" xlink:show="new" xlink:title="PaymentResourceIdentifier.svg" xlink:type="simple"><text fill="#0000FF" font-family="sans-serif" font-size="14" lengthAdjust="spacing" text-decoration="underline" textLength="186" x="1824" y="390.2061">PaymentResourceIdentifier</text></a></g></a><!--MD5=[f2b932b562b6110505426173824d4b15]
class CartRemovePaymentAction--><a href="CartRemovePaymentAction.svg" target="_top" title="CartRemovePaymentAction.svg" xlink:actuate="onRequest" xlink:href="CartRemovePaymentAction.svg" xlink:show="new" xlink:title="CartRemovePaymentAction.svg" xlink:type="simple"><g id="elem_CartRemovePaymentAction"><rect codeLine="26" fill="#F1F1F1" height="72.5938" id="CartRemovePaymentAction" rx="2.5" ry="2.5" style="stroke:#181818;stroke-width:0.5;" width="267" x="2036" y="324.9141"/><ellipse cx="2071.25" cy="340.9141" fill="#B4A7E5" rx="11" ry="11" style="stroke:#181818;stroke-width:1.0;"/><path d="M2067.1719,336.6797 L2067.1719,334.5234 L2074.5625,334.5234 L2074.5625,336.6797 L2072.0938,336.6797 L2072.0938,344.7578 L2074.5625,344.7578 L2074.5625,346.9141 L2067.1719,346.9141 L2067.1719,344.7578 L2069.6406,344.7578 L2069.6406,336.6797 L2067.1719,336.6797 Z " fill="#000000"/><text fill="#000000" font-family="sans-serif" font-size="14" font-style="italic" lengthAdjust="spacing" textLength="190" x="2089.75" y="345.7607">CartRemovePaymentAction</text><line style="stroke:#181818;stroke-width:0.5;" x1="2037" x2="2302" y1="356.9141" y2="356.9141"/><text fill="#000000" font-family="sans-serif" font-size="14" lengthAdjust="spacing" textLength="91" x="2042" y="373.9092">action: String</text><text fill="#000000" font-family="sans-serif" font-size="14" lengthAdjust="spacing" textLength="65" x="2042" y="390.2061">payment:</text><a href="PaymentResourceIdentifier.svg" target="_top" title="PaymentResourceIdentifier.svg" xlink:actuate="onRequest" xlink:href="PaymentResourceIdentifier.svg" xlink:show="new" xlink:title="PaymentResourceIdentifier.svg" xlink:type="simple"><text fill="#0000FF" font-family="sans-serif" font-size="14" lengthAdjust="spacing" text-decoration="underline" textLength="186" x="2111" y="390.2061">PaymentResourceIdentifier</text></a></g></a><!--MD5=[225e404c2197347a4cd543e69d3e29d1]
class MyCartAddPaymentAction--><a href="MyCartAddPaymentAction.svg" target="_top" title="MyCartAddPaymentAction.svg" xlink:actuate="onRequest" xlink:href="MyCartAddPaymentAction.svg" xlink:show="new" xlink:title="MyCartAddPaymentAction.svg" xlink:type="simple"><g id="elem_MyCartAddPaymentAction"><rect codeLine="30" fill="#F1F1F1" height="72.5938" id="MyCartAddPaymentAction" rx="2.5" ry="2.5" style="stroke:#181818;stroke-width:0.5;" width="267" x="12" y="324.9141"/><ellipse cx="51.75" cy="340.9141" fill="#B4A7E5" rx="11" ry="11" style="stroke:#181818;stroke-width:1.0;"/><path d="M47.6719,336.6797 L47.6719,334.5234 L55.0625,334.5234 L55.0625,336.6797 L52.5938,336.6797 L52.5938,344.7578 L55.0625,344.7578 L55.0625,346.9141 L47.6719,346.9141 L47.6719,344.7578 L50.1406,344.7578 L50.1406,336.6797 L47.6719,336.6797 Z " fill="#000000"/><text fill="#000000" font-family="sans-serif" font-size="14" font-style="italic" lengthAdjust="spacing" textLength="180" x="71.25" y="345.7607">MyCartAddPaymentAction</text><line style="stroke:#181818;stroke-width:0.5;" x1="13" x2="278" y1="356.9141" y2="356.9141"/><text fill="#000000" font-family="sans-serif" font-size="14" lengthAdjust="spacing" textLength="91" x="18" y="373.9092">action: String</text><text fill="#000000" font-family="sans-serif" font-size="14" lengthAdjust="spacing" textLength="65" x="18" y="390.2061">payment:</text><a href="PaymentResourceIdentifier.svg" target="_top" title="PaymentResourceIdentifier.svg" xlink:actuate="onRequest" xlink:href="PaymentResourceIdentifier.svg" xlink:show="new" xlink:title="PaymentResourceIdentifier.svg" xlink:type="simple"><text fill="#0000FF" font-family="sans-serif" font-size="14" lengthAdjust="spacing" text-decoration="underline" textLength="186" x="87" y="390.2061">PaymentResourceIdentifier</text></a></g></a><!--MD5=[093a693e0c83917152dee915b93f1bc3]
class MyCartRemovePaymentAction--><a href="MyCartRemovePaymentAction.svg" target="_top" title="MyCartRemovePaymentAction.svg" xlink:actuate="onRequest" xlink:href="MyCartRemovePaymentAction.svg" xlink:show="new" xlink:title="MyCartRemovePaymentAction.svg" xlink:type="simple"><g id="elem_MyCartRemovePaymentAction"><rect codeLine="34" fill="#F1F1F1" height="72.5938" id="MyCartRemovePaymentAction" rx="2.5" ry="2.5" style="stroke:#181818;stroke-width:0.5;" width="267" x="586" y="324.9141"/><ellipse cx="612.25" cy="340.9141" fill="#B4A7E5" rx="11" ry="11" style="stroke:#181818;stroke-width:1.0;"/><path d="M608.1719,336.6797 L608.1719,334.5234 L615.5625,334.5234 L615.5625,336.6797 L613.0938,336.6797 L613.0938,344.7578 L615.5625,344.7578 L615.5625,346.9141 L608.1719,346.9141 L608.1719,344.7578 L610.6406,344.7578 L610.6406,336.6797 L608.1719,336.6797 Z " fill="#000000"/><text fill="#000000" font-family="sans-serif" font-size="14" font-style="italic" lengthAdjust="spacing" textLength="210" x="628.75" y="345.7607">MyCartRemovePaymentAction</text><line style="stroke:#181818;stroke-width:0.5;" x1="587" x2="852" y1="356.9141" y2="356.9141"/><text fill="#000000" font-family="sans-serif" font-size="14" lengthAdjust="spacing" textLength="91" x="592" y="373.9092">action: String</text><text fill="#000000" font-family="sans-serif" font-size="14" lengthAdjust="spacing" textLength="65" x="592" y="390.2061">payment:</text><a href="PaymentResourceIdentifier.svg" target="_top" title="PaymentResourceIdentifier.svg" xlink:actuate="onRequest" xlink:href="PaymentResourceIdentifier.svg" xlink:show="new" xlink:title="PaymentResourceIdentifier.svg" xlink:type="simple"><text fill="#0000FF" font-family="sans-serif" font-size="14" lengthAdjust="spacing" text-decoration="underline" textLength="186" x="661" y="390.2061">PaymentResourceIdentifier</text></a></g></a><!--MD5=[8f59d7a33091245df9e251b493412ad3]
class StagedOrderAddPaymentAction--><a href="StagedOrderAddPaymentAction.svg" target="_top" title="StagedOrderAddPaymentAction.svg" xlink:actuate="onRequest" xlink:href="StagedOrderAddPaymentAction.svg" xlink:show="new" xlink:title="StagedOrderAddPaymentAction.svg" xlink:type="simple"><g id="elem_StagedOrderAddPaymentAction"><rect codeLine="38" fill="#F1F1F1" height="72.5938" id="StagedOrderAddPaymentAction" rx="2.5" ry="2.5" style="stroke:#181818;stroke-width:0.5;" width="267" x="1160" y="324.9141"/><ellipse cx="1181.75" cy="340.9141" fill="#B4A7E5" rx="11" ry="11" style="stroke:#181818;stroke-width:1.0;"/><path d="M1177.6719,336.6797 L1177.6719,334.5234 L1185.0625,334.5234 L1185.0625,336.6797 L1182.5938,336.6797 L1182.5938,344.7578 L1185.0625,344.7578 L1185.0625,346.9141 L1177.6719,346.9141 L1177.6719,344.7578 L1180.1406,344.7578 L1180.1406,336.6797 L1177.6719,336.6797 Z " fill="#000000"/><text fill="#000000" font-family="sans-serif" font-size="14" font-style="italic" lengthAdjust="spacing" textLength="220" x="1197.25" y="345.7607">StagedOrderAddPaymentAction</text><line style="stroke:#181818;stroke-width:0.5;" x1="1161" x2="1426" y1="356.9141" y2="356.9141"/><text fill="#000000" font-family="sans-serif" font-size="14" lengthAdjust="spacing" textLength="91" x="1166" y="373.9092">action: String</text><text fill="#000000" font-family="sans-serif" font-size="14" lengthAdjust="spacing" textLength="65" x="1166" y="390.2061">payment:</text><a href="PaymentResourceIdentifier.svg" target="_top" title="PaymentResourceIdentifier.svg" xlink:actuate="onRequest" xlink:href="PaymentResourceIdentifier.svg" xlink:show="new" xlink:title="PaymentResourceIdentifier.svg" xlink:type="simple"><text fill="#0000FF" font-family="sans-serif" font-size="14" lengthAdjust="spacing" text-decoration="underline" textLength="186" x="1235" y="390.2061">PaymentResourceIdentifier</text></a></g></a><!--MD5=[a1f866e04006e838b57a6650e77aedc0]
class StagedOrderRemovePaymentAction--><a href="StagedOrderRemovePaymentAction.svg" target="_top" title="StagedOrderRemovePaymentAction.svg" xlink:actuate="onRequest" xlink:href="StagedOrderRemovePaymentAction.svg" xlink:show="new" xlink:title="StagedOrderRemovePaymentAction.svg" xlink:type="simple"><g id="elem_StagedOrderRemovePaymentAction"><rect codeLine="42" fill="#F1F1F1" height="72.5938" id="StagedOrderRemovePaymentAction" rx="2.5" ry="2.5" style="stroke:#181818;stroke-width:0.5;" width="282" x="1447" y="324.9141"/><ellipse cx="1462" cy="340.9141" fill="#B4A7E5" rx="11" ry="11" style="stroke:#181818;stroke-width:1.0;"/><path d="M1457.9219,336.6797 L1457.9219,334.5234 L1465.3125,334.5234 L1465.3125,336.6797 L1462.8438,336.6797 L1462.8438,344.7578 L1465.3125,344.7578 L1465.3125,346.9141 L1457.9219,346.9141 L1457.9219,344.7578 L1460.3906,344.7578 L1460.3906,336.6797 L1457.9219,336.6797 Z " fill="#000000"/><text fill="#000000" font-family="sans-serif" font-size="14" font-style="italic" lengthAdjust="spacing" textLength="250" x="1476" y="345.7607">StagedOrderRemovePaymentAction</text><line style="stroke:#181818;stroke-width:0.5;" x1="1448" x2="1728" y1="356.9141" y2="356.9141"/><text fill="#000000" font-family="sans-serif" font-size="14" lengthAdjust="spacing" textLength="91" x="1453" y="373.9092">action: String</text><text fill="#000000" font-family="sans-serif" font-size="14" lengthAdjust="spacing" textLength="65" x="1453" y="390.2061">payment:</text><a href="PaymentResourceIdentifier.svg" target="_top" title="PaymentResourceIdentifier.svg" xlink:actuate="onRequest" xlink:href="PaymentResourceIdentifier.svg" xlink:show="new" xlink:title="PaymentResourceIdentifier.svg" xlink:type="simple"><text fill="#0000FF" font-family="sans-serif" font-size="14" lengthAdjust="spacing" text-decoration="underline" textLength="186" x="1522" y="390.2061">PaymentResourceIdentifier</text></a></g></a><!--MD5=[841f27f0d2090ba9b49de45c304586cb]
class OrderAddPaymentAction--><a href="OrderAddPaymentAction.svg" target="_top" title="OrderAddPaymentAction.svg" xlink:actuate="onRequest" xlink:href="OrderAddPaymentAction.svg" xlink:show="new" xlink:title="OrderAddPaymentAction.svg" xlink:type="simple"><g id="elem_OrderAddPaymentAction"><rect codeLine="46" fill="#F1F1F1" height="72.5938" id="OrderAddPaymentAction" rx="2.5" ry="2.5" style="stroke:#181818;stroke-width:0.5;" width="267" x="873" y="324.9141"/><ellipse cx="916.8" cy="340.9141" fill="#B4A7E5" rx="11" ry="11" style="stroke:#181818;stroke-width:1.0;"/><path d="M912.7219,336.6797 L912.7219,334.5234 L920.1125,334.5234 L920.1125,336.6797 L917.6438,336.6797 L917.6438,344.7578 L920.1125,344.7578 L920.1125,346.9141 L912.7219,346.9141 L912.7219,344.7578 L915.1906,344.7578 L915.1906,336.6797 L912.7219,336.6797 Z " fill="#000000"/><text fill="#000000" font-family="sans-serif" font-size="14" font-style="italic" lengthAdjust="spacing" textLength="171" x="937.2" y="345.7607">OrderAddPaymentAction</text><line style="stroke:#181818;stroke-width:0.5;" x1="874" x2="1139" y1="356.9141" y2="356.9141"/><text fill="#000000" font-family="sans-serif" font-size="14" lengthAdjust="spacing" textLength="91" x="879" y="373.9092">action: String</text><text fill="#000000" font-family="sans-serif" font-size="14" lengthAdjust="spacing" textLength="65" x="879" y="390.2061">payment:</text><a href="PaymentResourceIdentifier.svg" target="_top" title="PaymentResourceIdentifier.svg" xlink:actuate="onRequest" xlink:href="PaymentResourceIdentifier.svg" xlink:show="new" xlink:title="PaymentResourceIdentifier.svg" xlink:type="simple"><text fill="#0000FF" font-family="sans-serif" font-size="14" lengthAdjust="spacing" text-decoration="underline" textLength="186" x="948" y="390.2061">PaymentResourceIdentifier</text></a></g></a><!--MD5=[01c75951d05ade1ea4e8d29438d1e600]
class OrderRemovePaymentAction--><a href="OrderRemovePaymentAction.svg" target="_top" title="OrderRemovePaymentAction.svg" xlink:actuate="onRequest" xlink:href="OrderRemovePaymentAction.svg" xlink:show="new" xlink:title="OrderRemovePaymentAction.svg" xlink:type="simple"><g id="elem_OrderRemovePaymentAction"><rect codeLine="50" fill="#F1F1F1" height="72.5938" id="OrderRemovePaymentAction" rx="2.5" ry="2.5" style="stroke:#181818;stroke-width:0.5;" width="267" x="299" y="324.9141"/><ellipse cx="329.3" cy="340.9141" fill="#B4A7E5" rx="11" ry="11" style="stroke:#181818;stroke-width:1.0;"/><path d="M325.2219,336.6797 L325.2219,334.5234 L332.6125,334.5234 L332.6125,336.6797 L330.1438,336.6797 L330.1438,344.7578 L332.6125,344.7578 L332.6125,346.9141 L325.2219,346.9141 L325.2219,344.7578 L327.6906,344.7578 L327.6906,336.6797 L325.2219,336.6797 Z " fill="#000000"/><text fill="#000000" font-family="sans-serif" font-size="14" font-style="italic" lengthAdjust="spacing" textLength="201" x="346.7" y="345.7607">OrderRemovePaymentAction</text><line style="stroke:#181818;stroke-width:0.5;" x1="300" x2="565" y1="356.9141" y2="356.9141"/><text fill="#000000" font-family="sans-serif" font-size="14" lengthAdjust="spacing" textLength="91" x="305" y="373.9092">action: String</text><text fill="#000000" font-family="sans-serif" font-size="14" lengthAdjust="spacing" textLength="65" x="305" y="390.2061">payment:</text><a href="PaymentResourceIdentifier.svg" target="_top" title="PaymentResourceIdentifier.svg" xlink:actuate="onRequest" xlink:href="PaymentResourceIdentifier.svg" xlink:show="new" xlink:title="PaymentResourceIdentifier.svg" xlink:type="simple"><text fill="#0000FF" font-family="sans-serif" font-size="14" lengthAdjust="spacing" text-decoration="underline" textLength="186" x="374" y="390.2061">PaymentResourceIdentifier</text></a></g></a><line style="stroke:#181818;stroke-width:1.0;" x1="230.2778" x2="230.2778" y1="100.8906" y2="120.8906"/><polygon fill="#FFFFFF" points="230.2778,100.8906,223.2778,119.8906,237.2778,119.8906,230.2778,100.8906" style="stroke:#181818;stroke-width:1.0;"/><line style="stroke:#008000;stroke-width:1.0;" x1="290.8333" x2="290.8333" y1="209.7813" y2="229.7813"/><line style="stroke:#008000;stroke-width:1.0;" x1="290.8333" x2="1882.5" y1="229.7813" y2="229.7813"/><line style="stroke:#008000;stroke-width:1.0;" x1="1882.5" x2="1882.5" y1="229.7813" y2="324.9141"/><polygon fill="#008000" points="1882.5,324.9141,1886.5,315.9141,1882.5,319.9141,1878.5,315.9141,1882.5,324.9141" style="stroke:#008000;stroke-width:1.0;"/><text fill="#000000" font-family="sans-serif" font-size="13" lengthAdjust="spacing" textLength="57" x="1823.5" y="301.8481">payment</text><line style="stroke:#008000;stroke-width:1.0;" x1="315.0556" x2="315.0556" y1="209.7813" y2="219.7813"/><line style="stroke:#008000;stroke-width:1.0;" x1="315.0556" x2="2169.5" y1="219.7813" y2="219.7813"/><line style="stroke:#008000;stroke-width:1.0;" x1="2169.5" x2="2169.5" y1="219.7813" y2="324.9141"/><polygon fill="#008000" points="2169.5,324.9141,2173.5,315.9141,2169.5,319.9141,2165.5,315.9141,2169.5,324.9141" style="stroke:#008000;stroke-width:1.0;"/><text fill="#000000" font-family="sans-serif" font-size="13" lengthAdjust="spacing" textLength="57" x="2110.5" y="301.8481">payment</text><line style="stroke:#008000;stroke-width:1.0;" x1="145.5" x2="145.5" y1="209.7813" y2="324.9141"/><polygon fill="#008000" points="145.5,324.9141,149.5,315.9141,145.5,319.9141,141.5,315.9141,145.5,324.9141" style="stroke:#008000;stroke-width:1.0;"/><text fill="#000000" font-family="sans-serif" font-size="13" lengthAdjust="spacing" textLength="57" x="86.5" y="301.8481">payment</text><line style="stroke:#008000;stroke-width:1.0;" x1="193.9444" x2="193.9444" y1="209.7813" y2="269.7813"/><line style="stroke:#008000;stroke-width:1.0;" x1="193.9444" x2="719.5" y1="269.7813" y2="269.7813"/><line style="stroke:#008000;stroke-width:1.0;" x1="719.5" x2="719.5" y1="269.7813" y2="324.9141"/><polygon fill="#008000" points="719.5,324.9141,723.5,315.9141,719.5,319.9141,715.5,315.9141,719.5,324.9141" style="stroke:#008000;stroke-width:1.0;"/><text fill="#000000" font-family="sans-serif" font-size="13" lengthAdjust="spacing" textLength="57" x="660.5" y="301.8481">payment</text><line style="stroke:#008000;stroke-width:1.0;" x1="242.3889" x2="242.3889" y1="209.7813" y2="249.7813"/><line style="stroke:#008000;stroke-width:1.0;" x1="242.3889" x2="1293.5" y1="249.7813" y2="249.7813"/><line style="stroke:#008000;stroke-width:1.0;" x1="1293.5" x2="1293.5" y1="249.7813" y2="324.9141"/><polygon fill="#008000" points="1293.5,324.9141,1297.5,315.9141,1293.5,319.9141,1289.5,315.9141,1293.5,324.9141" style="stroke:#008000;stroke-width:1.0;"/><text fill="#000000" font-family="sans-serif" font-size="13" lengthAdjust="spacing" textLength="57" x="1234.5" y="301.8481">payment</text><line style="stroke:#008000;stroke-width:1.0;" x1="266.6111" x2="266.6111" y1="209.7813" y2="239.7813"/><line style="stroke:#008000;stroke-width:1.0;" x1="266.6111" x2="1588" y1="239.7813" y2="239.7813"/><line style="stroke:#008000;stroke-width:1.0;" x1="1588" x2="1588" y1="239.7813" y2="324.9141"/><polygon fill="#008000" points="1588,324.9141,1592,315.9141,1588,319.9141,1584,315.9141,1588,324.9141" style="stroke:#008000;stroke-width:1.0;"/><text fill="#000000" font-family="sans-serif" font-size="13" lengthAdjust="spacing" textLength="57" x="1529" y="301.8481">payment</text><line style="stroke:#008000;stroke-width:1.0;" x1="218.1667" x2="218.1667" y1="209.7813" y2="259.7813"/><line style="stroke:#008000;stroke-width:1.0;" x1="218.1667" x2="1006.5" y1="259.7813" y2="259.7813"/><line style="stroke:#008000;stroke-width:1.0;" x1="1006.5" x2="1006.5" y1="259.7813" y2="324.9141"/><polygon fill="#008000" points="1006.5,324.9141,1010.5,315.9141,1006.5,319.9141,1002.5,315.9141,1006.5,324.9141" style="stroke:#008000;stroke-width:1.0;"/><text fill="#000000" font-family="sans-serif" font-size="13" lengthAdjust="spacing" textLength="57" x="947.5" y="301.8481">payment</text><line style="stroke:#008000;stroke-width:1.0;" x1="169.7222" x2="169.7222" y1="209.7813" y2="279.7813"/><line style="stroke:#008000;stroke-width:1.0;" x1="169.7222" x2="432.5" y1="279.7813" y2="279.7813"/><line style="stroke:#008000;stroke-width:1.0;" x1="432.5" x2="432.5" y1="279.7813" y2="324.9141"/><polygon fill="#008000" points="432.5,324.9141,436.5,315.9141,432.5,319.9141,428.5,315.9141,432.5,324.9141" style="stroke:#008000;stroke-width:1.0;"/><text fill="#000000" font-family="sans-serif" font-size="13" lengthAdjust="spacing" textLength="57" x="373.5" y="301.8481">payment</text><rect fill="#DDDDDD" height="79.1875" id="_legend" rx="7.5" ry="7.5" style="stroke:#000000;stroke-width:1.0;" width="161" x="1065" y="398.5078"/><text fill="#000000" font-family="sans-serif" font-size="14" font-weight="bold" lengthAdjust="spacing" textLength="5" x="1070" y="418.5029"> </text><text fill="#000000" font-family="sans-serif" font-size="14" font-weight="bold" lengthAdjust="spacing" textLength="28" x="1087" y="418.5029">line</text><text fill="#000000" filter="url(#b12f997c7f15rg0)" font-family="sans-serif" font-size="14" lengthAdjust="spacing" textLength="12" x="1070" y="434.7998">   </text><text fill="#000000" font-family="sans-serif" font-size="14" lengthAdjust="spacing" textLength="77" x="1086" y="434.7998">inheritance</text><text fill="#000000" filter="url(#b12f997c7f15rg1)" font-family="sans-serif" font-size="14" lengthAdjust="spacing" textLength="12" x="1070" y="451.0967">   </text><text fill="#000000" font-family="sans-serif" font-size="14" lengthAdjust="spacing" textLength="129" x="1086" y="451.0967">property reference</text><text fill="#000000" filter="url(#b12f997c7f15rg2)" font-family="sans-serif" font-size="14" lengthAdjust="spacing" textLength="12" x="1070" y="467.3936">   </text><text fill="#000000" font-family="sans-serif" font-size="14" lengthAdjust="spacing" textLength="131" x="1086" y="467.3936">discriminated class</text><line style="stroke:#000000;stroke-width:1.0;" x1="1070" x2="1221" y1="405.5078" y2="405.5078"/><line style="stroke:#000000;stroke-width:1.0;" x1="1070" x2="1221" y1="421.8047" y2="421.8047"/><line style="stroke:#000000;stroke-width:1.0;" x1="1070" x2="1221" y1="438.1016" y2="438.1016"/><line style="stroke:#000000;stroke-width:1.0;" x1="1070" x2="1221" y1="454.3984" y2="454.3984"/><line style="stroke:#000000;stroke-width:1.0;" x1="1070" x2="1221" y1="470.6953" y2="470.6953"/><line style="stroke:#000000;stroke-width:1.0;" x1="1070" x2="1070" y1="405.5078" y2="470.6953"/><line style="stroke:#000000;stroke-width:1.0;" x1="1082" x2="1082" y1="405.5078" y2="470.6953"/><line style="stroke:#000000;stroke-width:1.0;" x1="1221" x2="1221" y1="405.5078" y2="470.6953"/><!--MD5=[dda34acf33c22e20505e3184ada55614]
@startuml
!pragma layout elk
hide empty fields
hide empty methods
legend
|= |= line |
|<back:black>   </back>| inheritance |
|<back:green>   </back>| property reference |
|<back:blue>   </back>| discriminated class |
endlegend
interface PaymentResourceIdentifier [[PaymentResourceIdentifier.svg]] extends ResourceIdentifier {
    typeId: [[ReferenceTypeId.svg ReferenceTypeId]]
    id: String
    key: String
}
interface ResourceIdentifier [[ResourceIdentifier.svg]]  {
    typeId: [[ReferenceTypeId.svg ReferenceTypeId]]
    id: String
    key: String
}


interface CartAddPaymentAction [[CartAddPaymentAction.svg]]  {
    action: String
    payment: [[PaymentResourceIdentifier.svg PaymentResourceIdentifier]]
}
interface CartRemovePaymentAction [[CartRemovePaymentAction.svg]]  {
    action: String
    payment: [[PaymentResourceIdentifier.svg PaymentResourceIdentifier]]
}
interface MyCartAddPaymentAction [[MyCartAddPaymentAction.svg]]  {
    action: String
    payment: [[PaymentResourceIdentifier.svg PaymentResourceIdentifier]]
}
interface MyCartRemovePaymentAction [[MyCartRemovePaymentAction.svg]]  {
    action: String
    payment: [[PaymentResourceIdentifier.svg PaymentResourceIdentifier]]
}
interface StagedOrderAddPaymentAction [[StagedOrderAddPaymentAction.svg]]  {
    action: String
    payment: [[PaymentResourceIdentifier.svg PaymentResourceIdentifier]]
}
interface StagedOrderRemovePaymentAction [[StagedOrderRemovePaymentAction.svg]]  {
    action: String
    payment: [[PaymentResourceIdentifier.svg PaymentResourceIdentifier]]
}
interface OrderAddPaymentAction [[OrderAddPaymentAction.svg]]  {
    action: String
    payment: [[PaymentResourceIdentifier.svg PaymentResourceIdentifier]]
}
interface OrderRemovePaymentAction [[OrderRemovePaymentAction.svg]]  {
    action: String
    payment: [[PaymentResourceIdentifier.svg PaymentResourceIdentifier]]
}

PaymentResourceIdentifier - -> CartAddPaymentAction #green;text:green : "payment"
PaymentResourceIdentifier - -> CartRemovePaymentAction #green;text:green : "payment"
PaymentResourceIdentifier - -> MyCartAddPaymentAction #green;text:green : "payment"
PaymentResourceIdentifier - -> MyCartRemovePaymentAction #green;text:green : "payment"
PaymentResourceIdentifier - -> StagedOrderAddPaymentAction #green;text:green : "payment"
PaymentResourceIdentifier - -> StagedOrderRemovePaymentAction #green;text:green : "payment"
PaymentResourceIdentifier - -> OrderAddPaymentAction #green;text:green : "payment"
PaymentResourceIdentifier - -> OrderRemovePaymentAction #green;text:green : "payment"
@enduml

PlantUML version 1.2022.13(Sat Nov 19 13:22:17 UTC 2022)
(GPL source distribution)
Java Runtime: OpenJDK Runtime Environment
JVM: OpenJDK 64-Bit Server VM
Default Encoding: UTF-8
Language: en
Country: null
--></g></svg>
