<?xml version="1.0" encoding="UTF-8" standalone="no"?><svg xmlns="http://www.w3.org/2000/svg" xmlns:xlink="http://www.w3.org/1999/xlink" contentStyleType="text/css" height="244px" preserveAspectRatio="none" style="width:193px;height:244px;background:#FFFFFF;" version="1.1" viewBox="0 0 193 244" width="193px" zoomAndPan="magnify"><defs><filter height="1" id="bnfuzvn99qx9g0" width="1" x="0" y="0"><feFlood flood-color="#000000" result="flood"/><feComposite in="SourceGraphic" in2="flood" operator="over"/></filter><filter height="1" id="bnfuzvn99qx9g1" width="1" x="0" y="0"><feFlood flood-color="#008000" result="flood"/><feComposite in="SourceGraphic" in2="flood" operator="over"/></filter><filter height="1" id="bnfuzvn99qx9g2" width="1" x="0" y="0"><feFlood flood-color="#0000FF" result="flood"/><feComposite in="SourceGraphic" in2="flood" operator="over"/></filter></defs><g><!--MD5=[744bd176a51b61fac65eb281d963b1a5]
class PlatformFormat--><a href="PlatformFormat.svg" target="_top" title="PlatformFormat.svg" xlink:actuate="onRequest" xlink:href="PlatformFormat.svg" xlink:show="new" xlink:title="PlatformFormat.svg" xlink:type="simple"><g id="elem_PlatformFormat"><rect codeLine="10" fill="#F1F1F1" height="56.2969" id="PlatformFormat" rx="2.5" ry="2.5" style="stroke:#181818;stroke-width:0.5;" width="135" x="37" y="88.2969"/><ellipse cx="52" cy="104.2969" fill="#B4A7E5" rx="11" ry="11" style="stroke:#181818;stroke-width:1.0;"/><path d="M47.9219,100.0625 L47.9219,97.9063 L55.3125,97.9063 L55.3125,100.0625 L52.8438,100.0625 L52.8438,108.1406 L55.3125,108.1406 L55.3125,110.2969 L47.9219,110.2969 L47.9219,108.1406 L50.3906,108.1406 L50.3906,100.0625 L47.9219,100.0625 Z " fill="#000000"/><text fill="#000000" font-family="sans-serif" font-size="14" font-style="italic" lengthAdjust="spacing" textLength="103" x="66" y="109.1436">PlatformFormat</text><line style="stroke:#181818;stroke-width:0.5;" x1="38" x2="171" y1="120.2969" y2="120.2969"/><text fill="#000000" font-family="sans-serif" font-size="14" lengthAdjust="spacing" textLength="79" x="43" y="137.292">type: String</text></g></a><!--MD5=[d7b6e6e16a41e5ac6110803de28c7e8c]
class DeliveryFormat--><a href="DeliveryFormat.svg" target="_top" title="DeliveryFormat.svg" xlink:actuate="onRequest" xlink:href="DeliveryFormat.svg" xlink:show="new" xlink:title="DeliveryFormat.svg" xlink:type="simple"><g id="elem_DeliveryFormat"><rect codeLine="13" fill="#F1F1F1" height="56.2969" id="DeliveryFormat" rx="2.5" ry="2.5" style="stroke:#181818;stroke-width:0.5;" width="136" x="36.5" y="12"/><ellipse cx="51.5" cy="28" fill="#B4A7E5" rx="11" ry="11" style="stroke:#181818;stroke-width:1.0;"/><path d="M47.4219,23.7656 L47.4219,21.6094 L54.8125,21.6094 L54.8125,23.7656 L52.3438,23.7656 L52.3438,31.8438 L54.8125,31.8438 L54.8125,34 L47.4219,34 L47.4219,31.8438 L49.8906,31.8438 L49.8906,23.7656 L47.4219,23.7656 Z " fill="#000000"/><text fill="#000000" font-family="sans-serif" font-size="14" font-style="italic" lengthAdjust="spacing" textLength="104" x="65.5" y="32.8467">DeliveryFormat</text><line style="stroke:#181818;stroke-width:0.5;" x1="37.5" x2="171.5" y1="44" y2="44"/><text fill="#000000" font-family="sans-serif" font-size="14" lengthAdjust="spacing" textLength="79" x="42.5" y="60.9951">type: String</text></g></a><line style="stroke:#181818;stroke-width:1.0;" x1="104.5" x2="104.5" y1="68.2969" y2="88.2969"/><polygon fill="#FFFFFF" points="104.5,68.2969,97.5,87.2969,111.5,87.2969,104.5,68.2969" style="stroke:#181818;stroke-width:1.0;"/><rect fill="#DDDDDD" height="79.1875" id="_legend" rx="7.5" ry="7.5" style="stroke:#000000;stroke-width:1.0;" width="161" x="12" y="145.5938"/><text fill="#000000" font-family="sans-serif" font-size="14" font-weight="bold" lengthAdjust="spacing" textLength="5" x="17" y="165.5889"> </text><text fill="#000000" font-family="sans-serif" font-size="14" font-weight="bold" lengthAdjust="spacing" textLength="28" x="34" y="165.5889">line</text><text fill="#000000" filter="url(#bnfuzvn99qx9g0)" font-family="sans-serif" font-size="14" lengthAdjust="spacing" textLength="12" x="17" y="181.8857">   </text><text fill="#000000" font-family="sans-serif" font-size="14" lengthAdjust="spacing" textLength="77" x="33" y="181.8857">inheritance</text><text fill="#000000" filter="url(#bnfuzvn99qx9g1)" font-family="sans-serif" font-size="14" lengthAdjust="spacing" textLength="12" x="17" y="198.1826">   </text><text fill="#000000" font-family="sans-serif" font-size="14" lengthAdjust="spacing" textLength="129" x="33" y="198.1826">property reference</text><text fill="#000000" filter="url(#bnfuzvn99qx9g2)" font-family="sans-serif" font-size="14" lengthAdjust="spacing" textLength="12" x="17" y="214.4795">   </text><text fill="#000000" font-family="sans-serif" font-size="14" lengthAdjust="spacing" textLength="131" x="33" y="214.4795">discriminated class</text><line style="stroke:#000000;stroke-width:1.0;" x1="17" x2="168" y1="152.5938" y2="152.5938"/><line style="stroke:#000000;stroke-width:1.0;" x1="17" x2="168" y1="168.8906" y2="168.8906"/><line style="stroke:#000000;stroke-width:1.0;" x1="17" x2="168" y1="185.1875" y2="185.1875"/><line style="stroke:#000000;stroke-width:1.0;" x1="17" x2="168" y1="201.4844" y2="201.4844"/><line style="stroke:#000000;stroke-width:1.0;" x1="17" x2="168" y1="217.7813" y2="217.7813"/><line style="stroke:#000000;stroke-width:1.0;" x1="17" x2="17" y1="152.5938" y2="217.7813"/><line style="stroke:#000000;stroke-width:1.0;" x1="29" x2="29" y1="152.5938" y2="217.7813"/><line style="stroke:#000000;stroke-width:1.0;" x1="168" x2="168" y1="152.5938" y2="217.7813"/><!--MD5=[d0666fe4dae380c4700094c2a7793f0e]
@startuml
!pragma layout elk
hide empty fields
hide empty methods
legend
|= |= line |
|<back:black>   </back>| inheritance |
|<back:green>   </back>| property reference |
|<back:blue>   </back>| discriminated class |
endlegend
interface PlatformFormat [[PlatformFormat.svg]] extends DeliveryFormat {
    type: String
}
interface DeliveryFormat [[DeliveryFormat.svg]]  {
    type: String
}





@enduml

PlantUML version 1.2022.13(Sat Nov 19 13:22:17 UTC 2022)
(GPL source distribution)
Java Runtime: OpenJDK Runtime Environment
JVM: OpenJDK 64-Bit Server VM
Default Encoding: UTF-8
Language: en
Country: null
--></g></svg>
