<?xml version="1.0" encoding="UTF-8" standalone="no"?><svg xmlns="http://www.w3.org/2000/svg" xmlns:xlink="http://www.w3.org/1999/xlink" contentStyleType="text/css" height="293px" preserveAspectRatio="none" style="width:254px;height:293px;background:#FFFFFF;" version="1.1" viewBox="0 0 254 293" width="254px" zoomAndPan="magnify"><defs><filter height="1" id="b1agd4g38u2r470" width="1" x="0" y="0"><feFlood flood-color="#000000" result="flood"/><feComposite in="SourceGraphic" in2="flood" operator="over"/></filter><filter height="1" id="b1agd4g38u2r471" width="1" x="0" y="0"><feFlood flood-color="#008000" result="flood"/><feComposite in="SourceGraphic" in2="flood" operator="over"/></filter><filter height="1" id="b1agd4g38u2r472" width="1" x="0" y="0"><feFlood flood-color="#0000FF" result="flood"/><feComposite in="SourceGraphic" in2="flood" operator="over"/></filter></defs><g><!--MD5=[fa0d5cadfc172cf47d992084bc953f90]
class ProductRemoveVariantAction--><a href="ProductRemoveVariantAction.svg" target="_top" title="ProductRemoveVariantAction.svg" xlink:actuate="onRequest" xlink:href="ProductRemoveVariantAction.svg" xlink:show="new" xlink:title="ProductRemoveVariantAction.svg" xlink:type="simple"><g id="elem_ProductRemoveVariantAction"><rect codeLine="10" fill="#F1F1F1" height="105.1875" id="ProductRemoveVariantAction" rx="2.5" ry="2.5" style="stroke:#181818;stroke-width:0.5;" width="235" x="12" y="88.2969"/><ellipse cx="27" cy="104.2969" fill="#B4A7E5" rx="11" ry="11" style="stroke:#181818;stroke-width:1.0;"/><path d="M22.9219,100.0625 L22.9219,97.9063 L30.3125,97.9063 L30.3125,100.0625 L27.8438,100.0625 L27.8438,108.1406 L30.3125,108.1406 L30.3125,110.2969 L22.9219,110.2969 L22.9219,108.1406 L25.3906,108.1406 L25.3906,100.0625 L22.9219,100.0625 Z " fill="#000000"/><text fill="#000000" font-family="sans-serif" font-size="14" font-style="italic" lengthAdjust="spacing" textLength="203" x="41" y="109.1436">ProductRemoveVariantAction</text><line style="stroke:#181818;stroke-width:0.5;" x1="13" x2="246" y1="120.2969" y2="120.2969"/><text fill="#000000" font-family="sans-serif" font-size="14" lengthAdjust="spacing" textLength="91" x="18" y="137.292">action: String</text><text fill="#000000" font-family="sans-serif" font-size="14" lengthAdjust="spacing" textLength="55" x="18" y="153.5889">id: Long</text><text fill="#000000" font-family="sans-serif" font-size="14" lengthAdjust="spacing" textLength="74" x="18" y="169.8857">sku: String</text><text fill="#000000" font-family="sans-serif" font-size="14" lengthAdjust="spacing" textLength="114" x="18" y="186.1826">staged: Boolean</text></g></a><!--MD5=[427793c9d75825e68c22306e363881bd]
class ProductUpdateAction--><a href="ProductUpdateAction.svg" target="_top" title="ProductUpdateAction.svg" xlink:actuate="onRequest" xlink:href="ProductUpdateAction.svg" xlink:show="new" xlink:title="ProductUpdateAction.svg" xlink:type="simple"><g id="elem_ProductUpdateAction"><rect codeLine="16" fill="#F1F1F1" height="56.2969" id="ProductUpdateAction" rx="2.5" ry="2.5" style="stroke:#181818;stroke-width:0.5;" width="179" x="40" y="12"/><ellipse cx="55" cy="28" fill="#B4A7E5" rx="11" ry="11" style="stroke:#181818;stroke-width:1.0;"/><path d="M50.9219,23.7656 L50.9219,21.6094 L58.3125,21.6094 L58.3125,23.7656 L55.8438,23.7656 L55.8438,31.8438 L58.3125,31.8438 L58.3125,34 L50.9219,34 L50.9219,31.8438 L53.3906,31.8438 L53.3906,23.7656 L50.9219,23.7656 Z " fill="#000000"/><text fill="#000000" font-family="sans-serif" font-size="14" font-style="italic" lengthAdjust="spacing" textLength="147" x="69" y="32.8467">ProductUpdateAction</text><line style="stroke:#181818;stroke-width:0.5;" x1="41" x2="218" y1="44" y2="44"/><text fill="#000000" font-family="sans-serif" font-size="14" lengthAdjust="spacing" textLength="91" x="46" y="60.9951">action: String</text></g></a><line style="stroke:#181818;stroke-width:1.0;" x1="129.5" x2="129.5" y1="68.2969" y2="88.2969"/><polygon fill="#FFFFFF" points="129.5,68.2969,122.5,87.2969,136.5,87.2969,129.5,68.2969" style="stroke:#181818;stroke-width:1.0;"/><rect fill="#DDDDDD" height="79.1875" id="_legend" rx="7.5" ry="7.5" style="stroke:#000000;stroke-width:1.0;" width="161" x="37" y="194.4844"/><text fill="#000000" font-family="sans-serif" font-size="14" font-weight="bold" lengthAdjust="spacing" textLength="5" x="42" y="214.4795"> </text><text fill="#000000" font-family="sans-serif" font-size="14" font-weight="bold" lengthAdjust="spacing" textLength="28" x="59" y="214.4795">line</text><text fill="#000000" filter="url(#b1agd4g38u2r470)" font-family="sans-serif" font-size="14" lengthAdjust="spacing" textLength="12" x="42" y="230.7764">   </text><text fill="#000000" font-family="sans-serif" font-size="14" lengthAdjust="spacing" textLength="77" x="58" y="230.7764">inheritance</text><text fill="#000000" filter="url(#b1agd4g38u2r471)" font-family="sans-serif" font-size="14" lengthAdjust="spacing" textLength="12" x="42" y="247.0732">   </text><text fill="#000000" font-family="sans-serif" font-size="14" lengthAdjust="spacing" textLength="129" x="58" y="247.0732">property reference</text><text fill="#000000" filter="url(#b1agd4g38u2r472)" font-family="sans-serif" font-size="14" lengthAdjust="spacing" textLength="12" x="42" y="263.3701">   </text><text fill="#000000" font-family="sans-serif" font-size="14" lengthAdjust="spacing" textLength="131" x="58" y="263.3701">discriminated class</text><line style="stroke:#000000;stroke-width:1.0;" x1="42" x2="193" y1="201.4844" y2="201.4844"/><line style="stroke:#000000;stroke-width:1.0;" x1="42" x2="193" y1="217.7813" y2="217.7813"/><line style="stroke:#000000;stroke-width:1.0;" x1="42" x2="193" y1="234.0781" y2="234.0781"/><line style="stroke:#000000;stroke-width:1.0;" x1="42" x2="193" y1="250.375" y2="250.375"/><line style="stroke:#000000;stroke-width:1.0;" x1="42" x2="193" y1="266.6719" y2="266.6719"/><line style="stroke:#000000;stroke-width:1.0;" x1="42" x2="42" y1="201.4844" y2="266.6719"/><line style="stroke:#000000;stroke-width:1.0;" x1="54" x2="54" y1="201.4844" y2="266.6719"/><line style="stroke:#000000;stroke-width:1.0;" x1="193" x2="193" y1="201.4844" y2="266.6719"/><!--MD5=[ebb6467c9efbf117ac7db87298202b3f]
@startuml
!pragma layout elk
hide empty fields
hide empty methods
legend
|= |= line |
|<back:black>   </back>| inheritance |
|<back:green>   </back>| property reference |
|<back:blue>   </back>| discriminated class |
endlegend
interface ProductRemoveVariantAction [[ProductRemoveVariantAction.svg]] extends ProductUpdateAction {
    action: String
    id: Long
    sku: String
    staged: Boolean
}
interface ProductUpdateAction [[ProductUpdateAction.svg]]  {
    action: String
}





@enduml

PlantUML version 1.2022.13(Sat Nov 19 13:22:17 UTC 2022)
(GPL source distribution)
Java Runtime: OpenJDK Runtime Environment
JVM: OpenJDK 64-Bit Server VM
Default Encoding: UTF-8
Language: en
Country: null
--></g></svg>
