<?xml version="1.0" encoding="UTF-8" standalone="no"?><svg xmlns="http://www.w3.org/2000/svg" xmlns:xlink="http://www.w3.org/1999/xlink" contentStyleType="text/css" height="244px" preserveAspectRatio="none" style="width:216px;height:244px;background:#FFFFFF;" version="1.1" viewBox="0 0 216 244" width="216px" zoomAndPan="magnify"><defs><filter height="1" id="bkb2jqmgmgxtn0" width="1" x="0" y="0"><feFlood flood-color="#000000" result="flood"/><feComposite in="SourceGraphic" in2="flood" operator="over"/></filter><filter height="1" id="bkb2jqmgmgxtn1" width="1" x="0" y="0"><feFlood flood-color="#008000" result="flood"/><feComposite in="SourceGraphic" in2="flood" operator="over"/></filter><filter height="1" id="bkb2jqmgmgxtn2" width="1" x="0" y="0"><feFlood flood-color="#0000FF" result="flood"/><feComposite in="SourceGraphic" in2="flood" operator="over"/></filter></defs><g><!--MD5=[b6ee217d10d757cbccc368e0e6d4ced8]
class ProductUnpublishAction--><a href="ProductUnpublishAction.svg" target="_top" title="ProductUnpublishAction.svg" xlink:actuate="onRequest" xlink:href="ProductUnpublishAction.svg" xlink:show="new" xlink:title="ProductUnpublishAction.svg" xlink:type="simple"><g id="elem_ProductUnpublishAction"><rect codeLine="10" fill="#F1F1F1" height="56.2969" id="ProductUnpublishAction" rx="2.5" ry="2.5" style="stroke:#181818;stroke-width:0.5;" width="197" x="12" y="88.2969"/><ellipse cx="27" cy="104.2969" fill="#B4A7E5" rx="11" ry="11" style="stroke:#181818;stroke-width:1.0;"/><path d="M22.9219,100.0625 L22.9219,97.9063 L30.3125,97.9063 L30.3125,100.0625 L27.8438,100.0625 L27.8438,108.1406 L30.3125,108.1406 L30.3125,110.2969 L22.9219,110.2969 L22.9219,108.1406 L25.3906,108.1406 L25.3906,100.0625 L22.9219,100.0625 Z " fill="#000000"/><text fill="#000000" font-family="sans-serif" font-size="14" font-style="italic" lengthAdjust="spacing" textLength="165" x="41" y="109.1436">ProductUnpublishAction</text><line style="stroke:#181818;stroke-width:0.5;" x1="13" x2="208" y1="120.2969" y2="120.2969"/><text fill="#000000" font-family="sans-serif" font-size="14" lengthAdjust="spacing" textLength="91" x="18" y="137.292">action: String</text></g></a><!--MD5=[427793c9d75825e68c22306e363881bd]
class ProductUpdateAction--><a href="ProductUpdateAction.svg" target="_top" title="ProductUpdateAction.svg" xlink:actuate="onRequest" xlink:href="ProductUpdateAction.svg" xlink:show="new" xlink:title="ProductUpdateAction.svg" xlink:type="simple"><g id="elem_ProductUpdateAction"><rect codeLine="13" fill="#F1F1F1" height="56.2969" id="ProductUpdateAction" rx="2.5" ry="2.5" style="stroke:#181818;stroke-width:0.5;" width="179" x="21" y="12"/><ellipse cx="36" cy="28" fill="#B4A7E5" rx="11" ry="11" style="stroke:#181818;stroke-width:1.0;"/><path d="M31.9219,23.7656 L31.9219,21.6094 L39.3125,21.6094 L39.3125,23.7656 L36.8438,23.7656 L36.8438,31.8438 L39.3125,31.8438 L39.3125,34 L31.9219,34 L31.9219,31.8438 L34.3906,31.8438 L34.3906,23.7656 L31.9219,23.7656 Z " fill="#000000"/><text fill="#000000" font-family="sans-serif" font-size="14" font-style="italic" lengthAdjust="spacing" textLength="147" x="50" y="32.8467">ProductUpdateAction</text><line style="stroke:#181818;stroke-width:0.5;" x1="22" x2="199" y1="44" y2="44"/><text fill="#000000" font-family="sans-serif" font-size="14" lengthAdjust="spacing" textLength="91" x="27" y="60.9951">action: String</text></g></a><line style="stroke:#181818;stroke-width:1.0;" x1="110.5" x2="110.5" y1="68.2969" y2="88.2969"/><polygon fill="#FFFFFF" points="110.5,68.2969,103.5,87.2969,117.5,87.2969,110.5,68.2969" style="stroke:#181818;stroke-width:1.0;"/><rect fill="#DDDDDD" height="79.1875" id="_legend" rx="7.5" ry="7.5" style="stroke:#000000;stroke-width:1.0;" width="161" x="18" y="145.5938"/><text fill="#000000" font-family="sans-serif" font-size="14" font-weight="bold" lengthAdjust="spacing" textLength="5" x="23" y="165.5889"> </text><text fill="#000000" font-family="sans-serif" font-size="14" font-weight="bold" lengthAdjust="spacing" textLength="28" x="40" y="165.5889">line</text><text fill="#000000" filter="url(#bkb2jqmgmgxtn0)" font-family="sans-serif" font-size="14" lengthAdjust="spacing" textLength="12" x="23" y="181.8857">   </text><text fill="#000000" font-family="sans-serif" font-size="14" lengthAdjust="spacing" textLength="77" x="39" y="181.8857">inheritance</text><text fill="#000000" filter="url(#bkb2jqmgmgxtn1)" font-family="sans-serif" font-size="14" lengthAdjust="spacing" textLength="12" x="23" y="198.1826">   </text><text fill="#000000" font-family="sans-serif" font-size="14" lengthAdjust="spacing" textLength="129" x="39" y="198.1826">property reference</text><text fill="#000000" filter="url(#bkb2jqmgmgxtn2)" font-family="sans-serif" font-size="14" lengthAdjust="spacing" textLength="12" x="23" y="214.4795">   </text><text fill="#000000" font-family="sans-serif" font-size="14" lengthAdjust="spacing" textLength="131" x="39" y="214.4795">discriminated class</text><line style="stroke:#000000;stroke-width:1.0;" x1="23" x2="174" y1="152.5938" y2="152.5938"/><line style="stroke:#000000;stroke-width:1.0;" x1="23" x2="174" y1="168.8906" y2="168.8906"/><line style="stroke:#000000;stroke-width:1.0;" x1="23" x2="174" y1="185.1875" y2="185.1875"/><line style="stroke:#000000;stroke-width:1.0;" x1="23" x2="174" y1="201.4844" y2="201.4844"/><line style="stroke:#000000;stroke-width:1.0;" x1="23" x2="174" y1="217.7813" y2="217.7813"/><line style="stroke:#000000;stroke-width:1.0;" x1="23" x2="23" y1="152.5938" y2="217.7813"/><line style="stroke:#000000;stroke-width:1.0;" x1="35" x2="35" y1="152.5938" y2="217.7813"/><line style="stroke:#000000;stroke-width:1.0;" x1="174" x2="174" y1="152.5938" y2="217.7813"/><!--MD5=[e387e368ceff6e5dc166f2c5eb3a966e]
@startuml
!pragma layout elk
hide empty fields
hide empty methods
legend
|= |= line |
|<back:black>   </back>| inheritance |
|<back:green>   </back>| property reference |
|<back:blue>   </back>| discriminated class |
endlegend
interface ProductUnpublishAction [[ProductUnpublishAction.svg]] extends ProductUpdateAction {
    action: String
}
interface ProductUpdateAction [[ProductUpdateAction.svg]]  {
    action: String
}





@enduml

PlantUML version 1.2022.13(Sat Nov 19 13:22:17 UTC 2022)
(GPL source distribution)
Java Runtime: OpenJDK Runtime Environment
JVM: OpenJDK 64-Bit Server VM
Default Encoding: UTF-8
Language: en
Country: null
--></g></svg>
