<?xml version="1.0" encoding="UTF-8" standalone="no"?><svg xmlns="http://www.w3.org/2000/svg" xmlns:xlink="http://www.w3.org/1999/xlink" contentStyleType="text/css" height="402px" preserveAspectRatio="none" style="width:3463px;height:402px;background:#FFFFFF;" version="1.1" viewBox="0 0 3463 402" width="3463px" zoomAndPan="magnify"><defs><filter height="1" id="blw33ymk5ussl0" width="1" x="0" y="0"><feFlood flood-color="#000000" result="flood"/><feComposite in="SourceGraphic" in2="flood" operator="over"/></filter><filter height="1" id="blw33ymk5ussl1" width="1" x="0" y="0"><feFlood flood-color="#008000" result="flood"/><feComposite in="SourceGraphic" in2="flood" operator="over"/></filter><filter height="1" id="blw33ymk5ussl2" width="1" x="0" y="0"><feFlood flood-color="#0000FF" result="flood"/><feComposite in="SourceGraphic" in2="flood" operator="over"/></filter></defs><g><!--MD5=[8f9f310fb52227e1ada7858e659d00b3]
class ProductDiscountUpdateAction--><a href="ProductDiscountUpdateAction.svg" target="_top" title="ProductDiscountUpdateAction.svg" xlink:actuate="onRequest" xlink:href="ProductDiscountUpdateAction.svg" xlink:show="new" xlink:title="ProductDiscountUpdateAction.svg" xlink:type="simple"><g id="elem_ProductDiscountUpdateAction"><rect codeLine="10" fill="#F1F1F1" height="56.2969" id="ProductDiscountUpdateAction" rx="2.5" ry="2.5" style="stroke:#181818;stroke-width:0.5;" width="240" x="152" y="12"/><ellipse cx="167" cy="28" fill="#B4A7E5" rx="11" ry="11" style="stroke:#181818;stroke-width:1.0;"/><path d="M162.9219,23.7656 L162.9219,21.6094 L170.3125,21.6094 L170.3125,23.7656 L167.8438,23.7656 L167.8438,31.8438 L170.3125,31.8438 L170.3125,34 L162.9219,34 L162.9219,31.8438 L165.3906,31.8438 L165.3906,23.7656 L162.9219,23.7656 Z " fill="#000000"/><text fill="#000000" font-family="sans-serif" font-size="14" font-style="italic" lengthAdjust="spacing" textLength="208" x="181" y="32.8467">ProductDiscountUpdateAction</text><line style="stroke:#181818;stroke-width:0.5;" x1="153" x2="391" y1="44" y2="44"/><text fill="#000000" font-family="sans-serif" font-size="14" lengthAdjust="spacing" textLength="91" x="158" y="60.9951">action: String</text></g></a><!--MD5=[565f25716af35a4d30fd226cdca64e30]
class ProductDiscountChangeIsActiveAction--><a href="ProductDiscountChangeIsActiveAction.svg" target="_top" title="ProductDiscountChangeIsActiveAction.svg" xlink:actuate="onRequest" xlink:href="ProductDiscountChangeIsActiveAction.svg" xlink:show="new" xlink:title="ProductDiscountChangeIsActiveAction.svg" xlink:type="simple"><g id="elem_ProductDiscountChangeIsActiveAction"><rect codeLine="15" fill="#F1F1F1" height="72.5938" id="ProductDiscountChangeIsActiveAction" rx="2.5" ry="2.5" style="stroke:#181818;stroke-width:0.5;" width="298" x="2853" y="213.4297"/><ellipse cx="2868" cy="229.4297" fill="#B4A7E5" rx="11" ry="11" style="stroke:#181818;stroke-width:1.0;"/><path d="M2863.9219,225.1953 L2863.9219,223.0391 L2871.3125,223.0391 L2871.3125,225.1953 L2868.8438,225.1953 L2868.8438,233.2734 L2871.3125,233.2734 L2871.3125,235.4297 L2863.9219,235.4297 L2863.9219,233.2734 L2866.3906,233.2734 L2866.3906,225.1953 L2863.9219,225.1953 Z " fill="#000000"/><text fill="#000000" font-family="sans-serif" font-size="14" font-style="italic" lengthAdjust="spacing" textLength="266" x="2882" y="234.2764">ProductDiscountChangeIsActiveAction</text><line style="stroke:#181818;stroke-width:0.5;" x1="2854" x2="3150" y1="245.4297" y2="245.4297"/><text fill="#000000" font-family="sans-serif" font-size="14" lengthAdjust="spacing" textLength="91" x="2859" y="262.4248">action: String</text><text fill="#000000" font-family="sans-serif" font-size="14" lengthAdjust="spacing" textLength="118" x="2859" y="278.7217">isActive: Boolean</text></g></a><!--MD5=[e9029b43dfcf1d8fd58b956b0026d2de]
class ProductDiscountChangeNameAction--><a href="ProductDiscountChangeNameAction.svg" target="_top" title="ProductDiscountChangeNameAction.svg" xlink:actuate="onRequest" xlink:href="ProductDiscountChangeNameAction.svg" xlink:show="new" xlink:title="ProductDiscountChangeNameAction.svg" xlink:type="simple"><g id="elem_ProductDiscountChangeNameAction"><rect codeLine="19" fill="#F1F1F1" height="72.5938" id="ProductDiscountChangeNameAction" rx="2.5" ry="2.5" style="stroke:#181818;stroke-width:0.5;" width="285" x="3171" y="213.4297"/><ellipse cx="3186" cy="229.4297" fill="#B4A7E5" rx="11" ry="11" style="stroke:#181818;stroke-width:1.0;"/><path d="M3181.9219,225.1953 L3181.9219,223.0391 L3189.3125,223.0391 L3189.3125,225.1953 L3186.8438,225.1953 L3186.8438,233.2734 L3189.3125,233.2734 L3189.3125,235.4297 L3181.9219,235.4297 L3181.9219,233.2734 L3184.3906,233.2734 L3184.3906,225.1953 L3181.9219,225.1953 Z " fill="#000000"/><text fill="#000000" font-family="sans-serif" font-size="14" font-style="italic" lengthAdjust="spacing" textLength="253" x="3200" y="234.2764">ProductDiscountChangeNameAction</text><line style="stroke:#181818;stroke-width:0.5;" x1="3172" x2="3455" y1="245.4297" y2="245.4297"/><text fill="#000000" font-family="sans-serif" font-size="14" lengthAdjust="spacing" textLength="91" x="3177" y="262.4248">action: String</text><text fill="#000000" font-family="sans-serif" font-size="14" lengthAdjust="spacing" textLength="44" x="3177" y="278.7217">name:</text><a href="LocalizedString.svg" target="_top" title="LocalizedString.svg" xlink:actuate="onRequest" xlink:href="LocalizedString.svg" xlink:show="new" xlink:title="LocalizedString.svg" xlink:type="simple"><text fill="#0000FF" font-family="sans-serif" font-size="14" lengthAdjust="spacing" text-decoration="underline" textLength="104" x="3225" y="278.7217">LocalizedString</text></a></g></a><!--MD5=[5a71007ed879953935d8ebdf9219359c]
class ProductDiscountChangePredicateAction--><a href="ProductDiscountChangePredicateAction.svg" target="_top" title="ProductDiscountChangePredicateAction.svg" xlink:actuate="onRequest" xlink:href="ProductDiscountChangePredicateAction.svg" xlink:show="new" xlink:title="ProductDiscountChangePredicateAction.svg" xlink:type="simple"><g id="elem_ProductDiscountChangePredicateAction"><rect codeLine="23" fill="#F1F1F1" height="72.5938" id="ProductDiscountChangePredicateAction" rx="2.5" ry="2.5" style="stroke:#181818;stroke-width:0.5;" width="308" x="18" y="213.4297"/><ellipse cx="33" cy="229.4297" fill="#B4A7E5" rx="11" ry="11" style="stroke:#181818;stroke-width:1.0;"/><path d="M28.9219,225.1953 L28.9219,223.0391 L36.3125,223.0391 L36.3125,225.1953 L33.8438,225.1953 L33.8438,233.2734 L36.3125,233.2734 L36.3125,235.4297 L28.9219,235.4297 L28.9219,233.2734 L31.3906,233.2734 L31.3906,225.1953 L28.9219,225.1953 Z " fill="#000000"/><text fill="#000000" font-family="sans-serif" font-size="14" font-style="italic" lengthAdjust="spacing" textLength="276" x="47" y="234.2764">ProductDiscountChangePredicateAction</text><line style="stroke:#181818;stroke-width:0.5;" x1="19" x2="325" y1="245.4297" y2="245.4297"/><text fill="#000000" font-family="sans-serif" font-size="14" lengthAdjust="spacing" textLength="91" x="24" y="262.4248">action: String</text><text fill="#000000" font-family="sans-serif" font-size="14" lengthAdjust="spacing" textLength="114" x="24" y="278.7217">predicate: String</text></g></a><!--MD5=[99902ffc8daf4fc66a0aa223bc90bfbd]
class ProductDiscountChangeSortOrderAction--><a href="ProductDiscountChangeSortOrderAction.svg" target="_top" title="ProductDiscountChangeSortOrderAction.svg" xlink:actuate="onRequest" xlink:href="ProductDiscountChangeSortOrderAction.svg" xlink:show="new" xlink:title="ProductDiscountChangeSortOrderAction.svg" xlink:type="simple"><g id="elem_ProductDiscountChangeSortOrderAction"><rect codeLine="27" fill="#F1F1F1" height="72.5938" id="ProductDiscountChangeSortOrderAction" rx="2.5" ry="2.5" style="stroke:#181818;stroke-width:0.5;" width="311" x="1290" y="213.4297"/><ellipse cx="1305" cy="229.4297" fill="#B4A7E5" rx="11" ry="11" style="stroke:#181818;stroke-width:1.0;"/><path d="M1300.9219,225.1953 L1300.9219,223.0391 L1308.3125,223.0391 L1308.3125,225.1953 L1305.8438,225.1953 L1305.8438,233.2734 L1308.3125,233.2734 L1308.3125,235.4297 L1300.9219,235.4297 L1300.9219,233.2734 L1303.3906,233.2734 L1303.3906,225.1953 L1300.9219,225.1953 Z " fill="#000000"/><text fill="#000000" font-family="sans-serif" font-size="14" font-style="italic" lengthAdjust="spacing" textLength="279" x="1319" y="234.2764">ProductDiscountChangeSortOrderAction</text><line style="stroke:#181818;stroke-width:0.5;" x1="1291" x2="1600" y1="245.4297" y2="245.4297"/><text fill="#000000" font-family="sans-serif" font-size="14" lengthAdjust="spacing" textLength="91" x="1296" y="262.4248">action: String</text><text fill="#000000" font-family="sans-serif" font-size="14" lengthAdjust="spacing" textLength="115" x="1296" y="278.7217">sortOrder: String</text></g></a><!--MD5=[45bc6aa088a243bfd4c88b478e060be9]
class ProductDiscountChangeValueAction--><a href="ProductDiscountChangeValueAction.svg" target="_top" title="ProductDiscountChangeValueAction.svg" xlink:actuate="onRequest" xlink:href="ProductDiscountChangeValueAction.svg" xlink:show="new" xlink:title="ProductDiscountChangeValueAction.svg" xlink:type="simple"><g id="elem_ProductDiscountChangeValueAction"><rect codeLine="31" fill="#F1F1F1" height="72.5938" id="ProductDiscountChangeValueAction" rx="2.5" ry="2.5" style="stroke:#181818;stroke-width:0.5;" width="283" x="2239" y="213.4297"/><ellipse cx="2254" cy="229.4297" fill="#B4A7E5" rx="11" ry="11" style="stroke:#181818;stroke-width:1.0;"/><path d="M2249.9219,225.1953 L2249.9219,223.0391 L2257.3125,223.0391 L2257.3125,225.1953 L2254.8438,225.1953 L2254.8438,233.2734 L2257.3125,233.2734 L2257.3125,235.4297 L2249.9219,235.4297 L2249.9219,233.2734 L2252.3906,233.2734 L2252.3906,225.1953 L2249.9219,225.1953 Z " fill="#000000"/><text fill="#000000" font-family="sans-serif" font-size="14" font-style="italic" lengthAdjust="spacing" textLength="251" x="2268" y="234.2764">ProductDiscountChangeValueAction</text><line style="stroke:#181818;stroke-width:0.5;" x1="2240" x2="2521" y1="245.4297" y2="245.4297"/><text fill="#000000" font-family="sans-serif" font-size="14" lengthAdjust="spacing" textLength="91" x="2245" y="262.4248">action: String</text><text fill="#000000" font-family="sans-serif" font-size="14" lengthAdjust="spacing" textLength="41" x="2245" y="278.7217">value:</text><a href="ProductDiscountValueDraft.svg" target="_top" title="ProductDiscountValueDraft.svg" xlink:actuate="onRequest" xlink:href="ProductDiscountValueDraft.svg" xlink:show="new" xlink:title="ProductDiscountValueDraft.svg" xlink:type="simple"><text fill="#0000FF" font-family="sans-serif" font-size="14" lengthAdjust="spacing" text-decoration="underline" textLength="187" x="2290" y="278.7217">ProductDiscountValueDraft</text></a></g></a><!--MD5=[109bbc740ef046745b5ea483b638d0cf]
class ProductDiscountSetDescriptionAction--><a href="ProductDiscountSetDescriptionAction.svg" target="_top" title="ProductDiscountSetDescriptionAction.svg" xlink:actuate="onRequest" xlink:href="ProductDiscountSetDescriptionAction.svg" xlink:show="new" xlink:title="ProductDiscountSetDescriptionAction.svg" xlink:type="simple"><g id="elem_ProductDiscountSetDescriptionAction"><rect codeLine="35" fill="#F1F1F1" height="72.5938" id="ProductDiscountSetDescriptionAction" rx="2.5" ry="2.5" style="stroke:#181818;stroke-width:0.5;" width="291" x="2542" y="213.4297"/><ellipse cx="2557" cy="229.4297" fill="#B4A7E5" rx="11" ry="11" style="stroke:#181818;stroke-width:1.0;"/><path d="M2552.9219,225.1953 L2552.9219,223.0391 L2560.3125,223.0391 L2560.3125,225.1953 L2557.8438,225.1953 L2557.8438,233.2734 L2560.3125,233.2734 L2560.3125,235.4297 L2552.9219,235.4297 L2552.9219,233.2734 L2555.3906,233.2734 L2555.3906,225.1953 L2552.9219,225.1953 Z " fill="#000000"/><text fill="#000000" font-family="sans-serif" font-size="14" font-style="italic" lengthAdjust="spacing" textLength="259" x="2571" y="234.2764">ProductDiscountSetDescriptionAction</text><line style="stroke:#181818;stroke-width:0.5;" x1="2543" x2="2832" y1="245.4297" y2="245.4297"/><text fill="#000000" font-family="sans-serif" font-size="14" lengthAdjust="spacing" textLength="91" x="2548" y="262.4248">action: String</text><text fill="#000000" font-family="sans-serif" font-size="14" lengthAdjust="spacing" textLength="82" x="2548" y="278.7217">description:</text><a href="LocalizedString.svg" target="_top" title="LocalizedString.svg" xlink:actuate="onRequest" xlink:href="LocalizedString.svg" xlink:show="new" xlink:title="LocalizedString.svg" xlink:type="simple"><text fill="#0000FF" font-family="sans-serif" font-size="14" lengthAdjust="spacing" text-decoration="underline" textLength="104" x="2634" y="278.7217">LocalizedString</text></a></g></a><!--MD5=[cba9ca2447f35f1c87b02271a8a1be70]
class ProductDiscountSetKeyAction--><a href="ProductDiscountSetKeyAction.svg" target="_top" title="ProductDiscountSetKeyAction.svg" xlink:actuate="onRequest" xlink:href="ProductDiscountSetKeyAction.svg" xlink:show="new" xlink:title="ProductDiscountSetKeyAction.svg" xlink:type="simple"><g id="elem_ProductDiscountSetKeyAction"><rect codeLine="39" fill="#F1F1F1" height="72.5938" id="ProductDiscountSetKeyAction" rx="2.5" ry="2.5" style="stroke:#181818;stroke-width:0.5;" width="239" x="1980" y="213.4297"/><ellipse cx="1995" cy="229.4297" fill="#B4A7E5" rx="11" ry="11" style="stroke:#181818;stroke-width:1.0;"/><path d="M1990.9219,225.1953 L1990.9219,223.0391 L1998.3125,223.0391 L1998.3125,225.1953 L1995.8438,225.1953 L1995.8438,233.2734 L1998.3125,233.2734 L1998.3125,235.4297 L1990.9219,235.4297 L1990.9219,233.2734 L1993.3906,233.2734 L1993.3906,225.1953 L1990.9219,225.1953 Z " fill="#000000"/><text fill="#000000" font-family="sans-serif" font-size="14" font-style="italic" lengthAdjust="spacing" textLength="207" x="2009" y="234.2764">ProductDiscountSetKeyAction</text><line style="stroke:#181818;stroke-width:0.5;" x1="1981" x2="2218" y1="245.4297" y2="245.4297"/><text fill="#000000" font-family="sans-serif" font-size="14" lengthAdjust="spacing" textLength="91" x="1986" y="262.4248">action: String</text><text fill="#000000" font-family="sans-serif" font-size="14" lengthAdjust="spacing" textLength="73" x="1986" y="278.7217">key: String</text></g></a><!--MD5=[20e0473568573b76428d04060c8890cd]
class ProductDiscountSetValidFromAction--><a href="ProductDiscountSetValidFromAction.svg" target="_top" title="ProductDiscountSetValidFromAction.svg" xlink:actuate="onRequest" xlink:href="ProductDiscountSetValidFromAction.svg" xlink:show="new" xlink:title="ProductDiscountSetValidFromAction.svg" xlink:type="simple"><g id="elem_ProductDiscountSetValidFromAction"><rect codeLine="43" fill="#F1F1F1" height="72.5938" id="ProductDiscountSetValidFromAction" rx="2.5" ry="2.5" style="stroke:#181818;stroke-width:0.5;" width="281" x="693" y="213.4297"/><ellipse cx="708" cy="229.4297" fill="#B4A7E5" rx="11" ry="11" style="stroke:#181818;stroke-width:1.0;"/><path d="M703.9219,225.1953 L703.9219,223.0391 L711.3125,223.0391 L711.3125,225.1953 L708.8438,225.1953 L708.8438,233.2734 L711.3125,233.2734 L711.3125,235.4297 L703.9219,235.4297 L703.9219,233.2734 L706.3906,233.2734 L706.3906,225.1953 L703.9219,225.1953 Z " fill="#000000"/><text fill="#000000" font-family="sans-serif" font-size="14" font-style="italic" lengthAdjust="spacing" textLength="249" x="722" y="234.2764">ProductDiscountSetValidFromAction</text><line style="stroke:#181818;stroke-width:0.5;" x1="694" x2="973" y1="245.4297" y2="245.4297"/><text fill="#000000" font-family="sans-serif" font-size="14" lengthAdjust="spacing" textLength="91" x="699" y="262.4248">action: String</text><text fill="#000000" font-family="sans-serif" font-size="14" lengthAdjust="spacing" textLength="141" x="699" y="278.7217">validFrom: DateTime</text></g></a><!--MD5=[88498f83551295c9c2574739786cf01a]
class ProductDiscountSetValidFromAndUntilAction--><a href="ProductDiscountSetValidFromAndUntilAction.svg" target="_top" title="ProductDiscountSetValidFromAndUntilAction.svg" xlink:actuate="onRequest" xlink:href="ProductDiscountSetValidFromAndUntilAction.svg" xlink:show="new" xlink:title="ProductDiscountSetValidFromAndUntilAction.svg" xlink:type="simple"><g id="elem_ProductDiscountSetValidFromAndUntilAction"><rect codeLine="47" fill="#F1F1F1" height="88.8906" id="ProductDiscountSetValidFromAndUntilAction" rx="2.5" ry="2.5" style="stroke:#181818;stroke-width:0.5;" width="339" x="1621" y="213.4297"/><ellipse cx="1636" cy="229.4297" fill="#B4A7E5" rx="11" ry="11" style="stroke:#181818;stroke-width:1.0;"/><path d="M1631.9219,225.1953 L1631.9219,223.0391 L1639.3125,223.0391 L1639.3125,225.1953 L1636.8438,225.1953 L1636.8438,233.2734 L1639.3125,233.2734 L1639.3125,235.4297 L1631.9219,235.4297 L1631.9219,233.2734 L1634.3906,233.2734 L1634.3906,225.1953 L1631.9219,225.1953 Z " fill="#000000"/><text fill="#000000" font-family="sans-serif" font-size="14" font-style="italic" lengthAdjust="spacing" textLength="307" x="1650" y="234.2764">ProductDiscountSetValidFromAndUntilAction</text><line style="stroke:#181818;stroke-width:0.5;" x1="1622" x2="1959" y1="245.4297" y2="245.4297"/><text fill="#000000" font-family="sans-serif" font-size="14" lengthAdjust="spacing" textLength="91" x="1627" y="262.4248">action: String</text><text fill="#000000" font-family="sans-serif" font-size="14" lengthAdjust="spacing" textLength="141" x="1627" y="278.7217">validFrom: DateTime</text><text fill="#000000" font-family="sans-serif" font-size="14" lengthAdjust="spacing" textLength="136" x="1627" y="295.0186">validUntil: DateTime</text></g></a><!--MD5=[b48e43d695becb754d36b2cc101a4ea9]
class ProductDiscountSetValidUntilAction--><a href="ProductDiscountSetValidUntilAction.svg" target="_top" title="ProductDiscountSetValidUntilAction.svg" xlink:actuate="onRequest" xlink:href="ProductDiscountSetValidUntilAction.svg" xlink:show="new" xlink:title="ProductDiscountSetValidUntilAction.svg" xlink:type="simple"><g id="elem_ProductDiscountSetValidUntilAction"><rect codeLine="52" fill="#F1F1F1" height="72.5938" id="ProductDiscountSetValidUntilAction" rx="2.5" ry="2.5" style="stroke:#181818;stroke-width:0.5;" width="276" x="994" y="213.4297"/><ellipse cx="1009" cy="229.4297" fill="#B4A7E5" rx="11" ry="11" style="stroke:#181818;stroke-width:1.0;"/><path d="M1004.9219,225.1953 L1004.9219,223.0391 L1012.3125,223.0391 L1012.3125,225.1953 L1009.8438,225.1953 L1009.8438,233.2734 L1012.3125,233.2734 L1012.3125,235.4297 L1004.9219,235.4297 L1004.9219,233.2734 L1007.3906,233.2734 L1007.3906,225.1953 L1004.9219,225.1953 Z " fill="#000000"/><text fill="#000000" font-family="sans-serif" font-size="14" font-style="italic" lengthAdjust="spacing" textLength="244" x="1023" y="234.2764">ProductDiscountSetValidUntilAction</text><line style="stroke:#181818;stroke-width:0.5;" x1="995" x2="1269" y1="245.4297" y2="245.4297"/><text fill="#000000" font-family="sans-serif" font-size="14" lengthAdjust="spacing" textLength="91" x="1000" y="262.4248">action: String</text><text fill="#000000" font-family="sans-serif" font-size="14" lengthAdjust="spacing" textLength="136" x="1000" y="278.7217">validUntil: DateTime</text></g></a><!--MD5=[a6d43835320d314894ee4afa520154cc]
class ProductDiscountUpdate--><a href="ProductDiscountUpdate.svg" target="_top" title="ProductDiscountUpdate.svg" xlink:actuate="onRequest" xlink:href="ProductDiscountUpdate.svg" xlink:show="new" xlink:title="ProductDiscountUpdate.svg" xlink:type="simple"><g id="elem_ProductDiscountUpdate"><rect codeLine="56" fill="#F1F1F1" height="72.5938" id="ProductDiscountUpdate" rx="2.5" ry="2.5" style="stroke:#181818;stroke-width:0.5;" width="327" x="346" y="213.4297"/><ellipse cx="423.25" cy="229.4297" fill="#B4A7E5" rx="11" ry="11" style="stroke:#181818;stroke-width:1.0;"/><path d="M419.1719,225.1953 L419.1719,223.0391 L426.5625,223.0391 L426.5625,225.1953 L424.0938,225.1953 L424.0938,233.2734 L426.5625,233.2734 L426.5625,235.4297 L419.1719,235.4297 L419.1719,233.2734 L421.6406,233.2734 L421.6406,225.1953 L419.1719,225.1953 Z " fill="#000000"/><text fill="#000000" font-family="sans-serif" font-size="14" font-style="italic" lengthAdjust="spacing" textLength="164" x="443.75" y="234.2764">ProductDiscountUpdate</text><line style="stroke:#181818;stroke-width:0.5;" x1="347" x2="672" y1="245.4297" y2="245.4297"/><text fill="#000000" font-family="sans-serif" font-size="14" lengthAdjust="spacing" textLength="93" x="352" y="262.4248">version: Long</text><text fill="#000000" font-family="sans-serif" font-size="14" lengthAdjust="spacing" textLength="55" x="352" y="278.7217">actions:</text><a href="ProductDiscountUpdateAction.svg" target="_top" title="ProductDiscountUpdateAction.svg" xlink:actuate="onRequest" xlink:href="ProductDiscountUpdateAction.svg" xlink:show="new" xlink:title="ProductDiscountUpdateAction.svg" xlink:type="simple"><text fill="#0000FF" font-family="sans-serif" font-size="14" lengthAdjust="spacing" text-decoration="underline" textLength="256" x="411" y="278.7217">List&lt;ProductDiscountUpdateAction&gt;</text></a></g></a><line style="stroke:#0000FF;stroke-width:1.0;" x1="352" x2="352" y1="68.2969" y2="88.2969"/><line style="stroke:#0000FF;stroke-width:1.0;" x1="352" x2="3002" y1="88.2969" y2="88.2969"/><line style="stroke:#0000FF;stroke-width:1.0;" x1="3002" x2="3002" y1="88.2969" y2="213.4297"/><polygon fill="#0000FF" points="3002,213.4297,3006,204.4297,3002,208.4297,2998,204.4297,3002,213.4297" style="stroke:#0000FF;stroke-width:1.0;"/><text fill="#000000" font-family="sans-serif" font-size="13" lengthAdjust="spacing" textLength="147" x="2853" y="190.3638">action : changeIsActive</text><line style="stroke:#0000FF;stroke-width:1.0;" x1="372" x2="372" y1="68.2969" y2="78.2969"/><line style="stroke:#0000FF;stroke-width:1.0;" x1="372" x2="3313.5" y1="78.2969" y2="78.2969"/><line style="stroke:#0000FF;stroke-width:1.0;" x1="3313.5" x2="3313.5" y1="78.2969" y2="213.4297"/><polygon fill="#0000FF" points="3313.5,213.4297,3317.5,204.4297,3313.5,208.4297,3309.5,204.4297,3313.5,213.4297" style="stroke:#0000FF;stroke-width:1.0;"/><text fill="#000000" font-family="sans-serif" font-size="13" lengthAdjust="spacing" textLength="137" x="3174.5" y="190.3638">action : changeName</text><line style="stroke:#0000FF;stroke-width:1.0;" x1="172" x2="172" y1="68.2969" y2="213.4297"/><polygon fill="#0000FF" points="172,213.4297,176,204.4297,172,208.4297,168,204.4297,172,213.4297" style="stroke:#0000FF;stroke-width:1.0;"/><text fill="#000000" font-family="sans-serif" font-size="13" lengthAdjust="spacing" textLength="158" x="12" y="190.3638">action : changePredicate</text><line style="stroke:#0000FF;stroke-width:1.0;" x1="252" x2="252" y1="68.2969" y2="138.2969"/><line style="stroke:#0000FF;stroke-width:1.0;" x1="252" x2="1445.5" y1="138.2969" y2="138.2969"/><line style="stroke:#0000FF;stroke-width:1.0;" x1="1445.5" x2="1445.5" y1="138.2969" y2="213.4297"/><polygon fill="#0000FF" points="1445.5,213.4297,1449.5,204.4297,1445.5,208.4297,1441.5,204.4297,1445.5,213.4297" style="stroke:#0000FF;stroke-width:1.0;"/><text fill="#000000" font-family="sans-serif" font-size="13" lengthAdjust="spacing" textLength="161" x="1282.5" y="190.3638">action : changeSortOrder</text><line style="stroke:#0000FF;stroke-width:1.0;" x1="312" x2="312" y1="68.2969" y2="108.2969"/><line style="stroke:#0000FF;stroke-width:1.0;" x1="312" x2="2380.5" y1="108.2969" y2="108.2969"/><line style="stroke:#0000FF;stroke-width:1.0;" x1="2380.5" x2="2380.5" y1="108.2969" y2="213.4297"/><polygon fill="#0000FF" points="2380.5,213.4297,2384.5,204.4297,2380.5,208.4297,2376.5,204.4297,2380.5,213.4297" style="stroke:#0000FF;stroke-width:1.0;"/><text fill="#000000" font-family="sans-serif" font-size="13" lengthAdjust="spacing" textLength="134" x="2244.5" y="190.3638">action : changeValue</text><line style="stroke:#0000FF;stroke-width:1.0;" x1="332" x2="332" y1="68.2969" y2="98.2969"/><line style="stroke:#0000FF;stroke-width:1.0;" x1="332" x2="2687.5" y1="98.2969" y2="98.2969"/><line style="stroke:#0000FF;stroke-width:1.0;" x1="2687.5" x2="2687.5" y1="98.2969" y2="213.4297"/><polygon fill="#0000FF" points="2687.5,213.4297,2691.5,204.4297,2687.5,208.4297,2683.5,204.4297,2687.5,213.4297" style="stroke:#0000FF;stroke-width:1.0;"/><text fill="#000000" font-family="sans-serif" font-size="13" lengthAdjust="spacing" textLength="143" x="2542.5" y="190.3638">action : setDescription</text><line style="stroke:#0000FF;stroke-width:1.0;" x1="292" x2="292" y1="68.2969" y2="118.2969"/><line style="stroke:#0000FF;stroke-width:1.0;" x1="292" x2="2099.5" y1="118.2969" y2="118.2969"/><line style="stroke:#0000FF;stroke-width:1.0;" x1="2099.5" x2="2099.5" y1="118.2969" y2="213.4297"/><polygon fill="#0000FF" points="2099.5,213.4297,2103.5,204.4297,2099.5,208.4297,2095.5,204.4297,2099.5,213.4297" style="stroke:#0000FF;stroke-width:1.0;"/><text fill="#000000" font-family="sans-serif" font-size="13" lengthAdjust="spacing" textLength="94" x="2003.5" y="190.3638">action : setKey</text><line style="stroke:#0000FF;stroke-width:1.0;" x1="212" x2="212" y1="68.2969" y2="158.2969"/><line style="stroke:#0000FF;stroke-width:1.0;" x1="212" x2="833.5" y1="158.2969" y2="158.2969"/><line style="stroke:#0000FF;stroke-width:1.0;" x1="833.5" x2="833.5" y1="158.2969" y2="213.4297"/><polygon fill="#0000FF" points="833.5,213.4297,837.5,204.4297,833.5,208.4297,829.5,204.4297,833.5,213.4297" style="stroke:#0000FF;stroke-width:1.0;"/><text fill="#000000" font-family="sans-serif" font-size="13" lengthAdjust="spacing" textLength="135" x="696.5" y="190.3638">action : setValidFrom</text><line style="stroke:#0000FF;stroke-width:1.0;" x1="272" x2="272" y1="68.2969" y2="128.2969"/><line style="stroke:#0000FF;stroke-width:1.0;" x1="272" x2="1790.5" y1="128.2969" y2="128.2969"/><line style="stroke:#0000FF;stroke-width:1.0;" x1="1790.5" x2="1790.5" y1="128.2969" y2="213.4297"/><polygon fill="#0000FF" points="1790.5,213.4297,1794.5,204.4297,1790.5,208.4297,1786.5,204.4297,1790.5,213.4297" style="stroke:#0000FF;stroke-width:1.0;"/><text fill="#000000" font-family="sans-serif" font-size="13" lengthAdjust="spacing" textLength="189" x="1599.5" y="190.3638">action : setValidFromAndUntil</text><line style="stroke:#0000FF;stroke-width:1.0;" x1="232" x2="232" y1="68.2969" y2="148.2969"/><line style="stroke:#0000FF;stroke-width:1.0;" x1="232" x2="1132" y1="148.2969" y2="148.2969"/><line style="stroke:#0000FF;stroke-width:1.0;" x1="1132" x2="1132" y1="148.2969" y2="213.4297"/><polygon fill="#0000FF" points="1132,213.4297,1136,204.4297,1132,208.4297,1128,204.4297,1132,213.4297" style="stroke:#0000FF;stroke-width:1.0;"/><text fill="#000000" font-family="sans-serif" font-size="13" lengthAdjust="spacing" textLength="131" x="999" y="190.3638">action : setValidUntil</text><line style="stroke:#008000;stroke-width:1.0;" x1="192" x2="192" y1="68.2969" y2="168.2969"/><line style="stroke:#008000;stroke-width:1.0;" x1="192" x2="509.5" y1="168.2969" y2="168.2969"/><line style="stroke:#008000;stroke-width:1.0;" x1="509.5" x2="509.5" y1="168.2969" y2="213.4297"/><polygon fill="#008000" points="509.5,213.4297,513.5,204.4297,509.5,208.4297,505.5,204.4297,509.5,213.4297" style="stroke:#008000;stroke-width:1.0;"/><text fill="#000000" font-family="sans-serif" font-size="13" lengthAdjust="spacing" textLength="46" x="461.5" y="190.3638">actions</text><rect fill="#DDDDDD" height="79.1875" id="_legend" rx="7.5" ry="7.5" style="stroke:#000000;stroke-width:1.0;" width="161" x="1641" y="303.3203"/><text fill="#000000" font-family="sans-serif" font-size="14" font-weight="bold" lengthAdjust="spacing" textLength="5" x="1646" y="323.3154"> </text><text fill="#000000" font-family="sans-serif" font-size="14" font-weight="bold" lengthAdjust="spacing" textLength="28" x="1663" y="323.3154">line</text><text fill="#000000" filter="url(#blw33ymk5ussl0)" font-family="sans-serif" font-size="14" lengthAdjust="spacing" textLength="12" x="1646" y="339.6123">   </text><text fill="#000000" font-family="sans-serif" font-size="14" lengthAdjust="spacing" textLength="77" x="1662" y="339.6123">inheritance</text><text fill="#000000" filter="url(#blw33ymk5ussl1)" font-family="sans-serif" font-size="14" lengthAdjust="spacing" textLength="12" x="1646" y="355.9092">   </text><text fill="#000000" font-family="sans-serif" font-size="14" lengthAdjust="spacing" textLength="129" x="1662" y="355.9092">property reference</text><text fill="#000000" filter="url(#blw33ymk5ussl2)" font-family="sans-serif" font-size="14" lengthAdjust="spacing" textLength="12" x="1646" y="372.2061">   </text><text fill="#000000" font-family="sans-serif" font-size="14" lengthAdjust="spacing" textLength="131" x="1662" y="372.2061">discriminated class</text><line style="stroke:#000000;stroke-width:1.0;" x1="1646" x2="1797" y1="310.3203" y2="310.3203"/><line style="stroke:#000000;stroke-width:1.0;" x1="1646" x2="1797" y1="326.6172" y2="326.6172"/><line style="stroke:#000000;stroke-width:1.0;" x1="1646" x2="1797" y1="342.9141" y2="342.9141"/><line style="stroke:#000000;stroke-width:1.0;" x1="1646" x2="1797" y1="359.2109" y2="359.2109"/><line style="stroke:#000000;stroke-width:1.0;" x1="1646" x2="1797" y1="375.5078" y2="375.5078"/><line style="stroke:#000000;stroke-width:1.0;" x1="1646" x2="1646" y1="310.3203" y2="375.5078"/><line style="stroke:#000000;stroke-width:1.0;" x1="1658" x2="1658" y1="310.3203" y2="375.5078"/><line style="stroke:#000000;stroke-width:1.0;" x1="1797" x2="1797" y1="310.3203" y2="375.5078"/><!--MD5=[5e4facb460dbffe55a456b787ce10113]
@startuml
!pragma layout elk
hide empty fields
hide empty methods
legend
|= |= line |
|<back:black>   </back>| inheritance |
|<back:green>   </back>| property reference |
|<back:blue>   </back>| discriminated class |
endlegend
interface ProductDiscountUpdateAction [[ProductDiscountUpdateAction.svg]]  {
    action: String
}


interface ProductDiscountChangeIsActiveAction [[ProductDiscountChangeIsActiveAction.svg]]  {
    action: String
    isActive: Boolean
}
interface ProductDiscountChangeNameAction [[ProductDiscountChangeNameAction.svg]]  {
    action: String
    name: [[LocalizedString.svg LocalizedString]]
}
interface ProductDiscountChangePredicateAction [[ProductDiscountChangePredicateAction.svg]]  {
    action: String
    predicate: String
}
interface ProductDiscountChangeSortOrderAction [[ProductDiscountChangeSortOrderAction.svg]]  {
    action: String
    sortOrder: String
}
interface ProductDiscountChangeValueAction [[ProductDiscountChangeValueAction.svg]]  {
    action: String
    value: [[ProductDiscountValueDraft.svg ProductDiscountValueDraft]]
}
interface ProductDiscountSetDescriptionAction [[ProductDiscountSetDescriptionAction.svg]]  {
    action: String
    description: [[LocalizedString.svg LocalizedString]]
}
interface ProductDiscountSetKeyAction [[ProductDiscountSetKeyAction.svg]]  {
    action: String
    key: String
}
interface ProductDiscountSetValidFromAction [[ProductDiscountSetValidFromAction.svg]]  {
    action: String
    validFrom: DateTime
}
interface ProductDiscountSetValidFromAndUntilAction [[ProductDiscountSetValidFromAndUntilAction.svg]]  {
    action: String
    validFrom: DateTime
    validUntil: DateTime
}
interface ProductDiscountSetValidUntilAction [[ProductDiscountSetValidUntilAction.svg]]  {
    action: String
    validUntil: DateTime
}
interface ProductDiscountUpdate [[ProductDiscountUpdate.svg]]  {
    version: Long
    actions: [[ProductDiscountUpdateAction.svg List<ProductDiscountUpdateAction>]]
}
ProductDiscountUpdateAction - -> ProductDiscountChangeIsActiveAction #blue;text:blue : "action : changeIsActive"
ProductDiscountUpdateAction - -> ProductDiscountChangeNameAction #blue;text:blue : "action : changeName"
ProductDiscountUpdateAction - -> ProductDiscountChangePredicateAction #blue;text:blue : "action : changePredicate"
ProductDiscountUpdateAction - -> ProductDiscountChangeSortOrderAction #blue;text:blue : "action : changeSortOrder"
ProductDiscountUpdateAction - -> ProductDiscountChangeValueAction #blue;text:blue : "action : changeValue"
ProductDiscountUpdateAction - -> ProductDiscountSetDescriptionAction #blue;text:blue : "action : setDescription"
ProductDiscountUpdateAction - -> ProductDiscountSetKeyAction #blue;text:blue : "action : setKey"
ProductDiscountUpdateAction - -> ProductDiscountSetValidFromAction #blue;text:blue : "action : setValidFrom"
ProductDiscountUpdateAction - -> ProductDiscountSetValidFromAndUntilAction #blue;text:blue : "action : setValidFromAndUntil"
ProductDiscountUpdateAction - -> ProductDiscountSetValidUntilAction #blue;text:blue : "action : setValidUntil"
ProductDiscountUpdateAction - -> ProductDiscountUpdate #green;text:green : "actions"
@enduml

PlantUML version 1.2022.13(Sat Nov 19 13:22:17 UTC 2022)
(GPL source distribution)
Java Runtime: OpenJDK Runtime Environment
JVM: OpenJDK 64-Bit Server VM
Default Encoding: UTF-8
Language: en
Country: null
--></g></svg>
