<?xml version="1.0" encoding="UTF-8" standalone="no"?><svg xmlns="http://www.w3.org/2000/svg" xmlns:xlink="http://www.w3.org/1999/xlink" contentStyleType="text/css" height="244px" preserveAspectRatio="none" style="width:260px;height:244px;background:#FFFFFF;" version="1.1" viewBox="0 0 260 244" width="260px" zoomAndPan="magnify"><defs><filter height="1" id="bey0spdy8068q0" width="1" x="0" y="0"><feFlood flood-color="#000000" result="flood"/><feComposite in="SourceGraphic" in2="flood" operator="over"/></filter><filter height="1" id="bey0spdy8068q1" width="1" x="0" y="0"><feFlood flood-color="#008000" result="flood"/><feComposite in="SourceGraphic" in2="flood" operator="over"/></filter><filter height="1" id="bey0spdy8068q2" width="1" x="0" y="0"><feFlood flood-color="#0000FF" result="flood"/><feComposite in="SourceGraphic" in2="flood" operator="over"/></filter></defs><g><!--MD5=[95fce8fe9cbec5c7f66f52d0497c0877]
class ProductDiscountValueExternal--><a href="ProductDiscountValueExternal.svg" target="_top" title="ProductDiscountValueExternal.svg" xlink:actuate="onRequest" xlink:href="ProductDiscountValueExternal.svg" xlink:show="new" xlink:title="ProductDiscountValueExternal.svg" xlink:type="simple"><g id="elem_ProductDiscountValueExternal"><rect codeLine="10" fill="#F1F1F1" height="56.2969" id="ProductDiscountValueExternal" rx="2.5" ry="2.5" style="stroke:#181818;stroke-width:0.5;" width="241" x="12" y="88.2969"/><ellipse cx="27" cy="104.2969" fill="#B4A7E5" rx="11" ry="11" style="stroke:#181818;stroke-width:1.0;"/><path d="M22.9219,100.0625 L22.9219,97.9063 L30.3125,97.9063 L30.3125,100.0625 L27.8438,100.0625 L27.8438,108.1406 L30.3125,108.1406 L30.3125,110.2969 L22.9219,110.2969 L22.9219,108.1406 L25.3906,108.1406 L25.3906,100.0625 L22.9219,100.0625 Z " fill="#000000"/><text fill="#000000" font-family="sans-serif" font-size="14" font-style="italic" lengthAdjust="spacing" textLength="209" x="41" y="109.1436">ProductDiscountValueExternal</text><line style="stroke:#181818;stroke-width:0.5;" x1="13" x2="252" y1="120.2969" y2="120.2969"/><text fill="#000000" font-family="sans-serif" font-size="14" lengthAdjust="spacing" textLength="79" x="18" y="137.292">type: String</text></g></a><!--MD5=[1c49a3c89a9fa532f6a0b6ad7e075336]
class ProductDiscountValue--><a href="ProductDiscountValue.svg" target="_top" title="ProductDiscountValue.svg" xlink:actuate="onRequest" xlink:href="ProductDiscountValue.svg" xlink:show="new" xlink:title="ProductDiscountValue.svg" xlink:type="simple"><g id="elem_ProductDiscountValue"><rect codeLine="13" fill="#F1F1F1" height="56.2969" id="ProductDiscountValue" rx="2.5" ry="2.5" style="stroke:#181818;stroke-width:0.5;" width="185" x="40" y="12"/><ellipse cx="55" cy="28" fill="#B4A7E5" rx="11" ry="11" style="stroke:#181818;stroke-width:1.0;"/><path d="M50.9219,23.7656 L50.9219,21.6094 L58.3125,21.6094 L58.3125,23.7656 L55.8438,23.7656 L55.8438,31.8438 L58.3125,31.8438 L58.3125,34 L50.9219,34 L50.9219,31.8438 L53.3906,31.8438 L53.3906,23.7656 L50.9219,23.7656 Z " fill="#000000"/><text fill="#000000" font-family="sans-serif" font-size="14" font-style="italic" lengthAdjust="spacing" textLength="153" x="69" y="32.8467">ProductDiscountValue</text><line style="stroke:#181818;stroke-width:0.5;" x1="41" x2="224" y1="44" y2="44"/><text fill="#000000" font-family="sans-serif" font-size="14" lengthAdjust="spacing" textLength="79" x="46" y="60.9951">type: String</text></g></a><line style="stroke:#181818;stroke-width:1.0;" x1="132.5" x2="132.5" y1="68.2969" y2="88.2969"/><polygon fill="#FFFFFF" points="132.5,68.2969,125.5,87.2969,139.5,87.2969,132.5,68.2969" style="stroke:#181818;stroke-width:1.0;"/><rect fill="#DDDDDD" height="79.1875" id="_legend" rx="7.5" ry="7.5" style="stroke:#000000;stroke-width:1.0;" width="161" x="40" y="145.5938"/><text fill="#000000" font-family="sans-serif" font-size="14" font-weight="bold" lengthAdjust="spacing" textLength="5" x="45" y="165.5889"> </text><text fill="#000000" font-family="sans-serif" font-size="14" font-weight="bold" lengthAdjust="spacing" textLength="28" x="62" y="165.5889">line</text><text fill="#000000" filter="url(#bey0spdy8068q0)" font-family="sans-serif" font-size="14" lengthAdjust="spacing" textLength="12" x="45" y="181.8857">   </text><text fill="#000000" font-family="sans-serif" font-size="14" lengthAdjust="spacing" textLength="77" x="61" y="181.8857">inheritance</text><text fill="#000000" filter="url(#bey0spdy8068q1)" font-family="sans-serif" font-size="14" lengthAdjust="spacing" textLength="12" x="45" y="198.1826">   </text><text fill="#000000" font-family="sans-serif" font-size="14" lengthAdjust="spacing" textLength="129" x="61" y="198.1826">property reference</text><text fill="#000000" filter="url(#bey0spdy8068q2)" font-family="sans-serif" font-size="14" lengthAdjust="spacing" textLength="12" x="45" y="214.4795">   </text><text fill="#000000" font-family="sans-serif" font-size="14" lengthAdjust="spacing" textLength="131" x="61" y="214.4795">discriminated class</text><line style="stroke:#000000;stroke-width:1.0;" x1="45" x2="196" y1="152.5938" y2="152.5938"/><line style="stroke:#000000;stroke-width:1.0;" x1="45" x2="196" y1="168.8906" y2="168.8906"/><line style="stroke:#000000;stroke-width:1.0;" x1="45" x2="196" y1="185.1875" y2="185.1875"/><line style="stroke:#000000;stroke-width:1.0;" x1="45" x2="196" y1="201.4844" y2="201.4844"/><line style="stroke:#000000;stroke-width:1.0;" x1="45" x2="196" y1="217.7813" y2="217.7813"/><line style="stroke:#000000;stroke-width:1.0;" x1="45" x2="45" y1="152.5938" y2="217.7813"/><line style="stroke:#000000;stroke-width:1.0;" x1="57" x2="57" y1="152.5938" y2="217.7813"/><line style="stroke:#000000;stroke-width:1.0;" x1="196" x2="196" y1="152.5938" y2="217.7813"/><!--MD5=[1588836a5c0b97bddbc4489d252a15fa]
@startuml
!pragma layout elk
hide empty fields
hide empty methods
legend
|= |= line |
|<back:black>   </back>| inheritance |
|<back:green>   </back>| property reference |
|<back:blue>   </back>| discriminated class |
endlegend
interface ProductDiscountValueExternal [[ProductDiscountValueExternal.svg]] extends ProductDiscountValue {
    type: String
}
interface ProductDiscountValue [[ProductDiscountValue.svg]]  {
    type: String
}





@enduml

PlantUML version 1.2022.13(Sat Nov 19 13:22:17 UTC 2022)
(GPL source distribution)
Java Runtime: OpenJDK Runtime Environment
JVM: OpenJDK 64-Bit Server VM
Default Encoding: UTF-8
Language: en
Country: null
--></g></svg>
