<?xml version="1.0" encoding="UTF-8" standalone="no"?><svg xmlns="http://www.w3.org/2000/svg" xmlns:xlink="http://www.w3.org/1999/xlink" contentStyleType="text/css" height="293px" preserveAspectRatio="none" style="width:230px;height:293px;background:#FFFFFF;" version="1.1" viewBox="0 0 230 293" width="230px" zoomAndPan="magnify"><defs><filter height="1" id="b1stdtzkadf4uj0" width="1" x="0" y="0"><feFlood flood-color="#000000" result="flood"/><feComposite in="SourceGraphic" in2="flood" operator="over"/></filter><filter height="1" id="b1stdtzkadf4uj1" width="1" x="0" y="0"><feFlood flood-color="#008000" result="flood"/><feComposite in="SourceGraphic" in2="flood" operator="over"/></filter><filter height="1" id="b1stdtzkadf4uj2" width="1" x="0" y="0"><feFlood flood-color="#0000FF" result="flood"/><feComposite in="SourceGraphic" in2="flood" operator="over"/></filter></defs><g><!--MD5=[54cc1b7255a2ddbd6a888e48379b7633]
class ProductSetPriceKeyAction--><a href="ProductSetPriceKeyAction.svg" target="_top" title="ProductSetPriceKeyAction.svg" xlink:actuate="onRequest" xlink:href="ProductSetPriceKeyAction.svg" xlink:show="new" xlink:title="ProductSetPriceKeyAction.svg" xlink:type="simple"><g id="elem_ProductSetPriceKeyAction"><rect codeLine="10" fill="#F1F1F1" height="105.1875" id="ProductSetPriceKeyAction" rx="2.5" ry="2.5" style="stroke:#181818;stroke-width:0.5;" width="211" x="12" y="88.2969"/><ellipse cx="27" cy="104.2969" fill="#B4A7E5" rx="11" ry="11" style="stroke:#181818;stroke-width:1.0;"/><path d="M22.9219,100.0625 L22.9219,97.9063 L30.3125,97.9063 L30.3125,100.0625 L27.8438,100.0625 L27.8438,108.1406 L30.3125,108.1406 L30.3125,110.2969 L22.9219,110.2969 L22.9219,108.1406 L25.3906,108.1406 L25.3906,100.0625 L22.9219,100.0625 Z " fill="#000000"/><text fill="#000000" font-family="sans-serif" font-size="14" font-style="italic" lengthAdjust="spacing" textLength="179" x="41" y="109.1436">ProductSetPriceKeyAction</text><line style="stroke:#181818;stroke-width:0.5;" x1="13" x2="222" y1="120.2969" y2="120.2969"/><text fill="#000000" font-family="sans-serif" font-size="14" lengthAdjust="spacing" textLength="91" x="18" y="137.292">action: String</text><text fill="#000000" font-family="sans-serif" font-size="14" lengthAdjust="spacing" textLength="95" x="18" y="153.5889">priceId: String</text><text fill="#000000" font-family="sans-serif" font-size="14" lengthAdjust="spacing" textLength="114" x="18" y="169.8857">staged: Boolean</text><text fill="#000000" font-family="sans-serif" font-size="14" lengthAdjust="spacing" textLength="73" x="18" y="186.1826">key: String</text></g></a><!--MD5=[427793c9d75825e68c22306e363881bd]
class ProductUpdateAction--><a href="ProductUpdateAction.svg" target="_top" title="ProductUpdateAction.svg" xlink:actuate="onRequest" xlink:href="ProductUpdateAction.svg" xlink:show="new" xlink:title="ProductUpdateAction.svg" xlink:type="simple"><g id="elem_ProductUpdateAction"><rect codeLine="16" fill="#F1F1F1" height="56.2969" id="ProductUpdateAction" rx="2.5" ry="2.5" style="stroke:#181818;stroke-width:0.5;" width="179" x="28" y="12"/><ellipse cx="43" cy="28" fill="#B4A7E5" rx="11" ry="11" style="stroke:#181818;stroke-width:1.0;"/><path d="M38.9219,23.7656 L38.9219,21.6094 L46.3125,21.6094 L46.3125,23.7656 L43.8438,23.7656 L43.8438,31.8438 L46.3125,31.8438 L46.3125,34 L38.9219,34 L38.9219,31.8438 L41.3906,31.8438 L41.3906,23.7656 L38.9219,23.7656 Z " fill="#000000"/><text fill="#000000" font-family="sans-serif" font-size="14" font-style="italic" lengthAdjust="spacing" textLength="147" x="57" y="32.8467">ProductUpdateAction</text><line style="stroke:#181818;stroke-width:0.5;" x1="29" x2="206" y1="44" y2="44"/><text fill="#000000" font-family="sans-serif" font-size="14" lengthAdjust="spacing" textLength="91" x="34" y="60.9951">action: String</text></g></a><line style="stroke:#181818;stroke-width:1.0;" x1="117.5" x2="117.5" y1="68.2969" y2="88.2969"/><polygon fill="#FFFFFF" points="117.5,68.2969,110.5,87.2969,124.5,87.2969,117.5,68.2969" style="stroke:#181818;stroke-width:1.0;"/><rect fill="#DDDDDD" height="79.1875" id="_legend" rx="7.5" ry="7.5" style="stroke:#000000;stroke-width:1.0;" width="161" x="25" y="194.4844"/><text fill="#000000" font-family="sans-serif" font-size="14" font-weight="bold" lengthAdjust="spacing" textLength="5" x="30" y="214.4795"> </text><text fill="#000000" font-family="sans-serif" font-size="14" font-weight="bold" lengthAdjust="spacing" textLength="28" x="47" y="214.4795">line</text><text fill="#000000" filter="url(#b1stdtzkadf4uj0)" font-family="sans-serif" font-size="14" lengthAdjust="spacing" textLength="12" x="30" y="230.7764">   </text><text fill="#000000" font-family="sans-serif" font-size="14" lengthAdjust="spacing" textLength="77" x="46" y="230.7764">inheritance</text><text fill="#000000" filter="url(#b1stdtzkadf4uj1)" font-family="sans-serif" font-size="14" lengthAdjust="spacing" textLength="12" x="30" y="247.0732">   </text><text fill="#000000" font-family="sans-serif" font-size="14" lengthAdjust="spacing" textLength="129" x="46" y="247.0732">property reference</text><text fill="#000000" filter="url(#b1stdtzkadf4uj2)" font-family="sans-serif" font-size="14" lengthAdjust="spacing" textLength="12" x="30" y="263.3701">   </text><text fill="#000000" font-family="sans-serif" font-size="14" lengthAdjust="spacing" textLength="131" x="46" y="263.3701">discriminated class</text><line style="stroke:#000000;stroke-width:1.0;" x1="30" x2="181" y1="201.4844" y2="201.4844"/><line style="stroke:#000000;stroke-width:1.0;" x1="30" x2="181" y1="217.7813" y2="217.7813"/><line style="stroke:#000000;stroke-width:1.0;" x1="30" x2="181" y1="234.0781" y2="234.0781"/><line style="stroke:#000000;stroke-width:1.0;" x1="30" x2="181" y1="250.375" y2="250.375"/><line style="stroke:#000000;stroke-width:1.0;" x1="30" x2="181" y1="266.6719" y2="266.6719"/><line style="stroke:#000000;stroke-width:1.0;" x1="30" x2="30" y1="201.4844" y2="266.6719"/><line style="stroke:#000000;stroke-width:1.0;" x1="42" x2="42" y1="201.4844" y2="266.6719"/><line style="stroke:#000000;stroke-width:1.0;" x1="181" x2="181" y1="201.4844" y2="266.6719"/><!--MD5=[1976c6f08f1e0874a28ac84e9918d25f]
@startuml
!pragma layout elk
hide empty fields
hide empty methods
legend
|= |= line |
|<back:black>   </back>| inheritance |
|<back:green>   </back>| property reference |
|<back:blue>   </back>| discriminated class |
endlegend
interface ProductSetPriceKeyAction [[ProductSetPriceKeyAction.svg]] extends ProductUpdateAction {
    action: String
    priceId: String
    staged: Boolean
    key: String
}
interface ProductUpdateAction [[ProductUpdateAction.svg]]  {
    action: String
}





@enduml

PlantUML version 1.2022.13(Sat Nov 19 13:22:17 UTC 2022)
(GPL source distribution)
Java Runtime: OpenJDK Runtime Environment
JVM: OpenJDK 64-Bit Server VM
Default Encoding: UTF-8
Language: en
Country: null
--></g></svg>
