<?xml version="1.0" encoding="UTF-8" standalone="no"?><svg xmlns="http://www.w3.org/2000/svg" xmlns:xlink="http://www.w3.org/1999/xlink" contentStyleType="text/css" height="347px" preserveAspectRatio="none" style="width:859px;height:347px;background:#FFFFFF;" version="1.1" viewBox="0 0 859 347" width="859px" zoomAndPan="magnify"><defs><filter height="1" id="bzukjzl0g4whk0" width="1" x="0" y="0"><feFlood flood-color="#000000" result="flood"/><feComposite in="SourceGraphic" in2="flood" operator="over"/></filter><filter height="1" id="bzukjzl0g4whk1" width="1" x="0" y="0"><feFlood flood-color="#008000" result="flood"/><feComposite in="SourceGraphic" in2="flood" operator="over"/></filter><filter height="1" id="bzukjzl0g4whk2" width="1" x="0" y="0"><feFlood flood-color="#0000FF" result="flood"/><feComposite in="SourceGraphic" in2="flood" operator="over"/></filter></defs><g><!--MD5=[c69c8cc00fd10c1f1cf4c55d8c897512]
class ProductSearchFacetResultExpression--><a href="ProductSearchFacetResultExpression.svg" target="_top" title="ProductSearchFacetResultExpression.svg" xlink:actuate="onRequest" xlink:href="ProductSearchFacetResultExpression.svg" xlink:show="new" xlink:title="ProductSearchFacetResultExpression.svg" xlink:type="simple"><g id="elem_ProductSearchFacetResultExpression"><rect codeLine="10" fill="#F1F1F1" height="56.2969" id="ProductSearchFacetResultExpression" rx="2.5" ry="2.5" style="stroke:#181818;stroke-width:0.5;" width="289" x="67.75" y="12"/><ellipse cx="82.75" cy="28" fill="#B4A7E5" rx="11" ry="11" style="stroke:#181818;stroke-width:1.0;"/><path d="M78.6719,23.7656 L78.6719,21.6094 L86.0625,21.6094 L86.0625,23.7656 L83.5938,23.7656 L83.5938,31.8438 L86.0625,31.8438 L86.0625,34 L78.6719,34 L78.6719,31.8438 L81.1406,31.8438 L81.1406,23.7656 L78.6719,23.7656 Z " fill="#000000"/><text fill="#000000" font-family="sans-serif" font-size="14" font-style="italic" lengthAdjust="spacing" textLength="257" x="96.75" y="32.8467">ProductSearchFacetResultExpression</text><line style="stroke:#181818;stroke-width:0.5;" x1="68.75" x2="355.75" y1="44" y2="44"/><text fill="#000000" font-family="sans-serif" font-size="14" lengthAdjust="spacing" textLength="88" x="73.75" y="60.9951">name: String</text></g></a><!--MD5=[737c012ecceb7b94b11d2b64ed113808]
class ProductSearchFacetBucketResult--><a href="ProductSearchFacetBucketResult.svg" target="_top" title="ProductSearchFacetBucketResult.svg" xlink:actuate="onRequest" xlink:href="ProductSearchFacetBucketResult.svg" xlink:show="new" xlink:title="ProductSearchFacetBucketResult.svg" xlink:type="simple"><g id="elem_ProductSearchFacetBucketResult"><rect codeLine="14" fill="#F1F1F1" height="72.5938" id="ProductSearchFacetBucketResult" rx="2.5" ry="2.5" style="stroke:#181818;stroke-width:0.5;" width="357" x="288" y="98.2969"/><ellipse cx="346.75" cy="114.2969" fill="#B4A7E5" rx="11" ry="11" style="stroke:#181818;stroke-width:1.0;"/><path d="M342.6719,110.0625 L342.6719,107.9063 L350.0625,107.9063 L350.0625,110.0625 L347.5938,110.0625 L347.5938,118.1406 L350.0625,118.1406 L350.0625,120.2969 L342.6719,120.2969 L342.6719,118.1406 L345.1406,118.1406 L345.1406,110.0625 L342.6719,110.0625 Z " fill="#000000"/><text fill="#000000" font-family="sans-serif" font-size="14" font-style="italic" lengthAdjust="spacing" textLength="231" x="367.25" y="119.1436">ProductSearchFacetBucketResult</text><line style="stroke:#181818;stroke-width:0.5;" x1="289" x2="644" y1="130.2969" y2="130.2969"/><text fill="#000000" font-family="sans-serif" font-size="14" lengthAdjust="spacing" textLength="88" x="294" y="147.292">name: String</text><text fill="#000000" font-family="sans-serif" font-size="14" lengthAdjust="spacing" textLength="61" x="294" y="163.5889">buckets:</text><a href="ProductSearchFacetResultBucket.svg" target="_top" title="ProductSearchFacetResultBucket.svg" xlink:actuate="onRequest" xlink:href="ProductSearchFacetResultBucket.svg" xlink:show="new" xlink:title="ProductSearchFacetResultBucket.svg" xlink:type="simple"><text fill="#0000FF" font-family="sans-serif" font-size="14" lengthAdjust="spacing" text-decoration="underline" textLength="280" x="359" y="163.5889">List&lt;ProductSearchFacetResultBucket&gt;</text></a></g></a><!--MD5=[be26d4087cb2b26d9372e5b32aec558f]
class ProductSearchFacetResultCount--><a href="ProductSearchFacetResultCount.svg" target="_top" title="ProductSearchFacetResultCount.svg" xlink:actuate="onRequest" xlink:href="ProductSearchFacetResultCount.svg" xlink:show="new" xlink:title="ProductSearchFacetResultCount.svg" xlink:type="simple"><g id="elem_ProductSearchFacetResultCount"><rect codeLine="18" fill="#F1F1F1" height="72.5938" id="ProductSearchFacetResultCount" rx="2.5" ry="2.5" style="stroke:#181818;stroke-width:0.5;" width="256" x="12" y="98.2969"/><ellipse cx="27" cy="114.2969" fill="#B4A7E5" rx="11" ry="11" style="stroke:#181818;stroke-width:1.0;"/><path d="M22.9219,110.0625 L22.9219,107.9063 L30.3125,107.9063 L30.3125,110.0625 L27.8438,110.0625 L27.8438,118.1406 L30.3125,118.1406 L30.3125,120.2969 L22.9219,120.2969 L22.9219,118.1406 L25.3906,118.1406 L25.3906,110.0625 L22.9219,110.0625 Z " fill="#000000"/><text fill="#000000" font-family="sans-serif" font-size="14" font-style="italic" lengthAdjust="spacing" textLength="224" x="41" y="119.1436">ProductSearchFacetResultCount</text><line style="stroke:#181818;stroke-width:0.5;" x1="13" x2="267" y1="130.2969" y2="130.2969"/><text fill="#000000" font-family="sans-serif" font-size="14" lengthAdjust="spacing" textLength="88" x="18" y="147.292">name: String</text><text fill="#000000" font-family="sans-serif" font-size="14" lengthAdjust="spacing" textLength="79" x="18" y="163.5889">value: Long</text></g></a><!--MD5=[7e35a25faa807b5db614330e2c0a9457]
class ProductSearchFacetResult--><a href="ProductSearchFacetResult.svg" target="_top" title="ProductSearchFacetResult.svg" xlink:actuate="onRequest" xlink:href="ProductSearchFacetResult.svg" xlink:show="new" xlink:title="ProductSearchFacetResult.svg" xlink:type="simple"><g id="elem_ProductSearchFacetResult"><rect codeLine="23" fill="#F1F1F1" height="56.2969" id="ProductSearchFacetResult" rx="2.5" ry="2.5" style="stroke:#181818;stroke-width:0.5;" width="375" x="477.5" y="190.8906"/><ellipse cx="569.75" cy="206.8906" fill="#B4A7E5" rx="11" ry="11" style="stroke:#181818;stroke-width:1.0;"/><path d="M565.6719,202.6563 L565.6719,200.5 L573.0625,200.5 L573.0625,202.6563 L570.5938,202.6563 L570.5938,210.7344 L573.0625,210.7344 L573.0625,212.8906 L565.6719,212.8906 L565.6719,210.7344 L568.1406,210.7344 L568.1406,202.6563 L565.6719,202.6563 Z " fill="#000000"/><text fill="#000000" font-family="sans-serif" font-size="14" font-style="italic" lengthAdjust="spacing" textLength="182" x="590.25" y="211.7373">ProductSearchFacetResult</text><line style="stroke:#181818;stroke-width:0.5;" x1="478.5" x2="851.5" y1="222.8906" y2="222.8906"/><text fill="#000000" font-family="sans-serif" font-size="14" lengthAdjust="spacing" textLength="52" x="483.5" y="239.8857">results:</text><a href="ProductSearchFacetResultExpression.svg" target="_top" title="ProductSearchFacetResultExpression.svg" xlink:actuate="onRequest" xlink:href="ProductSearchFacetResultExpression.svg" xlink:show="new" xlink:title="ProductSearchFacetResultExpression.svg" xlink:type="simple"><text fill="#0000FF" font-family="sans-serif" font-size="14" lengthAdjust="spacing" text-decoration="underline" textLength="307" x="539.5" y="239.8857">List&lt;ProductSearchFacetResultExpression&gt;</text></a></g></a><line style="stroke:#181818;stroke-width:1.0;" x1="212.25" x2="212.25" y1="68.2969" y2="88.2969"/><line style="stroke:#181818;stroke-width:1.0;" x1="212.25" x2="466.5" y1="88.2969" y2="88.2969"/><line style="stroke:#181818;stroke-width:1.0;" x1="466.5" x2="466.5" y1="88.2969" y2="98.2969"/><polygon fill="#FFFFFF" points="212.25,68.2969,205.25,87.2969,219.25,87.2969,212.25,68.2969" style="stroke:#181818;stroke-width:1.0;"/><line style="stroke:#181818;stroke-width:1.0;" x1="140" x2="140" y1="68.2969" y2="98.2969"/><polygon fill="#FFFFFF" points="140,68.2969,133,87.2969,147,87.2969,140,68.2969" style="stroke:#181818;stroke-width:1.0;"/><line style="stroke:#008000;stroke-width:1.0;" x1="284.5" x2="284.5" y1="68.2969" y2="78.2969"/><line style="stroke:#008000;stroke-width:1.0;" x1="284.5" x2="665" y1="78.2969" y2="78.2969"/><line style="stroke:#008000;stroke-width:1.0;" x1="665" x2="665" y1="78.2969" y2="190.8906"/><polygon fill="#008000" points="665,190.8906,669,181.8906,665,185.8906,661,181.8906,665,190.8906" style="stroke:#008000;stroke-width:1.0;"/><text fill="#000000" font-family="sans-serif" font-size="13" lengthAdjust="spacing" textLength="43" x="668" y="139.0942">results</text><rect fill="#DDDDDD" height="79.1875" id="_legend" rx="7.5" ry="7.5" style="stroke:#000000;stroke-width:1.0;" width="161" x="339.75" y="248.1875"/><text fill="#000000" font-family="sans-serif" font-size="14" font-weight="bold" lengthAdjust="spacing" textLength="5" x="344.75" y="268.1826"> </text><text fill="#000000" font-family="sans-serif" font-size="14" font-weight="bold" lengthAdjust="spacing" textLength="28" x="361.75" y="268.1826">line</text><text fill="#000000" filter="url(#bzukjzl0g4whk0)" font-family="sans-serif" font-size="14" lengthAdjust="spacing" textLength="12" x="344.75" y="284.4795">   </text><text fill="#000000" font-family="sans-serif" font-size="14" lengthAdjust="spacing" textLength="77" x="360.75" y="284.4795">inheritance</text><text fill="#000000" filter="url(#bzukjzl0g4whk1)" font-family="sans-serif" font-size="14" lengthAdjust="spacing" textLength="12" x="344.75" y="300.7764">   </text><text fill="#000000" font-family="sans-serif" font-size="14" lengthAdjust="spacing" textLength="129" x="360.75" y="300.7764">property reference</text><text fill="#000000" filter="url(#bzukjzl0g4whk2)" font-family="sans-serif" font-size="14" lengthAdjust="spacing" textLength="12" x="344.75" y="317.0732">   </text><text fill="#000000" font-family="sans-serif" font-size="14" lengthAdjust="spacing" textLength="131" x="360.75" y="317.0732">discriminated class</text><line style="stroke:#000000;stroke-width:1.0;" x1="344.75" x2="495.75" y1="255.1875" y2="255.1875"/><line style="stroke:#000000;stroke-width:1.0;" x1="344.75" x2="495.75" y1="271.4844" y2="271.4844"/><line style="stroke:#000000;stroke-width:1.0;" x1="344.75" x2="495.75" y1="287.7813" y2="287.7813"/><line style="stroke:#000000;stroke-width:1.0;" x1="344.75" x2="495.75" y1="304.0781" y2="304.0781"/><line style="stroke:#000000;stroke-width:1.0;" x1="344.75" x2="495.75" y1="320.375" y2="320.375"/><line style="stroke:#000000;stroke-width:1.0;" x1="344.75" x2="344.75" y1="255.1875" y2="320.375"/><line style="stroke:#000000;stroke-width:1.0;" x1="356.75" x2="356.75" y1="255.1875" y2="320.375"/><line style="stroke:#000000;stroke-width:1.0;" x1="495.75" x2="495.75" y1="255.1875" y2="320.375"/><!--MD5=[60c57613fa70ea2f1a23e2f29b32ccfc]
@startuml
!pragma layout elk
hide empty fields
hide empty methods
legend
|= |= line |
|<back:black>   </back>| inheritance |
|<back:green>   </back>| property reference |
|<back:blue>   </back>| discriminated class |
endlegend
interface ProductSearchFacetResultExpression [[ProductSearchFacetResultExpression.svg]]  {
    name: String
}

interface ProductSearchFacetBucketResult [[ProductSearchFacetBucketResult.svg]] extends ProductSearchFacetResultExpression {
    name: String
    buckets: [[ProductSearchFacetResultBucket.svg List<ProductSearchFacetResultBucket>]]
}
interface ProductSearchFacetResultCount [[ProductSearchFacetResultCount.svg]] extends ProductSearchFacetResultExpression {
    name: String
    value: Long
}

interface ProductSearchFacetResult [[ProductSearchFacetResult.svg]]  {
    results: [[ProductSearchFacetResultExpression.svg List<ProductSearchFacetResultExpression>]]
}

ProductSearchFacetResultExpression - -> ProductSearchFacetResult #green;text:green : "results"
@enduml

PlantUML version 1.2022.13(Sat Nov 19 13:22:17 UTC 2022)
(GPL source distribution)
Java Runtime: OpenJDK Runtime Environment
JVM: OpenJDK 64-Bit Server VM
Default Encoding: UTF-8
Language: en
Country: null
--></g></svg>
