<?xml version="1.0" encoding="UTF-8" standalone="no"?><svg xmlns="http://www.w3.org/2000/svg" xmlns:xlink="http://www.w3.org/1999/xlink" contentStyleType="text/css" height="292px" preserveAspectRatio="none" style="width:1091px;height:292px;background:#FFFFFF;" version="1.1" viewBox="0 0 1091 292" width="1091px" zoomAndPan="magnify"><defs><filter height="1" id="b13qaoup7yxrea0" width="1" x="0" y="0"><feFlood flood-color="#000000" result="flood"/><feComposite in="SourceGraphic" in2="flood" operator="over"/></filter><filter height="1" id="b13qaoup7yxrea1" width="1" x="0" y="0"><feFlood flood-color="#008000" result="flood"/><feComposite in="SourceGraphic" in2="flood" operator="over"/></filter><filter height="1" id="b13qaoup7yxrea2" width="1" x="0" y="0"><feFlood flood-color="#0000FF" result="flood"/><feComposite in="SourceGraphic" in2="flood" operator="over"/></filter></defs><g><!--MD5=[9655ba81d6cd9d5057326ca4dea473ac]
class ProductSearchCompoundExpression--><a href="ProductSearchCompoundExpression.svg" target="_top" title="ProductSearchCompoundExpression.svg" xlink:actuate="onRequest" xlink:href="ProductSearchCompoundExpression.svg" xlink:show="new" xlink:title="ProductSearchCompoundExpression.svg" xlink:type="simple"><g id="elem_ProductSearchCompoundExpression"><rect codeLine="10" fill="#F1F1F1" height="32" id="ProductSearchCompoundExpression" rx="2.5" ry="2.5" style="stroke:#181818;stroke-width:0.5;" width="285" x="72" y="64"/><ellipse cx="87" cy="80" fill="#B4A7E5" rx="11" ry="11" style="stroke:#181818;stroke-width:1.0;"/><path d="M82.9219,75.7656 L82.9219,73.6094 L90.3125,73.6094 L90.3125,75.7656 L87.8438,75.7656 L87.8438,83.8438 L90.3125,83.8438 L90.3125,86 L82.9219,86 L82.9219,83.8438 L85.3906,83.8438 L85.3906,75.7656 L82.9219,75.7656 Z " fill="#000000"/><text fill="#000000" font-family="sans-serif" font-size="14" font-style="italic" lengthAdjust="spacing" textLength="253" x="101" y="84.8467">ProductSearchCompoundExpression</text></g></a><!--MD5=[e5f5c8e32472cf6add9cc3a2146e5833]
class ProductSearchQuery--><a href="ProductSearchQuery.svg" target="_top" title="ProductSearchQuery.svg" xlink:actuate="onRequest" xlink:href="ProductSearchQuery.svg" xlink:show="new" xlink:title="ProductSearchQuery.svg" xlink:type="simple"><g id="elem_ProductSearchQuery"><rect codeLine="12" fill="#F1F1F1" height="32" id="ProductSearchQuery" rx="2.5" ry="2.5" style="stroke:#181818;stroke-width:0.5;" width="175" x="127" y="12"/><ellipse cx="142" cy="28" fill="#B4A7E5" rx="11" ry="11" style="stroke:#181818;stroke-width:1.0;"/><path d="M137.9219,23.7656 L137.9219,21.6094 L145.3125,21.6094 L145.3125,23.7656 L142.8438,23.7656 L142.8438,31.8438 L145.3125,31.8438 L145.3125,34 L137.9219,34 L137.9219,31.8438 L140.3906,31.8438 L140.3906,23.7656 L137.9219,23.7656 Z " fill="#000000"/><text fill="#000000" font-family="sans-serif" font-size="14" font-style="italic" lengthAdjust="spacing" textLength="143" x="156" y="32.8467">ProductSearchQuery</text></g></a><!--MD5=[a9a7421a0c1e69cadde18fd5c5a372d3]
class ProductSearchAndExpression--><a href="ProductSearchAndExpression.svg" target="_top" title="ProductSearchAndExpression.svg" xlink:actuate="onRequest" xlink:href="ProductSearchAndExpression.svg" xlink:show="new" xlink:title="ProductSearchAndExpression.svg" xlink:type="simple"><g id="elem_ProductSearchAndExpression"><rect codeLine="14" fill="#F1F1F1" height="56.2969" id="ProductSearchAndExpression" rx="2.5" ry="2.5" style="stroke:#181818;stroke-width:0.5;" width="237" x="511" y="136"/><ellipse cx="526.45" cy="152" fill="#B4A7E5" rx="11" ry="11" style="stroke:#181818;stroke-width:1.0;"/><path d="M522.3719,147.7656 L522.3719,145.6094 L529.7625,145.6094 L529.7625,147.7656 L527.2938,147.7656 L527.2938,155.8438 L529.7625,155.8438 L529.7625,158 L522.3719,158 L522.3719,155.8438 L524.8406,155.8438 L524.8406,147.7656 L522.3719,147.7656 Z " fill="#000000"/><text fill="#000000" font-family="sans-serif" font-size="14" font-style="italic" lengthAdjust="spacing" textLength="204" x="540.55" y="156.8467">ProductSearchAndExpression</text><line style="stroke:#181818;stroke-width:0.5;" x1="512" x2="747" y1="168" y2="168"/><text fill="#000000" font-family="sans-serif" font-size="14" lengthAdjust="spacing" textLength="31" x="517" y="184.9951">and:</text><a href="ProductSearchQuery.svg" target="_top" title="ProductSearchQuery.svg" xlink:actuate="onRequest" xlink:href="ProductSearchQuery.svg" xlink:show="new" xlink:title="ProductSearchQuery.svg" xlink:type="simple"><text fill="#0000FF" font-family="sans-serif" font-size="14" lengthAdjust="spacing" text-decoration="underline" textLength="190" x="552" y="184.9951">List&lt;ProductSearchQuery&gt;</text></a></g></a><!--MD5=[22d8bec291481760d25e4327b2dcde20]
class ProductSearchFilterExpression--><a href="ProductSearchFilterExpression.svg" target="_top" title="ProductSearchFilterExpression.svg" xlink:actuate="onRequest" xlink:href="ProductSearchFilterExpression.svg" xlink:show="new" xlink:title="ProductSearchFilterExpression.svg" xlink:type="simple"><g id="elem_ProductSearchFilterExpression"><rect codeLine="17" fill="#F1F1F1" height="56.2969" id="ProductSearchFilterExpression" rx="2.5" ry="2.5" style="stroke:#181818;stroke-width:0.5;" width="316" x="768" y="136"/><ellipse cx="817.25" cy="152" fill="#B4A7E5" rx="11" ry="11" style="stroke:#181818;stroke-width:1.0;"/><path d="M813.1719,147.7656 L813.1719,145.6094 L820.5625,145.6094 L820.5625,147.7656 L818.0938,147.7656 L818.0938,155.8438 L820.5625,155.8438 L820.5625,158 L813.1719,158 L813.1719,155.8438 L815.6406,155.8438 L815.6406,147.7656 L813.1719,147.7656 Z " fill="#000000"/><text fill="#000000" font-family="sans-serif" font-size="14" font-style="italic" lengthAdjust="spacing" textLength="209" x="837.75" y="156.8467">ProductSearchFilterExpression</text><line style="stroke:#181818;stroke-width:0.5;" x1="769" x2="1083" y1="168" y2="168"/><text fill="#000000" font-family="sans-serif" font-size="14" lengthAdjust="spacing" textLength="34" x="774" y="184.9951">filter:</text><a href="ProductSearchQueryExpression.svg" target="_top" title="ProductSearchQueryExpression.svg" xlink:actuate="onRequest" xlink:href="ProductSearchQueryExpression.svg" xlink:show="new" xlink:title="ProductSearchQueryExpression.svg" xlink:type="simple"><text fill="#0000FF" font-family="sans-serif" font-size="14" lengthAdjust="spacing" text-decoration="underline" textLength="266" x="812" y="184.9951">List&lt;ProductSearchQueryExpression&gt;</text></a></g></a><!--MD5=[d36395f62a3d5c37cf41170fee33d7b8]
class ProductSearchNotExpression--><a href="ProductSearchNotExpression.svg" target="_top" title="ProductSearchNotExpression.svg" xlink:actuate="onRequest" xlink:href="ProductSearchNotExpression.svg" xlink:show="new" xlink:title="ProductSearchNotExpression.svg" xlink:type="simple"><g id="elem_ProductSearchNotExpression"><rect codeLine="20" fill="#F1F1F1" height="56.2969" id="ProductSearchNotExpression" rx="2.5" ry="2.5" style="stroke:#181818;stroke-width:0.5;" width="234" x="12" y="136"/><ellipse cx="27.45" cy="152" fill="#B4A7E5" rx="11" ry="11" style="stroke:#181818;stroke-width:1.0;"/><path d="M23.3719,147.7656 L23.3719,145.6094 L30.7625,145.6094 L30.7625,147.7656 L28.2938,147.7656 L28.2938,155.8438 L30.7625,155.8438 L30.7625,158 L23.3719,158 L23.3719,155.8438 L25.8406,155.8438 L25.8406,147.7656 L23.3719,147.7656 Z " fill="#000000"/><text fill="#000000" font-family="sans-serif" font-size="14" font-style="italic" lengthAdjust="spacing" textLength="201" x="41.55" y="156.8467">ProductSearchNotExpression</text><line style="stroke:#181818;stroke-width:0.5;" x1="13" x2="245" y1="168" y2="168"/><text fill="#000000" font-family="sans-serif" font-size="14" lengthAdjust="spacing" textLength="28" x="18" y="184.9951">not:</text><a href="ProductSearchQuery.svg" target="_top" title="ProductSearchQuery.svg" xlink:actuate="onRequest" xlink:href="ProductSearchQuery.svg" xlink:show="new" xlink:title="ProductSearchQuery.svg" xlink:type="simple"><text fill="#0000FF" font-family="sans-serif" font-size="14" lengthAdjust="spacing" text-decoration="underline" textLength="190" x="50" y="184.9951">List&lt;ProductSearchQuery&gt;</text></a></g></a><!--MD5=[8b67752e64c6acf68e6b10917604afc2]
class ProductSearchOrExpression--><a href="ProductSearchOrExpression.svg" target="_top" title="ProductSearchOrExpression.svg" xlink:actuate="onRequest" xlink:href="ProductSearchOrExpression.svg" xlink:show="new" xlink:title="ProductSearchOrExpression.svg" xlink:type="simple"><g id="elem_ProductSearchOrExpression"><rect codeLine="23" fill="#F1F1F1" height="56.2969" id="ProductSearchOrExpression" rx="2.5" ry="2.5" style="stroke:#181818;stroke-width:0.5;" width="225" x="266" y="136"/><ellipse cx="281.45" cy="152" fill="#B4A7E5" rx="11" ry="11" style="stroke:#181818;stroke-width:1.0;"/><path d="M277.3719,147.7656 L277.3719,145.6094 L284.7625,145.6094 L284.7625,147.7656 L282.2938,147.7656 L282.2938,155.8438 L284.7625,155.8438 L284.7625,158 L277.3719,158 L277.3719,155.8438 L279.8406,155.8438 L279.8406,147.7656 L277.3719,147.7656 Z " fill="#000000"/><text fill="#000000" font-family="sans-serif" font-size="14" font-style="italic" lengthAdjust="spacing" textLength="192" x="295.55" y="156.8467">ProductSearchOrExpression</text><line style="stroke:#181818;stroke-width:0.5;" x1="267" x2="490" y1="168" y2="168"/><text fill="#000000" font-family="sans-serif" font-size="14" lengthAdjust="spacing" textLength="19" x="272" y="184.9951">or:</text><a href="ProductSearchQuery.svg" target="_top" title="ProductSearchQuery.svg" xlink:actuate="onRequest" xlink:href="ProductSearchQuery.svg" xlink:show="new" xlink:title="ProductSearchQuery.svg" xlink:type="simple"><text fill="#0000FF" font-family="sans-serif" font-size="14" lengthAdjust="spacing" text-decoration="underline" textLength="190" x="295" y="184.9951">List&lt;ProductSearchQuery&gt;</text></a></g></a><line style="stroke:#181818;stroke-width:1.0;" x1="214.5" x2="214.5" y1="44" y2="64"/><polygon fill="#FFFFFF" points="214.5,44,207.5,63,221.5,63,214.5,44" style="stroke:#181818;stroke-width:1.0;"/><line style="stroke:#181818;stroke-width:1.0;" x1="243" x2="243" y1="96" y2="116"/><line style="stroke:#181818;stroke-width:1.0;" x1="243" x2="629.5" y1="116" y2="116"/><line style="stroke:#181818;stroke-width:1.0;" x1="629.5" x2="629.5" y1="116" y2="136"/><polygon fill="#FFFFFF" points="243,96,236,115,250,115,243,96" style="stroke:#181818;stroke-width:1.0;"/><line style="stroke:#181818;stroke-width:1.0;" x1="300" x2="300" y1="96" y2="106"/><line style="stroke:#181818;stroke-width:1.0;" x1="300" x2="926" y1="106" y2="106"/><line style="stroke:#181818;stroke-width:1.0;" x1="926" x2="926" y1="106" y2="136"/><polygon fill="#FFFFFF" points="300,96,293,115,307,115,300,96" style="stroke:#181818;stroke-width:1.0;"/><line style="stroke:#181818;stroke-width:1.0;" x1="129" x2="129" y1="96" y2="136"/><polygon fill="#FFFFFF" points="129,96,122,115,136,115,129,96" style="stroke:#181818;stroke-width:1.0;"/><line style="stroke:#181818;stroke-width:1.0;" x1="186" x2="186" y1="96" y2="126"/><line style="stroke:#181818;stroke-width:1.0;" x1="186" x2="378.5" y1="126" y2="126"/><line style="stroke:#181818;stroke-width:1.0;" x1="378.5" x2="378.5" y1="126" y2="136"/><polygon fill="#FFFFFF" points="186,96,179,115,193,115,186,96" style="stroke:#181818;stroke-width:1.0;"/><rect fill="#DDDDDD" height="79.1875" id="_legend" rx="7.5" ry="7.5" style="stroke:#000000;stroke-width:1.0;" width="161" x="455.5" y="193.2969"/><text fill="#000000" font-family="sans-serif" font-size="14" font-weight="bold" lengthAdjust="spacing" textLength="5" x="460.5" y="213.292"> </text><text fill="#000000" font-family="sans-serif" font-size="14" font-weight="bold" lengthAdjust="spacing" textLength="28" x="477.5" y="213.292">line</text><text fill="#000000" filter="url(#b13qaoup7yxrea0)" font-family="sans-serif" font-size="14" lengthAdjust="spacing" textLength="12" x="460.5" y="229.5889">   </text><text fill="#000000" font-family="sans-serif" font-size="14" lengthAdjust="spacing" textLength="77" x="476.5" y="229.5889">inheritance</text><text fill="#000000" filter="url(#b13qaoup7yxrea1)" font-family="sans-serif" font-size="14" lengthAdjust="spacing" textLength="12" x="460.5" y="245.8857">   </text><text fill="#000000" font-family="sans-serif" font-size="14" lengthAdjust="spacing" textLength="129" x="476.5" y="245.8857">property reference</text><text fill="#000000" filter="url(#b13qaoup7yxrea2)" font-family="sans-serif" font-size="14" lengthAdjust="spacing" textLength="12" x="460.5" y="262.1826">   </text><text fill="#000000" font-family="sans-serif" font-size="14" lengthAdjust="spacing" textLength="131" x="476.5" y="262.1826">discriminated class</text><line style="stroke:#000000;stroke-width:1.0;" x1="460.5" x2="611.5" y1="200.2969" y2="200.2969"/><line style="stroke:#000000;stroke-width:1.0;" x1="460.5" x2="611.5" y1="216.5938" y2="216.5938"/><line style="stroke:#000000;stroke-width:1.0;" x1="460.5" x2="611.5" y1="232.8906" y2="232.8906"/><line style="stroke:#000000;stroke-width:1.0;" x1="460.5" x2="611.5" y1="249.1875" y2="249.1875"/><line style="stroke:#000000;stroke-width:1.0;" x1="460.5" x2="611.5" y1="265.4844" y2="265.4844"/><line style="stroke:#000000;stroke-width:1.0;" x1="460.5" x2="460.5" y1="200.2969" y2="265.4844"/><line style="stroke:#000000;stroke-width:1.0;" x1="472.5" x2="472.5" y1="200.2969" y2="265.4844"/><line style="stroke:#000000;stroke-width:1.0;" x1="611.5" x2="611.5" y1="200.2969" y2="265.4844"/><!--MD5=[f4892e033b639b75763d51fa7dedd07b]
@startuml
!pragma layout elk
hide empty fields
hide empty methods
legend
|= |= line |
|<back:black>   </back>| inheritance |
|<back:green>   </back>| property reference |
|<back:blue>   </back>| discriminated class |
endlegend
interface ProductSearchCompoundExpression [[ProductSearchCompoundExpression.svg]] extends ProductSearchQuery {
}
interface ProductSearchQuery [[ProductSearchQuery.svg]]  {
}
interface ProductSearchAndExpression [[ProductSearchAndExpression.svg]] extends ProductSearchCompoundExpression {
    and: [[ProductSearchQuery.svg List<ProductSearchQuery>]]
}
interface ProductSearchFilterExpression [[ProductSearchFilterExpression.svg]] extends ProductSearchCompoundExpression {
    filter: [[ProductSearchQueryExpression.svg List<ProductSearchQueryExpression>]]
}
interface ProductSearchNotExpression [[ProductSearchNotExpression.svg]] extends ProductSearchCompoundExpression {
    not: [[ProductSearchQuery.svg List<ProductSearchQuery>]]
}
interface ProductSearchOrExpression [[ProductSearchOrExpression.svg]] extends ProductSearchCompoundExpression {
    or: [[ProductSearchQuery.svg List<ProductSearchQuery>]]
}




@enduml

PlantUML version 1.2022.13(Sat Nov 19 13:22:17 UTC 2022)
(GPL source distribution)
Java Runtime: OpenJDK Runtime Environment
JVM: OpenJDK 64-Bit Server VM
Default Encoding: UTF-8
Language: en
Country: null
--></g></svg>
