<?xml version="1.0" encoding="UTF-8" standalone="no"?><svg xmlns="http://www.w3.org/2000/svg" xmlns:xlink="http://www.w3.org/1999/xlink" contentStyleType="text/css" height="448px" preserveAspectRatio="none" style="width:3061px;height:448px;background:#FFFFFF;" version="1.1" viewBox="0 0 3061 448" width="3061px" zoomAndPan="magnify"><defs><filter height="1" id="b1h2ht1s8woscf0" width="1" x="0" y="0"><feFlood flood-color="#000000" result="flood"/><feComposite in="SourceGraphic" in2="flood" operator="over"/></filter><filter height="1" id="b1h2ht1s8woscf1" width="1" x="0" y="0"><feFlood flood-color="#008000" result="flood"/><feComposite in="SourceGraphic" in2="flood" operator="over"/></filter><filter height="1" id="b1h2ht1s8woscf2" width="1" x="0" y="0"><feFlood flood-color="#0000FF" result="flood"/><feComposite in="SourceGraphic" in2="flood" operator="over"/></filter></defs><g><!--MD5=[d995d410ba54e13969a3abcaf739a98b]
class ProductSearchQueryExpression--><a href="ProductSearchQueryExpression.svg" target="_top" title="ProductSearchQueryExpression.svg" xlink:actuate="onRequest" xlink:href="ProductSearchQueryExpression.svg" xlink:show="new" xlink:title="ProductSearchQueryExpression.svg" xlink:type="simple"><g id="elem_ProductSearchQueryExpression"><rect codeLine="10" fill="#F1F1F1" height="32" id="ProductSearchQueryExpression" rx="2.5" ry="2.5" style="stroke:#181818;stroke-width:0.5;" width="250" x="127.2692" y="64"/><ellipse cx="142.2692" cy="80" fill="#B4A7E5" rx="11" ry="11" style="stroke:#181818;stroke-width:1.0;"/><path d="M138.1911,75.7656 L138.1911,73.6094 L145.5817,73.6094 L145.5817,75.7656 L143.113,75.7656 L143.113,83.8438 L145.5817,83.8438 L145.5817,86 L138.1911,86 L138.1911,83.8438 L140.6599,83.8438 L140.6599,75.7656 L138.1911,75.7656 Z " fill="#000000"/><text fill="#000000" font-family="sans-serif" font-size="14" font-style="italic" lengthAdjust="spacing" textLength="218" x="156.2692" y="84.8467">ProductSearchQueryExpression</text></g></a><!--MD5=[e5f5c8e32472cf6add9cc3a2146e5833]
class ProductSearchQuery--><a href="ProductSearchQuery.svg" target="_top" title="ProductSearchQuery.svg" xlink:actuate="onRequest" xlink:href="ProductSearchQuery.svg" xlink:show="new" xlink:title="ProductSearchQuery.svg" xlink:type="simple"><g id="elem_ProductSearchQuery"><rect codeLine="12" fill="#F1F1F1" height="32" id="ProductSearchQuery" rx="2.5" ry="2.5" style="stroke:#181818;stroke-width:0.5;" width="175" x="164.7692" y="12"/><ellipse cx="179.7692" cy="28" fill="#B4A7E5" rx="11" ry="11" style="stroke:#181818;stroke-width:1.0;"/><path d="M175.6911,23.7656 L175.6911,21.6094 L183.0817,21.6094 L183.0817,23.7656 L180.613,23.7656 L180.613,31.8438 L183.0817,31.8438 L183.0817,34 L175.6911,34 L175.6911,31.8438 L178.1599,31.8438 L178.1599,23.7656 L175.6911,23.7656 Z " fill="#000000"/><text fill="#000000" font-family="sans-serif" font-size="14" font-style="italic" lengthAdjust="spacing" textLength="143" x="193.7692" y="32.8467">ProductSearchQuery</text></g></a><!--MD5=[9e7824b5f17fc186835cf57dca0e43e3]
class ProductSearchDateRangeExpression--><a href="ProductSearchDateRangeExpression.svg" target="_top" title="ProductSearchDateRangeExpression.svg" xlink:actuate="onRequest" xlink:href="ProductSearchDateRangeExpression.svg" xlink:show="new" xlink:title="ProductSearchDateRangeExpression.svg" xlink:type="simple"><g id="elem_ProductSearchDateRangeExpression"><rect codeLine="14" fill="#F1F1F1" height="56.2969" id="ProductSearchDateRangeExpression" rx="2.5" ry="2.5" style="stroke:#181818;stroke-width:0.5;" width="286" x="301" y="216"/><ellipse cx="316" cy="232" fill="#B4A7E5" rx="11" ry="11" style="stroke:#181818;stroke-width:1.0;"/><path d="M311.9219,227.7656 L311.9219,225.6094 L319.3125,225.6094 L319.3125,227.7656 L316.8438,227.7656 L316.8438,235.8438 L319.3125,235.8438 L319.3125,238 L311.9219,238 L311.9219,235.8438 L314.3906,235.8438 L314.3906,227.7656 L311.9219,227.7656 Z " fill="#000000"/><text fill="#000000" font-family="sans-serif" font-size="14" font-style="italic" lengthAdjust="spacing" textLength="254" x="330" y="236.8467">ProductSearchDateRangeExpression</text><line style="stroke:#181818;stroke-width:0.5;" x1="302" x2="586" y1="248" y2="248"/><text fill="#000000" font-family="sans-serif" font-size="14" lengthAdjust="spacing" textLength="45" x="307" y="264.9951">range:</text><a href="ProductSearchDateRangeValue.svg" target="_top" title="ProductSearchDateRangeValue.svg" xlink:actuate="onRequest" xlink:href="ProductSearchDateRangeValue.svg" xlink:show="new" xlink:title="ProductSearchDateRangeValue.svg" xlink:type="simple"><text fill="#0000FF" font-family="sans-serif" font-size="14" lengthAdjust="spacing" text-decoration="underline" textLength="218" x="356" y="264.9951">ProductSearchDateRangeValue</text></a></g></a><!--MD5=[853ea50605f55c2245ecc434838615ee]
class ProductSearchDateTimeRangeExpression--><a href="ProductSearchDateTimeRangeExpression.svg" target="_top" title="ProductSearchDateTimeRangeExpression.svg" xlink:actuate="onRequest" xlink:href="ProductSearchDateTimeRangeExpression.svg" xlink:show="new" xlink:title="ProductSearchDateTimeRangeExpression.svg" xlink:type="simple"><g id="elem_ProductSearchDateTimeRangeExpression"><rect codeLine="17" fill="#F1F1F1" height="56.2969" id="ProductSearchDateTimeRangeExpression" rx="2.5" ry="2.5" style="stroke:#181818;stroke-width:0.5;" width="320" x="2354" y="216"/><ellipse cx="2369" cy="232" fill="#B4A7E5" rx="11" ry="11" style="stroke:#181818;stroke-width:1.0;"/><path d="M2364.9219,227.7656 L2364.9219,225.6094 L2372.3125,225.6094 L2372.3125,227.7656 L2369.8438,227.7656 L2369.8438,235.8438 L2372.3125,235.8438 L2372.3125,238 L2364.9219,238 L2364.9219,235.8438 L2367.3906,235.8438 L2367.3906,227.7656 L2364.9219,227.7656 Z " fill="#000000"/><text fill="#000000" font-family="sans-serif" font-size="14" font-style="italic" lengthAdjust="spacing" textLength="288" x="2383" y="236.8467">ProductSearchDateTimeRangeExpression</text><line style="stroke:#181818;stroke-width:0.5;" x1="2355" x2="2673" y1="248" y2="248"/><text fill="#000000" font-family="sans-serif" font-size="14" lengthAdjust="spacing" textLength="45" x="2360" y="264.9951">range:</text><a href="ProductSearchDateTimeRangeValue.svg" target="_top" title="ProductSearchDateTimeRangeValue.svg" xlink:actuate="onRequest" xlink:href="ProductSearchDateTimeRangeValue.svg" xlink:show="new" xlink:title="ProductSearchDateTimeRangeValue.svg" xlink:type="simple"><text fill="#0000FF" font-family="sans-serif" font-size="14" lengthAdjust="spacing" text-decoration="underline" textLength="252" x="2409" y="264.9951">ProductSearchDateTimeRangeValue</text></a></g></a><!--MD5=[7404bffc3308dffc0b1032aa5d9f8d0a]
class ProductSearchExactExpression--><a href="ProductSearchExactExpression.svg" target="_top" title="ProductSearchExactExpression.svg" xlink:actuate="onRequest" xlink:href="ProductSearchExactExpression.svg" xlink:show="new" xlink:title="ProductSearchExactExpression.svg" xlink:type="simple"><g id="elem_ProductSearchExactExpression"><rect codeLine="20" fill="#F1F1F1" height="56.2969" id="ProductSearchExactExpression" rx="2.5" ry="2.5" style="stroke:#181818;stroke-width:0.5;" width="246" x="1182" y="216"/><ellipse cx="1197" cy="232" fill="#B4A7E5" rx="11" ry="11" style="stroke:#181818;stroke-width:1.0;"/><path d="M1192.9219,227.7656 L1192.9219,225.6094 L1200.3125,225.6094 L1200.3125,227.7656 L1197.8438,227.7656 L1197.8438,235.8438 L1200.3125,235.8438 L1200.3125,238 L1192.9219,238 L1192.9219,235.8438 L1195.3906,235.8438 L1195.3906,227.7656 L1192.9219,227.7656 Z " fill="#000000"/><text fill="#000000" font-family="sans-serif" font-size="14" font-style="italic" lengthAdjust="spacing" textLength="214" x="1211" y="236.8467">ProductSearchExactExpression</text><line style="stroke:#181818;stroke-width:0.5;" x1="1183" x2="1427" y1="248" y2="248"/><text fill="#000000" font-family="sans-serif" font-size="14" lengthAdjust="spacing" textLength="42" x="1188" y="264.9951">exact:</text><a href="ProductSearchAnyValue.svg" target="_top" title="ProductSearchAnyValue.svg" xlink:actuate="onRequest" xlink:href="ProductSearchAnyValue.svg" xlink:show="new" xlink:title="ProductSearchAnyValue.svg" xlink:type="simple"><text fill="#0000FF" font-family="sans-serif" font-size="14" lengthAdjust="spacing" text-decoration="underline" textLength="165" x="1234" y="264.9951">ProductSearchAnyValue</text></a></g></a><!--MD5=[e142526c7090bd3a40f66686e7ae0d2f]
class ProductSearchExistsExpression--><a href="ProductSearchExistsExpression.svg" target="_top" title="ProductSearchExistsExpression.svg" xlink:actuate="onRequest" xlink:href="ProductSearchExistsExpression.svg" xlink:show="new" xlink:title="ProductSearchExistsExpression.svg" xlink:type="simple"><g id="elem_ProductSearchExistsExpression"><rect codeLine="23" fill="#F1F1F1" height="56.2969" id="ProductSearchExistsExpression" rx="2.5" ry="2.5" style="stroke:#181818;stroke-width:0.5;" width="247" x="607" y="216"/><ellipse cx="622" cy="232" fill="#B4A7E5" rx="11" ry="11" style="stroke:#181818;stroke-width:1.0;"/><path d="M617.9219,227.7656 L617.9219,225.6094 L625.3125,225.6094 L625.3125,227.7656 L622.8438,227.7656 L622.8438,235.8438 L625.3125,235.8438 L625.3125,238 L617.9219,238 L617.9219,235.8438 L620.3906,235.8438 L620.3906,227.7656 L617.9219,227.7656 Z " fill="#000000"/><text fill="#000000" font-family="sans-serif" font-size="14" font-style="italic" lengthAdjust="spacing" textLength="215" x="636" y="236.8467">ProductSearchExistsExpression</text><line style="stroke:#181818;stroke-width:0.5;" x1="608" x2="853" y1="248" y2="248"/><text fill="#000000" font-family="sans-serif" font-size="14" lengthAdjust="spacing" textLength="45" x="613" y="264.9951">exists:</text><a href="ProductSearchExistsValue.svg" target="_top" title="ProductSearchExistsValue.svg" xlink:actuate="onRequest" xlink:href="ProductSearchExistsValue.svg" xlink:show="new" xlink:title="ProductSearchExistsValue.svg" xlink:type="simple"><text fill="#0000FF" font-family="sans-serif" font-size="14" lengthAdjust="spacing" text-decoration="underline" textLength="180" x="662" y="264.9951">ProductSearchExistsValue</text></a></g></a><!--MD5=[dce88fbae608ba03f56be64fd81a98bd]
class ProductSearchFullTextExpression--><a href="ProductSearchFullTextExpression.svg" target="_top" title="ProductSearchFullTextExpression.svg" xlink:actuate="onRequest" xlink:href="ProductSearchFullTextExpression.svg" xlink:show="new" xlink:title="ProductSearchFullTextExpression.svg" xlink:type="simple"><g id="elem_ProductSearchFullTextExpression"><rect codeLine="26" fill="#F1F1F1" height="56.2969" id="ProductSearchFullTextExpression" rx="2.5" ry="2.5" style="stroke:#181818;stroke-width:0.5;" width="263" x="1806" y="216"/><ellipse cx="1821.45" cy="232" fill="#B4A7E5" rx="11" ry="11" style="stroke:#181818;stroke-width:1.0;"/><path d="M1817.3719,227.7656 L1817.3719,225.6094 L1824.7625,225.6094 L1824.7625,227.7656 L1822.2938,227.7656 L1822.2938,235.8438 L1824.7625,235.8438 L1824.7625,238 L1817.3719,238 L1817.3719,235.8438 L1819.8406,235.8438 L1819.8406,227.7656 L1817.3719,227.7656 Z " fill="#000000"/><text fill="#000000" font-family="sans-serif" font-size="14" font-style="italic" lengthAdjust="spacing" textLength="230" x="1835.55" y="236.8467">ProductSearchFullTextExpression</text><line style="stroke:#181818;stroke-width:0.5;" x1="1807" x2="2068" y1="248" y2="248"/><text fill="#000000" font-family="sans-serif" font-size="14" lengthAdjust="spacing" textLength="54" x="1812" y="264.9951">fullText:</text><a href="ProductSearchFullTextValue.svg" target="_top" title="ProductSearchFullTextValue.svg" xlink:actuate="onRequest" xlink:href="ProductSearchFullTextValue.svg" xlink:show="new" xlink:title="ProductSearchFullTextValue.svg" xlink:type="simple"><text fill="#0000FF" font-family="sans-serif" font-size="14" lengthAdjust="spacing" text-decoration="underline" textLength="193" x="1870" y="264.9951">ProductSearchFullTextValue</text></a></g></a><!--MD5=[53b34302b2511cde58e6f4eb7d6135ad]
class ProductSearchLongRangeExpression--><a href="ProductSearchLongRangeExpression.svg" target="_top" title="ProductSearchLongRangeExpression.svg" xlink:actuate="onRequest" xlink:href="ProductSearchLongRangeExpression.svg" xlink:show="new" xlink:title="ProductSearchLongRangeExpression.svg" xlink:type="simple"><g id="elem_ProductSearchLongRangeExpression"><rect codeLine="29" fill="#F1F1F1" height="56.2969" id="ProductSearchLongRangeExpression" rx="2.5" ry="2.5" style="stroke:#181818;stroke-width:0.5;" width="288" x="874" y="216"/><ellipse cx="889" cy="232" fill="#B4A7E5" rx="11" ry="11" style="stroke:#181818;stroke-width:1.0;"/><path d="M884.9219,227.7656 L884.9219,225.6094 L892.3125,225.6094 L892.3125,227.7656 L889.8438,227.7656 L889.8438,235.8438 L892.3125,235.8438 L892.3125,238 L884.9219,238 L884.9219,235.8438 L887.3906,235.8438 L887.3906,227.7656 L884.9219,227.7656 Z " fill="#000000"/><text fill="#000000" font-family="sans-serif" font-size="14" font-style="italic" lengthAdjust="spacing" textLength="256" x="903" y="236.8467">ProductSearchLongRangeExpression</text><line style="stroke:#181818;stroke-width:0.5;" x1="875" x2="1161" y1="248" y2="248"/><text fill="#000000" font-family="sans-serif" font-size="14" lengthAdjust="spacing" textLength="45" x="880" y="264.9951">range:</text><a href="ProductSearchLongRangeValue.svg" target="_top" title="ProductSearchLongRangeValue.svg" xlink:actuate="onRequest" xlink:href="ProductSearchLongRangeValue.svg" xlink:show="new" xlink:title="ProductSearchLongRangeValue.svg" xlink:type="simple"><text fill="#0000FF" font-family="sans-serif" font-size="14" lengthAdjust="spacing" text-decoration="underline" textLength="219" x="929" y="264.9951">ProductSearchLongRangeValue</text></a></g></a><!--MD5=[1c86878df7130812e1538460843ffbfe]
class ProductSearchNumberRangeExpression--><a href="ProductSearchNumberRangeExpression.svg" target="_top" title="ProductSearchNumberRangeExpression.svg" xlink:actuate="onRequest" xlink:href="ProductSearchNumberRangeExpression.svg" xlink:show="new" xlink:title="ProductSearchNumberRangeExpression.svg" xlink:type="simple"><g id="elem_ProductSearchNumberRangeExpression"><rect codeLine="32" fill="#F1F1F1" height="56.2969" id="ProductSearchNumberRangeExpression" rx="2.5" ry="2.5" style="stroke:#181818;stroke-width:0.5;" width="309" x="2694" y="216"/><ellipse cx="2709" cy="232" fill="#B4A7E5" rx="11" ry="11" style="stroke:#181818;stroke-width:1.0;"/><path d="M2704.9219,227.7656 L2704.9219,225.6094 L2712.3125,225.6094 L2712.3125,227.7656 L2709.8438,227.7656 L2709.8438,235.8438 L2712.3125,235.8438 L2712.3125,238 L2704.9219,238 L2704.9219,235.8438 L2707.3906,235.8438 L2707.3906,227.7656 L2704.9219,227.7656 Z " fill="#000000"/><text fill="#000000" font-family="sans-serif" font-size="14" font-style="italic" lengthAdjust="spacing" textLength="277" x="2723" y="236.8467">ProductSearchNumberRangeExpression</text><line style="stroke:#181818;stroke-width:0.5;" x1="2695" x2="3002" y1="248" y2="248"/><text fill="#000000" font-family="sans-serif" font-size="14" lengthAdjust="spacing" textLength="45" x="2700" y="264.9951">range:</text><a href="ProductSearchNumberRangeValue.svg" target="_top" title="ProductSearchNumberRangeValue.svg" xlink:actuate="onRequest" xlink:href="ProductSearchNumberRangeValue.svg" xlink:show="new" xlink:title="ProductSearchNumberRangeValue.svg" xlink:type="simple"><text fill="#0000FF" font-family="sans-serif" font-size="14" lengthAdjust="spacing" text-decoration="underline" textLength="240" x="2749" y="264.9951">ProductSearchNumberRangeValue</text></a></g></a><!--MD5=[1b6b7eef0367829eefefbf43acbe0a7c]
class ProductSearchPrefixExpression--><a href="ProductSearchPrefixExpression.svg" target="_top" title="ProductSearchPrefixExpression.svg" xlink:actuate="onRequest" xlink:href="ProductSearchPrefixExpression.svg" xlink:show="new" xlink:title="ProductSearchPrefixExpression.svg" xlink:type="simple"><g id="elem_ProductSearchPrefixExpression"><rect codeLine="35" fill="#F1F1F1" height="56.2969" id="ProductSearchPrefixExpression" rx="2.5" ry="2.5" style="stroke:#181818;stroke-width:0.5;" width="245" x="2089" y="216"/><ellipse cx="2104" cy="232" fill="#B4A7E5" rx="11" ry="11" style="stroke:#181818;stroke-width:1.0;"/><path d="M2099.9219,227.7656 L2099.9219,225.6094 L2107.3125,225.6094 L2107.3125,227.7656 L2104.8438,227.7656 L2104.8438,235.8438 L2107.3125,235.8438 L2107.3125,238 L2099.9219,238 L2099.9219,235.8438 L2102.3906,235.8438 L2102.3906,227.7656 L2099.9219,227.7656 Z " fill="#000000"/><text fill="#000000" font-family="sans-serif" font-size="14" font-style="italic" lengthAdjust="spacing" textLength="213" x="2118" y="236.8467">ProductSearchPrefixExpression</text><line style="stroke:#181818;stroke-width:0.5;" x1="2090" x2="2333" y1="248" y2="248"/><text fill="#000000" font-family="sans-serif" font-size="14" lengthAdjust="spacing" textLength="42" x="2095" y="264.9951">prefix:</text><a href="ProductSearchAnyValue.svg" target="_top" title="ProductSearchAnyValue.svg" xlink:actuate="onRequest" xlink:href="ProductSearchAnyValue.svg" xlink:show="new" xlink:title="ProductSearchAnyValue.svg" xlink:type="simple"><text fill="#0000FF" font-family="sans-serif" font-size="14" lengthAdjust="spacing" text-decoration="underline" textLength="165" x="2141" y="264.9951">ProductSearchAnyValue</text></a></g></a><!--MD5=[d0908867ceb1b15dbd8c48c276aa72f4]
class ProductSearchTimeRangeExpression--><a href="ProductSearchTimeRangeExpression.svg" target="_top" title="ProductSearchTimeRangeExpression.svg" xlink:actuate="onRequest" xlink:href="ProductSearchTimeRangeExpression.svg" xlink:show="new" xlink:title="ProductSearchTimeRangeExpression.svg" xlink:type="simple"><g id="elem_ProductSearchTimeRangeExpression"><rect codeLine="38" fill="#F1F1F1" height="56.2969" id="ProductSearchTimeRangeExpression" rx="2.5" ry="2.5" style="stroke:#181818;stroke-width:0.5;" width="287" x="1499" y="216"/><ellipse cx="1514" cy="232" fill="#B4A7E5" rx="11" ry="11" style="stroke:#181818;stroke-width:1.0;"/><path d="M1509.9219,227.7656 L1509.9219,225.6094 L1517.3125,225.6094 L1517.3125,227.7656 L1514.8438,227.7656 L1514.8438,235.8438 L1517.3125,235.8438 L1517.3125,238 L1509.9219,238 L1509.9219,235.8438 L1512.3906,235.8438 L1512.3906,227.7656 L1509.9219,227.7656 Z " fill="#000000"/><text fill="#000000" font-family="sans-serif" font-size="14" font-style="italic" lengthAdjust="spacing" textLength="255" x="1528" y="236.8467">ProductSearchTimeRangeExpression</text><line style="stroke:#181818;stroke-width:0.5;" x1="1500" x2="1785" y1="248" y2="248"/><text fill="#000000" font-family="sans-serif" font-size="14" lengthAdjust="spacing" textLength="45" x="1505" y="264.9951">range:</text><a href="ProductSearchTimeRangeValue.svg" target="_top" title="ProductSearchTimeRangeValue.svg" xlink:actuate="onRequest" xlink:href="ProductSearchTimeRangeValue.svg" xlink:show="new" xlink:title="ProductSearchTimeRangeValue.svg" xlink:type="simple"><text fill="#0000FF" font-family="sans-serif" font-size="14" lengthAdjust="spacing" text-decoration="underline" textLength="219" x="1554" y="264.9951">ProductSearchTimeRangeValue</text></a></g></a><!--MD5=[6eed4f9f91fcf311d8504511812a456d]
class ProductSearchWildCardExpression--><a href="ProductSearchWildCardExpression.svg" target="_top" title="ProductSearchWildCardExpression.svg" xlink:actuate="onRequest" xlink:href="ProductSearchWildCardExpression.svg" xlink:show="new" xlink:title="ProductSearchWildCardExpression.svg" xlink:type="simple"><g id="elem_ProductSearchWildCardExpression"><rect codeLine="41" fill="#F1F1F1" height="56.2969" id="ProductSearchWildCardExpression" rx="2.5" ry="2.5" style="stroke:#181818;stroke-width:0.5;" width="269" x="12" y="216"/><ellipse cx="27" cy="232" fill="#B4A7E5" rx="11" ry="11" style="stroke:#181818;stroke-width:1.0;"/><path d="M22.9219,227.7656 L22.9219,225.6094 L30.3125,225.6094 L30.3125,227.7656 L27.8438,227.7656 L27.8438,235.8438 L30.3125,235.8438 L30.3125,238 L22.9219,238 L22.9219,235.8438 L25.3906,235.8438 L25.3906,227.7656 L22.9219,227.7656 Z " fill="#000000"/><text fill="#000000" font-family="sans-serif" font-size="14" font-style="italic" lengthAdjust="spacing" textLength="237" x="41" y="236.8467">ProductSearchWildCardExpression</text><line style="stroke:#181818;stroke-width:0.5;" x1="13" x2="280" y1="248" y2="248"/><text fill="#000000" font-family="sans-serif" font-size="14" lengthAdjust="spacing" textLength="61" x="18" y="264.9951">wildcard:</text><a href="ProductSearchAnyValue.svg" target="_top" title="ProductSearchAnyValue.svg" xlink:actuate="onRequest" xlink:href="ProductSearchAnyValue.svg" xlink:show="new" xlink:title="ProductSearchAnyValue.svg" xlink:type="simple"><text fill="#0000FF" font-family="sans-serif" font-size="14" lengthAdjust="spacing" text-decoration="underline" textLength="165" x="83" y="264.9951">ProductSearchAnyValue</text></a></g></a><!--MD5=[22d8bec291481760d25e4327b2dcde20]
class ProductSearchFilterExpression--><a href="ProductSearchFilterExpression.svg" target="_top" title="ProductSearchFilterExpression.svg" xlink:actuate="onRequest" xlink:href="ProductSearchFilterExpression.svg" xlink:show="new" xlink:title="ProductSearchFilterExpression.svg" xlink:type="simple"><g id="elem_ProductSearchFilterExpression"><rect codeLine="45" fill="#F1F1F1" height="56.2969" id="ProductSearchFilterExpression" rx="2.5" ry="2.5" style="stroke:#181818;stroke-width:0.5;" width="316" x="1372.6667" y="292.2969"/><ellipse cx="1421.9167" cy="308.2969" fill="#B4A7E5" rx="11" ry="11" style="stroke:#181818;stroke-width:1.0;"/><path d="M1417.8385,304.0625 L1417.8385,301.9063 L1425.2292,301.9063 L1425.2292,304.0625 L1422.7604,304.0625 L1422.7604,312.1406 L1425.2292,312.1406 L1425.2292,314.2969 L1417.8385,314.2969 L1417.8385,312.1406 L1420.3073,312.1406 L1420.3073,304.0625 L1417.8385,304.0625 Z " fill="#000000"/><text fill="#000000" font-family="sans-serif" font-size="14" font-style="italic" lengthAdjust="spacing" textLength="209" x="1442.4167" y="313.1436">ProductSearchFilterExpression</text><line style="stroke:#181818;stroke-width:0.5;" x1="1373.6667" x2="1687.6667" y1="324.2969" y2="324.2969"/><text fill="#000000" font-family="sans-serif" font-size="14" lengthAdjust="spacing" textLength="34" x="1378.6667" y="341.292">filter:</text><a href="ProductSearchQueryExpression.svg" target="_top" title="ProductSearchQueryExpression.svg" xlink:actuate="onRequest" xlink:href="ProductSearchQueryExpression.svg" xlink:show="new" xlink:title="ProductSearchQueryExpression.svg" xlink:type="simple"><text fill="#0000FF" font-family="sans-serif" font-size="14" lengthAdjust="spacing" text-decoration="underline" textLength="266" x="1416.6667" y="341.292">List&lt;ProductSearchQueryExpression&gt;</text></a></g></a><line style="stroke:#181818;stroke-width:1.0;" x1="252.2692" x2="252.2692" y1="44" y2="64"/><polygon fill="#FFFFFF" points="252.2692,44,245.2692,63,259.2692,63,252.2692,44" style="stroke:#181818;stroke-width:1.0;"/><line style="stroke:#181818;stroke-width:1.0;" x1="165.7308" x2="165.7308" y1="96" y2="206"/><line style="stroke:#181818;stroke-width:1.0;" x1="165.7308" x2="444" y1="206" y2="206"/><line style="stroke:#181818;stroke-width:1.0;" x1="444" x2="444" y1="206" y2="216"/><polygon fill="#FFFFFF" points="165.7308,96,158.7308,115,172.7308,115,165.7308,96" style="stroke:#181818;stroke-width:1.0;"/><line style="stroke:#181818;stroke-width:1.0;" x1="319.5769" x2="319.5769" y1="96" y2="126"/><line style="stroke:#181818;stroke-width:1.0;" x1="319.5769" x2="2514" y1="126" y2="126"/><line style="stroke:#181818;stroke-width:1.0;" x1="2514" x2="2514" y1="126" y2="216"/><polygon fill="#FFFFFF" points="319.5769,96,312.5769,115,326.5769,115,319.5769,96" style="stroke:#181818;stroke-width:1.0;"/><line style="stroke:#181818;stroke-width:1.0;" x1="223.4231" x2="223.4231" y1="96" y2="176"/><line style="stroke:#181818;stroke-width:1.0;" x1="223.4231" x2="1305" y1="176" y2="176"/><line style="stroke:#181818;stroke-width:1.0;" x1="1305" x2="1305" y1="176" y2="216"/><polygon fill="#FFFFFF" points="223.4231,96,216.4231,115,230.4231,115,223.4231,96" style="stroke:#181818;stroke-width:1.0;"/><line style="stroke:#181818;stroke-width:1.0;" x1="184.9615" x2="184.9615" y1="96" y2="196"/><line style="stroke:#181818;stroke-width:1.0;" x1="184.9615" x2="730.5" y1="196" y2="196"/><line style="stroke:#181818;stroke-width:1.0;" x1="730.5" x2="730.5" y1="196" y2="216"/><polygon fill="#FFFFFF" points="184.9615,96,177.9615,115,191.9615,115,184.9615,96" style="stroke:#181818;stroke-width:1.0;"/><line style="stroke:#181818;stroke-width:1.0;" x1="281.1154" x2="281.1154" y1="96" y2="146"/><line style="stroke:#181818;stroke-width:1.0;" x1="281.1154" x2="1937.5" y1="146" y2="146"/><line style="stroke:#181818;stroke-width:1.0;" x1="1937.5" x2="1937.5" y1="146" y2="216"/><polygon fill="#FFFFFF" points="281.1154,96,274.1154,115,288.1154,115,281.1154,96" style="stroke:#181818;stroke-width:1.0;"/><line style="stroke:#181818;stroke-width:1.0;" x1="204.1923" x2="204.1923" y1="96" y2="186"/><line style="stroke:#181818;stroke-width:1.0;" x1="204.1923" x2="1018" y1="186" y2="186"/><line style="stroke:#181818;stroke-width:1.0;" x1="1018" x2="1018" y1="186" y2="216"/><polygon fill="#FFFFFF" points="204.1923,96,197.1923,115,211.1923,115,204.1923,96" style="stroke:#181818;stroke-width:1.0;"/><line style="stroke:#181818;stroke-width:1.0;" x1="338.8077" x2="338.8077" y1="96" y2="116"/><line style="stroke:#181818;stroke-width:1.0;" x1="338.8077" x2="2848.5" y1="116" y2="116"/><line style="stroke:#181818;stroke-width:1.0;" x1="2848.5" x2="2848.5" y1="116" y2="216"/><polygon fill="#FFFFFF" points="338.8077,96,331.8077,115,345.8077,115,338.8077,96" style="stroke:#181818;stroke-width:1.0;"/><line style="stroke:#181818;stroke-width:1.0;" x1="300.3462" x2="300.3462" y1="96" y2="136"/><line style="stroke:#181818;stroke-width:1.0;" x1="300.3462" x2="2211.5" y1="136" y2="136"/><line style="stroke:#181818;stroke-width:1.0;" x1="2211.5" x2="2211.5" y1="136" y2="216"/><polygon fill="#FFFFFF" points="300.3462,96,293.3462,115,307.3462,115,300.3462,96" style="stroke:#181818;stroke-width:1.0;"/><line style="stroke:#181818;stroke-width:1.0;" x1="261.8846" x2="261.8846" y1="96" y2="156"/><line style="stroke:#181818;stroke-width:1.0;" x1="261.8846" x2="1642.5" y1="156" y2="156"/><line style="stroke:#181818;stroke-width:1.0;" x1="1642.5" x2="1642.5" y1="156" y2="216"/><polygon fill="#FFFFFF" points="261.8846,96,254.8846,115,268.8846,115,261.8846,96" style="stroke:#181818;stroke-width:1.0;"/><line style="stroke:#181818;stroke-width:1.0;" x1="146.5" x2="146.5" y1="96" y2="216"/><polygon fill="#FFFFFF" points="146.5,96,139.5,115,153.5,115,146.5,96" style="stroke:#181818;stroke-width:1.0;"/><line style="stroke:#008000;stroke-width:1.0;" x1="358.0385" x2="358.0385" y1="96" y2="106"/><line style="stroke:#008000;stroke-width:1.0;" x1="358.0385" x2="3023" y1="106" y2="106"/><line style="stroke:#008000;stroke-width:1.0;" x1="3023" x2="3023" y1="106" y2="282.2969"/><line style="stroke:#008000;stroke-width:1.0;" x1="3023" x2="1583.3333" y1="282.2969" y2="282.2969"/><line style="stroke:#008000;stroke-width:1.0;" x1="1583.3333" x2="1583.3333" y1="282.2969" y2="292.2969"/><polygon fill="#008000" points="1583.3333,292.2969,1587.3333,283.2969,1583.3333,287.2969,1579.3333,283.2969,1583.3333,292.2969" style="stroke:#008000;stroke-width:1.0;"/><text fill="#000000" font-family="sans-serif" font-size="13" lengthAdjust="spacing" textLength="28" x="3026" y="248.6489">filter</text><line style="stroke:#008000;stroke-width:1.0;" x1="242.6538" x2="242.6538" y1="96" y2="166"/><line style="stroke:#008000;stroke-width:1.0;" x1="242.6538" x2="1478" y1="166" y2="166"/><line style="stroke:#008000;stroke-width:1.0;" x1="1478" x2="1478" y1="166" y2="292.2969"/><polygon fill="#008000" points="1478,292.2969,1482,283.2969,1478,287.2969,1474,283.2969,1478,292.2969" style="stroke:#008000;stroke-width:1.0;"/><text fill="#000000" font-family="sans-serif" font-size="13" lengthAdjust="spacing" textLength="28" x="1448" y="248.6489">filter</text><rect fill="#DDDDDD" height="79.1875" id="_legend" rx="7.5" ry="7.5" style="stroke:#000000;stroke-width:1.0;" width="161" x="1440.5" y="349.5938"/><text fill="#000000" font-family="sans-serif" font-size="14" font-weight="bold" lengthAdjust="spacing" textLength="5" x="1445.5" y="369.5889"> </text><text fill="#000000" font-family="sans-serif" font-size="14" font-weight="bold" lengthAdjust="spacing" textLength="28" x="1462.5" y="369.5889">line</text><text fill="#000000" filter="url(#b1h2ht1s8woscf0)" font-family="sans-serif" font-size="14" lengthAdjust="spacing" textLength="12" x="1445.5" y="385.8857">   </text><text fill="#000000" font-family="sans-serif" font-size="14" lengthAdjust="spacing" textLength="77" x="1461.5" y="385.8857">inheritance</text><text fill="#000000" filter="url(#b1h2ht1s8woscf1)" font-family="sans-serif" font-size="14" lengthAdjust="spacing" textLength="12" x="1445.5" y="402.1826">   </text><text fill="#000000" font-family="sans-serif" font-size="14" lengthAdjust="spacing" textLength="129" x="1461.5" y="402.1826">property reference</text><text fill="#000000" filter="url(#b1h2ht1s8woscf2)" font-family="sans-serif" font-size="14" lengthAdjust="spacing" textLength="12" x="1445.5" y="418.4795">   </text><text fill="#000000" font-family="sans-serif" font-size="14" lengthAdjust="spacing" textLength="131" x="1461.5" y="418.4795">discriminated class</text><line style="stroke:#000000;stroke-width:1.0;" x1="1445.5" x2="1596.5" y1="356.5938" y2="356.5938"/><line style="stroke:#000000;stroke-width:1.0;" x1="1445.5" x2="1596.5" y1="372.8906" y2="372.8906"/><line style="stroke:#000000;stroke-width:1.0;" x1="1445.5" x2="1596.5" y1="389.1875" y2="389.1875"/><line style="stroke:#000000;stroke-width:1.0;" x1="1445.5" x2="1596.5" y1="405.4844" y2="405.4844"/><line style="stroke:#000000;stroke-width:1.0;" x1="1445.5" x2="1596.5" y1="421.7813" y2="421.7813"/><line style="stroke:#000000;stroke-width:1.0;" x1="1445.5" x2="1445.5" y1="356.5938" y2="421.7813"/><line style="stroke:#000000;stroke-width:1.0;" x1="1457.5" x2="1457.5" y1="356.5938" y2="421.7813"/><line style="stroke:#000000;stroke-width:1.0;" x1="1596.5" x2="1596.5" y1="356.5938" y2="421.7813"/><!--MD5=[464380fbc0eca2659f0f51a8c26de934]
@startuml
!pragma layout elk
hide empty fields
hide empty methods
legend
|= |= line |
|<back:black>   </back>| inheritance |
|<back:green>   </back>| property reference |
|<back:blue>   </back>| discriminated class |
endlegend
interface ProductSearchQueryExpression [[ProductSearchQueryExpression.svg]] extends ProductSearchQuery {
}
interface ProductSearchQuery [[ProductSearchQuery.svg]]  {
}
interface ProductSearchDateRangeExpression [[ProductSearchDateRangeExpression.svg]] extends ProductSearchQueryExpression {
    range: [[ProductSearchDateRangeValue.svg ProductSearchDateRangeValue]]
}
interface ProductSearchDateTimeRangeExpression [[ProductSearchDateTimeRangeExpression.svg]] extends ProductSearchQueryExpression {
    range: [[ProductSearchDateTimeRangeValue.svg ProductSearchDateTimeRangeValue]]
}
interface ProductSearchExactExpression [[ProductSearchExactExpression.svg]] extends ProductSearchQueryExpression {
    exact: [[ProductSearchAnyValue.svg ProductSearchAnyValue]]
}
interface ProductSearchExistsExpression [[ProductSearchExistsExpression.svg]] extends ProductSearchQueryExpression {
    exists: [[ProductSearchExistsValue.svg ProductSearchExistsValue]]
}
interface ProductSearchFullTextExpression [[ProductSearchFullTextExpression.svg]] extends ProductSearchQueryExpression {
    fullText: [[ProductSearchFullTextValue.svg ProductSearchFullTextValue]]
}
interface ProductSearchLongRangeExpression [[ProductSearchLongRangeExpression.svg]] extends ProductSearchQueryExpression {
    range: [[ProductSearchLongRangeValue.svg ProductSearchLongRangeValue]]
}
interface ProductSearchNumberRangeExpression [[ProductSearchNumberRangeExpression.svg]] extends ProductSearchQueryExpression {
    range: [[ProductSearchNumberRangeValue.svg ProductSearchNumberRangeValue]]
}
interface ProductSearchPrefixExpression [[ProductSearchPrefixExpression.svg]] extends ProductSearchQueryExpression {
    prefix: [[ProductSearchAnyValue.svg ProductSearchAnyValue]]
}
interface ProductSearchTimeRangeExpression [[ProductSearchTimeRangeExpression.svg]] extends ProductSearchQueryExpression {
    range: [[ProductSearchTimeRangeValue.svg ProductSearchTimeRangeValue]]
}
interface ProductSearchWildCardExpression [[ProductSearchWildCardExpression.svg]] extends ProductSearchQueryExpression {
    wildcard: [[ProductSearchAnyValue.svg ProductSearchAnyValue]]
}

interface ProductSearchFilterExpression [[ProductSearchFilterExpression.svg]]  {
    filter: [[ProductSearchQueryExpression.svg List<ProductSearchQueryExpression>]]
}

ProductSearchQueryExpression - -> ProductSearchFilterExpression #green;text:green : "filter"
ProductSearchQueryExpression - -> ProductSearchFilterExpression #green;text:green : "filter"
@enduml

PlantUML version 1.2022.13(Sat Nov 19 13:22:17 UTC 2022)
(GPL source distribution)
Java Runtime: OpenJDK Runtime Environment
JVM: OpenJDK 64-Bit Server VM
Default Encoding: UTF-8
Language: en
Country: null
--></g></svg>
