<?xml version="1.0" encoding="UTF-8" standalone="no"?><svg xmlns="http://www.w3.org/2000/svg" xmlns:xlink="http://www.w3.org/1999/xlink" contentStyleType="text/css" height="244px" preserveAspectRatio="none" style="width:256px;height:244px;background:#FFFFFF;" version="1.1" viewBox="0 0 256 244" width="256px" zoomAndPan="magnify"><defs><filter height="1" id="b16koek2k6oar20" width="1" x="0" y="0"><feFlood flood-color="#000000" result="flood"/><feComposite in="SourceGraphic" in2="flood" operator="over"/></filter><filter height="1" id="b16koek2k6oar21" width="1" x="0" y="0"><feFlood flood-color="#008000" result="flood"/><feComposite in="SourceGraphic" in2="flood" operator="over"/></filter><filter height="1" id="b16koek2k6oar22" width="1" x="0" y="0"><feFlood flood-color="#0000FF" result="flood"/><feComposite in="SourceGraphic" in2="flood" operator="over"/></filter></defs><g><!--MD5=[984d66eae51ca63f17ce240b0e7ab752]
class ProductTailoringPublishAction--><a href="ProductTailoringPublishAction.svg" target="_top" title="ProductTailoringPublishAction.svg" xlink:actuate="onRequest" xlink:href="ProductTailoringPublishAction.svg" xlink:show="new" xlink:title="ProductTailoringPublishAction.svg" xlink:type="simple"><g id="elem_ProductTailoringPublishAction"><rect codeLine="10" fill="#F1F1F1" height="56.2969" id="ProductTailoringPublishAction" rx="2.5" ry="2.5" style="stroke:#181818;stroke-width:0.5;" width="235" x="13" y="88.2969"/><ellipse cx="28" cy="104.2969" fill="#B4A7E5" rx="11" ry="11" style="stroke:#181818;stroke-width:1.0;"/><path d="M23.9219,100.0625 L23.9219,97.9063 L31.3125,97.9063 L31.3125,100.0625 L28.8438,100.0625 L28.8438,108.1406 L31.3125,108.1406 L31.3125,110.2969 L23.9219,110.2969 L23.9219,108.1406 L26.3906,108.1406 L26.3906,100.0625 L23.9219,100.0625 Z " fill="#000000"/><text fill="#000000" font-family="sans-serif" font-size="14" font-style="italic" lengthAdjust="spacing" textLength="203" x="42" y="109.1436">ProductTailoringPublishAction</text><line style="stroke:#181818;stroke-width:0.5;" x1="14" x2="247" y1="120.2969" y2="120.2969"/><text fill="#000000" font-family="sans-serif" font-size="14" lengthAdjust="spacing" textLength="91" x="19" y="137.292">action: String</text></g></a><!--MD5=[fde494f66f32924c8cd6262c654e71c0]
class ProductTailoringUpdateAction--><a href="ProductTailoringUpdateAction.svg" target="_top" title="ProductTailoringUpdateAction.svg" xlink:actuate="onRequest" xlink:href="ProductTailoringUpdateAction.svg" xlink:show="new" xlink:title="ProductTailoringUpdateAction.svg" xlink:type="simple"><g id="elem_ProductTailoringUpdateAction"><rect codeLine="13" fill="#F1F1F1" height="56.2969" id="ProductTailoringUpdateAction" rx="2.5" ry="2.5" style="stroke:#181818;stroke-width:0.5;" width="237" x="12" y="12"/><ellipse cx="27" cy="28" fill="#B4A7E5" rx="11" ry="11" style="stroke:#181818;stroke-width:1.0;"/><path d="M22.9219,23.7656 L22.9219,21.6094 L30.3125,21.6094 L30.3125,23.7656 L27.8438,23.7656 L27.8438,31.8438 L30.3125,31.8438 L30.3125,34 L22.9219,34 L22.9219,31.8438 L25.3906,31.8438 L25.3906,23.7656 L22.9219,23.7656 Z " fill="#000000"/><text fill="#000000" font-family="sans-serif" font-size="14" font-style="italic" lengthAdjust="spacing" textLength="205" x="41" y="32.8467">ProductTailoringUpdateAction</text><line style="stroke:#181818;stroke-width:0.5;" x1="13" x2="248" y1="44" y2="44"/><text fill="#000000" font-family="sans-serif" font-size="14" lengthAdjust="spacing" textLength="91" x="18" y="60.9951">action: String</text></g></a><line style="stroke:#181818;stroke-width:1.0;" x1="130.5" x2="130.5" y1="68.2969" y2="88.2969"/><polygon fill="#FFFFFF" points="130.5,68.2969,123.5,87.2969,137.5,87.2969,130.5,68.2969" style="stroke:#181818;stroke-width:1.0;"/><rect fill="#DDDDDD" height="79.1875" id="_legend" rx="7.5" ry="7.5" style="stroke:#000000;stroke-width:1.0;" width="161" x="38" y="145.5938"/><text fill="#000000" font-family="sans-serif" font-size="14" font-weight="bold" lengthAdjust="spacing" textLength="5" x="43" y="165.5889"> </text><text fill="#000000" font-family="sans-serif" font-size="14" font-weight="bold" lengthAdjust="spacing" textLength="28" x="60" y="165.5889">line</text><text fill="#000000" filter="url(#b16koek2k6oar20)" font-family="sans-serif" font-size="14" lengthAdjust="spacing" textLength="12" x="43" y="181.8857">   </text><text fill="#000000" font-family="sans-serif" font-size="14" lengthAdjust="spacing" textLength="77" x="59" y="181.8857">inheritance</text><text fill="#000000" filter="url(#b16koek2k6oar21)" font-family="sans-serif" font-size="14" lengthAdjust="spacing" textLength="12" x="43" y="198.1826">   </text><text fill="#000000" font-family="sans-serif" font-size="14" lengthAdjust="spacing" textLength="129" x="59" y="198.1826">property reference</text><text fill="#000000" filter="url(#b16koek2k6oar22)" font-family="sans-serif" font-size="14" lengthAdjust="spacing" textLength="12" x="43" y="214.4795">   </text><text fill="#000000" font-family="sans-serif" font-size="14" lengthAdjust="spacing" textLength="131" x="59" y="214.4795">discriminated class</text><line style="stroke:#000000;stroke-width:1.0;" x1="43" x2="194" y1="152.5938" y2="152.5938"/><line style="stroke:#000000;stroke-width:1.0;" x1="43" x2="194" y1="168.8906" y2="168.8906"/><line style="stroke:#000000;stroke-width:1.0;" x1="43" x2="194" y1="185.1875" y2="185.1875"/><line style="stroke:#000000;stroke-width:1.0;" x1="43" x2="194" y1="201.4844" y2="201.4844"/><line style="stroke:#000000;stroke-width:1.0;" x1="43" x2="194" y1="217.7813" y2="217.7813"/><line style="stroke:#000000;stroke-width:1.0;" x1="43" x2="43" y1="152.5938" y2="217.7813"/><line style="stroke:#000000;stroke-width:1.0;" x1="55" x2="55" y1="152.5938" y2="217.7813"/><line style="stroke:#000000;stroke-width:1.0;" x1="194" x2="194" y1="152.5938" y2="217.7813"/><!--MD5=[d712bf6ed0101eebf9d39fd3a6029762]
@startuml
!pragma layout elk
hide empty fields
hide empty methods
legend
|= |= line |
|<back:black>   </back>| inheritance |
|<back:green>   </back>| property reference |
|<back:blue>   </back>| discriminated class |
endlegend
interface ProductTailoringPublishAction [[ProductTailoringPublishAction.svg]] extends ProductTailoringUpdateAction {
    action: String
}
interface ProductTailoringUpdateAction [[ProductTailoringUpdateAction.svg]]  {
    action: String
}





@enduml

PlantUML version 1.2022.13(Sat Nov 19 13:22:17 UTC 2022)
(GPL source distribution)
Java Runtime: OpenJDK Runtime Environment
JVM: OpenJDK 64-Bit Server VM
Default Encoding: UTF-8
Language: en
Country: null
--></g></svg>
