<?xml version="1.0" encoding="UTF-8" standalone="no"?><svg xmlns="http://www.w3.org/2000/svg" xmlns:xlink="http://www.w3.org/1999/xlink" contentStyleType="text/css" height="203px" preserveAspectRatio="none" style="width:309px;height:203px;background:#FFFFFF;" version="1.1" viewBox="0 0 309 203" width="309px" zoomAndPan="magnify"><defs/><g><!--MD5=[8e6c23823b3c9e548c0a3d50c862ecd5]
class ProductVariantSelectionTypeEnum--><g id="elem_ProductVariantSelectionTypeEnum"><rect codeLine="3" fill="#F1F1F1" height="72.5938" id="ProductVariantSelectionTypeEnum" rx="2.5" ry="2.5" style="stroke:#181818;stroke-width:0.5;" width="271" x="21.5" y="12"/><ellipse cx="36.5" cy="28" fill="#EB937F" rx="11" ry="11" style="stroke:#181818;stroke-width:1.0;"/><path d="M40.6094,34 L32.8906,34 L32.8906,21.6094 L40.6094,21.6094 L40.6094,23.7656 L35.3438,23.7656 L35.3438,26.4375 L40.1094,26.4375 L40.1094,28.5938 L35.3438,28.5938 L35.3438,31.8438 L40.6094,31.8438 L40.6094,34 Z " fill="#000000"/><text fill="#000000" font-family="sans-serif" font-size="14" lengthAdjust="spacing" textLength="239" x="50.5" y="32.8467">ProductVariantSelectionTypeEnum</text><line style="stroke:#181818;stroke-width:0.5;" x1="22.5" x2="291.5" y1="44" y2="44"/><text fill="#000000" font-family="sans-serif" font-size="14" lengthAdjust="spacing" textLength="73" x="27.5" y="60.9951">INCLUSION</text><text fill="#000000" font-family="sans-serif" font-size="14" lengthAdjust="spacing" textLength="78" x="27.5" y="77.292">EXCLUSION</text></g><!--MD5=[4cdd1d2878a8aaeaf3eca5245f1b7b5f]
class ProductVariantSelection--><a href="ProductVariantSelection.svg" target="_top" title="ProductVariantSelection.svg" xlink:actuate="onRequest" xlink:href="ProductVariantSelection.svg" xlink:show="new" xlink:title="ProductVariantSelection.svg" xlink:type="simple"><g id="elem_ProductVariantSelection"><rect codeLine="7" fill="#F1F1F1" height="56.2969" id="ProductVariantSelection" rx="2.5" ry="2.5" style="stroke:#181818;stroke-width:0.5;" width="290" x="12" y="139.7266"/><ellipse cx="70.25" cy="155.7266" fill="#B4A7E5" rx="11" ry="11" style="stroke:#181818;stroke-width:1.0;"/><path d="M66.1719,151.4922 L66.1719,149.3359 L73.5625,149.3359 L73.5625,151.4922 L71.0938,151.4922 L71.0938,159.5703 L73.5625,159.5703 L73.5625,161.7266 L66.1719,161.7266 L66.1719,159.5703 L68.6406,159.5703 L68.6406,151.4922 L66.1719,151.4922 Z " fill="#000000"/><text fill="#000000" font-family="sans-serif" font-size="14" font-style="italic" lengthAdjust="spacing" textLength="165" x="90.75" y="160.5732">ProductVariantSelection</text><line style="stroke:#181818;stroke-width:0.5;" x1="13" x2="301" y1="171.7266" y2="171.7266"/><text fill="#000000" font-family="sans-serif" font-size="14" lengthAdjust="spacing" textLength="35" x="18" y="188.7217">type:</text><a href="ProductVariantSelectionTypeEnum.svg" target="_top" title="ProductVariantSelectionTypeEnum.svg" xlink:actuate="onRequest" xlink:href="ProductVariantSelectionTypeEnum.svg" xlink:show="new" xlink:title="ProductVariantSelectionTypeEnum.svg" xlink:type="simple"><text fill="#0000FF" font-family="sans-serif" font-size="14" lengthAdjust="spacing" text-decoration="underline" textLength="239" x="57" y="188.7217">ProductVariantSelectionTypeEnum</text></a></g></a><line style="stroke:#008000;stroke-width:1.0;" x1="157" x2="157" y1="84.5938" y2="139.7266"/><polygon fill="#008000" points="157,139.7266,161,130.7266,157,134.7266,153,130.7266,157,139.7266" style="stroke:#008000;stroke-width:1.0;"/><text fill="#000000" font-family="sans-serif" font-size="13" lengthAdjust="spacing" textLength="28" x="127" y="116.6606">type</text><!--MD5=[a40159648620ede7867a87ee311b060f]
@startuml
!pragma layout elk
hide methods
enum ProductVariantSelectionTypeEnum {
    INCLUSION
    EXCLUSION
}
interface ProductVariantSelection [[ProductVariantSelection.svg]]  {
    type: [[ProductVariantSelectionTypeEnum.svg ProductVariantSelectionTypeEnum]]
}
ProductVariantSelectionTypeEnum - -> ProductVariantSelection #green;text:green : "type"
@enduml

PlantUML version 1.2022.13(Sat Nov 19 13:22:17 UTC 2022)
(GPL source distribution)
Java Runtime: OpenJDK Runtime Environment
JVM: OpenJDK 64-Bit Server VM
Default Encoding: UTF-8
Language: en
Country: null
--></g></svg>
