<?xml version="1.0" encoding="UTF-8" standalone="no"?><svg xmlns="http://www.w3.org/2000/svg" xmlns:xlink="http://www.w3.org/1999/xlink" contentStyleType="text/css" height="426px" preserveAspectRatio="none" style="width:5021px;height:426px;background:#FFFFFF;" version="1.1" viewBox="0 0 5021 426" width="5021px" zoomAndPan="magnify"><defs><filter height="1" id="b1oyort2w3scgv0" width="1" x="0" y="0"><feFlood flood-color="#000000" result="flood"/><feComposite in="SourceGraphic" in2="flood" operator="over"/></filter><filter height="1" id="b1oyort2w3scgv1" width="1" x="0" y="0"><feFlood flood-color="#008000" result="flood"/><feComposite in="SourceGraphic" in2="flood" operator="over"/></filter><filter height="1" id="b1oyort2w3scgv2" width="1" x="0" y="0"><feFlood flood-color="#0000FF" result="flood"/><feComposite in="SourceGraphic" in2="flood" operator="over"/></filter></defs><g><!--MD5=[514f215a4c18e2fefc03ac6c0ca56a66]
class ProjectUpdateAction--><a href="ProjectUpdateAction.svg" target="_top" title="ProjectUpdateAction.svg" xlink:actuate="onRequest" xlink:href="ProjectUpdateAction.svg" xlink:show="new" xlink:title="ProjectUpdateAction.svg" xlink:type="simple"><g id="elem_ProjectUpdateAction"><rect codeLine="10" fill="#F1F1F1" height="56.2969" id="ProjectUpdateAction" rx="2.5" ry="2.5" style="stroke:#181818;stroke-width:0.5;" width="173" x="162.1875" y="12"/><ellipse cx="177.1875" cy="28" fill="#B4A7E5" rx="11" ry="11" style="stroke:#181818;stroke-width:1.0;"/><path d="M173.1094,23.7656 L173.1094,21.6094 L180.5,21.6094 L180.5,23.7656 L178.0313,23.7656 L178.0313,31.8438 L180.5,31.8438 L180.5,34 L173.1094,34 L173.1094,31.8438 L175.5781,31.8438 L175.5781,23.7656 L173.1094,23.7656 Z " fill="#000000"/><text fill="#000000" font-family="sans-serif" font-size="14" font-style="italic" lengthAdjust="spacing" textLength="141" x="191.1875" y="32.8467">ProjectUpdateAction</text><line style="stroke:#181818;stroke-width:0.5;" x1="163.1875" x2="334.1875" y1="44" y2="44"/><text fill="#000000" font-family="sans-serif" font-size="14" lengthAdjust="spacing" textLength="91" x="168.1875" y="60.9951">action: String</text></g></a><!--MD5=[75557cb5467d3791fb4a51f7b2378111]
class ProjectChangeBusinessUnitStatusOnCreationAction--><a href="ProjectChangeBusinessUnitStatusOnCreationAction.svg" target="_top" title="ProjectChangeBusinessUnitStatusOnCreationAction.svg" xlink:actuate="onRequest" xlink:href="ProjectChangeBusinessUnitStatusOnCreationAction.svg" xlink:show="new" xlink:title="ProjectChangeBusinessUnitStatusOnCreationAction.svg" xlink:type="simple"><g id="elem_ProjectChangeBusinessUnitStatusOnCreationAction"><rect codeLine="15" fill="#F1F1F1" height="72.5938" id="ProjectChangeBusinessUnitStatusOnCreationAction" rx="2.5" ry="2.5" style="stroke:#181818;stroke-width:0.5;" width="386" x="4304.5" y="253.4297"/><ellipse cx="4319.5" cy="269.4297" fill="#B4A7E5" rx="11" ry="11" style="stroke:#181818;stroke-width:1.0;"/><path d="M4315.4219,265.1953 L4315.4219,263.0391 L4322.8125,263.0391 L4322.8125,265.1953 L4320.3438,265.1953 L4320.3438,273.2734 L4322.8125,273.2734 L4322.8125,275.4297 L4315.4219,275.4297 L4315.4219,273.2734 L4317.8906,273.2734 L4317.8906,265.1953 L4315.4219,265.1953 Z " fill="#000000"/><text fill="#000000" font-family="sans-serif" font-size="14" font-style="italic" lengthAdjust="spacing" textLength="354" x="4333.5" y="274.2764">ProjectChangeBusinessUnitStatusOnCreationAction</text><line style="stroke:#181818;stroke-width:0.5;" x1="4305.5" x2="4689.5" y1="285.4297" y2="285.4297"/><text fill="#000000" font-family="sans-serif" font-size="14" lengthAdjust="spacing" textLength="91" x="4310.5" y="302.4248">action: String</text><text fill="#000000" font-family="sans-serif" font-size="14" lengthAdjust="spacing" textLength="48" x="4310.5" y="318.7217">status:</text><a href="BusinessUnitConfigurationStatus.svg" target="_top" title="BusinessUnitConfigurationStatus.svg" xlink:actuate="onRequest" xlink:href="BusinessUnitConfigurationStatus.svg" xlink:show="new" xlink:title="BusinessUnitConfigurationStatus.svg" xlink:type="simple"><text fill="#0000FF" font-family="sans-serif" font-size="14" lengthAdjust="spacing" text-decoration="underline" textLength="227" x="4362.5" y="318.7217">BusinessUnitConfigurationStatus</text></a></g></a><!--MD5=[b81bc6c7987b26312e0e4dfa4c66f0c1]
class ProjectChangeCartsConfigurationAction--><a href="ProjectChangeCartsConfigurationAction.svg" target="_top" title="ProjectChangeCartsConfigurationAction.svg" xlink:actuate="onRequest" xlink:href="ProjectChangeCartsConfigurationAction.svg" xlink:show="new" xlink:title="ProjectChangeCartsConfigurationAction.svg" xlink:type="simple"><g id="elem_ProjectChangeCartsConfigurationAction"><rect codeLine="19" fill="#F1F1F1" height="72.5938" id="ProjectChangeCartsConfigurationAction" rx="2.5" ry="2.5" style="stroke:#181818;stroke-width:0.5;" width="304" x="4710.5" y="253.4297"/><ellipse cx="4725.5" cy="269.4297" fill="#B4A7E5" rx="11" ry="11" style="stroke:#181818;stroke-width:1.0;"/><path d="M4721.4219,265.1953 L4721.4219,263.0391 L4728.8125,263.0391 L4728.8125,265.1953 L4726.3438,265.1953 L4726.3438,273.2734 L4728.8125,273.2734 L4728.8125,275.4297 L4721.4219,275.4297 L4721.4219,273.2734 L4723.8906,273.2734 L4723.8906,265.1953 L4721.4219,265.1953 Z " fill="#000000"/><text fill="#000000" font-family="sans-serif" font-size="14" font-style="italic" lengthAdjust="spacing" textLength="272" x="4739.5" y="274.2764">ProjectChangeCartsConfigurationAction</text><line style="stroke:#181818;stroke-width:0.5;" x1="4711.5" x2="5013.5" y1="285.4297" y2="285.4297"/><text fill="#000000" font-family="sans-serif" font-size="14" lengthAdjust="spacing" textLength="91" x="4716.5" y="302.4248">action: String</text><text fill="#000000" font-family="sans-serif" font-size="14" lengthAdjust="spacing" textLength="131" x="4716.5" y="318.7217">cartsConfiguration:</text><a href="CartsConfiguration.svg" target="_top" title="CartsConfiguration.svg" xlink:actuate="onRequest" xlink:href="CartsConfiguration.svg" xlink:show="new" xlink:title="CartsConfiguration.svg" xlink:type="simple"><text fill="#0000FF" font-family="sans-serif" font-size="14" lengthAdjust="spacing" text-decoration="underline" textLength="128" x="4851.5" y="318.7217">CartsConfiguration</text></a></g></a><!--MD5=[32c0114db98d271cb407197cd48c8bb5]
class ProjectChangeCountriesAction--><a href="ProjectChangeCountriesAction.svg" target="_top" title="ProjectChangeCountriesAction.svg" xlink:actuate="onRequest" xlink:href="ProjectChangeCountriesAction.svg" xlink:show="new" xlink:title="ProjectChangeCountriesAction.svg" xlink:type="simple"><g id="elem_ProjectChangeCountriesAction"><rect codeLine="23" fill="#F1F1F1" height="72.5938" id="ProjectChangeCountriesAction" rx="2.5" ry="2.5" style="stroke:#181818;stroke-width:0.5;" width="243" x="51.5" y="253.4297"/><ellipse cx="66.5" cy="269.4297" fill="#B4A7E5" rx="11" ry="11" style="stroke:#181818;stroke-width:1.0;"/><path d="M62.4219,265.1953 L62.4219,263.0391 L69.8125,263.0391 L69.8125,265.1953 L67.3438,265.1953 L67.3438,273.2734 L69.8125,273.2734 L69.8125,275.4297 L62.4219,275.4297 L62.4219,273.2734 L64.8906,273.2734 L64.8906,265.1953 L62.4219,265.1953 Z " fill="#000000"/><text fill="#000000" font-family="sans-serif" font-size="14" font-style="italic" lengthAdjust="spacing" textLength="211" x="80.5" y="274.2764">ProjectChangeCountriesAction</text><line style="stroke:#181818;stroke-width:0.5;" x1="52.5" x2="293.5" y1="285.4297" y2="285.4297"/><text fill="#000000" font-family="sans-serif" font-size="14" lengthAdjust="spacing" textLength="91" x="57.5" y="302.4248">action: String</text><text fill="#000000" font-family="sans-serif" font-size="14" lengthAdjust="spacing" textLength="70" x="57.5" y="318.7217">countries:</text><a href="String.svg" target="_top" title="String.svg" xlink:actuate="onRequest" xlink:href="String.svg" xlink:show="new" xlink:title="String.svg" xlink:type="simple"><text fill="#0000FF" font-family="sans-serif" font-size="14" lengthAdjust="spacing" text-decoration="underline" textLength="87" x="131.5" y="318.7217">List&lt;String&gt;</text></a></g></a><!--MD5=[1e882422eeb397ecd4c0660e91525ef7]
class ProjectChangeCountryTaxRateFallbackEnabledAction--><a href="ProjectChangeCountryTaxRateFallbackEnabledAction.svg" target="_top" title="ProjectChangeCountryTaxRateFallbackEnabledAction.svg" xlink:actuate="onRequest" xlink:href="ProjectChangeCountryTaxRateFallbackEnabledAction.svg" xlink:show="new" xlink:title="ProjectChangeCountryTaxRateFallbackEnabledAction.svg" xlink:type="simple"><g id="elem_ProjectChangeCountryTaxRateFallbackEnabledAction"><rect codeLine="27" fill="#F1F1F1" height="72.5938" id="ProjectChangeCountryTaxRateFallbackEnabledAction" rx="2.5" ry="2.5" style="stroke:#181818;stroke-width:0.5;" width="400" x="1376.5" y="253.4297"/><ellipse cx="1391.5" cy="269.4297" fill="#B4A7E5" rx="11" ry="11" style="stroke:#181818;stroke-width:1.0;"/><path d="M1387.4219,265.1953 L1387.4219,263.0391 L1394.8125,263.0391 L1394.8125,265.1953 L1392.3438,265.1953 L1392.3438,273.2734 L1394.8125,273.2734 L1394.8125,275.4297 L1387.4219,275.4297 L1387.4219,273.2734 L1389.8906,273.2734 L1389.8906,265.1953 L1387.4219,265.1953 Z " fill="#000000"/><text fill="#000000" font-family="sans-serif" font-size="14" font-style="italic" lengthAdjust="spacing" textLength="368" x="1405.5" y="274.2764">ProjectChangeCountryTaxRateFallbackEnabledAction</text><line style="stroke:#181818;stroke-width:0.5;" x1="1377.5" x2="1775.5" y1="285.4297" y2="285.4297"/><text fill="#000000" font-family="sans-serif" font-size="14" lengthAdjust="spacing" textLength="91" x="1382.5" y="302.4248">action: String</text><text fill="#000000" font-family="sans-serif" font-size="14" lengthAdjust="spacing" textLength="285" x="1382.5" y="318.7217">countryTaxRateFallbackEnabled: Boolean</text></g></a><!--MD5=[971a87a972a8ab71dd48a7c73d6c1158]
class ProjectChangeCurrenciesAction--><a href="ProjectChangeCurrenciesAction.svg" target="_top" title="ProjectChangeCurrenciesAction.svg" xlink:actuate="onRequest" xlink:href="ProjectChangeCurrenciesAction.svg" xlink:show="new" xlink:title="ProjectChangeCurrenciesAction.svg" xlink:type="simple"><g id="elem_ProjectChangeCurrenciesAction"><rect codeLine="31" fill="#F1F1F1" height="72.5938" id="ProjectChangeCurrenciesAction" rx="2.5" ry="2.5" style="stroke:#181818;stroke-width:0.5;" width="251" x="3481.5" y="253.4297"/><ellipse cx="3496.5" cy="269.4297" fill="#B4A7E5" rx="11" ry="11" style="stroke:#181818;stroke-width:1.0;"/><path d="M3492.4219,265.1953 L3492.4219,263.0391 L3499.8125,263.0391 L3499.8125,265.1953 L3497.3438,265.1953 L3497.3438,273.2734 L3499.8125,273.2734 L3499.8125,275.4297 L3492.4219,275.4297 L3492.4219,273.2734 L3494.8906,273.2734 L3494.8906,265.1953 L3492.4219,265.1953 Z " fill="#000000"/><text fill="#000000" font-family="sans-serif" font-size="14" font-style="italic" lengthAdjust="spacing" textLength="219" x="3510.5" y="274.2764">ProjectChangeCurrenciesAction</text><line style="stroke:#181818;stroke-width:0.5;" x1="3482.5" x2="3731.5" y1="285.4297" y2="285.4297"/><text fill="#000000" font-family="sans-serif" font-size="14" lengthAdjust="spacing" textLength="91" x="3487.5" y="302.4248">action: String</text><text fill="#000000" font-family="sans-serif" font-size="14" lengthAdjust="spacing" textLength="78" x="3487.5" y="318.7217">currencies:</text><a href="String.svg" target="_top" title="String.svg" xlink:actuate="onRequest" xlink:href="String.svg" xlink:show="new" xlink:title="String.svg" xlink:type="simple"><text fill="#0000FF" font-family="sans-serif" font-size="14" lengthAdjust="spacing" text-decoration="underline" textLength="87" x="3569.5" y="318.7217">List&lt;String&gt;</text></a></g></a><!--MD5=[858376affb7b1a9ea7f3d107aba80f18]
class ProjectChangeLanguagesAction--><a href="ProjectChangeLanguagesAction.svg" target="_top" title="ProjectChangeLanguagesAction.svg" xlink:actuate="onRequest" xlink:href="ProjectChangeLanguagesAction.svg" xlink:show="new" xlink:title="ProjectChangeLanguagesAction.svg" xlink:type="simple"><g id="elem_ProjectChangeLanguagesAction"><rect codeLine="35" fill="#F1F1F1" height="72.5938" id="ProjectChangeLanguagesAction" rx="2.5" ry="2.5" style="stroke:#181818;stroke-width:0.5;" width="253" x="3752.5" y="253.4297"/><ellipse cx="3767.5" cy="269.4297" fill="#B4A7E5" rx="11" ry="11" style="stroke:#181818;stroke-width:1.0;"/><path d="M3763.4219,265.1953 L3763.4219,263.0391 L3770.8125,263.0391 L3770.8125,265.1953 L3768.3438,265.1953 L3768.3438,273.2734 L3770.8125,273.2734 L3770.8125,275.4297 L3763.4219,275.4297 L3763.4219,273.2734 L3765.8906,273.2734 L3765.8906,265.1953 L3763.4219,265.1953 Z " fill="#000000"/><text fill="#000000" font-family="sans-serif" font-size="14" font-style="italic" lengthAdjust="spacing" textLength="221" x="3781.5" y="274.2764">ProjectChangeLanguagesAction</text><line style="stroke:#181818;stroke-width:0.5;" x1="3753.5" x2="4004.5" y1="285.4297" y2="285.4297"/><text fill="#000000" font-family="sans-serif" font-size="14" lengthAdjust="spacing" textLength="91" x="3758.5" y="302.4248">action: String</text><text fill="#000000" font-family="sans-serif" font-size="14" lengthAdjust="spacing" textLength="77" x="3758.5" y="318.7217">languages:</text><a href="String.svg" target="_top" title="String.svg" xlink:actuate="onRequest" xlink:href="String.svg" xlink:show="new" xlink:title="String.svg" xlink:type="simple"><text fill="#0000FF" font-family="sans-serif" font-size="14" lengthAdjust="spacing" text-decoration="underline" textLength="87" x="3839.5" y="318.7217">List&lt;String&gt;</text></a></g></a><!--MD5=[0d5d0e22e13ad2df9901883a7337ef1c]
class ProjectChangeMessagesConfigurationAction--><a href="ProjectChangeMessagesConfigurationAction.svg" target="_top" title="ProjectChangeMessagesConfigurationAction.svg" xlink:actuate="onRequest" xlink:href="ProjectChangeMessagesConfigurationAction.svg" xlink:show="new" xlink:title="ProjectChangeMessagesConfigurationAction.svg" xlink:type="simple"><g id="elem_ProjectChangeMessagesConfigurationAction"><rect codeLine="39" fill="#F1F1F1" height="72.5938" id="ProjectChangeMessagesConfigurationAction" rx="2.5" ry="2.5" style="stroke:#181818;stroke-width:0.5;" width="381" x="3080.5" y="253.4297"/><ellipse cx="3115.3" cy="269.4297" fill="#B4A7E5" rx="11" ry="11" style="stroke:#181818;stroke-width:1.0;"/><path d="M3111.2219,265.1953 L3111.2219,263.0391 L3118.6125,263.0391 L3118.6125,265.1953 L3116.1438,265.1953 L3116.1438,273.2734 L3118.6125,273.2734 L3118.6125,275.4297 L3111.2219,275.4297 L3111.2219,273.2734 L3113.6906,273.2734 L3113.6906,265.1953 L3111.2219,265.1953 Z " fill="#000000"/><text fill="#000000" font-family="sans-serif" font-size="14" font-style="italic" lengthAdjust="spacing" textLength="305" x="3133.7" y="274.2764">ProjectChangeMessagesConfigurationAction</text><line style="stroke:#181818;stroke-width:0.5;" x1="3081.5" x2="3460.5" y1="285.4297" y2="285.4297"/><text fill="#000000" font-family="sans-serif" font-size="14" lengthAdjust="spacing" textLength="91" x="3086.5" y="302.4248">action: String</text><text fill="#000000" font-family="sans-serif" font-size="14" lengthAdjust="spacing" textLength="169" x="3086.5" y="318.7217">messagesConfiguration:</text><a href="MessagesConfigurationDraft.svg" target="_top" title="MessagesConfigurationDraft.svg" xlink:actuate="onRequest" xlink:href="MessagesConfigurationDraft.svg" xlink:show="new" xlink:title="MessagesConfigurationDraft.svg" xlink:type="simple"><text fill="#0000FF" font-family="sans-serif" font-size="14" lengthAdjust="spacing" text-decoration="underline" textLength="196" x="3259.5" y="318.7217">MessagesConfigurationDraft</text></a></g></a><!--MD5=[6dcdb16c41e04e1661295c1e10510dcf]
class ProjectChangeMessagesEnabledAction--><a href="ProjectChangeMessagesEnabledAction.svg" target="_top" title="ProjectChangeMessagesEnabledAction.svg" xlink:actuate="onRequest" xlink:href="ProjectChangeMessagesEnabledAction.svg" xlink:show="new" xlink:title="ProjectChangeMessagesEnabledAction.svg" xlink:type="simple"><g id="elem_ProjectChangeMessagesEnabledAction"><rect codeLine="43" fill="#F1F1F1" height="72.5938" id="ProjectChangeMessagesEnabledAction" rx="2.5" ry="2.5" style="stroke:#181818;stroke-width:0.5;" width="301" x="728.5" y="253.4297"/><ellipse cx="743.5" cy="269.4297" fill="#B4A7E5" rx="11" ry="11" style="stroke:#181818;stroke-width:1.0;"/><path d="M739.4219,265.1953 L739.4219,263.0391 L746.8125,263.0391 L746.8125,265.1953 L744.3438,265.1953 L744.3438,273.2734 L746.8125,273.2734 L746.8125,275.4297 L739.4219,275.4297 L739.4219,273.2734 L741.8906,273.2734 L741.8906,265.1953 L739.4219,265.1953 Z " fill="#000000"/><text fill="#000000" font-family="sans-serif" font-size="14" font-style="italic" lengthAdjust="spacing" textLength="269" x="757.5" y="274.2764">ProjectChangeMessagesEnabledAction</text><line style="stroke:#181818;stroke-width:0.5;" x1="729.5" x2="1028.5" y1="285.4297" y2="285.4297"/><text fill="#000000" font-family="sans-serif" font-size="14" lengthAdjust="spacing" textLength="91" x="734.5" y="302.4248">action: String</text><text fill="#000000" font-family="sans-serif" font-size="14" lengthAdjust="spacing" textLength="194" x="734.5" y="318.7217">messagesEnabled: Boolean</text></g></a><!--MD5=[784cf593129729c1e6ca197813cc23d0]
class ProjectChangeNameAction--><a href="ProjectChangeNameAction.svg" target="_top" title="ProjectChangeNameAction.svg" xlink:actuate="onRequest" xlink:href="ProjectChangeNameAction.svg" xlink:show="new" xlink:title="ProjectChangeNameAction.svg" xlink:type="simple"><g id="elem_ProjectChangeNameAction"><rect codeLine="47" fill="#F1F1F1" height="72.5938" id="ProjectChangeNameAction" rx="2.5" ry="2.5" style="stroke:#181818;stroke-width:0.5;" width="218" x="2062.5" y="253.4297"/><ellipse cx="2077.5" cy="269.4297" fill="#B4A7E5" rx="11" ry="11" style="stroke:#181818;stroke-width:1.0;"/><path d="M2073.4219,265.1953 L2073.4219,263.0391 L2080.8125,263.0391 L2080.8125,265.1953 L2078.3438,265.1953 L2078.3438,273.2734 L2080.8125,273.2734 L2080.8125,275.4297 L2073.4219,275.4297 L2073.4219,273.2734 L2075.8906,273.2734 L2075.8906,265.1953 L2073.4219,265.1953 Z " fill="#000000"/><text fill="#000000" font-family="sans-serif" font-size="14" font-style="italic" lengthAdjust="spacing" textLength="186" x="2091.5" y="274.2764">ProjectChangeNameAction</text><line style="stroke:#181818;stroke-width:0.5;" x1="2063.5" x2="2279.5" y1="285.4297" y2="285.4297"/><text fill="#000000" font-family="sans-serif" font-size="14" lengthAdjust="spacing" textLength="91" x="2068.5" y="302.4248">action: String</text><text fill="#000000" font-family="sans-serif" font-size="14" lengthAdjust="spacing" textLength="88" x="2068.5" y="318.7217">name: String</text></g></a><!--MD5=[ec15b4b9185125589f59b7719fe4adbc]
class ProjectChangeOrderSearchStatusAction--><a href="ProjectChangeOrderSearchStatusAction.svg" target="_top" title="ProjectChangeOrderSearchStatusAction.svg" xlink:actuate="onRequest" xlink:href="ProjectChangeOrderSearchStatusAction.svg" xlink:show="new" xlink:title="ProjectChangeOrderSearchStatusAction.svg" xlink:type="simple"><g id="elem_ProjectChangeOrderSearchStatusAction"><rect codeLine="51" fill="#F1F1F1" height="72.5938" id="ProjectChangeOrderSearchStatusAction" rx="2.5" ry="2.5" style="stroke:#181818;stroke-width:0.5;" width="307" x="1049.5" y="253.4297"/><ellipse cx="1064.5" cy="269.4297" fill="#B4A7E5" rx="11" ry="11" style="stroke:#181818;stroke-width:1.0;"/><path d="M1060.4219,265.1953 L1060.4219,263.0391 L1067.8125,263.0391 L1067.8125,265.1953 L1065.3438,265.1953 L1065.3438,273.2734 L1067.8125,273.2734 L1067.8125,275.4297 L1060.4219,275.4297 L1060.4219,273.2734 L1062.8906,273.2734 L1062.8906,265.1953 L1060.4219,265.1953 Z " fill="#000000"/><text fill="#000000" font-family="sans-serif" font-size="14" font-style="italic" lengthAdjust="spacing" textLength="275" x="1078.5" y="274.2764">ProjectChangeOrderSearchStatusAction</text><line style="stroke:#181818;stroke-width:0.5;" x1="1050.5" x2="1355.5" y1="285.4297" y2="285.4297"/><text fill="#000000" font-family="sans-serif" font-size="14" lengthAdjust="spacing" textLength="91" x="1055.5" y="302.4248">action: String</text><text fill="#000000" font-family="sans-serif" font-size="14" lengthAdjust="spacing" textLength="48" x="1055.5" y="318.7217">status:</text><a href="OrderSearchStatus.svg" target="_top" title="OrderSearchStatus.svg" xlink:actuate="onRequest" xlink:href="OrderSearchStatus.svg" xlink:show="new" xlink:title="OrderSearchStatus.svg" xlink:type="simple"><text fill="#0000FF" font-family="sans-serif" font-size="14" lengthAdjust="spacing" text-decoration="underline" textLength="131" x="1107.5" y="318.7217">OrderSearchStatus</text></a></g></a><!--MD5=[b089156e6a75d0221aff58d6920c85ef]
class ProjectChangeProductSearchIndexingEnabledAction--><a href="ProjectChangeProductSearchIndexingEnabledAction.svg" target="_top" title="ProjectChangeProductSearchIndexingEnabledAction.svg" xlink:actuate="onRequest" xlink:href="ProjectChangeProductSearchIndexingEnabledAction.svg" xlink:show="new" xlink:title="ProjectChangeProductSearchIndexingEnabledAction.svg" xlink:type="simple"><g id="elem_ProjectChangeProductSearchIndexingEnabledAction"><rect codeLine="55" fill="#F1F1F1" height="72.5938" id="ProjectChangeProductSearchIndexingEnabledAction" rx="2.5" ry="2.5" style="stroke:#181818;stroke-width:0.5;" width="394" x="314.5" y="253.4297"/><ellipse cx="329.5" cy="269.4297" fill="#B4A7E5" rx="11" ry="11" style="stroke:#181818;stroke-width:1.0;"/><path d="M325.4219,265.1953 L325.4219,263.0391 L332.8125,263.0391 L332.8125,265.1953 L330.3438,265.1953 L330.3438,273.2734 L332.8125,273.2734 L332.8125,275.4297 L325.4219,275.4297 L325.4219,273.2734 L327.8906,273.2734 L327.8906,265.1953 L325.4219,265.1953 Z " fill="#000000"/><text fill="#000000" font-family="sans-serif" font-size="14" font-style="italic" lengthAdjust="spacing" textLength="362" x="343.5" y="274.2764">ProjectChangeProductSearchIndexingEnabledAction</text><line style="stroke:#181818;stroke-width:0.5;" x1="315.5" x2="707.5" y1="285.4297" y2="285.4297"/><text fill="#000000" font-family="sans-serif" font-size="14" lengthAdjust="spacing" textLength="91" x="320.5" y="302.4248">action: String</text><text fill="#000000" font-family="sans-serif" font-size="14" lengthAdjust="spacing" textLength="122" x="320.5" y="318.7217">enabled: Boolean</text></g></a><!--MD5=[3daddf9bd464e63da3e012e58d3ab83c]
class ProjectChangeShoppingListsConfigurationAction--><a href="ProjectChangeShoppingListsConfigurationAction.svg" target="_top" title="ProjectChangeShoppingListsConfigurationAction.svg" xlink:actuate="onRequest" xlink:href="ProjectChangeShoppingListsConfigurationAction.svg" xlink:show="new" xlink:title="ProjectChangeShoppingListsConfigurationAction.svg" xlink:type="simple"><g id="elem_ProjectChangeShoppingListsConfigurationAction"><rect codeLine="59" fill="#F1F1F1" height="72.5938" id="ProjectChangeShoppingListsConfigurationAction" rx="2.5" ry="2.5" style="stroke:#181818;stroke-width:0.5;" width="398" x="2662.5" y="253.4297"/><ellipse cx="2692.35" cy="269.4297" fill="#B4A7E5" rx="11" ry="11" style="stroke:#181818;stroke-width:1.0;"/><path d="M2688.2719,265.1953 L2688.2719,263.0391 L2695.6625,263.0391 L2695.6625,265.1953 L2693.1938,265.1953 L2693.1938,273.2734 L2695.6625,273.2734 L2695.6625,275.4297 L2688.2719,275.4297 L2688.2719,273.2734 L2690.7406,273.2734 L2690.7406,265.1953 L2688.2719,265.1953 Z " fill="#000000"/><text fill="#000000" font-family="sans-serif" font-size="14" font-style="italic" lengthAdjust="spacing" textLength="333" x="2709.65" y="274.2764">ProjectChangeShoppingListsConfigurationAction</text><line style="stroke:#181818;stroke-width:0.5;" x1="2663.5" x2="3059.5" y1="285.4297" y2="285.4297"/><text fill="#000000" font-family="sans-serif" font-size="14" lengthAdjust="spacing" textLength="91" x="2668.5" y="302.4248">action: String</text><text fill="#000000" font-family="sans-serif" font-size="14" lengthAdjust="spacing" textLength="193" x="2668.5" y="318.7217">shoppingListsConfiguration:</text><a href="ShoppingListsConfiguration.svg" target="_top" title="ShoppingListsConfiguration.svg" xlink:actuate="onRequest" xlink:href="ShoppingListsConfiguration.svg" xlink:show="new" xlink:title="ShoppingListsConfiguration.svg" xlink:type="simple"><text fill="#0000FF" font-family="sans-serif" font-size="14" lengthAdjust="spacing" text-decoration="underline" textLength="189" x="2865.5" y="318.7217">ShoppingListsConfiguration</text></a></g></a><!--MD5=[8f8686e415d64508bdddc4ff3eba18de]
class ProjectSetExternalOAuthAction--><a href="ProjectSetExternalOAuthAction.svg" target="_top" title="ProjectSetExternalOAuthAction.svg" xlink:actuate="onRequest" xlink:href="ProjectSetExternalOAuthAction.svg" xlink:show="new" xlink:title="ProjectSetExternalOAuthAction.svg" xlink:type="simple"><g id="elem_ProjectSetExternalOAuthAction"><rect codeLine="63" fill="#F1F1F1" height="72.5938" id="ProjectSetExternalOAuthAction" rx="2.5" ry="2.5" style="stroke:#181818;stroke-width:0.5;" width="246" x="1796.5" y="253.4297"/><ellipse cx="1811.5" cy="269.4297" fill="#B4A7E5" rx="11" ry="11" style="stroke:#181818;stroke-width:1.0;"/><path d="M1807.4219,265.1953 L1807.4219,263.0391 L1814.8125,263.0391 L1814.8125,265.1953 L1812.3438,265.1953 L1812.3438,273.2734 L1814.8125,273.2734 L1814.8125,275.4297 L1807.4219,275.4297 L1807.4219,273.2734 L1809.8906,273.2734 L1809.8906,265.1953 L1807.4219,265.1953 Z " fill="#000000"/><text fill="#000000" font-family="sans-serif" font-size="14" font-style="italic" lengthAdjust="spacing" textLength="214" x="1825.5" y="274.2764">ProjectSetExternalOAuthAction</text><line style="stroke:#181818;stroke-width:0.5;" x1="1797.5" x2="2041.5" y1="285.4297" y2="285.4297"/><text fill="#000000" font-family="sans-serif" font-size="14" lengthAdjust="spacing" textLength="91" x="1802.5" y="302.4248">action: String</text><text fill="#000000" font-family="sans-serif" font-size="14" lengthAdjust="spacing" textLength="103" x="1802.5" y="318.7217">externalOAuth:</text><a href="ExternalOAuth.svg" target="_top" title="ExternalOAuth.svg" xlink:actuate="onRequest" xlink:href="ExternalOAuth.svg" xlink:show="new" xlink:title="ExternalOAuth.svg" xlink:type="simple"><text fill="#0000FF" font-family="sans-serif" font-size="14" lengthAdjust="spacing" text-decoration="underline" textLength="98" x="1909.5" y="318.7217">ExternalOAuth</text></a></g></a><!--MD5=[0e00e2c10d7b33aac82613fcef9fe4d5]
class ProjectSetShippingRateInputTypeAction--><a href="ProjectSetShippingRateInputTypeAction.svg" target="_top" title="ProjectSetShippingRateInputTypeAction.svg" xlink:actuate="onRequest" xlink:href="ProjectSetShippingRateInputTypeAction.svg" xlink:show="new" xlink:title="ProjectSetShippingRateInputTypeAction.svg" xlink:type="simple"><g id="elem_ProjectSetShippingRateInputTypeAction"><rect codeLine="67" fill="#F1F1F1" height="72.5938" id="ProjectSetShippingRateInputTypeAction" rx="2.5" ry="2.5" style="stroke:#181818;stroke-width:0.5;" width="342" x="2300.5" y="253.4297"/><ellipse cx="2330.35" cy="269.4297" fill="#B4A7E5" rx="11" ry="11" style="stroke:#181818;stroke-width:1.0;"/><path d="M2326.2719,265.1953 L2326.2719,263.0391 L2333.6625,263.0391 L2333.6625,265.1953 L2331.1938,265.1953 L2331.1938,273.2734 L2333.6625,273.2734 L2333.6625,275.4297 L2326.2719,275.4297 L2326.2719,273.2734 L2328.7406,273.2734 L2328.7406,265.1953 L2326.2719,265.1953 Z " fill="#000000"/><text fill="#000000" font-family="sans-serif" font-size="14" font-style="italic" lengthAdjust="spacing" textLength="277" x="2347.65" y="274.2764">ProjectSetShippingRateInputTypeAction</text><line style="stroke:#181818;stroke-width:0.5;" x1="2301.5" x2="2641.5" y1="285.4297" y2="285.4297"/><text fill="#000000" font-family="sans-serif" font-size="14" lengthAdjust="spacing" textLength="91" x="2306.5" y="302.4248">action: String</text><text fill="#000000" font-family="sans-serif" font-size="14" lengthAdjust="spacing" textLength="165" x="2306.5" y="318.7217">shippingRateInputType:</text><a href="ShippingRateInputType.svg" target="_top" title="ShippingRateInputType.svg" xlink:actuate="onRequest" xlink:href="ShippingRateInputType.svg" xlink:show="new" xlink:title="ShippingRateInputType.svg" xlink:type="simple"><text fill="#0000FF" font-family="sans-serif" font-size="14" lengthAdjust="spacing" text-decoration="underline" textLength="161" x="2475.5" y="318.7217">ShippingRateInputType</text></a></g></a><!--MD5=[4c50b0b94d1d65780ff5e73f2c9e6416]
class ProjectUpdate--><a href="ProjectUpdate.svg" target="_top" title="ProjectUpdate.svg" xlink:actuate="onRequest" xlink:href="ProjectUpdate.svg" xlink:show="new" xlink:title="ProjectUpdate.svg" xlink:type="simple"><g id="elem_ProjectUpdate"><rect codeLine="71" fill="#F1F1F1" height="72.5938" id="ProjectUpdate" rx="2.5" ry="2.5" style="stroke:#181818;stroke-width:0.5;" width="259" x="4025.5" y="253.4297"/><ellipse cx="4102.25" cy="269.4297" fill="#B4A7E5" rx="11" ry="11" style="stroke:#181818;stroke-width:1.0;"/><path d="M4098.1719,265.1953 L4098.1719,263.0391 L4105.5625,263.0391 L4105.5625,265.1953 L4103.0938,265.1953 L4103.0938,273.2734 L4105.5625,273.2734 L4105.5625,275.4297 L4098.1719,275.4297 L4098.1719,273.2734 L4100.6406,273.2734 L4100.6406,265.1953 L4098.1719,265.1953 Z " fill="#000000"/><text fill="#000000" font-family="sans-serif" font-size="14" font-style="italic" lengthAdjust="spacing" textLength="97" x="4122.75" y="274.2764">ProjectUpdate</text><line style="stroke:#181818;stroke-width:0.5;" x1="4026.5" x2="4283.5" y1="285.4297" y2="285.4297"/><text fill="#000000" font-family="sans-serif" font-size="14" lengthAdjust="spacing" textLength="93" x="4031.5" y="302.4248">version: Long</text><text fill="#000000" font-family="sans-serif" font-size="14" lengthAdjust="spacing" textLength="55" x="4031.5" y="318.7217">actions:</text><a href="ProjectUpdateAction.svg" target="_top" title="ProjectUpdateAction.svg" xlink:actuate="onRequest" xlink:href="ProjectUpdateAction.svg" xlink:show="new" xlink:title="ProjectUpdateAction.svg" xlink:type="simple"><text fill="#0000FF" font-family="sans-serif" font-size="14" lengthAdjust="spacing" text-decoration="underline" textLength="188" x="4090.5" y="318.7217">List&lt;ProjectUpdateAction&gt;</text></a></g></a><line style="stroke:#0000FF;stroke-width:1.0;" x1="313.5625" x2="313.5625" y1="68.2969" y2="88.2969"/><line style="stroke:#0000FF;stroke-width:1.0;" x1="313.5625" x2="4497.5" y1="88.2969" y2="88.2969"/><line style="stroke:#0000FF;stroke-width:1.0;" x1="4497.5" x2="4497.5" y1="88.2969" y2="253.4297"/><polygon fill="#0000FF" points="4497.5,253.4297,4501.5,244.4297,4497.5,248.4297,4493.5,244.4297,4497.5,253.4297" style="stroke:#0000FF;stroke-width:1.0;"/><text fill="#000000" font-family="sans-serif" font-size="13" lengthAdjust="spacing" textLength="313" x="4182.5" y="230.3638">action : changeMyBusinessUnitStatusOnCreation</text><line style="stroke:#0000FF;stroke-width:1.0;" x1="324.375" x2="324.375" y1="68.2969" y2="78.2969"/><line style="stroke:#0000FF;stroke-width:1.0;" x1="324.375" x2="4862.5" y1="78.2969" y2="78.2969"/><line style="stroke:#0000FF;stroke-width:1.0;" x1="4862.5" x2="4862.5" y1="78.2969" y2="253.4297"/><polygon fill="#0000FF" points="4862.5,253.4297,4866.5,244.4297,4862.5,248.4297,4858.5,244.4297,4862.5,253.4297" style="stroke:#0000FF;stroke-width:1.0;"/><text fill="#000000" font-family="sans-serif" font-size="13" lengthAdjust="spacing" textLength="217" x="4643.5" y="230.3638">action : changeCartsConfiguration</text><line style="stroke:#0000FF;stroke-width:1.0;" x1="173" x2="173" y1="68.2969" y2="253.4297"/><polygon fill="#0000FF" points="173,253.4297,177,244.4297,173,248.4297,169,244.4297,173,253.4297" style="stroke:#0000FF;stroke-width:1.0;"/><text fill="#000000" font-family="sans-serif" font-size="13" lengthAdjust="spacing" textLength="159" x="12" y="230.3638">action : changeCountries</text><line style="stroke:#0000FF;stroke-width:1.0;" x1="216.25" x2="216.25" y1="68.2969" y2="178.2969"/><line style="stroke:#0000FF;stroke-width:1.0;" x1="216.25" x2="1576.5" y1="178.2969" y2="178.2969"/><line style="stroke:#0000FF;stroke-width:1.0;" x1="1576.5" x2="1576.5" y1="178.2969" y2="253.4297"/><polygon fill="#0000FF" points="1576.5,253.4297,1580.5,244.4297,1576.5,248.4297,1572.5,244.4297,1576.5,253.4297" style="stroke:#0000FF;stroke-width:1.0;"/><text fill="#000000" font-family="sans-serif" font-size="13" lengthAdjust="spacing" textLength="301" x="1273.5" y="230.3638">action : changeCountryTaxRateFallbackEnabled</text><line style="stroke:#0000FF;stroke-width:1.0;" x1="281.125" x2="281.125" y1="68.2969" y2="118.2969"/><line style="stroke:#0000FF;stroke-width:1.0;" x1="281.125" x2="3607" y1="118.2969" y2="118.2969"/><line style="stroke:#0000FF;stroke-width:1.0;" x1="3607" x2="3607" y1="118.2969" y2="253.4297"/><polygon fill="#0000FF" points="3607,253.4297,3611,244.4297,3607,248.4297,3603,244.4297,3607,253.4297" style="stroke:#0000FF;stroke-width:1.0;"/><text fill="#000000" font-family="sans-serif" font-size="13" lengthAdjust="spacing" textLength="166" x="3439" y="230.3638">action : changeCurrencies</text><line style="stroke:#0000FF;stroke-width:1.0;" x1="291.9375" x2="291.9375" y1="68.2969" y2="108.2969"/><line style="stroke:#0000FF;stroke-width:1.0;" x1="291.9375" x2="3879" y1="108.2969" y2="108.2969"/><line style="stroke:#0000FF;stroke-width:1.0;" x1="3879" x2="3879" y1="108.2969" y2="253.4297"/><polygon fill="#0000FF" points="3879,253.4297,3883,244.4297,3879,248.4297,3875,244.4297,3879,253.4297" style="stroke:#0000FF;stroke-width:1.0;"/><text fill="#000000" font-family="sans-serif" font-size="13" lengthAdjust="spacing" textLength="168" x="3709" y="230.3638">action : changeLanguages</text><line style="stroke:#0000FF;stroke-width:1.0;" x1="270.3125" x2="270.3125" y1="68.2969" y2="128.2969"/><line style="stroke:#0000FF;stroke-width:1.0;" x1="270.3125" x2="3271" y1="128.2969" y2="128.2969"/><line style="stroke:#0000FF;stroke-width:1.0;" x1="3271" x2="3271" y1="128.2969" y2="253.4297"/><polygon fill="#0000FF" points="3271,253.4297,3275,244.4297,3271,248.4297,3267,244.4297,3271,253.4297" style="stroke:#0000FF;stroke-width:1.0;"/><text fill="#000000" font-family="sans-serif" font-size="13" lengthAdjust="spacing" textLength="247" x="3022" y="230.3638">action : changeMessagesConfiguration</text><line style="stroke:#0000FF;stroke-width:1.0;" x1="194.625" x2="194.625" y1="68.2969" y2="198.2969"/><line style="stroke:#0000FF;stroke-width:1.0;" x1="194.625" x2="879" y1="198.2969" y2="198.2969"/><line style="stroke:#0000FF;stroke-width:1.0;" x1="879" x2="879" y1="198.2969" y2="253.4297"/><polygon fill="#0000FF" points="879,253.4297,883,244.4297,879,248.4297,875,244.4297,879,253.4297" style="stroke:#0000FF;stroke-width:1.0;"/><text fill="#000000" font-family="sans-serif" font-size="13" lengthAdjust="spacing" textLength="213" x="664" y="230.3638">action : changeMessagesEnabled</text><line style="stroke:#0000FF;stroke-width:1.0;" x1="237.875" x2="237.875" y1="68.2969" y2="158.2969"/><line style="stroke:#0000FF;stroke-width:1.0;" x1="237.875" x2="2171.5" y1="158.2969" y2="158.2969"/><line style="stroke:#0000FF;stroke-width:1.0;" x1="2171.5" x2="2171.5" y1="158.2969" y2="253.4297"/><polygon fill="#0000FF" points="2171.5,253.4297,2175.5,244.4297,2171.5,248.4297,2167.5,244.4297,2171.5,253.4297" style="stroke:#0000FF;stroke-width:1.0;"/><text fill="#000000" font-family="sans-serif" font-size="13" lengthAdjust="spacing" textLength="137" x="2032.5" y="230.3638">action : changeName</text><line style="stroke:#0000FF;stroke-width:1.0;" x1="205.4375" x2="205.4375" y1="68.2969" y2="188.2969"/><line style="stroke:#0000FF;stroke-width:1.0;" x1="205.4375" x2="1203" y1="188.2969" y2="188.2969"/><line style="stroke:#0000FF;stroke-width:1.0;" x1="1203" x2="1203" y1="188.2969" y2="253.4297"/><polygon fill="#0000FF" points="1203,253.4297,1207,244.4297,1203,248.4297,1199,244.4297,1203,253.4297" style="stroke:#0000FF;stroke-width:1.0;"/><text fill="#000000" font-family="sans-serif" font-size="13" lengthAdjust="spacing" textLength="221" x="980" y="230.3638">action : changeOrderSearchStatus</text><line style="stroke:#0000FF;stroke-width:1.0;" x1="183.8125" x2="183.8125" y1="68.2969" y2="208.2969"/><line style="stroke:#0000FF;stroke-width:1.0;" x1="183.8125" x2="511.5" y1="208.2969" y2="208.2969"/><line style="stroke:#0000FF;stroke-width:1.0;" x1="511.5" x2="511.5" y1="208.2969" y2="253.4297"/><polygon fill="#0000FF" points="511.5,253.4297,515.5,244.4297,511.5,248.4297,507.5,244.4297,511.5,253.4297" style="stroke:#0000FF;stroke-width:1.0;"/><text fill="#000000" font-family="sans-serif" font-size="13" lengthAdjust="spacing" textLength="296" x="213.5" y="230.3638">action : changeProductSearchIndexingEnabled</text><line style="stroke:#0000FF;stroke-width:1.0;" x1="259.5" x2="259.5" y1="68.2969" y2="138.2969"/><line style="stroke:#0000FF;stroke-width:1.0;" x1="259.5" x2="2861.5" y1="138.2969" y2="138.2969"/><line style="stroke:#0000FF;stroke-width:1.0;" x1="2861.5" x2="2861.5" y1="138.2969" y2="253.4297"/><polygon fill="#0000FF" points="2861.5,253.4297,2865.5,244.4297,2861.5,248.4297,2857.5,244.4297,2861.5,253.4297" style="stroke:#0000FF;stroke-width:1.0;"/><text fill="#000000" font-family="sans-serif" font-size="13" lengthAdjust="spacing" textLength="272" x="2587.5" y="230.3638">action : changeShoppingListsConfiguration</text><line style="stroke:#0000FF;stroke-width:1.0;" x1="227.0625" x2="227.0625" y1="68.2969" y2="168.2969"/><line style="stroke:#0000FF;stroke-width:1.0;" x1="227.0625" x2="1919.5" y1="168.2969" y2="168.2969"/><line style="stroke:#0000FF;stroke-width:1.0;" x1="1919.5" x2="1919.5" y1="168.2969" y2="253.4297"/><polygon fill="#0000FF" points="1919.5,253.4297,1923.5,244.4297,1919.5,248.4297,1915.5,244.4297,1919.5,253.4297" style="stroke:#0000FF;stroke-width:1.0;"/><text fill="#000000" font-family="sans-serif" font-size="13" lengthAdjust="spacing" textLength="163" x="1754.5" y="230.3638">action : setExternalOAuth</text><line style="stroke:#0000FF;stroke-width:1.0;" x1="248.6875" x2="248.6875" y1="68.2969" y2="148.2969"/><line style="stroke:#0000FF;stroke-width:1.0;" x1="248.6875" x2="2471.5" y1="148.2969" y2="148.2969"/><line style="stroke:#0000FF;stroke-width:1.0;" x1="2471.5" x2="2471.5" y1="148.2969" y2="253.4297"/><polygon fill="#0000FF" points="2471.5,253.4297,2475.5,244.4297,2471.5,248.4297,2467.5,244.4297,2471.5,253.4297" style="stroke:#0000FF;stroke-width:1.0;"/><text fill="#000000" font-family="sans-serif" font-size="13" lengthAdjust="spacing" textLength="217" x="2252.5" y="230.3638">action : setShippingRateInputType</text><line style="stroke:#008000;stroke-width:1.0;" x1="302.75" x2="302.75" y1="68.2969" y2="98.2969"/><line style="stroke:#008000;stroke-width:1.0;" x1="302.75" x2="4155" y1="98.2969" y2="98.2969"/><line style="stroke:#008000;stroke-width:1.0;" x1="4155" x2="4155" y1="98.2969" y2="253.4297"/><polygon fill="#008000" points="4155,253.4297,4159,244.4297,4155,248.4297,4151,244.4297,4155,253.4297" style="stroke:#008000;stroke-width:1.0;"/><text fill="#000000" font-family="sans-serif" font-size="13" lengthAdjust="spacing" textLength="46" x="4107" y="230.3638">actions</text><rect fill="#DDDDDD" height="79.1875" id="_legend" rx="7.5" ry="7.5" style="stroke:#000000;stroke-width:1.0;" width="161" x="2420.25" y="327.0234"/><text fill="#000000" font-family="sans-serif" font-size="14" font-weight="bold" lengthAdjust="spacing" textLength="5" x="2425.25" y="347.0186"> </text><text fill="#000000" font-family="sans-serif" font-size="14" font-weight="bold" lengthAdjust="spacing" textLength="28" x="2442.25" y="347.0186">line</text><text fill="#000000" filter="url(#b1oyort2w3scgv0)" font-family="sans-serif" font-size="14" lengthAdjust="spacing" textLength="12" x="2425.25" y="363.3154">   </text><text fill="#000000" font-family="sans-serif" font-size="14" lengthAdjust="spacing" textLength="77" x="2441.25" y="363.3154">inheritance</text><text fill="#000000" filter="url(#b1oyort2w3scgv1)" font-family="sans-serif" font-size="14" lengthAdjust="spacing" textLength="12" x="2425.25" y="379.6123">   </text><text fill="#000000" font-family="sans-serif" font-size="14" lengthAdjust="spacing" textLength="129" x="2441.25" y="379.6123">property reference</text><text fill="#000000" filter="url(#b1oyort2w3scgv2)" font-family="sans-serif" font-size="14" lengthAdjust="spacing" textLength="12" x="2425.25" y="395.9092">   </text><text fill="#000000" font-family="sans-serif" font-size="14" lengthAdjust="spacing" textLength="131" x="2441.25" y="395.9092">discriminated class</text><line style="stroke:#000000;stroke-width:1.0;" x1="2425.25" x2="2576.25" y1="334.0234" y2="334.0234"/><line style="stroke:#000000;stroke-width:1.0;" x1="2425.25" x2="2576.25" y1="350.3203" y2="350.3203"/><line style="stroke:#000000;stroke-width:1.0;" x1="2425.25" x2="2576.25" y1="366.6172" y2="366.6172"/><line style="stroke:#000000;stroke-width:1.0;" x1="2425.25" x2="2576.25" y1="382.9141" y2="382.9141"/><line style="stroke:#000000;stroke-width:1.0;" x1="2425.25" x2="2576.25" y1="399.2109" y2="399.2109"/><line style="stroke:#000000;stroke-width:1.0;" x1="2425.25" x2="2425.25" y1="334.0234" y2="399.2109"/><line style="stroke:#000000;stroke-width:1.0;" x1="2437.25" x2="2437.25" y1="334.0234" y2="399.2109"/><line style="stroke:#000000;stroke-width:1.0;" x1="2576.25" x2="2576.25" y1="334.0234" y2="399.2109"/><!--MD5=[d2397487258fe11fb02307cb2fae5f5c]
@startuml
!pragma layout elk
hide empty fields
hide empty methods
legend
|= |= line |
|<back:black>   </back>| inheritance |
|<back:green>   </back>| property reference |
|<back:blue>   </back>| discriminated class |
endlegend
interface ProjectUpdateAction [[ProjectUpdateAction.svg]]  {
    action: String
}


interface ProjectChangeBusinessUnitStatusOnCreationAction [[ProjectChangeBusinessUnitStatusOnCreationAction.svg]]  {
    action: String
    status: [[BusinessUnitConfigurationStatus.svg BusinessUnitConfigurationStatus]]
}
interface ProjectChangeCartsConfigurationAction [[ProjectChangeCartsConfigurationAction.svg]]  {
    action: String
    cartsConfiguration: [[CartsConfiguration.svg CartsConfiguration]]
}
interface ProjectChangeCountriesAction [[ProjectChangeCountriesAction.svg]]  {
    action: String
    countries: [[String.svg List<String>]]
}
interface ProjectChangeCountryTaxRateFallbackEnabledAction [[ProjectChangeCountryTaxRateFallbackEnabledAction.svg]]  {
    action: String
    countryTaxRateFallbackEnabled: Boolean
}
interface ProjectChangeCurrenciesAction [[ProjectChangeCurrenciesAction.svg]]  {
    action: String
    currencies: [[String.svg List<String>]]
}
interface ProjectChangeLanguagesAction [[ProjectChangeLanguagesAction.svg]]  {
    action: String
    languages: [[String.svg List<String>]]
}
interface ProjectChangeMessagesConfigurationAction [[ProjectChangeMessagesConfigurationAction.svg]]  {
    action: String
    messagesConfiguration: [[MessagesConfigurationDraft.svg MessagesConfigurationDraft]]
}
interface ProjectChangeMessagesEnabledAction [[ProjectChangeMessagesEnabledAction.svg]]  {
    action: String
    messagesEnabled: Boolean
}
interface ProjectChangeNameAction [[ProjectChangeNameAction.svg]]  {
    action: String
    name: String
}
interface ProjectChangeOrderSearchStatusAction [[ProjectChangeOrderSearchStatusAction.svg]]  {
    action: String
    status: [[OrderSearchStatus.svg OrderSearchStatus]]
}
interface ProjectChangeProductSearchIndexingEnabledAction [[ProjectChangeProductSearchIndexingEnabledAction.svg]]  {
    action: String
    enabled: Boolean
}
interface ProjectChangeShoppingListsConfigurationAction [[ProjectChangeShoppingListsConfigurationAction.svg]]  {
    action: String
    shoppingListsConfiguration: [[ShoppingListsConfiguration.svg ShoppingListsConfiguration]]
}
interface ProjectSetExternalOAuthAction [[ProjectSetExternalOAuthAction.svg]]  {
    action: String
    externalOAuth: [[ExternalOAuth.svg ExternalOAuth]]
}
interface ProjectSetShippingRateInputTypeAction [[ProjectSetShippingRateInputTypeAction.svg]]  {
    action: String
    shippingRateInputType: [[ShippingRateInputType.svg ShippingRateInputType]]
}
interface ProjectUpdate [[ProjectUpdate.svg]]  {
    version: Long
    actions: [[ProjectUpdateAction.svg List<ProjectUpdateAction>]]
}
ProjectUpdateAction - -> ProjectChangeBusinessUnitStatusOnCreationAction #blue;text:blue : "action : changeMyBusinessUnitStatusOnCreation"
ProjectUpdateAction - -> ProjectChangeCartsConfigurationAction #blue;text:blue : "action : changeCartsConfiguration"
ProjectUpdateAction - -> ProjectChangeCountriesAction #blue;text:blue : "action : changeCountries"
ProjectUpdateAction - -> ProjectChangeCountryTaxRateFallbackEnabledAction #blue;text:blue : "action : changeCountryTaxRateFallbackEnabled"
ProjectUpdateAction - -> ProjectChangeCurrenciesAction #blue;text:blue : "action : changeCurrencies"
ProjectUpdateAction - -> ProjectChangeLanguagesAction #blue;text:blue : "action : changeLanguages"
ProjectUpdateAction - -> ProjectChangeMessagesConfigurationAction #blue;text:blue : "action : changeMessagesConfiguration"
ProjectUpdateAction - -> ProjectChangeMessagesEnabledAction #blue;text:blue : "action : changeMessagesEnabled"
ProjectUpdateAction - -> ProjectChangeNameAction #blue;text:blue : "action : changeName"
ProjectUpdateAction - -> ProjectChangeOrderSearchStatusAction #blue;text:blue : "action : changeOrderSearchStatus"
ProjectUpdateAction - -> ProjectChangeProductSearchIndexingEnabledAction #blue;text:blue : "action : changeProductSearchIndexingEnabled"
ProjectUpdateAction - -> ProjectChangeShoppingListsConfigurationAction #blue;text:blue : "action : changeShoppingListsConfiguration"
ProjectUpdateAction - -> ProjectSetExternalOAuthAction #blue;text:blue : "action : setExternalOAuth"
ProjectUpdateAction - -> ProjectSetShippingRateInputTypeAction #blue;text:blue : "action : setShippingRateInputType"
ProjectUpdateAction - -> ProjectUpdate #green;text:green : "actions"
@enduml

PlantUML version 1.2022.13(Sat Nov 19 13:22:17 UTC 2022)
(GPL source distribution)
Java Runtime: OpenJDK Runtime Environment
JVM: OpenJDK 64-Bit Server VM
Default Encoding: UTF-8
Language: en
Country: null
--></g></svg>
