<?xml version="1.0" encoding="UTF-8" standalone="no"?><svg xmlns="http://www.w3.org/2000/svg" xmlns:xlink="http://www.w3.org/1999/xlink" contentStyleType="text/css" height="352px" preserveAspectRatio="none" style="width:1659px;height:352px;background:#FFFFFF;" version="1.1" viewBox="0 0 1659 352" width="1659px" zoomAndPan="magnify"><defs><filter height="1" id="byi3onk4ku7sl0" width="1" x="0" y="0"><feFlood flood-color="#000000" result="flood"/><feComposite in="SourceGraphic" in2="flood" operator="over"/></filter><filter height="1" id="byi3onk4ku7sl1" width="1" x="0" y="0"><feFlood flood-color="#008000" result="flood"/><feComposite in="SourceGraphic" in2="flood" operator="over"/></filter><filter height="1" id="byi3onk4ku7sl2" width="1" x="0" y="0"><feFlood flood-color="#0000FF" result="flood"/><feComposite in="SourceGraphic" in2="flood" operator="over"/></filter></defs><g><!--MD5=[65dcf0b4e3a4875c5bb5215746dbf573]
class QuoteUpdateAction--><a href="QuoteUpdateAction.svg" target="_top" title="QuoteUpdateAction.svg" xlink:actuate="onRequest" xlink:href="QuoteUpdateAction.svg" xlink:show="new" xlink:title="QuoteUpdateAction.svg" xlink:type="simple"><g id="elem_QuoteUpdateAction"><rect codeLine="10" fill="#F1F1F1" height="56.2969" id="QuoteUpdateAction" rx="2.5" ry="2.5" style="stroke:#181818;stroke-width:0.5;" width="169" x="139.8571" y="12"/><ellipse cx="154.8571" cy="28" fill="#B4A7E5" rx="11" ry="11" style="stroke:#181818;stroke-width:1.0;"/><path d="M150.779,23.7656 L150.779,21.6094 L158.1696,21.6094 L158.1696,23.7656 L155.7009,23.7656 L155.7009,31.8438 L158.1696,31.8438 L158.1696,34 L150.779,34 L150.779,31.8438 L153.2478,31.8438 L153.2478,23.7656 L150.779,23.7656 Z " fill="#000000"/><text fill="#000000" font-family="sans-serif" font-size="14" font-style="italic" lengthAdjust="spacing" textLength="137" x="168.8571" y="32.8467">QuoteUpdateAction</text><line style="stroke:#181818;stroke-width:0.5;" x1="140.8571" x2="307.8571" y1="44" y2="44"/><text fill="#000000" font-family="sans-serif" font-size="14" lengthAdjust="spacing" textLength="91" x="145.8571" y="60.9951">action: String</text></g></a><!--MD5=[a11bab4ee7a4c60a7dda5d0aefd0eca7]
class QuoteChangeQuoteStateAction--><a href="QuoteChangeQuoteStateAction.svg" target="_top" title="QuoteChangeQuoteStateAction.svg" xlink:actuate="onRequest" xlink:href="QuoteChangeQuoteStateAction.svg" xlink:show="new" xlink:title="QuoteChangeQuoteStateAction.svg" xlink:type="simple"><g id="elem_QuoteChangeQuoteStateAction"><rect codeLine="15" fill="#F1F1F1" height="72.5938" id="QuoteChangeQuoteStateAction" rx="2.5" ry="2.5" style="stroke:#181818;stroke-width:0.5;" width="252" x="1063.5" y="163.4297"/><ellipse cx="1078.5" cy="179.4297" fill="#B4A7E5" rx="11" ry="11" style="stroke:#181818;stroke-width:1.0;"/><path d="M1074.4219,175.1953 L1074.4219,173.0391 L1081.8125,173.0391 L1081.8125,175.1953 L1079.3438,175.1953 L1079.3438,183.2734 L1081.8125,183.2734 L1081.8125,185.4297 L1074.4219,185.4297 L1074.4219,183.2734 L1076.8906,183.2734 L1076.8906,175.1953 L1074.4219,175.1953 Z " fill="#000000"/><text fill="#000000" font-family="sans-serif" font-size="14" font-style="italic" lengthAdjust="spacing" textLength="220" x="1092.5" y="184.2764">QuoteChangeQuoteStateAction</text><line style="stroke:#181818;stroke-width:0.5;" x1="1064.5" x2="1314.5" y1="195.4297" y2="195.4297"/><text fill="#000000" font-family="sans-serif" font-size="14" lengthAdjust="spacing" textLength="91" x="1069.5" y="212.4248">action: String</text><text fill="#000000" font-family="sans-serif" font-size="14" lengthAdjust="spacing" textLength="82" x="1069.5" y="228.7217">quoteState:</text><a href="QuoteState.svg" target="_top" title="QuoteState.svg" xlink:actuate="onRequest" xlink:href="QuoteState.svg" xlink:show="new" xlink:title="QuoteState.svg" xlink:type="simple"><text fill="#0000FF" font-family="sans-serif" font-size="14" lengthAdjust="spacing" text-decoration="underline" textLength="79" x="1155.5" y="228.7217">QuoteState</text></a></g></a><!--MD5=[91721a35a0a385c61f5c817e87c9d7ad]
class QuoteRequestQuoteRenegotiationAction--><a href="QuoteRequestQuoteRenegotiationAction.svg" target="_top" title="QuoteRequestQuoteRenegotiationAction.svg" xlink:actuate="onRequest" xlink:href="QuoteRequestQuoteRenegotiationAction.svg" xlink:show="new" xlink:title="QuoteRequestQuoteRenegotiationAction.svg" xlink:type="simple"><g id="elem_QuoteRequestQuoteRenegotiationAction"><rect codeLine="19" fill="#F1F1F1" height="72.5938" id="QuoteRequestQuoteRenegotiationAction" rx="2.5" ry="2.5" style="stroke:#181818;stroke-width:0.5;" width="317" x="1335.5" y="163.4297"/><ellipse cx="1350.5" cy="179.4297" fill="#B4A7E5" rx="11" ry="11" style="stroke:#181818;stroke-width:1.0;"/><path d="M1346.4219,175.1953 L1346.4219,173.0391 L1353.8125,173.0391 L1353.8125,175.1953 L1351.3438,175.1953 L1351.3438,183.2734 L1353.8125,183.2734 L1353.8125,185.4297 L1346.4219,185.4297 L1346.4219,183.2734 L1348.8906,183.2734 L1348.8906,175.1953 L1346.4219,175.1953 Z " fill="#000000"/><text fill="#000000" font-family="sans-serif" font-size="14" font-style="italic" lengthAdjust="spacing" textLength="285" x="1364.5" y="184.2764">QuoteRequestQuoteRenegotiationAction</text><line style="stroke:#181818;stroke-width:0.5;" x1="1336.5" x2="1651.5" y1="195.4297" y2="195.4297"/><text fill="#000000" font-family="sans-serif" font-size="14" lengthAdjust="spacing" textLength="91" x="1341.5" y="212.4248">action: String</text><text fill="#000000" font-family="sans-serif" font-size="14" lengthAdjust="spacing" textLength="156" x="1341.5" y="228.7217">buyerComment: String</text></g></a><!--MD5=[4ed0ccd5b994dbbd9b53a545fc59bdcf]
class QuoteSetCustomFieldAction--><a href="QuoteSetCustomFieldAction.svg" target="_top" title="QuoteSetCustomFieldAction.svg" xlink:actuate="onRequest" xlink:href="QuoteSetCustomFieldAction.svg" xlink:show="new" xlink:title="QuoteSetCustomFieldAction.svg" xlink:type="simple"><g id="elem_QuoteSetCustomFieldAction"><rect codeLine="23" fill="#F1F1F1" height="88.8906" id="QuoteSetCustomFieldAction" rx="2.5" ry="2.5" style="stroke:#181818;stroke-width:0.5;" width="227" x="50.5" y="163.4297"/><ellipse cx="65.5" cy="179.4297" fill="#B4A7E5" rx="11" ry="11" style="stroke:#181818;stroke-width:1.0;"/><path d="M61.4219,175.1953 L61.4219,173.0391 L68.8125,173.0391 L68.8125,175.1953 L66.3438,175.1953 L66.3438,183.2734 L68.8125,183.2734 L68.8125,185.4297 L61.4219,185.4297 L61.4219,183.2734 L63.8906,183.2734 L63.8906,175.1953 L61.4219,175.1953 Z " fill="#000000"/><text fill="#000000" font-family="sans-serif" font-size="14" font-style="italic" lengthAdjust="spacing" textLength="195" x="79.5" y="184.2764">QuoteSetCustomFieldAction</text><line style="stroke:#181818;stroke-width:0.5;" x1="51.5" x2="276.5" y1="195.4297" y2="195.4297"/><text fill="#000000" font-family="sans-serif" font-size="14" lengthAdjust="spacing" textLength="91" x="56.5" y="212.4248">action: String</text><text fill="#000000" font-family="sans-serif" font-size="14" lengthAdjust="spacing" textLength="88" x="56.5" y="228.7217">name: String</text><text fill="#000000" font-family="sans-serif" font-size="14" lengthAdjust="spacing" textLength="41" x="56.5" y="245.0186">value:</text><a href="Object.svg" target="_top" title="Object.svg" xlink:actuate="onRequest" xlink:href="Object.svg" xlink:show="new" xlink:title="Object.svg" xlink:type="simple"><text fill="#0000FF" font-family="sans-serif" font-size="14" lengthAdjust="spacing" text-decoration="underline" textLength="45" x="101.5" y="245.0186">Object</text></a></g></a><!--MD5=[fe476eeb151c10d464e8b5d0df0cf042]
class QuoteSetCustomTypeAction--><a href="QuoteSetCustomTypeAction.svg" target="_top" title="QuoteSetCustomTypeAction.svg" xlink:actuate="onRequest" xlink:href="QuoteSetCustomTypeAction.svg" xlink:show="new" xlink:title="QuoteSetCustomTypeAction.svg" xlink:type="simple"><g id="elem_QuoteSetCustomTypeAction"><rect codeLine="28" fill="#F1F1F1" height="88.8906" id="QuoteSetCustomTypeAction" rx="2.5" ry="2.5" style="stroke:#181818;stroke-width:0.5;" width="230" x="297.5" y="163.4297"/><ellipse cx="312.5" cy="179.4297" fill="#B4A7E5" rx="11" ry="11" style="stroke:#181818;stroke-width:1.0;"/><path d="M308.4219,175.1953 L308.4219,173.0391 L315.8125,173.0391 L315.8125,175.1953 L313.3438,175.1953 L313.3438,183.2734 L315.8125,183.2734 L315.8125,185.4297 L308.4219,185.4297 L308.4219,183.2734 L310.8906,183.2734 L310.8906,175.1953 L308.4219,175.1953 Z " fill="#000000"/><text fill="#000000" font-family="sans-serif" font-size="14" font-style="italic" lengthAdjust="spacing" textLength="198" x="326.5" y="184.2764">QuoteSetCustomTypeAction</text><line style="stroke:#181818;stroke-width:0.5;" x1="298.5" x2="526.5" y1="195.4297" y2="195.4297"/><text fill="#000000" font-family="sans-serif" font-size="14" lengthAdjust="spacing" textLength="91" x="303.5" y="212.4248">action: String</text><text fill="#000000" font-family="sans-serif" font-size="14" lengthAdjust="spacing" textLength="35" x="303.5" y="228.7217">type:</text><a href="TypeResourceIdentifier.svg" target="_top" title="TypeResourceIdentifier.svg" xlink:actuate="onRequest" xlink:href="TypeResourceIdentifier.svg" xlink:show="new" xlink:title="TypeResourceIdentifier.svg" xlink:type="simple"><text fill="#0000FF" font-family="sans-serif" font-size="14" lengthAdjust="spacing" text-decoration="underline" textLength="160" x="342.5" y="228.7217">TypeResourceIdentifier</text></a><text fill="#000000" font-family="sans-serif" font-size="14" lengthAdjust="spacing" textLength="41" x="303.5" y="245.0186">fields:</text><a href="FieldContainer.svg" target="_top" title="FieldContainer.svg" xlink:actuate="onRequest" xlink:href="FieldContainer.svg" xlink:show="new" xlink:title="FieldContainer.svg" xlink:type="simple"><text fill="#0000FF" font-family="sans-serif" font-size="14" lengthAdjust="spacing" text-decoration="underline" textLength="99" x="348.5" y="245.0186">FieldContainer</text></a></g></a><!--MD5=[c0b2d661cb5a949af7034058ebea7d1a]
class QuoteTransitionStateAction--><a href="QuoteTransitionStateAction.svg" target="_top" title="QuoteTransitionStateAction.svg" xlink:actuate="onRequest" xlink:href="QuoteTransitionStateAction.svg" xlink:show="new" xlink:title="QuoteTransitionStateAction.svg" xlink:type="simple"><g id="elem_QuoteTransitionStateAction"><rect codeLine="33" fill="#F1F1F1" height="88.8906" id="QuoteTransitionStateAction" rx="2.5" ry="2.5" style="stroke:#181818;stroke-width:0.5;" width="222" x="547.5" y="163.4297"/><ellipse cx="562.5" cy="179.4297" fill="#B4A7E5" rx="11" ry="11" style="stroke:#181818;stroke-width:1.0;"/><path d="M558.4219,175.1953 L558.4219,173.0391 L565.8125,173.0391 L565.8125,175.1953 L563.3438,175.1953 L563.3438,183.2734 L565.8125,183.2734 L565.8125,185.4297 L558.4219,185.4297 L558.4219,183.2734 L560.8906,183.2734 L560.8906,175.1953 L558.4219,175.1953 Z " fill="#000000"/><text fill="#000000" font-family="sans-serif" font-size="14" font-style="italic" lengthAdjust="spacing" textLength="190" x="576.5" y="184.2764">QuoteTransitionStateAction</text><line style="stroke:#181818;stroke-width:0.5;" x1="548.5" x2="768.5" y1="195.4297" y2="195.4297"/><text fill="#000000" font-family="sans-serif" font-size="14" lengthAdjust="spacing" textLength="91" x="553.5" y="212.4248">action: String</text><text fill="#000000" font-family="sans-serif" font-size="14" lengthAdjust="spacing" textLength="40" x="553.5" y="228.7217">state:</text><a href="StateResourceIdentifier.svg" target="_top" title="StateResourceIdentifier.svg" xlink:actuate="onRequest" xlink:href="StateResourceIdentifier.svg" xlink:show="new" xlink:title="StateResourceIdentifier.svg" xlink:type="simple"><text fill="#0000FF" font-family="sans-serif" font-size="14" lengthAdjust="spacing" text-decoration="underline" textLength="162" x="597.5" y="228.7217">StateResourceIdentifier</text></a><text fill="#000000" font-family="sans-serif" font-size="14" lengthAdjust="spacing" textLength="101" x="553.5" y="245.0186">force: Boolean</text></g></a><!--MD5=[090e0bf40e7522e7492f48c9ea9e6bdc]
class QuoteUpdate--><a href="QuoteUpdate.svg" target="_top" title="QuoteUpdate.svg" xlink:actuate="onRequest" xlink:href="QuoteUpdate.svg" xlink:show="new" xlink:title="QuoteUpdate.svg" xlink:type="simple"><g id="elem_QuoteUpdate"><rect codeLine="38" fill="#F1F1F1" height="72.5938" id="QuoteUpdate" rx="2.5" ry="2.5" style="stroke:#181818;stroke-width:0.5;" width="254" x="789.5" y="163.4297"/><ellipse cx="865.75" cy="179.4297" fill="#B4A7E5" rx="11" ry="11" style="stroke:#181818;stroke-width:1.0;"/><path d="M861.6719,175.1953 L861.6719,173.0391 L869.0625,173.0391 L869.0625,175.1953 L866.5938,175.1953 L866.5938,183.2734 L869.0625,183.2734 L869.0625,185.4297 L861.6719,185.4297 L861.6719,183.2734 L864.1406,183.2734 L864.1406,175.1953 L861.6719,175.1953 Z " fill="#000000"/><text fill="#000000" font-family="sans-serif" font-size="14" font-style="italic" lengthAdjust="spacing" textLength="93" x="886.25" y="184.2764">QuoteUpdate</text><line style="stroke:#181818;stroke-width:0.5;" x1="790.5" x2="1042.5" y1="195.4297" y2="195.4297"/><text fill="#000000" font-family="sans-serif" font-size="14" lengthAdjust="spacing" textLength="93" x="795.5" y="212.4248">version: Long</text><text fill="#000000" font-family="sans-serif" font-size="14" lengthAdjust="spacing" textLength="55" x="795.5" y="228.7217">actions:</text><a href="QuoteUpdateAction.svg" target="_top" title="QuoteUpdateAction.svg" xlink:actuate="onRequest" xlink:href="QuoteUpdateAction.svg" xlink:show="new" xlink:title="QuoteUpdateAction.svg" xlink:type="simple"><text fill="#0000FF" font-family="sans-serif" font-size="14" lengthAdjust="spacing" text-decoration="underline" textLength="183" x="854.5" y="228.7217">List&lt;QuoteUpdateAction&gt;</text></a></g></a><line style="stroke:#0000FF;stroke-width:1.0;" x1="260.5714" x2="260.5714" y1="68.2969" y2="88.2969"/><line style="stroke:#0000FF;stroke-width:1.0;" x1="260.5714" x2="1189.5" y1="88.2969" y2="88.2969"/><line style="stroke:#0000FF;stroke-width:1.0;" x1="1189.5" x2="1189.5" y1="88.2969" y2="163.4297"/><polygon fill="#0000FF" points="1189.5,163.4297,1193.5,154.4297,1189.5,158.4297,1185.5,154.4297,1189.5,163.4297" style="stroke:#0000FF;stroke-width:1.0;"/><text fill="#000000" font-family="sans-serif" font-size="13" lengthAdjust="spacing" textLength="172" x="1015.5" y="140.3638">action : changeQuoteState</text><line style="stroke:#0000FF;stroke-width:1.0;" x1="284.7143" x2="284.7143" y1="68.2969" y2="78.2969"/><line style="stroke:#0000FF;stroke-width:1.0;" x1="284.7143" x2="1494" y1="78.2969" y2="78.2969"/><line style="stroke:#0000FF;stroke-width:1.0;" x1="1494" x2="1494" y1="78.2969" y2="163.4297"/><polygon fill="#0000FF" points="1494,163.4297,1498,154.4297,1494,158.4297,1490,154.4297,1494,163.4297" style="stroke:#0000FF;stroke-width:1.0;"/><text fill="#000000" font-family="sans-serif" font-size="13" lengthAdjust="spacing" textLength="227" x="1265" y="140.3638">action : requestQuoteRenegotiation</text><line style="stroke:#0000FF;stroke-width:1.0;" x1="164" x2="164" y1="68.2969" y2="163.4297"/><polygon fill="#0000FF" points="164,163.4297,168,154.4297,164,158.4297,160,154.4297,164,163.4297" style="stroke:#0000FF;stroke-width:1.0;"/><text fill="#000000" font-family="sans-serif" font-size="13" lengthAdjust="spacing" textLength="150" x="12" y="140.3638">action : setCustomField</text><line style="stroke:#0000FF;stroke-width:1.0;" x1="188.1429" x2="188.1429" y1="68.2969" y2="118.2969"/><line style="stroke:#0000FF;stroke-width:1.0;" x1="188.1429" x2="412.5" y1="118.2969" y2="118.2969"/><line style="stroke:#0000FF;stroke-width:1.0;" x1="412.5" x2="412.5" y1="118.2969" y2="163.4297"/><polygon fill="#0000FF" points="412.5,163.4297,416.5,154.4297,412.5,158.4297,408.5,154.4297,412.5,163.4297" style="stroke:#0000FF;stroke-width:1.0;"/><text fill="#000000" font-family="sans-serif" font-size="13" lengthAdjust="spacing" textLength="151" x="259.5" y="140.3638">action : setCustomType</text><line style="stroke:#0000FF;stroke-width:1.0;" x1="212.2857" x2="212.2857" y1="68.2969" y2="108.2969"/><line style="stroke:#0000FF;stroke-width:1.0;" x1="212.2857" x2="658.5" y1="108.2969" y2="108.2969"/><line style="stroke:#0000FF;stroke-width:1.0;" x1="658.5" x2="658.5" y1="108.2969" y2="163.4297"/><polygon fill="#0000FF" points="658.5,163.4297,662.5,154.4297,658.5,158.4297,654.5,154.4297,658.5,163.4297" style="stroke:#0000FF;stroke-width:1.0;"/><text fill="#000000" font-family="sans-serif" font-size="13" lengthAdjust="spacing" textLength="146" x="510.5" y="140.3638">action : transitionState</text><line style="stroke:#008000;stroke-width:1.0;" x1="236.4286" x2="236.4286" y1="68.2969" y2="98.2969"/><line style="stroke:#008000;stroke-width:1.0;" x1="236.4286" x2="916.5" y1="98.2969" y2="98.2969"/><line style="stroke:#008000;stroke-width:1.0;" x1="916.5" x2="916.5" y1="98.2969" y2="163.4297"/><polygon fill="#008000" points="916.5,163.4297,920.5,154.4297,916.5,158.4297,912.5,154.4297,916.5,163.4297" style="stroke:#008000;stroke-width:1.0;"/><text fill="#000000" font-family="sans-serif" font-size="13" lengthAdjust="spacing" textLength="46" x="868.5" y="140.3638">actions</text><rect fill="#DDDDDD" height="79.1875" id="_legend" rx="7.5" ry="7.5" style="stroke:#000000;stroke-width:1.0;" width="161" x="739.25" y="253.3203"/><text fill="#000000" font-family="sans-serif" font-size="14" font-weight="bold" lengthAdjust="spacing" textLength="5" x="744.25" y="273.3154"> </text><text fill="#000000" font-family="sans-serif" font-size="14" font-weight="bold" lengthAdjust="spacing" textLength="28" x="761.25" y="273.3154">line</text><text fill="#000000" filter="url(#byi3onk4ku7sl0)" font-family="sans-serif" font-size="14" lengthAdjust="spacing" textLength="12" x="744.25" y="289.6123">   </text><text fill="#000000" font-family="sans-serif" font-size="14" lengthAdjust="spacing" textLength="77" x="760.25" y="289.6123">inheritance</text><text fill="#000000" filter="url(#byi3onk4ku7sl1)" font-family="sans-serif" font-size="14" lengthAdjust="spacing" textLength="12" x="744.25" y="305.9092">   </text><text fill="#000000" font-family="sans-serif" font-size="14" lengthAdjust="spacing" textLength="129" x="760.25" y="305.9092">property reference</text><text fill="#000000" filter="url(#byi3onk4ku7sl2)" font-family="sans-serif" font-size="14" lengthAdjust="spacing" textLength="12" x="744.25" y="322.2061">   </text><text fill="#000000" font-family="sans-serif" font-size="14" lengthAdjust="spacing" textLength="131" x="760.25" y="322.2061">discriminated class</text><line style="stroke:#000000;stroke-width:1.0;" x1="744.25" x2="895.25" y1="260.3203" y2="260.3203"/><line style="stroke:#000000;stroke-width:1.0;" x1="744.25" x2="895.25" y1="276.6172" y2="276.6172"/><line style="stroke:#000000;stroke-width:1.0;" x1="744.25" x2="895.25" y1="292.9141" y2="292.9141"/><line style="stroke:#000000;stroke-width:1.0;" x1="744.25" x2="895.25" y1="309.2109" y2="309.2109"/><line style="stroke:#000000;stroke-width:1.0;" x1="744.25" x2="895.25" y1="325.5078" y2="325.5078"/><line style="stroke:#000000;stroke-width:1.0;" x1="744.25" x2="744.25" y1="260.3203" y2="325.5078"/><line style="stroke:#000000;stroke-width:1.0;" x1="756.25" x2="756.25" y1="260.3203" y2="325.5078"/><line style="stroke:#000000;stroke-width:1.0;" x1="895.25" x2="895.25" y1="260.3203" y2="325.5078"/><!--MD5=[4c5864115eb2572ceb348b99df6613fc]
@startuml
!pragma layout elk
hide empty fields
hide empty methods
legend
|= |= line |
|<back:black>   </back>| inheritance |
|<back:green>   </back>| property reference |
|<back:blue>   </back>| discriminated class |
endlegend
interface QuoteUpdateAction [[QuoteUpdateAction.svg]]  {
    action: String
}


interface QuoteChangeQuoteStateAction [[QuoteChangeQuoteStateAction.svg]]  {
    action: String
    quoteState: [[QuoteState.svg QuoteState]]
}
interface QuoteRequestQuoteRenegotiationAction [[QuoteRequestQuoteRenegotiationAction.svg]]  {
    action: String
    buyerComment: String
}
interface QuoteSetCustomFieldAction [[QuoteSetCustomFieldAction.svg]]  {
    action: String
    name: String
    value: [[Object.svg Object]]
}
interface QuoteSetCustomTypeAction [[QuoteSetCustomTypeAction.svg]]  {
    action: String
    type: [[TypeResourceIdentifier.svg TypeResourceIdentifier]]
    fields: [[FieldContainer.svg FieldContainer]]
}
interface QuoteTransitionStateAction [[QuoteTransitionStateAction.svg]]  {
    action: String
    state: [[StateResourceIdentifier.svg StateResourceIdentifier]]
    force: Boolean
}
interface QuoteUpdate [[QuoteUpdate.svg]]  {
    version: Long
    actions: [[QuoteUpdateAction.svg List<QuoteUpdateAction>]]
}
QuoteUpdateAction - -> QuoteChangeQuoteStateAction #blue;text:blue : "action : changeQuoteState"
QuoteUpdateAction - -> QuoteRequestQuoteRenegotiationAction #blue;text:blue : "action : requestQuoteRenegotiation"
QuoteUpdateAction - -> QuoteSetCustomFieldAction #blue;text:blue : "action : setCustomField"
QuoteUpdateAction - -> QuoteSetCustomTypeAction #blue;text:blue : "action : setCustomType"
QuoteUpdateAction - -> QuoteTransitionStateAction #blue;text:blue : "action : transitionState"
QuoteUpdateAction - -> QuoteUpdate #green;text:green : "actions"
@enduml

PlantUML version 1.2022.13(Sat Nov 19 13:22:17 UTC 2022)
(GPL source distribution)
Java Runtime: OpenJDK Runtime Environment
JVM: OpenJDK 64-Bit Server VM
Default Encoding: UTF-8
Language: en
Country: null
--></g></svg>
