<?xml version="1.0" encoding="UTF-8" standalone="no"?><svg xmlns="http://www.w3.org/2000/svg" xmlns:xlink="http://www.w3.org/1999/xlink" contentStyleType="text/css" height="244px" preserveAspectRatio="none" style="width:263px;height:244px;background:#FFFFFF;" version="1.1" viewBox="0 0 263 244" width="263px" zoomAndPan="magnify"><defs><filter height="1" id="bw8yl6w8rbd9c0" width="1" x="0" y="0"><feFlood flood-color="#000000" result="flood"/><feComposite in="SourceGraphic" in2="flood" operator="over"/></filter><filter height="1" id="bw8yl6w8rbd9c1" width="1" x="0" y="0"><feFlood flood-color="#008000" result="flood"/><feComposite in="SourceGraphic" in2="flood" operator="over"/></filter><filter height="1" id="bw8yl6w8rbd9c2" width="1" x="0" y="0"><feFlood flood-color="#0000FF" result="flood"/><feComposite in="SourceGraphic" in2="flood" operator="over"/></filter></defs><g><!--MD5=[dc9033493850f2d79490cb494ebc329e]
class QuoteDeletedMessagePayload--><a href="QuoteDeletedMessagePayload.svg" target="_top" title="QuoteDeletedMessagePayload.svg" xlink:actuate="onRequest" xlink:href="QuoteDeletedMessagePayload.svg" xlink:show="new" xlink:title="QuoteDeletedMessagePayload.svg" xlink:type="simple"><g id="elem_QuoteDeletedMessagePayload"><rect codeLine="10" fill="#F1F1F1" height="56.2969" id="QuoteDeletedMessagePayload" rx="2.5" ry="2.5" style="stroke:#181818;stroke-width:0.5;" width="244" x="12" y="88.2969"/><ellipse cx="27" cy="104.2969" fill="#B4A7E5" rx="11" ry="11" style="stroke:#181818;stroke-width:1.0;"/><path d="M22.9219,100.0625 L22.9219,97.9063 L30.3125,97.9063 L30.3125,100.0625 L27.8438,100.0625 L27.8438,108.1406 L30.3125,108.1406 L30.3125,110.2969 L22.9219,110.2969 L22.9219,108.1406 L25.3906,108.1406 L25.3906,100.0625 L22.9219,100.0625 Z " fill="#000000"/><text fill="#000000" font-family="sans-serif" font-size="14" font-style="italic" lengthAdjust="spacing" textLength="212" x="41" y="109.1436">QuoteDeletedMessagePayload</text><line style="stroke:#181818;stroke-width:0.5;" x1="13" x2="255" y1="120.2969" y2="120.2969"/><text fill="#000000" font-family="sans-serif" font-size="14" lengthAdjust="spacing" textLength="79" x="18" y="137.292">type: String</text></g></a><!--MD5=[bdcbbeb6ff0ef09532e1ab42fdec1480]
class MessagePayload--><a href="MessagePayload.svg" target="_top" title="MessagePayload.svg" xlink:actuate="onRequest" xlink:href="MessagePayload.svg" xlink:show="new" xlink:title="MessagePayload.svg" xlink:type="simple"><g id="elem_MessagePayload"><rect codeLine="13" fill="#F1F1F1" height="56.2969" id="MessagePayload" rx="2.5" ry="2.5" style="stroke:#181818;stroke-width:0.5;" width="146" x="61" y="12"/><ellipse cx="76" cy="28" fill="#B4A7E5" rx="11" ry="11" style="stroke:#181818;stroke-width:1.0;"/><path d="M71.9219,23.7656 L71.9219,21.6094 L79.3125,21.6094 L79.3125,23.7656 L76.8438,23.7656 L76.8438,31.8438 L79.3125,31.8438 L79.3125,34 L71.9219,34 L71.9219,31.8438 L74.3906,31.8438 L74.3906,23.7656 L71.9219,23.7656 Z " fill="#000000"/><text fill="#000000" font-family="sans-serif" font-size="14" font-style="italic" lengthAdjust="spacing" textLength="114" x="90" y="32.8467">MessagePayload</text><line style="stroke:#181818;stroke-width:0.5;" x1="62" x2="206" y1="44" y2="44"/><text fill="#000000" font-family="sans-serif" font-size="14" lengthAdjust="spacing" textLength="79" x="67" y="60.9951">type: String</text></g></a><line style="stroke:#181818;stroke-width:1.0;" x1="134" x2="134" y1="68.2969" y2="88.2969"/><polygon fill="#FFFFFF" points="134,68.2969,127,87.2969,141,87.2969,134,68.2969" style="stroke:#181818;stroke-width:1.0;"/><rect fill="#DDDDDD" height="79.1875" id="_legend" rx="7.5" ry="7.5" style="stroke:#000000;stroke-width:1.0;" width="161" x="41.5" y="145.5938"/><text fill="#000000" font-family="sans-serif" font-size="14" font-weight="bold" lengthAdjust="spacing" textLength="5" x="46.5" y="165.5889"> </text><text fill="#000000" font-family="sans-serif" font-size="14" font-weight="bold" lengthAdjust="spacing" textLength="28" x="63.5" y="165.5889">line</text><text fill="#000000" filter="url(#bw8yl6w8rbd9c0)" font-family="sans-serif" font-size="14" lengthAdjust="spacing" textLength="12" x="46.5" y="181.8857">   </text><text fill="#000000" font-family="sans-serif" font-size="14" lengthAdjust="spacing" textLength="77" x="62.5" y="181.8857">inheritance</text><text fill="#000000" filter="url(#bw8yl6w8rbd9c1)" font-family="sans-serif" font-size="14" lengthAdjust="spacing" textLength="12" x="46.5" y="198.1826">   </text><text fill="#000000" font-family="sans-serif" font-size="14" lengthAdjust="spacing" textLength="129" x="62.5" y="198.1826">property reference</text><text fill="#000000" filter="url(#bw8yl6w8rbd9c2)" font-family="sans-serif" font-size="14" lengthAdjust="spacing" textLength="12" x="46.5" y="214.4795">   </text><text fill="#000000" font-family="sans-serif" font-size="14" lengthAdjust="spacing" textLength="131" x="62.5" y="214.4795">discriminated class</text><line style="stroke:#000000;stroke-width:1.0;" x1="46.5" x2="197.5" y1="152.5938" y2="152.5938"/><line style="stroke:#000000;stroke-width:1.0;" x1="46.5" x2="197.5" y1="168.8906" y2="168.8906"/><line style="stroke:#000000;stroke-width:1.0;" x1="46.5" x2="197.5" y1="185.1875" y2="185.1875"/><line style="stroke:#000000;stroke-width:1.0;" x1="46.5" x2="197.5" y1="201.4844" y2="201.4844"/><line style="stroke:#000000;stroke-width:1.0;" x1="46.5" x2="197.5" y1="217.7813" y2="217.7813"/><line style="stroke:#000000;stroke-width:1.0;" x1="46.5" x2="46.5" y1="152.5938" y2="217.7813"/><line style="stroke:#000000;stroke-width:1.0;" x1="58.5" x2="58.5" y1="152.5938" y2="217.7813"/><line style="stroke:#000000;stroke-width:1.0;" x1="197.5" x2="197.5" y1="152.5938" y2="217.7813"/><!--MD5=[fbeb49a117c9bd4dd9b7ef7849b09145]
@startuml
!pragma layout elk
hide empty fields
hide empty methods
legend
|= |= line |
|<back:black>   </back>| inheritance |
|<back:green>   </back>| property reference |
|<back:blue>   </back>| discriminated class |
endlegend
interface QuoteDeletedMessagePayload [[QuoteDeletedMessagePayload.svg]] extends MessagePayload {
    type: String
}
interface MessagePayload [[MessagePayload.svg]]  {
    type: String
}





@enduml

PlantUML version 1.2022.13(Sat Nov 19 13:22:17 UTC 2022)
(GPL source distribution)
Java Runtime: OpenJDK Runtime Environment
JVM: OpenJDK 64-Bit Server VM
Default Encoding: UTF-8
Language: en
Country: null
--></g></svg>
