<?xml version="1.0" encoding="UTF-8" standalone="no"?><svg xmlns="http://www.w3.org/2000/svg" xmlns:xlink="http://www.w3.org/1999/xlink" contentStyleType="text/css" height="362px" preserveAspectRatio="none" style="width:1992px;height:362px;background:#FFFFFF;" version="1.1" viewBox="0 0 1992 362" width="1992px" zoomAndPan="magnify"><defs><filter height="1" id="b1k3ew5xl1qj3u0" width="1" x="0" y="0"><feFlood flood-color="#000000" result="flood"/><feComposite in="SourceGraphic" in2="flood" operator="over"/></filter><filter height="1" id="b1k3ew5xl1qj3u1" width="1" x="0" y="0"><feFlood flood-color="#008000" result="flood"/><feComposite in="SourceGraphic" in2="flood" operator="over"/></filter><filter height="1" id="b1k3ew5xl1qj3u2" width="1" x="0" y="0"><feFlood flood-color="#0000FF" result="flood"/><feComposite in="SourceGraphic" in2="flood" operator="over"/></filter></defs><g><!--MD5=[65dcf0b4e3a4875c5bb5215746dbf573]
class QuoteUpdateAction--><a href="QuoteUpdateAction.svg" target="_top" title="QuoteUpdateAction.svg" xlink:actuate="onRequest" xlink:href="QuoteUpdateAction.svg" xlink:show="new" xlink:title="QuoteUpdateAction.svg" xlink:type="simple"><g id="elem_QuoteUpdateAction"><rect codeLine="10" fill="#F1F1F1" height="56.2969" id="QuoteUpdateAction" rx="2.5" ry="2.5" style="stroke:#181818;stroke-width:0.5;" width="169" x="219.875" y="12"/><ellipse cx="234.875" cy="28" fill="#B4A7E5" rx="11" ry="11" style="stroke:#181818;stroke-width:1.0;"/><path d="M230.7969,23.7656 L230.7969,21.6094 L238.1875,21.6094 L238.1875,23.7656 L235.7188,23.7656 L235.7188,31.8438 L238.1875,31.8438 L238.1875,34 L230.7969,34 L230.7969,31.8438 L233.2656,31.8438 L233.2656,23.7656 L230.7969,23.7656 Z " fill="#000000"/><text fill="#000000" font-family="sans-serif" font-size="14" font-style="italic" lengthAdjust="spacing" textLength="137" x="248.875" y="32.8467">QuoteUpdateAction</text><line style="stroke:#181818;stroke-width:0.5;" x1="220.875" x2="387.875" y1="44" y2="44"/><text fill="#000000" font-family="sans-serif" font-size="14" lengthAdjust="spacing" textLength="91" x="225.875" y="60.9951">action: String</text></g></a><!--MD5=[0bfe0bed98d3a9b4a3272e3fe2309b06]
class QuoteChangeCustomerAction--><a href="QuoteChangeCustomerAction.svg" target="_top" title="QuoteChangeCustomerAction.svg" xlink:actuate="onRequest" xlink:href="QuoteChangeCustomerAction.svg" xlink:show="new" xlink:title="QuoteChangeCustomerAction.svg" xlink:type="simple"><g id="elem_QuoteChangeCustomerAction"><rect codeLine="15" fill="#F1F1F1" height="72.5938" id="QuoteChangeCustomerAction" rx="2.5" ry="2.5" style="stroke:#181818;stroke-width:0.5;" width="281" x="1432.5" y="173.4297"/><ellipse cx="1465.95" cy="189.4297" fill="#B4A7E5" rx="11" ry="11" style="stroke:#181818;stroke-width:1.0;"/><path d="M1461.8719,185.1953 L1461.8719,183.0391 L1469.2625,183.0391 L1469.2625,185.1953 L1466.7938,185.1953 L1466.7938,193.2734 L1469.2625,193.2734 L1469.2625,195.4297 L1461.8719,195.4297 L1461.8719,193.2734 L1464.3406,193.2734 L1464.3406,185.1953 L1461.8719,185.1953 Z " fill="#000000"/><text fill="#000000" font-family="sans-serif" font-size="14" font-style="italic" lengthAdjust="spacing" textLength="208" x="1484.05" y="194.2764">QuoteChangeCustomerAction</text><line style="stroke:#181818;stroke-width:0.5;" x1="1433.5" x2="1712.5" y1="205.4297" y2="205.4297"/><text fill="#000000" font-family="sans-serif" font-size="14" lengthAdjust="spacing" textLength="91" x="1438.5" y="222.4248">action: String</text><text fill="#000000" font-family="sans-serif" font-size="14" lengthAdjust="spacing" textLength="71" x="1438.5" y="238.7217">customer:</text><a href="CustomerResourceIdentifier.svg" target="_top" title="CustomerResourceIdentifier.svg" xlink:actuate="onRequest" xlink:href="CustomerResourceIdentifier.svg" xlink:show="new" xlink:title="CustomerResourceIdentifier.svg" xlink:type="simple"><text fill="#0000FF" font-family="sans-serif" font-size="14" lengthAdjust="spacing" text-decoration="underline" textLength="194" x="1513.5" y="238.7217">CustomerResourceIdentifier</text></a></g></a><!--MD5=[a11bab4ee7a4c60a7dda5d0aefd0eca7]
class QuoteChangeQuoteStateAction--><a href="QuoteChangeQuoteStateAction.svg" target="_top" title="QuoteChangeQuoteStateAction.svg" xlink:actuate="onRequest" xlink:href="QuoteChangeQuoteStateAction.svg" xlink:show="new" xlink:title="QuoteChangeQuoteStateAction.svg" xlink:type="simple"><g id="elem_QuoteChangeQuoteStateAction"><rect codeLine="19" fill="#F1F1F1" height="72.5938" id="QuoteChangeQuoteStateAction" rx="2.5" ry="2.5" style="stroke:#181818;stroke-width:0.5;" width="252" x="1733.5" y="173.4297"/><ellipse cx="1748.5" cy="189.4297" fill="#B4A7E5" rx="11" ry="11" style="stroke:#181818;stroke-width:1.0;"/><path d="M1744.4219,185.1953 L1744.4219,183.0391 L1751.8125,183.0391 L1751.8125,185.1953 L1749.3438,185.1953 L1749.3438,193.2734 L1751.8125,193.2734 L1751.8125,195.4297 L1744.4219,195.4297 L1744.4219,193.2734 L1746.8906,193.2734 L1746.8906,185.1953 L1744.4219,185.1953 Z " fill="#000000"/><text fill="#000000" font-family="sans-serif" font-size="14" font-style="italic" lengthAdjust="spacing" textLength="220" x="1762.5" y="194.2764">QuoteChangeQuoteStateAction</text><line style="stroke:#181818;stroke-width:0.5;" x1="1734.5" x2="1984.5" y1="205.4297" y2="205.4297"/><text fill="#000000" font-family="sans-serif" font-size="14" lengthAdjust="spacing" textLength="91" x="1739.5" y="222.4248">action: String</text><text fill="#000000" font-family="sans-serif" font-size="14" lengthAdjust="spacing" textLength="82" x="1739.5" y="238.7217">quoteState:</text><a href="QuoteState.svg" target="_top" title="QuoteState.svg" xlink:actuate="onRequest" xlink:href="QuoteState.svg" xlink:show="new" xlink:title="QuoteState.svg" xlink:type="simple"><text fill="#0000FF" font-family="sans-serif" font-size="14" lengthAdjust="spacing" text-decoration="underline" textLength="79" x="1825.5" y="238.7217">QuoteState</text></a></g></a><!--MD5=[91721a35a0a385c61f5c817e87c9d7ad]
class QuoteRequestQuoteRenegotiationAction--><a href="QuoteRequestQuoteRenegotiationAction.svg" target="_top" title="QuoteRequestQuoteRenegotiationAction.svg" xlink:actuate="onRequest" xlink:href="QuoteRequestQuoteRenegotiationAction.svg" xlink:show="new" xlink:title="QuoteRequestQuoteRenegotiationAction.svg" xlink:type="simple"><g id="elem_QuoteRequestQuoteRenegotiationAction"><rect codeLine="23" fill="#F1F1F1" height="72.5938" id="QuoteRequestQuoteRenegotiationAction" rx="2.5" ry="2.5" style="stroke:#181818;stroke-width:0.5;" width="317" x="82.5" y="173.4297"/><ellipse cx="97.5" cy="189.4297" fill="#B4A7E5" rx="11" ry="11" style="stroke:#181818;stroke-width:1.0;"/><path d="M93.4219,185.1953 L93.4219,183.0391 L100.8125,183.0391 L100.8125,185.1953 L98.3438,185.1953 L98.3438,193.2734 L100.8125,193.2734 L100.8125,195.4297 L93.4219,195.4297 L93.4219,193.2734 L95.8906,193.2734 L95.8906,185.1953 L93.4219,185.1953 Z " fill="#000000"/><text fill="#000000" font-family="sans-serif" font-size="14" font-style="italic" lengthAdjust="spacing" textLength="285" x="111.5" y="194.2764">QuoteRequestQuoteRenegotiationAction</text><line style="stroke:#181818;stroke-width:0.5;" x1="83.5" x2="398.5" y1="205.4297" y2="205.4297"/><text fill="#000000" font-family="sans-serif" font-size="14" lengthAdjust="spacing" textLength="91" x="88.5" y="222.4248">action: String</text><text fill="#000000" font-family="sans-serif" font-size="14" lengthAdjust="spacing" textLength="156" x="88.5" y="238.7217">buyerComment: String</text></g></a><!--MD5=[4ed0ccd5b994dbbd9b53a545fc59bdcf]
class QuoteSetCustomFieldAction--><a href="QuoteSetCustomFieldAction.svg" target="_top" title="QuoteSetCustomFieldAction.svg" xlink:actuate="onRequest" xlink:href="QuoteSetCustomFieldAction.svg" xlink:show="new" xlink:title="QuoteSetCustomFieldAction.svg" xlink:type="simple"><g id="elem_QuoteSetCustomFieldAction"><rect codeLine="27" fill="#F1F1F1" height="88.8906" id="QuoteSetCustomFieldAction" rx="2.5" ry="2.5" style="stroke:#181818;stroke-width:0.5;" width="227" x="419.5" y="173.4297"/><ellipse cx="434.5" cy="189.4297" fill="#B4A7E5" rx="11" ry="11" style="stroke:#181818;stroke-width:1.0;"/><path d="M430.4219,185.1953 L430.4219,183.0391 L437.8125,183.0391 L437.8125,185.1953 L435.3438,185.1953 L435.3438,193.2734 L437.8125,193.2734 L437.8125,195.4297 L430.4219,195.4297 L430.4219,193.2734 L432.8906,193.2734 L432.8906,185.1953 L430.4219,185.1953 Z " fill="#000000"/><text fill="#000000" font-family="sans-serif" font-size="14" font-style="italic" lengthAdjust="spacing" textLength="195" x="448.5" y="194.2764">QuoteSetCustomFieldAction</text><line style="stroke:#181818;stroke-width:0.5;" x1="420.5" x2="645.5" y1="205.4297" y2="205.4297"/><text fill="#000000" font-family="sans-serif" font-size="14" lengthAdjust="spacing" textLength="91" x="425.5" y="222.4248">action: String</text><text fill="#000000" font-family="sans-serif" font-size="14" lengthAdjust="spacing" textLength="88" x="425.5" y="238.7217">name: String</text><text fill="#000000" font-family="sans-serif" font-size="14" lengthAdjust="spacing" textLength="41" x="425.5" y="255.0186">value:</text><a href="Object.svg" target="_top" title="Object.svg" xlink:actuate="onRequest" xlink:href="Object.svg" xlink:show="new" xlink:title="Object.svg" xlink:type="simple"><text fill="#0000FF" font-family="sans-serif" font-size="14" lengthAdjust="spacing" text-decoration="underline" textLength="45" x="470.5" y="255.0186">Object</text></a></g></a><!--MD5=[fe476eeb151c10d464e8b5d0df0cf042]
class QuoteSetCustomTypeAction--><a href="QuoteSetCustomTypeAction.svg" target="_top" title="QuoteSetCustomTypeAction.svg" xlink:actuate="onRequest" xlink:href="QuoteSetCustomTypeAction.svg" xlink:show="new" xlink:title="QuoteSetCustomTypeAction.svg" xlink:type="simple"><g id="elem_QuoteSetCustomTypeAction"><rect codeLine="32" fill="#F1F1F1" height="88.8906" id="QuoteSetCustomTypeAction" rx="2.5" ry="2.5" style="stroke:#181818;stroke-width:0.5;" width="230" x="940.5" y="173.4297"/><ellipse cx="955.5" cy="189.4297" fill="#B4A7E5" rx="11" ry="11" style="stroke:#181818;stroke-width:1.0;"/><path d="M951.4219,185.1953 L951.4219,183.0391 L958.8125,183.0391 L958.8125,185.1953 L956.3438,185.1953 L956.3438,193.2734 L958.8125,193.2734 L958.8125,195.4297 L951.4219,195.4297 L951.4219,193.2734 L953.8906,193.2734 L953.8906,185.1953 L951.4219,185.1953 Z " fill="#000000"/><text fill="#000000" font-family="sans-serif" font-size="14" font-style="italic" lengthAdjust="spacing" textLength="198" x="969.5" y="194.2764">QuoteSetCustomTypeAction</text><line style="stroke:#181818;stroke-width:0.5;" x1="941.5" x2="1169.5" y1="205.4297" y2="205.4297"/><text fill="#000000" font-family="sans-serif" font-size="14" lengthAdjust="spacing" textLength="91" x="946.5" y="222.4248">action: String</text><text fill="#000000" font-family="sans-serif" font-size="14" lengthAdjust="spacing" textLength="35" x="946.5" y="238.7217">type:</text><a href="TypeResourceIdentifier.svg" target="_top" title="TypeResourceIdentifier.svg" xlink:actuate="onRequest" xlink:href="TypeResourceIdentifier.svg" xlink:show="new" xlink:title="TypeResourceIdentifier.svg" xlink:type="simple"><text fill="#0000FF" font-family="sans-serif" font-size="14" lengthAdjust="spacing" text-decoration="underline" textLength="160" x="985.5" y="238.7217">TypeResourceIdentifier</text></a><text fill="#000000" font-family="sans-serif" font-size="14" lengthAdjust="spacing" textLength="41" x="946.5" y="255.0186">fields:</text><a href="FieldContainer.svg" target="_top" title="FieldContainer.svg" xlink:actuate="onRequest" xlink:href="FieldContainer.svg" xlink:show="new" xlink:title="FieldContainer.svg" xlink:type="simple"><text fill="#0000FF" font-family="sans-serif" font-size="14" lengthAdjust="spacing" text-decoration="underline" textLength="99" x="991.5" y="255.0186">FieldContainer</text></a></g></a><!--MD5=[c0b2d661cb5a949af7034058ebea7d1a]
class QuoteTransitionStateAction--><a href="QuoteTransitionStateAction.svg" target="_top" title="QuoteTransitionStateAction.svg" xlink:actuate="onRequest" xlink:href="QuoteTransitionStateAction.svg" xlink:show="new" xlink:title="QuoteTransitionStateAction.svg" xlink:type="simple"><g id="elem_QuoteTransitionStateAction"><rect codeLine="37" fill="#F1F1F1" height="88.8906" id="QuoteTransitionStateAction" rx="2.5" ry="2.5" style="stroke:#181818;stroke-width:0.5;" width="222" x="1190.5" y="173.4297"/><ellipse cx="1205.5" cy="189.4297" fill="#B4A7E5" rx="11" ry="11" style="stroke:#181818;stroke-width:1.0;"/><path d="M1201.4219,185.1953 L1201.4219,183.0391 L1208.8125,183.0391 L1208.8125,185.1953 L1206.3438,185.1953 L1206.3438,193.2734 L1208.8125,193.2734 L1208.8125,195.4297 L1201.4219,195.4297 L1201.4219,193.2734 L1203.8906,193.2734 L1203.8906,185.1953 L1201.4219,185.1953 Z " fill="#000000"/><text fill="#000000" font-family="sans-serif" font-size="14" font-style="italic" lengthAdjust="spacing" textLength="190" x="1219.5" y="194.2764">QuoteTransitionStateAction</text><line style="stroke:#181818;stroke-width:0.5;" x1="1191.5" x2="1411.5" y1="205.4297" y2="205.4297"/><text fill="#000000" font-family="sans-serif" font-size="14" lengthAdjust="spacing" textLength="91" x="1196.5" y="222.4248">action: String</text><text fill="#000000" font-family="sans-serif" font-size="14" lengthAdjust="spacing" textLength="40" x="1196.5" y="238.7217">state:</text><a href="StateResourceIdentifier.svg" target="_top" title="StateResourceIdentifier.svg" xlink:actuate="onRequest" xlink:href="StateResourceIdentifier.svg" xlink:show="new" xlink:title="StateResourceIdentifier.svg" xlink:type="simple"><text fill="#0000FF" font-family="sans-serif" font-size="14" lengthAdjust="spacing" text-decoration="underline" textLength="162" x="1240.5" y="238.7217">StateResourceIdentifier</text></a><text fill="#000000" font-family="sans-serif" font-size="14" lengthAdjust="spacing" textLength="101" x="1196.5" y="255.0186">force: Boolean</text></g></a><!--MD5=[090e0bf40e7522e7492f48c9ea9e6bdc]
class QuoteUpdate--><a href="QuoteUpdate.svg" target="_top" title="QuoteUpdate.svg" xlink:actuate="onRequest" xlink:href="QuoteUpdate.svg" xlink:show="new" xlink:title="QuoteUpdate.svg" xlink:type="simple"><g id="elem_QuoteUpdate"><rect codeLine="42" fill="#F1F1F1" height="72.5938" id="QuoteUpdate" rx="2.5" ry="2.5" style="stroke:#181818;stroke-width:0.5;" width="254" x="666.5" y="173.4297"/><ellipse cx="742.75" cy="189.4297" fill="#B4A7E5" rx="11" ry="11" style="stroke:#181818;stroke-width:1.0;"/><path d="M738.6719,185.1953 L738.6719,183.0391 L746.0625,183.0391 L746.0625,185.1953 L743.5938,185.1953 L743.5938,193.2734 L746.0625,193.2734 L746.0625,195.4297 L738.6719,195.4297 L738.6719,193.2734 L741.1406,193.2734 L741.1406,185.1953 L738.6719,185.1953 Z " fill="#000000"/><text fill="#000000" font-family="sans-serif" font-size="14" font-style="italic" lengthAdjust="spacing" textLength="93" x="763.25" y="194.2764">QuoteUpdate</text><line style="stroke:#181818;stroke-width:0.5;" x1="667.5" x2="919.5" y1="205.4297" y2="205.4297"/><text fill="#000000" font-family="sans-serif" font-size="14" lengthAdjust="spacing" textLength="93" x="672.5" y="222.4248">version: Long</text><text fill="#000000" font-family="sans-serif" font-size="14" lengthAdjust="spacing" textLength="55" x="672.5" y="238.7217">actions:</text><a href="QuoteUpdateAction.svg" target="_top" title="QuoteUpdateAction.svg" xlink:actuate="onRequest" xlink:href="QuoteUpdateAction.svg" xlink:show="new" xlink:title="QuoteUpdateAction.svg" xlink:type="simple"><text fill="#0000FF" font-family="sans-serif" font-size="14" lengthAdjust="spacing" text-decoration="underline" textLength="183" x="731.5" y="238.7217">List&lt;QuoteUpdateAction&gt;</text></a></g></a><line style="stroke:#0000FF;stroke-width:1.0;" x1="346.625" x2="346.625" y1="68.2969" y2="88.2969"/><line style="stroke:#0000FF;stroke-width:1.0;" x1="346.625" x2="1573" y1="88.2969" y2="88.2969"/><line style="stroke:#0000FF;stroke-width:1.0;" x1="1573" x2="1573" y1="88.2969" y2="173.4297"/><polygon fill="#0000FF" points="1573,173.4297,1577,164.4297,1573,168.4297,1569,164.4297,1573,173.4297" style="stroke:#0000FF;stroke-width:1.0;"/><text fill="#000000" font-family="sans-serif" font-size="13" lengthAdjust="spacing" textLength="161" x="1410" y="150.3638">action : changeCustomer</text><line style="stroke:#0000FF;stroke-width:1.0;" x1="367.75" x2="367.75" y1="68.2969" y2="78.2969"/><line style="stroke:#0000FF;stroke-width:1.0;" x1="367.75" x2="1859.5" y1="78.2969" y2="78.2969"/><line style="stroke:#0000FF;stroke-width:1.0;" x1="1859.5" x2="1859.5" y1="78.2969" y2="173.4297"/><polygon fill="#0000FF" points="1859.5,173.4297,1863.5,164.4297,1859.5,168.4297,1855.5,164.4297,1859.5,173.4297" style="stroke:#0000FF;stroke-width:1.0;"/><text fill="#000000" font-family="sans-serif" font-size="13" lengthAdjust="spacing" textLength="172" x="1685.5" y="150.3638">action : changeQuoteState</text><line style="stroke:#0000FF;stroke-width:1.0;" x1="241" x2="241" y1="68.2969" y2="173.4297"/><polygon fill="#0000FF" points="241,173.4297,245,164.4297,241,168.4297,237,164.4297,241,173.4297" style="stroke:#0000FF;stroke-width:1.0;"/><text fill="#000000" font-family="sans-serif" font-size="13" lengthAdjust="spacing" textLength="227" x="12" y="150.3638">action : requestQuoteRenegotiation</text><line style="stroke:#0000FF;stroke-width:1.0;" x1="262.125" x2="262.125" y1="68.2969" y2="128.2969"/><line style="stroke:#0000FF;stroke-width:1.0;" x1="262.125" x2="533" y1="128.2969" y2="128.2969"/><line style="stroke:#0000FF;stroke-width:1.0;" x1="533" x2="533" y1="128.2969" y2="173.4297"/><polygon fill="#0000FF" points="533,173.4297,537,164.4297,533,168.4297,529,164.4297,533,173.4297" style="stroke:#0000FF;stroke-width:1.0;"/><text fill="#000000" font-family="sans-serif" font-size="13" lengthAdjust="spacing" textLength="150" x="381" y="150.3638">action : setCustomField</text><line style="stroke:#0000FF;stroke-width:1.0;" x1="304.375" x2="304.375" y1="68.2969" y2="108.2969"/><line style="stroke:#0000FF;stroke-width:1.0;" x1="304.375" x2="1055.5" y1="108.2969" y2="108.2969"/><line style="stroke:#0000FF;stroke-width:1.0;" x1="1055.5" x2="1055.5" y1="108.2969" y2="173.4297"/><polygon fill="#0000FF" points="1055.5,173.4297,1059.5,164.4297,1055.5,168.4297,1051.5,164.4297,1055.5,173.4297" style="stroke:#0000FF;stroke-width:1.0;"/><text fill="#000000" font-family="sans-serif" font-size="13" lengthAdjust="spacing" textLength="151" x="902.5" y="150.3638">action : setCustomType</text><line style="stroke:#0000FF;stroke-width:1.0;" x1="325.5" x2="325.5" y1="68.2969" y2="98.2969"/><line style="stroke:#0000FF;stroke-width:1.0;" x1="325.5" x2="1301.5" y1="98.2969" y2="98.2969"/><line style="stroke:#0000FF;stroke-width:1.0;" x1="1301.5" x2="1301.5" y1="98.2969" y2="173.4297"/><polygon fill="#0000FF" points="1301.5,173.4297,1305.5,164.4297,1301.5,168.4297,1297.5,164.4297,1301.5,173.4297" style="stroke:#0000FF;stroke-width:1.0;"/><text fill="#000000" font-family="sans-serif" font-size="13" lengthAdjust="spacing" textLength="146" x="1153.5" y="150.3638">action : transitionState</text><line style="stroke:#008000;stroke-width:1.0;" x1="283.25" x2="283.25" y1="68.2969" y2="118.2969"/><line style="stroke:#008000;stroke-width:1.0;" x1="283.25" x2="793.5" y1="118.2969" y2="118.2969"/><line style="stroke:#008000;stroke-width:1.0;" x1="793.5" x2="793.5" y1="118.2969" y2="173.4297"/><polygon fill="#008000" points="793.5,173.4297,797.5,164.4297,793.5,168.4297,789.5,164.4297,793.5,173.4297" style="stroke:#008000;stroke-width:1.0;"/><text fill="#000000" font-family="sans-serif" font-size="13" lengthAdjust="spacing" textLength="46" x="745.5" y="150.3638">actions</text><rect fill="#DDDDDD" height="79.1875" id="_legend" rx="7.5" ry="7.5" style="stroke:#000000;stroke-width:1.0;" width="161" x="905.75" y="263.3203"/><text fill="#000000" font-family="sans-serif" font-size="14" font-weight="bold" lengthAdjust="spacing" textLength="5" x="910.75" y="283.3154"> </text><text fill="#000000" font-family="sans-serif" font-size="14" font-weight="bold" lengthAdjust="spacing" textLength="28" x="927.75" y="283.3154">line</text><text fill="#000000" filter="url(#b1k3ew5xl1qj3u0)" font-family="sans-serif" font-size="14" lengthAdjust="spacing" textLength="12" x="910.75" y="299.6123">   </text><text fill="#000000" font-family="sans-serif" font-size="14" lengthAdjust="spacing" textLength="77" x="926.75" y="299.6123">inheritance</text><text fill="#000000" filter="url(#b1k3ew5xl1qj3u1)" font-family="sans-serif" font-size="14" lengthAdjust="spacing" textLength="12" x="910.75" y="315.9092">   </text><text fill="#000000" font-family="sans-serif" font-size="14" lengthAdjust="spacing" textLength="129" x="926.75" y="315.9092">property reference</text><text fill="#000000" filter="url(#b1k3ew5xl1qj3u2)" font-family="sans-serif" font-size="14" lengthAdjust="spacing" textLength="12" x="910.75" y="332.2061">   </text><text fill="#000000" font-family="sans-serif" font-size="14" lengthAdjust="spacing" textLength="131" x="926.75" y="332.2061">discriminated class</text><line style="stroke:#000000;stroke-width:1.0;" x1="910.75" x2="1061.75" y1="270.3203" y2="270.3203"/><line style="stroke:#000000;stroke-width:1.0;" x1="910.75" x2="1061.75" y1="286.6172" y2="286.6172"/><line style="stroke:#000000;stroke-width:1.0;" x1="910.75" x2="1061.75" y1="302.9141" y2="302.9141"/><line style="stroke:#000000;stroke-width:1.0;" x1="910.75" x2="1061.75" y1="319.2109" y2="319.2109"/><line style="stroke:#000000;stroke-width:1.0;" x1="910.75" x2="1061.75" y1="335.5078" y2="335.5078"/><line style="stroke:#000000;stroke-width:1.0;" x1="910.75" x2="910.75" y1="270.3203" y2="335.5078"/><line style="stroke:#000000;stroke-width:1.0;" x1="922.75" x2="922.75" y1="270.3203" y2="335.5078"/><line style="stroke:#000000;stroke-width:1.0;" x1="1061.75" x2="1061.75" y1="270.3203" y2="335.5078"/><!--MD5=[e95d7033d2408826210dbac4124369b2]
@startuml
!pragma layout elk
hide empty fields
hide empty methods
legend
|= |= line |
|<back:black>   </back>| inheritance |
|<back:green>   </back>| property reference |
|<back:blue>   </back>| discriminated class |
endlegend
interface QuoteUpdateAction [[QuoteUpdateAction.svg]]  {
    action: String
}


interface QuoteChangeCustomerAction [[QuoteChangeCustomerAction.svg]]  {
    action: String
    customer: [[CustomerResourceIdentifier.svg CustomerResourceIdentifier]]
}
interface QuoteChangeQuoteStateAction [[QuoteChangeQuoteStateAction.svg]]  {
    action: String
    quoteState: [[QuoteState.svg QuoteState]]
}
interface QuoteRequestQuoteRenegotiationAction [[QuoteRequestQuoteRenegotiationAction.svg]]  {
    action: String
    buyerComment: String
}
interface QuoteSetCustomFieldAction [[QuoteSetCustomFieldAction.svg]]  {
    action: String
    name: String
    value: [[Object.svg Object]]
}
interface QuoteSetCustomTypeAction [[QuoteSetCustomTypeAction.svg]]  {
    action: String
    type: [[TypeResourceIdentifier.svg TypeResourceIdentifier]]
    fields: [[FieldContainer.svg FieldContainer]]
}
interface QuoteTransitionStateAction [[QuoteTransitionStateAction.svg]]  {
    action: String
    state: [[StateResourceIdentifier.svg StateResourceIdentifier]]
    force: Boolean
}
interface QuoteUpdate [[QuoteUpdate.svg]]  {
    version: Long
    actions: [[QuoteUpdateAction.svg List<QuoteUpdateAction>]]
}
QuoteUpdateAction - -> QuoteChangeCustomerAction #blue;text:blue : "action : changeCustomer"
QuoteUpdateAction - -> QuoteChangeQuoteStateAction #blue;text:blue : "action : changeQuoteState"
QuoteUpdateAction - -> QuoteRequestQuoteRenegotiationAction #blue;text:blue : "action : requestQuoteRenegotiation"
QuoteUpdateAction - -> QuoteSetCustomFieldAction #blue;text:blue : "action : setCustomField"
QuoteUpdateAction - -> QuoteSetCustomTypeAction #blue;text:blue : "action : setCustomType"
QuoteUpdateAction - -> QuoteTransitionStateAction #blue;text:blue : "action : transitionState"
QuoteUpdateAction - -> QuoteUpdate #green;text:green : "actions"
@enduml

PlantUML version 1.2022.13(Sat Nov 19 13:22:17 UTC 2022)
(GPL source distribution)
Java Runtime: OpenJDK Runtime Environment
JVM: OpenJDK 64-Bit Server VM
Default Encoding: UTF-8
Language: en
Country: null
--></g></svg>
