<?xml version="1.0" encoding="UTF-8" standalone="no"?><svg xmlns="http://www.w3.org/2000/svg" xmlns:xlink="http://www.w3.org/1999/xlink" contentStyleType="text/css" height="261px" preserveAspectRatio="none" style="width:226px;height:261px;background:#FFFFFF;" version="1.1" viewBox="0 0 226 261" width="226px" zoomAndPan="magnify"><defs><filter height="1" id="b1jdnhx0ham4ud0" width="1" x="0" y="0"><feFlood flood-color="#000000" result="flood"/><feComposite in="SourceGraphic" in2="flood" operator="over"/></filter><filter height="1" id="b1jdnhx0ham4ud1" width="1" x="0" y="0"><feFlood flood-color="#008000" result="flood"/><feComposite in="SourceGraphic" in2="flood" operator="over"/></filter><filter height="1" id="b1jdnhx0ham4ud2" width="1" x="0" y="0"><feFlood flood-color="#0000FF" result="flood"/><feComposite in="SourceGraphic" in2="flood" operator="over"/></filter></defs><g><!--MD5=[70315896c08610a51c8fa93e61799f10]
class RecurringOrderActive--><a href="RecurringOrderActive.svg" target="_top" title="RecurringOrderActive.svg" xlink:actuate="onRequest" xlink:href="RecurringOrderActive.svg" xlink:show="new" xlink:title="RecurringOrderActive.svg" xlink:type="simple"><g id="elem_RecurringOrderActive"><rect codeLine="10" fill="#F1F1F1" height="72.5938" id="RecurringOrderActive" rx="2.5" ry="2.5" style="stroke:#181818;stroke-width:0.5;" width="181" x="25" y="88.2969"/><ellipse cx="40" cy="104.2969" fill="#B4A7E5" rx="11" ry="11" style="stroke:#181818;stroke-width:1.0;"/><path d="M35.9219,100.0625 L35.9219,97.9063 L43.3125,97.9063 L43.3125,100.0625 L40.8438,100.0625 L40.8438,108.1406 L43.3125,108.1406 L43.3125,110.2969 L35.9219,110.2969 L35.9219,108.1406 L38.3906,108.1406 L38.3906,100.0625 L35.9219,100.0625 Z " fill="#000000"/><text fill="#000000" font-family="sans-serif" font-size="14" font-style="italic" lengthAdjust="spacing" textLength="149" x="54" y="109.1436">RecurringOrderActive</text><line style="stroke:#181818;stroke-width:0.5;" x1="26" x2="205" y1="120.2969" y2="120.2969"/><text fill="#000000" font-family="sans-serif" font-size="14" lengthAdjust="spacing" textLength="79" x="31" y="137.292">type: String</text><text fill="#000000" font-family="sans-serif" font-size="14" lengthAdjust="spacing" textLength="151" x="31" y="153.5889">resumesAt: DateTime</text></g></a><!--MD5=[93ba6ab2db18601f8f8f4ddf9b98c993]
class RecurringOrderStateDraft--><a href="RecurringOrderStateDraft.svg" target="_top" title="RecurringOrderStateDraft.svg" xlink:actuate="onRequest" xlink:href="RecurringOrderStateDraft.svg" xlink:show="new" xlink:title="RecurringOrderStateDraft.svg" xlink:type="simple"><g id="elem_RecurringOrderStateDraft"><rect codeLine="14" fill="#F1F1F1" height="56.2969" id="RecurringOrderStateDraft" rx="2.5" ry="2.5" style="stroke:#181818;stroke-width:0.5;" width="207" x="12" y="12"/><ellipse cx="27" cy="28" fill="#B4A7E5" rx="11" ry="11" style="stroke:#181818;stroke-width:1.0;"/><path d="M22.9219,23.7656 L22.9219,21.6094 L30.3125,21.6094 L30.3125,23.7656 L27.8438,23.7656 L27.8438,31.8438 L30.3125,31.8438 L30.3125,34 L22.9219,34 L22.9219,31.8438 L25.3906,31.8438 L25.3906,23.7656 L22.9219,23.7656 Z " fill="#000000"/><text fill="#000000" font-family="sans-serif" font-size="14" font-style="italic" lengthAdjust="spacing" textLength="175" x="41" y="32.8467">RecurringOrderStateDraft</text><line style="stroke:#181818;stroke-width:0.5;" x1="13" x2="218" y1="44" y2="44"/><text fill="#000000" font-family="sans-serif" font-size="14" lengthAdjust="spacing" textLength="79" x="18" y="60.9951">type: String</text></g></a><line style="stroke:#181818;stroke-width:1.0;" x1="115.5" x2="115.5" y1="68.2969" y2="88.2969"/><polygon fill="#FFFFFF" points="115.5,68.2969,108.5,87.2969,122.5,87.2969,115.5,68.2969" style="stroke:#181818;stroke-width:1.0;"/><rect fill="#DDDDDD" height="79.1875" id="_legend" rx="7.5" ry="7.5" style="stroke:#000000;stroke-width:1.0;" width="161" x="23" y="161.8906"/><text fill="#000000" font-family="sans-serif" font-size="14" font-weight="bold" lengthAdjust="spacing" textLength="5" x="28" y="181.8857"> </text><text fill="#000000" font-family="sans-serif" font-size="14" font-weight="bold" lengthAdjust="spacing" textLength="28" x="45" y="181.8857">line</text><text fill="#000000" filter="url(#b1jdnhx0ham4ud0)" font-family="sans-serif" font-size="14" lengthAdjust="spacing" textLength="12" x="28" y="198.1826">   </text><text fill="#000000" font-family="sans-serif" font-size="14" lengthAdjust="spacing" textLength="77" x="44" y="198.1826">inheritance</text><text fill="#000000" filter="url(#b1jdnhx0ham4ud1)" font-family="sans-serif" font-size="14" lengthAdjust="spacing" textLength="12" x="28" y="214.4795">   </text><text fill="#000000" font-family="sans-serif" font-size="14" lengthAdjust="spacing" textLength="129" x="44" y="214.4795">property reference</text><text fill="#000000" filter="url(#b1jdnhx0ham4ud2)" font-family="sans-serif" font-size="14" lengthAdjust="spacing" textLength="12" x="28" y="230.7764">   </text><text fill="#000000" font-family="sans-serif" font-size="14" lengthAdjust="spacing" textLength="131" x="44" y="230.7764">discriminated class</text><line style="stroke:#000000;stroke-width:1.0;" x1="28" x2="179" y1="168.8906" y2="168.8906"/><line style="stroke:#000000;stroke-width:1.0;" x1="28" x2="179" y1="185.1875" y2="185.1875"/><line style="stroke:#000000;stroke-width:1.0;" x1="28" x2="179" y1="201.4844" y2="201.4844"/><line style="stroke:#000000;stroke-width:1.0;" x1="28" x2="179" y1="217.7813" y2="217.7813"/><line style="stroke:#000000;stroke-width:1.0;" x1="28" x2="179" y1="234.0781" y2="234.0781"/><line style="stroke:#000000;stroke-width:1.0;" x1="28" x2="28" y1="168.8906" y2="234.0781"/><line style="stroke:#000000;stroke-width:1.0;" x1="40" x2="40" y1="168.8906" y2="234.0781"/><line style="stroke:#000000;stroke-width:1.0;" x1="179" x2="179" y1="168.8906" y2="234.0781"/><!--MD5=[1a4c3b71c2071e0be286920031a1f27f]
@startuml
!pragma layout elk
hide empty fields
hide empty methods
legend
|= |= line |
|<back:black>   </back>| inheritance |
|<back:green>   </back>| property reference |
|<back:blue>   </back>| discriminated class |
endlegend
interface RecurringOrderActive [[RecurringOrderActive.svg]] extends RecurringOrderStateDraft {
    type: String
    resumesAt: DateTime
}
interface RecurringOrderStateDraft [[RecurringOrderStateDraft.svg]]  {
    type: String
}





@enduml

PlantUML version 1.2022.13(Sat Nov 19 13:22:17 UTC 2022)
(GPL source distribution)
Java Runtime: OpenJDK Runtime Environment
JVM: OpenJDK 64-Bit Server VM
Default Encoding: UTF-8
Language: en
Country: null
--></g></svg>
