<?xml version="1.0" encoding="UTF-8" standalone="no"?><svg xmlns="http://www.w3.org/2000/svg" xmlns:xlink="http://www.w3.org/1999/xlink" contentStyleType="text/css" height="326px" preserveAspectRatio="none" style="width:1535px;height:326px;background:#FFFFFF;" version="1.1" viewBox="0 0 1535 326" width="1535px" zoomAndPan="magnify"><defs><filter height="1" id="b1uhhb9acy6f2x0" width="1" x="0" y="0"><feFlood flood-color="#000000" result="flood"/><feComposite in="SourceGraphic" in2="flood" operator="over"/></filter><filter height="1" id="b1uhhb9acy6f2x1" width="1" x="0" y="0"><feFlood flood-color="#008000" result="flood"/><feComposite in="SourceGraphic" in2="flood" operator="over"/></filter><filter height="1" id="b1uhhb9acy6f2x2" width="1" x="0" y="0"><feFlood flood-color="#0000FF" result="flood"/><feComposite in="SourceGraphic" in2="flood" operator="over"/></filter></defs><g><!--MD5=[bc046ee159f44fdb270f208c7b41581c]
class RecurrencePolicyUpdateAction--><a href="RecurrencePolicyUpdateAction.svg" target="_top" title="RecurrencePolicyUpdateAction.svg" xlink:actuate="onRequest" xlink:href="RecurrencePolicyUpdateAction.svg" xlink:show="new" xlink:title="RecurrencePolicyUpdateAction.svg" xlink:type="simple"><g id="elem_RecurrencePolicyUpdateAction"><rect codeLine="10" fill="#F1F1F1" height="56.2969" id="RecurrencePolicyUpdateAction" rx="2.5" ry="2.5" style="stroke:#181818;stroke-width:0.5;" width="246" x="101" y="12"/><ellipse cx="116" cy="28" fill="#B4A7E5" rx="11" ry="11" style="stroke:#181818;stroke-width:1.0;"/><path d="M111.9219,23.7656 L111.9219,21.6094 L119.3125,21.6094 L119.3125,23.7656 L116.8438,23.7656 L116.8438,31.8438 L119.3125,31.8438 L119.3125,34 L111.9219,34 L111.9219,31.8438 L114.3906,31.8438 L114.3906,23.7656 L111.9219,23.7656 Z " fill="#000000"/><text fill="#000000" font-family="sans-serif" font-size="14" font-style="italic" lengthAdjust="spacing" textLength="214" x="130" y="32.8467">RecurrencePolicyUpdateAction</text><line style="stroke:#181818;stroke-width:0.5;" x1="102" x2="346" y1="44" y2="44"/><text fill="#000000" font-family="sans-serif" font-size="14" lengthAdjust="spacing" textLength="91" x="107" y="60.9951">action: String</text></g></a><!--MD5=[aacf0eb7b930d30ee9cc0f9e74deb90c]
class RecurrencePolicySetDescriptionAction--><a href="RecurrencePolicySetDescriptionAction.svg" target="_top" title="RecurrencePolicySetDescriptionAction.svg" xlink:actuate="onRequest" xlink:href="RecurrencePolicySetDescriptionAction.svg" xlink:show="new" xlink:title="RecurrencePolicySetDescriptionAction.svg" xlink:type="simple"><g id="elem_RecurrencePolicySetDescriptionAction"><rect codeLine="15" fill="#F1F1F1" height="72.5938" id="RecurrencePolicySetDescriptionAction" rx="2.5" ry="2.5" style="stroke:#181818;stroke-width:0.5;" width="297" x="966" y="153.4297"/><ellipse cx="981" cy="169.4297" fill="#B4A7E5" rx="11" ry="11" style="stroke:#181818;stroke-width:1.0;"/><path d="M976.9219,165.1953 L976.9219,163.0391 L984.3125,163.0391 L984.3125,165.1953 L981.8438,165.1953 L981.8438,173.2734 L984.3125,173.2734 L984.3125,175.4297 L976.9219,175.4297 L976.9219,173.2734 L979.3906,173.2734 L979.3906,165.1953 L976.9219,165.1953 Z " fill="#000000"/><text fill="#000000" font-family="sans-serif" font-size="14" font-style="italic" lengthAdjust="spacing" textLength="265" x="995" y="174.2764">RecurrencePolicySetDescriptionAction</text><line style="stroke:#181818;stroke-width:0.5;" x1="967" x2="1262" y1="185.4297" y2="185.4297"/><text fill="#000000" font-family="sans-serif" font-size="14" lengthAdjust="spacing" textLength="91" x="972" y="202.4248">action: String</text><text fill="#000000" font-family="sans-serif" font-size="14" lengthAdjust="spacing" textLength="82" x="972" y="218.7217">description:</text><a href="LocalizedString.svg" target="_top" title="LocalizedString.svg" xlink:actuate="onRequest" xlink:href="LocalizedString.svg" xlink:show="new" xlink:title="LocalizedString.svg" xlink:type="simple"><text fill="#0000FF" font-family="sans-serif" font-size="14" lengthAdjust="spacing" text-decoration="underline" textLength="104" x="1058" y="218.7217">LocalizedString</text></a></g></a><!--MD5=[2e4997446ae3e0ed5c76b47c2d1fab26]
class RecurrencePolicySetKeyAction--><a href="RecurrencePolicySetKeyAction.svg" target="_top" title="RecurrencePolicySetKeyAction.svg" xlink:actuate="onRequest" xlink:href="RecurrencePolicySetKeyAction.svg" xlink:show="new" xlink:title="RecurrencePolicySetKeyAction.svg" xlink:type="simple"><g id="elem_RecurrencePolicySetKeyAction"><rect codeLine="19" fill="#F1F1F1" height="72.5938" id="RecurrencePolicySetKeyAction" rx="2.5" ry="2.5" style="stroke:#181818;stroke-width:0.5;" width="245" x="1283" y="153.4297"/><ellipse cx="1298" cy="169.4297" fill="#B4A7E5" rx="11" ry="11" style="stroke:#181818;stroke-width:1.0;"/><path d="M1293.9219,165.1953 L1293.9219,163.0391 L1301.3125,163.0391 L1301.3125,165.1953 L1298.8438,165.1953 L1298.8438,173.2734 L1301.3125,173.2734 L1301.3125,175.4297 L1293.9219,175.4297 L1293.9219,173.2734 L1296.3906,173.2734 L1296.3906,165.1953 L1293.9219,165.1953 Z " fill="#000000"/><text fill="#000000" font-family="sans-serif" font-size="14" font-style="italic" lengthAdjust="spacing" textLength="213" x="1312" y="174.2764">RecurrencePolicySetKeyAction</text><line style="stroke:#181818;stroke-width:0.5;" x1="1284" x2="1527" y1="185.4297" y2="185.4297"/><text fill="#000000" font-family="sans-serif" font-size="14" lengthAdjust="spacing" textLength="91" x="1289" y="202.4248">action: String</text><text fill="#000000" font-family="sans-serif" font-size="14" lengthAdjust="spacing" textLength="73" x="1289" y="218.7217">key: String</text></g></a><!--MD5=[47b09c8aa5f772bdd338d7e0c408e5d5]
class RecurrencePolicySetNameAction--><a href="RecurrencePolicySetNameAction.svg" target="_top" title="RecurrencePolicySetNameAction.svg" xlink:actuate="onRequest" xlink:href="RecurrencePolicySetNameAction.svg" xlink:show="new" xlink:title="RecurrencePolicySetNameAction.svg" xlink:type="simple"><g id="elem_RecurrencePolicySetNameAction"><rect codeLine="23" fill="#F1F1F1" height="72.5938" id="RecurrencePolicySetNameAction" rx="2.5" ry="2.5" style="stroke:#181818;stroke-width:0.5;" width="260" x="12" y="153.4297"/><ellipse cx="27" cy="169.4297" fill="#B4A7E5" rx="11" ry="11" style="stroke:#181818;stroke-width:1.0;"/><path d="M22.9219,165.1953 L22.9219,163.0391 L30.3125,163.0391 L30.3125,165.1953 L27.8438,165.1953 L27.8438,173.2734 L30.3125,173.2734 L30.3125,175.4297 L22.9219,175.4297 L22.9219,173.2734 L25.3906,173.2734 L25.3906,165.1953 L22.9219,165.1953 Z " fill="#000000"/><text fill="#000000" font-family="sans-serif" font-size="14" font-style="italic" lengthAdjust="spacing" textLength="228" x="41" y="174.2764">RecurrencePolicySetNameAction</text><line style="stroke:#181818;stroke-width:0.5;" x1="13" x2="271" y1="185.4297" y2="185.4297"/><text fill="#000000" font-family="sans-serif" font-size="14" lengthAdjust="spacing" textLength="91" x="18" y="202.4248">action: String</text><text fill="#000000" font-family="sans-serif" font-size="14" lengthAdjust="spacing" textLength="44" x="18" y="218.7217">name:</text><a href="LocalizedString.svg" target="_top" title="LocalizedString.svg" xlink:actuate="onRequest" xlink:href="LocalizedString.svg" xlink:show="new" xlink:title="LocalizedString.svg" xlink:type="simple"><text fill="#0000FF" font-family="sans-serif" font-size="14" lengthAdjust="spacing" text-decoration="underline" textLength="104" x="66" y="218.7217">LocalizedString</text></a></g></a><!--MD5=[07918e9eec47d0f307349dfc60e2093b]
class RecurrencePolicySetScheduleAction--><a href="RecurrencePolicySetScheduleAction.svg" target="_top" title="RecurrencePolicySetScheduleAction.svg" xlink:actuate="onRequest" xlink:href="RecurrencePolicySetScheduleAction.svg" xlink:show="new" xlink:title="RecurrencePolicySetScheduleAction.svg" xlink:type="simple"><g id="elem_RecurrencePolicySetScheduleAction"><rect codeLine="27" fill="#F1F1F1" height="72.5938" id="RecurrencePolicySetScheduleAction" rx="2.5" ry="2.5" style="stroke:#181818;stroke-width:0.5;" width="303" x="292" y="153.4297"/><ellipse cx="315.55" cy="169.4297" fill="#B4A7E5" rx="11" ry="11" style="stroke:#181818;stroke-width:1.0;"/><path d="M311.4719,165.1953 L311.4719,163.0391 L318.8625,163.0391 L318.8625,165.1953 L316.3938,165.1953 L316.3938,173.2734 L318.8625,173.2734 L318.8625,175.4297 L311.4719,175.4297 L311.4719,173.2734 L313.9406,173.2734 L313.9406,165.1953 L311.4719,165.1953 Z " fill="#000000"/><text fill="#000000" font-family="sans-serif" font-size="14" font-style="italic" lengthAdjust="spacing" textLength="252" x="331.45" y="174.2764">RecurrencePolicySetScheduleAction</text><line style="stroke:#181818;stroke-width:0.5;" x1="293" x2="594" y1="185.4297" y2="185.4297"/><text fill="#000000" font-family="sans-serif" font-size="14" lengthAdjust="spacing" textLength="91" x="298" y="202.4248">action: String</text><text fill="#000000" font-family="sans-serif" font-size="14" lengthAdjust="spacing" textLength="69" x="298" y="218.7217">schedule:</text><a href="RecurrencePolicyScheduleDraft.svg" target="_top" title="RecurrencePolicyScheduleDraft.svg" xlink:actuate="onRequest" xlink:href="RecurrencePolicyScheduleDraft.svg" xlink:show="new" xlink:title="RecurrencePolicyScheduleDraft.svg" xlink:type="simple"><text fill="#0000FF" font-family="sans-serif" font-size="14" lengthAdjust="spacing" text-decoration="underline" textLength="218" x="371" y="218.7217">RecurrencePolicyScheduleDraft</text></a></g></a><!--MD5=[4e86cebd7e245fa848331e7fe26d9f60]
class RecurrencePolicyUpdate--><a href="RecurrencePolicyUpdate.svg" target="_top" title="RecurrencePolicyUpdate.svg" xlink:actuate="onRequest" xlink:href="RecurrencePolicyUpdate.svg" xlink:show="new" xlink:title="RecurrencePolicyUpdate.svg" xlink:type="simple"><g id="elem_RecurrencePolicyUpdate"><rect codeLine="31" fill="#F1F1F1" height="72.5938" id="RecurrencePolicyUpdate" rx="2.5" ry="2.5" style="stroke:#181818;stroke-width:0.5;" width="331" x="615" y="153.4297"/><ellipse cx="691.25" cy="169.4297" fill="#B4A7E5" rx="11" ry="11" style="stroke:#181818;stroke-width:1.0;"/><path d="M687.1719,165.1953 L687.1719,163.0391 L694.5625,163.0391 L694.5625,165.1953 L692.0938,165.1953 L692.0938,173.2734 L694.5625,173.2734 L694.5625,175.4297 L687.1719,175.4297 L687.1719,173.2734 L689.6406,173.2734 L689.6406,165.1953 L687.1719,165.1953 Z " fill="#000000"/><text fill="#000000" font-family="sans-serif" font-size="14" font-style="italic" lengthAdjust="spacing" textLength="170" x="711.75" y="174.2764">RecurrencePolicyUpdate</text><line style="stroke:#181818;stroke-width:0.5;" x1="616" x2="945" y1="185.4297" y2="185.4297"/><text fill="#000000" font-family="sans-serif" font-size="14" lengthAdjust="spacing" textLength="93" x="621" y="202.4248">version: Long</text><text fill="#000000" font-family="sans-serif" font-size="14" lengthAdjust="spacing" textLength="55" x="621" y="218.7217">actions:</text><a href="RecurrencePolicyUpdateAction.svg" target="_top" title="RecurrencePolicyUpdateAction.svg" xlink:actuate="onRequest" xlink:href="RecurrencePolicyUpdateAction.svg" xlink:show="new" xlink:title="RecurrencePolicyUpdateAction.svg" xlink:type="simple"><text fill="#0000FF" font-family="sans-serif" font-size="14" lengthAdjust="spacing" text-decoration="underline" textLength="260" x="680" y="218.7217">List&lt;RecurrencePolicyUpdateAction&gt;</text></a></g></a><line style="stroke:#0000FF;stroke-width:1.0;" x1="265" x2="265" y1="68.2969" y2="88.2969"/><line style="stroke:#0000FF;stroke-width:1.0;" x1="265" x2="1114.5" y1="88.2969" y2="88.2969"/><line style="stroke:#0000FF;stroke-width:1.0;" x1="1114.5" x2="1114.5" y1="88.2969" y2="153.4297"/><polygon fill="#0000FF" points="1114.5,153.4297,1118.5,144.4297,1114.5,148.4297,1110.5,144.4297,1114.5,153.4297" style="stroke:#0000FF;stroke-width:1.0;"/><text fill="#000000" font-family="sans-serif" font-size="13" lengthAdjust="spacing" textLength="143" x="969.5" y="130.3638">action : setDescription</text><line style="stroke:#0000FF;stroke-width:1.0;" x1="306" x2="306" y1="68.2969" y2="78.2969"/><line style="stroke:#0000FF;stroke-width:1.0;" x1="306" x2="1405.5" y1="78.2969" y2="78.2969"/><line style="stroke:#0000FF;stroke-width:1.0;" x1="1405.5" x2="1405.5" y1="78.2969" y2="153.4297"/><polygon fill="#0000FF" points="1405.5,153.4297,1409.5,144.4297,1405.5,148.4297,1401.5,144.4297,1405.5,153.4297" style="stroke:#0000FF;stroke-width:1.0;"/><text fill="#000000" font-family="sans-serif" font-size="13" lengthAdjust="spacing" textLength="94" x="1309.5" y="130.3638">action : setKey</text><line style="stroke:#0000FF;stroke-width:1.0;" x1="142" x2="142" y1="68.2969" y2="153.4297"/><polygon fill="#0000FF" points="142,153.4297,146,144.4297,142,148.4297,138,144.4297,142,153.4297" style="stroke:#0000FF;stroke-width:1.0;"/><text fill="#000000" font-family="sans-serif" font-size="13" lengthAdjust="spacing" textLength="110" x="30" y="130.3638">action : setName</text><line style="stroke:#0000FF;stroke-width:1.0;" x1="183" x2="183" y1="68.2969" y2="108.2969"/><line style="stroke:#0000FF;stroke-width:1.0;" x1="183" x2="443.5" y1="108.2969" y2="108.2969"/><line style="stroke:#0000FF;stroke-width:1.0;" x1="443.5" x2="443.5" y1="108.2969" y2="153.4297"/><polygon fill="#0000FF" points="443.5,153.4297,447.5,144.4297,443.5,148.4297,439.5,144.4297,443.5,153.4297" style="stroke:#0000FF;stroke-width:1.0;"/><text fill="#000000" font-family="sans-serif" font-size="13" lengthAdjust="spacing" textLength="130" x="311.5" y="130.3638">action : setSchedule</text><line style="stroke:#008000;stroke-width:1.0;" x1="224" x2="224" y1="68.2969" y2="98.2969"/><line style="stroke:#008000;stroke-width:1.0;" x1="224" x2="780.5" y1="98.2969" y2="98.2969"/><line style="stroke:#008000;stroke-width:1.0;" x1="780.5" x2="780.5" y1="98.2969" y2="153.4297"/><polygon fill="#008000" points="780.5,153.4297,784.5,144.4297,780.5,148.4297,776.5,144.4297,780.5,153.4297" style="stroke:#008000;stroke-width:1.0;"/><text fill="#000000" font-family="sans-serif" font-size="13" lengthAdjust="spacing" textLength="46" x="732.5" y="130.3638">actions</text><rect fill="#DDDDDD" height="79.1875" id="_legend" rx="7.5" ry="7.5" style="stroke:#000000;stroke-width:1.0;" width="161" x="677.5" y="227.0234"/><text fill="#000000" font-family="sans-serif" font-size="14" font-weight="bold" lengthAdjust="spacing" textLength="5" x="682.5" y="247.0186"> </text><text fill="#000000" font-family="sans-serif" font-size="14" font-weight="bold" lengthAdjust="spacing" textLength="28" x="699.5" y="247.0186">line</text><text fill="#000000" filter="url(#b1uhhb9acy6f2x0)" font-family="sans-serif" font-size="14" lengthAdjust="spacing" textLength="12" x="682.5" y="263.3154">   </text><text fill="#000000" font-family="sans-serif" font-size="14" lengthAdjust="spacing" textLength="77" x="698.5" y="263.3154">inheritance</text><text fill="#000000" filter="url(#b1uhhb9acy6f2x1)" font-family="sans-serif" font-size="14" lengthAdjust="spacing" textLength="12" x="682.5" y="279.6123">   </text><text fill="#000000" font-family="sans-serif" font-size="14" lengthAdjust="spacing" textLength="129" x="698.5" y="279.6123">property reference</text><text fill="#000000" filter="url(#b1uhhb9acy6f2x2)" font-family="sans-serif" font-size="14" lengthAdjust="spacing" textLength="12" x="682.5" y="295.9092">   </text><text fill="#000000" font-family="sans-serif" font-size="14" lengthAdjust="spacing" textLength="131" x="698.5" y="295.9092">discriminated class</text><line style="stroke:#000000;stroke-width:1.0;" x1="682.5" x2="833.5" y1="234.0234" y2="234.0234"/><line style="stroke:#000000;stroke-width:1.0;" x1="682.5" x2="833.5" y1="250.3203" y2="250.3203"/><line style="stroke:#000000;stroke-width:1.0;" x1="682.5" x2="833.5" y1="266.6172" y2="266.6172"/><line style="stroke:#000000;stroke-width:1.0;" x1="682.5" x2="833.5" y1="282.9141" y2="282.9141"/><line style="stroke:#000000;stroke-width:1.0;" x1="682.5" x2="833.5" y1="299.2109" y2="299.2109"/><line style="stroke:#000000;stroke-width:1.0;" x1="682.5" x2="682.5" y1="234.0234" y2="299.2109"/><line style="stroke:#000000;stroke-width:1.0;" x1="694.5" x2="694.5" y1="234.0234" y2="299.2109"/><line style="stroke:#000000;stroke-width:1.0;" x1="833.5" x2="833.5" y1="234.0234" y2="299.2109"/><!--MD5=[97c88f08f582d6f9ecfdf0db1b714dec]
@startuml
!pragma layout elk
hide empty fields
hide empty methods
legend
|= |= line |
|<back:black>   </back>| inheritance |
|<back:green>   </back>| property reference |
|<back:blue>   </back>| discriminated class |
endlegend
interface RecurrencePolicyUpdateAction [[RecurrencePolicyUpdateAction.svg]]  {
    action: String
}


interface RecurrencePolicySetDescriptionAction [[RecurrencePolicySetDescriptionAction.svg]]  {
    action: String
    description: [[LocalizedString.svg LocalizedString]]
}
interface RecurrencePolicySetKeyAction [[RecurrencePolicySetKeyAction.svg]]  {
    action: String
    key: String
}
interface RecurrencePolicySetNameAction [[RecurrencePolicySetNameAction.svg]]  {
    action: String
    name: [[LocalizedString.svg LocalizedString]]
}
interface RecurrencePolicySetScheduleAction [[RecurrencePolicySetScheduleAction.svg]]  {
    action: String
    schedule: [[RecurrencePolicyScheduleDraft.svg RecurrencePolicyScheduleDraft]]
}
interface RecurrencePolicyUpdate [[RecurrencePolicyUpdate.svg]]  {
    version: Long
    actions: [[RecurrencePolicyUpdateAction.svg List<RecurrencePolicyUpdateAction>]]
}
RecurrencePolicyUpdateAction - -> RecurrencePolicySetDescriptionAction #blue;text:blue : "action : setDescription"
RecurrencePolicyUpdateAction - -> RecurrencePolicySetKeyAction #blue;text:blue : "action : setKey"
RecurrencePolicyUpdateAction - -> RecurrencePolicySetNameAction #blue;text:blue : "action : setName"
RecurrencePolicyUpdateAction - -> RecurrencePolicySetScheduleAction #blue;text:blue : "action : setSchedule"
RecurrencePolicyUpdateAction - -> RecurrencePolicyUpdate #green;text:green : "actions"
@enduml

PlantUML version 1.2022.13(Sat Nov 19 13:22:17 UTC 2022)
(GPL source distribution)
Java Runtime: OpenJDK Runtime Environment
JVM: OpenJDK 64-Bit Server VM
Default Encoding: UTF-8
Language: en
Country: null
--></g></svg>
