<?xml version="1.0" encoding="UTF-8" standalone="no"?><svg xmlns="http://www.w3.org/2000/svg" xmlns:xlink="http://www.w3.org/1999/xlink" contentStyleType="text/css" height="326px" preserveAspectRatio="none" style="width:1194px;height:326px;background:#FFFFFF;" version="1.1" viewBox="0 0 1194 326" width="1194px" zoomAndPan="magnify"><defs><filter height="1" id="b1vk8xygti1uhe0" width="1" x="0" y="0"><feFlood flood-color="#000000" result="flood"/><feComposite in="SourceGraphic" in2="flood" operator="over"/></filter><filter height="1" id="b1vk8xygti1uhe1" width="1" x="0" y="0"><feFlood flood-color="#008000" result="flood"/><feComposite in="SourceGraphic" in2="flood" operator="over"/></filter><filter height="1" id="b1vk8xygti1uhe2" width="1" x="0" y="0"><feFlood flood-color="#0000FF" result="flood"/><feComposite in="SourceGraphic" in2="flood" operator="over"/></filter></defs><g><!--MD5=[93ba6ab2db18601f8f8f4ddf9b98c993]
class RecurringOrderStateDraft--><a href="RecurringOrderStateDraft.svg" target="_top" title="RecurringOrderStateDraft.svg" xlink:actuate="onRequest" xlink:href="RecurringOrderStateDraft.svg" xlink:show="new" xlink:title="RecurringOrderStateDraft.svg" xlink:type="simple"><g id="elem_RecurringOrderStateDraft"><rect codeLine="10" fill="#F1F1F1" height="56.2969" id="RecurringOrderStateDraft" rx="2.5" ry="2.5" style="stroke:#181818;stroke-width:0.5;" width="207" x="72.5" y="12"/><ellipse cx="87.5" cy="28" fill="#B4A7E5" rx="11" ry="11" style="stroke:#181818;stroke-width:1.0;"/><path d="M83.4219,23.7656 L83.4219,21.6094 L90.8125,21.6094 L90.8125,23.7656 L88.3438,23.7656 L88.3438,31.8438 L90.8125,31.8438 L90.8125,34 L83.4219,34 L83.4219,31.8438 L85.8906,31.8438 L85.8906,23.7656 L83.4219,23.7656 Z " fill="#000000"/><text fill="#000000" font-family="sans-serif" font-size="14" font-style="italic" lengthAdjust="spacing" textLength="175" x="101.5" y="32.8467">RecurringOrderStateDraft</text><line style="stroke:#181818;stroke-width:0.5;" x1="73.5" x2="278.5" y1="44" y2="44"/><text fill="#000000" font-family="sans-serif" font-size="14" lengthAdjust="spacing" textLength="79" x="78.5" y="60.9951">type: String</text></g></a><!--MD5=[70315896c08610a51c8fa93e61799f10]
class RecurringOrderActive--><a href="RecurringOrderActive.svg" target="_top" title="RecurringOrderActive.svg" xlink:actuate="onRequest" xlink:href="RecurringOrderActive.svg" xlink:show="new" xlink:title="RecurringOrderActive.svg" xlink:type="simple"><g id="elem_RecurringOrderActive"><rect codeLine="15" fill="#F1F1F1" height="72.5938" id="RecurringOrderActive" rx="2.5" ry="2.5" style="stroke:#181818;stroke-width:0.5;" width="181" x="783" y="153.4297"/><ellipse cx="798" cy="169.4297" fill="#B4A7E5" rx="11" ry="11" style="stroke:#181818;stroke-width:1.0;"/><path d="M793.9219,165.1953 L793.9219,163.0391 L801.3125,163.0391 L801.3125,165.1953 L798.8438,165.1953 L798.8438,173.2734 L801.3125,173.2734 L801.3125,175.4297 L793.9219,175.4297 L793.9219,173.2734 L796.3906,173.2734 L796.3906,165.1953 L793.9219,165.1953 Z " fill="#000000"/><text fill="#000000" font-family="sans-serif" font-size="14" font-style="italic" lengthAdjust="spacing" textLength="149" x="812" y="174.2764">RecurringOrderActive</text><line style="stroke:#181818;stroke-width:0.5;" x1="784" x2="963" y1="185.4297" y2="185.4297"/><text fill="#000000" font-family="sans-serif" font-size="14" lengthAdjust="spacing" textLength="79" x="789" y="202.4248">type: String</text><text fill="#000000" font-family="sans-serif" font-size="14" lengthAdjust="spacing" textLength="151" x="789" y="218.7217">resumesAt: DateTime</text></g></a><!--MD5=[96eb7815002043beb2c14892ae57b794]
class RecurringOrderCanceled--><a href="RecurringOrderCanceled.svg" target="_top" title="RecurringOrderCanceled.svg" xlink:actuate="onRequest" xlink:href="RecurringOrderCanceled.svg" xlink:show="new" xlink:title="RecurringOrderCanceled.svg" xlink:type="simple"><g id="elem_RecurringOrderCanceled"><rect codeLine="19" fill="#F1F1F1" height="72.5938" id="RecurringOrderCanceled" rx="2.5" ry="2.5" style="stroke:#181818;stroke-width:0.5;" width="203" x="984" y="153.4297"/><ellipse cx="999" cy="169.4297" fill="#B4A7E5" rx="11" ry="11" style="stroke:#181818;stroke-width:1.0;"/><path d="M994.9219,165.1953 L994.9219,163.0391 L1002.3125,163.0391 L1002.3125,165.1953 L999.8438,165.1953 L999.8438,173.2734 L1002.3125,173.2734 L1002.3125,175.4297 L994.9219,175.4297 L994.9219,173.2734 L997.3906,173.2734 L997.3906,165.1953 L994.9219,165.1953 Z " fill="#000000"/><text fill="#000000" font-family="sans-serif" font-size="14" font-style="italic" lengthAdjust="spacing" textLength="171" x="1013" y="174.2764">RecurringOrderCanceled</text><line style="stroke:#181818;stroke-width:0.5;" x1="985" x2="1186" y1="185.4297" y2="185.4297"/><text fill="#000000" font-family="sans-serif" font-size="14" lengthAdjust="spacing" textLength="79" x="990" y="202.4248">type: String</text><text fill="#000000" font-family="sans-serif" font-size="14" lengthAdjust="spacing" textLength="97" x="990" y="218.7217">reason: String</text></g></a><!--MD5=[dc82af43169a1e6b388d198ec9e7cbc8]
class RecurringOrderExpired--><a href="RecurringOrderExpired.svg" target="_top" title="RecurringOrderExpired.svg" xlink:actuate="onRequest" xlink:href="RecurringOrderExpired.svg" xlink:show="new" xlink:title="RecurringOrderExpired.svg" xlink:type="simple"><g id="elem_RecurringOrderExpired"><rect codeLine="23" fill="#F1F1F1" height="56.2969" id="RecurringOrderExpired" rx="2.5" ry="2.5" style="stroke:#181818;stroke-width:0.5;" width="190" x="12" y="153.4297"/><ellipse cx="27" cy="169.4297" fill="#B4A7E5" rx="11" ry="11" style="stroke:#181818;stroke-width:1.0;"/><path d="M22.9219,165.1953 L22.9219,163.0391 L30.3125,163.0391 L30.3125,165.1953 L27.8438,165.1953 L27.8438,173.2734 L30.3125,173.2734 L30.3125,175.4297 L22.9219,175.4297 L22.9219,173.2734 L25.3906,173.2734 L25.3906,165.1953 L22.9219,165.1953 Z " fill="#000000"/><text fill="#000000" font-family="sans-serif" font-size="14" font-style="italic" lengthAdjust="spacing" textLength="158" x="41" y="174.2764">RecurringOrderExpired</text><line style="stroke:#181818;stroke-width:0.5;" x1="13" x2="201" y1="185.4297" y2="185.4297"/><text fill="#000000" font-family="sans-serif" font-size="14" lengthAdjust="spacing" textLength="79" x="18" y="202.4248">type: String</text></g></a><!--MD5=[1003801e3d511039a8966c3af573e537]
class RecurringOrderPaused--><a href="RecurringOrderPaused.svg" target="_top" title="RecurringOrderPaused.svg" xlink:actuate="onRequest" xlink:href="RecurringOrderPaused.svg" xlink:show="new" xlink:title="RecurringOrderPaused.svg" xlink:type="simple"><g id="elem_RecurringOrderPaused"><rect codeLine="26" fill="#F1F1F1" height="56.2969" id="RecurringOrderPaused" rx="2.5" ry="2.5" style="stroke:#181818;stroke-width:0.5;" width="188" x="222" y="153.4297"/><ellipse cx="237" cy="169.4297" fill="#B4A7E5" rx="11" ry="11" style="stroke:#181818;stroke-width:1.0;"/><path d="M232.9219,165.1953 L232.9219,163.0391 L240.3125,163.0391 L240.3125,165.1953 L237.8438,165.1953 L237.8438,173.2734 L240.3125,173.2734 L240.3125,175.4297 L232.9219,175.4297 L232.9219,173.2734 L235.3906,173.2734 L235.3906,165.1953 L232.9219,165.1953 Z " fill="#000000"/><text fill="#000000" font-family="sans-serif" font-size="14" font-style="italic" lengthAdjust="spacing" textLength="156" x="251" y="174.2764">RecurringOrderPaused</text><line style="stroke:#181818;stroke-width:0.5;" x1="223" x2="409" y1="185.4297" y2="185.4297"/><text fill="#000000" font-family="sans-serif" font-size="14" lengthAdjust="spacing" textLength="79" x="228" y="202.4248">type: String</text></g></a><!--MD5=[1f82bd235cfcd4865b6f15f7fc467005]
class RecurringOrderSetStateAction--><a href="RecurringOrderSetStateAction.svg" target="_top" title="RecurringOrderSetStateAction.svg" xlink:actuate="onRequest" xlink:href="RecurringOrderSetStateAction.svg" xlink:show="new" xlink:title="RecurringOrderSetStateAction.svg" xlink:type="simple"><g id="elem_RecurringOrderSetStateAction"><rect codeLine="29" fill="#F1F1F1" height="72.5938" id="RecurringOrderSetStateAction" rx="2.5" ry="2.5" style="stroke:#181818;stroke-width:0.5;" width="333" x="430" y="153.4297"/><ellipse cx="487.75" cy="169.4297" fill="#B4A7E5" rx="11" ry="11" style="stroke:#181818;stroke-width:1.0;"/><path d="M483.6719,165.1953 L483.6719,163.0391 L491.0625,163.0391 L491.0625,165.1953 L488.5938,165.1953 L488.5938,173.2734 L491.0625,173.2734 L491.0625,175.4297 L483.6719,175.4297 L483.6719,173.2734 L486.1406,173.2734 L486.1406,165.1953 L483.6719,165.1953 Z " fill="#000000"/><text fill="#000000" font-family="sans-serif" font-size="14" font-style="italic" lengthAdjust="spacing" textLength="209" x="508.25" y="174.2764">RecurringOrderSetStateAction</text><line style="stroke:#181818;stroke-width:0.5;" x1="431" x2="762" y1="185.4297" y2="185.4297"/><text fill="#000000" font-family="sans-serif" font-size="14" lengthAdjust="spacing" textLength="91" x="436" y="202.4248">action: String</text><text fill="#000000" font-family="sans-serif" font-size="14" lengthAdjust="spacing" textLength="142" x="436" y="218.7217">recurringOrderState:</text><a href="RecurringOrderStateDraft.svg" target="_top" title="RecurringOrderStateDraft.svg" xlink:actuate="onRequest" xlink:href="RecurringOrderStateDraft.svg" xlink:show="new" xlink:title="RecurringOrderStateDraft.svg" xlink:type="simple"><text fill="#0000FF" font-family="sans-serif" font-size="14" lengthAdjust="spacing" text-decoration="underline" textLength="175" x="582" y="218.7217">RecurringOrderStateDraft</text></a></g></a><line style="stroke:#0000FF;stroke-width:1.0;" x1="210.5" x2="210.5" y1="68.2969" y2="88.2969"/><line style="stroke:#0000FF;stroke-width:1.0;" x1="210.5" x2="873.5" y1="88.2969" y2="88.2969"/><line style="stroke:#0000FF;stroke-width:1.0;" x1="873.5" x2="873.5" y1="88.2969" y2="153.4297"/><polygon fill="#0000FF" points="873.5,153.4297,877.5,144.4297,873.5,148.4297,869.5,144.4297,873.5,153.4297" style="stroke:#0000FF;stroke-width:1.0;"/><text fill="#000000" font-family="sans-serif" font-size="13" lengthAdjust="spacing" textLength="78" x="793.5" y="130.3638">type : active</text><line style="stroke:#0000FF;stroke-width:1.0;" x1="245" x2="245" y1="68.2969" y2="78.2969"/><line style="stroke:#0000FF;stroke-width:1.0;" x1="245" x2="1085.5" y1="78.2969" y2="78.2969"/><line style="stroke:#0000FF;stroke-width:1.0;" x1="1085.5" x2="1085.5" y1="78.2969" y2="153.4297"/><polygon fill="#0000FF" points="1085.5,153.4297,1089.5,144.4297,1085.5,148.4297,1081.5,144.4297,1085.5,153.4297" style="stroke:#0000FF;stroke-width:1.0;"/><text fill="#000000" font-family="sans-serif" font-size="13" lengthAdjust="spacing" textLength="97" x="986.5" y="130.3638">type : canceled</text><line style="stroke:#0000FF;stroke-width:1.0;" x1="107" x2="107" y1="68.2969" y2="153.4297"/><polygon fill="#0000FF" points="107,153.4297,111,144.4297,107,148.4297,103,144.4297,107,153.4297" style="stroke:#0000FF;stroke-width:1.0;"/><text fill="#000000" font-family="sans-serif" font-size="13" lengthAdjust="spacing" textLength="87" x="18" y="130.3638">type : expired</text><line style="stroke:#0000FF;stroke-width:1.0;" x1="141.5" x2="141.5" y1="68.2969" y2="108.2969"/><line style="stroke:#0000FF;stroke-width:1.0;" x1="141.5" x2="316" y1="108.2969" y2="108.2969"/><line style="stroke:#0000FF;stroke-width:1.0;" x1="316" x2="316" y1="108.2969" y2="153.4297"/><polygon fill="#0000FF" points="316,153.4297,320,144.4297,316,148.4297,312,144.4297,316,153.4297" style="stroke:#0000FF;stroke-width:1.0;"/><text fill="#000000" font-family="sans-serif" font-size="13" lengthAdjust="spacing" textLength="87" x="227" y="130.3638">type : paused</text><line style="stroke:#008000;stroke-width:1.0;" x1="176" x2="176" y1="68.2969" y2="98.2969"/><line style="stroke:#008000;stroke-width:1.0;" x1="176" x2="596.5" y1="98.2969" y2="98.2969"/><line style="stroke:#008000;stroke-width:1.0;" x1="596.5" x2="596.5" y1="98.2969" y2="153.4297"/><polygon fill="#008000" points="596.5,153.4297,600.5,144.4297,596.5,148.4297,592.5,144.4297,596.5,153.4297" style="stroke:#008000;stroke-width:1.0;"/><text fill="#000000" font-family="sans-serif" font-size="13" lengthAdjust="spacing" textLength="128" x="466.5" y="130.3638">recurringOrderState</text><rect fill="#DDDDDD" height="79.1875" id="_legend" rx="7.5" ry="7.5" style="stroke:#000000;stroke-width:1.0;" width="161" x="507" y="227.0234"/><text fill="#000000" font-family="sans-serif" font-size="14" font-weight="bold" lengthAdjust="spacing" textLength="5" x="512" y="247.0186"> </text><text fill="#000000" font-family="sans-serif" font-size="14" font-weight="bold" lengthAdjust="spacing" textLength="28" x="529" y="247.0186">line</text><text fill="#000000" filter="url(#b1vk8xygti1uhe0)" font-family="sans-serif" font-size="14" lengthAdjust="spacing" textLength="12" x="512" y="263.3154">   </text><text fill="#000000" font-family="sans-serif" font-size="14" lengthAdjust="spacing" textLength="77" x="528" y="263.3154">inheritance</text><text fill="#000000" filter="url(#b1vk8xygti1uhe1)" font-family="sans-serif" font-size="14" lengthAdjust="spacing" textLength="12" x="512" y="279.6123">   </text><text fill="#000000" font-family="sans-serif" font-size="14" lengthAdjust="spacing" textLength="129" x="528" y="279.6123">property reference</text><text fill="#000000" filter="url(#b1vk8xygti1uhe2)" font-family="sans-serif" font-size="14" lengthAdjust="spacing" textLength="12" x="512" y="295.9092">   </text><text fill="#000000" font-family="sans-serif" font-size="14" lengthAdjust="spacing" textLength="131" x="528" y="295.9092">discriminated class</text><line style="stroke:#000000;stroke-width:1.0;" x1="512" x2="663" y1="234.0234" y2="234.0234"/><line style="stroke:#000000;stroke-width:1.0;" x1="512" x2="663" y1="250.3203" y2="250.3203"/><line style="stroke:#000000;stroke-width:1.0;" x1="512" x2="663" y1="266.6172" y2="266.6172"/><line style="stroke:#000000;stroke-width:1.0;" x1="512" x2="663" y1="282.9141" y2="282.9141"/><line style="stroke:#000000;stroke-width:1.0;" x1="512" x2="663" y1="299.2109" y2="299.2109"/><line style="stroke:#000000;stroke-width:1.0;" x1="512" x2="512" y1="234.0234" y2="299.2109"/><line style="stroke:#000000;stroke-width:1.0;" x1="524" x2="524" y1="234.0234" y2="299.2109"/><line style="stroke:#000000;stroke-width:1.0;" x1="663" x2="663" y1="234.0234" y2="299.2109"/><!--MD5=[82e040bc206719a5806d56895182b93c]
@startuml
!pragma layout elk
hide empty fields
hide empty methods
legend
|= |= line |
|<back:black>   </back>| inheritance |
|<back:green>   </back>| property reference |
|<back:blue>   </back>| discriminated class |
endlegend
interface RecurringOrderStateDraft [[RecurringOrderStateDraft.svg]]  {
    type: String
}


interface RecurringOrderActive [[RecurringOrderActive.svg]]  {
    type: String
    resumesAt: DateTime
}
interface RecurringOrderCanceled [[RecurringOrderCanceled.svg]]  {
    type: String
    reason: String
}
interface RecurringOrderExpired [[RecurringOrderExpired.svg]]  {
    type: String
}
interface RecurringOrderPaused [[RecurringOrderPaused.svg]]  {
    type: String
}
interface RecurringOrderSetStateAction [[RecurringOrderSetStateAction.svg]]  {
    action: String
    recurringOrderState: [[RecurringOrderStateDraft.svg RecurringOrderStateDraft]]
}
RecurringOrderStateDraft - -> RecurringOrderActive #blue;text:blue : "type : active"
RecurringOrderStateDraft - -> RecurringOrderCanceled #blue;text:blue : "type : canceled"
RecurringOrderStateDraft - -> RecurringOrderExpired #blue;text:blue : "type : expired"
RecurringOrderStateDraft - -> RecurringOrderPaused #blue;text:blue : "type : paused"
RecurringOrderStateDraft - -> RecurringOrderSetStateAction #green;text:green : "recurringOrderState"
@enduml

PlantUML version 1.2022.13(Sat Nov 19 13:22:17 UTC 2022)
(GPL source distribution)
Java Runtime: OpenJDK Runtime Environment
JVM: OpenJDK 64-Bit Server VM
Default Encoding: UTF-8
Language: en
Country: null
--></g></svg>
