<?xml version="1.0" encoding="UTF-8" standalone="no"?><svg xmlns="http://www.w3.org/2000/svg" xmlns:xlink="http://www.w3.org/1999/xlink" contentStyleType="text/css" height="392px" preserveAspectRatio="none" style="width:3224px;height:392px;background:#FFFFFF;" version="1.1" viewBox="0 0 3224 392" width="3224px" zoomAndPan="magnify"><defs><filter height="1" id="by686eyh2mytn0" width="1" x="0" y="0"><feFlood flood-color="#000000" result="flood"/><feComposite in="SourceGraphic" in2="flood" operator="over"/></filter><filter height="1" id="by686eyh2mytn1" width="1" x="0" y="0"><feFlood flood-color="#008000" result="flood"/><feComposite in="SourceGraphic" in2="flood" operator="over"/></filter><filter height="1" id="by686eyh2mytn2" width="1" x="0" y="0"><feFlood flood-color="#0000FF" result="flood"/><feComposite in="SourceGraphic" in2="flood" operator="over"/></filter></defs><g><!--MD5=[daa98d642d28e8689df0ff59230953b8]
class RecurringOrderUpdateAction--><a href="RecurringOrderUpdateAction.svg" target="_top" title="RecurringOrderUpdateAction.svg" xlink:actuate="onRequest" xlink:href="RecurringOrderUpdateAction.svg" xlink:show="new" xlink:title="RecurringOrderUpdateAction.svg" xlink:type="simple"><g id="elem_RecurringOrderUpdateAction"><rect codeLine="10" fill="#F1F1F1" height="56.2969" id="RecurringOrderUpdateAction" rx="2.5" ry="2.5" style="stroke:#181818;stroke-width:0.5;" width="232" x="125.9091" y="12"/><ellipse cx="140.9091" cy="28" fill="#B4A7E5" rx="11" ry="11" style="stroke:#181818;stroke-width:1.0;"/><path d="M136.831,23.7656 L136.831,21.6094 L144.2216,21.6094 L144.2216,23.7656 L141.7528,23.7656 L141.7528,31.8438 L144.2216,31.8438 L144.2216,34 L136.831,34 L136.831,31.8438 L139.2997,31.8438 L139.2997,23.7656 L136.831,23.7656 Z " fill="#000000"/><text fill="#000000" font-family="sans-serif" font-size="14" font-style="italic" lengthAdjust="spacing" textLength="200" x="154.9091" y="32.8467">RecurringOrderUpdateAction</text><line style="stroke:#181818;stroke-width:0.5;" x1="126.9091" x2="356.9091" y1="44" y2="44"/><text fill="#000000" font-family="sans-serif" font-size="14" lengthAdjust="spacing" textLength="91" x="131.9091" y="60.9951">action: String</text></g></a><!--MD5=[fc3ed5005744e72d8dc027d42f4b1090]
class RecurringOrderSetCustomFieldAction--><a href="RecurringOrderSetCustomFieldAction.svg" target="_top" title="RecurringOrderSetCustomFieldAction.svg" xlink:actuate="onRequest" xlink:href="RecurringOrderSetCustomFieldAction.svg" xlink:show="new" xlink:title="RecurringOrderSetCustomFieldAction.svg" xlink:type="simple"><g id="elem_RecurringOrderSetCustomFieldAction"><rect codeLine="15" fill="#F1F1F1" height="88.8906" id="RecurringOrderSetCustomFieldAction" rx="2.5" ry="2.5" style="stroke:#181818;stroke-width:0.5;" width="290" x="2614" y="203.4297"/><ellipse cx="2629" cy="219.4297" fill="#B4A7E5" rx="11" ry="11" style="stroke:#181818;stroke-width:1.0;"/><path d="M2624.9219,215.1953 L2624.9219,213.0391 L2632.3125,213.0391 L2632.3125,215.1953 L2629.8438,215.1953 L2629.8438,223.2734 L2632.3125,223.2734 L2632.3125,225.4297 L2624.9219,225.4297 L2624.9219,223.2734 L2627.3906,223.2734 L2627.3906,215.1953 L2624.9219,215.1953 Z " fill="#000000"/><text fill="#000000" font-family="sans-serif" font-size="14" font-style="italic" lengthAdjust="spacing" textLength="258" x="2643" y="224.2764">RecurringOrderSetCustomFieldAction</text><line style="stroke:#181818;stroke-width:0.5;" x1="2615" x2="2903" y1="235.4297" y2="235.4297"/><text fill="#000000" font-family="sans-serif" font-size="14" lengthAdjust="spacing" textLength="91" x="2620" y="252.4248">action: String</text><text fill="#000000" font-family="sans-serif" font-size="14" lengthAdjust="spacing" textLength="88" x="2620" y="268.7217">name: String</text><text fill="#000000" font-family="sans-serif" font-size="14" lengthAdjust="spacing" textLength="41" x="2620" y="285.0186">value:</text><a href="Object.svg" target="_top" title="Object.svg" xlink:actuate="onRequest" xlink:href="Object.svg" xlink:show="new" xlink:title="Object.svg" xlink:type="simple"><text fill="#0000FF" font-family="sans-serif" font-size="14" lengthAdjust="spacing" text-decoration="underline" textLength="45" x="2665" y="285.0186">Object</text></a></g></a><!--MD5=[e31e3a85092428e3945248968d6bb698]
class RecurringOrderSetCustomTypeAction--><a href="RecurringOrderSetCustomTypeAction.svg" target="_top" title="RecurringOrderSetCustomTypeAction.svg" xlink:actuate="onRequest" xlink:href="RecurringOrderSetCustomTypeAction.svg" xlink:show="new" xlink:title="RecurringOrderSetCustomTypeAction.svg" xlink:type="simple"><g id="elem_RecurringOrderSetCustomTypeAction"><rect codeLine="20" fill="#F1F1F1" height="88.8906" id="RecurringOrderSetCustomTypeAction" rx="2.5" ry="2.5" style="stroke:#181818;stroke-width:0.5;" width="293" x="2924" y="203.4297"/><ellipse cx="2939" cy="219.4297" fill="#B4A7E5" rx="11" ry="11" style="stroke:#181818;stroke-width:1.0;"/><path d="M2934.9219,215.1953 L2934.9219,213.0391 L2942.3125,213.0391 L2942.3125,215.1953 L2939.8438,215.1953 L2939.8438,223.2734 L2942.3125,223.2734 L2942.3125,225.4297 L2934.9219,225.4297 L2934.9219,223.2734 L2937.3906,223.2734 L2937.3906,215.1953 L2934.9219,215.1953 Z " fill="#000000"/><text fill="#000000" font-family="sans-serif" font-size="14" font-style="italic" lengthAdjust="spacing" textLength="261" x="2953" y="224.2764">RecurringOrderSetCustomTypeAction</text><line style="stroke:#181818;stroke-width:0.5;" x1="2925" x2="3216" y1="235.4297" y2="235.4297"/><text fill="#000000" font-family="sans-serif" font-size="14" lengthAdjust="spacing" textLength="91" x="2930" y="252.4248">action: String</text><text fill="#000000" font-family="sans-serif" font-size="14" lengthAdjust="spacing" textLength="35" x="2930" y="268.7217">type:</text><a href="TypeResourceIdentifier.svg" target="_top" title="TypeResourceIdentifier.svg" xlink:actuate="onRequest" xlink:href="TypeResourceIdentifier.svg" xlink:show="new" xlink:title="TypeResourceIdentifier.svg" xlink:type="simple"><text fill="#0000FF" font-family="sans-serif" font-size="14" lengthAdjust="spacing" text-decoration="underline" textLength="160" x="2969" y="268.7217">TypeResourceIdentifier</text></a><text fill="#000000" font-family="sans-serif" font-size="14" lengthAdjust="spacing" textLength="41" x="2930" y="285.0186">fields:</text><a href="FieldContainer.svg" target="_top" title="FieldContainer.svg" xlink:actuate="onRequest" xlink:href="FieldContainer.svg" xlink:show="new" xlink:title="FieldContainer.svg" xlink:type="simple"><text fill="#0000FF" font-family="sans-serif" font-size="14" lengthAdjust="spacing" text-decoration="underline" textLength="99" x="2975" y="285.0186">FieldContainer</text></a></g></a><!--MD5=[84d8495919cca2576656abcfc9f30cb9]
class RecurringOrderSetExpiresAtAction--><a href="RecurringOrderSetExpiresAtAction.svg" target="_top" title="RecurringOrderSetExpiresAtAction.svg" xlink:actuate="onRequest" xlink:href="RecurringOrderSetExpiresAtAction.svg" xlink:show="new" xlink:title="RecurringOrderSetExpiresAtAction.svg" xlink:type="simple"><g id="elem_RecurringOrderSetExpiresAtAction"><rect codeLine="25" fill="#F1F1F1" height="72.5938" id="RecurringOrderSetExpiresAtAction" rx="2.5" ry="2.5" style="stroke:#181818;stroke-width:0.5;" width="270" x="12" y="203.4297"/><ellipse cx="27" cy="219.4297" fill="#B4A7E5" rx="11" ry="11" style="stroke:#181818;stroke-width:1.0;"/><path d="M22.9219,215.1953 L22.9219,213.0391 L30.3125,213.0391 L30.3125,215.1953 L27.8438,215.1953 L27.8438,223.2734 L30.3125,223.2734 L30.3125,225.4297 L22.9219,225.4297 L22.9219,223.2734 L25.3906,223.2734 L25.3906,215.1953 L22.9219,215.1953 Z " fill="#000000"/><text fill="#000000" font-family="sans-serif" font-size="14" font-style="italic" lengthAdjust="spacing" textLength="238" x="41" y="224.2764">RecurringOrderSetExpiresAtAction</text><line style="stroke:#181818;stroke-width:0.5;" x1="13" x2="281" y1="235.4297" y2="235.4297"/><text fill="#000000" font-family="sans-serif" font-size="14" lengthAdjust="spacing" textLength="91" x="18" y="252.4248">action: String</text><text fill="#000000" font-family="sans-serif" font-size="14" lengthAdjust="spacing" textLength="140" x="18" y="268.7217">expiresAt: DateTime</text></g></a><!--MD5=[2d5652bafe03b8db44439017b72d9729]
class RecurringOrderSetKeyAction--><a href="RecurringOrderSetKeyAction.svg" target="_top" title="RecurringOrderSetKeyAction.svg" xlink:actuate="onRequest" xlink:href="RecurringOrderSetKeyAction.svg" xlink:show="new" xlink:title="RecurringOrderSetKeyAction.svg" xlink:type="simple"><g id="elem_RecurringOrderSetKeyAction"><rect codeLine="29" fill="#F1F1F1" height="72.5938" id="RecurringOrderSetKeyAction" rx="2.5" ry="2.5" style="stroke:#181818;stroke-width:0.5;" width="231" x="992" y="203.4297"/><ellipse cx="1007" cy="219.4297" fill="#B4A7E5" rx="11" ry="11" style="stroke:#181818;stroke-width:1.0;"/><path d="M1002.9219,215.1953 L1002.9219,213.0391 L1010.3125,213.0391 L1010.3125,215.1953 L1007.8438,215.1953 L1007.8438,223.2734 L1010.3125,223.2734 L1010.3125,225.4297 L1002.9219,225.4297 L1002.9219,223.2734 L1005.3906,223.2734 L1005.3906,215.1953 L1002.9219,215.1953 Z " fill="#000000"/><text fill="#000000" font-family="sans-serif" font-size="14" font-style="italic" lengthAdjust="spacing" textLength="199" x="1021" y="224.2764">RecurringOrderSetKeyAction</text><line style="stroke:#181818;stroke-width:0.5;" x1="993" x2="1222" y1="235.4297" y2="235.4297"/><text fill="#000000" font-family="sans-serif" font-size="14" lengthAdjust="spacing" textLength="91" x="998" y="252.4248">action: String</text><text fill="#000000" font-family="sans-serif" font-size="14" lengthAdjust="spacing" textLength="73" x="998" y="268.7217">key: String</text></g></a><!--MD5=[ef174190966c96a379d31d9f60e4f9a4]
class RecurringOrderSetOrderSkipConfigurationAction--><a href="RecurringOrderSetOrderSkipConfigurationAction.svg" target="_top" title="RecurringOrderSetOrderSkipConfigurationAction.svg" xlink:actuate="onRequest" xlink:href="RecurringOrderSetOrderSkipConfigurationAction.svg" xlink:show="new" xlink:title="RecurringOrderSetOrderSkipConfigurationAction.svg" xlink:type="simple"><g id="elem_RecurringOrderSetOrderSkipConfigurationAction"><rect codeLine="33" fill="#F1F1F1" height="88.8906" id="RecurringOrderSetOrderSkipConfigurationAction" rx="2.5" ry="2.5" style="stroke:#181818;stroke-width:0.5;" width="365" x="1827" y="203.4297"/><ellipse cx="1842" cy="219.4297" fill="#B4A7E5" rx="11" ry="11" style="stroke:#181818;stroke-width:1.0;"/><path d="M1837.9219,215.1953 L1837.9219,213.0391 L1845.3125,213.0391 L1845.3125,215.1953 L1842.8438,215.1953 L1842.8438,223.2734 L1845.3125,223.2734 L1845.3125,225.4297 L1837.9219,225.4297 L1837.9219,223.2734 L1840.3906,223.2734 L1840.3906,215.1953 L1837.9219,215.1953 Z " fill="#000000"/><text fill="#000000" font-family="sans-serif" font-size="14" font-style="italic" lengthAdjust="spacing" textLength="333" x="1856" y="224.2764">RecurringOrderSetOrderSkipConfigurationAction</text><line style="stroke:#181818;stroke-width:0.5;" x1="1828" x2="2191" y1="235.4297" y2="235.4297"/><text fill="#000000" font-family="sans-serif" font-size="14" lengthAdjust="spacing" textLength="91" x="1833" y="252.4248">action: String</text><text fill="#000000" font-family="sans-serif" font-size="14" lengthAdjust="spacing" textLength="193" x="1833" y="268.7217">skipConfigurationInputDraft:</text><a href="SkipConfigurationDraft.svg" target="_top" title="SkipConfigurationDraft.svg" xlink:actuate="onRequest" xlink:href="SkipConfigurationDraft.svg" xlink:show="new" xlink:title="SkipConfigurationDraft.svg" xlink:type="simple"><text fill="#0000FF" font-family="sans-serif" font-size="14" lengthAdjust="spacing" text-decoration="underline" textLength="154" x="2030" y="268.7217">SkipConfigurationDraft</text></a><text fill="#000000" font-family="sans-serif" font-size="14" lengthAdjust="spacing" textLength="198" x="1833" y="285.0186">updatedExpiresAt: DateTime</text></g></a><!--MD5=[89b7afcdec20a958c8d7128f4257c23a]
class RecurringOrderSetScheduleAction--><a href="RecurringOrderSetScheduleAction.svg" target="_top" title="RecurringOrderSetScheduleAction.svg" xlink:actuate="onRequest" xlink:href="RecurringOrderSetScheduleAction.svg" xlink:show="new" xlink:title="RecurringOrderSetScheduleAction.svg" xlink:type="simple"><g id="elem_RecurringOrderSetScheduleAction"><rect codeLine="38" fill="#F1F1F1" height="72.5938" id="RecurringOrderSetScheduleAction" rx="2.5" ry="2.5" style="stroke:#181818;stroke-width:0.5;" width="382" x="2212" y="203.4297"/><ellipse cx="2279.75" cy="219.4297" fill="#B4A7E5" rx="11" ry="11" style="stroke:#181818;stroke-width:1.0;"/><path d="M2275.6719,215.1953 L2275.6719,213.0391 L2283.0625,213.0391 L2283.0625,215.1953 L2280.5938,215.1953 L2280.5938,223.2734 L2283.0625,223.2734 L2283.0625,225.4297 L2275.6719,225.4297 L2275.6719,223.2734 L2278.1406,223.2734 L2278.1406,215.1953 L2275.6719,215.1953 Z " fill="#000000"/><text fill="#000000" font-family="sans-serif" font-size="14" font-style="italic" lengthAdjust="spacing" textLength="238" x="2300.25" y="224.2764">RecurringOrderSetScheduleAction</text><line style="stroke:#181818;stroke-width:0.5;" x1="2213" x2="2593" y1="235.4297" y2="235.4297"/><text fill="#000000" font-family="sans-serif" font-size="14" lengthAdjust="spacing" textLength="91" x="2218" y="252.4248">action: String</text><text fill="#000000" font-family="sans-serif" font-size="14" lengthAdjust="spacing" textLength="120" x="2218" y="268.7217">recurrencePolicy:</text><a href="RecurrencePolicyResourceIdentifier.svg" target="_top" title="RecurrencePolicyResourceIdentifier.svg" xlink:actuate="onRequest" xlink:href="RecurrencePolicyResourceIdentifier.svg" xlink:show="new" xlink:title="RecurrencePolicyResourceIdentifier.svg" xlink:type="simple"><text fill="#0000FF" font-family="sans-serif" font-size="14" lengthAdjust="spacing" text-decoration="underline" textLength="246" x="2342" y="268.7217">RecurrencePolicyResourceIdentifier</text></a></g></a><!--MD5=[9bd1a9ece2a6aadb159b5066dc33c248]
class RecurringOrderSetStartsAtAction--><a href="RecurringOrderSetStartsAtAction.svg" target="_top" title="RecurringOrderSetStartsAtAction.svg" xlink:actuate="onRequest" xlink:href="RecurringOrderSetStartsAtAction.svg" xlink:show="new" xlink:title="RecurringOrderSetStartsAtAction.svg" xlink:type="simple"><g id="elem_RecurringOrderSetStartsAtAction"><rect codeLine="42" fill="#F1F1F1" height="72.5938" id="RecurringOrderSetStartsAtAction" rx="2.5" ry="2.5" style="stroke:#181818;stroke-width:0.5;" width="259" x="1548" y="203.4297"/><ellipse cx="1563" cy="219.4297" fill="#B4A7E5" rx="11" ry="11" style="stroke:#181818;stroke-width:1.0;"/><path d="M1558.9219,215.1953 L1558.9219,213.0391 L1566.3125,213.0391 L1566.3125,215.1953 L1563.8438,215.1953 L1563.8438,223.2734 L1566.3125,223.2734 L1566.3125,225.4297 L1558.9219,225.4297 L1558.9219,223.2734 L1561.3906,223.2734 L1561.3906,215.1953 L1558.9219,215.1953 Z " fill="#000000"/><text fill="#000000" font-family="sans-serif" font-size="14" font-style="italic" lengthAdjust="spacing" textLength="227" x="1577" y="224.2764">RecurringOrderSetStartsAtAction</text><line style="stroke:#181818;stroke-width:0.5;" x1="1549" x2="1806" y1="235.4297" y2="235.4297"/><text fill="#000000" font-family="sans-serif" font-size="14" lengthAdjust="spacing" textLength="91" x="1554" y="252.4248">action: String</text><text fill="#000000" font-family="sans-serif" font-size="14" lengthAdjust="spacing" textLength="129" x="1554" y="268.7217">startsAt: DateTime</text></g></a><!--MD5=[1f82bd235cfcd4865b6f15f7fc467005]
class RecurringOrderSetStateAction--><a href="RecurringOrderSetStateAction.svg" target="_top" title="RecurringOrderSetStateAction.svg" xlink:actuate="onRequest" xlink:href="RecurringOrderSetStateAction.svg" xlink:show="new" xlink:title="RecurringOrderSetStateAction.svg" xlink:type="simple"><g id="elem_RecurringOrderSetStateAction"><rect codeLine="46" fill="#F1F1F1" height="72.5938" id="RecurringOrderSetStateAction" rx="2.5" ry="2.5" style="stroke:#181818;stroke-width:0.5;" width="333" x="302" y="203.4297"/><ellipse cx="359.75" cy="219.4297" fill="#B4A7E5" rx="11" ry="11" style="stroke:#181818;stroke-width:1.0;"/><path d="M355.6719,215.1953 L355.6719,213.0391 L363.0625,213.0391 L363.0625,215.1953 L360.5938,215.1953 L360.5938,223.2734 L363.0625,223.2734 L363.0625,225.4297 L355.6719,225.4297 L355.6719,223.2734 L358.1406,223.2734 L358.1406,215.1953 L355.6719,215.1953 Z " fill="#000000"/><text fill="#000000" font-family="sans-serif" font-size="14" font-style="italic" lengthAdjust="spacing" textLength="209" x="380.25" y="224.2764">RecurringOrderSetStateAction</text><line style="stroke:#181818;stroke-width:0.5;" x1="303" x2="634" y1="235.4297" y2="235.4297"/><text fill="#000000" font-family="sans-serif" font-size="14" lengthAdjust="spacing" textLength="91" x="308" y="252.4248">action: String</text><text fill="#000000" font-family="sans-serif" font-size="14" lengthAdjust="spacing" textLength="142" x="308" y="268.7217">recurringOrderState:</text><a href="RecurringOrderStateDraft.svg" target="_top" title="RecurringOrderStateDraft.svg" xlink:actuate="onRequest" xlink:href="RecurringOrderStateDraft.svg" xlink:show="new" xlink:title="RecurringOrderStateDraft.svg" xlink:type="simple"><text fill="#0000FF" font-family="sans-serif" font-size="14" lengthAdjust="spacing" text-decoration="underline" textLength="175" x="454" y="268.7217">RecurringOrderStateDraft</text></a></g></a><!--MD5=[47baa29b10dc9df83daebf8e2c6e83b2]
class RecurringOrderTransitionStateAction--><a href="RecurringOrderTransitionStateAction.svg" target="_top" title="RecurringOrderTransitionStateAction.svg" xlink:actuate="onRequest" xlink:href="RecurringOrderTransitionStateAction.svg" xlink:show="new" xlink:title="RecurringOrderTransitionStateAction.svg" xlink:type="simple"><g id="elem_RecurringOrderTransitionStateAction"><rect codeLine="50" fill="#F1F1F1" height="88.8906" id="RecurringOrderTransitionStateAction" rx="2.5" ry="2.5" style="stroke:#181818;stroke-width:0.5;" width="285" x="1243" y="203.4297"/><ellipse cx="1258" cy="219.4297" fill="#B4A7E5" rx="11" ry="11" style="stroke:#181818;stroke-width:1.0;"/><path d="M1253.9219,215.1953 L1253.9219,213.0391 L1261.3125,213.0391 L1261.3125,215.1953 L1258.8438,215.1953 L1258.8438,223.2734 L1261.3125,223.2734 L1261.3125,225.4297 L1253.9219,225.4297 L1253.9219,223.2734 L1256.3906,223.2734 L1256.3906,215.1953 L1253.9219,215.1953 Z " fill="#000000"/><text fill="#000000" font-family="sans-serif" font-size="14" font-style="italic" lengthAdjust="spacing" textLength="253" x="1272" y="224.2764">RecurringOrderTransitionStateAction</text><line style="stroke:#181818;stroke-width:0.5;" x1="1244" x2="1527" y1="235.4297" y2="235.4297"/><text fill="#000000" font-family="sans-serif" font-size="14" lengthAdjust="spacing" textLength="91" x="1249" y="252.4248">action: String</text><text fill="#000000" font-family="sans-serif" font-size="14" lengthAdjust="spacing" textLength="40" x="1249" y="268.7217">state:</text><a href="StateResourceIdentifier.svg" target="_top" title="StateResourceIdentifier.svg" xlink:actuate="onRequest" xlink:href="StateResourceIdentifier.svg" xlink:show="new" xlink:title="StateResourceIdentifier.svg" xlink:type="simple"><text fill="#0000FF" font-family="sans-serif" font-size="14" lengthAdjust="spacing" text-decoration="underline" textLength="162" x="1293" y="268.7217">StateResourceIdentifier</text></a><text fill="#000000" font-family="sans-serif" font-size="14" lengthAdjust="spacing" textLength="101" x="1249" y="285.0186">force: Boolean</text></g></a><!--MD5=[63d5ff528fa9ffd94aef83f689d73318]
class RecurringOrderUpdate--><a href="RecurringOrderUpdate.svg" target="_top" title="RecurringOrderUpdate.svg" xlink:actuate="onRequest" xlink:href="RecurringOrderUpdate.svg" xlink:show="new" xlink:title="RecurringOrderUpdate.svg" xlink:type="simple"><g id="elem_RecurringOrderUpdate"><rect codeLine="55" fill="#F1F1F1" height="72.5938" id="RecurringOrderUpdate" rx="2.5" ry="2.5" style="stroke:#181818;stroke-width:0.5;" width="317" x="655" y="203.4297"/><ellipse cx="731.25" cy="219.4297" fill="#B4A7E5" rx="11" ry="11" style="stroke:#181818;stroke-width:1.0;"/><path d="M727.1719,215.1953 L727.1719,213.0391 L734.5625,213.0391 L734.5625,215.1953 L732.0938,215.1953 L732.0938,223.2734 L734.5625,223.2734 L734.5625,225.4297 L727.1719,225.4297 L727.1719,223.2734 L729.6406,223.2734 L729.6406,215.1953 L727.1719,215.1953 Z " fill="#000000"/><text fill="#000000" font-family="sans-serif" font-size="14" font-style="italic" lengthAdjust="spacing" textLength="156" x="751.75" y="224.2764">RecurringOrderUpdate</text><line style="stroke:#181818;stroke-width:0.5;" x1="656" x2="971" y1="235.4297" y2="235.4297"/><text fill="#000000" font-family="sans-serif" font-size="14" lengthAdjust="spacing" textLength="93" x="661" y="252.4248">version: Long</text><text fill="#000000" font-family="sans-serif" font-size="14" lengthAdjust="spacing" textLength="55" x="661" y="268.7217">actions:</text><a href="RecurringOrderUpdateAction.svg" target="_top" title="RecurringOrderUpdateAction.svg" xlink:actuate="onRequest" xlink:href="RecurringOrderUpdateAction.svg" xlink:show="new" xlink:title="RecurringOrderUpdateAction.svg" xlink:type="simple"><text fill="#0000FF" font-family="sans-serif" font-size="14" lengthAdjust="spacing" text-decoration="underline" textLength="246" x="720" y="268.7217">List&lt;RecurringOrderUpdateAction&gt;</text></a></g></a><line style="stroke:#0000FF;stroke-width:1.0;" x1="315.7273" x2="315.7273" y1="68.2969" y2="88.2969"/><line style="stroke:#0000FF;stroke-width:1.0;" x1="315.7273" x2="2759" y1="88.2969" y2="88.2969"/><line style="stroke:#0000FF;stroke-width:1.0;" x1="2759" x2="2759" y1="88.2969" y2="203.4297"/><polygon fill="#0000FF" points="2759,203.4297,2763,194.4297,2759,198.4297,2755,194.4297,2759,203.4297" style="stroke:#0000FF;stroke-width:1.0;"/><text fill="#000000" font-family="sans-serif" font-size="13" lengthAdjust="spacing" textLength="150" x="2607" y="180.3638">action : setCustomField</text><line style="stroke:#0000FF;stroke-width:1.0;" x1="336.8182" x2="336.8182" y1="68.2969" y2="78.2969"/><line style="stroke:#0000FF;stroke-width:1.0;" x1="336.8182" x2="3070.5" y1="78.2969" y2="78.2969"/><line style="stroke:#0000FF;stroke-width:1.0;" x1="3070.5" x2="3070.5" y1="78.2969" y2="203.4297"/><polygon fill="#0000FF" points="3070.5,203.4297,3074.5,194.4297,3070.5,198.4297,3066.5,194.4297,3070.5,203.4297" style="stroke:#0000FF;stroke-width:1.0;"/><text fill="#000000" font-family="sans-serif" font-size="13" lengthAdjust="spacing" textLength="151" x="2917.5" y="180.3638">action : setCustomType</text><line style="stroke:#0000FF;stroke-width:1.0;" x1="147" x2="147" y1="68.2969" y2="203.4297"/><polygon fill="#0000FF" points="147,203.4297,151,194.4297,147,198.4297,143,194.4297,147,203.4297" style="stroke:#0000FF;stroke-width:1.0;"/><text fill="#000000" font-family="sans-serif" font-size="13" lengthAdjust="spacing" textLength="131" x="14" y="180.3638">action : setExpiresAt</text><line style="stroke:#0000FF;stroke-width:1.0;" x1="210.2727" x2="210.2727" y1="68.2969" y2="138.2969"/><line style="stroke:#0000FF;stroke-width:1.0;" x1="210.2727" x2="1107.5" y1="138.2969" y2="138.2969"/><line style="stroke:#0000FF;stroke-width:1.0;" x1="1107.5" x2="1107.5" y1="138.2969" y2="203.4297"/><polygon fill="#0000FF" points="1107.5,203.4297,1111.5,194.4297,1107.5,198.4297,1103.5,194.4297,1107.5,203.4297" style="stroke:#0000FF;stroke-width:1.0;"/><text fill="#000000" font-family="sans-serif" font-size="13" lengthAdjust="spacing" textLength="94" x="1011.5" y="180.3638">action : setKey</text><line style="stroke:#0000FF;stroke-width:1.0;" x1="273.5455" x2="273.5455" y1="68.2969" y2="108.2969"/><line style="stroke:#0000FF;stroke-width:1.0;" x1="273.5455" x2="2009.5" y1="108.2969" y2="108.2969"/><line style="stroke:#0000FF;stroke-width:1.0;" x1="2009.5" x2="2009.5" y1="108.2969" y2="203.4297"/><polygon fill="#0000FF" points="2009.5,203.4297,2013.5,194.4297,2009.5,198.4297,2005.5,194.4297,2009.5,203.4297" style="stroke:#0000FF;stroke-width:1.0;"/><text fill="#000000" font-family="sans-serif" font-size="13" lengthAdjust="spacing" textLength="219" x="1788.5" y="180.3638">action : setOrderSkipConfiguration</text><line style="stroke:#0000FF;stroke-width:1.0;" x1="294.6364" x2="294.6364" y1="68.2969" y2="98.2969"/><line style="stroke:#0000FF;stroke-width:1.0;" x1="294.6364" x2="2403" y1="98.2969" y2="98.2969"/><line style="stroke:#0000FF;stroke-width:1.0;" x1="2403" x2="2403" y1="98.2969" y2="203.4297"/><polygon fill="#0000FF" points="2403,203.4297,2407,194.4297,2403,198.4297,2399,194.4297,2403,203.4297" style="stroke:#0000FF;stroke-width:1.0;"/><text fill="#000000" font-family="sans-serif" font-size="13" lengthAdjust="spacing" textLength="130" x="2271" y="180.3638">action : setSchedule</text><line style="stroke:#0000FF;stroke-width:1.0;" x1="252.4545" x2="252.4545" y1="68.2969" y2="118.2969"/><line style="stroke:#0000FF;stroke-width:1.0;" x1="252.4545" x2="1677.5" y1="118.2969" y2="118.2969"/><line style="stroke:#0000FF;stroke-width:1.0;" x1="1677.5" x2="1677.5" y1="118.2969" y2="203.4297"/><polygon fill="#0000FF" points="1677.5,203.4297,1681.5,194.4297,1677.5,198.4297,1673.5,194.4297,1677.5,203.4297" style="stroke:#0000FF;stroke-width:1.0;"/><text fill="#000000" font-family="sans-serif" font-size="13" lengthAdjust="spacing" textLength="124" x="1551.5" y="180.3638">action : setStartsAt</text><line style="stroke:#0000FF;stroke-width:1.0;" x1="168.0909" x2="168.0909" y1="68.2969" y2="158.2969"/><line style="stroke:#0000FF;stroke-width:1.0;" x1="168.0909" x2="468.5" y1="158.2969" y2="158.2969"/><line style="stroke:#0000FF;stroke-width:1.0;" x1="468.5" x2="468.5" y1="158.2969" y2="203.4297"/><polygon fill="#0000FF" points="468.5,203.4297,472.5,194.4297,468.5,198.4297,464.5,194.4297,468.5,203.4297" style="stroke:#0000FF;stroke-width:1.0;"/><text fill="#000000" font-family="sans-serif" font-size="13" lengthAdjust="spacing" textLength="202" x="264.5" y="180.3638">action : setRecurringOrderState</text><line style="stroke:#0000FF;stroke-width:1.0;" x1="231.3636" x2="231.3636" y1="68.2969" y2="128.2969"/><line style="stroke:#0000FF;stroke-width:1.0;" x1="231.3636" x2="1385.5" y1="128.2969" y2="128.2969"/><line style="stroke:#0000FF;stroke-width:1.0;" x1="1385.5" x2="1385.5" y1="128.2969" y2="203.4297"/><polygon fill="#0000FF" points="1385.5,203.4297,1389.5,194.4297,1385.5,198.4297,1381.5,194.4297,1385.5,203.4297" style="stroke:#0000FF;stroke-width:1.0;"/><text fill="#000000" font-family="sans-serif" font-size="13" lengthAdjust="spacing" textLength="146" x="1237.5" y="180.3638">action : transitionState</text><line style="stroke:#008000;stroke-width:1.0;" x1="189.1818" x2="189.1818" y1="68.2969" y2="148.2969"/><line style="stroke:#008000;stroke-width:1.0;" x1="189.1818" x2="813.5" y1="148.2969" y2="148.2969"/><line style="stroke:#008000;stroke-width:1.0;" x1="813.5" x2="813.5" y1="148.2969" y2="203.4297"/><polygon fill="#008000" points="813.5,203.4297,817.5,194.4297,813.5,198.4297,809.5,194.4297,813.5,203.4297" style="stroke:#008000;stroke-width:1.0;"/><text fill="#000000" font-family="sans-serif" font-size="13" lengthAdjust="spacing" textLength="46" x="765.5" y="180.3638">actions</text><rect fill="#DDDDDD" height="79.1875" id="_legend" rx="7.5" ry="7.5" style="stroke:#000000;stroke-width:1.0;" width="161" x="1522" y="293.3203"/><text fill="#000000" font-family="sans-serif" font-size="14" font-weight="bold" lengthAdjust="spacing" textLength="5" x="1527" y="313.3154"> </text><text fill="#000000" font-family="sans-serif" font-size="14" font-weight="bold" lengthAdjust="spacing" textLength="28" x="1544" y="313.3154">line</text><text fill="#000000" filter="url(#by686eyh2mytn0)" font-family="sans-serif" font-size="14" lengthAdjust="spacing" textLength="12" x="1527" y="329.6123">   </text><text fill="#000000" font-family="sans-serif" font-size="14" lengthAdjust="spacing" textLength="77" x="1543" y="329.6123">inheritance</text><text fill="#000000" filter="url(#by686eyh2mytn1)" font-family="sans-serif" font-size="14" lengthAdjust="spacing" textLength="12" x="1527" y="345.9092">   </text><text fill="#000000" font-family="sans-serif" font-size="14" lengthAdjust="spacing" textLength="129" x="1543" y="345.9092">property reference</text><text fill="#000000" filter="url(#by686eyh2mytn2)" font-family="sans-serif" font-size="14" lengthAdjust="spacing" textLength="12" x="1527" y="362.2061">   </text><text fill="#000000" font-family="sans-serif" font-size="14" lengthAdjust="spacing" textLength="131" x="1543" y="362.2061">discriminated class</text><line style="stroke:#000000;stroke-width:1.0;" x1="1527" x2="1678" y1="300.3203" y2="300.3203"/><line style="stroke:#000000;stroke-width:1.0;" x1="1527" x2="1678" y1="316.6172" y2="316.6172"/><line style="stroke:#000000;stroke-width:1.0;" x1="1527" x2="1678" y1="332.9141" y2="332.9141"/><line style="stroke:#000000;stroke-width:1.0;" x1="1527" x2="1678" y1="349.2109" y2="349.2109"/><line style="stroke:#000000;stroke-width:1.0;" x1="1527" x2="1678" y1="365.5078" y2="365.5078"/><line style="stroke:#000000;stroke-width:1.0;" x1="1527" x2="1527" y1="300.3203" y2="365.5078"/><line style="stroke:#000000;stroke-width:1.0;" x1="1539" x2="1539" y1="300.3203" y2="365.5078"/><line style="stroke:#000000;stroke-width:1.0;" x1="1678" x2="1678" y1="300.3203" y2="365.5078"/><!--MD5=[e9e3834b5cee4a4f0d708c0a5812e5e4]
@startuml
!pragma layout elk
hide empty fields
hide empty methods
legend
|= |= line |
|<back:black>   </back>| inheritance |
|<back:green>   </back>| property reference |
|<back:blue>   </back>| discriminated class |
endlegend
interface RecurringOrderUpdateAction [[RecurringOrderUpdateAction.svg]]  {
    action: String
}


interface RecurringOrderSetCustomFieldAction [[RecurringOrderSetCustomFieldAction.svg]]  {
    action: String
    name: String
    value: [[Object.svg Object]]
}
interface RecurringOrderSetCustomTypeAction [[RecurringOrderSetCustomTypeAction.svg]]  {
    action: String
    type: [[TypeResourceIdentifier.svg TypeResourceIdentifier]]
    fields: [[FieldContainer.svg FieldContainer]]
}
interface RecurringOrderSetExpiresAtAction [[RecurringOrderSetExpiresAtAction.svg]]  {
    action: String
    expiresAt: DateTime
}
interface RecurringOrderSetKeyAction [[RecurringOrderSetKeyAction.svg]]  {
    action: String
    key: String
}
interface RecurringOrderSetOrderSkipConfigurationAction [[RecurringOrderSetOrderSkipConfigurationAction.svg]]  {
    action: String
    skipConfigurationInputDraft: [[SkipConfigurationDraft.svg SkipConfigurationDraft]]
    updatedExpiresAt: DateTime
}
interface RecurringOrderSetScheduleAction [[RecurringOrderSetScheduleAction.svg]]  {
    action: String
    recurrencePolicy: [[RecurrencePolicyResourceIdentifier.svg RecurrencePolicyResourceIdentifier]]
}
interface RecurringOrderSetStartsAtAction [[RecurringOrderSetStartsAtAction.svg]]  {
    action: String
    startsAt: DateTime
}
interface RecurringOrderSetStateAction [[RecurringOrderSetStateAction.svg]]  {
    action: String
    recurringOrderState: [[RecurringOrderStateDraft.svg RecurringOrderStateDraft]]
}
interface RecurringOrderTransitionStateAction [[RecurringOrderTransitionStateAction.svg]]  {
    action: String
    state: [[StateResourceIdentifier.svg StateResourceIdentifier]]
    force: Boolean
}
interface RecurringOrderUpdate [[RecurringOrderUpdate.svg]]  {
    version: Long
    actions: [[RecurringOrderUpdateAction.svg List<RecurringOrderUpdateAction>]]
}
RecurringOrderUpdateAction - -> RecurringOrderSetCustomFieldAction #blue;text:blue : "action : setCustomField"
RecurringOrderUpdateAction - -> RecurringOrderSetCustomTypeAction #blue;text:blue : "action : setCustomType"
RecurringOrderUpdateAction - -> RecurringOrderSetExpiresAtAction #blue;text:blue : "action : setExpiresAt"
RecurringOrderUpdateAction - -> RecurringOrderSetKeyAction #blue;text:blue : "action : setKey"
RecurringOrderUpdateAction - -> RecurringOrderSetOrderSkipConfigurationAction #blue;text:blue : "action : setOrderSkipConfiguration"
RecurringOrderUpdateAction - -> RecurringOrderSetScheduleAction #blue;text:blue : "action : setSchedule"
RecurringOrderUpdateAction - -> RecurringOrderSetStartsAtAction #blue;text:blue : "action : setStartsAt"
RecurringOrderUpdateAction - -> RecurringOrderSetStateAction #blue;text:blue : "action : setRecurringOrderState"
RecurringOrderUpdateAction - -> RecurringOrderTransitionStateAction #blue;text:blue : "action : transitionState"
RecurringOrderUpdateAction - -> RecurringOrderUpdate #green;text:green : "actions"
@enduml

PlantUML version 1.2022.13(Sat Nov 19 13:22:17 UTC 2022)
(GPL source distribution)
Java Runtime: OpenJDK Runtime Environment
JVM: OpenJDK 64-Bit Server VM
Default Encoding: UTF-8
Language: en
Country: null
--></g></svg>
