<?xml version="1.0" encoding="UTF-8" standalone="no"?><svg xmlns="http://www.w3.org/2000/svg" xmlns:xlink="http://www.w3.org/1999/xlink" contentStyleType="text/css" height="412px" preserveAspectRatio="none" style="width:2865px;height:412px;background:#FFFFFF;" version="1.1" viewBox="0 0 2865 412" width="2865px" zoomAndPan="magnify"><defs><filter height="1" id="b1oge66sno25u40" width="1" x="0" y="0"><feFlood flood-color="#000000" result="flood"/><feComposite in="SourceGraphic" in2="flood" operator="over"/></filter><filter height="1" id="b1oge66sno25u41" width="1" x="0" y="0"><feFlood flood-color="#008000" result="flood"/><feComposite in="SourceGraphic" in2="flood" operator="over"/></filter><filter height="1" id="b1oge66sno25u42" width="1" x="0" y="0"><feFlood flood-color="#0000FF" result="flood"/><feComposite in="SourceGraphic" in2="flood" operator="over"/></filter></defs><g><!--MD5=[8ae5209afa786861222fbecedf0ad368]
class ReviewUpdateAction--><a href="ReviewUpdateAction.svg" target="_top" title="ReviewUpdateAction.svg" xlink:actuate="onRequest" xlink:href="ReviewUpdateAction.svg" xlink:show="new" xlink:title="ReviewUpdateAction.svg" xlink:type="simple"><g id="elem_ReviewUpdateAction"><rect codeLine="10" fill="#F1F1F1" height="56.2969" id="ReviewUpdateAction" rx="2.5" ry="2.5" style="stroke:#181818;stroke-width:0.5;" width="176" x="151.4615" y="12"/><ellipse cx="166.4615" cy="28" fill="#B4A7E5" rx="11" ry="11" style="stroke:#181818;stroke-width:1.0;"/><path d="M162.3834,23.7656 L162.3834,21.6094 L169.774,21.6094 L169.774,23.7656 L167.3053,23.7656 L167.3053,31.8438 L169.774,31.8438 L169.774,34 L162.3834,34 L162.3834,31.8438 L164.8522,31.8438 L164.8522,23.7656 L162.3834,23.7656 Z " fill="#000000"/><text fill="#000000" font-family="sans-serif" font-size="14" font-style="italic" lengthAdjust="spacing" textLength="144" x="180.4615" y="32.8467">ReviewUpdateAction</text><line style="stroke:#181818;stroke-width:0.5;" x1="152.4615" x2="326.4615" y1="44" y2="44"/><text fill="#000000" font-family="sans-serif" font-size="14" lengthAdjust="spacing" textLength="91" x="157.4615" y="60.9951">action: String</text></g></a><!--MD5=[6a515e1f458494b97f10a5dd7e58cca3]
class ReviewSetAuthorNameAction--><a href="ReviewSetAuthorNameAction.svg" target="_top" title="ReviewSetAuthorNameAction.svg" xlink:actuate="onRequest" xlink:href="ReviewSetAuthorNameAction.svg" xlink:show="new" xlink:title="ReviewSetAuthorNameAction.svg" xlink:type="simple"><g id="elem_ReviewSetAuthorNameAction"><rect codeLine="15" fill="#F1F1F1" height="72.5938" id="ReviewSetAuthorNameAction" rx="2.5" ry="2.5" style="stroke:#181818;stroke-width:0.5;" width="237" x="2367.5" y="223.4297"/><ellipse cx="2382.5" cy="239.4297" fill="#B4A7E5" rx="11" ry="11" style="stroke:#181818;stroke-width:1.0;"/><path d="M2378.4219,235.1953 L2378.4219,233.0391 L2385.8125,233.0391 L2385.8125,235.1953 L2383.3438,235.1953 L2383.3438,243.2734 L2385.8125,243.2734 L2385.8125,245.4297 L2378.4219,245.4297 L2378.4219,243.2734 L2380.8906,243.2734 L2380.8906,235.1953 L2378.4219,235.1953 Z " fill="#000000"/><text fill="#000000" font-family="sans-serif" font-size="14" font-style="italic" lengthAdjust="spacing" textLength="205" x="2396.5" y="244.2764">ReviewSetAuthorNameAction</text><line style="stroke:#181818;stroke-width:0.5;" x1="2368.5" x2="2603.5" y1="255.4297" y2="255.4297"/><text fill="#000000" font-family="sans-serif" font-size="14" lengthAdjust="spacing" textLength="91" x="2373.5" y="272.4248">action: String</text><text fill="#000000" font-family="sans-serif" font-size="14" lengthAdjust="spacing" textLength="134" x="2373.5" y="288.7217">authorName: String</text></g></a><!--MD5=[8df6016aef21997545b451e488f964f8]
class ReviewSetCustomFieldAction--><a href="ReviewSetCustomFieldAction.svg" target="_top" title="ReviewSetCustomFieldAction.svg" xlink:actuate="onRequest" xlink:href="ReviewSetCustomFieldAction.svg" xlink:show="new" xlink:title="ReviewSetCustomFieldAction.svg" xlink:type="simple"><g id="elem_ReviewSetCustomFieldAction"><rect codeLine="19" fill="#F1F1F1" height="88.8906" id="ReviewSetCustomFieldAction" rx="2.5" ry="2.5" style="stroke:#181818;stroke-width:0.5;" width="234" x="2624.5" y="223.4297"/><ellipse cx="2639.5" cy="239.4297" fill="#B4A7E5" rx="11" ry="11" style="stroke:#181818;stroke-width:1.0;"/><path d="M2635.4219,235.1953 L2635.4219,233.0391 L2642.8125,233.0391 L2642.8125,235.1953 L2640.3438,235.1953 L2640.3438,243.2734 L2642.8125,243.2734 L2642.8125,245.4297 L2635.4219,245.4297 L2635.4219,243.2734 L2637.8906,243.2734 L2637.8906,235.1953 L2635.4219,235.1953 Z " fill="#000000"/><text fill="#000000" font-family="sans-serif" font-size="14" font-style="italic" lengthAdjust="spacing" textLength="202" x="2653.5" y="244.2764">ReviewSetCustomFieldAction</text><line style="stroke:#181818;stroke-width:0.5;" x1="2625.5" x2="2857.5" y1="255.4297" y2="255.4297"/><text fill="#000000" font-family="sans-serif" font-size="14" lengthAdjust="spacing" textLength="91" x="2630.5" y="272.4248">action: String</text><text fill="#000000" font-family="sans-serif" font-size="14" lengthAdjust="spacing" textLength="88" x="2630.5" y="288.7217">name: String</text><text fill="#000000" font-family="sans-serif" font-size="14" lengthAdjust="spacing" textLength="41" x="2630.5" y="305.0186">value:</text><a href="Object.svg" target="_top" title="Object.svg" xlink:actuate="onRequest" xlink:href="Object.svg" xlink:show="new" xlink:title="Object.svg" xlink:type="simple"><text fill="#0000FF" font-family="sans-serif" font-size="14" lengthAdjust="spacing" text-decoration="underline" textLength="45" x="2675.5" y="305.0186">Object</text></a></g></a><!--MD5=[e69348acfa436144969c24dc518a2e01]
class ReviewSetCustomTypeAction--><a href="ReviewSetCustomTypeAction.svg" target="_top" title="ReviewSetCustomTypeAction.svg" xlink:actuate="onRequest" xlink:href="ReviewSetCustomTypeAction.svg" xlink:show="new" xlink:title="ReviewSetCustomTypeAction.svg" xlink:type="simple"><g id="elem_ReviewSetCustomTypeAction"><rect codeLine="24" fill="#F1F1F1" height="88.8906" id="ReviewSetCustomTypeAction" rx="2.5" ry="2.5" style="stroke:#181818;stroke-width:0.5;" width="237" x="46.5" y="223.4297"/><ellipse cx="61.5" cy="239.4297" fill="#B4A7E5" rx="11" ry="11" style="stroke:#181818;stroke-width:1.0;"/><path d="M57.4219,235.1953 L57.4219,233.0391 L64.8125,233.0391 L64.8125,235.1953 L62.3438,235.1953 L62.3438,243.2734 L64.8125,243.2734 L64.8125,245.4297 L57.4219,245.4297 L57.4219,243.2734 L59.8906,243.2734 L59.8906,235.1953 L57.4219,235.1953 Z " fill="#000000"/><text fill="#000000" font-family="sans-serif" font-size="14" font-style="italic" lengthAdjust="spacing" textLength="205" x="75.5" y="244.2764">ReviewSetCustomTypeAction</text><line style="stroke:#181818;stroke-width:0.5;" x1="47.5" x2="282.5" y1="255.4297" y2="255.4297"/><text fill="#000000" font-family="sans-serif" font-size="14" lengthAdjust="spacing" textLength="91" x="52.5" y="272.4248">action: String</text><text fill="#000000" font-family="sans-serif" font-size="14" lengthAdjust="spacing" textLength="35" x="52.5" y="288.7217">type:</text><a href="TypeResourceIdentifier.svg" target="_top" title="TypeResourceIdentifier.svg" xlink:actuate="onRequest" xlink:href="TypeResourceIdentifier.svg" xlink:show="new" xlink:title="TypeResourceIdentifier.svg" xlink:type="simple"><text fill="#0000FF" font-family="sans-serif" font-size="14" lengthAdjust="spacing" text-decoration="underline" textLength="160" x="91.5" y="288.7217">TypeResourceIdentifier</text></a><text fill="#000000" font-family="sans-serif" font-size="14" lengthAdjust="spacing" textLength="41" x="52.5" y="305.0186">fields:</text><a href="FieldContainer.svg" target="_top" title="FieldContainer.svg" xlink:actuate="onRequest" xlink:href="FieldContainer.svg" xlink:show="new" xlink:title="FieldContainer.svg" xlink:type="simple"><text fill="#0000FF" font-family="sans-serif" font-size="14" lengthAdjust="spacing" text-decoration="underline" textLength="99" x="97.5" y="305.0186">FieldContainer</text></a></g></a><!--MD5=[7b01263776a597b9b38322ca687d8933]
class ReviewSetCustomerAction--><a href="ReviewSetCustomerAction.svg" target="_top" title="ReviewSetCustomerAction.svg" xlink:actuate="onRequest" xlink:href="ReviewSetCustomerAction.svg" xlink:show="new" xlink:title="ReviewSetCustomerAction.svg" xlink:type="simple"><g id="elem_ReviewSetCustomerAction"><rect codeLine="29" fill="#F1F1F1" height="72.5938" id="ReviewSetCustomerAction" rx="2.5" ry="2.5" style="stroke:#181818;stroke-width:0.5;" width="281" x="964.5" y="223.4297"/><ellipse cx="1008.75" cy="239.4297" fill="#B4A7E5" rx="11" ry="11" style="stroke:#181818;stroke-width:1.0;"/><path d="M1004.6719,235.1953 L1004.6719,233.0391 L1012.0625,233.0391 L1012.0625,235.1953 L1009.5938,235.1953 L1009.5938,243.2734 L1012.0625,243.2734 L1012.0625,245.4297 L1004.6719,245.4297 L1004.6719,243.2734 L1007.1406,243.2734 L1007.1406,235.1953 L1004.6719,235.1953 Z " fill="#000000"/><text fill="#000000" font-family="sans-serif" font-size="14" font-style="italic" lengthAdjust="spacing" textLength="184" x="1029.25" y="244.2764">ReviewSetCustomerAction</text><line style="stroke:#181818;stroke-width:0.5;" x1="965.5" x2="1244.5" y1="255.4297" y2="255.4297"/><text fill="#000000" font-family="sans-serif" font-size="14" lengthAdjust="spacing" textLength="91" x="970.5" y="272.4248">action: String</text><text fill="#000000" font-family="sans-serif" font-size="14" lengthAdjust="spacing" textLength="71" x="970.5" y="288.7217">customer:</text><a href="CustomerResourceIdentifier.svg" target="_top" title="CustomerResourceIdentifier.svg" xlink:actuate="onRequest" xlink:href="CustomerResourceIdentifier.svg" xlink:show="new" xlink:title="CustomerResourceIdentifier.svg" xlink:type="simple"><text fill="#0000FF" font-family="sans-serif" font-size="14" lengthAdjust="spacing" text-decoration="underline" textLength="194" x="1045.5" y="288.7217">CustomerResourceIdentifier</text></a></g></a><!--MD5=[1c956b25b966f5bb6f867523433a50e2]
class ReviewSetKeyAction--><a href="ReviewSetKeyAction.svg" target="_top" title="ReviewSetKeyAction.svg" xlink:actuate="onRequest" xlink:href="ReviewSetKeyAction.svg" xlink:show="new" xlink:title="ReviewSetKeyAction.svg" xlink:type="simple"><g id="elem_ReviewSetKeyAction"><rect codeLine="33" fill="#F1F1F1" height="72.5938" id="ReviewSetKeyAction" rx="2.5" ry="2.5" style="stroke:#181818;stroke-width:0.5;" width="175" x="1958.5" y="223.4297"/><ellipse cx="1973.5" cy="239.4297" fill="#B4A7E5" rx="11" ry="11" style="stroke:#181818;stroke-width:1.0;"/><path d="M1969.4219,235.1953 L1969.4219,233.0391 L1976.8125,233.0391 L1976.8125,235.1953 L1974.3438,235.1953 L1974.3438,243.2734 L1976.8125,243.2734 L1976.8125,245.4297 L1969.4219,245.4297 L1969.4219,243.2734 L1971.8906,243.2734 L1971.8906,235.1953 L1969.4219,235.1953 Z " fill="#000000"/><text fill="#000000" font-family="sans-serif" font-size="14" font-style="italic" lengthAdjust="spacing" textLength="143" x="1987.5" y="244.2764">ReviewSetKeyAction</text><line style="stroke:#181818;stroke-width:0.5;" x1="1959.5" x2="2132.5" y1="255.4297" y2="255.4297"/><text fill="#000000" font-family="sans-serif" font-size="14" lengthAdjust="spacing" textLength="91" x="1964.5" y="272.4248">action: String</text><text fill="#000000" font-family="sans-serif" font-size="14" lengthAdjust="spacing" textLength="73" x="1964.5" y="288.7217">key: String</text></g></a><!--MD5=[ad682b00982c1ac736653ddac6150e02]
class ReviewSetLocaleAction--><a href="ReviewSetLocaleAction.svg" target="_top" title="ReviewSetLocaleAction.svg" xlink:actuate="onRequest" xlink:href="ReviewSetLocaleAction.svg" xlink:show="new" xlink:title="ReviewSetLocaleAction.svg" xlink:type="simple"><g id="elem_ReviewSetLocaleAction"><rect codeLine="37" fill="#F1F1F1" height="72.5938" id="ReviewSetLocaleAction" rx="2.5" ry="2.5" style="stroke:#181818;stroke-width:0.5;" width="194" x="2153.5" y="223.4297"/><ellipse cx="2168.5" cy="239.4297" fill="#B4A7E5" rx="11" ry="11" style="stroke:#181818;stroke-width:1.0;"/><path d="M2164.4219,235.1953 L2164.4219,233.0391 L2171.8125,233.0391 L2171.8125,235.1953 L2169.3438,235.1953 L2169.3438,243.2734 L2171.8125,243.2734 L2171.8125,245.4297 L2164.4219,245.4297 L2164.4219,243.2734 L2166.8906,243.2734 L2166.8906,235.1953 L2164.4219,235.1953 Z " fill="#000000"/><text fill="#000000" font-family="sans-serif" font-size="14" font-style="italic" lengthAdjust="spacing" textLength="162" x="2182.5" y="244.2764">ReviewSetLocaleAction</text><line style="stroke:#181818;stroke-width:0.5;" x1="2154.5" x2="2346.5" y1="255.4297" y2="255.4297"/><text fill="#000000" font-family="sans-serif" font-size="14" lengthAdjust="spacing" textLength="91" x="2159.5" y="272.4248">action: String</text><text fill="#000000" font-family="sans-serif" font-size="14" lengthAdjust="spacing" textLength="89" x="2159.5" y="288.7217">locale: String</text></g></a><!--MD5=[3bd50cae97cbe1ed5a11a7183f346e35]
class ReviewSetRatingAction--><a href="ReviewSetRatingAction.svg" target="_top" title="ReviewSetRatingAction.svg" xlink:actuate="onRequest" xlink:href="ReviewSetRatingAction.svg" xlink:show="new" xlink:title="ReviewSetRatingAction.svg" xlink:type="simple"><g id="elem_ReviewSetRatingAction"><rect codeLine="41" fill="#F1F1F1" height="72.5938" id="ReviewSetRatingAction" rx="2.5" ry="2.5" style="stroke:#181818;stroke-width:0.5;" width="193" x="1745.5" y="223.4297"/><ellipse cx="1760.5" cy="239.4297" fill="#B4A7E5" rx="11" ry="11" style="stroke:#181818;stroke-width:1.0;"/><path d="M1756.4219,235.1953 L1756.4219,233.0391 L1763.8125,233.0391 L1763.8125,235.1953 L1761.3438,235.1953 L1761.3438,243.2734 L1763.8125,243.2734 L1763.8125,245.4297 L1756.4219,245.4297 L1756.4219,243.2734 L1758.8906,243.2734 L1758.8906,235.1953 L1756.4219,235.1953 Z " fill="#000000"/><text fill="#000000" font-family="sans-serif" font-size="14" font-style="italic" lengthAdjust="spacing" textLength="161" x="1774.5" y="244.2764">ReviewSetRatingAction</text><line style="stroke:#181818;stroke-width:0.5;" x1="1746.5" x2="1937.5" y1="255.4297" y2="255.4297"/><text fill="#000000" font-family="sans-serif" font-size="14" lengthAdjust="spacing" textLength="91" x="1751.5" y="272.4248">action: String</text><text fill="#000000" font-family="sans-serif" font-size="14" lengthAdjust="spacing" textLength="97" x="1751.5" y="288.7217">rating: Integer</text></g></a><!--MD5=[381577437d0157db38d86bb980f901a3]
class ReviewSetTargetAction--><a href="ReviewSetTargetAction.svg" target="_top" title="ReviewSetTargetAction.svg" xlink:actuate="onRequest" xlink:href="ReviewSetTargetAction.svg" xlink:show="new" xlink:title="ReviewSetTargetAction.svg" xlink:type="simple"><g id="elem_ReviewSetTargetAction"><rect codeLine="45" fill="#F1F1F1" height="72.5938" id="ReviewSetTargetAction" rx="2.5" ry="2.5" style="stroke:#181818;stroke-width:0.5;" width="194" x="552.5" y="223.4297"/><ellipse cx="567.5" cy="239.4297" fill="#B4A7E5" rx="11" ry="11" style="stroke:#181818;stroke-width:1.0;"/><path d="M563.4219,235.1953 L563.4219,233.0391 L570.8125,233.0391 L570.8125,235.1953 L568.3438,235.1953 L568.3438,243.2734 L570.8125,243.2734 L570.8125,245.4297 L563.4219,245.4297 L563.4219,243.2734 L565.8906,243.2734 L565.8906,235.1953 L563.4219,235.1953 Z " fill="#000000"/><text fill="#000000" font-family="sans-serif" font-size="14" font-style="italic" lengthAdjust="spacing" textLength="162" x="581.5" y="244.2764">ReviewSetTargetAction</text><line style="stroke:#181818;stroke-width:0.5;" x1="553.5" x2="745.5" y1="255.4297" y2="255.4297"/><text fill="#000000" font-family="sans-serif" font-size="14" lengthAdjust="spacing" textLength="91" x="558.5" y="272.4248">action: String</text><text fill="#000000" font-family="sans-serif" font-size="14" lengthAdjust="spacing" textLength="46" x="558.5" y="288.7217">target:</text><a href="Object.svg" target="_top" title="Object.svg" xlink:actuate="onRequest" xlink:href="Object.svg" xlink:show="new" xlink:title="Object.svg" xlink:type="simple"><text fill="#0000FF" font-family="sans-serif" font-size="14" lengthAdjust="spacing" text-decoration="underline" textLength="45" x="608.5" y="288.7217">Object</text></a></g></a><!--MD5=[0fad791aa078f6ebb80271ff4bf79b64]
class ReviewSetTextAction--><a href="ReviewSetTextAction.svg" target="_top" title="ReviewSetTextAction.svg" xlink:actuate="onRequest" xlink:href="ReviewSetTextAction.svg" xlink:show="new" xlink:title="ReviewSetTextAction.svg" xlink:type="simple"><g id="elem_ReviewSetTextAction"><rect codeLine="49" fill="#F1F1F1" height="72.5938" id="ReviewSetTextAction" rx="2.5" ry="2.5" style="stroke:#181818;stroke-width:0.5;" width="180" x="1265.5" y="223.4297"/><ellipse cx="1280.5" cy="239.4297" fill="#B4A7E5" rx="11" ry="11" style="stroke:#181818;stroke-width:1.0;"/><path d="M1276.4219,235.1953 L1276.4219,233.0391 L1283.8125,233.0391 L1283.8125,235.1953 L1281.3438,235.1953 L1281.3438,243.2734 L1283.8125,243.2734 L1283.8125,245.4297 L1276.4219,245.4297 L1276.4219,243.2734 L1278.8906,243.2734 L1278.8906,235.1953 L1276.4219,235.1953 Z " fill="#000000"/><text fill="#000000" font-family="sans-serif" font-size="14" font-style="italic" lengthAdjust="spacing" textLength="148" x="1294.5" y="244.2764">ReviewSetTextAction</text><line style="stroke:#181818;stroke-width:0.5;" x1="1266.5" x2="1444.5" y1="255.4297" y2="255.4297"/><text fill="#000000" font-family="sans-serif" font-size="14" lengthAdjust="spacing" textLength="91" x="1271.5" y="272.4248">action: String</text><text fill="#000000" font-family="sans-serif" font-size="14" lengthAdjust="spacing" textLength="75" x="1271.5" y="288.7217">text: String</text></g></a><!--MD5=[64ab5b82784e9961ce88aff3f7fb2db8]
class ReviewSetTitleAction--><a href="ReviewSetTitleAction.svg" target="_top" title="ReviewSetTitleAction.svg" xlink:actuate="onRequest" xlink:href="ReviewSetTitleAction.svg" xlink:show="new" xlink:title="ReviewSetTitleAction.svg" xlink:type="simple"><g id="elem_ReviewSetTitleAction"><rect codeLine="53" fill="#F1F1F1" height="72.5938" id="ReviewSetTitleAction" rx="2.5" ry="2.5" style="stroke:#181818;stroke-width:0.5;" width="178" x="766.5" y="223.4297"/><ellipse cx="781.5" cy="239.4297" fill="#B4A7E5" rx="11" ry="11" style="stroke:#181818;stroke-width:1.0;"/><path d="M777.4219,235.1953 L777.4219,233.0391 L784.8125,233.0391 L784.8125,235.1953 L782.3438,235.1953 L782.3438,243.2734 L784.8125,243.2734 L784.8125,245.4297 L777.4219,245.4297 L777.4219,243.2734 L779.8906,243.2734 L779.8906,235.1953 L777.4219,235.1953 Z " fill="#000000"/><text fill="#000000" font-family="sans-serif" font-size="14" font-style="italic" lengthAdjust="spacing" textLength="146" x="795.5" y="244.2764">ReviewSetTitleAction</text><line style="stroke:#181818;stroke-width:0.5;" x1="767.5" x2="943.5" y1="255.4297" y2="255.4297"/><text fill="#000000" font-family="sans-serif" font-size="14" lengthAdjust="spacing" textLength="91" x="772.5" y="272.4248">action: String</text><text fill="#000000" font-family="sans-serif" font-size="14" lengthAdjust="spacing" textLength="74" x="772.5" y="288.7217">title: String</text></g></a><!--MD5=[cbc068b9c4f9ed51ca726400cbcf3a9b]
class ReviewTransitionStateAction--><a href="ReviewTransitionStateAction.svg" target="_top" title="ReviewTransitionStateAction.svg" xlink:actuate="onRequest" xlink:href="ReviewTransitionStateAction.svg" xlink:show="new" xlink:title="ReviewTransitionStateAction.svg" xlink:type="simple"><g id="elem_ReviewTransitionStateAction"><rect codeLine="57" fill="#F1F1F1" height="88.8906" id="ReviewTransitionStateAction" rx="2.5" ry="2.5" style="stroke:#181818;stroke-width:0.5;" width="229" x="303.5" y="223.4297"/><ellipse cx="318.5" cy="239.4297" fill="#B4A7E5" rx="11" ry="11" style="stroke:#181818;stroke-width:1.0;"/><path d="M314.4219,235.1953 L314.4219,233.0391 L321.8125,233.0391 L321.8125,235.1953 L319.3438,235.1953 L319.3438,243.2734 L321.8125,243.2734 L321.8125,245.4297 L314.4219,245.4297 L314.4219,243.2734 L316.8906,243.2734 L316.8906,235.1953 L314.4219,235.1953 Z " fill="#000000"/><text fill="#000000" font-family="sans-serif" font-size="14" font-style="italic" lengthAdjust="spacing" textLength="197" x="332.5" y="244.2764">ReviewTransitionStateAction</text><line style="stroke:#181818;stroke-width:0.5;" x1="304.5" x2="531.5" y1="255.4297" y2="255.4297"/><text fill="#000000" font-family="sans-serif" font-size="14" lengthAdjust="spacing" textLength="91" x="309.5" y="272.4248">action: String</text><text fill="#000000" font-family="sans-serif" font-size="14" lengthAdjust="spacing" textLength="40" x="309.5" y="288.7217">state:</text><a href="StateResourceIdentifier.svg" target="_top" title="StateResourceIdentifier.svg" xlink:actuate="onRequest" xlink:href="StateResourceIdentifier.svg" xlink:show="new" xlink:title="StateResourceIdentifier.svg" xlink:type="simple"><text fill="#0000FF" font-family="sans-serif" font-size="14" lengthAdjust="spacing" text-decoration="underline" textLength="162" x="353.5" y="288.7217">StateResourceIdentifier</text></a><text fill="#000000" font-family="sans-serif" font-size="14" lengthAdjust="spacing" textLength="101" x="309.5" y="305.0186">force: Boolean</text></g></a><!--MD5=[f579aa870baadde814a396ac6875ca45]
class ReviewUpdate--><a href="ReviewUpdate.svg" target="_top" title="ReviewUpdate.svg" xlink:actuate="onRequest" xlink:href="ReviewUpdate.svg" xlink:show="new" xlink:title="ReviewUpdate.svg" xlink:type="simple"><g id="elem_ReviewUpdate"><rect codeLine="62" fill="#F1F1F1" height="72.5938" id="ReviewUpdate" rx="2.5" ry="2.5" style="stroke:#181818;stroke-width:0.5;" width="260" x="1465.5" y="223.4297"/><ellipse cx="1541.25" cy="239.4297" fill="#B4A7E5" rx="11" ry="11" style="stroke:#181818;stroke-width:1.0;"/><path d="M1537.1719,235.1953 L1537.1719,233.0391 L1544.5625,233.0391 L1544.5625,235.1953 L1542.0938,235.1953 L1542.0938,243.2734 L1544.5625,243.2734 L1544.5625,245.4297 L1537.1719,245.4297 L1537.1719,243.2734 L1539.6406,243.2734 L1539.6406,235.1953 L1537.1719,235.1953 Z " fill="#000000"/><text fill="#000000" font-family="sans-serif" font-size="14" font-style="italic" lengthAdjust="spacing" textLength="100" x="1561.75" y="244.2764">ReviewUpdate</text><line style="stroke:#181818;stroke-width:0.5;" x1="1466.5" x2="1724.5" y1="255.4297" y2="255.4297"/><text fill="#000000" font-family="sans-serif" font-size="14" lengthAdjust="spacing" textLength="93" x="1471.5" y="272.4248">version: Long</text><text fill="#000000" font-family="sans-serif" font-size="14" lengthAdjust="spacing" textLength="55" x="1471.5" y="288.7217">actions:</text><a href="ReviewUpdateAction.svg" target="_top" title="ReviewUpdateAction.svg" xlink:actuate="onRequest" xlink:href="ReviewUpdateAction.svg" xlink:show="new" xlink:title="ReviewUpdateAction.svg" xlink:type="simple"><text fill="#0000FF" font-family="sans-serif" font-size="14" lengthAdjust="spacing" text-decoration="underline" textLength="189" x="1530.5" y="288.7217">List&lt;ReviewUpdateAction&gt;</text></a></g></a><line style="stroke:#0000FF;stroke-width:1.0;" x1="300.3846" x2="300.3846" y1="68.2969" y2="88.2969"/><line style="stroke:#0000FF;stroke-width:1.0;" x1="300.3846" x2="2486" y1="88.2969" y2="88.2969"/><line style="stroke:#0000FF;stroke-width:1.0;" x1="2486" x2="2486" y1="88.2969" y2="223.4297"/><polygon fill="#0000FF" points="2486,223.4297,2490,214.4297,2486,218.4297,2482,214.4297,2486,223.4297" style="stroke:#0000FF;stroke-width:1.0;"/><text fill="#000000" font-family="sans-serif" font-size="13" lengthAdjust="spacing" textLength="153" x="2331" y="200.3638">action : setAuthorName</text><line style="stroke:#0000FF;stroke-width:1.0;" x1="313.9231" x2="313.9231" y1="68.2969" y2="78.2969"/><line style="stroke:#0000FF;stroke-width:1.0;" x1="313.9231" x2="2741.5" y1="78.2969" y2="78.2969"/><line style="stroke:#0000FF;stroke-width:1.0;" x1="2741.5" x2="2741.5" y1="78.2969" y2="223.4297"/><polygon fill="#0000FF" points="2741.5,223.4297,2745.5,214.4297,2741.5,218.4297,2737.5,214.4297,2741.5,223.4297" style="stroke:#0000FF;stroke-width:1.0;"/><text fill="#000000" font-family="sans-serif" font-size="13" lengthAdjust="spacing" textLength="150" x="2589.5" y="200.3638">action : setCustomField</text><line style="stroke:#0000FF;stroke-width:1.0;" x1="165" x2="165" y1="68.2969" y2="223.4297"/><polygon fill="#0000FF" points="165,223.4297,169,214.4297,165,218.4297,161,214.4297,165,223.4297" style="stroke:#0000FF;stroke-width:1.0;"/><text fill="#000000" font-family="sans-serif" font-size="13" lengthAdjust="spacing" textLength="151" x="12" y="200.3638">action : setCustomType</text><line style="stroke:#0000FF;stroke-width:1.0;" x1="219.1538" x2="219.1538" y1="68.2969" y2="148.2969"/><line style="stroke:#0000FF;stroke-width:1.0;" x1="219.1538" x2="1105" y1="148.2969" y2="148.2969"/><line style="stroke:#0000FF;stroke-width:1.0;" x1="1105" x2="1105" y1="148.2969" y2="223.4297"/><polygon fill="#0000FF" points="1105,223.4297,1109,214.4297,1105,218.4297,1101,214.4297,1105,223.4297" style="stroke:#0000FF;stroke-width:1.0;"/><text fill="#000000" font-family="sans-serif" font-size="13" lengthAdjust="spacing" textLength="134" x="969" y="200.3638">action : setCustomer</text><line style="stroke:#0000FF;stroke-width:1.0;" x1="273.3077" x2="273.3077" y1="68.2969" y2="108.2969"/><line style="stroke:#0000FF;stroke-width:1.0;" x1="273.3077" x2="2046" y1="108.2969" y2="108.2969"/><line style="stroke:#0000FF;stroke-width:1.0;" x1="2046" x2="2046" y1="108.2969" y2="223.4297"/><polygon fill="#0000FF" points="2046,223.4297,2050,214.4297,2046,218.4297,2042,214.4297,2046,223.4297" style="stroke:#0000FF;stroke-width:1.0;"/><text fill="#000000" font-family="sans-serif" font-size="13" lengthAdjust="spacing" textLength="94" x="1950" y="200.3638">action : setKey</text><line style="stroke:#0000FF;stroke-width:1.0;" x1="286.8462" x2="286.8462" y1="68.2969" y2="98.2969"/><line style="stroke:#0000FF;stroke-width:1.0;" x1="286.8462" x2="2250.5" y1="98.2969" y2="98.2969"/><line style="stroke:#0000FF;stroke-width:1.0;" x1="2250.5" x2="2250.5" y1="98.2969" y2="223.4297"/><polygon fill="#0000FF" points="2250.5,223.4297,2254.5,214.4297,2250.5,218.4297,2246.5,214.4297,2250.5,223.4297" style="stroke:#0000FF;stroke-width:1.0;"/><text fill="#000000" font-family="sans-serif" font-size="13" lengthAdjust="spacing" textLength="112" x="2136.5" y="200.3638">action : setLocale</text><line style="stroke:#0000FF;stroke-width:1.0;" x1="259.7692" x2="259.7692" y1="68.2969" y2="118.2969"/><line style="stroke:#0000FF;stroke-width:1.0;" x1="259.7692" x2="1842" y1="118.2969" y2="118.2969"/><line style="stroke:#0000FF;stroke-width:1.0;" x1="1842" x2="1842" y1="118.2969" y2="223.4297"/><polygon fill="#0000FF" points="1842,223.4297,1846,214.4297,1842,218.4297,1838,214.4297,1842,223.4297" style="stroke:#0000FF;stroke-width:1.0;"/><text fill="#000000" font-family="sans-serif" font-size="13" lengthAdjust="spacing" textLength="111" x="1729" y="200.3638">action : setRating</text><line style="stroke:#0000FF;stroke-width:1.0;" x1="192.0769" x2="192.0769" y1="68.2969" y2="168.2969"/><line style="stroke:#0000FF;stroke-width:1.0;" x1="192.0769" x2="649.5" y1="168.2969" y2="168.2969"/><line style="stroke:#0000FF;stroke-width:1.0;" x1="649.5" x2="649.5" y1="168.2969" y2="223.4297"/><polygon fill="#0000FF" points="649.5,223.4297,653.5,214.4297,649.5,218.4297,645.5,214.4297,649.5,223.4297" style="stroke:#0000FF;stroke-width:1.0;"/><text fill="#000000" font-family="sans-serif" font-size="13" lengthAdjust="spacing" textLength="112" x="535.5" y="200.3638">action : setTarget</text><line style="stroke:#0000FF;stroke-width:1.0;" x1="232.6923" x2="232.6923" y1="68.2969" y2="138.2969"/><line style="stroke:#0000FF;stroke-width:1.0;" x1="232.6923" x2="1355.5" y1="138.2969" y2="138.2969"/><line style="stroke:#0000FF;stroke-width:1.0;" x1="1355.5" x2="1355.5" y1="138.2969" y2="223.4297"/><polygon fill="#0000FF" points="1355.5,223.4297,1359.5,214.4297,1355.5,218.4297,1351.5,214.4297,1355.5,223.4297" style="stroke:#0000FF;stroke-width:1.0;"/><text fill="#000000" font-family="sans-serif" font-size="13" lengthAdjust="spacing" textLength="98" x="1255.5" y="200.3638">action : setText</text><line style="stroke:#0000FF;stroke-width:1.0;" x1="205.6154" x2="205.6154" y1="68.2969" y2="158.2969"/><line style="stroke:#0000FF;stroke-width:1.0;" x1="205.6154" x2="855.5" y1="158.2969" y2="158.2969"/><line style="stroke:#0000FF;stroke-width:1.0;" x1="855.5" x2="855.5" y1="158.2969" y2="223.4297"/><polygon fill="#0000FF" points="855.5,223.4297,859.5,214.4297,855.5,218.4297,851.5,214.4297,855.5,223.4297" style="stroke:#0000FF;stroke-width:1.0;"/><text fill="#000000" font-family="sans-serif" font-size="13" lengthAdjust="spacing" textLength="97" x="756.5" y="200.3638">action : setTitle</text><line style="stroke:#0000FF;stroke-width:1.0;" x1="178.5385" x2="178.5385" y1="68.2969" y2="178.2969"/><line style="stroke:#0000FF;stroke-width:1.0;" x1="178.5385" x2="418" y1="178.2969" y2="178.2969"/><line style="stroke:#0000FF;stroke-width:1.0;" x1="418" x2="418" y1="178.2969" y2="223.4297"/><polygon fill="#0000FF" points="418,223.4297,422,214.4297,418,218.4297,414,214.4297,418,223.4297" style="stroke:#0000FF;stroke-width:1.0;"/><text fill="#000000" font-family="sans-serif" font-size="13" lengthAdjust="spacing" textLength="146" x="270" y="200.3638">action : transitionState</text><line style="stroke:#008000;stroke-width:1.0;" x1="246.2308" x2="246.2308" y1="68.2969" y2="128.2969"/><line style="stroke:#008000;stroke-width:1.0;" x1="246.2308" x2="1595.5" y1="128.2969" y2="128.2969"/><line style="stroke:#008000;stroke-width:1.0;" x1="1595.5" x2="1595.5" y1="128.2969" y2="223.4297"/><polygon fill="#008000" points="1595.5,223.4297,1599.5,214.4297,1595.5,218.4297,1591.5,214.4297,1595.5,223.4297" style="stroke:#008000;stroke-width:1.0;"/><text fill="#000000" font-family="sans-serif" font-size="13" lengthAdjust="spacing" textLength="46" x="1547.5" y="200.3638">actions</text><rect fill="#DDDDDD" height="79.1875" id="_legend" rx="7.5" ry="7.5" style="stroke:#000000;stroke-width:1.0;" width="161" x="1342.25" y="313.3203"/><text fill="#000000" font-family="sans-serif" font-size="14" font-weight="bold" lengthAdjust="spacing" textLength="5" x="1347.25" y="333.3154"> </text><text fill="#000000" font-family="sans-serif" font-size="14" font-weight="bold" lengthAdjust="spacing" textLength="28" x="1364.25" y="333.3154">line</text><text fill="#000000" filter="url(#b1oge66sno25u40)" font-family="sans-serif" font-size="14" lengthAdjust="spacing" textLength="12" x="1347.25" y="349.6123">   </text><text fill="#000000" font-family="sans-serif" font-size="14" lengthAdjust="spacing" textLength="77" x="1363.25" y="349.6123">inheritance</text><text fill="#000000" filter="url(#b1oge66sno25u41)" font-family="sans-serif" font-size="14" lengthAdjust="spacing" textLength="12" x="1347.25" y="365.9092">   </text><text fill="#000000" font-family="sans-serif" font-size="14" lengthAdjust="spacing" textLength="129" x="1363.25" y="365.9092">property reference</text><text fill="#000000" filter="url(#b1oge66sno25u42)" font-family="sans-serif" font-size="14" lengthAdjust="spacing" textLength="12" x="1347.25" y="382.2061">   </text><text fill="#000000" font-family="sans-serif" font-size="14" lengthAdjust="spacing" textLength="131" x="1363.25" y="382.2061">discriminated class</text><line style="stroke:#000000;stroke-width:1.0;" x1="1347.25" x2="1498.25" y1="320.3203" y2="320.3203"/><line style="stroke:#000000;stroke-width:1.0;" x1="1347.25" x2="1498.25" y1="336.6172" y2="336.6172"/><line style="stroke:#000000;stroke-width:1.0;" x1="1347.25" x2="1498.25" y1="352.9141" y2="352.9141"/><line style="stroke:#000000;stroke-width:1.0;" x1="1347.25" x2="1498.25" y1="369.2109" y2="369.2109"/><line style="stroke:#000000;stroke-width:1.0;" x1="1347.25" x2="1498.25" y1="385.5078" y2="385.5078"/><line style="stroke:#000000;stroke-width:1.0;" x1="1347.25" x2="1347.25" y1="320.3203" y2="385.5078"/><line style="stroke:#000000;stroke-width:1.0;" x1="1359.25" x2="1359.25" y1="320.3203" y2="385.5078"/><line style="stroke:#000000;stroke-width:1.0;" x1="1498.25" x2="1498.25" y1="320.3203" y2="385.5078"/><!--MD5=[94ef096e090b1adda9d775609acf7e1c]
@startuml
!pragma layout elk
hide empty fields
hide empty methods
legend
|= |= line |
|<back:black>   </back>| inheritance |
|<back:green>   </back>| property reference |
|<back:blue>   </back>| discriminated class |
endlegend
interface ReviewUpdateAction [[ReviewUpdateAction.svg]]  {
    action: String
}


interface ReviewSetAuthorNameAction [[ReviewSetAuthorNameAction.svg]]  {
    action: String
    authorName: String
}
interface ReviewSetCustomFieldAction [[ReviewSetCustomFieldAction.svg]]  {
    action: String
    name: String
    value: [[Object.svg Object]]
}
interface ReviewSetCustomTypeAction [[ReviewSetCustomTypeAction.svg]]  {
    action: String
    type: [[TypeResourceIdentifier.svg TypeResourceIdentifier]]
    fields: [[FieldContainer.svg FieldContainer]]
}
interface ReviewSetCustomerAction [[ReviewSetCustomerAction.svg]]  {
    action: String
    customer: [[CustomerResourceIdentifier.svg CustomerResourceIdentifier]]
}
interface ReviewSetKeyAction [[ReviewSetKeyAction.svg]]  {
    action: String
    key: String
}
interface ReviewSetLocaleAction [[ReviewSetLocaleAction.svg]]  {
    action: String
    locale: String
}
interface ReviewSetRatingAction [[ReviewSetRatingAction.svg]]  {
    action: String
    rating: Integer
}
interface ReviewSetTargetAction [[ReviewSetTargetAction.svg]]  {
    action: String
    target: [[Object.svg Object]]
}
interface ReviewSetTextAction [[ReviewSetTextAction.svg]]  {
    action: String
    text: String
}
interface ReviewSetTitleAction [[ReviewSetTitleAction.svg]]  {
    action: String
    title: String
}
interface ReviewTransitionStateAction [[ReviewTransitionStateAction.svg]]  {
    action: String
    state: [[StateResourceIdentifier.svg StateResourceIdentifier]]
    force: Boolean
}
interface ReviewUpdate [[ReviewUpdate.svg]]  {
    version: Long
    actions: [[ReviewUpdateAction.svg List<ReviewUpdateAction>]]
}
ReviewUpdateAction - -> ReviewSetAuthorNameAction #blue;text:blue : "action : setAuthorName"
ReviewUpdateAction - -> ReviewSetCustomFieldAction #blue;text:blue : "action : setCustomField"
ReviewUpdateAction - -> ReviewSetCustomTypeAction #blue;text:blue : "action : setCustomType"
ReviewUpdateAction - -> ReviewSetCustomerAction #blue;text:blue : "action : setCustomer"
ReviewUpdateAction - -> ReviewSetKeyAction #blue;text:blue : "action : setKey"
ReviewUpdateAction - -> ReviewSetLocaleAction #blue;text:blue : "action : setLocale"
ReviewUpdateAction - -> ReviewSetRatingAction #blue;text:blue : "action : setRating"
ReviewUpdateAction - -> ReviewSetTargetAction #blue;text:blue : "action : setTarget"
ReviewUpdateAction - -> ReviewSetTextAction #blue;text:blue : "action : setText"
ReviewUpdateAction - -> ReviewSetTitleAction #blue;text:blue : "action : setTitle"
ReviewUpdateAction - -> ReviewTransitionStateAction #blue;text:blue : "action : transitionState"
ReviewUpdateAction - -> ReviewUpdate #green;text:green : "actions"
@enduml

PlantUML version 1.2022.13(Sat Nov 19 13:22:17 UTC 2022)
(GPL source distribution)
Java Runtime: OpenJDK Runtime Environment
JVM: OpenJDK 64-Bit Server VM
Default Encoding: UTF-8
Language: en
Country: null
--></g></svg>
