<?xml version="1.0" encoding="UTF-8" standalone="no"?><svg xmlns="http://www.w3.org/2000/svg" xmlns:xlink="http://www.w3.org/1999/xlink" contentStyleType="text/css" height="261px" preserveAspectRatio="none" style="width:252px;height:261px;background:#FFFFFF;" version="1.1" viewBox="0 0 252 261" width="252px" zoomAndPan="magnify"><defs><filter height="1" id="boj03k8ndgpav0" width="1" x="0" y="0"><feFlood flood-color="#000000" result="flood"/><feComposite in="SourceGraphic" in2="flood" operator="over"/></filter><filter height="1" id="boj03k8ndgpav1" width="1" x="0" y="0"><feFlood flood-color="#008000" result="flood"/><feComposite in="SourceGraphic" in2="flood" operator="over"/></filter><filter height="1" id="boj03k8ndgpav2" width="1" x="0" y="0"><feFlood flood-color="#0000FF" result="flood"/><feComposite in="SourceGraphic" in2="flood" operator="over"/></filter></defs><g><!--MD5=[2b033ecd904fb428daec175a5efdca09]
class ScoreShippingRateInputDraft--><a href="ScoreShippingRateInputDraft.svg" target="_top" title="ScoreShippingRateInputDraft.svg" xlink:actuate="onRequest" xlink:href="ScoreShippingRateInputDraft.svg" xlink:show="new" xlink:title="ScoreShippingRateInputDraft.svg" xlink:type="simple"><g id="elem_ScoreShippingRateInputDraft"><rect codeLine="10" fill="#F1F1F1" height="72.5938" id="ScoreShippingRateInputDraft" rx="2.5" ry="2.5" style="stroke:#181818;stroke-width:0.5;" width="233" x="12" y="88.2969"/><ellipse cx="27" cy="104.2969" fill="#B4A7E5" rx="11" ry="11" style="stroke:#181818;stroke-width:1.0;"/><path d="M22.9219,100.0625 L22.9219,97.9063 L30.3125,97.9063 L30.3125,100.0625 L27.8438,100.0625 L27.8438,108.1406 L30.3125,108.1406 L30.3125,110.2969 L22.9219,110.2969 L22.9219,108.1406 L25.3906,108.1406 L25.3906,100.0625 L22.9219,100.0625 Z " fill="#000000"/><text fill="#000000" font-family="sans-serif" font-size="14" font-style="italic" lengthAdjust="spacing" textLength="201" x="41" y="109.1436">ScoreShippingRateInputDraft</text><line style="stroke:#181818;stroke-width:0.5;" x1="13" x2="244" y1="120.2969" y2="120.2969"/><text fill="#000000" font-family="sans-serif" font-size="14" lengthAdjust="spacing" textLength="79" x="18" y="137.292">type: String</text><text fill="#000000" font-family="sans-serif" font-size="14" lengthAdjust="spacing" textLength="82" x="18" y="153.5889">score: Long</text></g></a><!--MD5=[e692c231e7ff44c51a241d5ce8dd48c7]
class ShippingRateInputDraft--><a href="ShippingRateInputDraft.svg" target="_top" title="ShippingRateInputDraft.svg" xlink:actuate="onRequest" xlink:href="ShippingRateInputDraft.svg" xlink:show="new" xlink:title="ShippingRateInputDraft.svg" xlink:type="simple"><g id="elem_ShippingRateInputDraft"><rect codeLine="14" fill="#F1F1F1" height="56.2969" id="ShippingRateInputDraft" rx="2.5" ry="2.5" style="stroke:#181818;stroke-width:0.5;" width="193" x="32" y="12"/><ellipse cx="47" cy="28" fill="#B4A7E5" rx="11" ry="11" style="stroke:#181818;stroke-width:1.0;"/><path d="M42.9219,23.7656 L42.9219,21.6094 L50.3125,21.6094 L50.3125,23.7656 L47.8438,23.7656 L47.8438,31.8438 L50.3125,31.8438 L50.3125,34 L42.9219,34 L42.9219,31.8438 L45.3906,31.8438 L45.3906,23.7656 L42.9219,23.7656 Z " fill="#000000"/><text fill="#000000" font-family="sans-serif" font-size="14" font-style="italic" lengthAdjust="spacing" textLength="161" x="61" y="32.8467">ShippingRateInputDraft</text><line style="stroke:#181818;stroke-width:0.5;" x1="33" x2="224" y1="44" y2="44"/><text fill="#000000" font-family="sans-serif" font-size="14" lengthAdjust="spacing" textLength="79" x="38" y="60.9951">type: String</text></g></a><line style="stroke:#181818;stroke-width:1.0;" x1="128.5" x2="128.5" y1="68.2969" y2="88.2969"/><polygon fill="#FFFFFF" points="128.5,68.2969,121.5,87.2969,135.5,87.2969,128.5,68.2969" style="stroke:#181818;stroke-width:1.0;"/><rect fill="#DDDDDD" height="79.1875" id="_legend" rx="7.5" ry="7.5" style="stroke:#000000;stroke-width:1.0;" width="161" x="36" y="161.8906"/><text fill="#000000" font-family="sans-serif" font-size="14" font-weight="bold" lengthAdjust="spacing" textLength="5" x="41" y="181.8857"> </text><text fill="#000000" font-family="sans-serif" font-size="14" font-weight="bold" lengthAdjust="spacing" textLength="28" x="58" y="181.8857">line</text><text fill="#000000" filter="url(#boj03k8ndgpav0)" font-family="sans-serif" font-size="14" lengthAdjust="spacing" textLength="12" x="41" y="198.1826">   </text><text fill="#000000" font-family="sans-serif" font-size="14" lengthAdjust="spacing" textLength="77" x="57" y="198.1826">inheritance</text><text fill="#000000" filter="url(#boj03k8ndgpav1)" font-family="sans-serif" font-size="14" lengthAdjust="spacing" textLength="12" x="41" y="214.4795">   </text><text fill="#000000" font-family="sans-serif" font-size="14" lengthAdjust="spacing" textLength="129" x="57" y="214.4795">property reference</text><text fill="#000000" filter="url(#boj03k8ndgpav2)" font-family="sans-serif" font-size="14" lengthAdjust="spacing" textLength="12" x="41" y="230.7764">   </text><text fill="#000000" font-family="sans-serif" font-size="14" lengthAdjust="spacing" textLength="131" x="57" y="230.7764">discriminated class</text><line style="stroke:#000000;stroke-width:1.0;" x1="41" x2="192" y1="168.8906" y2="168.8906"/><line style="stroke:#000000;stroke-width:1.0;" x1="41" x2="192" y1="185.1875" y2="185.1875"/><line style="stroke:#000000;stroke-width:1.0;" x1="41" x2="192" y1="201.4844" y2="201.4844"/><line style="stroke:#000000;stroke-width:1.0;" x1="41" x2="192" y1="217.7813" y2="217.7813"/><line style="stroke:#000000;stroke-width:1.0;" x1="41" x2="192" y1="234.0781" y2="234.0781"/><line style="stroke:#000000;stroke-width:1.0;" x1="41" x2="41" y1="168.8906" y2="234.0781"/><line style="stroke:#000000;stroke-width:1.0;" x1="53" x2="53" y1="168.8906" y2="234.0781"/><line style="stroke:#000000;stroke-width:1.0;" x1="192" x2="192" y1="168.8906" y2="234.0781"/><!--MD5=[a9d677981d861aaa8227461d427d7f64]
@startuml
!pragma layout elk
hide empty fields
hide empty methods
legend
|= |= line |
|<back:black>   </back>| inheritance |
|<back:green>   </back>| property reference |
|<back:blue>   </back>| discriminated class |
endlegend
interface ScoreShippingRateInputDraft [[ScoreShippingRateInputDraft.svg]] extends ShippingRateInputDraft {
    type: String
    score: Long
}
interface ShippingRateInputDraft [[ShippingRateInputDraft.svg]]  {
    type: String
}





@enduml

PlantUML version 1.2022.13(Sat Nov 19 13:22:17 UTC 2022)
(GPL source distribution)
Java Runtime: OpenJDK Runtime Environment
JVM: OpenJDK 64-Bit Server VM
Default Encoding: UTF-8
Language: en
Country: null
--></g></svg>
