<?xml version="1.0" encoding="UTF-8" standalone="no"?><svg xmlns="http://www.w3.org/2000/svg" xmlns:xlink="http://www.w3.org/1999/xlink" contentStyleType="text/css" height="271px" preserveAspectRatio="none" style="width:395px;height:271px;background:#FFFFFF;" version="1.1" viewBox="0 0 395 271" width="395px" zoomAndPan="magnify"><defs><filter height="1" id="b52l1cj5pfanq0" width="1" x="0" y="0"><feFlood flood-color="#000000" result="flood"/><feComposite in="SourceGraphic" in2="flood" operator="over"/></filter><filter height="1" id="b52l1cj5pfanq1" width="1" x="0" y="0"><feFlood flood-color="#008000" result="flood"/><feComposite in="SourceGraphic" in2="flood" operator="over"/></filter><filter height="1" id="b52l1cj5pfanq2" width="1" x="0" y="0"><feFlood flood-color="#0000FF" result="flood"/><feComposite in="SourceGraphic" in2="flood" operator="over"/></filter></defs><g><!--MD5=[ceae8c265dbac70f16a99edf9c6e4ab6]
class SearchKeyword--><a href="SearchKeyword.svg" target="_top" title="SearchKeyword.svg" xlink:actuate="onRequest" xlink:href="SearchKeyword.svg" xlink:show="new" xlink:title="SearchKeyword.svg" xlink:type="simple"><g id="elem_SearchKeyword"><rect codeLine="10" fill="#F1F1F1" height="72.5938" id="SearchKeyword" rx="2.5" ry="2.5" style="stroke:#181818;stroke-width:0.5;" width="274" x="83.6667" y="12"/><ellipse cx="162.4167" cy="28" fill="#B4A7E5" rx="11" ry="11" style="stroke:#181818;stroke-width:1.0;"/><path d="M158.3385,23.7656 L158.3385,21.6094 L165.7292,21.6094 L165.7292,23.7656 L163.2604,23.7656 L163.2604,31.8438 L165.7292,31.8438 L165.7292,34 L158.3385,34 L158.3385,31.8438 L160.8073,31.8438 L160.8073,23.7656 L158.3385,23.7656 Z " fill="#000000"/><text fill="#000000" font-family="sans-serif" font-size="14" font-style="italic" lengthAdjust="spacing" textLength="108" x="182.9167" y="32.8467">SearchKeyword</text><line style="stroke:#181818;stroke-width:0.5;" x1="84.6667" x2="356.6667" y1="44" y2="44"/><text fill="#000000" font-family="sans-serif" font-size="14" lengthAdjust="spacing" textLength="75" x="89.6667" y="60.9951">text: String</text><text fill="#000000" font-family="sans-serif" font-size="14" lengthAdjust="spacing" textLength="131" x="89.6667" y="77.292">suggestTokenizer:</text><a href="SuggestTokenizer.svg" target="_top" title="SuggestTokenizer.svg" xlink:actuate="onRequest" xlink:href="SuggestTokenizer.svg" xlink:show="new" xlink:title="SuggestTokenizer.svg" xlink:type="simple"><text fill="#0000FF" font-family="sans-serif" font-size="14" lengthAdjust="spacing" text-decoration="underline" textLength="127" x="224.6667" y="77.292">SuggestTokenizer</text></a></g></a><!--MD5=[283e44f9ea22581ba0974c37fa760759]
class SearchKeywords--><a href="SearchKeywords.svg" target="_top" title="SearchKeywords.svg" xlink:actuate="onRequest" xlink:href="SearchKeywords.svg" xlink:show="new" xlink:title="SearchKeywords.svg" xlink:type="simple"><g id="elem_SearchKeywords"><rect codeLine="17" fill="#F1F1F1" height="32" id="SearchKeywords" rx="2.5" ry="2.5" style="stroke:#181818;stroke-width:0.5;" width="147" x="126" y="139.7266"/><ellipse cx="141" cy="155.7266" fill="#B4A7E5" rx="11" ry="11" style="stroke:#181818;stroke-width:1.0;"/><path d="M136.9219,151.4922 L136.9219,149.3359 L144.3125,149.3359 L144.3125,151.4922 L141.8438,151.4922 L141.8438,159.5703 L144.3125,159.5703 L144.3125,161.7266 L136.9219,161.7266 L136.9219,159.5703 L139.3906,159.5703 L139.3906,151.4922 L136.9219,151.4922 Z " fill="#000000"/><text fill="#000000" font-family="sans-serif" font-size="14" font-style="italic" lengthAdjust="spacing" textLength="115" x="155" y="160.5732">SearchKeywords</text></g></a><line style="stroke:#008000;stroke-width:1.0;" x1="266.3333" x2="266.3333" y1="84.5938" y2="94.5938"/><line style="stroke:#008000;stroke-width:1.0;" x1="266.3333" x2="224" y1="94.5938" y2="94.5938"/><line style="stroke:#008000;stroke-width:1.0;" x1="224" x2="224" y1="94.5938" y2="139.7266"/><polygon fill="#008000" points="224,139.7266,228,130.7266,224,134.7266,220,130.7266,224,139.7266" style="stroke:#008000;stroke-width:1.0;"/><text fill="#000000" font-family="sans-serif" font-size="13" lengthAdjust="spacing" textLength="161" x="227" y="116.6606">/^[a-z]{2}(-[A-Z]{2})?$/</text><line style="stroke:#008000;stroke-width:1.0;" x1="175" x2="175" y1="84.5938" y2="139.7266"/><polygon fill="#008000" points="175,139.7266,179,130.7266,175,134.7266,171,130.7266,175,139.7266" style="stroke:#008000;stroke-width:1.0;"/><text fill="#000000" font-family="sans-serif" font-size="13" lengthAdjust="spacing" textLength="161" x="12" y="116.6606">/^[a-z]{2}(-[A-Z]{2})?$/</text><rect fill="#DDDDDD" height="79.1875" id="_legend" rx="7.5" ry="7.5" style="stroke:#000000;stroke-width:1.0;" width="161" x="107" y="172.7266"/><text fill="#000000" font-family="sans-serif" font-size="14" font-weight="bold" lengthAdjust="spacing" textLength="5" x="112" y="192.7217"> </text><text fill="#000000" font-family="sans-serif" font-size="14" font-weight="bold" lengthAdjust="spacing" textLength="28" x="129" y="192.7217">line</text><text fill="#000000" filter="url(#b52l1cj5pfanq0)" font-family="sans-serif" font-size="14" lengthAdjust="spacing" textLength="12" x="112" y="209.0186">   </text><text fill="#000000" font-family="sans-serif" font-size="14" lengthAdjust="spacing" textLength="77" x="128" y="209.0186">inheritance</text><text fill="#000000" filter="url(#b52l1cj5pfanq1)" font-family="sans-serif" font-size="14" lengthAdjust="spacing" textLength="12" x="112" y="225.3154">   </text><text fill="#000000" font-family="sans-serif" font-size="14" lengthAdjust="spacing" textLength="129" x="128" y="225.3154">property reference</text><text fill="#000000" filter="url(#b52l1cj5pfanq2)" font-family="sans-serif" font-size="14" lengthAdjust="spacing" textLength="12" x="112" y="241.6123">   </text><text fill="#000000" font-family="sans-serif" font-size="14" lengthAdjust="spacing" textLength="131" x="128" y="241.6123">discriminated class</text><line style="stroke:#000000;stroke-width:1.0;" x1="112" x2="263" y1="179.7266" y2="179.7266"/><line style="stroke:#000000;stroke-width:1.0;" x1="112" x2="263" y1="196.0234" y2="196.0234"/><line style="stroke:#000000;stroke-width:1.0;" x1="112" x2="263" y1="212.3203" y2="212.3203"/><line style="stroke:#000000;stroke-width:1.0;" x1="112" x2="263" y1="228.6172" y2="228.6172"/><line style="stroke:#000000;stroke-width:1.0;" x1="112" x2="263" y1="244.9141" y2="244.9141"/><line style="stroke:#000000;stroke-width:1.0;" x1="112" x2="112" y1="179.7266" y2="244.9141"/><line style="stroke:#000000;stroke-width:1.0;" x1="124" x2="124" y1="179.7266" y2="244.9141"/><line style="stroke:#000000;stroke-width:1.0;" x1="263" x2="263" y1="179.7266" y2="244.9141"/><!--MD5=[f37e923e1a5a1cc6103f3b77a09e3bc5]
@startuml
!pragma layout elk
hide empty fields
hide empty methods
legend
|= |= line |
|<back:black>   </back>| inheritance |
|<back:green>   </back>| property reference |
|<back:blue>   </back>| discriminated class |
endlegend
interface SearchKeyword [[SearchKeyword.svg]]  {
    text: String
    suggestTokenizer: [[SuggestTokenizer.svg SuggestTokenizer]]
}



interface SearchKeywords [[SearchKeywords.svg]]  {
}

SearchKeyword - -> SearchKeywords #green;text:green : "/^[a-z]{2}(-[A-Z]{2})?$/"
SearchKeyword - -> SearchKeywords #green;text:green : "/^[a-z]{2}(-[A-Z]{2})?$/"
@enduml

PlantUML version 1.2022.13(Sat Nov 19 13:22:17 UTC 2022)
(GPL source distribution)
Java Runtime: OpenJDK Runtime Environment
JVM: OpenJDK 64-Bit Server VM
Default Encoding: UTF-8
Language: en
Country: null
--></g></svg>
