<?xml version="1.0" encoding="UTF-8" standalone="no"?><svg xmlns="http://www.w3.org/2000/svg" xmlns:xlink="http://www.w3.org/1999/xlink" contentStyleType="text/css" height="220px" preserveAspectRatio="none" style="width:216px;height:220px;background:#FFFFFF;" version="1.1" viewBox="0 0 216 220" width="216px" zoomAndPan="magnify"><defs><filter height="1" id="b1i2atu5z8qr8d0" width="1" x="0" y="0"><feFlood flood-color="#000000" result="flood"/><feComposite in="SourceGraphic" in2="flood" operator="over"/></filter><filter height="1" id="b1i2atu5z8qr8d1" width="1" x="0" y="0"><feFlood flood-color="#008000" result="flood"/><feComposite in="SourceGraphic" in2="flood" operator="over"/></filter><filter height="1" id="b1i2atu5z8qr8d2" width="1" x="0" y="0"><feFlood flood-color="#0000FF" result="flood"/><feComposite in="SourceGraphic" in2="flood" operator="over"/></filter></defs><g><!--MD5=[5386a26152649642ebb81fea90a40bd9]
class SearchExactExpression--><a href="SearchExactExpression.svg" target="_top" title="SearchExactExpression.svg" xlink:actuate="onRequest" xlink:href="SearchExactExpression.svg" xlink:show="new" xlink:title="SearchExactExpression.svg" xlink:type="simple"><g id="elem_SearchExactExpression"><rect codeLine="10" fill="#F1F1F1" height="56.2969" id="SearchExactExpression" rx="2.5" ry="2.5" style="stroke:#181818;stroke-width:0.5;" width="193" x="14" y="64"/><ellipse cx="29" cy="80" fill="#B4A7E5" rx="11" ry="11" style="stroke:#181818;stroke-width:1.0;"/><path d="M24.9219,75.7656 L24.9219,73.6094 L32.3125,73.6094 L32.3125,75.7656 L29.8438,75.7656 L29.8438,83.8438 L32.3125,83.8438 L32.3125,86 L24.9219,86 L24.9219,83.8438 L27.3906,83.8438 L27.3906,75.7656 L24.9219,75.7656 Z " fill="#000000"/><text fill="#000000" font-family="sans-serif" font-size="14" font-style="italic" lengthAdjust="spacing" textLength="161" x="43" y="84.8467">SearchExactExpression</text><line style="stroke:#181818;stroke-width:0.5;" x1="15" x2="206" y1="96" y2="96"/><text fill="#000000" font-family="sans-serif" font-size="14" lengthAdjust="spacing" textLength="42" x="20" y="112.9951">exact:</text><a href="SearchExactValue.svg" target="_top" title="SearchExactValue.svg" xlink:actuate="onRequest" xlink:href="SearchExactValue.svg" xlink:show="new" xlink:title="SearchExactValue.svg" xlink:type="simple"><text fill="#0000FF" font-family="sans-serif" font-size="14" lengthAdjust="spacing" text-decoration="underline" textLength="123" x="66" y="112.9951">SearchExactValue</text></a></g></a><!--MD5=[817646fbcac824ff7503c022e5b4c89c]
class SearchQueryExpression--><a href="SearchQueryExpression.svg" target="_top" title="SearchQueryExpression.svg" xlink:actuate="onRequest" xlink:href="SearchQueryExpression.svg" xlink:show="new" xlink:title="SearchQueryExpression.svg" xlink:type="simple"><g id="elem_SearchQueryExpression"><rect codeLine="13" fill="#F1F1F1" height="32" id="SearchQueryExpression" rx="2.5" ry="2.5" style="stroke:#181818;stroke-width:0.5;" width="197" x="12" y="12"/><ellipse cx="27" cy="28" fill="#B4A7E5" rx="11" ry="11" style="stroke:#181818;stroke-width:1.0;"/><path d="M22.9219,23.7656 L22.9219,21.6094 L30.3125,21.6094 L30.3125,23.7656 L27.8438,23.7656 L27.8438,31.8438 L30.3125,31.8438 L30.3125,34 L22.9219,34 L22.9219,31.8438 L25.3906,31.8438 L25.3906,23.7656 L22.9219,23.7656 Z " fill="#000000"/><text fill="#000000" font-family="sans-serif" font-size="14" font-style="italic" lengthAdjust="spacing" textLength="165" x="41" y="32.8467">SearchQueryExpression</text></g></a><line style="stroke:#181818;stroke-width:1.0;" x1="110.5" x2="110.5" y1="44" y2="64"/><polygon fill="#FFFFFF" points="110.5,44,103.5,63,117.5,63,110.5,44" style="stroke:#181818;stroke-width:1.0;"/><rect fill="#DDDDDD" height="79.1875" id="_legend" rx="7.5" ry="7.5" style="stroke:#000000;stroke-width:1.0;" width="161" x="18" y="121.2969"/><text fill="#000000" font-family="sans-serif" font-size="14" font-weight="bold" lengthAdjust="spacing" textLength="5" x="23" y="141.292"> </text><text fill="#000000" font-family="sans-serif" font-size="14" font-weight="bold" lengthAdjust="spacing" textLength="28" x="40" y="141.292">line</text><text fill="#000000" filter="url(#b1i2atu5z8qr8d0)" font-family="sans-serif" font-size="14" lengthAdjust="spacing" textLength="12" x="23" y="157.5889">   </text><text fill="#000000" font-family="sans-serif" font-size="14" lengthAdjust="spacing" textLength="77" x="39" y="157.5889">inheritance</text><text fill="#000000" filter="url(#b1i2atu5z8qr8d1)" font-family="sans-serif" font-size="14" lengthAdjust="spacing" textLength="12" x="23" y="173.8857">   </text><text fill="#000000" font-family="sans-serif" font-size="14" lengthAdjust="spacing" textLength="129" x="39" y="173.8857">property reference</text><text fill="#000000" filter="url(#b1i2atu5z8qr8d2)" font-family="sans-serif" font-size="14" lengthAdjust="spacing" textLength="12" x="23" y="190.1826">   </text><text fill="#000000" font-family="sans-serif" font-size="14" lengthAdjust="spacing" textLength="131" x="39" y="190.1826">discriminated class</text><line style="stroke:#000000;stroke-width:1.0;" x1="23" x2="174" y1="128.2969" y2="128.2969"/><line style="stroke:#000000;stroke-width:1.0;" x1="23" x2="174" y1="144.5938" y2="144.5938"/><line style="stroke:#000000;stroke-width:1.0;" x1="23" x2="174" y1="160.8906" y2="160.8906"/><line style="stroke:#000000;stroke-width:1.0;" x1="23" x2="174" y1="177.1875" y2="177.1875"/><line style="stroke:#000000;stroke-width:1.0;" x1="23" x2="174" y1="193.4844" y2="193.4844"/><line style="stroke:#000000;stroke-width:1.0;" x1="23" x2="23" y1="128.2969" y2="193.4844"/><line style="stroke:#000000;stroke-width:1.0;" x1="35" x2="35" y1="128.2969" y2="193.4844"/><line style="stroke:#000000;stroke-width:1.0;" x1="174" x2="174" y1="128.2969" y2="193.4844"/><!--MD5=[6f4e0392e552d1dd891e8c900bf751d6]
@startuml
!pragma layout elk
hide empty fields
hide empty methods
legend
|= |= line |
|<back:black>   </back>| inheritance |
|<back:green>   </back>| property reference |
|<back:blue>   </back>| discriminated class |
endlegend
interface SearchExactExpression [[SearchExactExpression.svg]] extends SearchQueryExpression {
    exact: [[SearchExactValue.svg SearchExactValue]]
}
interface SearchQueryExpression [[SearchQueryExpression.svg]]  {
}





@enduml

PlantUML version 1.2022.13(Sat Nov 19 13:22:17 UTC 2022)
(GPL source distribution)
Java Runtime: OpenJDK Runtime Environment
JVM: OpenJDK 64-Bit Server VM
Default Encoding: UTF-8
Language: en
Country: null
--></g></svg>
