<?xml version="1.0" encoding="UTF-8" standalone="no"?><svg xmlns="http://www.w3.org/2000/svg" xmlns:xlink="http://www.w3.org/1999/xlink" contentStyleType="text/css" height="220px" preserveAspectRatio="none" style="width:251px;height:220px;background:#FFFFFF;" version="1.1" viewBox="0 0 251 220" width="251px" zoomAndPan="magnify"><defs><filter height="1" id="bxhgw426wzop20" width="1" x="0" y="0"><feFlood flood-color="#000000" result="flood"/><feComposite in="SourceGraphic" in2="flood" operator="over"/></filter><filter height="1" id="bxhgw426wzop21" width="1" x="0" y="0"><feFlood flood-color="#008000" result="flood"/><feComposite in="SourceGraphic" in2="flood" operator="over"/></filter><filter height="1" id="bxhgw426wzop22" width="1" x="0" y="0"><feFlood flood-color="#0000FF" result="flood"/><feComposite in="SourceGraphic" in2="flood" operator="over"/></filter></defs><g><!--MD5=[988ec72dc2dde6415adb21b31f4c4091]
class SearchOrExpression--><a href="SearchOrExpression.svg" target="_top" title="SearchOrExpression.svg" xlink:actuate="onRequest" xlink:href="SearchOrExpression.svg" xlink:show="new" xlink:title="SearchOrExpression.svg" xlink:type="simple"><g id="elem_SearchOrExpression"><rect codeLine="10" fill="#F1F1F1" height="56.2969" id="SearchOrExpression" rx="2.5" ry="2.5" style="stroke:#181818;stroke-width:0.5;" width="171" x="42.5" y="64"/><ellipse cx="57.5" cy="80" fill="#B4A7E5" rx="11" ry="11" style="stroke:#181818;stroke-width:1.0;"/><path d="M53.4219,75.7656 L53.4219,73.6094 L60.8125,73.6094 L60.8125,75.7656 L58.3438,75.7656 L58.3438,83.8438 L60.8125,83.8438 L60.8125,86 L53.4219,86 L53.4219,83.8438 L55.8906,83.8438 L55.8906,75.7656 L53.4219,75.7656 Z " fill="#000000"/><text fill="#000000" font-family="sans-serif" font-size="14" font-style="italic" lengthAdjust="spacing" textLength="139" x="71.5" y="84.8467">SearchOrExpression</text><line style="stroke:#181818;stroke-width:0.5;" x1="43.5" x2="212.5" y1="96" y2="96"/><text fill="#000000" font-family="sans-serif" font-size="14" lengthAdjust="spacing" textLength="19" x="48.5" y="112.9951">or:</text><a href="SearchQuery.svg" target="_top" title="SearchQuery.svg" xlink:actuate="onRequest" xlink:href="SearchQuery.svg" xlink:show="new" xlink:title="SearchQuery.svg" xlink:type="simple"><text fill="#0000FF" font-family="sans-serif" font-size="14" lengthAdjust="spacing" text-decoration="underline" textLength="136" x="71.5" y="112.9951">List&lt;SearchQuery&gt;</text></a></g></a><!--MD5=[642b5bdcf0ec18e742db84ffc9f2061b]
class SearchCompoundExpression--><a href="SearchCompoundExpression.svg" target="_top" title="SearchCompoundExpression.svg" xlink:actuate="onRequest" xlink:href="SearchCompoundExpression.svg" xlink:show="new" xlink:title="SearchCompoundExpression.svg" xlink:type="simple"><g id="elem_SearchCompoundExpression"><rect codeLine="13" fill="#F1F1F1" height="32" id="SearchCompoundExpression" rx="2.5" ry="2.5" style="stroke:#181818;stroke-width:0.5;" width="232" x="12" y="12"/><ellipse cx="27" cy="28" fill="#B4A7E5" rx="11" ry="11" style="stroke:#181818;stroke-width:1.0;"/><path d="M22.9219,23.7656 L22.9219,21.6094 L30.3125,21.6094 L30.3125,23.7656 L27.8438,23.7656 L27.8438,31.8438 L30.3125,31.8438 L30.3125,34 L22.9219,34 L22.9219,31.8438 L25.3906,31.8438 L25.3906,23.7656 L22.9219,23.7656 Z " fill="#000000"/><text fill="#000000" font-family="sans-serif" font-size="14" font-style="italic" lengthAdjust="spacing" textLength="200" x="41" y="32.8467">SearchCompoundExpression</text></g></a><line style="stroke:#181818;stroke-width:1.0;" x1="128" x2="128" y1="44" y2="64"/><polygon fill="#FFFFFF" points="128,44,121,63,135,63,128,44" style="stroke:#181818;stroke-width:1.0;"/><rect fill="#DDDDDD" height="79.1875" id="_legend" rx="7.5" ry="7.5" style="stroke:#000000;stroke-width:1.0;" width="161" x="35.5" y="121.2969"/><text fill="#000000" font-family="sans-serif" font-size="14" font-weight="bold" lengthAdjust="spacing" textLength="5" x="40.5" y="141.292"> </text><text fill="#000000" font-family="sans-serif" font-size="14" font-weight="bold" lengthAdjust="spacing" textLength="28" x="57.5" y="141.292">line</text><text fill="#000000" filter="url(#bxhgw426wzop20)" font-family="sans-serif" font-size="14" lengthAdjust="spacing" textLength="12" x="40.5" y="157.5889">   </text><text fill="#000000" font-family="sans-serif" font-size="14" lengthAdjust="spacing" textLength="77" x="56.5" y="157.5889">inheritance</text><text fill="#000000" filter="url(#bxhgw426wzop21)" font-family="sans-serif" font-size="14" lengthAdjust="spacing" textLength="12" x="40.5" y="173.8857">   </text><text fill="#000000" font-family="sans-serif" font-size="14" lengthAdjust="spacing" textLength="129" x="56.5" y="173.8857">property reference</text><text fill="#000000" filter="url(#bxhgw426wzop22)" font-family="sans-serif" font-size="14" lengthAdjust="spacing" textLength="12" x="40.5" y="190.1826">   </text><text fill="#000000" font-family="sans-serif" font-size="14" lengthAdjust="spacing" textLength="131" x="56.5" y="190.1826">discriminated class</text><line style="stroke:#000000;stroke-width:1.0;" x1="40.5" x2="191.5" y1="128.2969" y2="128.2969"/><line style="stroke:#000000;stroke-width:1.0;" x1="40.5" x2="191.5" y1="144.5938" y2="144.5938"/><line style="stroke:#000000;stroke-width:1.0;" x1="40.5" x2="191.5" y1="160.8906" y2="160.8906"/><line style="stroke:#000000;stroke-width:1.0;" x1="40.5" x2="191.5" y1="177.1875" y2="177.1875"/><line style="stroke:#000000;stroke-width:1.0;" x1="40.5" x2="191.5" y1="193.4844" y2="193.4844"/><line style="stroke:#000000;stroke-width:1.0;" x1="40.5" x2="40.5" y1="128.2969" y2="193.4844"/><line style="stroke:#000000;stroke-width:1.0;" x1="52.5" x2="52.5" y1="128.2969" y2="193.4844"/><line style="stroke:#000000;stroke-width:1.0;" x1="191.5" x2="191.5" y1="128.2969" y2="193.4844"/><!--MD5=[62fcf594ee70eb02269bce940fffcbc1]
@startuml
!pragma layout elk
hide empty fields
hide empty methods
legend
|= |= line |
|<back:black>   </back>| inheritance |
|<back:green>   </back>| property reference |
|<back:blue>   </back>| discriminated class |
endlegend
interface SearchOrExpression [[SearchOrExpression.svg]] extends SearchCompoundExpression {
    or: [[SearchQuery.svg List<SearchQuery>]]
}
interface SearchCompoundExpression [[SearchCompoundExpression.svg]]  {
}





@enduml

PlantUML version 1.2022.13(Sat Nov 19 13:22:17 UTC 2022)
(GPL source distribution)
Java Runtime: OpenJDK Runtime Environment
JVM: OpenJDK 64-Bit Server VM
Default Encoding: UTF-8
Language: en
Country: null
--></g></svg>
