<?xml version="1.0" encoding="UTF-8" standalone="no"?><svg xmlns="http://www.w3.org/2000/svg" xmlns:xlink="http://www.w3.org/1999/xlink" contentStyleType="text/css" height="292px" preserveAspectRatio="none" style="width:875px;height:292px;background:#FFFFFF;" version="1.1" viewBox="0 0 875 292" width="875px" zoomAndPan="magnify"><defs><filter height="1" id="b1f7i2m69lukoz0" width="1" x="0" y="0"><feFlood flood-color="#000000" result="flood"/><feComposite in="SourceGraphic" in2="flood" operator="over"/></filter><filter height="1" id="b1f7i2m69lukoz1" width="1" x="0" y="0"><feFlood flood-color="#008000" result="flood"/><feComposite in="SourceGraphic" in2="flood" operator="over"/></filter><filter height="1" id="b1f7i2m69lukoz2" width="1" x="0" y="0"><feFlood flood-color="#0000FF" result="flood"/><feComposite in="SourceGraphic" in2="flood" operator="over"/></filter></defs><g><!--MD5=[642b5bdcf0ec18e742db84ffc9f2061b]
class SearchCompoundExpression--><a href="SearchCompoundExpression.svg" target="_top" title="SearchCompoundExpression.svg" xlink:actuate="onRequest" xlink:href="SearchCompoundExpression.svg" xlink:show="new" xlink:title="SearchCompoundExpression.svg" xlink:type="simple"><g id="elem_SearchCompoundExpression"><rect codeLine="10" fill="#F1F1F1" height="32" id="SearchCompoundExpression" rx="2.5" ry="2.5" style="stroke:#181818;stroke-width:0.5;" width="232" x="55.6" y="64"/><ellipse cx="70.6" cy="80" fill="#B4A7E5" rx="11" ry="11" style="stroke:#181818;stroke-width:1.0;"/><path d="M66.5219,75.7656 L66.5219,73.6094 L73.9125,73.6094 L73.9125,75.7656 L71.4438,75.7656 L71.4438,83.8438 L73.9125,83.8438 L73.9125,86 L66.5219,86 L66.5219,83.8438 L68.9906,83.8438 L68.9906,75.7656 L66.5219,75.7656 Z " fill="#000000"/><text fill="#000000" font-family="sans-serif" font-size="14" font-style="italic" lengthAdjust="spacing" textLength="200" x="84.6" y="84.8467">SearchCompoundExpression</text></g></a><!--MD5=[07fbf857dfb0808d5b9d41dfc408eef9]
class SearchQuery--><a href="SearchQuery.svg" target="_top" title="SearchQuery.svg" xlink:actuate="onRequest" xlink:href="SearchQuery.svg" xlink:show="new" xlink:title="SearchQuery.svg" xlink:type="simple"><g id="elem_SearchQuery"><rect codeLine="12" fill="#F1F1F1" height="32" id="SearchQuery" rx="2.5" ry="2.5" style="stroke:#181818;stroke-width:0.5;" width="122" x="110.6" y="12"/><ellipse cx="125.6" cy="28" fill="#B4A7E5" rx="11" ry="11" style="stroke:#181818;stroke-width:1.0;"/><path d="M121.5219,23.7656 L121.5219,21.6094 L128.9125,21.6094 L128.9125,23.7656 L126.4438,23.7656 L126.4438,31.8438 L128.9125,31.8438 L128.9125,34 L121.5219,34 L121.5219,31.8438 L123.9906,31.8438 L123.9906,23.7656 L121.5219,23.7656 Z " fill="#000000"/><text fill="#000000" font-family="sans-serif" font-size="14" font-style="italic" lengthAdjust="spacing" textLength="90" x="139.6" y="32.8467">SearchQuery</text></g></a><!--MD5=[895cd6d125f357cef86486094d0decb4]
class SearchAndExpression--><a href="SearchAndExpression.svg" target="_top" title="SearchAndExpression.svg" xlink:actuate="onRequest" xlink:href="SearchAndExpression.svg" xlink:show="new" xlink:title="SearchAndExpression.svg" xlink:type="simple"><g id="elem_SearchAndExpression"><rect codeLine="14" fill="#F1F1F1" height="56.2969" id="SearchAndExpression" rx="2.5" ry="2.5" style="stroke:#181818;stroke-width:0.5;" width="183" x="403" y="136"/><ellipse cx="418" cy="152" fill="#B4A7E5" rx="11" ry="11" style="stroke:#181818;stroke-width:1.0;"/><path d="M413.9219,147.7656 L413.9219,145.6094 L421.3125,145.6094 L421.3125,147.7656 L418.8438,147.7656 L418.8438,155.8438 L421.3125,155.8438 L421.3125,158 L413.9219,158 L413.9219,155.8438 L416.3906,155.8438 L416.3906,147.7656 L413.9219,147.7656 Z " fill="#000000"/><text fill="#000000" font-family="sans-serif" font-size="14" font-style="italic" lengthAdjust="spacing" textLength="151" x="432" y="156.8467">SearchAndExpression</text><line style="stroke:#181818;stroke-width:0.5;" x1="404" x2="585" y1="168" y2="168"/><text fill="#000000" font-family="sans-serif" font-size="14" lengthAdjust="spacing" textLength="31" x="409" y="184.9951">and:</text><a href="SearchQuery.svg" target="_top" title="SearchQuery.svg" xlink:actuate="onRequest" xlink:href="SearchQuery.svg" xlink:show="new" xlink:title="SearchQuery.svg" xlink:type="simple"><text fill="#0000FF" font-family="sans-serif" font-size="14" lengthAdjust="spacing" text-decoration="underline" textLength="136" x="444" y="184.9951">List&lt;SearchQuery&gt;</text></a></g></a><!--MD5=[2637bed3ae35adaccab5bc908ea4c711]
class SearchFilterExpression--><a href="SearchFilterExpression.svg" target="_top" title="SearchFilterExpression.svg" xlink:actuate="onRequest" xlink:href="SearchFilterExpression.svg" xlink:show="new" xlink:title="SearchFilterExpression.svg" xlink:type="simple"><g id="elem_SearchFilterExpression"><rect codeLine="17" fill="#F1F1F1" height="56.2969" id="SearchFilterExpression" rx="2.5" ry="2.5" style="stroke:#181818;stroke-width:0.5;" width="262" x="606" y="136"/><ellipse cx="654.75" cy="152" fill="#B4A7E5" rx="11" ry="11" style="stroke:#181818;stroke-width:1.0;"/><path d="M650.6719,147.7656 L650.6719,145.6094 L658.0625,145.6094 L658.0625,147.7656 L655.5938,147.7656 L655.5938,155.8438 L658.0625,155.8438 L658.0625,158 L650.6719,158 L650.6719,155.8438 L653.1406,155.8438 L653.1406,147.7656 L650.6719,147.7656 Z " fill="#000000"/><text fill="#000000" font-family="sans-serif" font-size="14" font-style="italic" lengthAdjust="spacing" textLength="156" x="675.25" y="156.8467">SearchFilterExpression</text><line style="stroke:#181818;stroke-width:0.5;" x1="607" x2="867" y1="168" y2="168"/><text fill="#000000" font-family="sans-serif" font-size="14" lengthAdjust="spacing" textLength="34" x="612" y="184.9951">filter:</text><a href="SearchQueryExpression.svg" target="_top" title="SearchQueryExpression.svg" xlink:actuate="onRequest" xlink:href="SearchQueryExpression.svg" xlink:show="new" xlink:title="SearchQueryExpression.svg" xlink:type="simple"><text fill="#0000FF" font-family="sans-serif" font-size="14" lengthAdjust="spacing" text-decoration="underline" textLength="212" x="650" y="184.9951">List&lt;SearchQueryExpression&gt;</text></a></g></a><!--MD5=[6ac85816c6994107482867bda0538e43]
class SearchNotExpression--><a href="SearchNotExpression.svg" target="_top" title="SearchNotExpression.svg" xlink:actuate="onRequest" xlink:href="SearchNotExpression.svg" xlink:show="new" xlink:title="SearchNotExpression.svg" xlink:type="simple"><g id="elem_SearchNotExpression"><rect codeLine="20" fill="#F1F1F1" height="56.2969" id="SearchNotExpression" rx="2.5" ry="2.5" style="stroke:#181818;stroke-width:0.5;" width="180" x="12" y="136"/><ellipse cx="27" cy="152" fill="#B4A7E5" rx="11" ry="11" style="stroke:#181818;stroke-width:1.0;"/><path d="M22.9219,147.7656 L22.9219,145.6094 L30.3125,145.6094 L30.3125,147.7656 L27.8438,147.7656 L27.8438,155.8438 L30.3125,155.8438 L30.3125,158 L22.9219,158 L22.9219,155.8438 L25.3906,155.8438 L25.3906,147.7656 L22.9219,147.7656 Z " fill="#000000"/><text fill="#000000" font-family="sans-serif" font-size="14" font-style="italic" lengthAdjust="spacing" textLength="148" x="41" y="156.8467">SearchNotExpression</text><line style="stroke:#181818;stroke-width:0.5;" x1="13" x2="191" y1="168" y2="168"/><text fill="#000000" font-family="sans-serif" font-size="14" lengthAdjust="spacing" textLength="28" x="18" y="184.9951">not:</text><a href="SearchQuery.svg" target="_top" title="SearchQuery.svg" xlink:actuate="onRequest" xlink:href="SearchQuery.svg" xlink:show="new" xlink:title="SearchQuery.svg" xlink:type="simple"><text fill="#0000FF" font-family="sans-serif" font-size="14" lengthAdjust="spacing" text-decoration="underline" textLength="136" x="50" y="184.9951">List&lt;SearchQuery&gt;</text></a></g></a><!--MD5=[988ec72dc2dde6415adb21b31f4c4091]
class SearchOrExpression--><a href="SearchOrExpression.svg" target="_top" title="SearchOrExpression.svg" xlink:actuate="onRequest" xlink:href="SearchOrExpression.svg" xlink:show="new" xlink:title="SearchOrExpression.svg" xlink:type="simple"><g id="elem_SearchOrExpression"><rect codeLine="23" fill="#F1F1F1" height="56.2969" id="SearchOrExpression" rx="2.5" ry="2.5" style="stroke:#181818;stroke-width:0.5;" width="171" x="212" y="136"/><ellipse cx="227" cy="152" fill="#B4A7E5" rx="11" ry="11" style="stroke:#181818;stroke-width:1.0;"/><path d="M222.9219,147.7656 L222.9219,145.6094 L230.3125,145.6094 L230.3125,147.7656 L227.8438,147.7656 L227.8438,155.8438 L230.3125,155.8438 L230.3125,158 L222.9219,158 L222.9219,155.8438 L225.3906,155.8438 L225.3906,147.7656 L222.9219,147.7656 Z " fill="#000000"/><text fill="#000000" font-family="sans-serif" font-size="14" font-style="italic" lengthAdjust="spacing" textLength="139" x="241" y="156.8467">SearchOrExpression</text><line style="stroke:#181818;stroke-width:0.5;" x1="213" x2="382" y1="168" y2="168"/><text fill="#000000" font-family="sans-serif" font-size="14" lengthAdjust="spacing" textLength="19" x="218" y="184.9951">or:</text><a href="SearchQuery.svg" target="_top" title="SearchQuery.svg" xlink:actuate="onRequest" xlink:href="SearchQuery.svg" xlink:show="new" xlink:title="SearchQuery.svg" xlink:type="simple"><text fill="#0000FF" font-family="sans-serif" font-size="14" lengthAdjust="spacing" text-decoration="underline" textLength="136" x="241" y="184.9951">List&lt;SearchQuery&gt;</text></a></g></a><line style="stroke:#181818;stroke-width:1.0;" x1="171.6" x2="171.6" y1="44" y2="64"/><polygon fill="#FFFFFF" points="171.6,44,164.6,63,178.6,63,171.6,44" style="stroke:#181818;stroke-width:1.0;"/><line style="stroke:#181818;stroke-width:1.0;" x1="194.8" x2="194.8" y1="96" y2="116"/><line style="stroke:#181818;stroke-width:1.0;" x1="194.8" x2="494.5" y1="116" y2="116"/><line style="stroke:#181818;stroke-width:1.0;" x1="494.5" x2="494.5" y1="116" y2="136"/><polygon fill="#FFFFFF" points="194.8,96,187.8,115,201.8,115,194.8,96" style="stroke:#181818;stroke-width:1.0;"/><line style="stroke:#181818;stroke-width:1.0;" x1="241.2" x2="241.2" y1="96" y2="106"/><line style="stroke:#181818;stroke-width:1.0;" x1="241.2" x2="737" y1="106" y2="106"/><line style="stroke:#181818;stroke-width:1.0;" x1="737" x2="737" y1="106" y2="136"/><polygon fill="#FFFFFF" points="241.2,96,234.2,115,248.2,115,241.2,96" style="stroke:#181818;stroke-width:1.0;"/><line style="stroke:#181818;stroke-width:1.0;" x1="102" x2="102" y1="96" y2="136"/><polygon fill="#FFFFFF" points="102,96,95,115,109,115,102,96" style="stroke:#181818;stroke-width:1.0;"/><line style="stroke:#181818;stroke-width:1.0;" x1="148.4" x2="148.4" y1="96" y2="126"/><line style="stroke:#181818;stroke-width:1.0;" x1="148.4" x2="297.5" y1="126" y2="126"/><line style="stroke:#181818;stroke-width:1.0;" x1="297.5" x2="297.5" y1="126" y2="136"/><polygon fill="#FFFFFF" points="148.4,96,141.4,115,155.4,115,148.4,96" style="stroke:#181818;stroke-width:1.0;"/><rect fill="#DDDDDD" height="79.1875" id="_legend" rx="7.5" ry="7.5" style="stroke:#000000;stroke-width:1.0;" width="161" x="347.5" y="193.2969"/><text fill="#000000" font-family="sans-serif" font-size="14" font-weight="bold" lengthAdjust="spacing" textLength="5" x="352.5" y="213.292"> </text><text fill="#000000" font-family="sans-serif" font-size="14" font-weight="bold" lengthAdjust="spacing" textLength="28" x="369.5" y="213.292">line</text><text fill="#000000" filter="url(#b1f7i2m69lukoz0)" font-family="sans-serif" font-size="14" lengthAdjust="spacing" textLength="12" x="352.5" y="229.5889">   </text><text fill="#000000" font-family="sans-serif" font-size="14" lengthAdjust="spacing" textLength="77" x="368.5" y="229.5889">inheritance</text><text fill="#000000" filter="url(#b1f7i2m69lukoz1)" font-family="sans-serif" font-size="14" lengthAdjust="spacing" textLength="12" x="352.5" y="245.8857">   </text><text fill="#000000" font-family="sans-serif" font-size="14" lengthAdjust="spacing" textLength="129" x="368.5" y="245.8857">property reference</text><text fill="#000000" filter="url(#b1f7i2m69lukoz2)" font-family="sans-serif" font-size="14" lengthAdjust="spacing" textLength="12" x="352.5" y="262.1826">   </text><text fill="#000000" font-family="sans-serif" font-size="14" lengthAdjust="spacing" textLength="131" x="368.5" y="262.1826">discriminated class</text><line style="stroke:#000000;stroke-width:1.0;" x1="352.5" x2="503.5" y1="200.2969" y2="200.2969"/><line style="stroke:#000000;stroke-width:1.0;" x1="352.5" x2="503.5" y1="216.5938" y2="216.5938"/><line style="stroke:#000000;stroke-width:1.0;" x1="352.5" x2="503.5" y1="232.8906" y2="232.8906"/><line style="stroke:#000000;stroke-width:1.0;" x1="352.5" x2="503.5" y1="249.1875" y2="249.1875"/><line style="stroke:#000000;stroke-width:1.0;" x1="352.5" x2="503.5" y1="265.4844" y2="265.4844"/><line style="stroke:#000000;stroke-width:1.0;" x1="352.5" x2="352.5" y1="200.2969" y2="265.4844"/><line style="stroke:#000000;stroke-width:1.0;" x1="364.5" x2="364.5" y1="200.2969" y2="265.4844"/><line style="stroke:#000000;stroke-width:1.0;" x1="503.5" x2="503.5" y1="200.2969" y2="265.4844"/><!--MD5=[e23d0ec0a211fc150e7ca6b3d354cfd0]
@startuml
!pragma layout elk
hide empty fields
hide empty methods
legend
|= |= line |
|<back:black>   </back>| inheritance |
|<back:green>   </back>| property reference |
|<back:blue>   </back>| discriminated class |
endlegend
interface SearchCompoundExpression [[SearchCompoundExpression.svg]] extends SearchQuery {
}
interface SearchQuery [[SearchQuery.svg]]  {
}
interface SearchAndExpression [[SearchAndExpression.svg]] extends SearchCompoundExpression {
    and: [[SearchQuery.svg List<SearchQuery>]]
}
interface SearchFilterExpression [[SearchFilterExpression.svg]] extends SearchCompoundExpression {
    filter: [[SearchQueryExpression.svg List<SearchQueryExpression>]]
}
interface SearchNotExpression [[SearchNotExpression.svg]] extends SearchCompoundExpression {
    not: [[SearchQuery.svg List<SearchQuery>]]
}
interface SearchOrExpression [[SearchOrExpression.svg]] extends SearchCompoundExpression {
    or: [[SearchQuery.svg List<SearchQuery>]]
}




@enduml

PlantUML version 1.2022.13(Sat Nov 19 13:22:17 UTC 2022)
(GPL source distribution)
Java Runtime: OpenJDK Runtime Environment
JVM: OpenJDK 64-Bit Server VM
Default Encoding: UTF-8
Language: en
Country: null
--></g></svg>
