<?xml version="1.0" encoding="UTF-8" standalone="no"?><svg xmlns="http://www.w3.org/2000/svg" xmlns:xlink="http://www.w3.org/1999/xlink" contentStyleType="text/css" height="458px" preserveAspectRatio="none" style="width:2833px;height:458px;background:#FFFFFF;" version="1.1" viewBox="0 0 2833 458" width="2833px" zoomAndPan="magnify"><defs><filter height="1" id="b1tktko6yc4pcz0" width="1" x="0" y="0"><feFlood flood-color="#000000" result="flood"/><feComposite in="SourceGraphic" in2="flood" operator="over"/></filter><filter height="1" id="b1tktko6yc4pcz1" width="1" x="0" y="0"><feFlood flood-color="#008000" result="flood"/><feComposite in="SourceGraphic" in2="flood" operator="over"/></filter><filter height="1" id="b1tktko6yc4pcz2" width="1" x="0" y="0"><feFlood flood-color="#0000FF" result="flood"/><feComposite in="SourceGraphic" in2="flood" operator="over"/></filter></defs><g><!--MD5=[817646fbcac824ff7503c022e5b4c89c]
class SearchQueryExpression--><a href="SearchQueryExpression.svg" target="_top" title="SearchQueryExpression.svg" xlink:actuate="onRequest" xlink:href="SearchQueryExpression.svg" xlink:show="new" xlink:title="SearchQueryExpression.svg" xlink:type="simple"><g id="elem_SearchQueryExpression"><rect codeLine="10" fill="#F1F1F1" height="32" id="SearchQueryExpression" rx="2.5" ry="2.5" style="stroke:#181818;stroke-width:0.5;" width="197" x="114.9286" y="64"/><ellipse cx="129.9286" cy="80" fill="#B4A7E5" rx="11" ry="11" style="stroke:#181818;stroke-width:1.0;"/><path d="M125.8504,75.7656 L125.8504,73.6094 L133.2411,73.6094 L133.2411,75.7656 L130.7723,75.7656 L130.7723,83.8438 L133.2411,83.8438 L133.2411,86 L125.8504,86 L125.8504,83.8438 L128.3192,83.8438 L128.3192,75.7656 L125.8504,75.7656 Z " fill="#000000"/><text fill="#000000" font-family="sans-serif" font-size="14" font-style="italic" lengthAdjust="spacing" textLength="165" x="143.9286" y="84.8467">SearchQueryExpression</text></g></a><!--MD5=[07fbf857dfb0808d5b9d41dfc408eef9]
class SearchQuery--><a href="SearchQuery.svg" target="_top" title="SearchQuery.svg" xlink:actuate="onRequest" xlink:href="SearchQuery.svg" xlink:show="new" xlink:title="SearchQuery.svg" xlink:type="simple"><g id="elem_SearchQuery"><rect codeLine="12" fill="#F1F1F1" height="32" id="SearchQuery" rx="2.5" ry="2.5" style="stroke:#181818;stroke-width:0.5;" width="122" x="152.4286" y="12"/><ellipse cx="167.4286" cy="28" fill="#B4A7E5" rx="11" ry="11" style="stroke:#181818;stroke-width:1.0;"/><path d="M163.3504,23.7656 L163.3504,21.6094 L170.7411,21.6094 L170.7411,23.7656 L168.2723,23.7656 L168.2723,31.8438 L170.7411,31.8438 L170.7411,34 L163.3504,34 L163.3504,31.8438 L165.8192,31.8438 L165.8192,23.7656 L163.3504,23.7656 Z " fill="#000000"/><text fill="#000000" font-family="sans-serif" font-size="14" font-style="italic" lengthAdjust="spacing" textLength="90" x="181.4286" y="32.8467">SearchQuery</text></g></a><!--MD5=[3c892ee5d9bbe8369a426e3203e1d453]
class SearchDateRangeExpression--><a href="SearchDateRangeExpression.svg" target="_top" title="SearchDateRangeExpression.svg" xlink:actuate="onRequest" xlink:href="SearchDateRangeExpression.svg" xlink:show="new" xlink:title="SearchDateRangeExpression.svg" xlink:type="simple"><g id="elem_SearchDateRangeExpression"><rect codeLine="14" fill="#F1F1F1" height="56.2969" id="SearchDateRangeExpression" rx="2.5" ry="2.5" style="stroke:#181818;stroke-width:0.5;" width="233" x="266" y="226"/><ellipse cx="281" cy="242" fill="#B4A7E5" rx="11" ry="11" style="stroke:#181818;stroke-width:1.0;"/><path d="M276.9219,237.7656 L276.9219,235.6094 L284.3125,235.6094 L284.3125,237.7656 L281.8438,237.7656 L281.8438,245.8438 L284.3125,245.8438 L284.3125,248 L276.9219,248 L276.9219,245.8438 L279.3906,245.8438 L279.3906,237.7656 L276.9219,237.7656 Z " fill="#000000"/><text fill="#000000" font-family="sans-serif" font-size="14" font-style="italic" lengthAdjust="spacing" textLength="201" x="295" y="246.8467">SearchDateRangeExpression</text><line style="stroke:#181818;stroke-width:0.5;" x1="267" x2="498" y1="258" y2="258"/><text fill="#000000" font-family="sans-serif" font-size="14" lengthAdjust="spacing" textLength="45" x="272" y="274.9951">range:</text><a href="SearchDateRangeValue.svg" target="_top" title="SearchDateRangeValue.svg" xlink:actuate="onRequest" xlink:href="SearchDateRangeValue.svg" xlink:show="new" xlink:title="SearchDateRangeValue.svg" xlink:type="simple"><text fill="#0000FF" font-family="sans-serif" font-size="14" lengthAdjust="spacing" text-decoration="underline" textLength="164" x="321" y="274.9951">SearchDateRangeValue</text></a></g></a><!--MD5=[77b999ef6a5e809ae452c5a8c8a2a3d8]
class SearchDateTimeRangeExpression--><a href="SearchDateTimeRangeExpression.svg" target="_top" title="SearchDateTimeRangeExpression.svg" xlink:actuate="onRequest" xlink:href="SearchDateTimeRangeExpression.svg" xlink:show="new" xlink:title="SearchDateTimeRangeExpression.svg" xlink:type="simple"><g id="elem_SearchDateTimeRangeExpression"><rect codeLine="17" fill="#F1F1F1" height="56.2969" id="SearchDateTimeRangeExpression" rx="2.5" ry="2.5" style="stroke:#181818;stroke-width:0.5;" width="267" x="2253" y="226"/><ellipse cx="2268" cy="242" fill="#B4A7E5" rx="11" ry="11" style="stroke:#181818;stroke-width:1.0;"/><path d="M2263.9219,237.7656 L2263.9219,235.6094 L2271.3125,235.6094 L2271.3125,237.7656 L2268.8438,237.7656 L2268.8438,245.8438 L2271.3125,245.8438 L2271.3125,248 L2263.9219,248 L2263.9219,245.8438 L2266.3906,245.8438 L2266.3906,237.7656 L2263.9219,237.7656 Z " fill="#000000"/><text fill="#000000" font-family="sans-serif" font-size="14" font-style="italic" lengthAdjust="spacing" textLength="235" x="2282" y="246.8467">SearchDateTimeRangeExpression</text><line style="stroke:#181818;stroke-width:0.5;" x1="2254" x2="2519" y1="258" y2="258"/><text fill="#000000" font-family="sans-serif" font-size="14" lengthAdjust="spacing" textLength="45" x="2259" y="274.9951">range:</text><a href="SearchDateTimeRangeValue.svg" target="_top" title="SearchDateTimeRangeValue.svg" xlink:actuate="onRequest" xlink:href="SearchDateTimeRangeValue.svg" xlink:show="new" xlink:title="SearchDateTimeRangeValue.svg" xlink:type="simple"><text fill="#0000FF" font-family="sans-serif" font-size="14" lengthAdjust="spacing" text-decoration="underline" textLength="198" x="2308" y="274.9951">SearchDateTimeRangeValue</text></a></g></a><!--MD5=[5386a26152649642ebb81fea90a40bd9]
class SearchExactExpression--><a href="SearchExactExpression.svg" target="_top" title="SearchExactExpression.svg" xlink:actuate="onRequest" xlink:href="SearchExactExpression.svg" xlink:show="new" xlink:title="SearchExactExpression.svg" xlink:type="simple"><g id="elem_SearchExactExpression"><rect codeLine="20" fill="#F1F1F1" height="56.2969" id="SearchExactExpression" rx="2.5" ry="2.5" style="stroke:#181818;stroke-width:0.5;" width="193" x="1272" y="226"/><ellipse cx="1287" cy="242" fill="#B4A7E5" rx="11" ry="11" style="stroke:#181818;stroke-width:1.0;"/><path d="M1282.9219,237.7656 L1282.9219,235.6094 L1290.3125,235.6094 L1290.3125,237.7656 L1287.8438,237.7656 L1287.8438,245.8438 L1290.3125,245.8438 L1290.3125,248 L1282.9219,248 L1282.9219,245.8438 L1285.3906,245.8438 L1285.3906,237.7656 L1282.9219,237.7656 Z " fill="#000000"/><text fill="#000000" font-family="sans-serif" font-size="14" font-style="italic" lengthAdjust="spacing" textLength="161" x="1301" y="246.8467">SearchExactExpression</text><line style="stroke:#181818;stroke-width:0.5;" x1="1273" x2="1464" y1="258" y2="258"/><text fill="#000000" font-family="sans-serif" font-size="14" lengthAdjust="spacing" textLength="42" x="1278" y="274.9951">exact:</text><a href="SearchExactValue.svg" target="_top" title="SearchExactValue.svg" xlink:actuate="onRequest" xlink:href="SearchExactValue.svg" xlink:show="new" xlink:title="SearchExactValue.svg" xlink:type="simple"><text fill="#0000FF" font-family="sans-serif" font-size="14" lengthAdjust="spacing" text-decoration="underline" textLength="123" x="1324" y="274.9951">SearchExactValue</text></a></g></a><!--MD5=[8d026031564035c52759ab3e7400b97e]
class SearchExistsExpression--><a href="SearchExistsExpression.svg" target="_top" title="SearchExistsExpression.svg" xlink:actuate="onRequest" xlink:href="SearchExistsExpression.svg" xlink:show="new" xlink:title="SearchExistsExpression.svg" xlink:type="simple"><g id="elem_SearchExistsExpression"><rect codeLine="23" fill="#F1F1F1" height="56.2969" id="SearchExistsExpression" rx="2.5" ry="2.5" style="stroke:#181818;stroke-width:0.5;" width="194" x="519" y="226"/><ellipse cx="534" cy="242" fill="#B4A7E5" rx="11" ry="11" style="stroke:#181818;stroke-width:1.0;"/><path d="M529.9219,237.7656 L529.9219,235.6094 L537.3125,235.6094 L537.3125,237.7656 L534.8438,237.7656 L534.8438,245.8438 L537.3125,245.8438 L537.3125,248 L529.9219,248 L529.9219,245.8438 L532.3906,245.8438 L532.3906,237.7656 L529.9219,237.7656 Z " fill="#000000"/><text fill="#000000" font-family="sans-serif" font-size="14" font-style="italic" lengthAdjust="spacing" textLength="162" x="548" y="246.8467">SearchExistsExpression</text><line style="stroke:#181818;stroke-width:0.5;" x1="520" x2="712" y1="258" y2="258"/><text fill="#000000" font-family="sans-serif" font-size="14" lengthAdjust="spacing" textLength="45" x="525" y="274.9951">exists:</text><a href="SearchExistsValue.svg" target="_top" title="SearchExistsValue.svg" xlink:actuate="onRequest" xlink:href="SearchExistsValue.svg" xlink:show="new" xlink:title="SearchExistsValue.svg" xlink:type="simple"><text fill="#0000FF" font-family="sans-serif" font-size="14" lengthAdjust="spacing" text-decoration="underline" textLength="126" x="574" y="274.9951">SearchExistsValue</text></a></g></a><!--MD5=[ecac7f35d761d39be755fb5aab133d33]
class SearchFullTextExpression--><a href="SearchFullTextExpression.svg" target="_top" title="SearchFullTextExpression.svg" xlink:actuate="onRequest" xlink:href="SearchFullTextExpression.svg" xlink:show="new" xlink:title="SearchFullTextExpression.svg" xlink:type="simple"><g id="elem_SearchFullTextExpression"><rect codeLine="26" fill="#F1F1F1" height="56.2969" id="SearchFullTextExpression" rx="2.5" ry="2.5" style="stroke:#181818;stroke-width:0.5;" width="209" x="1748" y="226"/><ellipse cx="1763" cy="242" fill="#B4A7E5" rx="11" ry="11" style="stroke:#181818;stroke-width:1.0;"/><path d="M1758.9219,237.7656 L1758.9219,235.6094 L1766.3125,235.6094 L1766.3125,237.7656 L1763.8438,237.7656 L1763.8438,245.8438 L1766.3125,245.8438 L1766.3125,248 L1758.9219,248 L1758.9219,245.8438 L1761.3906,245.8438 L1761.3906,237.7656 L1758.9219,237.7656 Z " fill="#000000"/><text fill="#000000" font-family="sans-serif" font-size="14" font-style="italic" lengthAdjust="spacing" textLength="177" x="1777" y="246.8467">SearchFullTextExpression</text><line style="stroke:#181818;stroke-width:0.5;" x1="1749" x2="1956" y1="258" y2="258"/><text fill="#000000" font-family="sans-serif" font-size="14" lengthAdjust="spacing" textLength="54" x="1754" y="274.9951">fullText:</text><a href="SearchFullTextValue.svg" target="_top" title="SearchFullTextValue.svg" xlink:actuate="onRequest" xlink:href="SearchFullTextValue.svg" xlink:show="new" xlink:title="SearchFullTextValue.svg" xlink:type="simple"><text fill="#0000FF" font-family="sans-serif" font-size="14" lengthAdjust="spacing" text-decoration="underline" textLength="139" x="1812" y="274.9951">SearchFullTextValue</text></a></g></a><!--MD5=[5e7024d5e520d519d06a35d6eadba33f]
class SearchFullTextPrefixExpression--><a href="SearchFullTextPrefixExpression.svg" target="_top" title="SearchFullTextPrefixExpression.svg" xlink:actuate="onRequest" xlink:href="SearchFullTextPrefixExpression.svg" xlink:show="new" xlink:title="SearchFullTextPrefixExpression.svg" xlink:type="simple"><g id="elem_SearchFullTextPrefixExpression"><rect codeLine="29" fill="#F1F1F1" height="56.2969" id="SearchFullTextPrefixExpression" rx="2.5" ry="2.5" style="stroke:#181818;stroke-width:0.5;" width="283" x="969" y="226"/><ellipse cx="1000.65" cy="242" fill="#B4A7E5" rx="11" ry="11" style="stroke:#181818;stroke-width:1.0;"/><path d="M996.5719,237.7656 L996.5719,235.6094 L1003.9625,235.6094 L1003.9625,237.7656 L1001.4938,237.7656 L1001.4938,245.8438 L1003.9625,245.8438 L1003.9625,248 L996.5719,248 L996.5719,245.8438 L999.0406,245.8438 L999.0406,237.7656 L996.5719,237.7656 Z " fill="#000000"/><text fill="#000000" font-family="sans-serif" font-size="14" font-style="italic" lengthAdjust="spacing" textLength="214" x="1018.35" y="246.8467">SearchFullTextPrefixExpression</text><line style="stroke:#181818;stroke-width:0.5;" x1="970" x2="1251" y1="258" y2="258"/><text fill="#000000" font-family="sans-serif" font-size="14" lengthAdjust="spacing" textLength="91" x="975" y="274.9951">fullTextPrefix:</text><a href="SearchFullTextPrefixValue.svg" target="_top" title="SearchFullTextPrefixValue.svg" xlink:actuate="onRequest" xlink:href="SearchFullTextPrefixValue.svg" xlink:show="new" xlink:title="SearchFullTextPrefixValue.svg" xlink:type="simple"><text fill="#0000FF" font-family="sans-serif" font-size="14" lengthAdjust="spacing" text-decoration="underline" textLength="176" x="1070" y="274.9951">SearchFullTextPrefixValue</text></a></g></a><!--MD5=[20c10773bd8f5f202c7cbedfd781c767]
class SearchLongRangeExpression--><a href="SearchLongRangeExpression.svg" target="_top" title="SearchLongRangeExpression.svg" xlink:actuate="onRequest" xlink:href="SearchLongRangeExpression.svg" xlink:show="new" xlink:title="SearchLongRangeExpression.svg" xlink:type="simple"><g id="elem_SearchLongRangeExpression"><rect codeLine="32" fill="#F1F1F1" height="56.2969" id="SearchLongRangeExpression" rx="2.5" ry="2.5" style="stroke:#181818;stroke-width:0.5;" width="235" x="2540" y="226"/><ellipse cx="2555" cy="242" fill="#B4A7E5" rx="11" ry="11" style="stroke:#181818;stroke-width:1.0;"/><path d="M2550.9219,237.7656 L2550.9219,235.6094 L2558.3125,235.6094 L2558.3125,237.7656 L2555.8438,237.7656 L2555.8438,245.8438 L2558.3125,245.8438 L2558.3125,248 L2550.9219,248 L2550.9219,245.8438 L2553.3906,245.8438 L2553.3906,237.7656 L2550.9219,237.7656 Z " fill="#000000"/><text fill="#000000" font-family="sans-serif" font-size="14" font-style="italic" lengthAdjust="spacing" textLength="203" x="2569" y="246.8467">SearchLongRangeExpression</text><line style="stroke:#181818;stroke-width:0.5;" x1="2541" x2="2774" y1="258" y2="258"/><text fill="#000000" font-family="sans-serif" font-size="14" lengthAdjust="spacing" textLength="45" x="2546" y="274.9951">range:</text><a href="SearchLongRangeValue.svg" target="_top" title="SearchLongRangeValue.svg" xlink:actuate="onRequest" xlink:href="SearchLongRangeValue.svg" xlink:show="new" xlink:title="SearchLongRangeValue.svg" xlink:type="simple"><text fill="#0000FF" font-family="sans-serif" font-size="14" lengthAdjust="spacing" text-decoration="underline" textLength="165" x="2595" y="274.9951">SearchLongRangeValue</text></a></g></a><!--MD5=[95cffd0c380f4010c3a797fa5a1eb63f]
class SearchNumberRangeExpression--><a href="SearchNumberRangeExpression.svg" target="_top" title="SearchNumberRangeExpression.svg" xlink:actuate="onRequest" xlink:href="SearchNumberRangeExpression.svg" xlink:show="new" xlink:title="SearchNumberRangeExpression.svg" xlink:type="simple"><g id="elem_SearchNumberRangeExpression"><rect codeLine="35" fill="#F1F1F1" height="56.2969" id="SearchNumberRangeExpression" rx="2.5" ry="2.5" style="stroke:#181818;stroke-width:0.5;" width="256" x="1977" y="226"/><ellipse cx="1992" cy="242" fill="#B4A7E5" rx="11" ry="11" style="stroke:#181818;stroke-width:1.0;"/><path d="M1987.9219,237.7656 L1987.9219,235.6094 L1995.3125,235.6094 L1995.3125,237.7656 L1992.8438,237.7656 L1992.8438,245.8438 L1995.3125,245.8438 L1995.3125,248 L1987.9219,248 L1987.9219,245.8438 L1990.3906,245.8438 L1990.3906,237.7656 L1987.9219,237.7656 Z " fill="#000000"/><text fill="#000000" font-family="sans-serif" font-size="14" font-style="italic" lengthAdjust="spacing" textLength="224" x="2006" y="246.8467">SearchNumberRangeExpression</text><line style="stroke:#181818;stroke-width:0.5;" x1="1978" x2="2232" y1="258" y2="258"/><text fill="#000000" font-family="sans-serif" font-size="14" lengthAdjust="spacing" textLength="45" x="1983" y="274.9951">range:</text><a href="SearchNumberRangeValue.svg" target="_top" title="SearchNumberRangeValue.svg" xlink:actuate="onRequest" xlink:href="SearchNumberRangeValue.svg" xlink:show="new" xlink:title="SearchNumberRangeValue.svg" xlink:type="simple"><text fill="#0000FF" font-family="sans-serif" font-size="14" lengthAdjust="spacing" text-decoration="underline" textLength="186" x="2032" y="274.9951">SearchNumberRangeValue</text></a></g></a><!--MD5=[0529a33d233e7d2712b7c9ea82718a87]
class SearchPrefixExpression--><a href="SearchPrefixExpression.svg" target="_top" title="SearchPrefixExpression.svg" xlink:actuate="onRequest" xlink:href="SearchPrefixExpression.svg" xlink:show="new" xlink:title="SearchPrefixExpression.svg" xlink:type="simple"><g id="elem_SearchPrefixExpression"><rect codeLine="38" fill="#F1F1F1" height="56.2969" id="SearchPrefixExpression" rx="2.5" ry="2.5" style="stroke:#181818;stroke-width:0.5;" width="192" x="1536" y="226"/><ellipse cx="1551" cy="242" fill="#B4A7E5" rx="11" ry="11" style="stroke:#181818;stroke-width:1.0;"/><path d="M1546.9219,237.7656 L1546.9219,235.6094 L1554.3125,235.6094 L1554.3125,237.7656 L1551.8438,237.7656 L1551.8438,245.8438 L1554.3125,245.8438 L1554.3125,248 L1546.9219,248 L1546.9219,245.8438 L1549.3906,245.8438 L1549.3906,237.7656 L1546.9219,237.7656 Z " fill="#000000"/><text fill="#000000" font-family="sans-serif" font-size="14" font-style="italic" lengthAdjust="spacing" textLength="160" x="1565" y="246.8467">SearchPrefixExpression</text><line style="stroke:#181818;stroke-width:0.5;" x1="1537" x2="1727" y1="258" y2="258"/><text fill="#000000" font-family="sans-serif" font-size="14" lengthAdjust="spacing" textLength="42" x="1542" y="274.9951">prefix:</text><a href="SearchAnyValue.svg" target="_top" title="SearchAnyValue.svg" xlink:actuate="onRequest" xlink:href="SearchAnyValue.svg" xlink:show="new" xlink:title="SearchAnyValue.svg" xlink:type="simple"><text fill="#0000FF" font-family="sans-serif" font-size="14" lengthAdjust="spacing" text-decoration="underline" textLength="111" x="1588" y="274.9951">SearchAnyValue</text></a></g></a><!--MD5=[ad4408eb04c83a74c288b5142c2bf753]
class SearchTimeRangeExpression--><a href="SearchTimeRangeExpression.svg" target="_top" title="SearchTimeRangeExpression.svg" xlink:actuate="onRequest" xlink:href="SearchTimeRangeExpression.svg" xlink:show="new" xlink:title="SearchTimeRangeExpression.svg" xlink:type="simple"><g id="elem_SearchTimeRangeExpression"><rect codeLine="41" fill="#F1F1F1" height="56.2969" id="SearchTimeRangeExpression" rx="2.5" ry="2.5" style="stroke:#181818;stroke-width:0.5;" width="234" x="12" y="226"/><ellipse cx="27" cy="242" fill="#B4A7E5" rx="11" ry="11" style="stroke:#181818;stroke-width:1.0;"/><path d="M22.9219,237.7656 L22.9219,235.6094 L30.3125,235.6094 L30.3125,237.7656 L27.8438,237.7656 L27.8438,245.8438 L30.3125,245.8438 L30.3125,248 L22.9219,248 L22.9219,245.8438 L25.3906,245.8438 L25.3906,237.7656 L22.9219,237.7656 Z " fill="#000000"/><text fill="#000000" font-family="sans-serif" font-size="14" font-style="italic" lengthAdjust="spacing" textLength="202" x="41" y="246.8467">SearchTimeRangeExpression</text><line style="stroke:#181818;stroke-width:0.5;" x1="13" x2="245" y1="258" y2="258"/><text fill="#000000" font-family="sans-serif" font-size="14" lengthAdjust="spacing" textLength="45" x="18" y="274.9951">range:</text><a href="SearchTimeRangeValue.svg" target="_top" title="SearchTimeRangeValue.svg" xlink:actuate="onRequest" xlink:href="SearchTimeRangeValue.svg" xlink:show="new" xlink:title="SearchTimeRangeValue.svg" xlink:type="simple"><text fill="#0000FF" font-family="sans-serif" font-size="14" lengthAdjust="spacing" text-decoration="underline" textLength="165" x="67" y="274.9951">SearchTimeRangeValue</text></a></g></a><!--MD5=[7c8392683ebc8188aaef5eee80643145]
class SearchWildCardExpression--><a href="SearchWildCardExpression.svg" target="_top" title="SearchWildCardExpression.svg" xlink:actuate="onRequest" xlink:href="SearchWildCardExpression.svg" xlink:show="new" xlink:title="SearchWildCardExpression.svg" xlink:type="simple"><g id="elem_SearchWildCardExpression"><rect codeLine="44" fill="#F1F1F1" height="56.2969" id="SearchWildCardExpression" rx="2.5" ry="2.5" style="stroke:#181818;stroke-width:0.5;" width="216" x="733" y="226"/><ellipse cx="748" cy="242" fill="#B4A7E5" rx="11" ry="11" style="stroke:#181818;stroke-width:1.0;"/><path d="M743.9219,237.7656 L743.9219,235.6094 L751.3125,235.6094 L751.3125,237.7656 L748.8438,237.7656 L748.8438,245.8438 L751.3125,245.8438 L751.3125,248 L743.9219,248 L743.9219,245.8438 L746.3906,245.8438 L746.3906,237.7656 L743.9219,237.7656 Z " fill="#000000"/><text fill="#000000" font-family="sans-serif" font-size="14" font-style="italic" lengthAdjust="spacing" textLength="184" x="762" y="246.8467">SearchWildCardExpression</text><line style="stroke:#181818;stroke-width:0.5;" x1="734" x2="948" y1="258" y2="258"/><text fill="#000000" font-family="sans-serif" font-size="14" lengthAdjust="spacing" textLength="61" x="739" y="274.9951">wildcard:</text><a href="SearchAnyValue.svg" target="_top" title="SearchAnyValue.svg" xlink:actuate="onRequest" xlink:href="SearchAnyValue.svg" xlink:show="new" xlink:title="SearchAnyValue.svg" xlink:type="simple"><text fill="#0000FF" font-family="sans-serif" font-size="14" lengthAdjust="spacing" text-decoration="underline" textLength="111" x="804" y="274.9951">SearchAnyValue</text></a></g></a><!--MD5=[2637bed3ae35adaccab5bc908ea4c711]
class SearchFilterExpression--><a href="SearchFilterExpression.svg" target="_top" title="SearchFilterExpression.svg" xlink:actuate="onRequest" xlink:href="SearchFilterExpression.svg" xlink:show="new" xlink:title="SearchFilterExpression.svg" xlink:type="simple"><g id="elem_SearchFilterExpression"><rect codeLine="48" fill="#F1F1F1" height="56.2969" id="SearchFilterExpression" rx="2.5" ry="2.5" style="stroke:#181818;stroke-width:0.5;" width="262" x="1427.6667" y="302.2969"/><ellipse cx="1476.4167" cy="318.2969" fill="#B4A7E5" rx="11" ry="11" style="stroke:#181818;stroke-width:1.0;"/><path d="M1472.3385,314.0625 L1472.3385,311.9063 L1479.7292,311.9063 L1479.7292,314.0625 L1477.2604,314.0625 L1477.2604,322.1406 L1479.7292,322.1406 L1479.7292,324.2969 L1472.3385,324.2969 L1472.3385,322.1406 L1474.8073,322.1406 L1474.8073,314.0625 L1472.3385,314.0625 Z " fill="#000000"/><text fill="#000000" font-family="sans-serif" font-size="14" font-style="italic" lengthAdjust="spacing" textLength="156" x="1496.9167" y="323.1436">SearchFilterExpression</text><line style="stroke:#181818;stroke-width:0.5;" x1="1428.6667" x2="1688.6667" y1="334.2969" y2="334.2969"/><text fill="#000000" font-family="sans-serif" font-size="14" lengthAdjust="spacing" textLength="34" x="1433.6667" y="351.292">filter:</text><a href="SearchQueryExpression.svg" target="_top" title="SearchQueryExpression.svg" xlink:actuate="onRequest" xlink:href="SearchQueryExpression.svg" xlink:show="new" xlink:title="SearchQueryExpression.svg" xlink:type="simple"><text fill="#0000FF" font-family="sans-serif" font-size="14" lengthAdjust="spacing" text-decoration="underline" textLength="212" x="1471.6667" y="351.292">List&lt;SearchQueryExpression&gt;</text></a></g></a><line style="stroke:#181818;stroke-width:1.0;" x1="213.4286" x2="213.4286" y1="44" y2="64"/><polygon fill="#FFFFFF" points="213.4286,44,206.4286,63,220.4286,63,213.4286,44" style="stroke:#181818;stroke-width:1.0;"/><line style="stroke:#181818;stroke-width:1.0;" x1="143.0714" x2="143.0714" y1="96" y2="216"/><line style="stroke:#181818;stroke-width:1.0;" x1="143.0714" x2="382.5" y1="216" y2="216"/><line style="stroke:#181818;stroke-width:1.0;" x1="382.5" x2="382.5" y1="216" y2="226"/><polygon fill="#FFFFFF" points="143.0714,96,136.0714,115,150.0714,115,143.0714,96" style="stroke:#181818;stroke-width:1.0;"/><line style="stroke:#181818;stroke-width:1.0;" x1="269.7143" x2="269.7143" y1="96" y2="126"/><line style="stroke:#181818;stroke-width:1.0;" x1="269.7143" x2="2386.5" y1="126" y2="126"/><line style="stroke:#181818;stroke-width:1.0;" x1="2386.5" x2="2386.5" y1="126" y2="226"/><polygon fill="#FFFFFF" points="269.7143,96,262.7143,115,276.7143,115,269.7143,96" style="stroke:#181818;stroke-width:1.0;"/><line style="stroke:#181818;stroke-width:1.0;" x1="199.3571" x2="199.3571" y1="96" y2="176"/><line style="stroke:#181818;stroke-width:1.0;" x1="199.3571" x2="1368.5" y1="176" y2="176"/><line style="stroke:#181818;stroke-width:1.0;" x1="1368.5" x2="1368.5" y1="176" y2="226"/><polygon fill="#FFFFFF" points="199.3571,96,192.3571,115,206.3571,115,199.3571,96" style="stroke:#181818;stroke-width:1.0;"/><line style="stroke:#181818;stroke-width:1.0;" x1="157.1429" x2="157.1429" y1="96" y2="206"/><line style="stroke:#181818;stroke-width:1.0;" x1="157.1429" x2="616" y1="206" y2="206"/><line style="stroke:#181818;stroke-width:1.0;" x1="616" x2="616" y1="206" y2="226"/><polygon fill="#FFFFFF" points="157.1429,96,150.1429,115,164.1429,115,157.1429,96" style="stroke:#181818;stroke-width:1.0;"/><line style="stroke:#181818;stroke-width:1.0;" x1="241.5714" x2="241.5714" y1="96" y2="146"/><line style="stroke:#181818;stroke-width:1.0;" x1="241.5714" x2="1852.5" y1="146" y2="146"/><line style="stroke:#181818;stroke-width:1.0;" x1="1852.5" x2="1852.5" y1="146" y2="226"/><polygon fill="#FFFFFF" points="241.5714,96,234.5714,115,248.5714,115,241.5714,96" style="stroke:#181818;stroke-width:1.0;"/><line style="stroke:#181818;stroke-width:1.0;" x1="185.2857" x2="185.2857" y1="96" y2="186"/><line style="stroke:#181818;stroke-width:1.0;" x1="185.2857" x2="1110.5" y1="186" y2="186"/><line style="stroke:#181818;stroke-width:1.0;" x1="1110.5" x2="1110.5" y1="186" y2="226"/><polygon fill="#FFFFFF" points="185.2857,96,178.2857,115,192.2857,115,185.2857,96" style="stroke:#181818;stroke-width:1.0;"/><line style="stroke:#181818;stroke-width:1.0;" x1="283.7857" x2="283.7857" y1="96" y2="116"/><line style="stroke:#181818;stroke-width:1.0;" x1="283.7857" x2="2657.5" y1="116" y2="116"/><line style="stroke:#181818;stroke-width:1.0;" x1="2657.5" x2="2657.5" y1="116" y2="226"/><polygon fill="#FFFFFF" points="283.7857,96,276.7857,115,290.7857,115,283.7857,96" style="stroke:#181818;stroke-width:1.0;"/><line style="stroke:#181818;stroke-width:1.0;" x1="255.6429" x2="255.6429" y1="96" y2="136"/><line style="stroke:#181818;stroke-width:1.0;" x1="255.6429" x2="2105" y1="136" y2="136"/><line style="stroke:#181818;stroke-width:1.0;" x1="2105" x2="2105" y1="136" y2="226"/><polygon fill="#FFFFFF" points="255.6429,96,248.6429,115,262.6429,115,255.6429,96" style="stroke:#181818;stroke-width:1.0;"/><line style="stroke:#181818;stroke-width:1.0;" x1="227.5" x2="227.5" y1="96" y2="156"/><line style="stroke:#181818;stroke-width:1.0;" x1="227.5" x2="1632" y1="156" y2="156"/><line style="stroke:#181818;stroke-width:1.0;" x1="1632" x2="1632" y1="156" y2="226"/><polygon fill="#FFFFFF" points="227.5,96,220.5,115,234.5,115,227.5,96" style="stroke:#181818;stroke-width:1.0;"/><line style="stroke:#181818;stroke-width:1.0;" x1="129" x2="129" y1="96" y2="226"/><polygon fill="#FFFFFF" points="129,96,122,115,136,115,129,96" style="stroke:#181818;stroke-width:1.0;"/><line style="stroke:#181818;stroke-width:1.0;" x1="171.2143" x2="171.2143" y1="96" y2="196"/><line style="stroke:#181818;stroke-width:1.0;" x1="171.2143" x2="841" y1="196" y2="196"/><line style="stroke:#181818;stroke-width:1.0;" x1="841" x2="841" y1="196" y2="226"/><polygon fill="#FFFFFF" points="171.2143,96,164.2143,115,178.2143,115,171.2143,96" style="stroke:#181818;stroke-width:1.0;"/><line style="stroke:#008000;stroke-width:1.0;" x1="297.8571" x2="297.8571" y1="96" y2="106"/><line style="stroke:#008000;stroke-width:1.0;" x1="297.8571" x2="2795" y1="106" y2="106"/><line style="stroke:#008000;stroke-width:1.0;" x1="2795" x2="2795" y1="106" y2="292.2969"/><line style="stroke:#008000;stroke-width:1.0;" x1="2795" x2="1602.3333" y1="292.2969" y2="292.2969"/><line style="stroke:#008000;stroke-width:1.0;" x1="1602.3333" x2="1602.3333" y1="292.2969" y2="302.2969"/><polygon fill="#008000" points="1602.3333,302.2969,1606.3333,293.2969,1602.3333,297.2969,1598.3333,293.2969,1602.3333,302.2969" style="stroke:#008000;stroke-width:1.0;"/><text fill="#000000" font-family="sans-serif" font-size="13" lengthAdjust="spacing" textLength="28" x="2798" y="258.6489">filter</text><line style="stroke:#008000;stroke-width:1.0;" x1="213.4286" x2="213.4286" y1="96" y2="166"/><line style="stroke:#008000;stroke-width:1.0;" x1="213.4286" x2="1515" y1="166" y2="166"/><line style="stroke:#008000;stroke-width:1.0;" x1="1515" x2="1515" y1="166" y2="302.2969"/><polygon fill="#008000" points="1515,302.2969,1519,293.2969,1515,297.2969,1511,293.2969,1515,302.2969" style="stroke:#008000;stroke-width:1.0;"/><text fill="#000000" font-family="sans-serif" font-size="13" lengthAdjust="spacing" textLength="28" x="1485" y="258.6489">filter</text><rect fill="#DDDDDD" height="79.1875" id="_legend" rx="7.5" ry="7.5" style="stroke:#000000;stroke-width:1.0;" width="161" x="1326.5" y="359.5938"/><text fill="#000000" font-family="sans-serif" font-size="14" font-weight="bold" lengthAdjust="spacing" textLength="5" x="1331.5" y="379.5889"> </text><text fill="#000000" font-family="sans-serif" font-size="14" font-weight="bold" lengthAdjust="spacing" textLength="28" x="1348.5" y="379.5889">line</text><text fill="#000000" filter="url(#b1tktko6yc4pcz0)" font-family="sans-serif" font-size="14" lengthAdjust="spacing" textLength="12" x="1331.5" y="395.8857">   </text><text fill="#000000" font-family="sans-serif" font-size="14" lengthAdjust="spacing" textLength="77" x="1347.5" y="395.8857">inheritance</text><text fill="#000000" filter="url(#b1tktko6yc4pcz1)" font-family="sans-serif" font-size="14" lengthAdjust="spacing" textLength="12" x="1331.5" y="412.1826">   </text><text fill="#000000" font-family="sans-serif" font-size="14" lengthAdjust="spacing" textLength="129" x="1347.5" y="412.1826">property reference</text><text fill="#000000" filter="url(#b1tktko6yc4pcz2)" font-family="sans-serif" font-size="14" lengthAdjust="spacing" textLength="12" x="1331.5" y="428.4795">   </text><text fill="#000000" font-family="sans-serif" font-size="14" lengthAdjust="spacing" textLength="131" x="1347.5" y="428.4795">discriminated class</text><line style="stroke:#000000;stroke-width:1.0;" x1="1331.5" x2="1482.5" y1="366.5938" y2="366.5938"/><line style="stroke:#000000;stroke-width:1.0;" x1="1331.5" x2="1482.5" y1="382.8906" y2="382.8906"/><line style="stroke:#000000;stroke-width:1.0;" x1="1331.5" x2="1482.5" y1="399.1875" y2="399.1875"/><line style="stroke:#000000;stroke-width:1.0;" x1="1331.5" x2="1482.5" y1="415.4844" y2="415.4844"/><line style="stroke:#000000;stroke-width:1.0;" x1="1331.5" x2="1482.5" y1="431.7813" y2="431.7813"/><line style="stroke:#000000;stroke-width:1.0;" x1="1331.5" x2="1331.5" y1="366.5938" y2="431.7813"/><line style="stroke:#000000;stroke-width:1.0;" x1="1343.5" x2="1343.5" y1="366.5938" y2="431.7813"/><line style="stroke:#000000;stroke-width:1.0;" x1="1482.5" x2="1482.5" y1="366.5938" y2="431.7813"/><!--MD5=[e17f139138b1704b95beabe6dd3f8516]
@startuml
!pragma layout elk
hide empty fields
hide empty methods
legend
|= |= line |
|<back:black>   </back>| inheritance |
|<back:green>   </back>| property reference |
|<back:blue>   </back>| discriminated class |
endlegend
interface SearchQueryExpression [[SearchQueryExpression.svg]] extends SearchQuery {
}
interface SearchQuery [[SearchQuery.svg]]  {
}
interface SearchDateRangeExpression [[SearchDateRangeExpression.svg]] extends SearchQueryExpression {
    range: [[SearchDateRangeValue.svg SearchDateRangeValue]]
}
interface SearchDateTimeRangeExpression [[SearchDateTimeRangeExpression.svg]] extends SearchQueryExpression {
    range: [[SearchDateTimeRangeValue.svg SearchDateTimeRangeValue]]
}
interface SearchExactExpression [[SearchExactExpression.svg]] extends SearchQueryExpression {
    exact: [[SearchExactValue.svg SearchExactValue]]
}
interface SearchExistsExpression [[SearchExistsExpression.svg]] extends SearchQueryExpression {
    exists: [[SearchExistsValue.svg SearchExistsValue]]
}
interface SearchFullTextExpression [[SearchFullTextExpression.svg]] extends SearchQueryExpression {
    fullText: [[SearchFullTextValue.svg SearchFullTextValue]]
}
interface SearchFullTextPrefixExpression [[SearchFullTextPrefixExpression.svg]] extends SearchQueryExpression {
    fullTextPrefix: [[SearchFullTextPrefixValue.svg SearchFullTextPrefixValue]]
}
interface SearchLongRangeExpression [[SearchLongRangeExpression.svg]] extends SearchQueryExpression {
    range: [[SearchLongRangeValue.svg SearchLongRangeValue]]
}
interface SearchNumberRangeExpression [[SearchNumberRangeExpression.svg]] extends SearchQueryExpression {
    range: [[SearchNumberRangeValue.svg SearchNumberRangeValue]]
}
interface SearchPrefixExpression [[SearchPrefixExpression.svg]] extends SearchQueryExpression {
    prefix: [[SearchAnyValue.svg SearchAnyValue]]
}
interface SearchTimeRangeExpression [[SearchTimeRangeExpression.svg]] extends SearchQueryExpression {
    range: [[SearchTimeRangeValue.svg SearchTimeRangeValue]]
}
interface SearchWildCardExpression [[SearchWildCardExpression.svg]] extends SearchQueryExpression {
    wildcard: [[SearchAnyValue.svg SearchAnyValue]]
}

interface SearchFilterExpression [[SearchFilterExpression.svg]]  {
    filter: [[SearchQueryExpression.svg List<SearchQueryExpression>]]
}

SearchQueryExpression - -> SearchFilterExpression #green;text:green : "filter"
SearchQueryExpression - -> SearchFilterExpression #green;text:green : "filter"
@enduml

PlantUML version 1.2022.13(Sat Nov 19 13:22:17 UTC 2022)
(GPL source distribution)
Java Runtime: OpenJDK Runtime Environment
JVM: OpenJDK 64-Bit Server VM
Default Encoding: UTF-8
Language: en
Country: null
--></g></svg>
