<?xml version="1.0" encoding="UTF-8" standalone="no"?><svg xmlns="http://www.w3.org/2000/svg" xmlns:xlink="http://www.w3.org/1999/xlink" contentStyleType="text/css" height="220px" preserveAspectRatio="none" style="width:216px;height:220px;background:#FFFFFF;" version="1.1" viewBox="0 0 216 220" width="216px" zoomAndPan="magnify"><defs><filter height="1" id="by560lxtu6aj00" width="1" x="0" y="0"><feFlood flood-color="#000000" result="flood"/><feComposite in="SourceGraphic" in2="flood" operator="over"/></filter><filter height="1" id="by560lxtu6aj01" width="1" x="0" y="0"><feFlood flood-color="#008000" result="flood"/><feComposite in="SourceGraphic" in2="flood" operator="over"/></filter><filter height="1" id="by560lxtu6aj02" width="1" x="0" y="0"><feFlood flood-color="#0000FF" result="flood"/><feComposite in="SourceGraphic" in2="flood" operator="over"/></filter></defs><g><!--MD5=[8d026031564035c52759ab3e7400b97e]
class SearchExistsExpression--><a href="SearchExistsExpression.svg" target="_top" title="SearchExistsExpression.svg" xlink:actuate="onRequest" xlink:href="SearchExistsExpression.svg" xlink:show="new" xlink:title="SearchExistsExpression.svg" xlink:type="simple"><g id="elem_SearchExistsExpression"><rect codeLine="10" fill="#F1F1F1" height="56.2969" id="SearchExistsExpression" rx="2.5" ry="2.5" style="stroke:#181818;stroke-width:0.5;" width="194" x="13.5" y="64"/><ellipse cx="28.5" cy="80" fill="#B4A7E5" rx="11" ry="11" style="stroke:#181818;stroke-width:1.0;"/><path d="M24.4219,75.7656 L24.4219,73.6094 L31.8125,73.6094 L31.8125,75.7656 L29.3438,75.7656 L29.3438,83.8438 L31.8125,83.8438 L31.8125,86 L24.4219,86 L24.4219,83.8438 L26.8906,83.8438 L26.8906,75.7656 L24.4219,75.7656 Z " fill="#000000"/><text fill="#000000" font-family="sans-serif" font-size="14" font-style="italic" lengthAdjust="spacing" textLength="162" x="42.5" y="84.8467">SearchExistsExpression</text><line style="stroke:#181818;stroke-width:0.5;" x1="14.5" x2="206.5" y1="96" y2="96"/><text fill="#000000" font-family="sans-serif" font-size="14" lengthAdjust="spacing" textLength="45" x="19.5" y="112.9951">exists:</text><a href="SearchExistsValue.svg" target="_top" title="SearchExistsValue.svg" xlink:actuate="onRequest" xlink:href="SearchExistsValue.svg" xlink:show="new" xlink:title="SearchExistsValue.svg" xlink:type="simple"><text fill="#0000FF" font-family="sans-serif" font-size="14" lengthAdjust="spacing" text-decoration="underline" textLength="126" x="68.5" y="112.9951">SearchExistsValue</text></a></g></a><!--MD5=[817646fbcac824ff7503c022e5b4c89c]
class SearchQueryExpression--><a href="SearchQueryExpression.svg" target="_top" title="SearchQueryExpression.svg" xlink:actuate="onRequest" xlink:href="SearchQueryExpression.svg" xlink:show="new" xlink:title="SearchQueryExpression.svg" xlink:type="simple"><g id="elem_SearchQueryExpression"><rect codeLine="13" fill="#F1F1F1" height="32" id="SearchQueryExpression" rx="2.5" ry="2.5" style="stroke:#181818;stroke-width:0.5;" width="197" x="12" y="12"/><ellipse cx="27" cy="28" fill="#B4A7E5" rx="11" ry="11" style="stroke:#181818;stroke-width:1.0;"/><path d="M22.9219,23.7656 L22.9219,21.6094 L30.3125,21.6094 L30.3125,23.7656 L27.8438,23.7656 L27.8438,31.8438 L30.3125,31.8438 L30.3125,34 L22.9219,34 L22.9219,31.8438 L25.3906,31.8438 L25.3906,23.7656 L22.9219,23.7656 Z " fill="#000000"/><text fill="#000000" font-family="sans-serif" font-size="14" font-style="italic" lengthAdjust="spacing" textLength="165" x="41" y="32.8467">SearchQueryExpression</text></g></a><line style="stroke:#181818;stroke-width:1.0;" x1="110.5" x2="110.5" y1="44" y2="64"/><polygon fill="#FFFFFF" points="110.5,44,103.5,63,117.5,63,110.5,44" style="stroke:#181818;stroke-width:1.0;"/><rect fill="#DDDDDD" height="79.1875" id="_legend" rx="7.5" ry="7.5" style="stroke:#000000;stroke-width:1.0;" width="161" x="18" y="121.2969"/><text fill="#000000" font-family="sans-serif" font-size="14" font-weight="bold" lengthAdjust="spacing" textLength="5" x="23" y="141.292"> </text><text fill="#000000" font-family="sans-serif" font-size="14" font-weight="bold" lengthAdjust="spacing" textLength="28" x="40" y="141.292">line</text><text fill="#000000" filter="url(#by560lxtu6aj00)" font-family="sans-serif" font-size="14" lengthAdjust="spacing" textLength="12" x="23" y="157.5889">   </text><text fill="#000000" font-family="sans-serif" font-size="14" lengthAdjust="spacing" textLength="77" x="39" y="157.5889">inheritance</text><text fill="#000000" filter="url(#by560lxtu6aj01)" font-family="sans-serif" font-size="14" lengthAdjust="spacing" textLength="12" x="23" y="173.8857">   </text><text fill="#000000" font-family="sans-serif" font-size="14" lengthAdjust="spacing" textLength="129" x="39" y="173.8857">property reference</text><text fill="#000000" filter="url(#by560lxtu6aj02)" font-family="sans-serif" font-size="14" lengthAdjust="spacing" textLength="12" x="23" y="190.1826">   </text><text fill="#000000" font-family="sans-serif" font-size="14" lengthAdjust="spacing" textLength="131" x="39" y="190.1826">discriminated class</text><line style="stroke:#000000;stroke-width:1.0;" x1="23" x2="174" y1="128.2969" y2="128.2969"/><line style="stroke:#000000;stroke-width:1.0;" x1="23" x2="174" y1="144.5938" y2="144.5938"/><line style="stroke:#000000;stroke-width:1.0;" x1="23" x2="174" y1="160.8906" y2="160.8906"/><line style="stroke:#000000;stroke-width:1.0;" x1="23" x2="174" y1="177.1875" y2="177.1875"/><line style="stroke:#000000;stroke-width:1.0;" x1="23" x2="174" y1="193.4844" y2="193.4844"/><line style="stroke:#000000;stroke-width:1.0;" x1="23" x2="23" y1="128.2969" y2="193.4844"/><line style="stroke:#000000;stroke-width:1.0;" x1="35" x2="35" y1="128.2969" y2="193.4844"/><line style="stroke:#000000;stroke-width:1.0;" x1="174" x2="174" y1="128.2969" y2="193.4844"/><!--MD5=[64ec6ac4eeca5eea4ec5d37c0fcd8e31]
@startuml
!pragma layout elk
hide empty fields
hide empty methods
legend
|= |= line |
|<back:black>   </back>| inheritance |
|<back:green>   </back>| property reference |
|<back:blue>   </back>| discriminated class |
endlegend
interface SearchExistsExpression [[SearchExistsExpression.svg]] extends SearchQueryExpression {
    exists: [[SearchExistsValue.svg SearchExistsValue]]
}
interface SearchQueryExpression [[SearchQueryExpression.svg]]  {
}





@enduml

PlantUML version 1.2022.13(Sat Nov 19 13:22:17 UTC 2022)
(GPL source distribution)
Java Runtime: OpenJDK Runtime Environment
JVM: OpenJDK 64-Bit Server VM
Default Encoding: UTF-8
Language: en
Country: null
--></g></svg>
