<?xml version="1.0" encoding="UTF-8" standalone="no"?><svg xmlns="http://www.w3.org/2000/svg" xmlns:xlink="http://www.w3.org/1999/xlink" contentStyleType="text/css" height="550px" preserveAspectRatio="none" style="width:2960px;height:550px;background:#FFFFFF;" version="1.1" viewBox="0 0 2960 550" width="2960px" zoomAndPan="magnify"><defs><filter height="1" id="bq003netyr97t0" width="1" x="0" y="0"><feFlood flood-color="#000000" result="flood"/><feComposite in="SourceGraphic" in2="flood" operator="over"/></filter><filter height="1" id="bq003netyr97t1" width="1" x="0" y="0"><feFlood flood-color="#008000" result="flood"/><feComposite in="SourceGraphic" in2="flood" operator="over"/></filter><filter height="1" id="bq003netyr97t2" width="1" x="0" y="0"><feFlood flood-color="#0000FF" result="flood"/><feComposite in="SourceGraphic" in2="flood" operator="over"/></filter></defs><g><!--MD5=[817646fbcac824ff7503c022e5b4c89c]
class SearchQueryExpression--><a href="SearchQueryExpression.svg" target="_top" title="SearchQueryExpression.svg" xlink:actuate="onRequest" xlink:href="SearchQueryExpression.svg" xlink:show="new" xlink:title="SearchQueryExpression.svg" xlink:type="simple"><g id="elem_SearchQueryExpression"><rect codeLine="10" fill="#F1F1F1" height="32" id="SearchQueryExpression" rx="2.5" ry="2.5" style="stroke:#181818;stroke-width:0.5;" width="197" x="116.3667" y="64"/><ellipse cx="131.3667" cy="80" fill="#B4A7E5" rx="11" ry="11" style="stroke:#181818;stroke-width:1.0;"/><path d="M127.2885,75.7656 L127.2885,73.6094 L134.6792,73.6094 L134.6792,75.7656 L132.2104,75.7656 L132.2104,83.8438 L134.6792,83.8438 L134.6792,86 L127.2885,86 L127.2885,83.8438 L129.7573,83.8438 L129.7573,75.7656 L127.2885,75.7656 Z " fill="#000000"/><text fill="#000000" font-family="sans-serif" font-size="14" font-style="italic" lengthAdjust="spacing" textLength="165" x="145.3667" y="84.8467">SearchQueryExpression</text></g></a><!--MD5=[07fbf857dfb0808d5b9d41dfc408eef9]
class SearchQuery--><a href="SearchQuery.svg" target="_top" title="SearchQuery.svg" xlink:actuate="onRequest" xlink:href="SearchQuery.svg" xlink:show="new" xlink:title="SearchQuery.svg" xlink:type="simple"><g id="elem_SearchQuery"><rect codeLine="12" fill="#F1F1F1" height="32" id="SearchQuery" rx="2.5" ry="2.5" style="stroke:#181818;stroke-width:0.5;" width="122" x="153.8667" y="12"/><ellipse cx="168.8667" cy="28" fill="#B4A7E5" rx="11" ry="11" style="stroke:#181818;stroke-width:1.0;"/><path d="M164.7885,23.7656 L164.7885,21.6094 L172.1792,21.6094 L172.1792,23.7656 L169.7104,23.7656 L169.7104,31.8438 L172.1792,31.8438 L172.1792,34 L164.7885,34 L164.7885,31.8438 L167.2573,31.8438 L167.2573,23.7656 L164.7885,23.7656 Z " fill="#000000"/><text fill="#000000" font-family="sans-serif" font-size="14" font-style="italic" lengthAdjust="spacing" textLength="90" x="182.8667" y="32.8467">SearchQuery</text></g></a><!--MD5=[3c892ee5d9bbe8369a426e3203e1d453]
class SearchDateRangeExpression--><a href="SearchDateRangeExpression.svg" target="_top" title="SearchDateRangeExpression.svg" xlink:actuate="onRequest" xlink:href="SearchDateRangeExpression.svg" xlink:show="new" xlink:title="SearchDateRangeExpression.svg" xlink:type="simple"><g id="elem_SearchDateRangeExpression"><rect codeLine="14" fill="#F1F1F1" height="56.2969" id="SearchDateRangeExpression" rx="2.5" ry="2.5" style="stroke:#181818;stroke-width:0.5;" width="233" x="503" y="236"/><ellipse cx="518" cy="252" fill="#B4A7E5" rx="11" ry="11" style="stroke:#181818;stroke-width:1.0;"/><path d="M513.9219,247.7656 L513.9219,245.6094 L521.3125,245.6094 L521.3125,247.7656 L518.8438,247.7656 L518.8438,255.8438 L521.3125,255.8438 L521.3125,258 L513.9219,258 L513.9219,255.8438 L516.3906,255.8438 L516.3906,247.7656 L513.9219,247.7656 Z " fill="#000000"/><text fill="#000000" font-family="sans-serif" font-size="14" font-style="italic" lengthAdjust="spacing" textLength="201" x="532" y="256.8467">SearchDateRangeExpression</text><line style="stroke:#181818;stroke-width:0.5;" x1="504" x2="735" y1="268" y2="268"/><text fill="#000000" font-family="sans-serif" font-size="14" lengthAdjust="spacing" textLength="45" x="509" y="284.9951">range:</text><a href="SearchDateRangeValue.svg" target="_top" title="SearchDateRangeValue.svg" xlink:actuate="onRequest" xlink:href="SearchDateRangeValue.svg" xlink:show="new" xlink:title="SearchDateRangeValue.svg" xlink:type="simple"><text fill="#0000FF" font-family="sans-serif" font-size="14" lengthAdjust="spacing" text-decoration="underline" textLength="164" x="558" y="284.9951">SearchDateRangeValue</text></a></g></a><!--MD5=[77b999ef6a5e809ae452c5a8c8a2a3d8]
class SearchDateTimeRangeExpression--><a href="SearchDateTimeRangeExpression.svg" target="_top" title="SearchDateTimeRangeExpression.svg" xlink:actuate="onRequest" xlink:href="SearchDateTimeRangeExpression.svg" xlink:show="new" xlink:title="SearchDateTimeRangeExpression.svg" xlink:type="simple"><g id="elem_SearchDateTimeRangeExpression"><rect codeLine="17" fill="#F1F1F1" height="56.2969" id="SearchDateTimeRangeExpression" rx="2.5" ry="2.5" style="stroke:#181818;stroke-width:0.5;" width="267" x="1853" y="236"/><ellipse cx="1868" cy="252" fill="#B4A7E5" rx="11" ry="11" style="stroke:#181818;stroke-width:1.0;"/><path d="M1863.9219,247.7656 L1863.9219,245.6094 L1871.3125,245.6094 L1871.3125,247.7656 L1868.8438,247.7656 L1868.8438,255.8438 L1871.3125,255.8438 L1871.3125,258 L1863.9219,258 L1863.9219,255.8438 L1866.3906,255.8438 L1866.3906,247.7656 L1863.9219,247.7656 Z " fill="#000000"/><text fill="#000000" font-family="sans-serif" font-size="14" font-style="italic" lengthAdjust="spacing" textLength="235" x="1882" y="256.8467">SearchDateTimeRangeExpression</text><line style="stroke:#181818;stroke-width:0.5;" x1="1854" x2="2119" y1="268" y2="268"/><text fill="#000000" font-family="sans-serif" font-size="14" lengthAdjust="spacing" textLength="45" x="1859" y="284.9951">range:</text><a href="SearchDateTimeRangeValue.svg" target="_top" title="SearchDateTimeRangeValue.svg" xlink:actuate="onRequest" xlink:href="SearchDateTimeRangeValue.svg" xlink:show="new" xlink:title="SearchDateTimeRangeValue.svg" xlink:type="simple"><text fill="#0000FF" font-family="sans-serif" font-size="14" lengthAdjust="spacing" text-decoration="underline" textLength="198" x="1908" y="284.9951">SearchDateTimeRangeValue</text></a></g></a><!--MD5=[5386a26152649642ebb81fea90a40bd9]
class SearchExactExpression--><a href="SearchExactExpression.svg" target="_top" title="SearchExactExpression.svg" xlink:actuate="onRequest" xlink:href="SearchExactExpression.svg" xlink:show="new" xlink:title="SearchExactExpression.svg" xlink:type="simple"><g id="elem_SearchExactExpression"><rect codeLine="20" fill="#F1F1F1" height="56.2969" id="SearchExactExpression" rx="2.5" ry="2.5" style="stroke:#181818;stroke-width:0.5;" width="193" x="1032" y="236"/><ellipse cx="1047" cy="252" fill="#B4A7E5" rx="11" ry="11" style="stroke:#181818;stroke-width:1.0;"/><path d="M1042.9219,247.7656 L1042.9219,245.6094 L1050.3125,245.6094 L1050.3125,247.7656 L1047.8438,247.7656 L1047.8438,255.8438 L1050.3125,255.8438 L1050.3125,258 L1042.9219,258 L1042.9219,255.8438 L1045.3906,255.8438 L1045.3906,247.7656 L1042.9219,247.7656 Z " fill="#000000"/><text fill="#000000" font-family="sans-serif" font-size="14" font-style="italic" lengthAdjust="spacing" textLength="161" x="1061" y="256.8467">SearchExactExpression</text><line style="stroke:#181818;stroke-width:0.5;" x1="1033" x2="1224" y1="268" y2="268"/><text fill="#000000" font-family="sans-serif" font-size="14" lengthAdjust="spacing" textLength="42" x="1038" y="284.9951">exact:</text><a href="SearchAnyValue.svg" target="_top" title="SearchAnyValue.svg" xlink:actuate="onRequest" xlink:href="SearchAnyValue.svg" xlink:show="new" xlink:title="SearchAnyValue.svg" xlink:type="simple"><text fill="#0000FF" font-family="sans-serif" font-size="14" lengthAdjust="spacing" text-decoration="underline" textLength="111" x="1084" y="284.9951">SearchAnyValue</text></a></g></a><!--MD5=[8d026031564035c52759ab3e7400b97e]
class SearchExistsExpression--><a href="SearchExistsExpression.svg" target="_top" title="SearchExistsExpression.svg" xlink:actuate="onRequest" xlink:href="SearchExistsExpression.svg" xlink:show="new" xlink:title="SearchExistsExpression.svg" xlink:type="simple"><g id="elem_SearchExistsExpression"><rect codeLine="23" fill="#F1F1F1" height="56.2969" id="SearchExistsExpression" rx="2.5" ry="2.5" style="stroke:#181818;stroke-width:0.5;" width="194" x="2632" y="236"/><ellipse cx="2647" cy="252" fill="#B4A7E5" rx="11" ry="11" style="stroke:#181818;stroke-width:1.0;"/><path d="M2642.9219,247.7656 L2642.9219,245.6094 L2650.3125,245.6094 L2650.3125,247.7656 L2647.8438,247.7656 L2647.8438,255.8438 L2650.3125,255.8438 L2650.3125,258 L2642.9219,258 L2642.9219,255.8438 L2645.3906,255.8438 L2645.3906,247.7656 L2642.9219,247.7656 Z " fill="#000000"/><text fill="#000000" font-family="sans-serif" font-size="14" font-style="italic" lengthAdjust="spacing" textLength="162" x="2661" y="256.8467">SearchExistsExpression</text><line style="stroke:#181818;stroke-width:0.5;" x1="2633" x2="2825" y1="268" y2="268"/><text fill="#000000" font-family="sans-serif" font-size="14" lengthAdjust="spacing" textLength="45" x="2638" y="284.9951">exists:</text><a href="SearchExistsValue.svg" target="_top" title="SearchExistsValue.svg" xlink:actuate="onRequest" xlink:href="SearchExistsValue.svg" xlink:show="new" xlink:title="SearchExistsValue.svg" xlink:type="simple"><text fill="#0000FF" font-family="sans-serif" font-size="14" lengthAdjust="spacing" text-decoration="underline" textLength="126" x="2687" y="284.9951">SearchExistsValue</text></a></g></a><!--MD5=[ecac7f35d761d39be755fb5aab133d33]
class SearchFullTextExpression--><a href="SearchFullTextExpression.svg" target="_top" title="SearchFullTextExpression.svg" xlink:actuate="onRequest" xlink:href="SearchFullTextExpression.svg" xlink:show="new" xlink:title="SearchFullTextExpression.svg" xlink:type="simple"><g id="elem_SearchFullTextExpression"><rect codeLine="26" fill="#F1F1F1" height="56.2969" id="SearchFullTextExpression" rx="2.5" ry="2.5" style="stroke:#181818;stroke-width:0.5;" width="209" x="2403" y="236"/><ellipse cx="2418" cy="252" fill="#B4A7E5" rx="11" ry="11" style="stroke:#181818;stroke-width:1.0;"/><path d="M2413.9219,247.7656 L2413.9219,245.6094 L2421.3125,245.6094 L2421.3125,247.7656 L2418.8438,247.7656 L2418.8438,255.8438 L2421.3125,255.8438 L2421.3125,258 L2413.9219,258 L2413.9219,255.8438 L2416.3906,255.8438 L2416.3906,247.7656 L2413.9219,247.7656 Z " fill="#000000"/><text fill="#000000" font-family="sans-serif" font-size="14" font-style="italic" lengthAdjust="spacing" textLength="177" x="2432" y="256.8467">SearchFullTextExpression</text><line style="stroke:#181818;stroke-width:0.5;" x1="2404" x2="2611" y1="268" y2="268"/><text fill="#000000" font-family="sans-serif" font-size="14" lengthAdjust="spacing" textLength="54" x="2409" y="284.9951">fullText:</text><a href="SearchFullTextValue.svg" target="_top" title="SearchFullTextValue.svg" xlink:actuate="onRequest" xlink:href="SearchFullTextValue.svg" xlink:show="new" xlink:title="SearchFullTextValue.svg" xlink:type="simple"><text fill="#0000FF" font-family="sans-serif" font-size="14" lengthAdjust="spacing" text-decoration="underline" textLength="139" x="2467" y="284.9951">SearchFullTextValue</text></a></g></a><!--MD5=[5e7024d5e520d519d06a35d6eadba33f]
class SearchFullTextPrefixExpression--><a href="SearchFullTextPrefixExpression.svg" target="_top" title="SearchFullTextPrefixExpression.svg" xlink:actuate="onRequest" xlink:href="SearchFullTextPrefixExpression.svg" xlink:show="new" xlink:title="SearchFullTextPrefixExpression.svg" xlink:type="simple"><g id="elem_SearchFullTextPrefixExpression"><rect codeLine="29" fill="#F1F1F1" height="56.2969" id="SearchFullTextPrefixExpression" rx="2.5" ry="2.5" style="stroke:#181818;stroke-width:0.5;" width="283" x="1550" y="236"/><ellipse cx="1581.65" cy="252" fill="#B4A7E5" rx="11" ry="11" style="stroke:#181818;stroke-width:1.0;"/><path d="M1577.5719,247.7656 L1577.5719,245.6094 L1584.9625,245.6094 L1584.9625,247.7656 L1582.4938,247.7656 L1582.4938,255.8438 L1584.9625,255.8438 L1584.9625,258 L1577.5719,258 L1577.5719,255.8438 L1580.0406,255.8438 L1580.0406,247.7656 L1577.5719,247.7656 Z " fill="#000000"/><text fill="#000000" font-family="sans-serif" font-size="14" font-style="italic" lengthAdjust="spacing" textLength="214" x="1599.35" y="256.8467">SearchFullTextPrefixExpression</text><line style="stroke:#181818;stroke-width:0.5;" x1="1551" x2="1832" y1="268" y2="268"/><text fill="#000000" font-family="sans-serif" font-size="14" lengthAdjust="spacing" textLength="91" x="1556" y="284.9951">fullTextPrefix:</text><a href="SearchFullTextPrefixValue.svg" target="_top" title="SearchFullTextPrefixValue.svg" xlink:actuate="onRequest" xlink:href="SearchFullTextPrefixValue.svg" xlink:show="new" xlink:title="SearchFullTextPrefixValue.svg" xlink:type="simple"><text fill="#0000FF" font-family="sans-serif" font-size="14" lengthAdjust="spacing" text-decoration="underline" textLength="176" x="1651" y="284.9951">SearchFullTextPrefixValue</text></a></g></a><!--MD5=[20c10773bd8f5f202c7cbedfd781c767]
class SearchLongRangeExpression--><a href="SearchLongRangeExpression.svg" target="_top" title="SearchLongRangeExpression.svg" xlink:actuate="onRequest" xlink:href="SearchLongRangeExpression.svg" xlink:show="new" xlink:title="SearchLongRangeExpression.svg" xlink:type="simple"><g id="elem_SearchLongRangeExpression"><rect codeLine="32" fill="#F1F1F1" height="56.2969" id="SearchLongRangeExpression" rx="2.5" ry="2.5" style="stroke:#181818;stroke-width:0.5;" width="235" x="12" y="236"/><ellipse cx="27" cy="252" fill="#B4A7E5" rx="11" ry="11" style="stroke:#181818;stroke-width:1.0;"/><path d="M22.9219,247.7656 L22.9219,245.6094 L30.3125,245.6094 L30.3125,247.7656 L27.8438,247.7656 L27.8438,255.8438 L30.3125,255.8438 L30.3125,258 L22.9219,258 L22.9219,255.8438 L25.3906,255.8438 L25.3906,247.7656 L22.9219,247.7656 Z " fill="#000000"/><text fill="#000000" font-family="sans-serif" font-size="14" font-style="italic" lengthAdjust="spacing" textLength="203" x="41" y="256.8467">SearchLongRangeExpression</text><line style="stroke:#181818;stroke-width:0.5;" x1="13" x2="246" y1="268" y2="268"/><text fill="#000000" font-family="sans-serif" font-size="14" lengthAdjust="spacing" textLength="45" x="18" y="284.9951">range:</text><a href="SearchLongRangeValue.svg" target="_top" title="SearchLongRangeValue.svg" xlink:actuate="onRequest" xlink:href="SearchLongRangeValue.svg" xlink:show="new" xlink:title="SearchLongRangeValue.svg" xlink:type="simple"><text fill="#0000FF" font-family="sans-serif" font-size="14" lengthAdjust="spacing" text-decoration="underline" textLength="165" x="67" y="284.9951">SearchLongRangeValue</text></a></g></a><!--MD5=[95cffd0c380f4010c3a797fa5a1eb63f]
class SearchNumberRangeExpression--><a href="SearchNumberRangeExpression.svg" target="_top" title="SearchNumberRangeExpression.svg" xlink:actuate="onRequest" xlink:href="SearchNumberRangeExpression.svg" xlink:show="new" xlink:title="SearchNumberRangeExpression.svg" xlink:type="simple"><g id="elem_SearchNumberRangeExpression"><rect codeLine="35" fill="#F1F1F1" height="56.2969" id="SearchNumberRangeExpression" rx="2.5" ry="2.5" style="stroke:#181818;stroke-width:0.5;" width="256" x="756" y="236"/><ellipse cx="771" cy="252" fill="#B4A7E5" rx="11" ry="11" style="stroke:#181818;stroke-width:1.0;"/><path d="M766.9219,247.7656 L766.9219,245.6094 L774.3125,245.6094 L774.3125,247.7656 L771.8438,247.7656 L771.8438,255.8438 L774.3125,255.8438 L774.3125,258 L766.9219,258 L766.9219,255.8438 L769.3906,255.8438 L769.3906,247.7656 L766.9219,247.7656 Z " fill="#000000"/><text fill="#000000" font-family="sans-serif" font-size="14" font-style="italic" lengthAdjust="spacing" textLength="224" x="785" y="256.8467">SearchNumberRangeExpression</text><line style="stroke:#181818;stroke-width:0.5;" x1="757" x2="1011" y1="268" y2="268"/><text fill="#000000" font-family="sans-serif" font-size="14" lengthAdjust="spacing" textLength="45" x="762" y="284.9951">range:</text><a href="SearchNumberRangeValue.svg" target="_top" title="SearchNumberRangeValue.svg" xlink:actuate="onRequest" xlink:href="SearchNumberRangeValue.svg" xlink:show="new" xlink:title="SearchNumberRangeValue.svg" xlink:type="simple"><text fill="#0000FF" font-family="sans-serif" font-size="14" lengthAdjust="spacing" text-decoration="underline" textLength="186" x="811" y="284.9951">SearchNumberRangeValue</text></a></g></a><!--MD5=[0529a33d233e7d2712b7c9ea82718a87]
class SearchPrefixExpression--><a href="SearchPrefixExpression.svg" target="_top" title="SearchPrefixExpression.svg" xlink:actuate="onRequest" xlink:href="SearchPrefixExpression.svg" xlink:show="new" xlink:title="SearchPrefixExpression.svg" xlink:type="simple"><g id="elem_SearchPrefixExpression"><rect codeLine="38" fill="#F1F1F1" height="56.2969" id="SearchPrefixExpression" rx="2.5" ry="2.5" style="stroke:#181818;stroke-width:0.5;" width="192" x="2140" y="236"/><ellipse cx="2155" cy="252" fill="#B4A7E5" rx="11" ry="11" style="stroke:#181818;stroke-width:1.0;"/><path d="M2150.9219,247.7656 L2150.9219,245.6094 L2158.3125,245.6094 L2158.3125,247.7656 L2155.8438,247.7656 L2155.8438,255.8438 L2158.3125,255.8438 L2158.3125,258 L2150.9219,258 L2150.9219,255.8438 L2153.3906,255.8438 L2153.3906,247.7656 L2150.9219,247.7656 Z " fill="#000000"/><text fill="#000000" font-family="sans-serif" font-size="14" font-style="italic" lengthAdjust="spacing" textLength="160" x="2169" y="256.8467">SearchPrefixExpression</text><line style="stroke:#181818;stroke-width:0.5;" x1="2141" x2="2331" y1="268" y2="268"/><text fill="#000000" font-family="sans-serif" font-size="14" lengthAdjust="spacing" textLength="42" x="2146" y="284.9951">prefix:</text><a href="SearchAnyValue.svg" target="_top" title="SearchAnyValue.svg" xlink:actuate="onRequest" xlink:href="SearchAnyValue.svg" xlink:show="new" xlink:title="SearchAnyValue.svg" xlink:type="simple"><text fill="#0000FF" font-family="sans-serif" font-size="14" lengthAdjust="spacing" text-decoration="underline" textLength="111" x="2192" y="284.9951">SearchAnyValue</text></a></g></a><!--MD5=[ad4408eb04c83a74c288b5142c2bf753]
class SearchTimeRangeExpression--><a href="SearchTimeRangeExpression.svg" target="_top" title="SearchTimeRangeExpression.svg" xlink:actuate="onRequest" xlink:href="SearchTimeRangeExpression.svg" xlink:show="new" xlink:title="SearchTimeRangeExpression.svg" xlink:type="simple"><g id="elem_SearchTimeRangeExpression"><rect codeLine="41" fill="#F1F1F1" height="56.2969" id="SearchTimeRangeExpression" rx="2.5" ry="2.5" style="stroke:#181818;stroke-width:0.5;" width="234" x="1296" y="236"/><ellipse cx="1311" cy="252" fill="#B4A7E5" rx="11" ry="11" style="stroke:#181818;stroke-width:1.0;"/><path d="M1306.9219,247.7656 L1306.9219,245.6094 L1314.3125,245.6094 L1314.3125,247.7656 L1311.8438,247.7656 L1311.8438,255.8438 L1314.3125,255.8438 L1314.3125,258 L1306.9219,258 L1306.9219,255.8438 L1309.3906,255.8438 L1309.3906,247.7656 L1306.9219,247.7656 Z " fill="#000000"/><text fill="#000000" font-family="sans-serif" font-size="14" font-style="italic" lengthAdjust="spacing" textLength="202" x="1325" y="256.8467">SearchTimeRangeExpression</text><line style="stroke:#181818;stroke-width:0.5;" x1="1297" x2="1529" y1="268" y2="268"/><text fill="#000000" font-family="sans-serif" font-size="14" lengthAdjust="spacing" textLength="45" x="1302" y="284.9951">range:</text><a href="SearchTimeRangeValue.svg" target="_top" title="SearchTimeRangeValue.svg" xlink:actuate="onRequest" xlink:href="SearchTimeRangeValue.svg" xlink:show="new" xlink:title="SearchTimeRangeValue.svg" xlink:type="simple"><text fill="#0000FF" font-family="sans-serif" font-size="14" lengthAdjust="spacing" text-decoration="underline" textLength="165" x="1351" y="284.9951">SearchTimeRangeValue</text></a></g></a><!--MD5=[7c8392683ebc8188aaef5eee80643145]
class SearchWildCardExpression--><a href="SearchWildCardExpression.svg" target="_top" title="SearchWildCardExpression.svg" xlink:actuate="onRequest" xlink:href="SearchWildCardExpression.svg" xlink:show="new" xlink:title="SearchWildCardExpression.svg" xlink:type="simple"><g id="elem_SearchWildCardExpression"><rect codeLine="44" fill="#F1F1F1" height="56.2969" id="SearchWildCardExpression" rx="2.5" ry="2.5" style="stroke:#181818;stroke-width:0.5;" width="216" x="267" y="236"/><ellipse cx="282" cy="252" fill="#B4A7E5" rx="11" ry="11" style="stroke:#181818;stroke-width:1.0;"/><path d="M277.9219,247.7656 L277.9219,245.6094 L285.3125,245.6094 L285.3125,247.7656 L282.8438,247.7656 L282.8438,255.8438 L285.3125,255.8438 L285.3125,258 L277.9219,258 L277.9219,255.8438 L280.3906,255.8438 L280.3906,247.7656 L277.9219,247.7656 Z " fill="#000000"/><text fill="#000000" font-family="sans-serif" font-size="14" font-style="italic" lengthAdjust="spacing" textLength="184" x="296" y="256.8467">SearchWildCardExpression</text><line style="stroke:#181818;stroke-width:0.5;" x1="268" x2="482" y1="268" y2="268"/><text fill="#000000" font-family="sans-serif" font-size="14" lengthAdjust="spacing" textLength="61" x="273" y="284.9951">wildcard:</text><a href="SearchAnyValue.svg" target="_top" title="SearchAnyValue.svg" xlink:actuate="onRequest" xlink:href="SearchAnyValue.svg" xlink:show="new" xlink:title="SearchAnyValue.svg" xlink:type="simple"><text fill="#0000FF" font-family="sans-serif" font-size="14" lengthAdjust="spacing" text-decoration="underline" textLength="111" x="338" y="284.9951">SearchAnyValue</text></a></g></a><!--MD5=[2637bed3ae35adaccab5bc908ea4c711]
class SearchFilterExpression--><a href="SearchFilterExpression.svg" target="_top" title="SearchFilterExpression.svg" xlink:actuate="onRequest" xlink:href="SearchFilterExpression.svg" xlink:show="new" xlink:title="SearchFilterExpression.svg" xlink:type="simple"><g id="elem_SearchFilterExpression"><rect codeLine="48" fill="#F1F1F1" height="56.2969" id="SearchFilterExpression" rx="2.5" ry="2.5" style="stroke:#181818;stroke-width:0.5;" width="262" x="1187.6667" y="312.2969"/><ellipse cx="1236.4167" cy="328.2969" fill="#B4A7E5" rx="11" ry="11" style="stroke:#181818;stroke-width:1.0;"/><path d="M1232.3385,324.0625 L1232.3385,321.9063 L1239.7292,321.9063 L1239.7292,324.0625 L1237.2604,324.0625 L1237.2604,332.1406 L1239.7292,332.1406 L1239.7292,334.2969 L1232.3385,334.2969 L1232.3385,332.1406 L1234.8073,332.1406 L1234.8073,324.0625 L1232.3385,324.0625 Z " fill="#000000"/><text fill="#000000" font-family="sans-serif" font-size="14" font-style="italic" lengthAdjust="spacing" textLength="156" x="1256.9167" y="333.1436">SearchFilterExpression</text><line style="stroke:#181818;stroke-width:0.5;" x1="1188.6667" x2="1448.6667" y1="344.2969" y2="344.2969"/><text fill="#000000" font-family="sans-serif" font-size="14" lengthAdjust="spacing" textLength="34" x="1193.6667" y="361.292">filter:</text><a href="SearchQueryExpression.svg" target="_top" title="SearchQueryExpression.svg" xlink:actuate="onRequest" xlink:href="SearchQueryExpression.svg" xlink:show="new" xlink:title="SearchQueryExpression.svg" xlink:type="simple"><text fill="#0000FF" font-family="sans-serif" font-size="14" lengthAdjust="spacing" text-decoration="underline" textLength="212" x="1231.6667" y="361.292">List&lt;SearchQueryExpression&gt;</text></a></g></a><!--MD5=[91c510519c30cccd400901d8f5c7c0df]
class SearchSorting--><a href="SearchSorting.svg" target="_top" title="SearchSorting.svg" xlink:actuate="onRequest" xlink:href="SearchSorting.svg" xlink:show="new" xlink:title="SearchSorting.svg" xlink:type="simple"><g id="elem_SearchSorting"><rect codeLine="51" fill="#F1F1F1" height="137.7813" id="SearchSorting" rx="2.5" ry="2.5" style="stroke:#181818;stroke-width:0.5;" width="215" x="2738.5" y="312.2969"/><ellipse cx="2793.25" cy="328.2969" fill="#B4A7E5" rx="11" ry="11" style="stroke:#181818;stroke-width:1.0;"/><path d="M2789.1719,324.0625 L2789.1719,321.9063 L2796.5625,321.9063 L2796.5625,324.0625 L2794.0938,324.0625 L2794.0938,332.1406 L2796.5625,332.1406 L2796.5625,334.2969 L2789.1719,334.2969 L2789.1719,332.1406 L2791.6406,332.1406 L2791.6406,324.0625 L2789.1719,324.0625 Z " fill="#000000"/><text fill="#000000" font-family="sans-serif" font-size="14" font-style="italic" lengthAdjust="spacing" textLength="97" x="2813.75" y="333.1436">SearchSorting</text><line style="stroke:#181818;stroke-width:0.5;" x1="2739.5" x2="2952.5" y1="344.2969" y2="344.2969"/><text fill="#000000" font-family="sans-serif" font-size="14" lengthAdjust="spacing" textLength="77" x="2744.5" y="361.292">field: String</text><text fill="#000000" font-family="sans-serif" font-size="14" lengthAdjust="spacing" textLength="113" x="2744.5" y="377.5889">language: String</text><text fill="#000000" font-family="sans-serif" font-size="14" lengthAdjust="spacing" textLength="42" x="2744.5" y="393.8857">order:</text><a href="SearchSortOrder.svg" target="_top" title="SearchSortOrder.svg" xlink:actuate="onRequest" xlink:href="SearchSortOrder.svg" xlink:show="new" xlink:title="SearchSortOrder.svg" xlink:type="simple"><text fill="#0000FF" font-family="sans-serif" font-size="14" lengthAdjust="spacing" text-decoration="underline" textLength="115" x="2790.5" y="393.8857">SearchSortOrder</text></a><text fill="#000000" font-family="sans-serif" font-size="14" lengthAdjust="spacing" textLength="45" x="2744.5" y="410.1826">mode:</text><a href="SearchSortMode.svg" target="_top" title="SearchSortMode.svg" xlink:actuate="onRequest" xlink:href="SearchSortMode.svg" xlink:show="new" xlink:title="SearchSortMode.svg" xlink:type="simple"><text fill="#0000FF" font-family="sans-serif" font-size="14" lengthAdjust="spacing" text-decoration="underline" textLength="115" x="2793.5" y="410.1826">SearchSortMode</text></a><text fill="#000000" font-family="sans-serif" font-size="14" lengthAdjust="spacing" textLength="67" x="2744.5" y="426.4795">fieldType:</text><a href="SearchFieldType.svg" target="_top" title="SearchFieldType.svg" xlink:actuate="onRequest" xlink:href="SearchFieldType.svg" xlink:show="new" xlink:title="SearchFieldType.svg" xlink:type="simple"><text fill="#0000FF" font-family="sans-serif" font-size="14" lengthAdjust="spacing" text-decoration="underline" textLength="114" x="2815.5" y="426.4795">SearchFieldType</text></a><text fill="#000000" font-family="sans-serif" font-size="14" lengthAdjust="spacing" textLength="34" x="2744.5" y="442.7764">filter:</text><a href="SearchQueryExpression.svg" target="_top" title="SearchQueryExpression.svg" xlink:actuate="onRequest" xlink:href="SearchQueryExpression.svg" xlink:show="new" xlink:title="SearchQueryExpression.svg" xlink:type="simple"><text fill="#0000FF" font-family="sans-serif" font-size="14" lengthAdjust="spacing" text-decoration="underline" textLength="165" x="2782.5" y="442.7764">SearchQueryExpression</text></a></g></a><line style="stroke:#181818;stroke-width:1.0;" x1="214.8667" x2="214.8667" y1="44" y2="64"/><polygon fill="#FFFFFF" points="214.8667,44,207.8667,63,221.8667,63,214.8667,44" style="stroke:#181818;stroke-width:1.0;"/><line style="stroke:#181818;stroke-width:1.0;" x1="155.7667" x2="155.7667" y1="96" y2="216"/><line style="stroke:#181818;stroke-width:1.0;" x1="155.7667" x2="619.5" y1="216" y2="216"/><line style="stroke:#181818;stroke-width:1.0;" x1="619.5" x2="619.5" y1="216" y2="236"/><polygon fill="#FFFFFF" points="155.7667,96,148.7667,115,162.7667,115,155.7667,96" style="stroke:#181818;stroke-width:1.0;"/><line style="stroke:#181818;stroke-width:1.0;" x1="234.5667" x2="234.5667" y1="96" y2="156"/><line style="stroke:#181818;stroke-width:1.0;" x1="234.5667" x2="1986.5" y1="156" y2="156"/><line style="stroke:#181818;stroke-width:1.0;" x1="1986.5" x2="1986.5" y1="156" y2="236"/><polygon fill="#FFFFFF" points="234.5667,96,227.5667,115,241.5667,115,234.5667,96" style="stroke:#181818;stroke-width:1.0;"/><line style="stroke:#181818;stroke-width:1.0;" x1="182.0333" x2="182.0333" y1="96" y2="196"/><line style="stroke:#181818;stroke-width:1.0;" x1="182.0333" x2="1128.5" y1="196" y2="196"/><line style="stroke:#181818;stroke-width:1.0;" x1="1128.5" x2="1128.5" y1="196" y2="236"/><polygon fill="#FFFFFF" points="182.0333,96,175.0333,115,189.0333,115,182.0333,96" style="stroke:#181818;stroke-width:1.0;"/><line style="stroke:#181818;stroke-width:1.0;" x1="287.1" x2="287.1" y1="96" y2="116"/><line style="stroke:#181818;stroke-width:1.0;" x1="287.1" x2="2729" y1="116" y2="116"/><line style="stroke:#181818;stroke-width:1.0;" x1="2729" x2="2729" y1="116" y2="236"/><polygon fill="#FFFFFF" points="287.1,96,280.1,115,294.1,115,287.1,96" style="stroke:#181818;stroke-width:1.0;"/><line style="stroke:#181818;stroke-width:1.0;" x1="273.9667" x2="273.9667" y1="96" y2="126"/><line style="stroke:#181818;stroke-width:1.0;" x1="273.9667" x2="2507.5" y1="126" y2="126"/><line style="stroke:#181818;stroke-width:1.0;" x1="2507.5" x2="2507.5" y1="126" y2="236"/><polygon fill="#FFFFFF" points="273.9667,96,266.9667,115,280.9667,115,273.9667,96" style="stroke:#181818;stroke-width:1.0;"/><line style="stroke:#181818;stroke-width:1.0;" x1="221.4333" x2="221.4333" y1="96" y2="166"/><line style="stroke:#181818;stroke-width:1.0;" x1="221.4333" x2="1691.5" y1="166" y2="166"/><line style="stroke:#181818;stroke-width:1.0;" x1="1691.5" x2="1691.5" y1="166" y2="236"/><polygon fill="#FFFFFF" points="221.4333,96,214.4333,115,228.4333,115,221.4333,96" style="stroke:#181818;stroke-width:1.0;"/><line style="stroke:#181818;stroke-width:1.0;" x1="129.5" x2="129.5" y1="96" y2="236"/><polygon fill="#FFFFFF" points="129.5,96,122.5,115,136.5,115,129.5,96" style="stroke:#181818;stroke-width:1.0;"/><line style="stroke:#181818;stroke-width:1.0;" x1="168.9" x2="168.9" y1="96" y2="206"/><line style="stroke:#181818;stroke-width:1.0;" x1="168.9" x2="884" y1="206" y2="206"/><line style="stroke:#181818;stroke-width:1.0;" x1="884" x2="884" y1="206" y2="236"/><polygon fill="#FFFFFF" points="168.9,96,161.9,115,175.9,115,168.9,96" style="stroke:#181818;stroke-width:1.0;"/><line style="stroke:#181818;stroke-width:1.0;" x1="247.7" x2="247.7" y1="96" y2="146"/><line style="stroke:#181818;stroke-width:1.0;" x1="247.7" x2="2236" y1="146" y2="146"/><line style="stroke:#181818;stroke-width:1.0;" x1="2236" x2="2236" y1="146" y2="236"/><polygon fill="#FFFFFF" points="247.7,96,240.7,115,254.7,115,247.7,96" style="stroke:#181818;stroke-width:1.0;"/><line style="stroke:#181818;stroke-width:1.0;" x1="208.3" x2="208.3" y1="96" y2="176"/><line style="stroke:#181818;stroke-width:1.0;" x1="208.3" x2="1413" y1="176" y2="176"/><line style="stroke:#181818;stroke-width:1.0;" x1="1413" x2="1413" y1="176" y2="236"/><polygon fill="#FFFFFF" points="208.3,96,201.3,115,215.3,115,208.3,96" style="stroke:#181818;stroke-width:1.0;"/><line style="stroke:#181818;stroke-width:1.0;" x1="142.6333" x2="142.6333" y1="96" y2="226"/><line style="stroke:#181818;stroke-width:1.0;" x1="142.6333" x2="375" y1="226" y2="226"/><line style="stroke:#181818;stroke-width:1.0;" x1="375" x2="375" y1="226" y2="236"/><polygon fill="#FFFFFF" points="142.6333,96,135.6333,115,149.6333,115,142.6333,96" style="stroke:#181818;stroke-width:1.0;"/><line style="stroke:#008000;stroke-width:1.0;" x1="260.8333" x2="260.8333" y1="96" y2="136"/><line style="stroke:#008000;stroke-width:1.0;" x1="260.8333" x2="2382" y1="136" y2="136"/><line style="stroke:#008000;stroke-width:1.0;" x1="2382" x2="2382" y1="136" y2="302.2969"/><line style="stroke:#008000;stroke-width:1.0;" x1="2382" x2="1362.3333" y1="302.2969" y2="302.2969"/><line style="stroke:#008000;stroke-width:1.0;" x1="1362.3333" x2="1362.3333" y1="302.2969" y2="312.2969"/><polygon fill="#008000" points="1362.3333,312.2969,1366.3333,303.2969,1362.3333,307.2969,1358.3333,303.2969,1362.3333,312.2969" style="stroke:#008000;stroke-width:1.0;"/><text fill="#000000" font-family="sans-serif" font-size="13" lengthAdjust="spacing" textLength="28" x="2352" y="268.6489">filter</text><line style="stroke:#008000;stroke-width:1.0;" x1="195.1667" x2="195.1667" y1="96" y2="186"/><line style="stroke:#008000;stroke-width:1.0;" x1="195.1667" x2="1275" y1="186" y2="186"/><line style="stroke:#008000;stroke-width:1.0;" x1="1275" x2="1275" y1="186" y2="312.2969"/><polygon fill="#008000" points="1275,312.2969,1279,303.2969,1275,307.2969,1271,303.2969,1275,312.2969" style="stroke:#008000;stroke-width:1.0;"/><text fill="#000000" font-family="sans-serif" font-size="13" lengthAdjust="spacing" textLength="28" x="1245" y="268.6489">filter</text><line style="stroke:#008000;stroke-width:1.0;" x1="300.2333" x2="300.2333" y1="96" y2="106"/><line style="stroke:#008000;stroke-width:1.0;" x1="300.2333" x2="2846" y1="106" y2="106"/><line style="stroke:#008000;stroke-width:1.0;" x1="2846" x2="2846" y1="106" y2="312.2969"/><polygon fill="#008000" points="2846,312.2969,2850,303.2969,2846,307.2969,2842,303.2969,2846,312.2969" style="stroke:#008000;stroke-width:1.0;"/><text fill="#000000" font-family="sans-serif" font-size="13" lengthAdjust="spacing" textLength="28" x="2849" y="268.6489">filter</text><rect fill="#DDDDDD" height="79.1875" id="_legend" rx="7.5" ry="7.5" style="stroke:#000000;stroke-width:1.0;" width="161" x="1390.25" y="451.0781"/><text fill="#000000" font-family="sans-serif" font-size="14" font-weight="bold" lengthAdjust="spacing" textLength="5" x="1395.25" y="471.0732"> </text><text fill="#000000" font-family="sans-serif" font-size="14" font-weight="bold" lengthAdjust="spacing" textLength="28" x="1412.25" y="471.0732">line</text><text fill="#000000" filter="url(#bq003netyr97t0)" font-family="sans-serif" font-size="14" lengthAdjust="spacing" textLength="12" x="1395.25" y="487.3701">   </text><text fill="#000000" font-family="sans-serif" font-size="14" lengthAdjust="spacing" textLength="77" x="1411.25" y="487.3701">inheritance</text><text fill="#000000" filter="url(#bq003netyr97t1)" font-family="sans-serif" font-size="14" lengthAdjust="spacing" textLength="12" x="1395.25" y="503.667">   </text><text fill="#000000" font-family="sans-serif" font-size="14" lengthAdjust="spacing" textLength="129" x="1411.25" y="503.667">property reference</text><text fill="#000000" filter="url(#bq003netyr97t2)" font-family="sans-serif" font-size="14" lengthAdjust="spacing" textLength="12" x="1395.25" y="519.9639">   </text><text fill="#000000" font-family="sans-serif" font-size="14" lengthAdjust="spacing" textLength="131" x="1411.25" y="519.9639">discriminated class</text><line style="stroke:#000000;stroke-width:1.0;" x1="1395.25" x2="1546.25" y1="458.0781" y2="458.0781"/><line style="stroke:#000000;stroke-width:1.0;" x1="1395.25" x2="1546.25" y1="474.375" y2="474.375"/><line style="stroke:#000000;stroke-width:1.0;" x1="1395.25" x2="1546.25" y1="490.6719" y2="490.6719"/><line style="stroke:#000000;stroke-width:1.0;" x1="1395.25" x2="1546.25" y1="506.9688" y2="506.9688"/><line style="stroke:#000000;stroke-width:1.0;" x1="1395.25" x2="1546.25" y1="523.2656" y2="523.2656"/><line style="stroke:#000000;stroke-width:1.0;" x1="1395.25" x2="1395.25" y1="458.0781" y2="523.2656"/><line style="stroke:#000000;stroke-width:1.0;" x1="1407.25" x2="1407.25" y1="458.0781" y2="523.2656"/><line style="stroke:#000000;stroke-width:1.0;" x1="1546.25" x2="1546.25" y1="458.0781" y2="523.2656"/><!--MD5=[d41c57f37f1b9919b237e119a256e59c]
@startuml
!pragma layout elk
hide empty fields
hide empty methods
legend
|= |= line |
|<back:black>   </back>| inheritance |
|<back:green>   </back>| property reference |
|<back:blue>   </back>| discriminated class |
endlegend
interface SearchQueryExpression [[SearchQueryExpression.svg]] extends SearchQuery {
}
interface SearchQuery [[SearchQuery.svg]]  {
}
interface SearchDateRangeExpression [[SearchDateRangeExpression.svg]] extends SearchQueryExpression {
    range: [[SearchDateRangeValue.svg SearchDateRangeValue]]
}
interface SearchDateTimeRangeExpression [[SearchDateTimeRangeExpression.svg]] extends SearchQueryExpression {
    range: [[SearchDateTimeRangeValue.svg SearchDateTimeRangeValue]]
}
interface SearchExactExpression [[SearchExactExpression.svg]] extends SearchQueryExpression {
    exact: [[SearchAnyValue.svg SearchAnyValue]]
}
interface SearchExistsExpression [[SearchExistsExpression.svg]] extends SearchQueryExpression {
    exists: [[SearchExistsValue.svg SearchExistsValue]]
}
interface SearchFullTextExpression [[SearchFullTextExpression.svg]] extends SearchQueryExpression {
    fullText: [[SearchFullTextValue.svg SearchFullTextValue]]
}
interface SearchFullTextPrefixExpression [[SearchFullTextPrefixExpression.svg]] extends SearchQueryExpression {
    fullTextPrefix: [[SearchFullTextPrefixValue.svg SearchFullTextPrefixValue]]
}
interface SearchLongRangeExpression [[SearchLongRangeExpression.svg]] extends SearchQueryExpression {
    range: [[SearchLongRangeValue.svg SearchLongRangeValue]]
}
interface SearchNumberRangeExpression [[SearchNumberRangeExpression.svg]] extends SearchQueryExpression {
    range: [[SearchNumberRangeValue.svg SearchNumberRangeValue]]
}
interface SearchPrefixExpression [[SearchPrefixExpression.svg]] extends SearchQueryExpression {
    prefix: [[SearchAnyValue.svg SearchAnyValue]]
}
interface SearchTimeRangeExpression [[SearchTimeRangeExpression.svg]] extends SearchQueryExpression {
    range: [[SearchTimeRangeValue.svg SearchTimeRangeValue]]
}
interface SearchWildCardExpression [[SearchWildCardExpression.svg]] extends SearchQueryExpression {
    wildcard: [[SearchAnyValue.svg SearchAnyValue]]
}

interface SearchFilterExpression [[SearchFilterExpression.svg]]  {
    filter: [[SearchQueryExpression.svg List<SearchQueryExpression>]]
}
interface SearchSorting [[SearchSorting.svg]]  {
    field: String
    language: String
    order: [[SearchSortOrder.svg SearchSortOrder]]
    mode: [[SearchSortMode.svg SearchSortMode]]
    fieldType: [[SearchFieldType.svg SearchFieldType]]
    filter: [[SearchQueryExpression.svg SearchQueryExpression]]
}

SearchQueryExpression - -> SearchFilterExpression #green;text:green : "filter"
SearchQueryExpression - -> SearchFilterExpression #green;text:green : "filter"
SearchQueryExpression - -> SearchSorting #green;text:green : "filter"
@enduml

PlantUML version 1.2022.13(Sat Nov 19 13:22:17 UTC 2022)
(GPL source distribution)
Java Runtime: OpenJDK Runtime Environment
JVM: OpenJDK 64-Bit Server VM
Default Encoding: UTF-8
Language: en
Country: null
--></g></svg>
