<?xml version="1.0" encoding="UTF-8" standalone="no"?><svg xmlns="http://www.w3.org/2000/svg" xmlns:xlink="http://www.w3.org/1999/xlink" contentStyleType="text/css" height="468px" preserveAspectRatio="none" style="width:3047px;height:468px;background:#FFFFFF;" version="1.1" viewBox="0 0 3047 468" width="3047px" zoomAndPan="magnify"><defs><filter height="1" id="bsiofhim2el4q0" width="1" x="0" y="0"><feFlood flood-color="#000000" result="flood"/><feComposite in="SourceGraphic" in2="flood" operator="over"/></filter><filter height="1" id="bsiofhim2el4q1" width="1" x="0" y="0"><feFlood flood-color="#008000" result="flood"/><feComposite in="SourceGraphic" in2="flood" operator="over"/></filter><filter height="1" id="bsiofhim2el4q2" width="1" x="0" y="0"><feFlood flood-color="#0000FF" result="flood"/><feComposite in="SourceGraphic" in2="flood" operator="over"/></filter></defs><g><!--MD5=[817646fbcac824ff7503c022e5b4c89c]
class SearchQueryExpression--><a href="SearchQueryExpression.svg" target="_top" title="SearchQueryExpression.svg" xlink:actuate="onRequest" xlink:href="SearchQueryExpression.svg" xlink:show="new" xlink:title="SearchQueryExpression.svg" xlink:type="simple"><g id="elem_SearchQueryExpression"><rect codeLine="10" fill="#F1F1F1" height="32" id="SearchQueryExpression" rx="2.5" ry="2.5" style="stroke:#181818;stroke-width:0.5;" width="197" x="94.8667" y="64"/><ellipse cx="109.8667" cy="80" fill="#B4A7E5" rx="11" ry="11" style="stroke:#181818;stroke-width:1.0;"/><path d="M105.7885,75.7656 L105.7885,73.6094 L113.1792,73.6094 L113.1792,75.7656 L110.7104,75.7656 L110.7104,83.8438 L113.1792,83.8438 L113.1792,86 L105.7885,86 L105.7885,83.8438 L108.2573,83.8438 L108.2573,75.7656 L105.7885,75.7656 Z " fill="#000000"/><text fill="#000000" font-family="sans-serif" font-size="14" font-style="italic" lengthAdjust="spacing" textLength="165" x="123.8667" y="84.8467">SearchQueryExpression</text></g></a><!--MD5=[07fbf857dfb0808d5b9d41dfc408eef9]
class SearchQuery--><a href="SearchQuery.svg" target="_top" title="SearchQuery.svg" xlink:actuate="onRequest" xlink:href="SearchQuery.svg" xlink:show="new" xlink:title="SearchQuery.svg" xlink:type="simple"><g id="elem_SearchQuery"><rect codeLine="12" fill="#F1F1F1" height="32" id="SearchQuery" rx="2.5" ry="2.5" style="stroke:#181818;stroke-width:0.5;" width="122" x="132.3667" y="12"/><ellipse cx="147.3667" cy="28" fill="#B4A7E5" rx="11" ry="11" style="stroke:#181818;stroke-width:1.0;"/><path d="M143.2885,23.7656 L143.2885,21.6094 L150.6792,21.6094 L150.6792,23.7656 L148.2104,23.7656 L148.2104,31.8438 L150.6792,31.8438 L150.6792,34 L143.2885,34 L143.2885,31.8438 L145.7573,31.8438 L145.7573,23.7656 L143.2885,23.7656 Z " fill="#000000"/><text fill="#000000" font-family="sans-serif" font-size="14" font-style="italic" lengthAdjust="spacing" textLength="90" x="161.3667" y="32.8467">SearchQuery</text></g></a><!--MD5=[3c892ee5d9bbe8369a426e3203e1d453]
class SearchDateRangeExpression--><a href="SearchDateRangeExpression.svg" target="_top" title="SearchDateRangeExpression.svg" xlink:actuate="onRequest" xlink:href="SearchDateRangeExpression.svg" xlink:show="new" xlink:title="SearchDateRangeExpression.svg" xlink:type="simple"><g id="elem_SearchDateRangeExpression"><rect codeLine="14" fill="#F1F1F1" height="56.2969" id="SearchDateRangeExpression" rx="2.5" ry="2.5" style="stroke:#181818;stroke-width:0.5;" width="233" x="224" y="236"/><ellipse cx="239" cy="252" fill="#B4A7E5" rx="11" ry="11" style="stroke:#181818;stroke-width:1.0;"/><path d="M234.9219,247.7656 L234.9219,245.6094 L242.3125,245.6094 L242.3125,247.7656 L239.8438,247.7656 L239.8438,255.8438 L242.3125,255.8438 L242.3125,258 L234.9219,258 L234.9219,255.8438 L237.3906,255.8438 L237.3906,247.7656 L234.9219,247.7656 Z " fill="#000000"/><text fill="#000000" font-family="sans-serif" font-size="14" font-style="italic" lengthAdjust="spacing" textLength="201" x="253" y="256.8467">SearchDateRangeExpression</text><line style="stroke:#181818;stroke-width:0.5;" x1="225" x2="456" y1="268" y2="268"/><text fill="#000000" font-family="sans-serif" font-size="14" lengthAdjust="spacing" textLength="45" x="230" y="284.9951">range:</text><a href="SearchDateRangeValue.svg" target="_top" title="SearchDateRangeValue.svg" xlink:actuate="onRequest" xlink:href="SearchDateRangeValue.svg" xlink:show="new" xlink:title="SearchDateRangeValue.svg" xlink:type="simple"><text fill="#0000FF" font-family="sans-serif" font-size="14" lengthAdjust="spacing" text-decoration="underline" textLength="164" x="279" y="284.9951">SearchDateRangeValue</text></a></g></a><!--MD5=[77b999ef6a5e809ae452c5a8c8a2a3d8]
class SearchDateTimeRangeExpression--><a href="SearchDateTimeRangeExpression.svg" target="_top" title="SearchDateTimeRangeExpression.svg" xlink:actuate="onRequest" xlink:href="SearchDateTimeRangeExpression.svg" xlink:show="new" xlink:title="SearchDateTimeRangeExpression.svg" xlink:type="simple"><g id="elem_SearchDateTimeRangeExpression"><rect codeLine="17" fill="#F1F1F1" height="56.2969" id="SearchDateTimeRangeExpression" rx="2.5" ry="2.5" style="stroke:#181818;stroke-width:0.5;" width="267" x="2508" y="236"/><ellipse cx="2523" cy="252" fill="#B4A7E5" rx="11" ry="11" style="stroke:#181818;stroke-width:1.0;"/><path d="M2518.9219,247.7656 L2518.9219,245.6094 L2526.3125,245.6094 L2526.3125,247.7656 L2523.8438,247.7656 L2523.8438,255.8438 L2526.3125,255.8438 L2526.3125,258 L2518.9219,258 L2518.9219,255.8438 L2521.3906,255.8438 L2521.3906,247.7656 L2518.9219,247.7656 Z " fill="#000000"/><text fill="#000000" font-family="sans-serif" font-size="14" font-style="italic" lengthAdjust="spacing" textLength="235" x="2537" y="256.8467">SearchDateTimeRangeExpression</text><line style="stroke:#181818;stroke-width:0.5;" x1="2509" x2="2774" y1="268" y2="268"/><text fill="#000000" font-family="sans-serif" font-size="14" lengthAdjust="spacing" textLength="45" x="2514" y="284.9951">range:</text><a href="SearchDateTimeRangeValue.svg" target="_top" title="SearchDateTimeRangeValue.svg" xlink:actuate="onRequest" xlink:href="SearchDateTimeRangeValue.svg" xlink:show="new" xlink:title="SearchDateTimeRangeValue.svg" xlink:type="simple"><text fill="#0000FF" font-family="sans-serif" font-size="14" lengthAdjust="spacing" text-decoration="underline" textLength="198" x="2563" y="284.9951">SearchDateTimeRangeValue</text></a></g></a><!--MD5=[5386a26152649642ebb81fea90a40bd9]
class SearchExactExpression--><a href="SearchExactExpression.svg" target="_top" title="SearchExactExpression.svg" xlink:actuate="onRequest" xlink:href="SearchExactExpression.svg" xlink:show="new" xlink:title="SearchExactExpression.svg" xlink:type="simple"><g id="elem_SearchExactExpression"><rect codeLine="20" fill="#F1F1F1" height="56.2969" id="SearchExactExpression" rx="2.5" ry="2.5" style="stroke:#181818;stroke-width:0.5;" width="193" x="1248" y="236"/><ellipse cx="1263" cy="252" fill="#B4A7E5" rx="11" ry="11" style="stroke:#181818;stroke-width:1.0;"/><path d="M1258.9219,247.7656 L1258.9219,245.6094 L1266.3125,245.6094 L1266.3125,247.7656 L1263.8438,247.7656 L1263.8438,255.8438 L1266.3125,255.8438 L1266.3125,258 L1258.9219,258 L1258.9219,255.8438 L1261.3906,255.8438 L1261.3906,247.7656 L1258.9219,247.7656 Z " fill="#000000"/><text fill="#000000" font-family="sans-serif" font-size="14" font-style="italic" lengthAdjust="spacing" textLength="161" x="1277" y="256.8467">SearchExactExpression</text><line style="stroke:#181818;stroke-width:0.5;" x1="1249" x2="1440" y1="268" y2="268"/><text fill="#000000" font-family="sans-serif" font-size="14" lengthAdjust="spacing" textLength="42" x="1254" y="284.9951">exact:</text><a href="SearchExactValue.svg" target="_top" title="SearchExactValue.svg" xlink:actuate="onRequest" xlink:href="SearchExactValue.svg" xlink:show="new" xlink:title="SearchExactValue.svg" xlink:type="simple"><text fill="#0000FF" font-family="sans-serif" font-size="14" lengthAdjust="spacing" text-decoration="underline" textLength="123" x="1300" y="284.9951">SearchExactValue</text></a></g></a><!--MD5=[8d026031564035c52759ab3e7400b97e]
class SearchExistsExpression--><a href="SearchExistsExpression.svg" target="_top" title="SearchExistsExpression.svg" xlink:actuate="onRequest" xlink:href="SearchExistsExpression.svg" xlink:show="new" xlink:title="SearchExistsExpression.svg" xlink:type="simple"><g id="elem_SearchExistsExpression"><rect codeLine="23" fill="#F1F1F1" height="56.2969" id="SearchExistsExpression" rx="2.5" ry="2.5" style="stroke:#181818;stroke-width:0.5;" width="194" x="477" y="236"/><ellipse cx="492" cy="252" fill="#B4A7E5" rx="11" ry="11" style="stroke:#181818;stroke-width:1.0;"/><path d="M487.9219,247.7656 L487.9219,245.6094 L495.3125,245.6094 L495.3125,247.7656 L492.8438,247.7656 L492.8438,255.8438 L495.3125,255.8438 L495.3125,258 L487.9219,258 L487.9219,255.8438 L490.3906,255.8438 L490.3906,247.7656 L487.9219,247.7656 Z " fill="#000000"/><text fill="#000000" font-family="sans-serif" font-size="14" font-style="italic" lengthAdjust="spacing" textLength="162" x="506" y="256.8467">SearchExistsExpression</text><line style="stroke:#181818;stroke-width:0.5;" x1="478" x2="670" y1="268" y2="268"/><text fill="#000000" font-family="sans-serif" font-size="14" lengthAdjust="spacing" textLength="45" x="483" y="284.9951">exists:</text><a href="SearchExistsValue.svg" target="_top" title="SearchExistsValue.svg" xlink:actuate="onRequest" xlink:href="SearchExistsValue.svg" xlink:show="new" xlink:title="SearchExistsValue.svg" xlink:type="simple"><text fill="#0000FF" font-family="sans-serif" font-size="14" lengthAdjust="spacing" text-decoration="underline" textLength="126" x="532" y="284.9951">SearchExistsValue</text></a></g></a><!--MD5=[ecac7f35d761d39be755fb5aab133d33]
class SearchFullTextExpression--><a href="SearchFullTextExpression.svg" target="_top" title="SearchFullTextExpression.svg" xlink:actuate="onRequest" xlink:href="SearchFullTextExpression.svg" xlink:show="new" xlink:title="SearchFullTextExpression.svg" xlink:type="simple"><g id="elem_SearchFullTextExpression"><rect codeLine="26" fill="#F1F1F1" height="56.2969" id="SearchFullTextExpression" rx="2.5" ry="2.5" style="stroke:#181818;stroke-width:0.5;" width="209" x="1788" y="236"/><ellipse cx="1803" cy="252" fill="#B4A7E5" rx="11" ry="11" style="stroke:#181818;stroke-width:1.0;"/><path d="M1798.9219,247.7656 L1798.9219,245.6094 L1806.3125,245.6094 L1806.3125,247.7656 L1803.8438,247.7656 L1803.8438,255.8438 L1806.3125,255.8438 L1806.3125,258 L1798.9219,258 L1798.9219,255.8438 L1801.3906,255.8438 L1801.3906,247.7656 L1798.9219,247.7656 Z " fill="#000000"/><text fill="#000000" font-family="sans-serif" font-size="14" font-style="italic" lengthAdjust="spacing" textLength="177" x="1817" y="256.8467">SearchFullTextExpression</text><line style="stroke:#181818;stroke-width:0.5;" x1="1789" x2="1996" y1="268" y2="268"/><text fill="#000000" font-family="sans-serif" font-size="14" lengthAdjust="spacing" textLength="54" x="1794" y="284.9951">fullText:</text><a href="SearchFullTextValue.svg" target="_top" title="SearchFullTextValue.svg" xlink:actuate="onRequest" xlink:href="SearchFullTextValue.svg" xlink:show="new" xlink:title="SearchFullTextValue.svg" xlink:type="simple"><text fill="#0000FF" font-family="sans-serif" font-size="14" lengthAdjust="spacing" text-decoration="underline" textLength="139" x="1852" y="284.9951">SearchFullTextValue</text></a></g></a><!--MD5=[5e7024d5e520d519d06a35d6eadba33f]
class SearchFullTextPrefixExpression--><a href="SearchFullTextPrefixExpression.svg" target="_top" title="SearchFullTextPrefixExpression.svg" xlink:actuate="onRequest" xlink:href="SearchFullTextPrefixExpression.svg" xlink:show="new" xlink:title="SearchFullTextPrefixExpression.svg" xlink:type="simple"><g id="elem_SearchFullTextPrefixExpression"><rect codeLine="29" fill="#F1F1F1" height="56.2969" id="SearchFullTextPrefixExpression" rx="2.5" ry="2.5" style="stroke:#181818;stroke-width:0.5;" width="283" x="945" y="236"/><ellipse cx="976.65" cy="252" fill="#B4A7E5" rx="11" ry="11" style="stroke:#181818;stroke-width:1.0;"/><path d="M972.5719,247.7656 L972.5719,245.6094 L979.9625,245.6094 L979.9625,247.7656 L977.4938,247.7656 L977.4938,255.8438 L979.9625,255.8438 L979.9625,258 L972.5719,258 L972.5719,255.8438 L975.0406,255.8438 L975.0406,247.7656 L972.5719,247.7656 Z " fill="#000000"/><text fill="#000000" font-family="sans-serif" font-size="14" font-style="italic" lengthAdjust="spacing" textLength="214" x="994.35" y="256.8467">SearchFullTextPrefixExpression</text><line style="stroke:#181818;stroke-width:0.5;" x1="946" x2="1227" y1="268" y2="268"/><text fill="#000000" font-family="sans-serif" font-size="14" lengthAdjust="spacing" textLength="91" x="951" y="284.9951">fullTextPrefix:</text><a href="SearchFullTextPrefixValue.svg" target="_top" title="SearchFullTextPrefixValue.svg" xlink:actuate="onRequest" xlink:href="SearchFullTextPrefixValue.svg" xlink:show="new" xlink:title="SearchFullTextPrefixValue.svg" xlink:type="simple"><text fill="#0000FF" font-family="sans-serif" font-size="14" lengthAdjust="spacing" text-decoration="underline" textLength="176" x="1046" y="284.9951">SearchFullTextPrefixValue</text></a></g></a><!--MD5=[6fa3fc640bb9254bd980640e988256e0]
class SearchFuzzyExpression--><a href="SearchFuzzyExpression.svg" target="_top" title="SearchFuzzyExpression.svg" xlink:actuate="onRequest" xlink:href="SearchFuzzyExpression.svg" xlink:show="new" xlink:title="SearchFuzzyExpression.svg" xlink:type="simple"><g id="elem_SearchFuzzyExpression"><rect codeLine="32" fill="#F1F1F1" height="56.2969" id="SearchFuzzyExpression" rx="2.5" ry="2.5" style="stroke:#181818;stroke-width:0.5;" width="194" x="2795" y="236"/><ellipse cx="2810" cy="252" fill="#B4A7E5" rx="11" ry="11" style="stroke:#181818;stroke-width:1.0;"/><path d="M2805.9219,247.7656 L2805.9219,245.6094 L2813.3125,245.6094 L2813.3125,247.7656 L2810.8438,247.7656 L2810.8438,255.8438 L2813.3125,255.8438 L2813.3125,258 L2805.9219,258 L2805.9219,255.8438 L2808.3906,255.8438 L2808.3906,247.7656 L2805.9219,247.7656 Z " fill="#000000"/><text fill="#000000" font-family="sans-serif" font-size="14" font-style="italic" lengthAdjust="spacing" textLength="162" x="2824" y="256.8467">SearchFuzzyExpression</text><line style="stroke:#181818;stroke-width:0.5;" x1="2796" x2="2988" y1="268" y2="268"/><text fill="#000000" font-family="sans-serif" font-size="14" lengthAdjust="spacing" textLength="41" x="2801" y="284.9951">fuzzy:</text><a href="SearchFuzzyValue.svg" target="_top" title="SearchFuzzyValue.svg" xlink:actuate="onRequest" xlink:href="SearchFuzzyValue.svg" xlink:show="new" xlink:title="SearchFuzzyValue.svg" xlink:type="simple"><text fill="#0000FF" font-family="sans-serif" font-size="14" lengthAdjust="spacing" text-decoration="underline" textLength="126" x="2846" y="284.9951">SearchFuzzyValue</text></a></g></a><!--MD5=[20c10773bd8f5f202c7cbedfd781c767]
class SearchLongRangeExpression--><a href="SearchLongRangeExpression.svg" target="_top" title="SearchLongRangeExpression.svg" xlink:actuate="onRequest" xlink:href="SearchLongRangeExpression.svg" xlink:show="new" xlink:title="SearchLongRangeExpression.svg" xlink:type="simple"><g id="elem_SearchLongRangeExpression"><rect codeLine="35" fill="#F1F1F1" height="56.2969" id="SearchLongRangeExpression" rx="2.5" ry="2.5" style="stroke:#181818;stroke-width:0.5;" width="235" x="2253" y="236"/><ellipse cx="2268" cy="252" fill="#B4A7E5" rx="11" ry="11" style="stroke:#181818;stroke-width:1.0;"/><path d="M2263.9219,247.7656 L2263.9219,245.6094 L2271.3125,245.6094 L2271.3125,247.7656 L2268.8438,247.7656 L2268.8438,255.8438 L2271.3125,255.8438 L2271.3125,258 L2263.9219,258 L2263.9219,255.8438 L2266.3906,255.8438 L2266.3906,247.7656 L2263.9219,247.7656 Z " fill="#000000"/><text fill="#000000" font-family="sans-serif" font-size="14" font-style="italic" lengthAdjust="spacing" textLength="203" x="2282" y="256.8467">SearchLongRangeExpression</text><line style="stroke:#181818;stroke-width:0.5;" x1="2254" x2="2487" y1="268" y2="268"/><text fill="#000000" font-family="sans-serif" font-size="14" lengthAdjust="spacing" textLength="45" x="2259" y="284.9951">range:</text><a href="SearchLongRangeValue.svg" target="_top" title="SearchLongRangeValue.svg" xlink:actuate="onRequest" xlink:href="SearchLongRangeValue.svg" xlink:show="new" xlink:title="SearchLongRangeValue.svg" xlink:type="simple"><text fill="#0000FF" font-family="sans-serif" font-size="14" lengthAdjust="spacing" text-decoration="underline" textLength="165" x="2308" y="284.9951">SearchLongRangeValue</text></a></g></a><!--MD5=[95cffd0c380f4010c3a797fa5a1eb63f]
class SearchNumberRangeExpression--><a href="SearchNumberRangeExpression.svg" target="_top" title="SearchNumberRangeExpression.svg" xlink:actuate="onRequest" xlink:href="SearchNumberRangeExpression.svg" xlink:show="new" xlink:title="SearchNumberRangeExpression.svg" xlink:type="simple"><g id="elem_SearchNumberRangeExpression"><rect codeLine="38" fill="#F1F1F1" height="56.2969" id="SearchNumberRangeExpression" rx="2.5" ry="2.5" style="stroke:#181818;stroke-width:0.5;" width="256" x="1512" y="236"/><ellipse cx="1527" cy="252" fill="#B4A7E5" rx="11" ry="11" style="stroke:#181818;stroke-width:1.0;"/><path d="M1522.9219,247.7656 L1522.9219,245.6094 L1530.3125,245.6094 L1530.3125,247.7656 L1527.8438,247.7656 L1527.8438,255.8438 L1530.3125,255.8438 L1530.3125,258 L1522.9219,258 L1522.9219,255.8438 L1525.3906,255.8438 L1525.3906,247.7656 L1522.9219,247.7656 Z " fill="#000000"/><text fill="#000000" font-family="sans-serif" font-size="14" font-style="italic" lengthAdjust="spacing" textLength="224" x="1541" y="256.8467">SearchNumberRangeExpression</text><line style="stroke:#181818;stroke-width:0.5;" x1="1513" x2="1767" y1="268" y2="268"/><text fill="#000000" font-family="sans-serif" font-size="14" lengthAdjust="spacing" textLength="45" x="1518" y="284.9951">range:</text><a href="SearchNumberRangeValue.svg" target="_top" title="SearchNumberRangeValue.svg" xlink:actuate="onRequest" xlink:href="SearchNumberRangeValue.svg" xlink:show="new" xlink:title="SearchNumberRangeValue.svg" xlink:type="simple"><text fill="#0000FF" font-family="sans-serif" font-size="14" lengthAdjust="spacing" text-decoration="underline" textLength="186" x="1567" y="284.9951">SearchNumberRangeValue</text></a></g></a><!--MD5=[0529a33d233e7d2712b7c9ea82718a87]
class SearchPrefixExpression--><a href="SearchPrefixExpression.svg" target="_top" title="SearchPrefixExpression.svg" xlink:actuate="onRequest" xlink:href="SearchPrefixExpression.svg" xlink:show="new" xlink:title="SearchPrefixExpression.svg" xlink:type="simple"><g id="elem_SearchPrefixExpression"><rect codeLine="41" fill="#F1F1F1" height="56.2969" id="SearchPrefixExpression" rx="2.5" ry="2.5" style="stroke:#181818;stroke-width:0.5;" width="192" x="12" y="236"/><ellipse cx="27" cy="252" fill="#B4A7E5" rx="11" ry="11" style="stroke:#181818;stroke-width:1.0;"/><path d="M22.9219,247.7656 L22.9219,245.6094 L30.3125,245.6094 L30.3125,247.7656 L27.8438,247.7656 L27.8438,255.8438 L30.3125,255.8438 L30.3125,258 L22.9219,258 L22.9219,255.8438 L25.3906,255.8438 L25.3906,247.7656 L22.9219,247.7656 Z " fill="#000000"/><text fill="#000000" font-family="sans-serif" font-size="14" font-style="italic" lengthAdjust="spacing" textLength="160" x="41" y="256.8467">SearchPrefixExpression</text><line style="stroke:#181818;stroke-width:0.5;" x1="13" x2="203" y1="268" y2="268"/><text fill="#000000" font-family="sans-serif" font-size="14" lengthAdjust="spacing" textLength="42" x="18" y="284.9951">prefix:</text><a href="SearchAnyValue.svg" target="_top" title="SearchAnyValue.svg" xlink:actuate="onRequest" xlink:href="SearchAnyValue.svg" xlink:show="new" xlink:title="SearchAnyValue.svg" xlink:type="simple"><text fill="#0000FF" font-family="sans-serif" font-size="14" lengthAdjust="spacing" text-decoration="underline" textLength="111" x="64" y="284.9951">SearchAnyValue</text></a></g></a><!--MD5=[ad4408eb04c83a74c288b5142c2bf753]
class SearchTimeRangeExpression--><a href="SearchTimeRangeExpression.svg" target="_top" title="SearchTimeRangeExpression.svg" xlink:actuate="onRequest" xlink:href="SearchTimeRangeExpression.svg" xlink:show="new" xlink:title="SearchTimeRangeExpression.svg" xlink:type="simple"><g id="elem_SearchTimeRangeExpression"><rect codeLine="44" fill="#F1F1F1" height="56.2969" id="SearchTimeRangeExpression" rx="2.5" ry="2.5" style="stroke:#181818;stroke-width:0.5;" width="234" x="691" y="236"/><ellipse cx="706" cy="252" fill="#B4A7E5" rx="11" ry="11" style="stroke:#181818;stroke-width:1.0;"/><path d="M701.9219,247.7656 L701.9219,245.6094 L709.3125,245.6094 L709.3125,247.7656 L706.8438,247.7656 L706.8438,255.8438 L709.3125,255.8438 L709.3125,258 L701.9219,258 L701.9219,255.8438 L704.3906,255.8438 L704.3906,247.7656 L701.9219,247.7656 Z " fill="#000000"/><text fill="#000000" font-family="sans-serif" font-size="14" font-style="italic" lengthAdjust="spacing" textLength="202" x="720" y="256.8467">SearchTimeRangeExpression</text><line style="stroke:#181818;stroke-width:0.5;" x1="692" x2="924" y1="268" y2="268"/><text fill="#000000" font-family="sans-serif" font-size="14" lengthAdjust="spacing" textLength="45" x="697" y="284.9951">range:</text><a href="SearchTimeRangeValue.svg" target="_top" title="SearchTimeRangeValue.svg" xlink:actuate="onRequest" xlink:href="SearchTimeRangeValue.svg" xlink:show="new" xlink:title="SearchTimeRangeValue.svg" xlink:type="simple"><text fill="#0000FF" font-family="sans-serif" font-size="14" lengthAdjust="spacing" text-decoration="underline" textLength="165" x="746" y="284.9951">SearchTimeRangeValue</text></a></g></a><!--MD5=[7c8392683ebc8188aaef5eee80643145]
class SearchWildCardExpression--><a href="SearchWildCardExpression.svg" target="_top" title="SearchWildCardExpression.svg" xlink:actuate="onRequest" xlink:href="SearchWildCardExpression.svg" xlink:show="new" xlink:title="SearchWildCardExpression.svg" xlink:type="simple"><g id="elem_SearchWildCardExpression"><rect codeLine="47" fill="#F1F1F1" height="56.2969" id="SearchWildCardExpression" rx="2.5" ry="2.5" style="stroke:#181818;stroke-width:0.5;" width="216" x="2017" y="236"/><ellipse cx="2032" cy="252" fill="#B4A7E5" rx="11" ry="11" style="stroke:#181818;stroke-width:1.0;"/><path d="M2027.9219,247.7656 L2027.9219,245.6094 L2035.3125,245.6094 L2035.3125,247.7656 L2032.8438,247.7656 L2032.8438,255.8438 L2035.3125,255.8438 L2035.3125,258 L2027.9219,258 L2027.9219,255.8438 L2030.3906,255.8438 L2030.3906,247.7656 L2027.9219,247.7656 Z " fill="#000000"/><text fill="#000000" font-family="sans-serif" font-size="14" font-style="italic" lengthAdjust="spacing" textLength="184" x="2046" y="256.8467">SearchWildCardExpression</text><line style="stroke:#181818;stroke-width:0.5;" x1="2018" x2="2232" y1="268" y2="268"/><text fill="#000000" font-family="sans-serif" font-size="14" lengthAdjust="spacing" textLength="61" x="2023" y="284.9951">wildcard:</text><a href="SearchAnyValue.svg" target="_top" title="SearchAnyValue.svg" xlink:actuate="onRequest" xlink:href="SearchAnyValue.svg" xlink:show="new" xlink:title="SearchAnyValue.svg" xlink:type="simple"><text fill="#0000FF" font-family="sans-serif" font-size="14" lengthAdjust="spacing" text-decoration="underline" textLength="111" x="2088" y="284.9951">SearchAnyValue</text></a></g></a><!--MD5=[2637bed3ae35adaccab5bc908ea4c711]
class SearchFilterExpression--><a href="SearchFilterExpression.svg" target="_top" title="SearchFilterExpression.svg" xlink:actuate="onRequest" xlink:href="SearchFilterExpression.svg" xlink:show="new" xlink:title="SearchFilterExpression.svg" xlink:type="simple"><g id="elem_SearchFilterExpression"><rect codeLine="51" fill="#F1F1F1" height="56.2969" id="SearchFilterExpression" rx="2.5" ry="2.5" style="stroke:#181818;stroke-width:0.5;" width="262" x="1403.6667" y="312.2969"/><ellipse cx="1452.4167" cy="328.2969" fill="#B4A7E5" rx="11" ry="11" style="stroke:#181818;stroke-width:1.0;"/><path d="M1448.3385,324.0625 L1448.3385,321.9063 L1455.7292,321.9063 L1455.7292,324.0625 L1453.2604,324.0625 L1453.2604,332.1406 L1455.7292,332.1406 L1455.7292,334.2969 L1448.3385,334.2969 L1448.3385,332.1406 L1450.8073,332.1406 L1450.8073,324.0625 L1448.3385,324.0625 Z " fill="#000000"/><text fill="#000000" font-family="sans-serif" font-size="14" font-style="italic" lengthAdjust="spacing" textLength="156" x="1472.9167" y="333.1436">SearchFilterExpression</text><line style="stroke:#181818;stroke-width:0.5;" x1="1404.6667" x2="1664.6667" y1="344.2969" y2="344.2969"/><text fill="#000000" font-family="sans-serif" font-size="14" lengthAdjust="spacing" textLength="34" x="1409.6667" y="361.292">filter:</text><a href="SearchQueryExpression.svg" target="_top" title="SearchQueryExpression.svg" xlink:actuate="onRequest" xlink:href="SearchQueryExpression.svg" xlink:show="new" xlink:title="SearchQueryExpression.svg" xlink:type="simple"><text fill="#0000FF" font-family="sans-serif" font-size="14" lengthAdjust="spacing" text-decoration="underline" textLength="212" x="1447.6667" y="361.292">List&lt;SearchQueryExpression&gt;</text></a></g></a><line style="stroke:#181818;stroke-width:1.0;" x1="193.3667" x2="193.3667" y1="44" y2="64"/><polygon fill="#FFFFFF" points="193.3667,44,186.3667,63,200.3667,63,193.3667,44" style="stroke:#181818;stroke-width:1.0;"/><line style="stroke:#181818;stroke-width:1.0;" x1="121.1333" x2="121.1333" y1="96" y2="226"/><line style="stroke:#181818;stroke-width:1.0;" x1="121.1333" x2="340.5" y1="226" y2="226"/><line style="stroke:#181818;stroke-width:1.0;" x1="340.5" x2="340.5" y1="226" y2="236"/><polygon fill="#FFFFFF" points="121.1333,96,114.1333,115,128.1333,115,121.1333,96" style="stroke:#181818;stroke-width:1.0;"/><line style="stroke:#181818;stroke-width:1.0;" x1="252.4667" x2="252.4667" y1="96" y2="126"/><line style="stroke:#181818;stroke-width:1.0;" x1="252.4667" x2="2641.5" y1="126" y2="126"/><line style="stroke:#181818;stroke-width:1.0;" x1="2641.5" x2="2641.5" y1="126" y2="236"/><polygon fill="#FFFFFF" points="252.4667,96,245.4667,115,259.4667,115,252.4667,96" style="stroke:#181818;stroke-width:1.0;"/><line style="stroke:#181818;stroke-width:1.0;" x1="173.6667" x2="173.6667" y1="96" y2="186"/><line style="stroke:#181818;stroke-width:1.0;" x1="173.6667" x2="1344.5" y1="186" y2="186"/><line style="stroke:#181818;stroke-width:1.0;" x1="1344.5" x2="1344.5" y1="186" y2="236"/><polygon fill="#FFFFFF" points="173.6667,96,166.6667,115,180.6667,115,173.6667,96" style="stroke:#181818;stroke-width:1.0;"/><line style="stroke:#181818;stroke-width:1.0;" x1="134.2667" x2="134.2667" y1="96" y2="216"/><line style="stroke:#181818;stroke-width:1.0;" x1="134.2667" x2="574" y1="216" y2="216"/><line style="stroke:#181818;stroke-width:1.0;" x1="574" x2="574" y1="216" y2="236"/><polygon fill="#FFFFFF" points="134.2667,96,127.2667,115,141.2667,115,134.2667,96" style="stroke:#181818;stroke-width:1.0;"/><line style="stroke:#181818;stroke-width:1.0;" x1="213.0667" x2="213.0667" y1="96" y2="156"/><line style="stroke:#181818;stroke-width:1.0;" x1="213.0667" x2="1892.5" y1="156" y2="156"/><line style="stroke:#181818;stroke-width:1.0;" x1="1892.5" x2="1892.5" y1="156" y2="236"/><polygon fill="#FFFFFF" points="213.0667,96,206.0667,115,220.0667,115,213.0667,96" style="stroke:#181818;stroke-width:1.0;"/><line style="stroke:#181818;stroke-width:1.0;" x1="160.5333" x2="160.5333" y1="96" y2="196"/><line style="stroke:#181818;stroke-width:1.0;" x1="160.5333" x2="1086.5" y1="196" y2="196"/><line style="stroke:#181818;stroke-width:1.0;" x1="1086.5" x2="1086.5" y1="196" y2="236"/><polygon fill="#FFFFFF" points="160.5333,96,153.5333,115,167.5333,115,160.5333,96" style="stroke:#181818;stroke-width:1.0;"/><line style="stroke:#181818;stroke-width:1.0;" x1="265.6" x2="265.6" y1="96" y2="116"/><line style="stroke:#181818;stroke-width:1.0;" x1="265.6" x2="2892" y1="116" y2="116"/><line style="stroke:#181818;stroke-width:1.0;" x1="2892" x2="2892" y1="116" y2="236"/><polygon fill="#FFFFFF" points="265.6,96,258.6,115,272.6,115,265.6,96" style="stroke:#181818;stroke-width:1.0;"/><line style="stroke:#181818;stroke-width:1.0;" x1="239.3333" x2="239.3333" y1="96" y2="136"/><line style="stroke:#181818;stroke-width:1.0;" x1="239.3333" x2="2370.5" y1="136" y2="136"/><line style="stroke:#181818;stroke-width:1.0;" x1="2370.5" x2="2370.5" y1="136" y2="236"/><polygon fill="#FFFFFF" points="239.3333,96,232.3333,115,246.3333,115,239.3333,96" style="stroke:#181818;stroke-width:1.0;"/><line style="stroke:#181818;stroke-width:1.0;" x1="199.9333" x2="199.9333" y1="96" y2="166"/><line style="stroke:#181818;stroke-width:1.0;" x1="199.9333" x2="1640" y1="166" y2="166"/><line style="stroke:#181818;stroke-width:1.0;" x1="1640" x2="1640" y1="166" y2="236"/><polygon fill="#FFFFFF" points="199.9333,96,192.9333,115,206.9333,115,199.9333,96" style="stroke:#181818;stroke-width:1.0;"/><line style="stroke:#181818;stroke-width:1.0;" x1="108" x2="108" y1="96" y2="236"/><polygon fill="#FFFFFF" points="108,96,101,115,115,115,108,96" style="stroke:#181818;stroke-width:1.0;"/><line style="stroke:#181818;stroke-width:1.0;" x1="147.4" x2="147.4" y1="96" y2="206"/><line style="stroke:#181818;stroke-width:1.0;" x1="147.4" x2="808" y1="206" y2="206"/><line style="stroke:#181818;stroke-width:1.0;" x1="808" x2="808" y1="206" y2="236"/><polygon fill="#FFFFFF" points="147.4,96,140.4,115,154.4,115,147.4,96" style="stroke:#181818;stroke-width:1.0;"/><line style="stroke:#181818;stroke-width:1.0;" x1="226.2" x2="226.2" y1="96" y2="146"/><line style="stroke:#181818;stroke-width:1.0;" x1="226.2" x2="2125" y1="146" y2="146"/><line style="stroke:#181818;stroke-width:1.0;" x1="2125" x2="2125" y1="146" y2="236"/><polygon fill="#FFFFFF" points="226.2,96,219.2,115,233.2,115,226.2,96" style="stroke:#181818;stroke-width:1.0;"/><line style="stroke:#008000;stroke-width:1.0;" x1="278.7333" x2="278.7333" y1="96" y2="106"/><line style="stroke:#008000;stroke-width:1.0;" x1="278.7333" x2="3009" y1="106" y2="106"/><line style="stroke:#008000;stroke-width:1.0;" x1="3009" x2="3009" y1="106" y2="302.2969"/><line style="stroke:#008000;stroke-width:1.0;" x1="3009" x2="1578.3333" y1="302.2969" y2="302.2969"/><line style="stroke:#008000;stroke-width:1.0;" x1="1578.3333" x2="1578.3333" y1="302.2969" y2="312.2969"/><polygon fill="#008000" points="1578.3333,312.2969,1582.3333,303.2969,1578.3333,307.2969,1574.3333,303.2969,1578.3333,312.2969" style="stroke:#008000;stroke-width:1.0;"/><text fill="#000000" font-family="sans-serif" font-size="13" lengthAdjust="spacing" textLength="28" x="3012" y="268.6489">filter</text><line style="stroke:#008000;stroke-width:1.0;" x1="186.8" x2="186.8" y1="96" y2="176"/><line style="stroke:#008000;stroke-width:1.0;" x1="186.8" x2="1491" y1="176" y2="176"/><line style="stroke:#008000;stroke-width:1.0;" x1="1491" x2="1491" y1="176" y2="312.2969"/><polygon fill="#008000" points="1491,312.2969,1495,303.2969,1491,307.2969,1487,303.2969,1491,312.2969" style="stroke:#008000;stroke-width:1.0;"/><text fill="#000000" font-family="sans-serif" font-size="13" lengthAdjust="spacing" textLength="28" x="1461" y="268.6489">filter</text><rect fill="#DDDDDD" height="79.1875" id="_legend" rx="7.5" ry="7.5" style="stroke:#000000;stroke-width:1.0;" width="161" x="1433.5" y="369.5938"/><text fill="#000000" font-family="sans-serif" font-size="14" font-weight="bold" lengthAdjust="spacing" textLength="5" x="1438.5" y="389.5889"> </text><text fill="#000000" font-family="sans-serif" font-size="14" font-weight="bold" lengthAdjust="spacing" textLength="28" x="1455.5" y="389.5889">line</text><text fill="#000000" filter="url(#bsiofhim2el4q0)" font-family="sans-serif" font-size="14" lengthAdjust="spacing" textLength="12" x="1438.5" y="405.8857">   </text><text fill="#000000" font-family="sans-serif" font-size="14" lengthAdjust="spacing" textLength="77" x="1454.5" y="405.8857">inheritance</text><text fill="#000000" filter="url(#bsiofhim2el4q1)" font-family="sans-serif" font-size="14" lengthAdjust="spacing" textLength="12" x="1438.5" y="422.1826">   </text><text fill="#000000" font-family="sans-serif" font-size="14" lengthAdjust="spacing" textLength="129" x="1454.5" y="422.1826">property reference</text><text fill="#000000" filter="url(#bsiofhim2el4q2)" font-family="sans-serif" font-size="14" lengthAdjust="spacing" textLength="12" x="1438.5" y="438.4795">   </text><text fill="#000000" font-family="sans-serif" font-size="14" lengthAdjust="spacing" textLength="131" x="1454.5" y="438.4795">discriminated class</text><line style="stroke:#000000;stroke-width:1.0;" x1="1438.5" x2="1589.5" y1="376.5938" y2="376.5938"/><line style="stroke:#000000;stroke-width:1.0;" x1="1438.5" x2="1589.5" y1="392.8906" y2="392.8906"/><line style="stroke:#000000;stroke-width:1.0;" x1="1438.5" x2="1589.5" y1="409.1875" y2="409.1875"/><line style="stroke:#000000;stroke-width:1.0;" x1="1438.5" x2="1589.5" y1="425.4844" y2="425.4844"/><line style="stroke:#000000;stroke-width:1.0;" x1="1438.5" x2="1589.5" y1="441.7813" y2="441.7813"/><line style="stroke:#000000;stroke-width:1.0;" x1="1438.5" x2="1438.5" y1="376.5938" y2="441.7813"/><line style="stroke:#000000;stroke-width:1.0;" x1="1450.5" x2="1450.5" y1="376.5938" y2="441.7813"/><line style="stroke:#000000;stroke-width:1.0;" x1="1589.5" x2="1589.5" y1="376.5938" y2="441.7813"/><!--MD5=[a98f8b7455af17e79d5b9ff0520c8ba0]
@startuml
!pragma layout elk
hide empty fields
hide empty methods
legend
|= |= line |
|<back:black>   </back>| inheritance |
|<back:green>   </back>| property reference |
|<back:blue>   </back>| discriminated class |
endlegend
interface SearchQueryExpression [[SearchQueryExpression.svg]] extends SearchQuery {
}
interface SearchQuery [[SearchQuery.svg]]  {
}
interface SearchDateRangeExpression [[SearchDateRangeExpression.svg]] extends SearchQueryExpression {
    range: [[SearchDateRangeValue.svg SearchDateRangeValue]]
}
interface SearchDateTimeRangeExpression [[SearchDateTimeRangeExpression.svg]] extends SearchQueryExpression {
    range: [[SearchDateTimeRangeValue.svg SearchDateTimeRangeValue]]
}
interface SearchExactExpression [[SearchExactExpression.svg]] extends SearchQueryExpression {
    exact: [[SearchExactValue.svg SearchExactValue]]
}
interface SearchExistsExpression [[SearchExistsExpression.svg]] extends SearchQueryExpression {
    exists: [[SearchExistsValue.svg SearchExistsValue]]
}
interface SearchFullTextExpression [[SearchFullTextExpression.svg]] extends SearchQueryExpression {
    fullText: [[SearchFullTextValue.svg SearchFullTextValue]]
}
interface SearchFullTextPrefixExpression [[SearchFullTextPrefixExpression.svg]] extends SearchQueryExpression {
    fullTextPrefix: [[SearchFullTextPrefixValue.svg SearchFullTextPrefixValue]]
}
interface SearchFuzzyExpression [[SearchFuzzyExpression.svg]] extends SearchQueryExpression {
    fuzzy: [[SearchFuzzyValue.svg SearchFuzzyValue]]
}
interface SearchLongRangeExpression [[SearchLongRangeExpression.svg]] extends SearchQueryExpression {
    range: [[SearchLongRangeValue.svg SearchLongRangeValue]]
}
interface SearchNumberRangeExpression [[SearchNumberRangeExpression.svg]] extends SearchQueryExpression {
    range: [[SearchNumberRangeValue.svg SearchNumberRangeValue]]
}
interface SearchPrefixExpression [[SearchPrefixExpression.svg]] extends SearchQueryExpression {
    prefix: [[SearchAnyValue.svg SearchAnyValue]]
}
interface SearchTimeRangeExpression [[SearchTimeRangeExpression.svg]] extends SearchQueryExpression {
    range: [[SearchTimeRangeValue.svg SearchTimeRangeValue]]
}
interface SearchWildCardExpression [[SearchWildCardExpression.svg]] extends SearchQueryExpression {
    wildcard: [[SearchAnyValue.svg SearchAnyValue]]
}

interface SearchFilterExpression [[SearchFilterExpression.svg]]  {
    filter: [[SearchQueryExpression.svg List<SearchQueryExpression>]]
}

SearchQueryExpression - -> SearchFilterExpression #green;text:green : "filter"
SearchQueryExpression - -> SearchFilterExpression #green;text:green : "filter"
@enduml

PlantUML version 1.2022.13(Sat Nov 19 13:22:17 UTC 2022)
(GPL source distribution)
Java Runtime: OpenJDK Runtime Environment
JVM: OpenJDK 64-Bit Server VM
Default Encoding: UTF-8
Language: en
Country: null
--></g></svg>
