<?xml version="1.0" encoding="UTF-8" standalone="no"?><svg xmlns="http://www.w3.org/2000/svg" xmlns:xlink="http://www.w3.org/1999/xlink" contentStyleType="text/css" height="452px" preserveAspectRatio="none" style="width:5105px;height:452px;background:#FFFFFF;" version="1.1" viewBox="0 0 5105 452" width="5105px" zoomAndPan="magnify"><defs><filter height="1" id="b1xw8ndo65e2pe0" width="1" x="0" y="0"><feFlood flood-color="#000000" result="flood"/><feComposite in="SourceGraphic" in2="flood" operator="over"/></filter><filter height="1" id="b1xw8ndo65e2pe1" width="1" x="0" y="0"><feFlood flood-color="#008000" result="flood"/><feComposite in="SourceGraphic" in2="flood" operator="over"/></filter><filter height="1" id="b1xw8ndo65e2pe2" width="1" x="0" y="0"><feFlood flood-color="#0000FF" result="flood"/><feComposite in="SourceGraphic" in2="flood" operator="over"/></filter></defs><g><!--MD5=[4c4e86c39c20c638c70cd887054f7cad]
class ShippingMethodUpdateAction--><a href="ShippingMethodUpdateAction.svg" target="_top" title="ShippingMethodUpdateAction.svg" xlink:actuate="onRequest" xlink:href="ShippingMethodUpdateAction.svg" xlink:show="new" xlink:title="ShippingMethodUpdateAction.svg" xlink:type="simple"><g id="elem_ShippingMethodUpdateAction"><rect codeLine="10" fill="#F1F1F1" height="56.2969" id="ShippingMethodUpdateAction" rx="2.5" ry="2.5" style="stroke:#181818;stroke-width:0.5;" width="239" x="140.9412" y="12"/><ellipse cx="155.9412" cy="28" fill="#B4A7E5" rx="11" ry="11" style="stroke:#181818;stroke-width:1.0;"/><path d="M151.8631,23.7656 L151.8631,21.6094 L159.2537,21.6094 L159.2537,23.7656 L156.7849,23.7656 L156.7849,31.8438 L159.2537,31.8438 L159.2537,34 L151.8631,34 L151.8631,31.8438 L154.3318,31.8438 L154.3318,23.7656 L151.8631,23.7656 Z " fill="#000000"/><text fill="#000000" font-family="sans-serif" font-size="14" font-style="italic" lengthAdjust="spacing" textLength="207" x="169.9412" y="32.8467">ShippingMethodUpdateAction</text><line style="stroke:#181818;stroke-width:0.5;" x1="141.9412" x2="378.9412" y1="44" y2="44"/><text fill="#000000" font-family="sans-serif" font-size="14" lengthAdjust="spacing" textLength="91" x="146.9412" y="60.9951">action: String</text></g></a><!--MD5=[cbf08b096fff3660e39dfe15d3a66f4a]
class ShippingMethodAddShippingRateAction--><a href="ShippingMethodAddShippingRateAction.svg" target="_top" title="ShippingMethodAddShippingRateAction.svg" xlink:actuate="onRequest" xlink:href="ShippingMethodAddShippingRateAction.svg" xlink:show="new" xlink:title="ShippingMethodAddShippingRateAction.svg" xlink:type="simple"><g id="elem_ShippingMethodAddShippingRateAction"><rect codeLine="15" fill="#F1F1F1" height="88.8906" id="ShippingMethodAddShippingRateAction" rx="2.5" ry="2.5" style="stroke:#181818;stroke-width:0.5;" width="309" x="4515" y="263.4297"/><ellipse cx="4530" cy="279.4297" fill="#B4A7E5" rx="11" ry="11" style="stroke:#181818;stroke-width:1.0;"/><path d="M4525.9219,275.1953 L4525.9219,273.0391 L4533.3125,273.0391 L4533.3125,275.1953 L4530.8438,275.1953 L4530.8438,283.2734 L4533.3125,283.2734 L4533.3125,285.4297 L4525.9219,285.4297 L4525.9219,283.2734 L4528.3906,283.2734 L4528.3906,275.1953 L4525.9219,275.1953 Z " fill="#000000"/><text fill="#000000" font-family="sans-serif" font-size="14" font-style="italic" lengthAdjust="spacing" textLength="277" x="4544" y="284.2764">ShippingMethodAddShippingRateAction</text><line style="stroke:#181818;stroke-width:0.5;" x1="4516" x2="4823" y1="295.4297" y2="295.4297"/><text fill="#000000" font-family="sans-serif" font-size="14" lengthAdjust="spacing" textLength="91" x="4521" y="312.4248">action: String</text><text fill="#000000" font-family="sans-serif" font-size="14" lengthAdjust="spacing" textLength="40" x="4521" y="328.7217">zone:</text><a href="ZoneResourceIdentifier.svg" target="_top" title="ZoneResourceIdentifier.svg" xlink:actuate="onRequest" xlink:href="ZoneResourceIdentifier.svg" xlink:show="new" xlink:title="ZoneResourceIdentifier.svg" xlink:type="simple"><text fill="#0000FF" font-family="sans-serif" font-size="14" lengthAdjust="spacing" text-decoration="underline" textLength="163" x="4565" y="328.7217">ZoneResourceIdentifier</text></a><text fill="#000000" font-family="sans-serif" font-size="14" lengthAdjust="spacing" textLength="96" x="4521" y="345.0186">shippingRate:</text><a href="ShippingRateDraft.svg" target="_top" title="ShippingRateDraft.svg" xlink:actuate="onRequest" xlink:href="ShippingRateDraft.svg" xlink:show="new" xlink:title="ShippingRateDraft.svg" xlink:type="simple"><text fill="#0000FF" font-family="sans-serif" font-size="14" lengthAdjust="spacing" text-decoration="underline" textLength="125" x="4621" y="345.0186">ShippingRateDraft</text></a></g></a><!--MD5=[c92365b8bbf4d7aa4b03ea61f58a6feb]
class ShippingMethodAddZoneAction--><a href="ShippingMethodAddZoneAction.svg" target="_top" title="ShippingMethodAddZoneAction.svg" xlink:actuate="onRequest" xlink:href="ShippingMethodAddZoneAction.svg" xlink:show="new" xlink:title="ShippingMethodAddZoneAction.svg" xlink:type="simple"><g id="elem_ShippingMethodAddZoneAction"><rect codeLine="20" fill="#F1F1F1" height="72.5938" id="ShippingMethodAddZoneAction" rx="2.5" ry="2.5" style="stroke:#181818;stroke-width:0.5;" width="254" x="4844" y="263.4297"/><ellipse cx="4859" cy="279.4297" fill="#B4A7E5" rx="11" ry="11" style="stroke:#181818;stroke-width:1.0;"/><path d="M4854.9219,275.1953 L4854.9219,273.0391 L4862.3125,273.0391 L4862.3125,275.1953 L4859.8438,275.1953 L4859.8438,283.2734 L4862.3125,283.2734 L4862.3125,285.4297 L4854.9219,285.4297 L4854.9219,283.2734 L4857.3906,283.2734 L4857.3906,275.1953 L4854.9219,275.1953 Z " fill="#000000"/><text fill="#000000" font-family="sans-serif" font-size="14" font-style="italic" lengthAdjust="spacing" textLength="222" x="4873" y="284.2764">ShippingMethodAddZoneAction</text><line style="stroke:#181818;stroke-width:0.5;" x1="4845" x2="5097" y1="295.4297" y2="295.4297"/><text fill="#000000" font-family="sans-serif" font-size="14" lengthAdjust="spacing" textLength="91" x="4850" y="312.4248">action: String</text><text fill="#000000" font-family="sans-serif" font-size="14" lengthAdjust="spacing" textLength="40" x="4850" y="328.7217">zone:</text><a href="ZoneResourceIdentifier.svg" target="_top" title="ZoneResourceIdentifier.svg" xlink:actuate="onRequest" xlink:href="ZoneResourceIdentifier.svg" xlink:show="new" xlink:title="ZoneResourceIdentifier.svg" xlink:type="simple"><text fill="#0000FF" font-family="sans-serif" font-size="14" lengthAdjust="spacing" text-decoration="underline" textLength="163" x="4894" y="328.7217">ZoneResourceIdentifier</text></a></g></a><!--MD5=[e379d8929e58f701bbabf961fe0813e0]
class ShippingMethodChangeActiveAction--><a href="ShippingMethodChangeActiveAction.svg" target="_top" title="ShippingMethodChangeActiveAction.svg" xlink:actuate="onRequest" xlink:href="ShippingMethodChangeActiveAction.svg" xlink:show="new" xlink:title="ShippingMethodChangeActiveAction.svg" xlink:type="simple"><g id="elem_ShippingMethodChangeActiveAction"><rect codeLine="24" fill="#F1F1F1" height="72.5938" id="ShippingMethodChangeActiveAction" rx="2.5" ry="2.5" style="stroke:#181818;stroke-width:0.5;" width="286" x="12" y="263.4297"/><ellipse cx="27" cy="279.4297" fill="#B4A7E5" rx="11" ry="11" style="stroke:#181818;stroke-width:1.0;"/><path d="M22.9219,275.1953 L22.9219,273.0391 L30.3125,273.0391 L30.3125,275.1953 L27.8438,275.1953 L27.8438,283.2734 L30.3125,283.2734 L30.3125,285.4297 L22.9219,285.4297 L22.9219,283.2734 L25.3906,283.2734 L25.3906,275.1953 L22.9219,275.1953 Z " fill="#000000"/><text fill="#000000" font-family="sans-serif" font-size="14" font-style="italic" lengthAdjust="spacing" textLength="254" x="41" y="284.2764">ShippingMethodChangeActiveAction</text><line style="stroke:#181818;stroke-width:0.5;" x1="13" x2="297" y1="295.4297" y2="295.4297"/><text fill="#000000" font-family="sans-serif" font-size="14" lengthAdjust="spacing" textLength="91" x="18" y="312.4248">action: String</text><text fill="#000000" font-family="sans-serif" font-size="14" lengthAdjust="spacing" textLength="106" x="18" y="328.7217">active: Boolean</text></g></a><!--MD5=[47d411667fe07da9849e465691340788]
class ShippingMethodChangeIsDefaultAction--><a href="ShippingMethodChangeIsDefaultAction.svg" target="_top" title="ShippingMethodChangeIsDefaultAction.svg" xlink:actuate="onRequest" xlink:href="ShippingMethodChangeIsDefaultAction.svg" xlink:show="new" xlink:title="ShippingMethodChangeIsDefaultAction.svg" xlink:type="simple"><g id="elem_ShippingMethodChangeIsDefaultAction"><rect codeLine="28" fill="#F1F1F1" height="72.5938" id="ShippingMethodChangeIsDefaultAction" rx="2.5" ry="2.5" style="stroke:#181818;stroke-width:0.5;" width="303" x="1252" y="263.4297"/><ellipse cx="1267" cy="279.4297" fill="#B4A7E5" rx="11" ry="11" style="stroke:#181818;stroke-width:1.0;"/><path d="M1262.9219,275.1953 L1262.9219,273.0391 L1270.3125,273.0391 L1270.3125,275.1953 L1267.8438,275.1953 L1267.8438,283.2734 L1270.3125,283.2734 L1270.3125,285.4297 L1262.9219,285.4297 L1262.9219,283.2734 L1265.3906,283.2734 L1265.3906,275.1953 L1262.9219,275.1953 Z " fill="#000000"/><text fill="#000000" font-family="sans-serif" font-size="14" font-style="italic" lengthAdjust="spacing" textLength="271" x="1281" y="284.2764">ShippingMethodChangeIsDefaultAction</text><line style="stroke:#181818;stroke-width:0.5;" x1="1253" x2="1554" y1="295.4297" y2="295.4297"/><text fill="#000000" font-family="sans-serif" font-size="14" lengthAdjust="spacing" textLength="91" x="1258" y="312.4248">action: String</text><text fill="#000000" font-family="sans-serif" font-size="14" lengthAdjust="spacing" textLength="126" x="1258" y="328.7217">isDefault: Boolean</text></g></a><!--MD5=[cd8096e39ae516eec615e8b09ba3076f]
class ShippingMethodChangeNameAction--><a href="ShippingMethodChangeNameAction.svg" target="_top" title="ShippingMethodChangeNameAction.svg" xlink:actuate="onRequest" xlink:href="ShippingMethodChangeNameAction.svg" xlink:show="new" xlink:title="ShippingMethodChangeNameAction.svg" xlink:type="simple"><g id="elem_ShippingMethodChangeNameAction"><rect codeLine="32" fill="#F1F1F1" height="72.5938" id="ShippingMethodChangeNameAction" rx="2.5" ry="2.5" style="stroke:#181818;stroke-width:0.5;" width="284" x="3220" y="263.4297"/><ellipse cx="3235" cy="279.4297" fill="#B4A7E5" rx="11" ry="11" style="stroke:#181818;stroke-width:1.0;"/><path d="M3230.9219,275.1953 L3230.9219,273.0391 L3238.3125,273.0391 L3238.3125,275.1953 L3235.8438,275.1953 L3235.8438,283.2734 L3238.3125,283.2734 L3238.3125,285.4297 L3230.9219,285.4297 L3230.9219,283.2734 L3233.3906,283.2734 L3233.3906,275.1953 L3230.9219,275.1953 Z " fill="#000000"/><text fill="#000000" font-family="sans-serif" font-size="14" font-style="italic" lengthAdjust="spacing" textLength="252" x="3249" y="284.2764">ShippingMethodChangeNameAction</text><line style="stroke:#181818;stroke-width:0.5;" x1="3221" x2="3503" y1="295.4297" y2="295.4297"/><text fill="#000000" font-family="sans-serif" font-size="14" lengthAdjust="spacing" textLength="91" x="3226" y="312.4248">action: String</text><text fill="#000000" font-family="sans-serif" font-size="14" lengthAdjust="spacing" textLength="88" x="3226" y="328.7217">name: String</text></g></a><!--MD5=[eca6df60c00f9a96ac58d9d2c30de1a4]
class ShippingMethodChangeTaxCategoryAction--><a href="ShippingMethodChangeTaxCategoryAction.svg" target="_top" title="ShippingMethodChangeTaxCategoryAction.svg" xlink:actuate="onRequest" xlink:href="ShippingMethodChangeTaxCategoryAction.svg" xlink:show="new" xlink:title="ShippingMethodChangeTaxCategoryAction.svg" xlink:type="simple"><g id="elem_ShippingMethodChangeTaxCategoryAction"><rect codeLine="36" fill="#F1F1F1" height="72.5938" id="ShippingMethodChangeTaxCategoryAction" rx="2.5" ry="2.5" style="stroke:#181818;stroke-width:0.5;" width="331" x="3524" y="263.4297"/><ellipse cx="3539" cy="279.4297" fill="#B4A7E5" rx="11" ry="11" style="stroke:#181818;stroke-width:1.0;"/><path d="M3534.9219,275.1953 L3534.9219,273.0391 L3542.3125,273.0391 L3542.3125,275.1953 L3539.8438,275.1953 L3539.8438,283.2734 L3542.3125,283.2734 L3542.3125,285.4297 L3534.9219,285.4297 L3534.9219,283.2734 L3537.3906,283.2734 L3537.3906,275.1953 L3534.9219,275.1953 Z " fill="#000000"/><text fill="#000000" font-family="sans-serif" font-size="14" font-style="italic" lengthAdjust="spacing" textLength="299" x="3553" y="284.2764">ShippingMethodChangeTaxCategoryAction</text><line style="stroke:#181818;stroke-width:0.5;" x1="3525" x2="3854" y1="295.4297" y2="295.4297"/><text fill="#000000" font-family="sans-serif" font-size="14" lengthAdjust="spacing" textLength="91" x="3530" y="312.4248">action: String</text><text fill="#000000" font-family="sans-serif" font-size="14" lengthAdjust="spacing" textLength="87" x="3530" y="328.7217">taxCategory:</text><a href="TaxCategoryResourceIdentifier.svg" target="_top" title="TaxCategoryResourceIdentifier.svg" xlink:actuate="onRequest" xlink:href="TaxCategoryResourceIdentifier.svg" xlink:show="new" xlink:title="TaxCategoryResourceIdentifier.svg" xlink:type="simple"><text fill="#0000FF" font-family="sans-serif" font-size="14" lengthAdjust="spacing" text-decoration="underline" textLength="212" x="3621" y="328.7217">TaxCategoryResourceIdentifier</text></a></g></a><!--MD5=[a53c048d10804d64cd583de2b0f0a95a]
class ShippingMethodRemoveShippingRateAction--><a href="ShippingMethodRemoveShippingRateAction.svg" target="_top" title="ShippingMethodRemoveShippingRateAction.svg" xlink:actuate="onRequest" xlink:href="ShippingMethodRemoveShippingRateAction.svg" xlink:show="new" xlink:title="ShippingMethodRemoveShippingRateAction.svg" xlink:type="simple"><g id="elem_ShippingMethodRemoveShippingRateAction"><rect codeLine="40" fill="#F1F1F1" height="88.8906" id="ShippingMethodRemoveShippingRateAction" rx="2.5" ry="2.5" style="stroke:#181818;stroke-width:0.5;" width="339" x="2861" y="263.4297"/><ellipse cx="2876" cy="279.4297" fill="#B4A7E5" rx="11" ry="11" style="stroke:#181818;stroke-width:1.0;"/><path d="M2871.9219,275.1953 L2871.9219,273.0391 L2879.3125,273.0391 L2879.3125,275.1953 L2876.8438,275.1953 L2876.8438,283.2734 L2879.3125,283.2734 L2879.3125,285.4297 L2871.9219,285.4297 L2871.9219,283.2734 L2874.3906,283.2734 L2874.3906,275.1953 L2871.9219,275.1953 Z " fill="#000000"/><text fill="#000000" font-family="sans-serif" font-size="14" font-style="italic" lengthAdjust="spacing" textLength="307" x="2890" y="284.2764">ShippingMethodRemoveShippingRateAction</text><line style="stroke:#181818;stroke-width:0.5;" x1="2862" x2="3199" y1="295.4297" y2="295.4297"/><text fill="#000000" font-family="sans-serif" font-size="14" lengthAdjust="spacing" textLength="91" x="2867" y="312.4248">action: String</text><text fill="#000000" font-family="sans-serif" font-size="14" lengthAdjust="spacing" textLength="40" x="2867" y="328.7217">zone:</text><a href="ZoneResourceIdentifier.svg" target="_top" title="ZoneResourceIdentifier.svg" xlink:actuate="onRequest" xlink:href="ZoneResourceIdentifier.svg" xlink:show="new" xlink:title="ZoneResourceIdentifier.svg" xlink:type="simple"><text fill="#0000FF" font-family="sans-serif" font-size="14" lengthAdjust="spacing" text-decoration="underline" textLength="163" x="2911" y="328.7217">ZoneResourceIdentifier</text></a><text fill="#000000" font-family="sans-serif" font-size="14" lengthAdjust="spacing" textLength="96" x="2867" y="345.0186">shippingRate:</text><a href="ShippingRateDraft.svg" target="_top" title="ShippingRateDraft.svg" xlink:actuate="onRequest" xlink:href="ShippingRateDraft.svg" xlink:show="new" xlink:title="ShippingRateDraft.svg" xlink:type="simple"><text fill="#0000FF" font-family="sans-serif" font-size="14" lengthAdjust="spacing" text-decoration="underline" textLength="125" x="2967" y="345.0186">ShippingRateDraft</text></a></g></a><!--MD5=[e680a78ca382f8bec096c15a5933a758]
class ShippingMethodRemoveZoneAction--><a href="ShippingMethodRemoveZoneAction.svg" target="_top" title="ShippingMethodRemoveZoneAction.svg" xlink:actuate="onRequest" xlink:href="ShippingMethodRemoveZoneAction.svg" xlink:show="new" xlink:title="ShippingMethodRemoveZoneAction.svg" xlink:type="simple"><g id="elem_ShippingMethodRemoveZoneAction"><rect codeLine="45" fill="#F1F1F1" height="72.5938" id="ShippingMethodRemoveZoneAction" rx="2.5" ry="2.5" style="stroke:#181818;stroke-width:0.5;" width="284" x="628" y="263.4297"/><ellipse cx="643" cy="279.4297" fill="#B4A7E5" rx="11" ry="11" style="stroke:#181818;stroke-width:1.0;"/><path d="M638.9219,275.1953 L638.9219,273.0391 L646.3125,273.0391 L646.3125,275.1953 L643.8438,275.1953 L643.8438,283.2734 L646.3125,283.2734 L646.3125,285.4297 L638.9219,285.4297 L638.9219,283.2734 L641.3906,283.2734 L641.3906,275.1953 L638.9219,275.1953 Z " fill="#000000"/><text fill="#000000" font-family="sans-serif" font-size="14" font-style="italic" lengthAdjust="spacing" textLength="252" x="657" y="284.2764">ShippingMethodRemoveZoneAction</text><line style="stroke:#181818;stroke-width:0.5;" x1="629" x2="911" y1="295.4297" y2="295.4297"/><text fill="#000000" font-family="sans-serif" font-size="14" lengthAdjust="spacing" textLength="91" x="634" y="312.4248">action: String</text><text fill="#000000" font-family="sans-serif" font-size="14" lengthAdjust="spacing" textLength="40" x="634" y="328.7217">zone:</text><a href="ZoneResourceIdentifier.svg" target="_top" title="ZoneResourceIdentifier.svg" xlink:actuate="onRequest" xlink:href="ZoneResourceIdentifier.svg" xlink:show="new" xlink:title="ZoneResourceIdentifier.svg" xlink:type="simple"><text fill="#0000FF" font-family="sans-serif" font-size="14" lengthAdjust="spacing" text-decoration="underline" textLength="163" x="678" y="328.7217">ZoneResourceIdentifier</text></a></g></a><!--MD5=[e3e841079abde6eaa4e9a9d0653c2636]
class ShippingMethodSetCustomFieldAction--><a href="ShippingMethodSetCustomFieldAction.svg" target="_top" title="ShippingMethodSetCustomFieldAction.svg" xlink:actuate="onRequest" xlink:href="ShippingMethodSetCustomFieldAction.svg" xlink:show="new" xlink:title="ShippingMethodSetCustomFieldAction.svg" xlink:type="simple"><g id="elem_ShippingMethodSetCustomFieldAction"><rect codeLine="49" fill="#F1F1F1" height="88.8906" id="ShippingMethodSetCustomFieldAction" rx="2.5" ry="2.5" style="stroke:#181818;stroke-width:0.5;" width="297" x="1949" y="263.4297"/><ellipse cx="1964" cy="279.4297" fill="#B4A7E5" rx="11" ry="11" style="stroke:#181818;stroke-width:1.0;"/><path d="M1959.9219,275.1953 L1959.9219,273.0391 L1967.3125,273.0391 L1967.3125,275.1953 L1964.8438,275.1953 L1964.8438,283.2734 L1967.3125,283.2734 L1967.3125,285.4297 L1959.9219,285.4297 L1959.9219,283.2734 L1962.3906,283.2734 L1962.3906,275.1953 L1959.9219,275.1953 Z " fill="#000000"/><text fill="#000000" font-family="sans-serif" font-size="14" font-style="italic" lengthAdjust="spacing" textLength="265" x="1978" y="284.2764">ShippingMethodSetCustomFieldAction</text><line style="stroke:#181818;stroke-width:0.5;" x1="1950" x2="2245" y1="295.4297" y2="295.4297"/><text fill="#000000" font-family="sans-serif" font-size="14" lengthAdjust="spacing" textLength="91" x="1955" y="312.4248">action: String</text><text fill="#000000" font-family="sans-serif" font-size="14" lengthAdjust="spacing" textLength="88" x="1955" y="328.7217">name: String</text><text fill="#000000" font-family="sans-serif" font-size="14" lengthAdjust="spacing" textLength="41" x="1955" y="345.0186">value:</text><a href="Object.svg" target="_top" title="Object.svg" xlink:actuate="onRequest" xlink:href="Object.svg" xlink:show="new" xlink:title="Object.svg" xlink:type="simple"><text fill="#0000FF" font-family="sans-serif" font-size="14" lengthAdjust="spacing" text-decoration="underline" textLength="45" x="2000" y="345.0186">Object</text></a></g></a><!--MD5=[acbc845a24a73d4d8b6d0145182f2f53]
class ShippingMethodSetCustomTypeAction--><a href="ShippingMethodSetCustomTypeAction.svg" target="_top" title="ShippingMethodSetCustomTypeAction.svg" xlink:actuate="onRequest" xlink:href="ShippingMethodSetCustomTypeAction.svg" xlink:show="new" xlink:title="ShippingMethodSetCustomTypeAction.svg" xlink:type="simple"><g id="elem_ShippingMethodSetCustomTypeAction"><rect codeLine="54" fill="#F1F1F1" height="88.8906" id="ShippingMethodSetCustomTypeAction" rx="2.5" ry="2.5" style="stroke:#181818;stroke-width:0.5;" width="300" x="932" y="263.4297"/><ellipse cx="947" cy="279.4297" fill="#B4A7E5" rx="11" ry="11" style="stroke:#181818;stroke-width:1.0;"/><path d="M942.9219,275.1953 L942.9219,273.0391 L950.3125,273.0391 L950.3125,275.1953 L947.8438,275.1953 L947.8438,283.2734 L950.3125,283.2734 L950.3125,285.4297 L942.9219,285.4297 L942.9219,283.2734 L945.3906,283.2734 L945.3906,275.1953 L942.9219,275.1953 Z " fill="#000000"/><text fill="#000000" font-family="sans-serif" font-size="14" font-style="italic" lengthAdjust="spacing" textLength="268" x="961" y="284.2764">ShippingMethodSetCustomTypeAction</text><line style="stroke:#181818;stroke-width:0.5;" x1="933" x2="1231" y1="295.4297" y2="295.4297"/><text fill="#000000" font-family="sans-serif" font-size="14" lengthAdjust="spacing" textLength="91" x="938" y="312.4248">action: String</text><text fill="#000000" font-family="sans-serif" font-size="14" lengthAdjust="spacing" textLength="35" x="938" y="328.7217">type:</text><a href="TypeResourceIdentifier.svg" target="_top" title="TypeResourceIdentifier.svg" xlink:actuate="onRequest" xlink:href="TypeResourceIdentifier.svg" xlink:show="new" xlink:title="TypeResourceIdentifier.svg" xlink:type="simple"><text fill="#0000FF" font-family="sans-serif" font-size="14" lengthAdjust="spacing" text-decoration="underline" textLength="160" x="977" y="328.7217">TypeResourceIdentifier</text></a><text fill="#000000" font-family="sans-serif" font-size="14" lengthAdjust="spacing" textLength="41" x="938" y="345.0186">fields:</text><a href="FieldContainer.svg" target="_top" title="FieldContainer.svg" xlink:actuate="onRequest" xlink:href="FieldContainer.svg" xlink:show="new" xlink:title="FieldContainer.svg" xlink:type="simple"><text fill="#0000FF" font-family="sans-serif" font-size="14" lengthAdjust="spacing" text-decoration="underline" textLength="99" x="983" y="345.0186">FieldContainer</text></a></g></a><!--MD5=[f755f928534cb2c44c5f11473f4606d8]
class ShippingMethodSetDescriptionAction--><a href="ShippingMethodSetDescriptionAction.svg" target="_top" title="ShippingMethodSetDescriptionAction.svg" xlink:actuate="onRequest" xlink:href="ShippingMethodSetDescriptionAction.svg" xlink:show="new" xlink:title="ShippingMethodSetDescriptionAction.svg" xlink:type="simple"><g id="elem_ShippingMethodSetDescriptionAction"><rect codeLine="59" fill="#F1F1F1" height="72.5938" id="ShippingMethodSetDescriptionAction" rx="2.5" ry="2.5" style="stroke:#181818;stroke-width:0.5;" width="290" x="318" y="263.4297"/><ellipse cx="333" cy="279.4297" fill="#B4A7E5" rx="11" ry="11" style="stroke:#181818;stroke-width:1.0;"/><path d="M328.9219,275.1953 L328.9219,273.0391 L336.3125,273.0391 L336.3125,275.1953 L333.8438,275.1953 L333.8438,283.2734 L336.3125,283.2734 L336.3125,285.4297 L328.9219,285.4297 L328.9219,283.2734 L331.3906,283.2734 L331.3906,275.1953 L328.9219,275.1953 Z " fill="#000000"/><text fill="#000000" font-family="sans-serif" font-size="14" font-style="italic" lengthAdjust="spacing" textLength="258" x="347" y="284.2764">ShippingMethodSetDescriptionAction</text><line style="stroke:#181818;stroke-width:0.5;" x1="319" x2="607" y1="295.4297" y2="295.4297"/><text fill="#000000" font-family="sans-serif" font-size="14" lengthAdjust="spacing" textLength="91" x="324" y="312.4248">action: String</text><text fill="#000000" font-family="sans-serif" font-size="14" lengthAdjust="spacing" textLength="126" x="324" y="328.7217">description: String</text></g></a><!--MD5=[7108712225fa8209e1ae0f0e6f96371c]
class ShippingMethodSetKeyAction--><a href="ShippingMethodSetKeyAction.svg" target="_top" title="ShippingMethodSetKeyAction.svg" xlink:actuate="onRequest" xlink:href="ShippingMethodSetKeyAction.svg" xlink:show="new" xlink:title="ShippingMethodSetKeyAction.svg" xlink:type="simple"><g id="elem_ShippingMethodSetKeyAction"><rect codeLine="63" fill="#F1F1F1" height="72.5938" id="ShippingMethodSetKeyAction" rx="2.5" ry="2.5" style="stroke:#181818;stroke-width:0.5;" width="238" x="2603" y="263.4297"/><ellipse cx="2618" cy="279.4297" fill="#B4A7E5" rx="11" ry="11" style="stroke:#181818;stroke-width:1.0;"/><path d="M2613.9219,275.1953 L2613.9219,273.0391 L2621.3125,273.0391 L2621.3125,275.1953 L2618.8438,275.1953 L2618.8438,283.2734 L2621.3125,283.2734 L2621.3125,285.4297 L2613.9219,285.4297 L2613.9219,283.2734 L2616.3906,283.2734 L2616.3906,275.1953 L2613.9219,275.1953 Z " fill="#000000"/><text fill="#000000" font-family="sans-serif" font-size="14" font-style="italic" lengthAdjust="spacing" textLength="206" x="2632" y="284.2764">ShippingMethodSetKeyAction</text><line style="stroke:#181818;stroke-width:0.5;" x1="2604" x2="2840" y1="295.4297" y2="295.4297"/><text fill="#000000" font-family="sans-serif" font-size="14" lengthAdjust="spacing" textLength="91" x="2609" y="312.4248">action: String</text><text fill="#000000" font-family="sans-serif" font-size="14" lengthAdjust="spacing" textLength="73" x="2609" y="328.7217">key: String</text></g></a><!--MD5=[590f0ccb4c4a281c252482b153af1586]
class ShippingMethodSetLocalizedDescriptionAction--><a href="ShippingMethodSetLocalizedDescriptionAction.svg" target="_top" title="ShippingMethodSetLocalizedDescriptionAction.svg" xlink:actuate="onRequest" xlink:href="ShippingMethodSetLocalizedDescriptionAction.svg" xlink:show="new" xlink:title="ShippingMethodSetLocalizedDescriptionAction.svg" xlink:type="simple"><g id="elem_ShippingMethodSetLocalizedDescriptionAction"><rect codeLine="67" fill="#F1F1F1" height="72.5938" id="ShippingMethodSetLocalizedDescriptionAction" rx="2.5" ry="2.5" style="stroke:#181818;stroke-width:0.5;" width="354" x="1575" y="263.4297"/><ellipse cx="1590" cy="279.4297" fill="#B4A7E5" rx="11" ry="11" style="stroke:#181818;stroke-width:1.0;"/><path d="M1585.9219,275.1953 L1585.9219,273.0391 L1593.3125,273.0391 L1593.3125,275.1953 L1590.8438,275.1953 L1590.8438,283.2734 L1593.3125,283.2734 L1593.3125,285.4297 L1585.9219,285.4297 L1585.9219,283.2734 L1588.3906,283.2734 L1588.3906,275.1953 L1585.9219,275.1953 Z " fill="#000000"/><text fill="#000000" font-family="sans-serif" font-size="14" font-style="italic" lengthAdjust="spacing" textLength="322" x="1604" y="284.2764">ShippingMethodSetLocalizedDescriptionAction</text><line style="stroke:#181818;stroke-width:0.5;" x1="1576" x2="1928" y1="295.4297" y2="295.4297"/><text fill="#000000" font-family="sans-serif" font-size="14" lengthAdjust="spacing" textLength="91" x="1581" y="312.4248">action: String</text><text fill="#000000" font-family="sans-serif" font-size="14" lengthAdjust="spacing" textLength="144" x="1581" y="328.7217">localizedDescription:</text><a href="LocalizedString.svg" target="_top" title="LocalizedString.svg" xlink:actuate="onRequest" xlink:href="LocalizedString.svg" xlink:show="new" xlink:title="LocalizedString.svg" xlink:type="simple"><text fill="#0000FF" font-family="sans-serif" font-size="14" lengthAdjust="spacing" text-decoration="underline" textLength="104" x="1729" y="328.7217">LocalizedString</text></a></g></a><!--MD5=[5fda56b5344ba340d44ea2a532b0442a]
class ShippingMethodSetLocalizedNameAction--><a href="ShippingMethodSetLocalizedNameAction.svg" target="_top" title="ShippingMethodSetLocalizedNameAction.svg" xlink:actuate="onRequest" xlink:href="ShippingMethodSetLocalizedNameAction.svg" xlink:show="new" xlink:title="ShippingMethodSetLocalizedNameAction.svg" xlink:type="simple"><g id="elem_ShippingMethodSetLocalizedNameAction"><rect codeLine="71" fill="#F1F1F1" height="72.5938" id="ShippingMethodSetLocalizedNameAction" rx="2.5" ry="2.5" style="stroke:#181818;stroke-width:0.5;" width="317" x="2266" y="263.4297"/><ellipse cx="2281" cy="279.4297" fill="#B4A7E5" rx="11" ry="11" style="stroke:#181818;stroke-width:1.0;"/><path d="M2276.9219,275.1953 L2276.9219,273.0391 L2284.3125,273.0391 L2284.3125,275.1953 L2281.8438,275.1953 L2281.8438,283.2734 L2284.3125,283.2734 L2284.3125,285.4297 L2276.9219,285.4297 L2276.9219,283.2734 L2279.3906,283.2734 L2279.3906,275.1953 L2276.9219,275.1953 Z " fill="#000000"/><text fill="#000000" font-family="sans-serif" font-size="14" font-style="italic" lengthAdjust="spacing" textLength="285" x="2295" y="284.2764">ShippingMethodSetLocalizedNameAction</text><line style="stroke:#181818;stroke-width:0.5;" x1="2267" x2="2582" y1="295.4297" y2="295.4297"/><text fill="#000000" font-family="sans-serif" font-size="14" lengthAdjust="spacing" textLength="91" x="2272" y="312.4248">action: String</text><text fill="#000000" font-family="sans-serif" font-size="14" lengthAdjust="spacing" textLength="105" x="2272" y="328.7217">localizedName:</text><a href="LocalizedString.svg" target="_top" title="LocalizedString.svg" xlink:actuate="onRequest" xlink:href="LocalizedString.svg" xlink:show="new" xlink:title="LocalizedString.svg" xlink:type="simple"><text fill="#0000FF" font-family="sans-serif" font-size="14" lengthAdjust="spacing" text-decoration="underline" textLength="104" x="2381" y="328.7217">LocalizedString</text></a></g></a><!--MD5=[9aeeec1a3da74189962c11871c81cc68]
class ShippingMethodSetPredicateAction--><a href="ShippingMethodSetPredicateAction.svg" target="_top" title="ShippingMethodSetPredicateAction.svg" xlink:actuate="onRequest" xlink:href="ShippingMethodSetPredicateAction.svg" xlink:show="new" xlink:title="ShippingMethodSetPredicateAction.svg" xlink:type="simple"><g id="elem_ShippingMethodSetPredicateAction"><rect codeLine="75" fill="#F1F1F1" height="72.5938" id="ShippingMethodSetPredicateAction" rx="2.5" ry="2.5" style="stroke:#181818;stroke-width:0.5;" width="276" x="3875" y="263.4297"/><ellipse cx="3890" cy="279.4297" fill="#B4A7E5" rx="11" ry="11" style="stroke:#181818;stroke-width:1.0;"/><path d="M3885.9219,275.1953 L3885.9219,273.0391 L3893.3125,273.0391 L3893.3125,275.1953 L3890.8438,275.1953 L3890.8438,283.2734 L3893.3125,283.2734 L3893.3125,285.4297 L3885.9219,285.4297 L3885.9219,283.2734 L3888.3906,283.2734 L3888.3906,275.1953 L3885.9219,275.1953 Z " fill="#000000"/><text fill="#000000" font-family="sans-serif" font-size="14" font-style="italic" lengthAdjust="spacing" textLength="244" x="3904" y="284.2764">ShippingMethodSetPredicateAction</text><line style="stroke:#181818;stroke-width:0.5;" x1="3876" x2="4150" y1="295.4297" y2="295.4297"/><text fill="#000000" font-family="sans-serif" font-size="14" lengthAdjust="spacing" textLength="91" x="3881" y="312.4248">action: String</text><text fill="#000000" font-family="sans-serif" font-size="14" lengthAdjust="spacing" textLength="114" x="3881" y="328.7217">predicate: String</text></g></a><!--MD5=[63171d9e1afd161baa0c99aa6b22869f]
class ShippingMethodUpdate--><a href="ShippingMethodUpdate.svg" target="_top" title="ShippingMethodUpdate.svg" xlink:actuate="onRequest" xlink:href="ShippingMethodUpdate.svg" xlink:show="new" xlink:title="ShippingMethodUpdate.svg" xlink:type="simple"><g id="elem_ShippingMethodUpdate"><rect codeLine="79" fill="#F1F1F1" height="72.5938" id="ShippingMethodUpdate" rx="2.5" ry="2.5" style="stroke:#181818;stroke-width:0.5;" width="324" x="4171" y="263.4297"/><ellipse cx="4247.25" cy="279.4297" fill="#B4A7E5" rx="11" ry="11" style="stroke:#181818;stroke-width:1.0;"/><path d="M4243.1719,275.1953 L4243.1719,273.0391 L4250.5625,273.0391 L4250.5625,275.1953 L4248.0938,275.1953 L4248.0938,283.2734 L4250.5625,283.2734 L4250.5625,285.4297 L4243.1719,285.4297 L4243.1719,283.2734 L4245.6406,283.2734 L4245.6406,275.1953 L4243.1719,275.1953 Z " fill="#000000"/><text fill="#000000" font-family="sans-serif" font-size="14" font-style="italic" lengthAdjust="spacing" textLength="163" x="4267.75" y="284.2764">ShippingMethodUpdate</text><line style="stroke:#181818;stroke-width:0.5;" x1="4172" x2="4494" y1="295.4297" y2="295.4297"/><text fill="#000000" font-family="sans-serif" font-size="14" lengthAdjust="spacing" textLength="93" x="4177" y="312.4248">version: Long</text><text fill="#000000" font-family="sans-serif" font-size="14" lengthAdjust="spacing" textLength="55" x="4177" y="328.7217">actions:</text><a href="ShippingMethodUpdateAction.svg" target="_top" title="ShippingMethodUpdateAction.svg" xlink:actuate="onRequest" xlink:href="ShippingMethodUpdateAction.svg" xlink:show="new" xlink:title="ShippingMethodUpdateAction.svg" xlink:type="simple"><text fill="#0000FF" font-family="sans-serif" font-size="14" lengthAdjust="spacing" text-decoration="underline" textLength="253" x="4236" y="328.7217">List&lt;ShippingMethodUpdateAction&gt;</text></a></g></a><line style="stroke:#0000FF;stroke-width:1.0;" x1="351.8235" x2="351.8235" y1="68.2969" y2="88.2969"/><line style="stroke:#0000FF;stroke-width:1.0;" x1="351.8235" x2="4669.5" y1="88.2969" y2="88.2969"/><line style="stroke:#0000FF;stroke-width:1.0;" x1="4669.5" x2="4669.5" y1="88.2969" y2="263.4297"/><polygon fill="#0000FF" points="4669.5,263.4297,4673.5,254.4297,4669.5,258.4297,4665.5,254.4297,4669.5,263.4297" style="stroke:#0000FF;stroke-width:1.0;"/><text fill="#000000" font-family="sans-serif" font-size="13" lengthAdjust="spacing" textLength="159" x="4508.5" y="240.3638">action : addShippingRate</text><line style="stroke:#0000FF;stroke-width:1.0;" x1="365.8824" x2="365.8824" y1="68.2969" y2="78.2969"/><line style="stroke:#0000FF;stroke-width:1.0;" x1="365.8824" x2="4971" y1="78.2969" y2="78.2969"/><line style="stroke:#0000FF;stroke-width:1.0;" x1="4971" x2="4971" y1="78.2969" y2="263.4297"/><polygon fill="#0000FF" points="4971,263.4297,4975,254.4297,4971,258.4297,4967,254.4297,4971,263.4297" style="stroke:#0000FF;stroke-width:1.0;"/><text fill="#000000" font-family="sans-serif" font-size="13" lengthAdjust="spacing" textLength="109" x="4860" y="240.3638">action : addZone</text><line style="stroke:#0000FF;stroke-width:1.0;" x1="155" x2="155" y1="68.2969" y2="263.4297"/><polygon fill="#0000FF" points="155,263.4297,159,254.4297,155,258.4297,151,254.4297,155,263.4297" style="stroke:#0000FF;stroke-width:1.0;"/><text fill="#000000" font-family="sans-serif" font-size="13" lengthAdjust="spacing" textLength="137" x="16" y="240.3638">action : changeActive</text><line style="stroke:#0000FF;stroke-width:1.0;" x1="211.2353" x2="211.2353" y1="68.2969" y2="188.2969"/><line style="stroke:#0000FF;stroke-width:1.0;" x1="211.2353" x2="1403.5" y1="188.2969" y2="188.2969"/><line style="stroke:#0000FF;stroke-width:1.0;" x1="1403.5" x2="1403.5" y1="188.2969" y2="263.4297"/><polygon fill="#0000FF" points="1403.5,263.4297,1407.5,254.4297,1403.5,258.4297,1399.5,254.4297,1403.5,263.4297" style="stroke:#0000FF;stroke-width:1.0;"/><text fill="#000000" font-family="sans-serif" font-size="13" lengthAdjust="spacing" textLength="154" x="1247.5" y="240.3638">action : changeIsDefault</text><line style="stroke:#0000FF;stroke-width:1.0;" x1="295.5882" x2="295.5882" y1="68.2969" y2="128.2969"/><line style="stroke:#0000FF;stroke-width:1.0;" x1="295.5882" x2="3362" y1="128.2969" y2="128.2969"/><line style="stroke:#0000FF;stroke-width:1.0;" x1="3362" x2="3362" y1="128.2969" y2="263.4297"/><polygon fill="#0000FF" points="3362,263.4297,3366,254.4297,3362,258.4297,3358,254.4297,3362,263.4297" style="stroke:#0000FF;stroke-width:1.0;"/><text fill="#000000" font-family="sans-serif" font-size="13" lengthAdjust="spacing" textLength="137" x="3223" y="240.3638">action : changeName</text><line style="stroke:#0000FF;stroke-width:1.0;" x1="309.6471" x2="309.6471" y1="68.2969" y2="118.2969"/><line style="stroke:#0000FF;stroke-width:1.0;" x1="309.6471" x2="3689.5" y1="118.2969" y2="118.2969"/><line style="stroke:#0000FF;stroke-width:1.0;" x1="3689.5" x2="3689.5" y1="118.2969" y2="263.4297"/><polygon fill="#0000FF" points="3689.5,263.4297,3693.5,254.4297,3689.5,258.4297,3685.5,254.4297,3689.5,263.4297" style="stroke:#0000FF;stroke-width:1.0;"/><text fill="#000000" font-family="sans-serif" font-size="13" lengthAdjust="spacing" textLength="178" x="3509.5" y="240.3638">action : changeTaxCategory</text><line style="stroke:#0000FF;stroke-width:1.0;" x1="281.5294" x2="281.5294" y1="68.2969" y2="138.2969"/><line style="stroke:#0000FF;stroke-width:1.0;" x1="281.5294" x2="3030.5" y1="138.2969" y2="138.2969"/><line style="stroke:#0000FF;stroke-width:1.0;" x1="3030.5" x2="3030.5" y1="138.2969" y2="263.4297"/><polygon fill="#0000FF" points="3030.5,263.4297,3034.5,254.4297,3030.5,258.4297,3026.5,254.4297,3030.5,263.4297" style="stroke:#0000FF;stroke-width:1.0;"/><text fill="#000000" font-family="sans-serif" font-size="13" lengthAdjust="spacing" textLength="184" x="2844.5" y="240.3638">action : removeShippingRate</text><line style="stroke:#0000FF;stroke-width:1.0;" x1="183.1176" x2="183.1176" y1="68.2969" y2="208.2969"/><line style="stroke:#0000FF;stroke-width:1.0;" x1="183.1176" x2="770" y1="208.2969" y2="208.2969"/><line style="stroke:#0000FF;stroke-width:1.0;" x1="770" x2="770" y1="208.2969" y2="263.4297"/><polygon fill="#0000FF" points="770,263.4297,774,254.4297,770,258.4297,766,254.4297,770,263.4297" style="stroke:#0000FF;stroke-width:1.0;"/><text fill="#000000" font-family="sans-serif" font-size="13" lengthAdjust="spacing" textLength="134" x="634" y="240.3638">action : removeZone</text><line style="stroke:#0000FF;stroke-width:1.0;" x1="239.3529" x2="239.3529" y1="68.2969" y2="168.2969"/><line style="stroke:#0000FF;stroke-width:1.0;" x1="239.3529" x2="2097.5" y1="168.2969" y2="168.2969"/><line style="stroke:#0000FF;stroke-width:1.0;" x1="2097.5" x2="2097.5" y1="168.2969" y2="263.4297"/><polygon fill="#0000FF" points="2097.5,263.4297,2101.5,254.4297,2097.5,258.4297,2093.5,254.4297,2097.5,263.4297" style="stroke:#0000FF;stroke-width:1.0;"/><text fill="#000000" font-family="sans-serif" font-size="13" lengthAdjust="spacing" textLength="150" x="1945.5" y="240.3638">action : setCustomField</text><line style="stroke:#0000FF;stroke-width:1.0;" x1="197.1765" x2="197.1765" y1="68.2969" y2="198.2969"/><line style="stroke:#0000FF;stroke-width:1.0;" x1="197.1765" x2="1082" y1="198.2969" y2="198.2969"/><line style="stroke:#0000FF;stroke-width:1.0;" x1="1082" x2="1082" y1="198.2969" y2="263.4297"/><polygon fill="#0000FF" points="1082,263.4297,1086,254.4297,1082,258.4297,1078,254.4297,1082,263.4297" style="stroke:#0000FF;stroke-width:1.0;"/><text fill="#000000" font-family="sans-serif" font-size="13" lengthAdjust="spacing" textLength="151" x="929" y="240.3638">action : setCustomType</text><line style="stroke:#0000FF;stroke-width:1.0;" x1="169.0588" x2="169.0588" y1="68.2969" y2="218.2969"/><line style="stroke:#0000FF;stroke-width:1.0;" x1="169.0588" x2="463" y1="218.2969" y2="218.2969"/><line style="stroke:#0000FF;stroke-width:1.0;" x1="463" x2="463" y1="218.2969" y2="263.4297"/><polygon fill="#0000FF" points="463,263.4297,467,254.4297,463,258.4297,459,254.4297,463,263.4297" style="stroke:#0000FF;stroke-width:1.0;"/><text fill="#000000" font-family="sans-serif" font-size="13" lengthAdjust="spacing" textLength="143" x="318" y="240.3638">action : setDescription</text><line style="stroke:#0000FF;stroke-width:1.0;" x1="267.4706" x2="267.4706" y1="68.2969" y2="148.2969"/><line style="stroke:#0000FF;stroke-width:1.0;" x1="267.4706" x2="2722" y1="148.2969" y2="148.2969"/><line style="stroke:#0000FF;stroke-width:1.0;" x1="2722" x2="2722" y1="148.2969" y2="263.4297"/><polygon fill="#0000FF" points="2722,263.4297,2726,254.4297,2722,258.4297,2718,254.4297,2722,263.4297" style="stroke:#0000FF;stroke-width:1.0;"/><text fill="#000000" font-family="sans-serif" font-size="13" lengthAdjust="spacing" textLength="94" x="2626" y="240.3638">action : setKey</text><line style="stroke:#0000FF;stroke-width:1.0;" x1="225.2941" x2="225.2941" y1="68.2969" y2="178.2969"/><line style="stroke:#0000FF;stroke-width:1.0;" x1="225.2941" x2="1752" y1="178.2969" y2="178.2969"/><line style="stroke:#0000FF;stroke-width:1.0;" x1="1752" x2="1752" y1="178.2969" y2="263.4297"/><polygon fill="#0000FF" points="1752,263.4297,1756,254.4297,1752,258.4297,1748,254.4297,1752,263.4297" style="stroke:#0000FF;stroke-width:1.0;"/><text fill="#000000" font-family="sans-serif" font-size="13" lengthAdjust="spacing" textLength="202" x="1548" y="240.3638">action : setLocalizedDescription</text><line style="stroke:#0000FF;stroke-width:1.0;" x1="253.4118" x2="253.4118" y1="68.2969" y2="158.2969"/><line style="stroke:#0000FF;stroke-width:1.0;" x1="253.4118" x2="2424.5" y1="158.2969" y2="158.2969"/><line style="stroke:#0000FF;stroke-width:1.0;" x1="2424.5" x2="2424.5" y1="158.2969" y2="263.4297"/><polygon fill="#0000FF" points="2424.5,263.4297,2428.5,254.4297,2424.5,258.4297,2420.5,254.4297,2424.5,263.4297" style="stroke:#0000FF;stroke-width:1.0;"/><text fill="#000000" font-family="sans-serif" font-size="13" lengthAdjust="spacing" textLength="169" x="2253.5" y="240.3638">action : setLocalizedName</text><line style="stroke:#0000FF;stroke-width:1.0;" x1="323.7059" x2="323.7059" y1="68.2969" y2="108.2969"/><line style="stroke:#0000FF;stroke-width:1.0;" x1="323.7059" x2="4013" y1="108.2969" y2="108.2969"/><line style="stroke:#0000FF;stroke-width:1.0;" x1="4013" x2="4013" y1="108.2969" y2="263.4297"/><polygon fill="#0000FF" points="4013,263.4297,4017,254.4297,4013,258.4297,4009,254.4297,4013,263.4297" style="stroke:#0000FF;stroke-width:1.0;"/><text fill="#000000" font-family="sans-serif" font-size="13" lengthAdjust="spacing" textLength="131" x="3880" y="240.3638">action : setPredicate</text><line style="stroke:#008000;stroke-width:1.0;" x1="337.7647" x2="337.7647" y1="68.2969" y2="98.2969"/><line style="stroke:#008000;stroke-width:1.0;" x1="337.7647" x2="4333" y1="98.2969" y2="98.2969"/><line style="stroke:#008000;stroke-width:1.0;" x1="4333" x2="4333" y1="98.2969" y2="263.4297"/><polygon fill="#008000" points="4333,263.4297,4337,254.4297,4333,258.4297,4329,254.4297,4333,263.4297" style="stroke:#008000;stroke-width:1.0;"/><text fill="#000000" font-family="sans-serif" font-size="13" lengthAdjust="spacing" textLength="46" x="4285" y="240.3638">actions</text><rect fill="#DDDDDD" height="79.1875" id="_legend" rx="7.5" ry="7.5" style="stroke:#000000;stroke-width:1.0;" width="161" x="2462.5" y="353.3203"/><text fill="#000000" font-family="sans-serif" font-size="14" font-weight="bold" lengthAdjust="spacing" textLength="5" x="2467.5" y="373.3154"> </text><text fill="#000000" font-family="sans-serif" font-size="14" font-weight="bold" lengthAdjust="spacing" textLength="28" x="2484.5" y="373.3154">line</text><text fill="#000000" filter="url(#b1xw8ndo65e2pe0)" font-family="sans-serif" font-size="14" lengthAdjust="spacing" textLength="12" x="2467.5" y="389.6123">   </text><text fill="#000000" font-family="sans-serif" font-size="14" lengthAdjust="spacing" textLength="77" x="2483.5" y="389.6123">inheritance</text><text fill="#000000" filter="url(#b1xw8ndo65e2pe1)" font-family="sans-serif" font-size="14" lengthAdjust="spacing" textLength="12" x="2467.5" y="405.9092">   </text><text fill="#000000" font-family="sans-serif" font-size="14" lengthAdjust="spacing" textLength="129" x="2483.5" y="405.9092">property reference</text><text fill="#000000" filter="url(#b1xw8ndo65e2pe2)" font-family="sans-serif" font-size="14" lengthAdjust="spacing" textLength="12" x="2467.5" y="422.2061">   </text><text fill="#000000" font-family="sans-serif" font-size="14" lengthAdjust="spacing" textLength="131" x="2483.5" y="422.2061">discriminated class</text><line style="stroke:#000000;stroke-width:1.0;" x1="2467.5" x2="2618.5" y1="360.3203" y2="360.3203"/><line style="stroke:#000000;stroke-width:1.0;" x1="2467.5" x2="2618.5" y1="376.6172" y2="376.6172"/><line style="stroke:#000000;stroke-width:1.0;" x1="2467.5" x2="2618.5" y1="392.9141" y2="392.9141"/><line style="stroke:#000000;stroke-width:1.0;" x1="2467.5" x2="2618.5" y1="409.2109" y2="409.2109"/><line style="stroke:#000000;stroke-width:1.0;" x1="2467.5" x2="2618.5" y1="425.5078" y2="425.5078"/><line style="stroke:#000000;stroke-width:1.0;" x1="2467.5" x2="2467.5" y1="360.3203" y2="425.5078"/><line style="stroke:#000000;stroke-width:1.0;" x1="2479.5" x2="2479.5" y1="360.3203" y2="425.5078"/><line style="stroke:#000000;stroke-width:1.0;" x1="2618.5" x2="2618.5" y1="360.3203" y2="425.5078"/><!--MD5=[5ab3284da55933c170537aad9b41a033]
@startuml
!pragma layout elk
hide empty fields
hide empty methods
legend
|= |= line |
|<back:black>   </back>| inheritance |
|<back:green>   </back>| property reference |
|<back:blue>   </back>| discriminated class |
endlegend
interface ShippingMethodUpdateAction [[ShippingMethodUpdateAction.svg]]  {
    action: String
}


interface ShippingMethodAddShippingRateAction [[ShippingMethodAddShippingRateAction.svg]]  {
    action: String
    zone: [[ZoneResourceIdentifier.svg ZoneResourceIdentifier]]
    shippingRate: [[ShippingRateDraft.svg ShippingRateDraft]]
}
interface ShippingMethodAddZoneAction [[ShippingMethodAddZoneAction.svg]]  {
    action: String
    zone: [[ZoneResourceIdentifier.svg ZoneResourceIdentifier]]
}
interface ShippingMethodChangeActiveAction [[ShippingMethodChangeActiveAction.svg]]  {
    action: String
    active: Boolean
}
interface ShippingMethodChangeIsDefaultAction [[ShippingMethodChangeIsDefaultAction.svg]]  {
    action: String
    isDefault: Boolean
}
interface ShippingMethodChangeNameAction [[ShippingMethodChangeNameAction.svg]]  {
    action: String
    name: String
}
interface ShippingMethodChangeTaxCategoryAction [[ShippingMethodChangeTaxCategoryAction.svg]]  {
    action: String
    taxCategory: [[TaxCategoryResourceIdentifier.svg TaxCategoryResourceIdentifier]]
}
interface ShippingMethodRemoveShippingRateAction [[ShippingMethodRemoveShippingRateAction.svg]]  {
    action: String
    zone: [[ZoneResourceIdentifier.svg ZoneResourceIdentifier]]
    shippingRate: [[ShippingRateDraft.svg ShippingRateDraft]]
}
interface ShippingMethodRemoveZoneAction [[ShippingMethodRemoveZoneAction.svg]]  {
    action: String
    zone: [[ZoneResourceIdentifier.svg ZoneResourceIdentifier]]
}
interface ShippingMethodSetCustomFieldAction [[ShippingMethodSetCustomFieldAction.svg]]  {
    action: String
    name: String
    value: [[Object.svg Object]]
}
interface ShippingMethodSetCustomTypeAction [[ShippingMethodSetCustomTypeAction.svg]]  {
    action: String
    type: [[TypeResourceIdentifier.svg TypeResourceIdentifier]]
    fields: [[FieldContainer.svg FieldContainer]]
}
interface ShippingMethodSetDescriptionAction [[ShippingMethodSetDescriptionAction.svg]]  {
    action: String
    description: String
}
interface ShippingMethodSetKeyAction [[ShippingMethodSetKeyAction.svg]]  {
    action: String
    key: String
}
interface ShippingMethodSetLocalizedDescriptionAction [[ShippingMethodSetLocalizedDescriptionAction.svg]]  {
    action: String
    localizedDescription: [[LocalizedString.svg LocalizedString]]
}
interface ShippingMethodSetLocalizedNameAction [[ShippingMethodSetLocalizedNameAction.svg]]  {
    action: String
    localizedName: [[LocalizedString.svg LocalizedString]]
}
interface ShippingMethodSetPredicateAction [[ShippingMethodSetPredicateAction.svg]]  {
    action: String
    predicate: String
}
interface ShippingMethodUpdate [[ShippingMethodUpdate.svg]]  {
    version: Long
    actions: [[ShippingMethodUpdateAction.svg List<ShippingMethodUpdateAction>]]
}
ShippingMethodUpdateAction - -> ShippingMethodAddShippingRateAction #blue;text:blue : "action : addShippingRate"
ShippingMethodUpdateAction - -> ShippingMethodAddZoneAction #blue;text:blue : "action : addZone"
ShippingMethodUpdateAction - -> ShippingMethodChangeActiveAction #blue;text:blue : "action : changeActive"
ShippingMethodUpdateAction - -> ShippingMethodChangeIsDefaultAction #blue;text:blue : "action : changeIsDefault"
ShippingMethodUpdateAction - -> ShippingMethodChangeNameAction #blue;text:blue : "action : changeName"
ShippingMethodUpdateAction - -> ShippingMethodChangeTaxCategoryAction #blue;text:blue : "action : changeTaxCategory"
ShippingMethodUpdateAction - -> ShippingMethodRemoveShippingRateAction #blue;text:blue : "action : removeShippingRate"
ShippingMethodUpdateAction - -> ShippingMethodRemoveZoneAction #blue;text:blue : "action : removeZone"
ShippingMethodUpdateAction - -> ShippingMethodSetCustomFieldAction #blue;text:blue : "action : setCustomField"
ShippingMethodUpdateAction - -> ShippingMethodSetCustomTypeAction #blue;text:blue : "action : setCustomType"
ShippingMethodUpdateAction - -> ShippingMethodSetDescriptionAction #blue;text:blue : "action : setDescription"
ShippingMethodUpdateAction - -> ShippingMethodSetKeyAction #blue;text:blue : "action : setKey"
ShippingMethodUpdateAction - -> ShippingMethodSetLocalizedDescriptionAction #blue;text:blue : "action : setLocalizedDescription"
ShippingMethodUpdateAction - -> ShippingMethodSetLocalizedNameAction #blue;text:blue : "action : setLocalizedName"
ShippingMethodUpdateAction - -> ShippingMethodSetPredicateAction #blue;text:blue : "action : setPredicate"
ShippingMethodUpdateAction - -> ShippingMethodUpdate #green;text:green : "actions"
@enduml

PlantUML version 1.2022.13(Sat Nov 19 13:22:17 UTC 2022)
(GPL source distribution)
Java Runtime: OpenJDK Runtime Environment
JVM: OpenJDK 64-Bit Server VM
Default Encoding: UTF-8
Language: en
Country: null
--></g></svg>
