<?xml version="1.0" encoding="UTF-8" standalone="no"?><svg xmlns="http://www.w3.org/2000/svg" xmlns:xlink="http://www.w3.org/1999/xlink" contentStyleType="text/css" height="442px" preserveAspectRatio="none" style="width:4803px;height:442px;background:#FFFFFF;" version="1.1" viewBox="0 0 4803 442" width="4803px" zoomAndPan="magnify"><defs><filter height="1" id="b1vv4u8514id2h0" width="1" x="0" y="0"><feFlood flood-color="#000000" result="flood"/><feComposite in="SourceGraphic" in2="flood" operator="over"/></filter><filter height="1" id="b1vv4u8514id2h1" width="1" x="0" y="0"><feFlood flood-color="#008000" result="flood"/><feComposite in="SourceGraphic" in2="flood" operator="over"/></filter><filter height="1" id="b1vv4u8514id2h2" width="1" x="0" y="0"><feFlood flood-color="#0000FF" result="flood"/><feComposite in="SourceGraphic" in2="flood" operator="over"/></filter></defs><g><!--MD5=[4c4e86c39c20c638c70cd887054f7cad]
class ShippingMethodUpdateAction--><a href="ShippingMethodUpdateAction.svg" target="_top" title="ShippingMethodUpdateAction.svg" xlink:actuate="onRequest" xlink:href="ShippingMethodUpdateAction.svg" xlink:show="new" xlink:title="ShippingMethodUpdateAction.svg" xlink:type="simple"><g id="elem_ShippingMethodUpdateAction"><rect codeLine="10" fill="#F1F1F1" height="56.2969" id="ShippingMethodUpdateAction" rx="2.5" ry="2.5" style="stroke:#181818;stroke-width:0.5;" width="239" x="153.0625" y="12"/><ellipse cx="168.0625" cy="28" fill="#B4A7E5" rx="11" ry="11" style="stroke:#181818;stroke-width:1.0;"/><path d="M163.9844,23.7656 L163.9844,21.6094 L171.375,21.6094 L171.375,23.7656 L168.9063,23.7656 L168.9063,31.8438 L171.375,31.8438 L171.375,34 L163.9844,34 L163.9844,31.8438 L166.4531,31.8438 L166.4531,23.7656 L163.9844,23.7656 Z " fill="#000000"/><text fill="#000000" font-family="sans-serif" font-size="14" font-style="italic" lengthAdjust="spacing" textLength="207" x="182.0625" y="32.8467">ShippingMethodUpdateAction</text><line style="stroke:#181818;stroke-width:0.5;" x1="154.0625" x2="391.0625" y1="44" y2="44"/><text fill="#000000" font-family="sans-serif" font-size="14" lengthAdjust="spacing" textLength="91" x="159.0625" y="60.9951">action: String</text></g></a><!--MD5=[cbf08b096fff3660e39dfe15d3a66f4a]
class ShippingMethodAddShippingRateAction--><a href="ShippingMethodAddShippingRateAction.svg" target="_top" title="ShippingMethodAddShippingRateAction.svg" xlink:actuate="onRequest" xlink:href="ShippingMethodAddShippingRateAction.svg" xlink:show="new" xlink:title="ShippingMethodAddShippingRateAction.svg" xlink:type="simple"><g id="elem_ShippingMethodAddShippingRateAction"><rect codeLine="15" fill="#F1F1F1" height="88.8906" id="ShippingMethodAddShippingRateAction" rx="2.5" ry="2.5" style="stroke:#181818;stroke-width:0.5;" width="309" x="4213.5" y="253.4297"/><ellipse cx="4228.5" cy="269.4297" fill="#B4A7E5" rx="11" ry="11" style="stroke:#181818;stroke-width:1.0;"/><path d="M4224.4219,265.1953 L4224.4219,263.0391 L4231.8125,263.0391 L4231.8125,265.1953 L4229.3438,265.1953 L4229.3438,273.2734 L4231.8125,273.2734 L4231.8125,275.4297 L4224.4219,275.4297 L4224.4219,273.2734 L4226.8906,273.2734 L4226.8906,265.1953 L4224.4219,265.1953 Z " fill="#000000"/><text fill="#000000" font-family="sans-serif" font-size="14" font-style="italic" lengthAdjust="spacing" textLength="277" x="4242.5" y="274.2764">ShippingMethodAddShippingRateAction</text><line style="stroke:#181818;stroke-width:0.5;" x1="4214.5" x2="4521.5" y1="285.4297" y2="285.4297"/><text fill="#000000" font-family="sans-serif" font-size="14" lengthAdjust="spacing" textLength="91" x="4219.5" y="302.4248">action: String</text><text fill="#000000" font-family="sans-serif" font-size="14" lengthAdjust="spacing" textLength="40" x="4219.5" y="318.7217">zone:</text><a href="ZoneResourceIdentifier.svg" target="_top" title="ZoneResourceIdentifier.svg" xlink:actuate="onRequest" xlink:href="ZoneResourceIdentifier.svg" xlink:show="new" xlink:title="ZoneResourceIdentifier.svg" xlink:type="simple"><text fill="#0000FF" font-family="sans-serif" font-size="14" lengthAdjust="spacing" text-decoration="underline" textLength="163" x="4263.5" y="318.7217">ZoneResourceIdentifier</text></a><text fill="#000000" font-family="sans-serif" font-size="14" lengthAdjust="spacing" textLength="96" x="4219.5" y="335.0186">shippingRate:</text><a href="ShippingRateDraft.svg" target="_top" title="ShippingRateDraft.svg" xlink:actuate="onRequest" xlink:href="ShippingRateDraft.svg" xlink:show="new" xlink:title="ShippingRateDraft.svg" xlink:type="simple"><text fill="#0000FF" font-family="sans-serif" font-size="14" lengthAdjust="spacing" text-decoration="underline" textLength="125" x="4319.5" y="335.0186">ShippingRateDraft</text></a></g></a><!--MD5=[c92365b8bbf4d7aa4b03ea61f58a6feb]
class ShippingMethodAddZoneAction--><a href="ShippingMethodAddZoneAction.svg" target="_top" title="ShippingMethodAddZoneAction.svg" xlink:actuate="onRequest" xlink:href="ShippingMethodAddZoneAction.svg" xlink:show="new" xlink:title="ShippingMethodAddZoneAction.svg" xlink:type="simple"><g id="elem_ShippingMethodAddZoneAction"><rect codeLine="20" fill="#F1F1F1" height="72.5938" id="ShippingMethodAddZoneAction" rx="2.5" ry="2.5" style="stroke:#181818;stroke-width:0.5;" width="254" x="4542.5" y="253.4297"/><ellipse cx="4557.5" cy="269.4297" fill="#B4A7E5" rx="11" ry="11" style="stroke:#181818;stroke-width:1.0;"/><path d="M4553.4219,265.1953 L4553.4219,263.0391 L4560.8125,263.0391 L4560.8125,265.1953 L4558.3438,265.1953 L4558.3438,273.2734 L4560.8125,273.2734 L4560.8125,275.4297 L4553.4219,275.4297 L4553.4219,273.2734 L4555.8906,273.2734 L4555.8906,265.1953 L4553.4219,265.1953 Z " fill="#000000"/><text fill="#000000" font-family="sans-serif" font-size="14" font-style="italic" lengthAdjust="spacing" textLength="222" x="4571.5" y="274.2764">ShippingMethodAddZoneAction</text><line style="stroke:#181818;stroke-width:0.5;" x1="4543.5" x2="4795.5" y1="285.4297" y2="285.4297"/><text fill="#000000" font-family="sans-serif" font-size="14" lengthAdjust="spacing" textLength="91" x="4548.5" y="302.4248">action: String</text><text fill="#000000" font-family="sans-serif" font-size="14" lengthAdjust="spacing" textLength="40" x="4548.5" y="318.7217">zone:</text><a href="ZoneResourceIdentifier.svg" target="_top" title="ZoneResourceIdentifier.svg" xlink:actuate="onRequest" xlink:href="ZoneResourceIdentifier.svg" xlink:show="new" xlink:title="ZoneResourceIdentifier.svg" xlink:type="simple"><text fill="#0000FF" font-family="sans-serif" font-size="14" lengthAdjust="spacing" text-decoration="underline" textLength="163" x="4592.5" y="318.7217">ZoneResourceIdentifier</text></a></g></a><!--MD5=[47d411667fe07da9849e465691340788]
class ShippingMethodChangeIsDefaultAction--><a href="ShippingMethodChangeIsDefaultAction.svg" target="_top" title="ShippingMethodChangeIsDefaultAction.svg" xlink:actuate="onRequest" xlink:href="ShippingMethodChangeIsDefaultAction.svg" xlink:show="new" xlink:title="ShippingMethodChangeIsDefaultAction.svg" xlink:type="simple"><g id="elem_ShippingMethodChangeIsDefaultAction"><rect codeLine="24" fill="#F1F1F1" height="72.5938" id="ShippingMethodChangeIsDefaultAction" rx="2.5" ry="2.5" style="stroke:#181818;stroke-width:0.5;" width="303" x="16.5" y="253.4297"/><ellipse cx="31.5" cy="269.4297" fill="#B4A7E5" rx="11" ry="11" style="stroke:#181818;stroke-width:1.0;"/><path d="M27.4219,265.1953 L27.4219,263.0391 L34.8125,263.0391 L34.8125,265.1953 L32.3438,265.1953 L32.3438,273.2734 L34.8125,273.2734 L34.8125,275.4297 L27.4219,275.4297 L27.4219,273.2734 L29.8906,273.2734 L29.8906,265.1953 L27.4219,265.1953 Z " fill="#000000"/><text fill="#000000" font-family="sans-serif" font-size="14" font-style="italic" lengthAdjust="spacing" textLength="271" x="45.5" y="274.2764">ShippingMethodChangeIsDefaultAction</text><line style="stroke:#181818;stroke-width:0.5;" x1="17.5" x2="318.5" y1="285.4297" y2="285.4297"/><text fill="#000000" font-family="sans-serif" font-size="14" lengthAdjust="spacing" textLength="91" x="22.5" y="302.4248">action: String</text><text fill="#000000" font-family="sans-serif" font-size="14" lengthAdjust="spacing" textLength="126" x="22.5" y="318.7217">isDefault: Boolean</text></g></a><!--MD5=[cd8096e39ae516eec615e8b09ba3076f]
class ShippingMethodChangeNameAction--><a href="ShippingMethodChangeNameAction.svg" target="_top" title="ShippingMethodChangeNameAction.svg" xlink:actuate="onRequest" xlink:href="ShippingMethodChangeNameAction.svg" xlink:show="new" xlink:title="ShippingMethodChangeNameAction.svg" xlink:type="simple"><g id="elem_ShippingMethodChangeNameAction"><rect codeLine="28" fill="#F1F1F1" height="72.5938" id="ShippingMethodChangeNameAction" rx="2.5" ry="2.5" style="stroke:#181818;stroke-width:0.5;" width="284" x="1224.5" y="253.4297"/><ellipse cx="1239.5" cy="269.4297" fill="#B4A7E5" rx="11" ry="11" style="stroke:#181818;stroke-width:1.0;"/><path d="M1235.4219,265.1953 L1235.4219,263.0391 L1242.8125,263.0391 L1242.8125,265.1953 L1240.3438,265.1953 L1240.3438,273.2734 L1242.8125,273.2734 L1242.8125,275.4297 L1235.4219,275.4297 L1235.4219,273.2734 L1237.8906,273.2734 L1237.8906,265.1953 L1235.4219,265.1953 Z " fill="#000000"/><text fill="#000000" font-family="sans-serif" font-size="14" font-style="italic" lengthAdjust="spacing" textLength="252" x="1253.5" y="274.2764">ShippingMethodChangeNameAction</text><line style="stroke:#181818;stroke-width:0.5;" x1="1225.5" x2="1507.5" y1="285.4297" y2="285.4297"/><text fill="#000000" font-family="sans-serif" font-size="14" lengthAdjust="spacing" textLength="91" x="1230.5" y="302.4248">action: String</text><text fill="#000000" font-family="sans-serif" font-size="14" lengthAdjust="spacing" textLength="88" x="1230.5" y="318.7217">name: String</text></g></a><!--MD5=[eca6df60c00f9a96ac58d9d2c30de1a4]
class ShippingMethodChangeTaxCategoryAction--><a href="ShippingMethodChangeTaxCategoryAction.svg" target="_top" title="ShippingMethodChangeTaxCategoryAction.svg" xlink:actuate="onRequest" xlink:href="ShippingMethodChangeTaxCategoryAction.svg" xlink:show="new" xlink:title="ShippingMethodChangeTaxCategoryAction.svg" xlink:type="simple"><g id="elem_ShippingMethodChangeTaxCategoryAction"><rect codeLine="32" fill="#F1F1F1" height="72.5938" id="ShippingMethodChangeTaxCategoryAction" rx="2.5" ry="2.5" style="stroke:#181818;stroke-width:0.5;" width="331" x="3159.5" y="253.4297"/><ellipse cx="3174.5" cy="269.4297" fill="#B4A7E5" rx="11" ry="11" style="stroke:#181818;stroke-width:1.0;"/><path d="M3170.4219,265.1953 L3170.4219,263.0391 L3177.8125,263.0391 L3177.8125,265.1953 L3175.3438,265.1953 L3175.3438,273.2734 L3177.8125,273.2734 L3177.8125,275.4297 L3170.4219,275.4297 L3170.4219,273.2734 L3172.8906,273.2734 L3172.8906,265.1953 L3170.4219,265.1953 Z " fill="#000000"/><text fill="#000000" font-family="sans-serif" font-size="14" font-style="italic" lengthAdjust="spacing" textLength="299" x="3188.5" y="274.2764">ShippingMethodChangeTaxCategoryAction</text><line style="stroke:#181818;stroke-width:0.5;" x1="3160.5" x2="3489.5" y1="285.4297" y2="285.4297"/><text fill="#000000" font-family="sans-serif" font-size="14" lengthAdjust="spacing" textLength="91" x="3165.5" y="302.4248">action: String</text><text fill="#000000" font-family="sans-serif" font-size="14" lengthAdjust="spacing" textLength="87" x="3165.5" y="318.7217">taxCategory:</text><a href="TaxCategoryResourceIdentifier.svg" target="_top" title="TaxCategoryResourceIdentifier.svg" xlink:actuate="onRequest" xlink:href="TaxCategoryResourceIdentifier.svg" xlink:show="new" xlink:title="TaxCategoryResourceIdentifier.svg" xlink:type="simple"><text fill="#0000FF" font-family="sans-serif" font-size="14" lengthAdjust="spacing" text-decoration="underline" textLength="212" x="3256.5" y="318.7217">TaxCategoryResourceIdentifier</text></a></g></a><!--MD5=[a53c048d10804d64cd583de2b0f0a95a]
class ShippingMethodRemoveShippingRateAction--><a href="ShippingMethodRemoveShippingRateAction.svg" target="_top" title="ShippingMethodRemoveShippingRateAction.svg" xlink:actuate="onRequest" xlink:href="ShippingMethodRemoveShippingRateAction.svg" xlink:show="new" xlink:title="ShippingMethodRemoveShippingRateAction.svg" xlink:type="simple"><g id="elem_ShippingMethodRemoveShippingRateAction"><rect codeLine="36" fill="#F1F1F1" height="88.8906" id="ShippingMethodRemoveShippingRateAction" rx="2.5" ry="2.5" style="stroke:#181818;stroke-width:0.5;" width="339" x="3510.5" y="253.4297"/><ellipse cx="3525.5" cy="269.4297" fill="#B4A7E5" rx="11" ry="11" style="stroke:#181818;stroke-width:1.0;"/><path d="M3521.4219,265.1953 L3521.4219,263.0391 L3528.8125,263.0391 L3528.8125,265.1953 L3526.3438,265.1953 L3526.3438,273.2734 L3528.8125,273.2734 L3528.8125,275.4297 L3521.4219,275.4297 L3521.4219,273.2734 L3523.8906,273.2734 L3523.8906,265.1953 L3521.4219,265.1953 Z " fill="#000000"/><text fill="#000000" font-family="sans-serif" font-size="14" font-style="italic" lengthAdjust="spacing" textLength="307" x="3539.5" y="274.2764">ShippingMethodRemoveShippingRateAction</text><line style="stroke:#181818;stroke-width:0.5;" x1="3511.5" x2="3848.5" y1="285.4297" y2="285.4297"/><text fill="#000000" font-family="sans-serif" font-size="14" lengthAdjust="spacing" textLength="91" x="3516.5" y="302.4248">action: String</text><text fill="#000000" font-family="sans-serif" font-size="14" lengthAdjust="spacing" textLength="40" x="3516.5" y="318.7217">zone:</text><a href="ZoneResourceIdentifier.svg" target="_top" title="ZoneResourceIdentifier.svg" xlink:actuate="onRequest" xlink:href="ZoneResourceIdentifier.svg" xlink:show="new" xlink:title="ZoneResourceIdentifier.svg" xlink:type="simple"><text fill="#0000FF" font-family="sans-serif" font-size="14" lengthAdjust="spacing" text-decoration="underline" textLength="163" x="3560.5" y="318.7217">ZoneResourceIdentifier</text></a><text fill="#000000" font-family="sans-serif" font-size="14" lengthAdjust="spacing" textLength="96" x="3516.5" y="335.0186">shippingRate:</text><a href="ShippingRateDraft.svg" target="_top" title="ShippingRateDraft.svg" xlink:actuate="onRequest" xlink:href="ShippingRateDraft.svg" xlink:show="new" xlink:title="ShippingRateDraft.svg" xlink:type="simple"><text fill="#0000FF" font-family="sans-serif" font-size="14" lengthAdjust="spacing" text-decoration="underline" textLength="125" x="3616.5" y="335.0186">ShippingRateDraft</text></a></g></a><!--MD5=[e680a78ca382f8bec096c15a5933a758]
class ShippingMethodRemoveZoneAction--><a href="ShippingMethodRemoveZoneAction.svg" target="_top" title="ShippingMethodRemoveZoneAction.svg" xlink:actuate="onRequest" xlink:href="ShippingMethodRemoveZoneAction.svg" xlink:show="new" xlink:title="ShippingMethodRemoveZoneAction.svg" xlink:type="simple"><g id="elem_ShippingMethodRemoveZoneAction"><rect codeLine="41" fill="#F1F1F1" height="72.5938" id="ShippingMethodRemoveZoneAction" rx="2.5" ry="2.5" style="stroke:#181818;stroke-width:0.5;" width="284" x="2855.5" y="253.4297"/><ellipse cx="2870.5" cy="269.4297" fill="#B4A7E5" rx="11" ry="11" style="stroke:#181818;stroke-width:1.0;"/><path d="M2866.4219,265.1953 L2866.4219,263.0391 L2873.8125,263.0391 L2873.8125,265.1953 L2871.3438,265.1953 L2871.3438,273.2734 L2873.8125,273.2734 L2873.8125,275.4297 L2866.4219,275.4297 L2866.4219,273.2734 L2868.8906,273.2734 L2868.8906,265.1953 L2866.4219,265.1953 Z " fill="#000000"/><text fill="#000000" font-family="sans-serif" font-size="14" font-style="italic" lengthAdjust="spacing" textLength="252" x="2884.5" y="274.2764">ShippingMethodRemoveZoneAction</text><line style="stroke:#181818;stroke-width:0.5;" x1="2856.5" x2="3138.5" y1="285.4297" y2="285.4297"/><text fill="#000000" font-family="sans-serif" font-size="14" lengthAdjust="spacing" textLength="91" x="2861.5" y="302.4248">action: String</text><text fill="#000000" font-family="sans-serif" font-size="14" lengthAdjust="spacing" textLength="40" x="2861.5" y="318.7217">zone:</text><a href="ZoneResourceIdentifier.svg" target="_top" title="ZoneResourceIdentifier.svg" xlink:actuate="onRequest" xlink:href="ZoneResourceIdentifier.svg" xlink:show="new" xlink:title="ZoneResourceIdentifier.svg" xlink:type="simple"><text fill="#0000FF" font-family="sans-serif" font-size="14" lengthAdjust="spacing" text-decoration="underline" textLength="163" x="2905.5" y="318.7217">ZoneResourceIdentifier</text></a></g></a><!--MD5=[e3e841079abde6eaa4e9a9d0653c2636]
class ShippingMethodSetCustomFieldAction--><a href="ShippingMethodSetCustomFieldAction.svg" target="_top" title="ShippingMethodSetCustomFieldAction.svg" xlink:actuate="onRequest" xlink:href="ShippingMethodSetCustomFieldAction.svg" xlink:show="new" xlink:title="ShippingMethodSetCustomFieldAction.svg" xlink:type="simple"><g id="elem_ShippingMethodSetCustomFieldAction"><rect codeLine="45" fill="#F1F1F1" height="88.8906" id="ShippingMethodSetCustomFieldAction" rx="2.5" ry="2.5" style="stroke:#181818;stroke-width:0.5;" width="297" x="597.5" y="253.4297"/><ellipse cx="612.5" cy="269.4297" fill="#B4A7E5" rx="11" ry="11" style="stroke:#181818;stroke-width:1.0;"/><path d="M608.4219,265.1953 L608.4219,263.0391 L615.8125,263.0391 L615.8125,265.1953 L613.3438,265.1953 L613.3438,273.2734 L615.8125,273.2734 L615.8125,275.4297 L608.4219,275.4297 L608.4219,273.2734 L610.8906,273.2734 L610.8906,265.1953 L608.4219,265.1953 Z " fill="#000000"/><text fill="#000000" font-family="sans-serif" font-size="14" font-style="italic" lengthAdjust="spacing" textLength="265" x="626.5" y="274.2764">ShippingMethodSetCustomFieldAction</text><line style="stroke:#181818;stroke-width:0.5;" x1="598.5" x2="893.5" y1="285.4297" y2="285.4297"/><text fill="#000000" font-family="sans-serif" font-size="14" lengthAdjust="spacing" textLength="91" x="603.5" y="302.4248">action: String</text><text fill="#000000" font-family="sans-serif" font-size="14" lengthAdjust="spacing" textLength="88" x="603.5" y="318.7217">name: String</text><text fill="#000000" font-family="sans-serif" font-size="14" lengthAdjust="spacing" textLength="41" x="603.5" y="335.0186">value:</text><a href="Object.svg" target="_top" title="Object.svg" xlink:actuate="onRequest" xlink:href="Object.svg" xlink:show="new" xlink:title="Object.svg" xlink:type="simple"><text fill="#0000FF" font-family="sans-serif" font-size="14" lengthAdjust="spacing" text-decoration="underline" textLength="45" x="648.5" y="335.0186">Object</text></a></g></a><!--MD5=[acbc845a24a73d4d8b6d0145182f2f53]
class ShippingMethodSetCustomTypeAction--><a href="ShippingMethodSetCustomTypeAction.svg" target="_top" title="ShippingMethodSetCustomTypeAction.svg" xlink:actuate="onRequest" xlink:href="ShippingMethodSetCustomTypeAction.svg" xlink:show="new" xlink:title="ShippingMethodSetCustomTypeAction.svg" xlink:type="simple"><g id="elem_ShippingMethodSetCustomTypeAction"><rect codeLine="50" fill="#F1F1F1" height="88.8906" id="ShippingMethodSetCustomTypeAction" rx="2.5" ry="2.5" style="stroke:#181818;stroke-width:0.5;" width="300" x="1865.5" y="253.4297"/><ellipse cx="1880.5" cy="269.4297" fill="#B4A7E5" rx="11" ry="11" style="stroke:#181818;stroke-width:1.0;"/><path d="M1876.4219,265.1953 L1876.4219,263.0391 L1883.8125,263.0391 L1883.8125,265.1953 L1881.3438,265.1953 L1881.3438,273.2734 L1883.8125,273.2734 L1883.8125,275.4297 L1876.4219,275.4297 L1876.4219,273.2734 L1878.8906,273.2734 L1878.8906,265.1953 L1876.4219,265.1953 Z " fill="#000000"/><text fill="#000000" font-family="sans-serif" font-size="14" font-style="italic" lengthAdjust="spacing" textLength="268" x="1894.5" y="274.2764">ShippingMethodSetCustomTypeAction</text><line style="stroke:#181818;stroke-width:0.5;" x1="1866.5" x2="2164.5" y1="285.4297" y2="285.4297"/><text fill="#000000" font-family="sans-serif" font-size="14" lengthAdjust="spacing" textLength="91" x="1871.5" y="302.4248">action: String</text><text fill="#000000" font-family="sans-serif" font-size="14" lengthAdjust="spacing" textLength="35" x="1871.5" y="318.7217">type:</text><a href="TypeResourceIdentifier.svg" target="_top" title="TypeResourceIdentifier.svg" xlink:actuate="onRequest" xlink:href="TypeResourceIdentifier.svg" xlink:show="new" xlink:title="TypeResourceIdentifier.svg" xlink:type="simple"><text fill="#0000FF" font-family="sans-serif" font-size="14" lengthAdjust="spacing" text-decoration="underline" textLength="160" x="1910.5" y="318.7217">TypeResourceIdentifier</text></a><text fill="#000000" font-family="sans-serif" font-size="14" lengthAdjust="spacing" textLength="41" x="1871.5" y="335.0186">fields:</text><a href="FieldContainer.svg" target="_top" title="FieldContainer.svg" xlink:actuate="onRequest" xlink:href="FieldContainer.svg" xlink:show="new" xlink:title="FieldContainer.svg" xlink:type="simple"><text fill="#0000FF" font-family="sans-serif" font-size="14" lengthAdjust="spacing" text-decoration="underline" textLength="99" x="1916.5" y="335.0186">FieldContainer</text></a></g></a><!--MD5=[f755f928534cb2c44c5f11473f4606d8]
class ShippingMethodSetDescriptionAction--><a href="ShippingMethodSetDescriptionAction.svg" target="_top" title="ShippingMethodSetDescriptionAction.svg" xlink:actuate="onRequest" xlink:href="ShippingMethodSetDescriptionAction.svg" xlink:show="new" xlink:title="ShippingMethodSetDescriptionAction.svg" xlink:type="simple"><g id="elem_ShippingMethodSetDescriptionAction"><rect codeLine="55" fill="#F1F1F1" height="72.5938" id="ShippingMethodSetDescriptionAction" rx="2.5" ry="2.5" style="stroke:#181818;stroke-width:0.5;" width="290" x="914.5" y="253.4297"/><ellipse cx="929.5" cy="269.4297" fill="#B4A7E5" rx="11" ry="11" style="stroke:#181818;stroke-width:1.0;"/><path d="M925.4219,265.1953 L925.4219,263.0391 L932.8125,263.0391 L932.8125,265.1953 L930.3438,265.1953 L930.3438,273.2734 L932.8125,273.2734 L932.8125,275.4297 L925.4219,275.4297 L925.4219,273.2734 L927.8906,273.2734 L927.8906,265.1953 L925.4219,265.1953 Z " fill="#000000"/><text fill="#000000" font-family="sans-serif" font-size="14" font-style="italic" lengthAdjust="spacing" textLength="258" x="943.5" y="274.2764">ShippingMethodSetDescriptionAction</text><line style="stroke:#181818;stroke-width:0.5;" x1="915.5" x2="1203.5" y1="285.4297" y2="285.4297"/><text fill="#000000" font-family="sans-serif" font-size="14" lengthAdjust="spacing" textLength="91" x="920.5" y="302.4248">action: String</text><text fill="#000000" font-family="sans-serif" font-size="14" lengthAdjust="spacing" textLength="126" x="920.5" y="318.7217">description: String</text></g></a><!--MD5=[7108712225fa8209e1ae0f0e6f96371c]
class ShippingMethodSetKeyAction--><a href="ShippingMethodSetKeyAction.svg" target="_top" title="ShippingMethodSetKeyAction.svg" xlink:actuate="onRequest" xlink:href="ShippingMethodSetKeyAction.svg" xlink:show="new" xlink:title="ShippingMethodSetKeyAction.svg" xlink:type="simple"><g id="elem_ShippingMethodSetKeyAction"><rect codeLine="59" fill="#F1F1F1" height="72.5938" id="ShippingMethodSetKeyAction" rx="2.5" ry="2.5" style="stroke:#181818;stroke-width:0.5;" width="238" x="339.5" y="253.4297"/><ellipse cx="354.5" cy="269.4297" fill="#B4A7E5" rx="11" ry="11" style="stroke:#181818;stroke-width:1.0;"/><path d="M350.4219,265.1953 L350.4219,263.0391 L357.8125,263.0391 L357.8125,265.1953 L355.3438,265.1953 L355.3438,273.2734 L357.8125,273.2734 L357.8125,275.4297 L350.4219,275.4297 L350.4219,273.2734 L352.8906,273.2734 L352.8906,265.1953 L350.4219,265.1953 Z " fill="#000000"/><text fill="#000000" font-family="sans-serif" font-size="14" font-style="italic" lengthAdjust="spacing" textLength="206" x="368.5" y="274.2764">ShippingMethodSetKeyAction</text><line style="stroke:#181818;stroke-width:0.5;" x1="340.5" x2="576.5" y1="285.4297" y2="285.4297"/><text fill="#000000" font-family="sans-serif" font-size="14" lengthAdjust="spacing" textLength="91" x="345.5" y="302.4248">action: String</text><text fill="#000000" font-family="sans-serif" font-size="14" lengthAdjust="spacing" textLength="73" x="345.5" y="318.7217">key: String</text></g></a><!--MD5=[590f0ccb4c4a281c252482b153af1586]
class ShippingMethodSetLocalizedDescriptionAction--><a href="ShippingMethodSetLocalizedDescriptionAction.svg" target="_top" title="ShippingMethodSetLocalizedDescriptionAction.svg" xlink:actuate="onRequest" xlink:href="ShippingMethodSetLocalizedDescriptionAction.svg" xlink:show="new" xlink:title="ShippingMethodSetLocalizedDescriptionAction.svg" xlink:type="simple"><g id="elem_ShippingMethodSetLocalizedDescriptionAction"><rect codeLine="63" fill="#F1F1F1" height="72.5938" id="ShippingMethodSetLocalizedDescriptionAction" rx="2.5" ry="2.5" style="stroke:#181818;stroke-width:0.5;" width="354" x="2481.5" y="253.4297"/><ellipse cx="2496.5" cy="269.4297" fill="#B4A7E5" rx="11" ry="11" style="stroke:#181818;stroke-width:1.0;"/><path d="M2492.4219,265.1953 L2492.4219,263.0391 L2499.8125,263.0391 L2499.8125,265.1953 L2497.3438,265.1953 L2497.3438,273.2734 L2499.8125,273.2734 L2499.8125,275.4297 L2492.4219,275.4297 L2492.4219,273.2734 L2494.8906,273.2734 L2494.8906,265.1953 L2492.4219,265.1953 Z " fill="#000000"/><text fill="#000000" font-family="sans-serif" font-size="14" font-style="italic" lengthAdjust="spacing" textLength="322" x="2510.5" y="274.2764">ShippingMethodSetLocalizedDescriptionAction</text><line style="stroke:#181818;stroke-width:0.5;" x1="2482.5" x2="2834.5" y1="285.4297" y2="285.4297"/><text fill="#000000" font-family="sans-serif" font-size="14" lengthAdjust="spacing" textLength="91" x="2487.5" y="302.4248">action: String</text><text fill="#000000" font-family="sans-serif" font-size="14" lengthAdjust="spacing" textLength="144" x="2487.5" y="318.7217">localizedDescription:</text><a href="LocalizedString.svg" target="_top" title="LocalizedString.svg" xlink:actuate="onRequest" xlink:href="LocalizedString.svg" xlink:show="new" xlink:title="LocalizedString.svg" xlink:type="simple"><text fill="#0000FF" font-family="sans-serif" font-size="14" lengthAdjust="spacing" text-decoration="underline" textLength="104" x="2635.5" y="318.7217">LocalizedString</text></a></g></a><!--MD5=[5fda56b5344ba340d44ea2a532b0442a]
class ShippingMethodSetLocalizedNameAction--><a href="ShippingMethodSetLocalizedNameAction.svg" target="_top" title="ShippingMethodSetLocalizedNameAction.svg" xlink:actuate="onRequest" xlink:href="ShippingMethodSetLocalizedNameAction.svg" xlink:show="new" xlink:title="ShippingMethodSetLocalizedNameAction.svg" xlink:type="simple"><g id="elem_ShippingMethodSetLocalizedNameAction"><rect codeLine="67" fill="#F1F1F1" height="72.5938" id="ShippingMethodSetLocalizedNameAction" rx="2.5" ry="2.5" style="stroke:#181818;stroke-width:0.5;" width="317" x="1528.5" y="253.4297"/><ellipse cx="1543.5" cy="269.4297" fill="#B4A7E5" rx="11" ry="11" style="stroke:#181818;stroke-width:1.0;"/><path d="M1539.4219,265.1953 L1539.4219,263.0391 L1546.8125,263.0391 L1546.8125,265.1953 L1544.3438,265.1953 L1544.3438,273.2734 L1546.8125,273.2734 L1546.8125,275.4297 L1539.4219,275.4297 L1539.4219,273.2734 L1541.8906,273.2734 L1541.8906,265.1953 L1539.4219,265.1953 Z " fill="#000000"/><text fill="#000000" font-family="sans-serif" font-size="14" font-style="italic" lengthAdjust="spacing" textLength="285" x="1557.5" y="274.2764">ShippingMethodSetLocalizedNameAction</text><line style="stroke:#181818;stroke-width:0.5;" x1="1529.5" x2="1844.5" y1="285.4297" y2="285.4297"/><text fill="#000000" font-family="sans-serif" font-size="14" lengthAdjust="spacing" textLength="91" x="1534.5" y="302.4248">action: String</text><text fill="#000000" font-family="sans-serif" font-size="14" lengthAdjust="spacing" textLength="105" x="1534.5" y="318.7217">localizedName:</text><a href="LocalizedString.svg" target="_top" title="LocalizedString.svg" xlink:actuate="onRequest" xlink:href="LocalizedString.svg" xlink:show="new" xlink:title="LocalizedString.svg" xlink:type="simple"><text fill="#0000FF" font-family="sans-serif" font-size="14" lengthAdjust="spacing" text-decoration="underline" textLength="104" x="1643.5" y="318.7217">LocalizedString</text></a></g></a><!--MD5=[9aeeec1a3da74189962c11871c81cc68]
class ShippingMethodSetPredicateAction--><a href="ShippingMethodSetPredicateAction.svg" target="_top" title="ShippingMethodSetPredicateAction.svg" xlink:actuate="onRequest" xlink:href="ShippingMethodSetPredicateAction.svg" xlink:show="new" xlink:title="ShippingMethodSetPredicateAction.svg" xlink:type="simple"><g id="elem_ShippingMethodSetPredicateAction"><rect codeLine="71" fill="#F1F1F1" height="72.5938" id="ShippingMethodSetPredicateAction" rx="2.5" ry="2.5" style="stroke:#181818;stroke-width:0.5;" width="276" x="2185.5" y="253.4297"/><ellipse cx="2200.5" cy="269.4297" fill="#B4A7E5" rx="11" ry="11" style="stroke:#181818;stroke-width:1.0;"/><path d="M2196.4219,265.1953 L2196.4219,263.0391 L2203.8125,263.0391 L2203.8125,265.1953 L2201.3438,265.1953 L2201.3438,273.2734 L2203.8125,273.2734 L2203.8125,275.4297 L2196.4219,275.4297 L2196.4219,273.2734 L2198.8906,273.2734 L2198.8906,265.1953 L2196.4219,265.1953 Z " fill="#000000"/><text fill="#000000" font-family="sans-serif" font-size="14" font-style="italic" lengthAdjust="spacing" textLength="244" x="2214.5" y="274.2764">ShippingMethodSetPredicateAction</text><line style="stroke:#181818;stroke-width:0.5;" x1="2186.5" x2="2460.5" y1="285.4297" y2="285.4297"/><text fill="#000000" font-family="sans-serif" font-size="14" lengthAdjust="spacing" textLength="91" x="2191.5" y="302.4248">action: String</text><text fill="#000000" font-family="sans-serif" font-size="14" lengthAdjust="spacing" textLength="114" x="2191.5" y="318.7217">predicate: String</text></g></a><!--MD5=[63171d9e1afd161baa0c99aa6b22869f]
class ShippingMethodUpdate--><a href="ShippingMethodUpdate.svg" target="_top" title="ShippingMethodUpdate.svg" xlink:actuate="onRequest" xlink:href="ShippingMethodUpdate.svg" xlink:show="new" xlink:title="ShippingMethodUpdate.svg" xlink:type="simple"><g id="elem_ShippingMethodUpdate"><rect codeLine="75" fill="#F1F1F1" height="72.5938" id="ShippingMethodUpdate" rx="2.5" ry="2.5" style="stroke:#181818;stroke-width:0.5;" width="324" x="3869.5" y="253.4297"/><ellipse cx="3945.75" cy="269.4297" fill="#B4A7E5" rx="11" ry="11" style="stroke:#181818;stroke-width:1.0;"/><path d="M3941.6719,265.1953 L3941.6719,263.0391 L3949.0625,263.0391 L3949.0625,265.1953 L3946.5938,265.1953 L3946.5938,273.2734 L3949.0625,273.2734 L3949.0625,275.4297 L3941.6719,275.4297 L3941.6719,273.2734 L3944.1406,273.2734 L3944.1406,265.1953 L3941.6719,265.1953 Z " fill="#000000"/><text fill="#000000" font-family="sans-serif" font-size="14" font-style="italic" lengthAdjust="spacing" textLength="163" x="3966.25" y="274.2764">ShippingMethodUpdate</text><line style="stroke:#181818;stroke-width:0.5;" x1="3870.5" x2="4192.5" y1="285.4297" y2="285.4297"/><text fill="#000000" font-family="sans-serif" font-size="14" lengthAdjust="spacing" textLength="93" x="3875.5" y="302.4248">version: Long</text><text fill="#000000" font-family="sans-serif" font-size="14" lengthAdjust="spacing" textLength="55" x="3875.5" y="318.7217">actions:</text><a href="ShippingMethodUpdateAction.svg" target="_top" title="ShippingMethodUpdateAction.svg" xlink:actuate="onRequest" xlink:href="ShippingMethodUpdateAction.svg" xlink:show="new" xlink:title="ShippingMethodUpdateAction.svg" xlink:type="simple"><text fill="#0000FF" font-family="sans-serif" font-size="14" lengthAdjust="spacing" text-decoration="underline" textLength="253" x="3934.5" y="318.7217">List&lt;ShippingMethodUpdateAction&gt;</text></a></g></a><line style="stroke:#0000FF;stroke-width:1.0;" x1="362.1875" x2="362.1875" y1="68.2969" y2="88.2969"/><line style="stroke:#0000FF;stroke-width:1.0;" x1="362.1875" x2="4368" y1="88.2969" y2="88.2969"/><line style="stroke:#0000FF;stroke-width:1.0;" x1="4368" x2="4368" y1="88.2969" y2="253.4297"/><polygon fill="#0000FF" points="4368,253.4297,4372,244.4297,4368,248.4297,4364,244.4297,4368,253.4297" style="stroke:#0000FF;stroke-width:1.0;"/><text fill="#000000" font-family="sans-serif" font-size="13" lengthAdjust="spacing" textLength="159" x="4207" y="230.3638">action : addShippingRate</text><line style="stroke:#0000FF;stroke-width:1.0;" x1="377.125" x2="377.125" y1="68.2969" y2="78.2969"/><line style="stroke:#0000FF;stroke-width:1.0;" x1="377.125" x2="4669.5" y1="78.2969" y2="78.2969"/><line style="stroke:#0000FF;stroke-width:1.0;" x1="4669.5" x2="4669.5" y1="78.2969" y2="253.4297"/><polygon fill="#0000FF" points="4669.5,253.4297,4673.5,244.4297,4669.5,248.4297,4665.5,244.4297,4669.5,253.4297" style="stroke:#0000FF;stroke-width:1.0;"/><text fill="#000000" font-family="sans-serif" font-size="13" lengthAdjust="spacing" textLength="109" x="4558.5" y="230.3638">action : addZone</text><line style="stroke:#0000FF;stroke-width:1.0;" x1="168" x2="168" y1="68.2969" y2="253.4297"/><polygon fill="#0000FF" points="168,253.4297,172,244.4297,168,248.4297,164,244.4297,168,253.4297" style="stroke:#0000FF;stroke-width:1.0;"/><text fill="#000000" font-family="sans-serif" font-size="13" lengthAdjust="spacing" textLength="154" x="12" y="230.3638">action : changeIsDefault</text><line style="stroke:#0000FF;stroke-width:1.0;" x1="227.75" x2="227.75" y1="68.2969" y2="178.2969"/><line style="stroke:#0000FF;stroke-width:1.0;" x1="227.75" x2="1366.5" y1="178.2969" y2="178.2969"/><line style="stroke:#0000FF;stroke-width:1.0;" x1="1366.5" x2="1366.5" y1="178.2969" y2="253.4297"/><polygon fill="#0000FF" points="1366.5,253.4297,1370.5,244.4297,1366.5,248.4297,1362.5,244.4297,1366.5,253.4297" style="stroke:#0000FF;stroke-width:1.0;"/><text fill="#000000" font-family="sans-serif" font-size="13" lengthAdjust="spacing" textLength="137" x="1227.5" y="230.3638">action : changeName</text><line style="stroke:#0000FF;stroke-width:1.0;" x1="317.375" x2="317.375" y1="68.2969" y2="118.2969"/><line style="stroke:#0000FF;stroke-width:1.0;" x1="317.375" x2="3325" y1="118.2969" y2="118.2969"/><line style="stroke:#0000FF;stroke-width:1.0;" x1="3325" x2="3325" y1="118.2969" y2="253.4297"/><polygon fill="#0000FF" points="3325,253.4297,3329,244.4297,3325,248.4297,3321,244.4297,3325,253.4297" style="stroke:#0000FF;stroke-width:1.0;"/><text fill="#000000" font-family="sans-serif" font-size="13" lengthAdjust="spacing" textLength="178" x="3145" y="230.3638">action : changeTaxCategory</text><line style="stroke:#0000FF;stroke-width:1.0;" x1="332.3125" x2="332.3125" y1="68.2969" y2="108.2969"/><line style="stroke:#0000FF;stroke-width:1.0;" x1="332.3125" x2="3680" y1="108.2969" y2="108.2969"/><line style="stroke:#0000FF;stroke-width:1.0;" x1="3680" x2="3680" y1="108.2969" y2="253.4297"/><polygon fill="#0000FF" points="3680,253.4297,3684,244.4297,3680,248.4297,3676,244.4297,3680,253.4297" style="stroke:#0000FF;stroke-width:1.0;"/><text fill="#000000" font-family="sans-serif" font-size="13" lengthAdjust="spacing" textLength="184" x="3494" y="230.3638">action : removeShippingRate</text><line style="stroke:#0000FF;stroke-width:1.0;" x1="302.4375" x2="302.4375" y1="68.2969" y2="128.2969"/><line style="stroke:#0000FF;stroke-width:1.0;" x1="302.4375" x2="2997.5" y1="128.2969" y2="128.2969"/><line style="stroke:#0000FF;stroke-width:1.0;" x1="2997.5" x2="2997.5" y1="128.2969" y2="253.4297"/><polygon fill="#0000FF" points="2997.5,253.4297,3001.5,244.4297,2997.5,248.4297,2993.5,244.4297,2997.5,253.4297" style="stroke:#0000FF;stroke-width:1.0;"/><text fill="#000000" font-family="sans-serif" font-size="13" lengthAdjust="spacing" textLength="134" x="2861.5" y="230.3638">action : removeZone</text><line style="stroke:#0000FF;stroke-width:1.0;" x1="197.875" x2="197.875" y1="68.2969" y2="198.2969"/><line style="stroke:#0000FF;stroke-width:1.0;" x1="197.875" x2="746" y1="198.2969" y2="198.2969"/><line style="stroke:#0000FF;stroke-width:1.0;" x1="746" x2="746" y1="198.2969" y2="253.4297"/><polygon fill="#0000FF" points="746,253.4297,750,244.4297,746,248.4297,742,244.4297,746,253.4297" style="stroke:#0000FF;stroke-width:1.0;"/><text fill="#000000" font-family="sans-serif" font-size="13" lengthAdjust="spacing" textLength="150" x="594" y="230.3638">action : setCustomField</text><line style="stroke:#0000FF;stroke-width:1.0;" x1="257.625" x2="257.625" y1="68.2969" y2="158.2969"/><line style="stroke:#0000FF;stroke-width:1.0;" x1="257.625" x2="2015.5" y1="158.2969" y2="158.2969"/><line style="stroke:#0000FF;stroke-width:1.0;" x1="2015.5" x2="2015.5" y1="158.2969" y2="253.4297"/><polygon fill="#0000FF" points="2015.5,253.4297,2019.5,244.4297,2015.5,248.4297,2011.5,244.4297,2015.5,253.4297" style="stroke:#0000FF;stroke-width:1.0;"/><text fill="#000000" font-family="sans-serif" font-size="13" lengthAdjust="spacing" textLength="151" x="1862.5" y="230.3638">action : setCustomType</text><line style="stroke:#0000FF;stroke-width:1.0;" x1="212.8125" x2="212.8125" y1="68.2969" y2="188.2969"/><line style="stroke:#0000FF;stroke-width:1.0;" x1="212.8125" x2="1059.5" y1="188.2969" y2="188.2969"/><line style="stroke:#0000FF;stroke-width:1.0;" x1="1059.5" x2="1059.5" y1="188.2969" y2="253.4297"/><polygon fill="#0000FF" points="1059.5,253.4297,1063.5,244.4297,1059.5,248.4297,1055.5,244.4297,1059.5,253.4297" style="stroke:#0000FF;stroke-width:1.0;"/><text fill="#000000" font-family="sans-serif" font-size="13" lengthAdjust="spacing" textLength="143" x="914.5" y="230.3638">action : setDescription</text><line style="stroke:#0000FF;stroke-width:1.0;" x1="182.9375" x2="182.9375" y1="68.2969" y2="208.2969"/><line style="stroke:#0000FF;stroke-width:1.0;" x1="182.9375" x2="458.5" y1="208.2969" y2="208.2969"/><line style="stroke:#0000FF;stroke-width:1.0;" x1="458.5" x2="458.5" y1="208.2969" y2="253.4297"/><polygon fill="#0000FF" points="458.5,253.4297,462.5,244.4297,458.5,248.4297,454.5,244.4297,458.5,253.4297" style="stroke:#0000FF;stroke-width:1.0;"/><text fill="#000000" font-family="sans-serif" font-size="13" lengthAdjust="spacing" textLength="94" x="362.5" y="230.3638">action : setKey</text><line style="stroke:#0000FF;stroke-width:1.0;" x1="287.5" x2="287.5" y1="68.2969" y2="138.2969"/><line style="stroke:#0000FF;stroke-width:1.0;" x1="287.5" x2="2658.5" y1="138.2969" y2="138.2969"/><line style="stroke:#0000FF;stroke-width:1.0;" x1="2658.5" x2="2658.5" y1="138.2969" y2="253.4297"/><polygon fill="#0000FF" points="2658.5,253.4297,2662.5,244.4297,2658.5,248.4297,2654.5,244.4297,2658.5,253.4297" style="stroke:#0000FF;stroke-width:1.0;"/><text fill="#000000" font-family="sans-serif" font-size="13" lengthAdjust="spacing" textLength="202" x="2454.5" y="230.3638">action : setLocalizedDescription</text><line style="stroke:#0000FF;stroke-width:1.0;" x1="242.6875" x2="242.6875" y1="68.2969" y2="168.2969"/><line style="stroke:#0000FF;stroke-width:1.0;" x1="242.6875" x2="1687" y1="168.2969" y2="168.2969"/><line style="stroke:#0000FF;stroke-width:1.0;" x1="1687" x2="1687" y1="168.2969" y2="253.4297"/><polygon fill="#0000FF" points="1687,253.4297,1691,244.4297,1687,248.4297,1683,244.4297,1687,253.4297" style="stroke:#0000FF;stroke-width:1.0;"/><text fill="#000000" font-family="sans-serif" font-size="13" lengthAdjust="spacing" textLength="169" x="1516" y="230.3638">action : setLocalizedName</text><line style="stroke:#0000FF;stroke-width:1.0;" x1="272.5625" x2="272.5625" y1="68.2969" y2="148.2969"/><line style="stroke:#0000FF;stroke-width:1.0;" x1="272.5625" x2="2323.5" y1="148.2969" y2="148.2969"/><line style="stroke:#0000FF;stroke-width:1.0;" x1="2323.5" x2="2323.5" y1="148.2969" y2="253.4297"/><polygon fill="#0000FF" points="2323.5,253.4297,2327.5,244.4297,2323.5,248.4297,2319.5,244.4297,2323.5,253.4297" style="stroke:#0000FF;stroke-width:1.0;"/><text fill="#000000" font-family="sans-serif" font-size="13" lengthAdjust="spacing" textLength="131" x="2190.5" y="230.3638">action : setPredicate</text><line style="stroke:#008000;stroke-width:1.0;" x1="347.25" x2="347.25" y1="68.2969" y2="98.2969"/><line style="stroke:#008000;stroke-width:1.0;" x1="347.25" x2="4031.5" y1="98.2969" y2="98.2969"/><line style="stroke:#008000;stroke-width:1.0;" x1="4031.5" x2="4031.5" y1="98.2969" y2="253.4297"/><polygon fill="#008000" points="4031.5,253.4297,4035.5,244.4297,4031.5,248.4297,4027.5,244.4297,4031.5,253.4297" style="stroke:#008000;stroke-width:1.0;"/><text fill="#000000" font-family="sans-serif" font-size="13" lengthAdjust="spacing" textLength="46" x="3983.5" y="230.3638">actions</text><rect fill="#DDDDDD" height="79.1875" id="_legend" rx="7.5" ry="7.5" style="stroke:#000000;stroke-width:1.0;" width="161" x="2311.25" y="343.3203"/><text fill="#000000" font-family="sans-serif" font-size="14" font-weight="bold" lengthAdjust="spacing" textLength="5" x="2316.25" y="363.3154"> </text><text fill="#000000" font-family="sans-serif" font-size="14" font-weight="bold" lengthAdjust="spacing" textLength="28" x="2333.25" y="363.3154">line</text><text fill="#000000" filter="url(#b1vv4u8514id2h0)" font-family="sans-serif" font-size="14" lengthAdjust="spacing" textLength="12" x="2316.25" y="379.6123">   </text><text fill="#000000" font-family="sans-serif" font-size="14" lengthAdjust="spacing" textLength="77" x="2332.25" y="379.6123">inheritance</text><text fill="#000000" filter="url(#b1vv4u8514id2h1)" font-family="sans-serif" font-size="14" lengthAdjust="spacing" textLength="12" x="2316.25" y="395.9092">   </text><text fill="#000000" font-family="sans-serif" font-size="14" lengthAdjust="spacing" textLength="129" x="2332.25" y="395.9092">property reference</text><text fill="#000000" filter="url(#b1vv4u8514id2h2)" font-family="sans-serif" font-size="14" lengthAdjust="spacing" textLength="12" x="2316.25" y="412.2061">   </text><text fill="#000000" font-family="sans-serif" font-size="14" lengthAdjust="spacing" textLength="131" x="2332.25" y="412.2061">discriminated class</text><line style="stroke:#000000;stroke-width:1.0;" x1="2316.25" x2="2467.25" y1="350.3203" y2="350.3203"/><line style="stroke:#000000;stroke-width:1.0;" x1="2316.25" x2="2467.25" y1="366.6172" y2="366.6172"/><line style="stroke:#000000;stroke-width:1.0;" x1="2316.25" x2="2467.25" y1="382.9141" y2="382.9141"/><line style="stroke:#000000;stroke-width:1.0;" x1="2316.25" x2="2467.25" y1="399.2109" y2="399.2109"/><line style="stroke:#000000;stroke-width:1.0;" x1="2316.25" x2="2467.25" y1="415.5078" y2="415.5078"/><line style="stroke:#000000;stroke-width:1.0;" x1="2316.25" x2="2316.25" y1="350.3203" y2="415.5078"/><line style="stroke:#000000;stroke-width:1.0;" x1="2328.25" x2="2328.25" y1="350.3203" y2="415.5078"/><line style="stroke:#000000;stroke-width:1.0;" x1="2467.25" x2="2467.25" y1="350.3203" y2="415.5078"/><!--MD5=[b9f3dca99609eeae5f1cc16c5781c4e3]
@startuml
!pragma layout elk
hide empty fields
hide empty methods
legend
|= |= line |
|<back:black>   </back>| inheritance |
|<back:green>   </back>| property reference |
|<back:blue>   </back>| discriminated class |
endlegend
interface ShippingMethodUpdateAction [[ShippingMethodUpdateAction.svg]]  {
    action: String
}


interface ShippingMethodAddShippingRateAction [[ShippingMethodAddShippingRateAction.svg]]  {
    action: String
    zone: [[ZoneResourceIdentifier.svg ZoneResourceIdentifier]]
    shippingRate: [[ShippingRateDraft.svg ShippingRateDraft]]
}
interface ShippingMethodAddZoneAction [[ShippingMethodAddZoneAction.svg]]  {
    action: String
    zone: [[ZoneResourceIdentifier.svg ZoneResourceIdentifier]]
}
interface ShippingMethodChangeIsDefaultAction [[ShippingMethodChangeIsDefaultAction.svg]]  {
    action: String
    isDefault: Boolean
}
interface ShippingMethodChangeNameAction [[ShippingMethodChangeNameAction.svg]]  {
    action: String
    name: String
}
interface ShippingMethodChangeTaxCategoryAction [[ShippingMethodChangeTaxCategoryAction.svg]]  {
    action: String
    taxCategory: [[TaxCategoryResourceIdentifier.svg TaxCategoryResourceIdentifier]]
}
interface ShippingMethodRemoveShippingRateAction [[ShippingMethodRemoveShippingRateAction.svg]]  {
    action: String
    zone: [[ZoneResourceIdentifier.svg ZoneResourceIdentifier]]
    shippingRate: [[ShippingRateDraft.svg ShippingRateDraft]]
}
interface ShippingMethodRemoveZoneAction [[ShippingMethodRemoveZoneAction.svg]]  {
    action: String
    zone: [[ZoneResourceIdentifier.svg ZoneResourceIdentifier]]
}
interface ShippingMethodSetCustomFieldAction [[ShippingMethodSetCustomFieldAction.svg]]  {
    action: String
    name: String
    value: [[Object.svg Object]]
}
interface ShippingMethodSetCustomTypeAction [[ShippingMethodSetCustomTypeAction.svg]]  {
    action: String
    type: [[TypeResourceIdentifier.svg TypeResourceIdentifier]]
    fields: [[FieldContainer.svg FieldContainer]]
}
interface ShippingMethodSetDescriptionAction [[ShippingMethodSetDescriptionAction.svg]]  {
    action: String
    description: String
}
interface ShippingMethodSetKeyAction [[ShippingMethodSetKeyAction.svg]]  {
    action: String
    key: String
}
interface ShippingMethodSetLocalizedDescriptionAction [[ShippingMethodSetLocalizedDescriptionAction.svg]]  {
    action: String
    localizedDescription: [[LocalizedString.svg LocalizedString]]
}
interface ShippingMethodSetLocalizedNameAction [[ShippingMethodSetLocalizedNameAction.svg]]  {
    action: String
    localizedName: [[LocalizedString.svg LocalizedString]]
}
interface ShippingMethodSetPredicateAction [[ShippingMethodSetPredicateAction.svg]]  {
    action: String
    predicate: String
}
interface ShippingMethodUpdate [[ShippingMethodUpdate.svg]]  {
    version: Long
    actions: [[ShippingMethodUpdateAction.svg List<ShippingMethodUpdateAction>]]
}
ShippingMethodUpdateAction - -> ShippingMethodAddShippingRateAction #blue;text:blue : "action : addShippingRate"
ShippingMethodUpdateAction - -> ShippingMethodAddZoneAction #blue;text:blue : "action : addZone"
ShippingMethodUpdateAction - -> ShippingMethodChangeIsDefaultAction #blue;text:blue : "action : changeIsDefault"
ShippingMethodUpdateAction - -> ShippingMethodChangeNameAction #blue;text:blue : "action : changeName"
ShippingMethodUpdateAction - -> ShippingMethodChangeTaxCategoryAction #blue;text:blue : "action : changeTaxCategory"
ShippingMethodUpdateAction - -> ShippingMethodRemoveShippingRateAction #blue;text:blue : "action : removeShippingRate"
ShippingMethodUpdateAction - -> ShippingMethodRemoveZoneAction #blue;text:blue : "action : removeZone"
ShippingMethodUpdateAction - -> ShippingMethodSetCustomFieldAction #blue;text:blue : "action : setCustomField"
ShippingMethodUpdateAction - -> ShippingMethodSetCustomTypeAction #blue;text:blue : "action : setCustomType"
ShippingMethodUpdateAction - -> ShippingMethodSetDescriptionAction #blue;text:blue : "action : setDescription"
ShippingMethodUpdateAction - -> ShippingMethodSetKeyAction #blue;text:blue : "action : setKey"
ShippingMethodUpdateAction - -> ShippingMethodSetLocalizedDescriptionAction #blue;text:blue : "action : setLocalizedDescription"
ShippingMethodUpdateAction - -> ShippingMethodSetLocalizedNameAction #blue;text:blue : "action : setLocalizedName"
ShippingMethodUpdateAction - -> ShippingMethodSetPredicateAction #blue;text:blue : "action : setPredicate"
ShippingMethodUpdateAction - -> ShippingMethodUpdate #green;text:green : "actions"
@enduml

PlantUML version 1.2022.13(Sat Nov 19 13:22:17 UTC 2022)
(GPL source distribution)
Java Runtime: OpenJDK Runtime Environment
JVM: OpenJDK 64-Bit Server VM
Default Encoding: UTF-8
Language: en
Country: null
--></g></svg>
