<?xml version="1.0" encoding="UTF-8" standalone="no"?><svg xmlns="http://www.w3.org/2000/svg" xmlns:xlink="http://www.w3.org/1999/xlink" contentStyleType="text/css" height="362px" preserveAspectRatio="none" style="width:2170px;height:362px;background:#FFFFFF;" version="1.1" viewBox="0 0 2170 362" width="2170px" zoomAndPan="magnify"><defs><filter height="1" id="bbczsav24cb1s0" width="1" x="0" y="0"><feFlood flood-color="#000000" result="flood"/><feComposite in="SourceGraphic" in2="flood" operator="over"/></filter><filter height="1" id="bbczsav24cb1s1" width="1" x="0" y="0"><feFlood flood-color="#008000" result="flood"/><feComposite in="SourceGraphic" in2="flood" operator="over"/></filter><filter height="1" id="bbczsav24cb1s2" width="1" x="0" y="0"><feFlood flood-color="#0000FF" result="flood"/><feComposite in="SourceGraphic" in2="flood" operator="over"/></filter></defs><g><!--MD5=[09a90342e6e7bf1acbed0502381deea3]
class StagedQuoteUpdateAction--><a href="StagedQuoteUpdateAction.svg" target="_top" title="StagedQuoteUpdateAction.svg" xlink:actuate="onRequest" xlink:href="StagedQuoteUpdateAction.svg" xlink:show="new" xlink:title="StagedQuoteUpdateAction.svg" xlink:type="simple"><g id="elem_StagedQuoteUpdateAction"><rect codeLine="10" fill="#F1F1F1" height="56.2969" id="StagedQuoteUpdateAction" rx="2.5" ry="2.5" style="stroke:#181818;stroke-width:0.5;" width="218" x="137.75" y="12"/><ellipse cx="152.75" cy="28" fill="#B4A7E5" rx="11" ry="11" style="stroke:#181818;stroke-width:1.0;"/><path d="M148.6719,23.7656 L148.6719,21.6094 L156.0625,21.6094 L156.0625,23.7656 L153.5938,23.7656 L153.5938,31.8438 L156.0625,31.8438 L156.0625,34 L148.6719,34 L148.6719,31.8438 L151.1406,31.8438 L151.1406,23.7656 L148.6719,23.7656 Z " fill="#000000"/><text fill="#000000" font-family="sans-serif" font-size="14" font-style="italic" lengthAdjust="spacing" textLength="186" x="166.75" y="32.8467">StagedQuoteUpdateAction</text><line style="stroke:#181818;stroke-width:0.5;" x1="138.75" x2="354.75" y1="44" y2="44"/><text fill="#000000" font-family="sans-serif" font-size="14" lengthAdjust="spacing" textLength="91" x="143.75" y="60.9951">action: String</text></g></a><!--MD5=[5b57fd9ca0e075ffe77f2f862cee2ea8]
class StagedQuoteChangeStagedQuoteStateAction--><a href="StagedQuoteChangeStagedQuoteStateAction.svg" target="_top" title="StagedQuoteChangeStagedQuoteStateAction.svg" xlink:actuate="onRequest" xlink:href="StagedQuoteChangeStagedQuoteStateAction.svg" xlink:show="new" xlink:title="StagedQuoteChangeStagedQuoteStateAction.svg" xlink:type="simple"><g id="elem_StagedQuoteChangeStagedQuoteStateAction"><rect codeLine="15" fill="#F1F1F1" height="72.5938" id="StagedQuoteChangeStagedQuoteStateAction" rx="2.5" ry="2.5" style="stroke:#181818;stroke-width:0.5;" width="350" x="1517.5" y="173.4297"/><ellipse cx="1532.5" cy="189.4297" fill="#B4A7E5" rx="11" ry="11" style="stroke:#181818;stroke-width:1.0;"/><path d="M1528.4219,185.1953 L1528.4219,183.0391 L1535.8125,183.0391 L1535.8125,185.1953 L1533.3438,185.1953 L1533.3438,193.2734 L1535.8125,193.2734 L1535.8125,195.4297 L1528.4219,195.4297 L1528.4219,193.2734 L1530.8906,193.2734 L1530.8906,185.1953 L1528.4219,185.1953 Z " fill="#000000"/><text fill="#000000" font-family="sans-serif" font-size="14" font-style="italic" lengthAdjust="spacing" textLength="318" x="1546.5" y="194.2764">StagedQuoteChangeStagedQuoteStateAction</text><line style="stroke:#181818;stroke-width:0.5;" x1="1518.5" x2="1866.5" y1="205.4297" y2="205.4297"/><text fill="#000000" font-family="sans-serif" font-size="14" lengthAdjust="spacing" textLength="91" x="1523.5" y="222.4248">action: String</text><text fill="#000000" font-family="sans-serif" font-size="14" lengthAdjust="spacing" textLength="132" x="1523.5" y="238.7217">stagedQuoteState:</text><a href="StagedQuoteState.svg" target="_top" title="StagedQuoteState.svg" xlink:actuate="onRequest" xlink:href="StagedQuoteState.svg" xlink:show="new" xlink:title="StagedQuoteState.svg" xlink:type="simple"><text fill="#0000FF" font-family="sans-serif" font-size="14" lengthAdjust="spacing" text-decoration="underline" textLength="128" x="1659.5" y="238.7217">StagedQuoteState</text></a></g></a><!--MD5=[0103eb9045adfb9f53088b4cae0df350]
class StagedQuoteSetCustomFieldAction--><a href="StagedQuoteSetCustomFieldAction.svg" target="_top" title="StagedQuoteSetCustomFieldAction.svg" xlink:actuate="onRequest" xlink:href="StagedQuoteSetCustomFieldAction.svg" xlink:show="new" xlink:title="StagedQuoteSetCustomFieldAction.svg" xlink:type="simple"><g id="elem_StagedQuoteSetCustomFieldAction"><rect codeLine="19" fill="#F1F1F1" height="88.8906" id="StagedQuoteSetCustomFieldAction" rx="2.5" ry="2.5" style="stroke:#181818;stroke-width:0.5;" width="276" x="1887.5" y="173.4297"/><ellipse cx="1902.5" cy="189.4297" fill="#B4A7E5" rx="11" ry="11" style="stroke:#181818;stroke-width:1.0;"/><path d="M1898.4219,185.1953 L1898.4219,183.0391 L1905.8125,183.0391 L1905.8125,185.1953 L1903.3438,185.1953 L1903.3438,193.2734 L1905.8125,193.2734 L1905.8125,195.4297 L1898.4219,195.4297 L1898.4219,193.2734 L1900.8906,193.2734 L1900.8906,185.1953 L1898.4219,185.1953 Z " fill="#000000"/><text fill="#000000" font-family="sans-serif" font-size="14" font-style="italic" lengthAdjust="spacing" textLength="244" x="1916.5" y="194.2764">StagedQuoteSetCustomFieldAction</text><line style="stroke:#181818;stroke-width:0.5;" x1="1888.5" x2="2162.5" y1="205.4297" y2="205.4297"/><text fill="#000000" font-family="sans-serif" font-size="14" lengthAdjust="spacing" textLength="91" x="1893.5" y="222.4248">action: String</text><text fill="#000000" font-family="sans-serif" font-size="14" lengthAdjust="spacing" textLength="88" x="1893.5" y="238.7217">name: String</text><text fill="#000000" font-family="sans-serif" font-size="14" lengthAdjust="spacing" textLength="41" x="1893.5" y="255.0186">value:</text><a href="Object.svg" target="_top" title="Object.svg" xlink:actuate="onRequest" xlink:href="Object.svg" xlink:show="new" xlink:title="Object.svg" xlink:type="simple"><text fill="#0000FF" font-family="sans-serif" font-size="14" lengthAdjust="spacing" text-decoration="underline" textLength="45" x="1938.5" y="255.0186">Object</text></a></g></a><!--MD5=[8e114ca32d6bfcead3057fc7920d5a6e]
class StagedQuoteSetCustomTypeAction--><a href="StagedQuoteSetCustomTypeAction.svg" target="_top" title="StagedQuoteSetCustomTypeAction.svg" xlink:actuate="onRequest" xlink:href="StagedQuoteSetCustomTypeAction.svg" xlink:show="new" xlink:title="StagedQuoteSetCustomTypeAction.svg" xlink:type="simple"><g id="elem_StagedQuoteSetCustomTypeAction"><rect codeLine="24" fill="#F1F1F1" height="88.8906" id="StagedQuoteSetCustomTypeAction" rx="2.5" ry="2.5" style="stroke:#181818;stroke-width:0.5;" width="279" x="25.5" y="173.4297"/><ellipse cx="40.5" cy="189.4297" fill="#B4A7E5" rx="11" ry="11" style="stroke:#181818;stroke-width:1.0;"/><path d="M36.4219,185.1953 L36.4219,183.0391 L43.8125,183.0391 L43.8125,185.1953 L41.3438,185.1953 L41.3438,193.2734 L43.8125,193.2734 L43.8125,195.4297 L36.4219,195.4297 L36.4219,193.2734 L38.8906,193.2734 L38.8906,185.1953 L36.4219,185.1953 Z " fill="#000000"/><text fill="#000000" font-family="sans-serif" font-size="14" font-style="italic" lengthAdjust="spacing" textLength="247" x="54.5" y="194.2764">StagedQuoteSetCustomTypeAction</text><line style="stroke:#181818;stroke-width:0.5;" x1="26.5" x2="303.5" y1="205.4297" y2="205.4297"/><text fill="#000000" font-family="sans-serif" font-size="14" lengthAdjust="spacing" textLength="91" x="31.5" y="222.4248">action: String</text><text fill="#000000" font-family="sans-serif" font-size="14" lengthAdjust="spacing" textLength="35" x="31.5" y="238.7217">type:</text><a href="TypeResourceIdentifier.svg" target="_top" title="TypeResourceIdentifier.svg" xlink:actuate="onRequest" xlink:href="TypeResourceIdentifier.svg" xlink:show="new" xlink:title="TypeResourceIdentifier.svg" xlink:type="simple"><text fill="#0000FF" font-family="sans-serif" font-size="14" lengthAdjust="spacing" text-decoration="underline" textLength="160" x="70.5" y="238.7217">TypeResourceIdentifier</text></a><text fill="#000000" font-family="sans-serif" font-size="14" lengthAdjust="spacing" textLength="41" x="31.5" y="255.0186">fields:</text><a href="FieldContainer.svg" target="_top" title="FieldContainer.svg" xlink:actuate="onRequest" xlink:href="FieldContainer.svg" xlink:show="new" xlink:title="FieldContainer.svg" xlink:type="simple"><text fill="#0000FF" font-family="sans-serif" font-size="14" lengthAdjust="spacing" text-decoration="underline" textLength="99" x="76.5" y="255.0186">FieldContainer</text></a></g></a><!--MD5=[5c2fcecc19b84dbf14de503d5c88846f]
class StagedQuoteSetSellerCommentAction--><a href="StagedQuoteSetSellerCommentAction.svg" target="_top" title="StagedQuoteSetSellerCommentAction.svg" xlink:actuate="onRequest" xlink:href="StagedQuoteSetSellerCommentAction.svg" xlink:show="new" xlink:title="StagedQuoteSetSellerCommentAction.svg" xlink:type="simple"><g id="elem_StagedQuoteSetSellerCommentAction"><rect codeLine="29" fill="#F1F1F1" height="72.5938" id="StagedQuoteSetSellerCommentAction" rx="2.5" ry="2.5" style="stroke:#181818;stroke-width:0.5;" width="297" x="324.5" y="173.4297"/><ellipse cx="339.5" cy="189.4297" fill="#B4A7E5" rx="11" ry="11" style="stroke:#181818;stroke-width:1.0;"/><path d="M335.4219,185.1953 L335.4219,183.0391 L342.8125,183.0391 L342.8125,185.1953 L340.3438,185.1953 L340.3438,193.2734 L342.8125,193.2734 L342.8125,195.4297 L335.4219,195.4297 L335.4219,193.2734 L337.8906,193.2734 L337.8906,185.1953 L335.4219,185.1953 Z " fill="#000000"/><text fill="#000000" font-family="sans-serif" font-size="14" font-style="italic" lengthAdjust="spacing" textLength="265" x="353.5" y="194.2764">StagedQuoteSetSellerCommentAction</text><line style="stroke:#181818;stroke-width:0.5;" x1="325.5" x2="620.5" y1="205.4297" y2="205.4297"/><text fill="#000000" font-family="sans-serif" font-size="14" lengthAdjust="spacing" textLength="91" x="330.5" y="222.4248">action: String</text><text fill="#000000" font-family="sans-serif" font-size="14" lengthAdjust="spacing" textLength="154" x="330.5" y="238.7217">sellerComment: String</text></g></a><!--MD5=[705f17d66be1fc68a23abc03518572ba]
class StagedQuoteSetValidToAction--><a href="StagedQuoteSetValidToAction.svg" target="_top" title="StagedQuoteSetValidToAction.svg" xlink:actuate="onRequest" xlink:href="StagedQuoteSetValidToAction.svg" xlink:show="new" xlink:title="StagedQuoteSetValidToAction.svg" xlink:type="simple"><g id="elem_StagedQuoteSetValidToAction"><rect codeLine="33" fill="#F1F1F1" height="72.5938" id="StagedQuoteSetValidToAction" rx="2.5" ry="2.5" style="stroke:#181818;stroke-width:0.5;" width="242" x="964.5" y="173.4297"/><ellipse cx="979.5" cy="189.4297" fill="#B4A7E5" rx="11" ry="11" style="stroke:#181818;stroke-width:1.0;"/><path d="M975.4219,185.1953 L975.4219,183.0391 L982.8125,183.0391 L982.8125,185.1953 L980.3438,185.1953 L980.3438,193.2734 L982.8125,193.2734 L982.8125,195.4297 L975.4219,195.4297 L975.4219,193.2734 L977.8906,193.2734 L977.8906,185.1953 L975.4219,185.1953 Z " fill="#000000"/><text fill="#000000" font-family="sans-serif" font-size="14" font-style="italic" lengthAdjust="spacing" textLength="210" x="993.5" y="194.2764">StagedQuoteSetValidToAction</text><line style="stroke:#181818;stroke-width:0.5;" x1="965.5" x2="1205.5" y1="205.4297" y2="205.4297"/><text fill="#000000" font-family="sans-serif" font-size="14" lengthAdjust="spacing" textLength="91" x="970.5" y="222.4248">action: String</text><text fill="#000000" font-family="sans-serif" font-size="14" lengthAdjust="spacing" textLength="124" x="970.5" y="238.7217">validTo: DateTime</text></g></a><!--MD5=[cd63b1e9db9afc89d61d19940743e88f]
class StagedQuoteTransitionStateAction--><a href="StagedQuoteTransitionStateAction.svg" target="_top" title="StagedQuoteTransitionStateAction.svg" xlink:actuate="onRequest" xlink:href="StagedQuoteTransitionStateAction.svg" xlink:show="new" xlink:title="StagedQuoteTransitionStateAction.svg" xlink:type="simple"><g id="elem_StagedQuoteTransitionStateAction"><rect codeLine="37" fill="#F1F1F1" height="88.8906" id="StagedQuoteTransitionStateAction" rx="2.5" ry="2.5" style="stroke:#181818;stroke-width:0.5;" width="271" x="1226.5" y="173.4297"/><ellipse cx="1241.5" cy="189.4297" fill="#B4A7E5" rx="11" ry="11" style="stroke:#181818;stroke-width:1.0;"/><path d="M1237.4219,185.1953 L1237.4219,183.0391 L1244.8125,183.0391 L1244.8125,185.1953 L1242.3438,185.1953 L1242.3438,193.2734 L1244.8125,193.2734 L1244.8125,195.4297 L1237.4219,195.4297 L1237.4219,193.2734 L1239.8906,193.2734 L1239.8906,185.1953 L1237.4219,185.1953 Z " fill="#000000"/><text fill="#000000" font-family="sans-serif" font-size="14" font-style="italic" lengthAdjust="spacing" textLength="239" x="1255.5" y="194.2764">StagedQuoteTransitionStateAction</text><line style="stroke:#181818;stroke-width:0.5;" x1="1227.5" x2="1496.5" y1="205.4297" y2="205.4297"/><text fill="#000000" font-family="sans-serif" font-size="14" lengthAdjust="spacing" textLength="91" x="1232.5" y="222.4248">action: String</text><text fill="#000000" font-family="sans-serif" font-size="14" lengthAdjust="spacing" textLength="40" x="1232.5" y="238.7217">state:</text><a href="StateResourceIdentifier.svg" target="_top" title="StateResourceIdentifier.svg" xlink:actuate="onRequest" xlink:href="StateResourceIdentifier.svg" xlink:show="new" xlink:title="StateResourceIdentifier.svg" xlink:type="simple"><text fill="#0000FF" font-family="sans-serif" font-size="14" lengthAdjust="spacing" text-decoration="underline" textLength="162" x="1276.5" y="238.7217">StateResourceIdentifier</text></a><text fill="#000000" font-family="sans-serif" font-size="14" lengthAdjust="spacing" textLength="101" x="1232.5" y="255.0186">force: Boolean</text></g></a><!--MD5=[c8294e985a6062b1a3a48c0fea50b472]
class StagedQuoteUpdate--><a href="StagedQuoteUpdate.svg" target="_top" title="StagedQuoteUpdate.svg" xlink:actuate="onRequest" xlink:href="StagedQuoteUpdate.svg" xlink:show="new" xlink:title="StagedQuoteUpdate.svg" xlink:type="simple"><g id="elem_StagedQuoteUpdate"><rect codeLine="42" fill="#F1F1F1" height="72.5938" id="StagedQuoteUpdate" rx="2.5" ry="2.5" style="stroke:#181818;stroke-width:0.5;" width="303" x="641.5" y="173.4297"/><ellipse cx="717.75" cy="189.4297" fill="#B4A7E5" rx="11" ry="11" style="stroke:#181818;stroke-width:1.0;"/><path d="M713.6719,185.1953 L713.6719,183.0391 L721.0625,183.0391 L721.0625,185.1953 L718.5938,185.1953 L718.5938,193.2734 L721.0625,193.2734 L721.0625,195.4297 L713.6719,195.4297 L713.6719,193.2734 L716.1406,193.2734 L716.1406,185.1953 L713.6719,185.1953 Z " fill="#000000"/><text fill="#000000" font-family="sans-serif" font-size="14" font-style="italic" lengthAdjust="spacing" textLength="142" x="738.25" y="194.2764">StagedQuoteUpdate</text><line style="stroke:#181818;stroke-width:0.5;" x1="642.5" x2="943.5" y1="205.4297" y2="205.4297"/><text fill="#000000" font-family="sans-serif" font-size="14" lengthAdjust="spacing" textLength="93" x="647.5" y="222.4248">version: Long</text><text fill="#000000" font-family="sans-serif" font-size="14" lengthAdjust="spacing" textLength="55" x="647.5" y="238.7217">actions:</text><a href="StagedQuoteUpdateAction.svg" target="_top" title="StagedQuoteUpdateAction.svg" xlink:actuate="onRequest" xlink:href="StagedQuoteUpdateAction.svg" xlink:show="new" xlink:title="StagedQuoteUpdateAction.svg" xlink:type="simple"><text fill="#0000FF" font-family="sans-serif" font-size="14" lengthAdjust="spacing" text-decoration="underline" textLength="232" x="706.5" y="238.7217">List&lt;StagedQuoteUpdateAction&gt;</text></a></g></a><line style="stroke:#0000FF;stroke-width:1.0;" x1="301.25" x2="301.25" y1="68.2969" y2="88.2969"/><line style="stroke:#0000FF;stroke-width:1.0;" x1="301.25" x2="1692.5" y1="88.2969" y2="88.2969"/><line style="stroke:#0000FF;stroke-width:1.0;" x1="1692.5" x2="1692.5" y1="88.2969" y2="173.4297"/><polygon fill="#0000FF" points="1692.5,173.4297,1696.5,164.4297,1692.5,168.4297,1688.5,164.4297,1692.5,173.4297" style="stroke:#0000FF;stroke-width:1.0;"/><text fill="#000000" font-family="sans-serif" font-size="13" lengthAdjust="spacing" textLength="218" x="1472.5" y="150.3638">action : changeStagedQuoteState</text><line style="stroke:#0000FF;stroke-width:1.0;" x1="328.5" x2="328.5" y1="68.2969" y2="78.2969"/><line style="stroke:#0000FF;stroke-width:1.0;" x1="328.5" x2="2025.5" y1="78.2969" y2="78.2969"/><line style="stroke:#0000FF;stroke-width:1.0;" x1="2025.5" x2="2025.5" y1="78.2969" y2="173.4297"/><polygon fill="#0000FF" points="2025.5,173.4297,2029.5,164.4297,2025.5,168.4297,2021.5,164.4297,2025.5,173.4297" style="stroke:#0000FF;stroke-width:1.0;"/><text fill="#000000" font-family="sans-serif" font-size="13" lengthAdjust="spacing" textLength="150" x="1873.5" y="150.3638">action : setCustomField</text><line style="stroke:#0000FF;stroke-width:1.0;" x1="165" x2="165" y1="68.2969" y2="173.4297"/><polygon fill="#0000FF" points="165,173.4297,169,164.4297,165,168.4297,161,164.4297,165,173.4297" style="stroke:#0000FF;stroke-width:1.0;"/><text fill="#000000" font-family="sans-serif" font-size="13" lengthAdjust="spacing" textLength="151" x="12" y="150.3638">action : setCustomType</text><line style="stroke:#0000FF;stroke-width:1.0;" x1="192.25" x2="192.25" y1="68.2969" y2="128.2969"/><line style="stroke:#0000FF;stroke-width:1.0;" x1="192.25" x2="473" y1="128.2969" y2="128.2969"/><line style="stroke:#0000FF;stroke-width:1.0;" x1="473" x2="473" y1="128.2969" y2="173.4297"/><polygon fill="#0000FF" points="473,173.4297,477,164.4297,473,168.4297,469,164.4297,473,173.4297" style="stroke:#0000FF;stroke-width:1.0;"/><text fill="#000000" font-family="sans-serif" font-size="13" lengthAdjust="spacing" textLength="171" x="300" y="150.3638">action : setSellerComment</text><line style="stroke:#0000FF;stroke-width:1.0;" x1="246.75" x2="246.75" y1="68.2969" y2="108.2969"/><line style="stroke:#0000FF;stroke-width:1.0;" x1="246.75" x2="1085.5" y1="108.2969" y2="108.2969"/><line style="stroke:#0000FF;stroke-width:1.0;" x1="1085.5" x2="1085.5" y1="108.2969" y2="173.4297"/><polygon fill="#0000FF" points="1085.5,173.4297,1089.5,164.4297,1085.5,168.4297,1081.5,164.4297,1085.5,173.4297" style="stroke:#0000FF;stroke-width:1.0;"/><text fill="#000000" font-family="sans-serif" font-size="13" lengthAdjust="spacing" textLength="117" x="966.5" y="150.3638">action : setValidTo</text><line style="stroke:#0000FF;stroke-width:1.0;" x1="274" x2="274" y1="68.2969" y2="98.2969"/><line style="stroke:#0000FF;stroke-width:1.0;" x1="274" x2="1362" y1="98.2969" y2="98.2969"/><line style="stroke:#0000FF;stroke-width:1.0;" x1="1362" x2="1362" y1="98.2969" y2="173.4297"/><polygon fill="#0000FF" points="1362,173.4297,1366,164.4297,1362,168.4297,1358,164.4297,1362,173.4297" style="stroke:#0000FF;stroke-width:1.0;"/><text fill="#000000" font-family="sans-serif" font-size="13" lengthAdjust="spacing" textLength="146" x="1214" y="150.3638">action : transitionState</text><line style="stroke:#008000;stroke-width:1.0;" x1="219.5" x2="219.5" y1="68.2969" y2="118.2969"/><line style="stroke:#008000;stroke-width:1.0;" x1="219.5" x2="793" y1="118.2969" y2="118.2969"/><line style="stroke:#008000;stroke-width:1.0;" x1="793" x2="793" y1="118.2969" y2="173.4297"/><polygon fill="#008000" points="793,173.4297,797,164.4297,793,168.4297,789,164.4297,793,173.4297" style="stroke:#008000;stroke-width:1.0;"/><text fill="#000000" font-family="sans-serif" font-size="13" lengthAdjust="spacing" textLength="46" x="745" y="150.3638">actions</text><rect fill="#DDDDDD" height="79.1875" id="_legend" rx="7.5" ry="7.5" style="stroke:#000000;stroke-width:1.0;" width="161" x="994.75" y="263.3203"/><text fill="#000000" font-family="sans-serif" font-size="14" font-weight="bold" lengthAdjust="spacing" textLength="5" x="999.75" y="283.3154"> </text><text fill="#000000" font-family="sans-serif" font-size="14" font-weight="bold" lengthAdjust="spacing" textLength="28" x="1016.75" y="283.3154">line</text><text fill="#000000" filter="url(#bbczsav24cb1s0)" font-family="sans-serif" font-size="14" lengthAdjust="spacing" textLength="12" x="999.75" y="299.6123">   </text><text fill="#000000" font-family="sans-serif" font-size="14" lengthAdjust="spacing" textLength="77" x="1015.75" y="299.6123">inheritance</text><text fill="#000000" filter="url(#bbczsav24cb1s1)" font-family="sans-serif" font-size="14" lengthAdjust="spacing" textLength="12" x="999.75" y="315.9092">   </text><text fill="#000000" font-family="sans-serif" font-size="14" lengthAdjust="spacing" textLength="129" x="1015.75" y="315.9092">property reference</text><text fill="#000000" filter="url(#bbczsav24cb1s2)" font-family="sans-serif" font-size="14" lengthAdjust="spacing" textLength="12" x="999.75" y="332.2061">   </text><text fill="#000000" font-family="sans-serif" font-size="14" lengthAdjust="spacing" textLength="131" x="1015.75" y="332.2061">discriminated class</text><line style="stroke:#000000;stroke-width:1.0;" x1="999.75" x2="1150.75" y1="270.3203" y2="270.3203"/><line style="stroke:#000000;stroke-width:1.0;" x1="999.75" x2="1150.75" y1="286.6172" y2="286.6172"/><line style="stroke:#000000;stroke-width:1.0;" x1="999.75" x2="1150.75" y1="302.9141" y2="302.9141"/><line style="stroke:#000000;stroke-width:1.0;" x1="999.75" x2="1150.75" y1="319.2109" y2="319.2109"/><line style="stroke:#000000;stroke-width:1.0;" x1="999.75" x2="1150.75" y1="335.5078" y2="335.5078"/><line style="stroke:#000000;stroke-width:1.0;" x1="999.75" x2="999.75" y1="270.3203" y2="335.5078"/><line style="stroke:#000000;stroke-width:1.0;" x1="1011.75" x2="1011.75" y1="270.3203" y2="335.5078"/><line style="stroke:#000000;stroke-width:1.0;" x1="1150.75" x2="1150.75" y1="270.3203" y2="335.5078"/><!--MD5=[9e49ad7eca68a7425dcaaea5d9cfb212]
@startuml
!pragma layout elk
hide empty fields
hide empty methods
legend
|= |= line |
|<back:black>   </back>| inheritance |
|<back:green>   </back>| property reference |
|<back:blue>   </back>| discriminated class |
endlegend
interface StagedQuoteUpdateAction [[StagedQuoteUpdateAction.svg]]  {
    action: String
}


interface StagedQuoteChangeStagedQuoteStateAction [[StagedQuoteChangeStagedQuoteStateAction.svg]]  {
    action: String
    stagedQuoteState: [[StagedQuoteState.svg StagedQuoteState]]
}
interface StagedQuoteSetCustomFieldAction [[StagedQuoteSetCustomFieldAction.svg]]  {
    action: String
    name: String
    value: [[Object.svg Object]]
}
interface StagedQuoteSetCustomTypeAction [[StagedQuoteSetCustomTypeAction.svg]]  {
    action: String
    type: [[TypeResourceIdentifier.svg TypeResourceIdentifier]]
    fields: [[FieldContainer.svg FieldContainer]]
}
interface StagedQuoteSetSellerCommentAction [[StagedQuoteSetSellerCommentAction.svg]]  {
    action: String
    sellerComment: String
}
interface StagedQuoteSetValidToAction [[StagedQuoteSetValidToAction.svg]]  {
    action: String
    validTo: DateTime
}
interface StagedQuoteTransitionStateAction [[StagedQuoteTransitionStateAction.svg]]  {
    action: String
    state: [[StateResourceIdentifier.svg StateResourceIdentifier]]
    force: Boolean
}
interface StagedQuoteUpdate [[StagedQuoteUpdate.svg]]  {
    version: Long
    actions: [[StagedQuoteUpdateAction.svg List<StagedQuoteUpdateAction>]]
}
StagedQuoteUpdateAction - -> StagedQuoteChangeStagedQuoteStateAction #blue;text:blue : "action : changeStagedQuoteState"
StagedQuoteUpdateAction - -> StagedQuoteSetCustomFieldAction #blue;text:blue : "action : setCustomField"
StagedQuoteUpdateAction - -> StagedQuoteSetCustomTypeAction #blue;text:blue : "action : setCustomType"
StagedQuoteUpdateAction - -> StagedQuoteSetSellerCommentAction #blue;text:blue : "action : setSellerComment"
StagedQuoteUpdateAction - -> StagedQuoteSetValidToAction #blue;text:blue : "action : setValidTo"
StagedQuoteUpdateAction - -> StagedQuoteTransitionStateAction #blue;text:blue : "action : transitionState"
StagedQuoteUpdateAction - -> StagedQuoteUpdate #green;text:green : "actions"
@enduml

PlantUML version 1.2022.13(Sat Nov 19 13:22:17 UTC 2022)
(GPL source distribution)
Java Runtime: OpenJDK Runtime Environment
JVM: OpenJDK 64-Bit Server VM
Default Encoding: UTF-8
Language: en
Country: null
--></g></svg>
