<?xml version="1.0" encoding="UTF-8" standalone="no"?><svg xmlns="http://www.w3.org/2000/svg" xmlns:xlink="http://www.w3.org/1999/xlink" contentStyleType="text/css" height="432px" preserveAspectRatio="none" style="width:4394px;height:432px;background:#FFFFFF;" version="1.1" viewBox="0 0 4394 432" width="4394px" zoomAndPan="magnify"><defs><filter height="1" id="bd0c3qfg0j8560" width="1" x="0" y="0"><feFlood flood-color="#000000" result="flood"/><feComposite in="SourceGraphic" in2="flood" operator="over"/></filter><filter height="1" id="bd0c3qfg0j8561" width="1" x="0" y="0"><feFlood flood-color="#008000" result="flood"/><feComposite in="SourceGraphic" in2="flood" operator="over"/></filter><filter height="1" id="bd0c3qfg0j8562" width="1" x="0" y="0"><feFlood flood-color="#0000FF" result="flood"/><feComposite in="SourceGraphic" in2="flood" operator="over"/></filter></defs><g><!--MD5=[8b302e1e28adb6549a168d71e2898950]
class StandalonePriceUpdateAction--><a href="StandalonePriceUpdateAction.svg" target="_top" title="StandalonePriceUpdateAction.svg" xlink:actuate="onRequest" xlink:href="StandalonePriceUpdateAction.svg" xlink:show="new" xlink:title="StandalonePriceUpdateAction.svg" xlink:type="simple"><g id="elem_StandalonePriceUpdateAction"><rect codeLine="10" fill="#F1F1F1" height="56.2969" id="StandalonePriceUpdateAction" rx="2.5" ry="2.5" style="stroke:#181818;stroke-width:0.5;" width="237" x="138.2" y="12"/><ellipse cx="153.2" cy="28" fill="#B4A7E5" rx="11" ry="11" style="stroke:#181818;stroke-width:1.0;"/><path d="M149.1219,23.7656 L149.1219,21.6094 L156.5125,21.6094 L156.5125,23.7656 L154.0438,23.7656 L154.0438,31.8438 L156.5125,31.8438 L156.5125,34 L149.1219,34 L149.1219,31.8438 L151.5906,31.8438 L151.5906,23.7656 L149.1219,23.7656 Z " fill="#000000"/><text fill="#000000" font-family="sans-serif" font-size="14" font-style="italic" lengthAdjust="spacing" textLength="205" x="167.2" y="32.8467">StandalonePriceUpdateAction</text><line style="stroke:#181818;stroke-width:0.5;" x1="139.2" x2="374.2" y1="44" y2="44"/><text fill="#000000" font-family="sans-serif" font-size="14" lengthAdjust="spacing" textLength="91" x="144.2" y="60.9951">action: String</text></g></a><!--MD5=[a8b95ebb0f41c1795a321e3b8b09aee9]
class StandalonePriceAddPriceTierAction--><a href="StandalonePriceAddPriceTierAction.svg" target="_top" title="StandalonePriceAddPriceTierAction.svg" xlink:actuate="onRequest" xlink:href="StandalonePriceAddPriceTierAction.svg" xlink:show="new" xlink:title="StandalonePriceAddPriceTierAction.svg" xlink:type="simple"><g id="elem_StandalonePriceAddPriceTierAction"><rect codeLine="15" fill="#F1F1F1" height="72.5938" id="StandalonePriceAddPriceTierAction" rx="2.5" ry="2.5" style="stroke:#181818;stroke-width:0.5;" width="274" x="3757" y="243.4297"/><ellipse cx="3772" cy="259.4297" fill="#B4A7E5" rx="11" ry="11" style="stroke:#181818;stroke-width:1.0;"/><path d="M3767.9219,255.1953 L3767.9219,253.0391 L3775.3125,253.0391 L3775.3125,255.1953 L3772.8438,255.1953 L3772.8438,263.2734 L3775.3125,263.2734 L3775.3125,265.4297 L3767.9219,265.4297 L3767.9219,263.2734 L3770.3906,263.2734 L3770.3906,255.1953 L3767.9219,255.1953 Z " fill="#000000"/><text fill="#000000" font-family="sans-serif" font-size="14" font-style="italic" lengthAdjust="spacing" textLength="242" x="3786" y="264.2764">StandalonePriceAddPriceTierAction</text><line style="stroke:#181818;stroke-width:0.5;" x1="3758" x2="4030" y1="275.4297" y2="275.4297"/><text fill="#000000" font-family="sans-serif" font-size="14" lengthAdjust="spacing" textLength="91" x="3763" y="292.4248">action: String</text><text fill="#000000" font-family="sans-serif" font-size="14" lengthAdjust="spacing" textLength="27" x="3763" y="308.7217">tier:</text><a href="PriceTierDraft.svg" target="_top" title="PriceTierDraft.svg" xlink:actuate="onRequest" xlink:href="PriceTierDraft.svg" xlink:show="new" xlink:title="PriceTierDraft.svg" xlink:type="simple"><text fill="#0000FF" font-family="sans-serif" font-size="14" lengthAdjust="spacing" text-decoration="underline" textLength="93" x="3794" y="308.7217">PriceTierDraft</text></a></g></a><!--MD5=[ac0b9440fcb55a02f191935a6c45aef8]
class StandalonePriceApplyStagedChangesAction--><a href="StandalonePriceApplyStagedChangesAction.svg" target="_top" title="StandalonePriceApplyStagedChangesAction.svg" xlink:actuate="onRequest" xlink:href="StandalonePriceApplyStagedChangesAction.svg" xlink:show="new" xlink:title="StandalonePriceApplyStagedChangesAction.svg" xlink:type="simple"><g id="elem_StandalonePriceApplyStagedChangesAction"><rect codeLine="19" fill="#F1F1F1" height="56.2969" id="StandalonePriceApplyStagedChangesAction" rx="2.5" ry="2.5" style="stroke:#181818;stroke-width:0.5;" width="336" x="4051" y="243.4297"/><ellipse cx="4066" cy="259.4297" fill="#B4A7E5" rx="11" ry="11" style="stroke:#181818;stroke-width:1.0;"/><path d="M4061.9219,255.1953 L4061.9219,253.0391 L4069.3125,253.0391 L4069.3125,255.1953 L4066.8438,255.1953 L4066.8438,263.2734 L4069.3125,263.2734 L4069.3125,265.4297 L4061.9219,265.4297 L4061.9219,263.2734 L4064.3906,263.2734 L4064.3906,255.1953 L4061.9219,255.1953 Z " fill="#000000"/><text fill="#000000" font-family="sans-serif" font-size="14" font-style="italic" lengthAdjust="spacing" textLength="304" x="4080" y="264.2764">StandalonePriceApplyStagedChangesAction</text><line style="stroke:#181818;stroke-width:0.5;" x1="4052" x2="4386" y1="275.4297" y2="275.4297"/><text fill="#000000" font-family="sans-serif" font-size="14" lengthAdjust="spacing" textLength="91" x="4057" y="292.4248">action: String</text></g></a><!--MD5=[df1f6762f35366cc6ac2946f2b2f3788]
class StandalonePriceChangeActiveAction--><a href="StandalonePriceChangeActiveAction.svg" target="_top" title="StandalonePriceChangeActiveAction.svg" xlink:actuate="onRequest" xlink:href="StandalonePriceChangeActiveAction.svg" xlink:show="new" xlink:title="StandalonePriceChangeActiveAction.svg" xlink:type="simple"><g id="elem_StandalonePriceChangeActiveAction"><rect codeLine="22" fill="#F1F1F1" height="72.5938" id="StandalonePriceChangeActiveAction" rx="2.5" ry="2.5" style="stroke:#181818;stroke-width:0.5;" width="284" x="12" y="243.4297"/><ellipse cx="27" cy="259.4297" fill="#B4A7E5" rx="11" ry="11" style="stroke:#181818;stroke-width:1.0;"/><path d="M22.9219,255.1953 L22.9219,253.0391 L30.3125,253.0391 L30.3125,255.1953 L27.8438,255.1953 L27.8438,263.2734 L30.3125,263.2734 L30.3125,265.4297 L22.9219,265.4297 L22.9219,263.2734 L25.3906,263.2734 L25.3906,255.1953 L22.9219,255.1953 Z " fill="#000000"/><text fill="#000000" font-family="sans-serif" font-size="14" font-style="italic" lengthAdjust="spacing" textLength="252" x="41" y="264.2764">StandalonePriceChangeActiveAction</text><line style="stroke:#181818;stroke-width:0.5;" x1="13" x2="295" y1="275.4297" y2="275.4297"/><text fill="#000000" font-family="sans-serif" font-size="14" lengthAdjust="spacing" textLength="91" x="18" y="292.4248">action: String</text><text fill="#000000" font-family="sans-serif" font-size="14" lengthAdjust="spacing" textLength="106" x="18" y="308.7217">active: Boolean</text></g></a><!--MD5=[fcda81860b20bc0ad7aa740916a39b48]
class StandalonePriceChangeValueAction--><a href="StandalonePriceChangeValueAction.svg" target="_top" title="StandalonePriceChangeValueAction.svg" xlink:actuate="onRequest" xlink:href="StandalonePriceChangeValueAction.svg" xlink:show="new" xlink:title="StandalonePriceChangeValueAction.svg" xlink:type="simple"><g id="elem_StandalonePriceChangeValueAction"><rect codeLine="26" fill="#F1F1F1" height="88.8906" id="StandalonePriceChangeValueAction" rx="2.5" ry="2.5" style="stroke:#181818;stroke-width:0.5;" width="280" x="1252" y="243.4297"/><ellipse cx="1267" cy="259.4297" fill="#B4A7E5" rx="11" ry="11" style="stroke:#181818;stroke-width:1.0;"/><path d="M1262.9219,255.1953 L1262.9219,253.0391 L1270.3125,253.0391 L1270.3125,255.1953 L1267.8438,255.1953 L1267.8438,263.2734 L1270.3125,263.2734 L1270.3125,265.4297 L1262.9219,265.4297 L1262.9219,263.2734 L1265.3906,263.2734 L1265.3906,255.1953 L1262.9219,255.1953 Z " fill="#000000"/><text fill="#000000" font-family="sans-serif" font-size="14" font-style="italic" lengthAdjust="spacing" textLength="248" x="1281" y="264.2764">StandalonePriceChangeValueAction</text><line style="stroke:#181818;stroke-width:0.5;" x1="1253" x2="1531" y1="275.4297" y2="275.4297"/><text fill="#000000" font-family="sans-serif" font-size="14" lengthAdjust="spacing" textLength="91" x="1258" y="292.4248">action: String</text><text fill="#000000" font-family="sans-serif" font-size="14" lengthAdjust="spacing" textLength="41" x="1258" y="308.7217">value:</text><a href="Money.svg" target="_top" title="Money.svg" xlink:actuate="onRequest" xlink:href="Money.svg" xlink:show="new" xlink:title="Money.svg" xlink:type="simple"><text fill="#0000FF" font-family="sans-serif" font-size="14" lengthAdjust="spacing" text-decoration="underline" textLength="46" x="1303" y="308.7217">Money</text></a><text fill="#000000" font-family="sans-serif" font-size="14" lengthAdjust="spacing" textLength="114" x="1258" y="325.0186">staged: Boolean</text></g></a><!--MD5=[d57a76e771a4fad06108871ebd787505]
class StandalonePriceRemovePriceTierAction--><a href="StandalonePriceRemovePriceTierAction.svg" target="_top" title="StandalonePriceRemovePriceTierAction.svg" xlink:actuate="onRequest" xlink:href="StandalonePriceRemovePriceTierAction.svg" xlink:show="new" xlink:title="StandalonePriceRemovePriceTierAction.svg" xlink:type="simple"><g id="elem_StandalonePriceRemovePriceTierAction"><rect codeLine="31" fill="#F1F1F1" height="72.5938" id="StandalonePriceRemovePriceTierAction" rx="2.5" ry="2.5" style="stroke:#181818;stroke-width:0.5;" width="304" x="3118" y="243.4297"/><ellipse cx="3133" cy="259.4297" fill="#B4A7E5" rx="11" ry="11" style="stroke:#181818;stroke-width:1.0;"/><path d="M3128.9219,255.1953 L3128.9219,253.0391 L3136.3125,253.0391 L3136.3125,255.1953 L3133.8438,255.1953 L3133.8438,263.2734 L3136.3125,263.2734 L3136.3125,265.4297 L3128.9219,265.4297 L3128.9219,263.2734 L3131.3906,263.2734 L3131.3906,255.1953 L3128.9219,255.1953 Z " fill="#000000"/><text fill="#000000" font-family="sans-serif" font-size="14" font-style="italic" lengthAdjust="spacing" textLength="272" x="3147" y="264.2764">StandalonePriceRemovePriceTierAction</text><line style="stroke:#181818;stroke-width:0.5;" x1="3119" x2="3421" y1="275.4297" y2="275.4297"/><text fill="#000000" font-family="sans-serif" font-size="14" lengthAdjust="spacing" textLength="91" x="3124" y="292.4248">action: String</text><text fill="#000000" font-family="sans-serif" font-size="14" lengthAdjust="spacing" textLength="184" x="3124" y="308.7217">tierMinimumQuantity: Long</text></g></a><!--MD5=[01809979955fb5e929ea27c8365e8447]
class StandalonePriceSetCustomFieldAction--><a href="StandalonePriceSetCustomFieldAction.svg" target="_top" title="StandalonePriceSetCustomFieldAction.svg" xlink:actuate="onRequest" xlink:href="StandalonePriceSetCustomFieldAction.svg" xlink:show="new" xlink:title="StandalonePriceSetCustomFieldAction.svg" xlink:type="simple"><g id="elem_StandalonePriceSetCustomFieldAction"><rect codeLine="35" fill="#F1F1F1" height="88.8906" id="StandalonePriceSetCustomFieldAction" rx="2.5" ry="2.5" style="stroke:#181818;stroke-width:0.5;" width="295" x="3442" y="243.4297"/><ellipse cx="3457" cy="259.4297" fill="#B4A7E5" rx="11" ry="11" style="stroke:#181818;stroke-width:1.0;"/><path d="M3452.9219,255.1953 L3452.9219,253.0391 L3460.3125,253.0391 L3460.3125,255.1953 L3457.8438,255.1953 L3457.8438,263.2734 L3460.3125,263.2734 L3460.3125,265.4297 L3452.9219,265.4297 L3452.9219,263.2734 L3455.3906,263.2734 L3455.3906,255.1953 L3452.9219,255.1953 Z " fill="#000000"/><text fill="#000000" font-family="sans-serif" font-size="14" font-style="italic" lengthAdjust="spacing" textLength="263" x="3471" y="264.2764">StandalonePriceSetCustomFieldAction</text><line style="stroke:#181818;stroke-width:0.5;" x1="3443" x2="3736" y1="275.4297" y2="275.4297"/><text fill="#000000" font-family="sans-serif" font-size="14" lengthAdjust="spacing" textLength="91" x="3448" y="292.4248">action: String</text><text fill="#000000" font-family="sans-serif" font-size="14" lengthAdjust="spacing" textLength="88" x="3448" y="308.7217">name: String</text><text fill="#000000" font-family="sans-serif" font-size="14" lengthAdjust="spacing" textLength="41" x="3448" y="325.0186">value:</text><a href="Object.svg" target="_top" title="Object.svg" xlink:actuate="onRequest" xlink:href="Object.svg" xlink:show="new" xlink:title="Object.svg" xlink:type="simple"><text fill="#0000FF" font-family="sans-serif" font-size="14" lengthAdjust="spacing" text-decoration="underline" textLength="45" x="3493" y="325.0186">Object</text></a></g></a><!--MD5=[bd2e7396385b0eaa8fea30def5ff64e8]
class StandalonePriceSetCustomTypeAction--><a href="StandalonePriceSetCustomTypeAction.svg" target="_top" title="StandalonePriceSetCustomTypeAction.svg" xlink:actuate="onRequest" xlink:href="StandalonePriceSetCustomTypeAction.svg" xlink:show="new" xlink:title="StandalonePriceSetCustomTypeAction.svg" xlink:type="simple"><g id="elem_StandalonePriceSetCustomTypeAction"><rect codeLine="40" fill="#F1F1F1" height="88.8906" id="StandalonePriceSetCustomTypeAction" rx="2.5" ry="2.5" style="stroke:#181818;stroke-width:0.5;" width="298" x="2800" y="243.4297"/><ellipse cx="2815" cy="259.4297" fill="#B4A7E5" rx="11" ry="11" style="stroke:#181818;stroke-width:1.0;"/><path d="M2810.9219,255.1953 L2810.9219,253.0391 L2818.3125,253.0391 L2818.3125,255.1953 L2815.8438,255.1953 L2815.8438,263.2734 L2818.3125,263.2734 L2818.3125,265.4297 L2810.9219,265.4297 L2810.9219,263.2734 L2813.3906,263.2734 L2813.3906,255.1953 L2810.9219,255.1953 Z " fill="#000000"/><text fill="#000000" font-family="sans-serif" font-size="14" font-style="italic" lengthAdjust="spacing" textLength="266" x="2829" y="264.2764">StandalonePriceSetCustomTypeAction</text><line style="stroke:#181818;stroke-width:0.5;" x1="2801" x2="3097" y1="275.4297" y2="275.4297"/><text fill="#000000" font-family="sans-serif" font-size="14" lengthAdjust="spacing" textLength="91" x="2806" y="292.4248">action: String</text><text fill="#000000" font-family="sans-serif" font-size="14" lengthAdjust="spacing" textLength="35" x="2806" y="308.7217">type:</text><a href="TypeResourceIdentifier.svg" target="_top" title="TypeResourceIdentifier.svg" xlink:actuate="onRequest" xlink:href="TypeResourceIdentifier.svg" xlink:show="new" xlink:title="TypeResourceIdentifier.svg" xlink:type="simple"><text fill="#0000FF" font-family="sans-serif" font-size="14" lengthAdjust="spacing" text-decoration="underline" textLength="160" x="2845" y="308.7217">TypeResourceIdentifier</text></a><text fill="#000000" font-family="sans-serif" font-size="14" lengthAdjust="spacing" textLength="41" x="2806" y="325.0186">fields:</text><a href="FieldContainer.svg" target="_top" title="FieldContainer.svg" xlink:actuate="onRequest" xlink:href="FieldContainer.svg" xlink:show="new" xlink:title="FieldContainer.svg" xlink:type="simple"><text fill="#0000FF" font-family="sans-serif" font-size="14" lengthAdjust="spacing" text-decoration="underline" textLength="99" x="2851" y="325.0186">FieldContainer</text></a></g></a><!--MD5=[00a69fa48ad96c602a389db39fe03a7a]
class StandalonePriceSetDiscountedPriceAction--><a href="StandalonePriceSetDiscountedPriceAction.svg" target="_top" title="StandalonePriceSetDiscountedPriceAction.svg" xlink:actuate="onRequest" xlink:href="StandalonePriceSetDiscountedPriceAction.svg" xlink:show="new" xlink:title="StandalonePriceSetDiscountedPriceAction.svg" xlink:type="simple"><g id="elem_StandalonePriceSetDiscountedPriceAction"><rect codeLine="45" fill="#F1F1F1" height="72.5938" id="StandalonePriceSetDiscountedPriceAction" rx="2.5" ry="2.5" style="stroke:#181818;stroke-width:0.5;" width="322" x="614" y="243.4297"/><ellipse cx="629" cy="259.4297" fill="#B4A7E5" rx="11" ry="11" style="stroke:#181818;stroke-width:1.0;"/><path d="M624.9219,255.1953 L624.9219,253.0391 L632.3125,253.0391 L632.3125,255.1953 L629.8438,255.1953 L629.8438,263.2734 L632.3125,263.2734 L632.3125,265.4297 L624.9219,265.4297 L624.9219,263.2734 L627.3906,263.2734 L627.3906,255.1953 L624.9219,255.1953 Z " fill="#000000"/><text fill="#000000" font-family="sans-serif" font-size="14" font-style="italic" lengthAdjust="spacing" textLength="290" x="643" y="264.2764">StandalonePriceSetDiscountedPriceAction</text><line style="stroke:#181818;stroke-width:0.5;" x1="615" x2="935" y1="275.4297" y2="275.4297"/><text fill="#000000" font-family="sans-serif" font-size="14" lengthAdjust="spacing" textLength="91" x="620" y="292.4248">action: String</text><text fill="#000000" font-family="sans-serif" font-size="14" lengthAdjust="spacing" textLength="83" x="620" y="308.7217">discounted:</text><a href="DiscountedPriceDraft.svg" target="_top" title="DiscountedPriceDraft.svg" xlink:actuate="onRequest" xlink:href="DiscountedPriceDraft.svg" xlink:show="new" xlink:title="DiscountedPriceDraft.svg" xlink:type="simple"><text fill="#0000FF" font-family="sans-serif" font-size="14" lengthAdjust="spacing" text-decoration="underline" textLength="147" x="707" y="308.7217">DiscountedPriceDraft</text></a></g></a><!--MD5=[fca1c72c02e47fefdccf2467450e3825]
class StandalonePriceSetKeyAction--><a href="StandalonePriceSetKeyAction.svg" target="_top" title="StandalonePriceSetKeyAction.svg" xlink:actuate="onRequest" xlink:href="StandalonePriceSetKeyAction.svg" xlink:show="new" xlink:title="StandalonePriceSetKeyAction.svg" xlink:type="simple"><g id="elem_StandalonePriceSetKeyAction"><rect codeLine="49" fill="#F1F1F1" height="72.5938" id="StandalonePriceSetKeyAction" rx="2.5" ry="2.5" style="stroke:#181818;stroke-width:0.5;" width="236" x="1845" y="243.4297"/><ellipse cx="1860" cy="259.4297" fill="#B4A7E5" rx="11" ry="11" style="stroke:#181818;stroke-width:1.0;"/><path d="M1855.9219,255.1953 L1855.9219,253.0391 L1863.3125,253.0391 L1863.3125,255.1953 L1860.8438,255.1953 L1860.8438,263.2734 L1863.3125,263.2734 L1863.3125,265.4297 L1855.9219,265.4297 L1855.9219,263.2734 L1858.3906,263.2734 L1858.3906,255.1953 L1855.9219,255.1953 Z " fill="#000000"/><text fill="#000000" font-family="sans-serif" font-size="14" font-style="italic" lengthAdjust="spacing" textLength="204" x="1874" y="264.2764">StandalonePriceSetKeyAction</text><line style="stroke:#181818;stroke-width:0.5;" x1="1846" x2="2080" y1="275.4297" y2="275.4297"/><text fill="#000000" font-family="sans-serif" font-size="14" lengthAdjust="spacing" textLength="91" x="1851" y="292.4248">action: String</text><text fill="#000000" font-family="sans-serif" font-size="14" lengthAdjust="spacing" textLength="73" x="1851" y="308.7217">key: String</text></g></a><!--MD5=[9e3867d52d53c1e82c4d5e1cc4d97188]
class StandalonePriceSetPriceTiersAction--><a href="StandalonePriceSetPriceTiersAction.svg" target="_top" title="StandalonePriceSetPriceTiersAction.svg" xlink:actuate="onRequest" xlink:href="StandalonePriceSetPriceTiersAction.svg" xlink:show="new" xlink:title="StandalonePriceSetPriceTiersAction.svg" xlink:type="simple"><g id="elem_StandalonePriceSetPriceTiersAction"><rect codeLine="53" fill="#F1F1F1" height="72.5938" id="StandalonePriceSetPriceTiersAction" rx="2.5" ry="2.5" style="stroke:#181818;stroke-width:0.5;" width="276" x="956" y="243.4297"/><ellipse cx="971" cy="259.4297" fill="#B4A7E5" rx="11" ry="11" style="stroke:#181818;stroke-width:1.0;"/><path d="M966.9219,255.1953 L966.9219,253.0391 L974.3125,253.0391 L974.3125,255.1953 L971.8438,255.1953 L971.8438,263.2734 L974.3125,263.2734 L974.3125,265.4297 L966.9219,265.4297 L966.9219,263.2734 L969.3906,263.2734 L969.3906,255.1953 L966.9219,255.1953 Z " fill="#000000"/><text fill="#000000" font-family="sans-serif" font-size="14" font-style="italic" lengthAdjust="spacing" textLength="244" x="985" y="264.2764">StandalonePriceSetPriceTiersAction</text><line style="stroke:#181818;stroke-width:0.5;" x1="957" x2="1231" y1="275.4297" y2="275.4297"/><text fill="#000000" font-family="sans-serif" font-size="14" lengthAdjust="spacing" textLength="91" x="962" y="292.4248">action: String</text><text fill="#000000" font-family="sans-serif" font-size="14" lengthAdjust="spacing" textLength="35" x="962" y="308.7217">tiers:</text><a href="PriceTierDraft.svg" target="_top" title="PriceTierDraft.svg" xlink:actuate="onRequest" xlink:href="PriceTierDraft.svg" xlink:show="new" xlink:title="PriceTierDraft.svg" xlink:type="simple"><text fill="#0000FF" font-family="sans-serif" font-size="14" lengthAdjust="spacing" text-decoration="underline" textLength="140" x="1001" y="308.7217">List&lt;PriceTierDraft&gt;</text></a></g></a><!--MD5=[9241d2b8321874dd414364bbfcca1483]
class StandalonePriceSetValidFromAction--><a href="StandalonePriceSetValidFromAction.svg" target="_top" title="StandalonePriceSetValidFromAction.svg" xlink:actuate="onRequest" xlink:href="StandalonePriceSetValidFromAction.svg" xlink:show="new" xlink:title="StandalonePriceSetValidFromAction.svg" xlink:type="simple"><g id="elem_StandalonePriceSetValidFromAction"><rect codeLine="57" fill="#F1F1F1" height="72.5938" id="StandalonePriceSetValidFromAction" rx="2.5" ry="2.5" style="stroke:#181818;stroke-width:0.5;" width="278" x="316" y="243.4297"/><ellipse cx="331" cy="259.4297" fill="#B4A7E5" rx="11" ry="11" style="stroke:#181818;stroke-width:1.0;"/><path d="M326.9219,255.1953 L326.9219,253.0391 L334.3125,253.0391 L334.3125,255.1953 L331.8438,255.1953 L331.8438,263.2734 L334.3125,263.2734 L334.3125,265.4297 L326.9219,265.4297 L326.9219,263.2734 L329.3906,263.2734 L329.3906,255.1953 L326.9219,255.1953 Z " fill="#000000"/><text fill="#000000" font-family="sans-serif" font-size="14" font-style="italic" lengthAdjust="spacing" textLength="246" x="345" y="264.2764">StandalonePriceSetValidFromAction</text><line style="stroke:#181818;stroke-width:0.5;" x1="317" x2="593" y1="275.4297" y2="275.4297"/><text fill="#000000" font-family="sans-serif" font-size="14" lengthAdjust="spacing" textLength="91" x="322" y="292.4248">action: String</text><text fill="#000000" font-family="sans-serif" font-size="14" lengthAdjust="spacing" textLength="141" x="322" y="308.7217">validFrom: DateTime</text></g></a><!--MD5=[35d78fb82637cc9f72d8de84b169e6e0]
class StandalonePriceSetValidFromAndUntilAction--><a href="StandalonePriceSetValidFromAndUntilAction.svg" target="_top" title="StandalonePriceSetValidFromAndUntilAction.svg" xlink:actuate="onRequest" xlink:href="StandalonePriceSetValidFromAndUntilAction.svg" xlink:show="new" xlink:title="StandalonePriceSetValidFromAndUntilAction.svg" xlink:type="simple"><g id="elem_StandalonePriceSetValidFromAndUntilAction"><rect codeLine="61" fill="#F1F1F1" height="88.8906" id="StandalonePriceSetValidFromAndUntilAction" rx="2.5" ry="2.5" style="stroke:#181818;stroke-width:0.5;" width="336" x="2444" y="243.4297"/><ellipse cx="2459" cy="259.4297" fill="#B4A7E5" rx="11" ry="11" style="stroke:#181818;stroke-width:1.0;"/><path d="M2454.9219,255.1953 L2454.9219,253.0391 L2462.3125,253.0391 L2462.3125,255.1953 L2459.8438,255.1953 L2459.8438,263.2734 L2462.3125,263.2734 L2462.3125,265.4297 L2454.9219,265.4297 L2454.9219,263.2734 L2457.3906,263.2734 L2457.3906,255.1953 L2454.9219,255.1953 Z " fill="#000000"/><text fill="#000000" font-family="sans-serif" font-size="14" font-style="italic" lengthAdjust="spacing" textLength="304" x="2473" y="264.2764">StandalonePriceSetValidFromAndUntilAction</text><line style="stroke:#181818;stroke-width:0.5;" x1="2445" x2="2779" y1="275.4297" y2="275.4297"/><text fill="#000000" font-family="sans-serif" font-size="14" lengthAdjust="spacing" textLength="91" x="2450" y="292.4248">action: String</text><text fill="#000000" font-family="sans-serif" font-size="14" lengthAdjust="spacing" textLength="141" x="2450" y="308.7217">validFrom: DateTime</text><text fill="#000000" font-family="sans-serif" font-size="14" lengthAdjust="spacing" textLength="136" x="2450" y="325.0186">validUntil: DateTime</text></g></a><!--MD5=[eccf848fb893477d22f03fa131e3ee19]
class StandalonePriceSetValidUntilAction--><a href="StandalonePriceSetValidUntilAction.svg" target="_top" title="StandalonePriceSetValidUntilAction.svg" xlink:actuate="onRequest" xlink:href="StandalonePriceSetValidUntilAction.svg" xlink:show="new" xlink:title="StandalonePriceSetValidUntilAction.svg" xlink:type="simple"><g id="elem_StandalonePriceSetValidUntilAction"><rect codeLine="66" fill="#F1F1F1" height="72.5938" id="StandalonePriceSetValidUntilAction" rx="2.5" ry="2.5" style="stroke:#181818;stroke-width:0.5;" width="273" x="1552" y="243.4297"/><ellipse cx="1567" cy="259.4297" fill="#B4A7E5" rx="11" ry="11" style="stroke:#181818;stroke-width:1.0;"/><path d="M1562.9219,255.1953 L1562.9219,253.0391 L1570.3125,253.0391 L1570.3125,255.1953 L1567.8438,255.1953 L1567.8438,263.2734 L1570.3125,263.2734 L1570.3125,265.4297 L1562.9219,265.4297 L1562.9219,263.2734 L1565.3906,263.2734 L1565.3906,255.1953 L1562.9219,255.1953 Z " fill="#000000"/><text fill="#000000" font-family="sans-serif" font-size="14" font-style="italic" lengthAdjust="spacing" textLength="241" x="1581" y="264.2764">StandalonePriceSetValidUntilAction</text><line style="stroke:#181818;stroke-width:0.5;" x1="1553" x2="1824" y1="275.4297" y2="275.4297"/><text fill="#000000" font-family="sans-serif" font-size="14" lengthAdjust="spacing" textLength="91" x="1558" y="292.4248">action: String</text><text fill="#000000" font-family="sans-serif" font-size="14" lengthAdjust="spacing" textLength="136" x="1558" y="308.7217">validUntil: DateTime</text></g></a><!--MD5=[968ff400ef03a2c79b6ba77959713e8c]
class StandalonePriceUpdate--><a href="StandalonePriceUpdate.svg" target="_top" title="StandalonePriceUpdate.svg" xlink:actuate="onRequest" xlink:href="StandalonePriceUpdate.svg" xlink:show="new" xlink:title="StandalonePriceUpdate.svg" xlink:type="simple"><g id="elem_StandalonePriceUpdate"><rect codeLine="70" fill="#F1F1F1" height="72.5938" id="StandalonePriceUpdate" rx="2.5" ry="2.5" style="stroke:#181818;stroke-width:0.5;" width="323" x="2101" y="243.4297"/><ellipse cx="2177.75" cy="259.4297" fill="#B4A7E5" rx="11" ry="11" style="stroke:#181818;stroke-width:1.0;"/><path d="M2173.6719,255.1953 L2173.6719,253.0391 L2181.0625,253.0391 L2181.0625,255.1953 L2178.5938,255.1953 L2178.5938,263.2734 L2181.0625,263.2734 L2181.0625,265.4297 L2173.6719,265.4297 L2173.6719,263.2734 L2176.1406,263.2734 L2176.1406,255.1953 L2173.6719,255.1953 Z " fill="#000000"/><text fill="#000000" font-family="sans-serif" font-size="14" font-style="italic" lengthAdjust="spacing" textLength="161" x="2198.25" y="264.2764">StandalonePriceUpdate</text><line style="stroke:#181818;stroke-width:0.5;" x1="2102" x2="2423" y1="275.4297" y2="275.4297"/><text fill="#000000" font-family="sans-serif" font-size="14" lengthAdjust="spacing" textLength="93" x="2107" y="292.4248">version: Long</text><text fill="#000000" font-family="sans-serif" font-size="14" lengthAdjust="spacing" textLength="55" x="2107" y="308.7217">actions:</text><a href="StandalonePriceUpdateAction.svg" target="_top" title="StandalonePriceUpdateAction.svg" xlink:actuate="onRequest" xlink:href="StandalonePriceUpdateAction.svg" xlink:show="new" xlink:title="StandalonePriceUpdateAction.svg" xlink:type="simple"><text fill="#0000FF" font-family="sans-serif" font-size="14" lengthAdjust="spacing" text-decoration="underline" textLength="252" x="2166" y="308.7217">List&lt;StandalonePriceUpdateAction&gt;</text></a></g></a><line style="stroke:#0000FF;stroke-width:1.0;" x1="343.6" x2="343.6" y1="68.2969" y2="88.2969"/><line style="stroke:#0000FF;stroke-width:1.0;" x1="343.6" x2="3894" y1="88.2969" y2="88.2969"/><line style="stroke:#0000FF;stroke-width:1.0;" x1="3894" x2="3894" y1="88.2969" y2="243.4297"/><polygon fill="#0000FF" points="3894,243.4297,3898,234.4297,3894,238.4297,3890,234.4297,3894,243.4297" style="stroke:#0000FF;stroke-width:1.0;"/><text fill="#000000" font-family="sans-serif" font-size="13" lengthAdjust="spacing" textLength="129" x="3763" y="220.3638">action : addPriceTier</text><line style="stroke:#0000FF;stroke-width:1.0;" x1="359.4" x2="359.4" y1="68.2969" y2="78.2969"/><line style="stroke:#0000FF;stroke-width:1.0;" x1="359.4" x2="4219" y1="78.2969" y2="78.2969"/><line style="stroke:#0000FF;stroke-width:1.0;" x1="4219" x2="4219" y1="78.2969" y2="243.4297"/><polygon fill="#0000FF" points="4219,243.4297,4223,234.4297,4219,238.4297,4215,234.4297,4219,243.4297" style="stroke:#0000FF;stroke-width:1.0;"/><text fill="#000000" font-family="sans-serif" font-size="13" lengthAdjust="spacing" textLength="187" x="4030" y="220.3638">action : applyStagedChanges</text><line style="stroke:#0000FF;stroke-width:1.0;" x1="154" x2="154" y1="68.2969" y2="243.4297"/><polygon fill="#0000FF" points="154,243.4297,158,234.4297,154,238.4297,150,234.4297,154,243.4297" style="stroke:#0000FF;stroke-width:1.0;"/><text fill="#000000" font-family="sans-serif" font-size="13" lengthAdjust="spacing" textLength="137" x="15" y="220.3638">action : changeActive</text><line style="stroke:#0000FF;stroke-width:1.0;" x1="217.2" x2="217.2" y1="68.2969" y2="168.2969"/><line style="stroke:#0000FF;stroke-width:1.0;" x1="217.2" x2="1392" y1="168.2969" y2="168.2969"/><line style="stroke:#0000FF;stroke-width:1.0;" x1="1392" x2="1392" y1="168.2969" y2="243.4297"/><polygon fill="#0000FF" points="1392,243.4297,1396,234.4297,1392,238.4297,1388,234.4297,1392,243.4297" style="stroke:#0000FF;stroke-width:1.0;"/><text fill="#000000" font-family="sans-serif" font-size="13" lengthAdjust="spacing" textLength="134" x="1256" y="220.3638">action : changeValue</text><line style="stroke:#0000FF;stroke-width:1.0;" x1="312" x2="312" y1="68.2969" y2="108.2969"/><line style="stroke:#0000FF;stroke-width:1.0;" x1="312" x2="3270" y1="108.2969" y2="108.2969"/><line style="stroke:#0000FF;stroke-width:1.0;" x1="3270" x2="3270" y1="108.2969" y2="243.4297"/><polygon fill="#0000FF" points="3270,243.4297,3274,234.4297,3270,238.4297,3266,234.4297,3270,243.4297" style="stroke:#0000FF;stroke-width:1.0;"/><text fill="#000000" font-family="sans-serif" font-size="13" lengthAdjust="spacing" textLength="154" x="3114" y="220.3638">action : removePriceTier</text><line style="stroke:#0000FF;stroke-width:1.0;" x1="327.8" x2="327.8" y1="68.2969" y2="98.2969"/><line style="stroke:#0000FF;stroke-width:1.0;" x1="327.8" x2="3589.5" y1="98.2969" y2="98.2969"/><line style="stroke:#0000FF;stroke-width:1.0;" x1="3589.5" x2="3589.5" y1="98.2969" y2="243.4297"/><polygon fill="#0000FF" points="3589.5,243.4297,3593.5,234.4297,3589.5,238.4297,3585.5,234.4297,3589.5,243.4297" style="stroke:#0000FF;stroke-width:1.0;"/><text fill="#000000" font-family="sans-serif" font-size="13" lengthAdjust="spacing" textLength="150" x="3437.5" y="220.3638">action : setCustomField</text><line style="stroke:#0000FF;stroke-width:1.0;" x1="296.2" x2="296.2" y1="68.2969" y2="118.2969"/><line style="stroke:#0000FF;stroke-width:1.0;" x1="296.2" x2="2949" y1="118.2969" y2="118.2969"/><line style="stroke:#0000FF;stroke-width:1.0;" x1="2949" x2="2949" y1="118.2969" y2="243.4297"/><polygon fill="#0000FF" points="2949,243.4297,2953,234.4297,2949,238.4297,2945,234.4297,2949,243.4297" style="stroke:#0000FF;stroke-width:1.0;"/><text fill="#000000" font-family="sans-serif" font-size="13" lengthAdjust="spacing" textLength="151" x="2796" y="220.3638">action : setCustomType</text><line style="stroke:#0000FF;stroke-width:1.0;" x1="185.6" x2="185.6" y1="68.2969" y2="188.2969"/><line style="stroke:#0000FF;stroke-width:1.0;" x1="185.6" x2="775" y1="188.2969" y2="188.2969"/><line style="stroke:#0000FF;stroke-width:1.0;" x1="775" x2="775" y1="188.2969" y2="243.4297"/><polygon fill="#0000FF" points="775,243.4297,779,234.4297,775,238.4297,771,234.4297,775,243.4297" style="stroke:#0000FF;stroke-width:1.0;"/><text fill="#000000" font-family="sans-serif" font-size="13" lengthAdjust="spacing" textLength="174" x="599" y="220.3638">action : setDiscountedPrice</text><line style="stroke:#0000FF;stroke-width:1.0;" x1="248.8" x2="248.8" y1="68.2969" y2="148.2969"/><line style="stroke:#0000FF;stroke-width:1.0;" x1="248.8" x2="1963" y1="148.2969" y2="148.2969"/><line style="stroke:#0000FF;stroke-width:1.0;" x1="1963" x2="1963" y1="148.2969" y2="243.4297"/><polygon fill="#0000FF" points="1963,243.4297,1967,234.4297,1963,238.4297,1959,234.4297,1963,243.4297" style="stroke:#0000FF;stroke-width:1.0;"/><text fill="#000000" font-family="sans-serif" font-size="13" lengthAdjust="spacing" textLength="94" x="1867" y="220.3638">action : setKey</text><line style="stroke:#0000FF;stroke-width:1.0;" x1="201.4" x2="201.4" y1="68.2969" y2="178.2969"/><line style="stroke:#0000FF;stroke-width:1.0;" x1="201.4" x2="1094" y1="178.2969" y2="178.2969"/><line style="stroke:#0000FF;stroke-width:1.0;" x1="1094" x2="1094" y1="178.2969" y2="243.4297"/><polygon fill="#0000FF" points="1094,243.4297,1098,234.4297,1094,238.4297,1090,234.4297,1094,243.4297" style="stroke:#0000FF;stroke-width:1.0;"/><text fill="#000000" font-family="sans-serif" font-size="13" lengthAdjust="spacing" textLength="132" x="960" y="220.3638">action : setPriceTiers</text><line style="stroke:#0000FF;stroke-width:1.0;" x1="169.8" x2="169.8" y1="68.2969" y2="198.2969"/><line style="stroke:#0000FF;stroke-width:1.0;" x1="169.8" x2="455" y1="198.2969" y2="198.2969"/><line style="stroke:#0000FF;stroke-width:1.0;" x1="455" x2="455" y1="198.2969" y2="243.4297"/><polygon fill="#0000FF" points="455,243.4297,459,234.4297,455,238.4297,451,234.4297,455,243.4297" style="stroke:#0000FF;stroke-width:1.0;"/><text fill="#000000" font-family="sans-serif" font-size="13" lengthAdjust="spacing" textLength="135" x="318" y="220.3638">action : setValidFrom</text><line style="stroke:#0000FF;stroke-width:1.0;" x1="280.4" x2="280.4" y1="68.2969" y2="128.2969"/><line style="stroke:#0000FF;stroke-width:1.0;" x1="280.4" x2="2612" y1="128.2969" y2="128.2969"/><line style="stroke:#0000FF;stroke-width:1.0;" x1="2612" x2="2612" y1="128.2969" y2="243.4297"/><polygon fill="#0000FF" points="2612,243.4297,2616,234.4297,2612,238.4297,2608,234.4297,2612,243.4297" style="stroke:#0000FF;stroke-width:1.0;"/><text fill="#000000" font-family="sans-serif" font-size="13" lengthAdjust="spacing" textLength="189" x="2421" y="220.3638">action : setValidFromAndUntil</text><line style="stroke:#0000FF;stroke-width:1.0;" x1="233" x2="233" y1="68.2969" y2="158.2969"/><line style="stroke:#0000FF;stroke-width:1.0;" x1="233" x2="1688.5" y1="158.2969" y2="158.2969"/><line style="stroke:#0000FF;stroke-width:1.0;" x1="1688.5" x2="1688.5" y1="158.2969" y2="243.4297"/><polygon fill="#0000FF" points="1688.5,243.4297,1692.5,234.4297,1688.5,238.4297,1684.5,234.4297,1688.5,243.4297" style="stroke:#0000FF;stroke-width:1.0;"/><text fill="#000000" font-family="sans-serif" font-size="13" lengthAdjust="spacing" textLength="131" x="1555.5" y="220.3638">action : setValidUntil</text><line style="stroke:#008000;stroke-width:1.0;" x1="264.6" x2="264.6" y1="68.2969" y2="138.2969"/><line style="stroke:#008000;stroke-width:1.0;" x1="264.6" x2="2262.5" y1="138.2969" y2="138.2969"/><line style="stroke:#008000;stroke-width:1.0;" x1="2262.5" x2="2262.5" y1="138.2969" y2="243.4297"/><polygon fill="#008000" points="2262.5,243.4297,2266.5,234.4297,2262.5,238.4297,2258.5,234.4297,2262.5,243.4297" style="stroke:#008000;stroke-width:1.0;"/><text fill="#000000" font-family="sans-serif" font-size="13" lengthAdjust="spacing" textLength="46" x="2214.5" y="220.3638">actions</text><rect fill="#DDDDDD" height="79.1875" id="_legend" rx="7.5" ry="7.5" style="stroke:#000000;stroke-width:1.0;" width="161" x="2107" y="333.3203"/><text fill="#000000" font-family="sans-serif" font-size="14" font-weight="bold" lengthAdjust="spacing" textLength="5" x="2112" y="353.3154"> </text><text fill="#000000" font-family="sans-serif" font-size="14" font-weight="bold" lengthAdjust="spacing" textLength="28" x="2129" y="353.3154">line</text><text fill="#000000" filter="url(#bd0c3qfg0j8560)" font-family="sans-serif" font-size="14" lengthAdjust="spacing" textLength="12" x="2112" y="369.6123">   </text><text fill="#000000" font-family="sans-serif" font-size="14" lengthAdjust="spacing" textLength="77" x="2128" y="369.6123">inheritance</text><text fill="#000000" filter="url(#bd0c3qfg0j8561)" font-family="sans-serif" font-size="14" lengthAdjust="spacing" textLength="12" x="2112" y="385.9092">   </text><text fill="#000000" font-family="sans-serif" font-size="14" lengthAdjust="spacing" textLength="129" x="2128" y="385.9092">property reference</text><text fill="#000000" filter="url(#bd0c3qfg0j8562)" font-family="sans-serif" font-size="14" lengthAdjust="spacing" textLength="12" x="2112" y="402.2061">   </text><text fill="#000000" font-family="sans-serif" font-size="14" lengthAdjust="spacing" textLength="131" x="2128" y="402.2061">discriminated class</text><line style="stroke:#000000;stroke-width:1.0;" x1="2112" x2="2263" y1="340.3203" y2="340.3203"/><line style="stroke:#000000;stroke-width:1.0;" x1="2112" x2="2263" y1="356.6172" y2="356.6172"/><line style="stroke:#000000;stroke-width:1.0;" x1="2112" x2="2263" y1="372.9141" y2="372.9141"/><line style="stroke:#000000;stroke-width:1.0;" x1="2112" x2="2263" y1="389.2109" y2="389.2109"/><line style="stroke:#000000;stroke-width:1.0;" x1="2112" x2="2263" y1="405.5078" y2="405.5078"/><line style="stroke:#000000;stroke-width:1.0;" x1="2112" x2="2112" y1="340.3203" y2="405.5078"/><line style="stroke:#000000;stroke-width:1.0;" x1="2124" x2="2124" y1="340.3203" y2="405.5078"/><line style="stroke:#000000;stroke-width:1.0;" x1="2263" x2="2263" y1="340.3203" y2="405.5078"/><!--MD5=[b2fc9de694d75f17e541064ee6ea228f]
@startuml
!pragma layout elk
hide empty fields
hide empty methods
legend
|= |= line |
|<back:black>   </back>| inheritance |
|<back:green>   </back>| property reference |
|<back:blue>   </back>| discriminated class |
endlegend
interface StandalonePriceUpdateAction [[StandalonePriceUpdateAction.svg]]  {
    action: String
}


interface StandalonePriceAddPriceTierAction [[StandalonePriceAddPriceTierAction.svg]]  {
    action: String
    tier: [[PriceTierDraft.svg PriceTierDraft]]
}
interface StandalonePriceApplyStagedChangesAction [[StandalonePriceApplyStagedChangesAction.svg]]  {
    action: String
}
interface StandalonePriceChangeActiveAction [[StandalonePriceChangeActiveAction.svg]]  {
    action: String
    active: Boolean
}
interface StandalonePriceChangeValueAction [[StandalonePriceChangeValueAction.svg]]  {
    action: String
    value: [[Money.svg Money]]
    staged: Boolean
}
interface StandalonePriceRemovePriceTierAction [[StandalonePriceRemovePriceTierAction.svg]]  {
    action: String
    tierMinimumQuantity: Long
}
interface StandalonePriceSetCustomFieldAction [[StandalonePriceSetCustomFieldAction.svg]]  {
    action: String
    name: String
    value: [[Object.svg Object]]
}
interface StandalonePriceSetCustomTypeAction [[StandalonePriceSetCustomTypeAction.svg]]  {
    action: String
    type: [[TypeResourceIdentifier.svg TypeResourceIdentifier]]
    fields: [[FieldContainer.svg FieldContainer]]
}
interface StandalonePriceSetDiscountedPriceAction [[StandalonePriceSetDiscountedPriceAction.svg]]  {
    action: String
    discounted: [[DiscountedPriceDraft.svg DiscountedPriceDraft]]
}
interface StandalonePriceSetKeyAction [[StandalonePriceSetKeyAction.svg]]  {
    action: String
    key: String
}
interface StandalonePriceSetPriceTiersAction [[StandalonePriceSetPriceTiersAction.svg]]  {
    action: String
    tiers: [[PriceTierDraft.svg List<PriceTierDraft>]]
}
interface StandalonePriceSetValidFromAction [[StandalonePriceSetValidFromAction.svg]]  {
    action: String
    validFrom: DateTime
}
interface StandalonePriceSetValidFromAndUntilAction [[StandalonePriceSetValidFromAndUntilAction.svg]]  {
    action: String
    validFrom: DateTime
    validUntil: DateTime
}
interface StandalonePriceSetValidUntilAction [[StandalonePriceSetValidUntilAction.svg]]  {
    action: String
    validUntil: DateTime
}
interface StandalonePriceUpdate [[StandalonePriceUpdate.svg]]  {
    version: Long
    actions: [[StandalonePriceUpdateAction.svg List<StandalonePriceUpdateAction>]]
}
StandalonePriceUpdateAction - -> StandalonePriceAddPriceTierAction #blue;text:blue : "action : addPriceTier"
StandalonePriceUpdateAction - -> StandalonePriceApplyStagedChangesAction #blue;text:blue : "action : applyStagedChanges"
StandalonePriceUpdateAction - -> StandalonePriceChangeActiveAction #blue;text:blue : "action : changeActive"
StandalonePriceUpdateAction - -> StandalonePriceChangeValueAction #blue;text:blue : "action : changeValue"
StandalonePriceUpdateAction - -> StandalonePriceRemovePriceTierAction #blue;text:blue : "action : removePriceTier"
StandalonePriceUpdateAction - -> StandalonePriceSetCustomFieldAction #blue;text:blue : "action : setCustomField"
StandalonePriceUpdateAction - -> StandalonePriceSetCustomTypeAction #blue;text:blue : "action : setCustomType"
StandalonePriceUpdateAction - -> StandalonePriceSetDiscountedPriceAction #blue;text:blue : "action : setDiscountedPrice"
StandalonePriceUpdateAction - -> StandalonePriceSetKeyAction #blue;text:blue : "action : setKey"
StandalonePriceUpdateAction - -> StandalonePriceSetPriceTiersAction #blue;text:blue : "action : setPriceTiers"
StandalonePriceUpdateAction - -> StandalonePriceSetValidFromAction #blue;text:blue : "action : setValidFrom"
StandalonePriceUpdateAction - -> StandalonePriceSetValidFromAndUntilAction #blue;text:blue : "action : setValidFromAndUntil"
StandalonePriceUpdateAction - -> StandalonePriceSetValidUntilAction #blue;text:blue : "action : setValidUntil"
StandalonePriceUpdateAction - -> StandalonePriceUpdate #green;text:green : "actions"
@enduml

PlantUML version 1.2022.13(Sat Nov 19 13:22:17 UTC 2022)
(GPL source distribution)
Java Runtime: OpenJDK Runtime Environment
JVM: OpenJDK 64-Bit Server VM
Default Encoding: UTF-8
Language: en
Country: null
--></g></svg>
