<?xml version="1.0" encoding="UTF-8" standalone="no"?><svg xmlns="http://www.w3.org/2000/svg" xmlns:xlink="http://www.w3.org/1999/xlink" contentStyleType="text/css" height="402px" preserveAspectRatio="none" style="width:3480px;height:402px;background:#FFFFFF;" version="1.1" viewBox="0 0 3480 402" width="3480px" zoomAndPan="magnify"><defs><filter height="1" id="bsnmawsd15zn90" width="1" x="0" y="0"><feFlood flood-color="#000000" result="flood"/><feComposite in="SourceGraphic" in2="flood" operator="over"/></filter><filter height="1" id="bsnmawsd15zn91" width="1" x="0" y="0"><feFlood flood-color="#008000" result="flood"/><feComposite in="SourceGraphic" in2="flood" operator="over"/></filter><filter height="1" id="bsnmawsd15zn92" width="1" x="0" y="0"><feFlood flood-color="#0000FF" result="flood"/><feComposite in="SourceGraphic" in2="flood" operator="over"/></filter></defs><g><!--MD5=[8b302e1e28adb6549a168d71e2898950]
class StandalonePriceUpdateAction--><a href="StandalonePriceUpdateAction.svg" target="_top" title="StandalonePriceUpdateAction.svg" xlink:actuate="onRequest" xlink:href="StandalonePriceUpdateAction.svg" xlink:show="new" xlink:title="StandalonePriceUpdateAction.svg" xlink:type="simple"><g id="elem_StandalonePriceUpdateAction"><rect codeLine="10" fill="#F1F1F1" height="56.2969" id="StandalonePriceUpdateAction" rx="2.5" ry="2.5" style="stroke:#181818;stroke-width:0.5;" width="237" x="132.25" y="12"/><ellipse cx="147.25" cy="28" fill="#B4A7E5" rx="11" ry="11" style="stroke:#181818;stroke-width:1.0;"/><path d="M143.1719,23.7656 L143.1719,21.6094 L150.5625,21.6094 L150.5625,23.7656 L148.0938,23.7656 L148.0938,31.8438 L150.5625,31.8438 L150.5625,34 L143.1719,34 L143.1719,31.8438 L145.6406,31.8438 L145.6406,23.7656 L143.1719,23.7656 Z " fill="#000000"/><text fill="#000000" font-family="sans-serif" font-size="14" font-style="italic" lengthAdjust="spacing" textLength="205" x="161.25" y="32.8467">StandalonePriceUpdateAction</text><line style="stroke:#181818;stroke-width:0.5;" x1="133.25" x2="368.25" y1="44" y2="44"/><text fill="#000000" font-family="sans-serif" font-size="14" lengthAdjust="spacing" textLength="91" x="138.25" y="60.9951">action: String</text></g></a><!--MD5=[ac0b9440fcb55a02f191935a6c45aef8]
class StandalonePriceApplyStagedChangesAction--><a href="StandalonePriceApplyStagedChangesAction.svg" target="_top" title="StandalonePriceApplyStagedChangesAction.svg" xlink:actuate="onRequest" xlink:href="StandalonePriceApplyStagedChangesAction.svg" xlink:show="new" xlink:title="StandalonePriceApplyStagedChangesAction.svg" xlink:type="simple"><g id="elem_StandalonePriceApplyStagedChangesAction"><rect codeLine="15" fill="#F1F1F1" height="56.2969" id="StandalonePriceApplyStagedChangesAction" rx="2.5" ry="2.5" style="stroke:#181818;stroke-width:0.5;" width="336" x="2833" y="213.4297"/><ellipse cx="2848" cy="229.4297" fill="#B4A7E5" rx="11" ry="11" style="stroke:#181818;stroke-width:1.0;"/><path d="M2843.9219,225.1953 L2843.9219,223.0391 L2851.3125,223.0391 L2851.3125,225.1953 L2848.8438,225.1953 L2848.8438,233.2734 L2851.3125,233.2734 L2851.3125,235.4297 L2843.9219,235.4297 L2843.9219,233.2734 L2846.3906,233.2734 L2846.3906,225.1953 L2843.9219,225.1953 Z " fill="#000000"/><text fill="#000000" font-family="sans-serif" font-size="14" font-style="italic" lengthAdjust="spacing" textLength="304" x="2862" y="234.2764">StandalonePriceApplyStagedChangesAction</text><line style="stroke:#181818;stroke-width:0.5;" x1="2834" x2="3168" y1="245.4297" y2="245.4297"/><text fill="#000000" font-family="sans-serif" font-size="14" lengthAdjust="spacing" textLength="91" x="2839" y="262.4248">action: String</text></g></a><!--MD5=[df1f6762f35366cc6ac2946f2b2f3788]
class StandalonePriceChangeActiveAction--><a href="StandalonePriceChangeActiveAction.svg" target="_top" title="StandalonePriceChangeActiveAction.svg" xlink:actuate="onRequest" xlink:href="StandalonePriceChangeActiveAction.svg" xlink:show="new" xlink:title="StandalonePriceChangeActiveAction.svg" xlink:type="simple"><g id="elem_StandalonePriceChangeActiveAction"><rect codeLine="18" fill="#F1F1F1" height="72.5938" id="StandalonePriceChangeActiveAction" rx="2.5" ry="2.5" style="stroke:#181818;stroke-width:0.5;" width="284" x="3189" y="213.4297"/><ellipse cx="3204" cy="229.4297" fill="#B4A7E5" rx="11" ry="11" style="stroke:#181818;stroke-width:1.0;"/><path d="M3199.9219,225.1953 L3199.9219,223.0391 L3207.3125,223.0391 L3207.3125,225.1953 L3204.8438,225.1953 L3204.8438,233.2734 L3207.3125,233.2734 L3207.3125,235.4297 L3199.9219,235.4297 L3199.9219,233.2734 L3202.3906,233.2734 L3202.3906,225.1953 L3199.9219,225.1953 Z " fill="#000000"/><text fill="#000000" font-family="sans-serif" font-size="14" font-style="italic" lengthAdjust="spacing" textLength="252" x="3218" y="234.2764">StandalonePriceChangeActiveAction</text><line style="stroke:#181818;stroke-width:0.5;" x1="3190" x2="3472" y1="245.4297" y2="245.4297"/><text fill="#000000" font-family="sans-serif" font-size="14" lengthAdjust="spacing" textLength="91" x="3195" y="262.4248">action: String</text><text fill="#000000" font-family="sans-serif" font-size="14" lengthAdjust="spacing" textLength="106" x="3195" y="278.7217">active: Boolean</text></g></a><!--MD5=[fcda81860b20bc0ad7aa740916a39b48]
class StandalonePriceChangeValueAction--><a href="StandalonePriceChangeValueAction.svg" target="_top" title="StandalonePriceChangeValueAction.svg" xlink:actuate="onRequest" xlink:href="StandalonePriceChangeValueAction.svg" xlink:show="new" xlink:title="StandalonePriceChangeValueAction.svg" xlink:type="simple"><g id="elem_StandalonePriceChangeValueAction"><rect codeLine="22" fill="#F1F1F1" height="88.8906" id="StandalonePriceChangeValueAction" rx="2.5" ry="2.5" style="stroke:#181818;stroke-width:0.5;" width="280" x="12" y="213.4297"/><ellipse cx="27" cy="229.4297" fill="#B4A7E5" rx="11" ry="11" style="stroke:#181818;stroke-width:1.0;"/><path d="M22.9219,225.1953 L22.9219,223.0391 L30.3125,223.0391 L30.3125,225.1953 L27.8438,225.1953 L27.8438,233.2734 L30.3125,233.2734 L30.3125,235.4297 L22.9219,235.4297 L22.9219,233.2734 L25.3906,233.2734 L25.3906,225.1953 L22.9219,225.1953 Z " fill="#000000"/><text fill="#000000" font-family="sans-serif" font-size="14" font-style="italic" lengthAdjust="spacing" textLength="248" x="41" y="234.2764">StandalonePriceChangeValueAction</text><line style="stroke:#181818;stroke-width:0.5;" x1="13" x2="291" y1="245.4297" y2="245.4297"/><text fill="#000000" font-family="sans-serif" font-size="14" lengthAdjust="spacing" textLength="91" x="18" y="262.4248">action: String</text><text fill="#000000" font-family="sans-serif" font-size="14" lengthAdjust="spacing" textLength="41" x="18" y="278.7217">value:</text><a href="Money.svg" target="_top" title="Money.svg" xlink:actuate="onRequest" xlink:href="Money.svg" xlink:show="new" xlink:title="Money.svg" xlink:type="simple"><text fill="#0000FF" font-family="sans-serif" font-size="14" lengthAdjust="spacing" text-decoration="underline" textLength="46" x="63" y="278.7217">Money</text></a><text fill="#000000" font-family="sans-serif" font-size="14" lengthAdjust="spacing" textLength="114" x="18" y="295.0186">staged: Boolean</text></g></a><!--MD5=[01809979955fb5e929ea27c8365e8447]
class StandalonePriceSetCustomFieldAction--><a href="StandalonePriceSetCustomFieldAction.svg" target="_top" title="StandalonePriceSetCustomFieldAction.svg" xlink:actuate="onRequest" xlink:href="StandalonePriceSetCustomFieldAction.svg" xlink:show="new" xlink:title="StandalonePriceSetCustomFieldAction.svg" xlink:type="simple"><g id="elem_StandalonePriceSetCustomFieldAction"><rect codeLine="27" fill="#F1F1F1" height="88.8906" id="StandalonePriceSetCustomFieldAction" rx="2.5" ry="2.5" style="stroke:#181818;stroke-width:0.5;" width="295" x="1246" y="213.4297"/><ellipse cx="1261" cy="229.4297" fill="#B4A7E5" rx="11" ry="11" style="stroke:#181818;stroke-width:1.0;"/><path d="M1256.9219,225.1953 L1256.9219,223.0391 L1264.3125,223.0391 L1264.3125,225.1953 L1261.8438,225.1953 L1261.8438,233.2734 L1264.3125,233.2734 L1264.3125,235.4297 L1256.9219,235.4297 L1256.9219,233.2734 L1259.3906,233.2734 L1259.3906,225.1953 L1256.9219,225.1953 Z " fill="#000000"/><text fill="#000000" font-family="sans-serif" font-size="14" font-style="italic" lengthAdjust="spacing" textLength="263" x="1275" y="234.2764">StandalonePriceSetCustomFieldAction</text><line style="stroke:#181818;stroke-width:0.5;" x1="1247" x2="1540" y1="245.4297" y2="245.4297"/><text fill="#000000" font-family="sans-serif" font-size="14" lengthAdjust="spacing" textLength="91" x="1252" y="262.4248">action: String</text><text fill="#000000" font-family="sans-serif" font-size="14" lengthAdjust="spacing" textLength="88" x="1252" y="278.7217">name: String</text><text fill="#000000" font-family="sans-serif" font-size="14" lengthAdjust="spacing" textLength="41" x="1252" y="295.0186">value:</text><a href="Object.svg" target="_top" title="Object.svg" xlink:actuate="onRequest" xlink:href="Object.svg" xlink:show="new" xlink:title="Object.svg" xlink:type="simple"><text fill="#0000FF" font-family="sans-serif" font-size="14" lengthAdjust="spacing" text-decoration="underline" textLength="45" x="1297" y="295.0186">Object</text></a></g></a><!--MD5=[bd2e7396385b0eaa8fea30def5ff64e8]
class StandalonePriceSetCustomTypeAction--><a href="StandalonePriceSetCustomTypeAction.svg" target="_top" title="StandalonePriceSetCustomTypeAction.svg" xlink:actuate="onRequest" xlink:href="StandalonePriceSetCustomTypeAction.svg" xlink:show="new" xlink:title="StandalonePriceSetCustomTypeAction.svg" xlink:type="simple"><g id="elem_StandalonePriceSetCustomTypeAction"><rect codeLine="32" fill="#F1F1F1" height="88.8906" id="StandalonePriceSetCustomTypeAction" rx="2.5" ry="2.5" style="stroke:#181818;stroke-width:0.5;" width="298" x="2173" y="213.4297"/><ellipse cx="2188" cy="229.4297" fill="#B4A7E5" rx="11" ry="11" style="stroke:#181818;stroke-width:1.0;"/><path d="M2183.9219,225.1953 L2183.9219,223.0391 L2191.3125,223.0391 L2191.3125,225.1953 L2188.8438,225.1953 L2188.8438,233.2734 L2191.3125,233.2734 L2191.3125,235.4297 L2183.9219,235.4297 L2183.9219,233.2734 L2186.3906,233.2734 L2186.3906,225.1953 L2183.9219,225.1953 Z " fill="#000000"/><text fill="#000000" font-family="sans-serif" font-size="14" font-style="italic" lengthAdjust="spacing" textLength="266" x="2202" y="234.2764">StandalonePriceSetCustomTypeAction</text><line style="stroke:#181818;stroke-width:0.5;" x1="2174" x2="2470" y1="245.4297" y2="245.4297"/><text fill="#000000" font-family="sans-serif" font-size="14" lengthAdjust="spacing" textLength="91" x="2179" y="262.4248">action: String</text><text fill="#000000" font-family="sans-serif" font-size="14" lengthAdjust="spacing" textLength="35" x="2179" y="278.7217">type:</text><a href="TypeResourceIdentifier.svg" target="_top" title="TypeResourceIdentifier.svg" xlink:actuate="onRequest" xlink:href="TypeResourceIdentifier.svg" xlink:show="new" xlink:title="TypeResourceIdentifier.svg" xlink:type="simple"><text fill="#0000FF" font-family="sans-serif" font-size="14" lengthAdjust="spacing" text-decoration="underline" textLength="160" x="2218" y="278.7217">TypeResourceIdentifier</text></a><text fill="#000000" font-family="sans-serif" font-size="14" lengthAdjust="spacing" textLength="41" x="2179" y="295.0186">fields:</text><a href="FieldContainer.svg" target="_top" title="FieldContainer.svg" xlink:actuate="onRequest" xlink:href="FieldContainer.svg" xlink:show="new" xlink:title="FieldContainer.svg" xlink:type="simple"><text fill="#0000FF" font-family="sans-serif" font-size="14" lengthAdjust="spacing" text-decoration="underline" textLength="99" x="2224" y="295.0186">FieldContainer</text></a></g></a><!--MD5=[00a69fa48ad96c602a389db39fe03a7a]
class StandalonePriceSetDiscountedPriceAction--><a href="StandalonePriceSetDiscountedPriceAction.svg" target="_top" title="StandalonePriceSetDiscountedPriceAction.svg" xlink:actuate="onRequest" xlink:href="StandalonePriceSetDiscountedPriceAction.svg" xlink:show="new" xlink:title="StandalonePriceSetDiscountedPriceAction.svg" xlink:type="simple"><g id="elem_StandalonePriceSetDiscountedPriceAction"><rect codeLine="37" fill="#F1F1F1" height="72.5938" id="StandalonePriceSetDiscountedPriceAction" rx="2.5" ry="2.5" style="stroke:#181818;stroke-width:0.5;" width="322" x="2491" y="213.4297"/><ellipse cx="2506" cy="229.4297" fill="#B4A7E5" rx="11" ry="11" style="stroke:#181818;stroke-width:1.0;"/><path d="M2501.9219,225.1953 L2501.9219,223.0391 L2509.3125,223.0391 L2509.3125,225.1953 L2506.8438,225.1953 L2506.8438,233.2734 L2509.3125,233.2734 L2509.3125,235.4297 L2501.9219,235.4297 L2501.9219,233.2734 L2504.3906,233.2734 L2504.3906,225.1953 L2501.9219,225.1953 Z " fill="#000000"/><text fill="#000000" font-family="sans-serif" font-size="14" font-style="italic" lengthAdjust="spacing" textLength="290" x="2520" y="234.2764">StandalonePriceSetDiscountedPriceAction</text><line style="stroke:#181818;stroke-width:0.5;" x1="2492" x2="2812" y1="245.4297" y2="245.4297"/><text fill="#000000" font-family="sans-serif" font-size="14" lengthAdjust="spacing" textLength="91" x="2497" y="262.4248">action: String</text><text fill="#000000" font-family="sans-serif" font-size="14" lengthAdjust="spacing" textLength="83" x="2497" y="278.7217">discounted:</text><a href="DiscountedPriceDraft.svg" target="_top" title="DiscountedPriceDraft.svg" xlink:actuate="onRequest" xlink:href="DiscountedPriceDraft.svg" xlink:show="new" xlink:title="DiscountedPriceDraft.svg" xlink:type="simple"><text fill="#0000FF" font-family="sans-serif" font-size="14" lengthAdjust="spacing" text-decoration="underline" textLength="147" x="2584" y="278.7217">DiscountedPriceDraft</text></a></g></a><!--MD5=[fca1c72c02e47fefdccf2467450e3825]
class StandalonePriceSetKeyAction--><a href="StandalonePriceSetKeyAction.svg" target="_top" title="StandalonePriceSetKeyAction.svg" xlink:actuate="onRequest" xlink:href="StandalonePriceSetKeyAction.svg" xlink:show="new" xlink:title="StandalonePriceSetKeyAction.svg" xlink:type="simple"><g id="elem_StandalonePriceSetKeyAction"><rect codeLine="41" fill="#F1F1F1" height="72.5938" id="StandalonePriceSetKeyAction" rx="2.5" ry="2.5" style="stroke:#181818;stroke-width:0.5;" width="236" x="1917" y="213.4297"/><ellipse cx="1932" cy="229.4297" fill="#B4A7E5" rx="11" ry="11" style="stroke:#181818;stroke-width:1.0;"/><path d="M1927.9219,225.1953 L1927.9219,223.0391 L1935.3125,223.0391 L1935.3125,225.1953 L1932.8438,225.1953 L1932.8438,233.2734 L1935.3125,233.2734 L1935.3125,235.4297 L1927.9219,235.4297 L1927.9219,233.2734 L1930.3906,233.2734 L1930.3906,225.1953 L1927.9219,225.1953 Z " fill="#000000"/><text fill="#000000" font-family="sans-serif" font-size="14" font-style="italic" lengthAdjust="spacing" textLength="204" x="1946" y="234.2764">StandalonePriceSetKeyAction</text><line style="stroke:#181818;stroke-width:0.5;" x1="1918" x2="2152" y1="245.4297" y2="245.4297"/><text fill="#000000" font-family="sans-serif" font-size="14" lengthAdjust="spacing" textLength="91" x="1923" y="262.4248">action: String</text><text fill="#000000" font-family="sans-serif" font-size="14" lengthAdjust="spacing" textLength="73" x="1923" y="278.7217">key: String</text></g></a><!--MD5=[9241d2b8321874dd414364bbfcca1483]
class StandalonePriceSetValidFromAction--><a href="StandalonePriceSetValidFromAction.svg" target="_top" title="StandalonePriceSetValidFromAction.svg" xlink:actuate="onRequest" xlink:href="StandalonePriceSetValidFromAction.svg" xlink:show="new" xlink:title="StandalonePriceSetValidFromAction.svg" xlink:type="simple"><g id="elem_StandalonePriceSetValidFromAction"><rect codeLine="45" fill="#F1F1F1" height="72.5938" id="StandalonePriceSetValidFromAction" rx="2.5" ry="2.5" style="stroke:#181818;stroke-width:0.5;" width="278" x="655" y="213.4297"/><ellipse cx="670" cy="229.4297" fill="#B4A7E5" rx="11" ry="11" style="stroke:#181818;stroke-width:1.0;"/><path d="M665.9219,225.1953 L665.9219,223.0391 L673.3125,223.0391 L673.3125,225.1953 L670.8438,225.1953 L670.8438,233.2734 L673.3125,233.2734 L673.3125,235.4297 L665.9219,235.4297 L665.9219,233.2734 L668.3906,233.2734 L668.3906,225.1953 L665.9219,225.1953 Z " fill="#000000"/><text fill="#000000" font-family="sans-serif" font-size="14" font-style="italic" lengthAdjust="spacing" textLength="246" x="684" y="234.2764">StandalonePriceSetValidFromAction</text><line style="stroke:#181818;stroke-width:0.5;" x1="656" x2="932" y1="245.4297" y2="245.4297"/><text fill="#000000" font-family="sans-serif" font-size="14" lengthAdjust="spacing" textLength="91" x="661" y="262.4248">action: String</text><text fill="#000000" font-family="sans-serif" font-size="14" lengthAdjust="spacing" textLength="141" x="661" y="278.7217">validFrom: DateTime</text></g></a><!--MD5=[35d78fb82637cc9f72d8de84b169e6e0]
class StandalonePriceSetValidFromAndUntilAction--><a href="StandalonePriceSetValidFromAndUntilAction.svg" target="_top" title="StandalonePriceSetValidFromAndUntilAction.svg" xlink:actuate="onRequest" xlink:href="StandalonePriceSetValidFromAndUntilAction.svg" xlink:show="new" xlink:title="StandalonePriceSetValidFromAndUntilAction.svg" xlink:type="simple"><g id="elem_StandalonePriceSetValidFromAndUntilAction"><rect codeLine="49" fill="#F1F1F1" height="88.8906" id="StandalonePriceSetValidFromAndUntilAction" rx="2.5" ry="2.5" style="stroke:#181818;stroke-width:0.5;" width="336" x="1561" y="213.4297"/><ellipse cx="1576" cy="229.4297" fill="#B4A7E5" rx="11" ry="11" style="stroke:#181818;stroke-width:1.0;"/><path d="M1571.9219,225.1953 L1571.9219,223.0391 L1579.3125,223.0391 L1579.3125,225.1953 L1576.8438,225.1953 L1576.8438,233.2734 L1579.3125,233.2734 L1579.3125,235.4297 L1571.9219,235.4297 L1571.9219,233.2734 L1574.3906,233.2734 L1574.3906,225.1953 L1571.9219,225.1953 Z " fill="#000000"/><text fill="#000000" font-family="sans-serif" font-size="14" font-style="italic" lengthAdjust="spacing" textLength="304" x="1590" y="234.2764">StandalonePriceSetValidFromAndUntilAction</text><line style="stroke:#181818;stroke-width:0.5;" x1="1562" x2="1896" y1="245.4297" y2="245.4297"/><text fill="#000000" font-family="sans-serif" font-size="14" lengthAdjust="spacing" textLength="91" x="1567" y="262.4248">action: String</text><text fill="#000000" font-family="sans-serif" font-size="14" lengthAdjust="spacing" textLength="141" x="1567" y="278.7217">validFrom: DateTime</text><text fill="#000000" font-family="sans-serif" font-size="14" lengthAdjust="spacing" textLength="136" x="1567" y="295.0186">validUntil: DateTime</text></g></a><!--MD5=[eccf848fb893477d22f03fa131e3ee19]
class StandalonePriceSetValidUntilAction--><a href="StandalonePriceSetValidUntilAction.svg" target="_top" title="StandalonePriceSetValidUntilAction.svg" xlink:actuate="onRequest" xlink:href="StandalonePriceSetValidUntilAction.svg" xlink:show="new" xlink:title="StandalonePriceSetValidUntilAction.svg" xlink:type="simple"><g id="elem_StandalonePriceSetValidUntilAction"><rect codeLine="54" fill="#F1F1F1" height="72.5938" id="StandalonePriceSetValidUntilAction" rx="2.5" ry="2.5" style="stroke:#181818;stroke-width:0.5;" width="273" x="953" y="213.4297"/><ellipse cx="968" cy="229.4297" fill="#B4A7E5" rx="11" ry="11" style="stroke:#181818;stroke-width:1.0;"/><path d="M963.9219,225.1953 L963.9219,223.0391 L971.3125,223.0391 L971.3125,225.1953 L968.8438,225.1953 L968.8438,233.2734 L971.3125,233.2734 L971.3125,235.4297 L963.9219,235.4297 L963.9219,233.2734 L966.3906,233.2734 L966.3906,225.1953 L963.9219,225.1953 Z " fill="#000000"/><text fill="#000000" font-family="sans-serif" font-size="14" font-style="italic" lengthAdjust="spacing" textLength="241" x="982" y="234.2764">StandalonePriceSetValidUntilAction</text><line style="stroke:#181818;stroke-width:0.5;" x1="954" x2="1225" y1="245.4297" y2="245.4297"/><text fill="#000000" font-family="sans-serif" font-size="14" lengthAdjust="spacing" textLength="91" x="959" y="262.4248">action: String</text><text fill="#000000" font-family="sans-serif" font-size="14" lengthAdjust="spacing" textLength="136" x="959" y="278.7217">validUntil: DateTime</text></g></a><!--MD5=[968ff400ef03a2c79b6ba77959713e8c]
class StandalonePriceUpdate--><a href="StandalonePriceUpdate.svg" target="_top" title="StandalonePriceUpdate.svg" xlink:actuate="onRequest" xlink:href="StandalonePriceUpdate.svg" xlink:show="new" xlink:title="StandalonePriceUpdate.svg" xlink:type="simple"><g id="elem_StandalonePriceUpdate"><rect codeLine="58" fill="#F1F1F1" height="72.5938" id="StandalonePriceUpdate" rx="2.5" ry="2.5" style="stroke:#181818;stroke-width:0.5;" width="323" x="312" y="213.4297"/><ellipse cx="388.75" cy="229.4297" fill="#B4A7E5" rx="11" ry="11" style="stroke:#181818;stroke-width:1.0;"/><path d="M384.6719,225.1953 L384.6719,223.0391 L392.0625,223.0391 L392.0625,225.1953 L389.5938,225.1953 L389.5938,233.2734 L392.0625,233.2734 L392.0625,235.4297 L384.6719,235.4297 L384.6719,233.2734 L387.1406,233.2734 L387.1406,225.1953 L384.6719,225.1953 Z " fill="#000000"/><text fill="#000000" font-family="sans-serif" font-size="14" font-style="italic" lengthAdjust="spacing" textLength="161" x="409.25" y="234.2764">StandalonePriceUpdate</text><line style="stroke:#181818;stroke-width:0.5;" x1="313" x2="634" y1="245.4297" y2="245.4297"/><text fill="#000000" font-family="sans-serif" font-size="14" lengthAdjust="spacing" textLength="93" x="318" y="262.4248">version: Long</text><text fill="#000000" font-family="sans-serif" font-size="14" lengthAdjust="spacing" textLength="55" x="318" y="278.7217">actions:</text><a href="StandalonePriceUpdateAction.svg" target="_top" title="StandalonePriceUpdateAction.svg" xlink:actuate="onRequest" xlink:href="StandalonePriceUpdateAction.svg" xlink:show="new" xlink:title="StandalonePriceUpdateAction.svg" xlink:type="simple"><text fill="#0000FF" font-family="sans-serif" font-size="14" lengthAdjust="spacing" text-decoration="underline" textLength="252" x="377" y="278.7217">List&lt;StandalonePriceUpdateAction&gt;</text></a></g></a><line style="stroke:#0000FF;stroke-width:1.0;" x1="329.75" x2="329.75" y1="68.2969" y2="88.2969"/><line style="stroke:#0000FF;stroke-width:1.0;" x1="329.75" x2="3001" y1="88.2969" y2="88.2969"/><line style="stroke:#0000FF;stroke-width:1.0;" x1="3001" x2="3001" y1="88.2969" y2="213.4297"/><polygon fill="#0000FF" points="3001,213.4297,3005,204.4297,3001,208.4297,2997,204.4297,3001,213.4297" style="stroke:#0000FF;stroke-width:1.0;"/><text fill="#000000" font-family="sans-serif" font-size="13" lengthAdjust="spacing" textLength="187" x="2812" y="190.3638">action : applyStagedChanges</text><line style="stroke:#0000FF;stroke-width:1.0;" x1="349.5" x2="349.5" y1="68.2969" y2="78.2969"/><line style="stroke:#0000FF;stroke-width:1.0;" x1="349.5" x2="3331" y1="78.2969" y2="78.2969"/><line style="stroke:#0000FF;stroke-width:1.0;" x1="3331" x2="3331" y1="78.2969" y2="213.4297"/><polygon fill="#0000FF" points="3331,213.4297,3335,204.4297,3331,208.4297,3327,204.4297,3331,213.4297" style="stroke:#0000FF;stroke-width:1.0;"/><text fill="#000000" font-family="sans-serif" font-size="13" lengthAdjust="spacing" textLength="137" x="3192" y="190.3638">action : changeActive</text><line style="stroke:#0000FF;stroke-width:1.0;" x1="152" x2="152" y1="68.2969" y2="213.4297"/><polygon fill="#0000FF" points="152,213.4297,156,204.4297,152,208.4297,148,204.4297,152,213.4297" style="stroke:#0000FF;stroke-width:1.0;"/><text fill="#000000" font-family="sans-serif" font-size="13" lengthAdjust="spacing" textLength="134" x="16" y="190.3638">action : changeValue</text><line style="stroke:#0000FF;stroke-width:1.0;" x1="231" x2="231" y1="68.2969" y2="138.2969"/><line style="stroke:#0000FF;stroke-width:1.0;" x1="231" x2="1393.5" y1="138.2969" y2="138.2969"/><line style="stroke:#0000FF;stroke-width:1.0;" x1="1393.5" x2="1393.5" y1="138.2969" y2="213.4297"/><polygon fill="#0000FF" points="1393.5,213.4297,1397.5,204.4297,1393.5,208.4297,1389.5,204.4297,1393.5,213.4297" style="stroke:#0000FF;stroke-width:1.0;"/><text fill="#000000" font-family="sans-serif" font-size="13" lengthAdjust="spacing" textLength="150" x="1241.5" y="190.3638">action : setCustomField</text><line style="stroke:#0000FF;stroke-width:1.0;" x1="290.25" x2="290.25" y1="68.2969" y2="108.2969"/><line style="stroke:#0000FF;stroke-width:1.0;" x1="290.25" x2="2322" y1="108.2969" y2="108.2969"/><line style="stroke:#0000FF;stroke-width:1.0;" x1="2322" x2="2322" y1="108.2969" y2="213.4297"/><polygon fill="#0000FF" points="2322,213.4297,2326,204.4297,2322,208.4297,2318,204.4297,2322,213.4297" style="stroke:#0000FF;stroke-width:1.0;"/><text fill="#000000" font-family="sans-serif" font-size="13" lengthAdjust="spacing" textLength="151" x="2169" y="190.3638">action : setCustomType</text><line style="stroke:#0000FF;stroke-width:1.0;" x1="310" x2="310" y1="68.2969" y2="98.2969"/><line style="stroke:#0000FF;stroke-width:1.0;" x1="310" x2="2652" y1="98.2969" y2="98.2969"/><line style="stroke:#0000FF;stroke-width:1.0;" x1="2652" x2="2652" y1="98.2969" y2="213.4297"/><polygon fill="#0000FF" points="2652,213.4297,2656,204.4297,2652,208.4297,2648,204.4297,2652,213.4297" style="stroke:#0000FF;stroke-width:1.0;"/><text fill="#000000" font-family="sans-serif" font-size="13" lengthAdjust="spacing" textLength="174" x="2476" y="190.3638">action : setDiscountedPrice</text><line style="stroke:#0000FF;stroke-width:1.0;" x1="270.5" x2="270.5" y1="68.2969" y2="118.2969"/><line style="stroke:#0000FF;stroke-width:1.0;" x1="270.5" x2="2035" y1="118.2969" y2="118.2969"/><line style="stroke:#0000FF;stroke-width:1.0;" x1="2035" x2="2035" y1="118.2969" y2="213.4297"/><polygon fill="#0000FF" points="2035,213.4297,2039,204.4297,2035,208.4297,2031,204.4297,2035,213.4297" style="stroke:#0000FF;stroke-width:1.0;"/><text fill="#000000" font-family="sans-serif" font-size="13" lengthAdjust="spacing" textLength="94" x="1939" y="190.3638">action : setKey</text><line style="stroke:#0000FF;stroke-width:1.0;" x1="191.5" x2="191.5" y1="68.2969" y2="158.2969"/><line style="stroke:#0000FF;stroke-width:1.0;" x1="191.5" x2="794" y1="158.2969" y2="158.2969"/><line style="stroke:#0000FF;stroke-width:1.0;" x1="794" x2="794" y1="158.2969" y2="213.4297"/><polygon fill="#0000FF" points="794,213.4297,798,204.4297,794,208.4297,790,204.4297,794,213.4297" style="stroke:#0000FF;stroke-width:1.0;"/><text fill="#000000" font-family="sans-serif" font-size="13" lengthAdjust="spacing" textLength="135" x="657" y="190.3638">action : setValidFrom</text><line style="stroke:#0000FF;stroke-width:1.0;" x1="250.75" x2="250.75" y1="68.2969" y2="128.2969"/><line style="stroke:#0000FF;stroke-width:1.0;" x1="250.75" x2="1729" y1="128.2969" y2="128.2969"/><line style="stroke:#0000FF;stroke-width:1.0;" x1="1729" x2="1729" y1="128.2969" y2="213.4297"/><polygon fill="#0000FF" points="1729,213.4297,1733,204.4297,1729,208.4297,1725,204.4297,1729,213.4297" style="stroke:#0000FF;stroke-width:1.0;"/><text fill="#000000" font-family="sans-serif" font-size="13" lengthAdjust="spacing" textLength="189" x="1538" y="190.3638">action : setValidFromAndUntil</text><line style="stroke:#0000FF;stroke-width:1.0;" x1="211.25" x2="211.25" y1="68.2969" y2="148.2969"/><line style="stroke:#0000FF;stroke-width:1.0;" x1="211.25" x2="1089.5" y1="148.2969" y2="148.2969"/><line style="stroke:#0000FF;stroke-width:1.0;" x1="1089.5" x2="1089.5" y1="148.2969" y2="213.4297"/><polygon fill="#0000FF" points="1089.5,213.4297,1093.5,204.4297,1089.5,208.4297,1085.5,204.4297,1089.5,213.4297" style="stroke:#0000FF;stroke-width:1.0;"/><text fill="#000000" font-family="sans-serif" font-size="13" lengthAdjust="spacing" textLength="131" x="956.5" y="190.3638">action : setValidUntil</text><line style="stroke:#008000;stroke-width:1.0;" x1="171.75" x2="171.75" y1="68.2969" y2="168.2969"/><line style="stroke:#008000;stroke-width:1.0;" x1="171.75" x2="473.5" y1="168.2969" y2="168.2969"/><line style="stroke:#008000;stroke-width:1.0;" x1="473.5" x2="473.5" y1="168.2969" y2="213.4297"/><polygon fill="#008000" points="473.5,213.4297,477.5,204.4297,473.5,208.4297,469.5,204.4297,473.5,213.4297" style="stroke:#008000;stroke-width:1.0;"/><text fill="#000000" font-family="sans-serif" font-size="13" lengthAdjust="spacing" textLength="46" x="425.5" y="190.3638">actions</text><rect fill="#DDDDDD" height="79.1875" id="_legend" rx="7.5" ry="7.5" style="stroke:#000000;stroke-width:1.0;" width="161" x="1650" y="303.3203"/><text fill="#000000" font-family="sans-serif" font-size="14" font-weight="bold" lengthAdjust="spacing" textLength="5" x="1655" y="323.3154"> </text><text fill="#000000" font-family="sans-serif" font-size="14" font-weight="bold" lengthAdjust="spacing" textLength="28" x="1672" y="323.3154">line</text><text fill="#000000" filter="url(#bsnmawsd15zn90)" font-family="sans-serif" font-size="14" lengthAdjust="spacing" textLength="12" x="1655" y="339.6123">   </text><text fill="#000000" font-family="sans-serif" font-size="14" lengthAdjust="spacing" textLength="77" x="1671" y="339.6123">inheritance</text><text fill="#000000" filter="url(#bsnmawsd15zn91)" font-family="sans-serif" font-size="14" lengthAdjust="spacing" textLength="12" x="1655" y="355.9092">   </text><text fill="#000000" font-family="sans-serif" font-size="14" lengthAdjust="spacing" textLength="129" x="1671" y="355.9092">property reference</text><text fill="#000000" filter="url(#bsnmawsd15zn92)" font-family="sans-serif" font-size="14" lengthAdjust="spacing" textLength="12" x="1655" y="372.2061">   </text><text fill="#000000" font-family="sans-serif" font-size="14" lengthAdjust="spacing" textLength="131" x="1671" y="372.2061">discriminated class</text><line style="stroke:#000000;stroke-width:1.0;" x1="1655" x2="1806" y1="310.3203" y2="310.3203"/><line style="stroke:#000000;stroke-width:1.0;" x1="1655" x2="1806" y1="326.6172" y2="326.6172"/><line style="stroke:#000000;stroke-width:1.0;" x1="1655" x2="1806" y1="342.9141" y2="342.9141"/><line style="stroke:#000000;stroke-width:1.0;" x1="1655" x2="1806" y1="359.2109" y2="359.2109"/><line style="stroke:#000000;stroke-width:1.0;" x1="1655" x2="1806" y1="375.5078" y2="375.5078"/><line style="stroke:#000000;stroke-width:1.0;" x1="1655" x2="1655" y1="310.3203" y2="375.5078"/><line style="stroke:#000000;stroke-width:1.0;" x1="1667" x2="1667" y1="310.3203" y2="375.5078"/><line style="stroke:#000000;stroke-width:1.0;" x1="1806" x2="1806" y1="310.3203" y2="375.5078"/><!--MD5=[8e2991dcc78f2d764e61e5df1e91285f]
@startuml
!pragma layout elk
hide empty fields
hide empty methods
legend
|= |= line |
|<back:black>   </back>| inheritance |
|<back:green>   </back>| property reference |
|<back:blue>   </back>| discriminated class |
endlegend
interface StandalonePriceUpdateAction [[StandalonePriceUpdateAction.svg]]  {
    action: String
}


interface StandalonePriceApplyStagedChangesAction [[StandalonePriceApplyStagedChangesAction.svg]]  {
    action: String
}
interface StandalonePriceChangeActiveAction [[StandalonePriceChangeActiveAction.svg]]  {
    action: String
    active: Boolean
}
interface StandalonePriceChangeValueAction [[StandalonePriceChangeValueAction.svg]]  {
    action: String
    value: [[Money.svg Money]]
    staged: Boolean
}
interface StandalonePriceSetCustomFieldAction [[StandalonePriceSetCustomFieldAction.svg]]  {
    action: String
    name: String
    value: [[Object.svg Object]]
}
interface StandalonePriceSetCustomTypeAction [[StandalonePriceSetCustomTypeAction.svg]]  {
    action: String
    type: [[TypeResourceIdentifier.svg TypeResourceIdentifier]]
    fields: [[FieldContainer.svg FieldContainer]]
}
interface StandalonePriceSetDiscountedPriceAction [[StandalonePriceSetDiscountedPriceAction.svg]]  {
    action: String
    discounted: [[DiscountedPriceDraft.svg DiscountedPriceDraft]]
}
interface StandalonePriceSetKeyAction [[StandalonePriceSetKeyAction.svg]]  {
    action: String
    key: String
}
interface StandalonePriceSetValidFromAction [[StandalonePriceSetValidFromAction.svg]]  {
    action: String
    validFrom: DateTime
}
interface StandalonePriceSetValidFromAndUntilAction [[StandalonePriceSetValidFromAndUntilAction.svg]]  {
    action: String
    validFrom: DateTime
    validUntil: DateTime
}
interface StandalonePriceSetValidUntilAction [[StandalonePriceSetValidUntilAction.svg]]  {
    action: String
    validUntil: DateTime
}
interface StandalonePriceUpdate [[StandalonePriceUpdate.svg]]  {
    version: Long
    actions: [[StandalonePriceUpdateAction.svg List<StandalonePriceUpdateAction>]]
}
StandalonePriceUpdateAction - -> StandalonePriceApplyStagedChangesAction #blue;text:blue : "action : applyStagedChanges"
StandalonePriceUpdateAction - -> StandalonePriceChangeActiveAction #blue;text:blue : "action : changeActive"
StandalonePriceUpdateAction - -> StandalonePriceChangeValueAction #blue;text:blue : "action : changeValue"
StandalonePriceUpdateAction - -> StandalonePriceSetCustomFieldAction #blue;text:blue : "action : setCustomField"
StandalonePriceUpdateAction - -> StandalonePriceSetCustomTypeAction #blue;text:blue : "action : setCustomType"
StandalonePriceUpdateAction - -> StandalonePriceSetDiscountedPriceAction #blue;text:blue : "action : setDiscountedPrice"
StandalonePriceUpdateAction - -> StandalonePriceSetKeyAction #blue;text:blue : "action : setKey"
StandalonePriceUpdateAction - -> StandalonePriceSetValidFromAction #blue;text:blue : "action : setValidFrom"
StandalonePriceUpdateAction - -> StandalonePriceSetValidFromAndUntilAction #blue;text:blue : "action : setValidFromAndUntil"
StandalonePriceUpdateAction - -> StandalonePriceSetValidUntilAction #blue;text:blue : "action : setValidUntil"
StandalonePriceUpdateAction - -> StandalonePriceUpdate #green;text:green : "actions"
@enduml

PlantUML version 1.2022.13(Sat Nov 19 13:22:17 UTC 2022)
(GPL source distribution)
Java Runtime: OpenJDK Runtime Environment
JVM: OpenJDK 64-Bit Server VM
Default Encoding: UTF-8
Language: en
Country: null
--></g></svg>
