<?xml version="1.0" encoding="UTF-8" standalone="no"?><svg xmlns="http://www.w3.org/2000/svg" xmlns:xlink="http://www.w3.org/1999/xlink" contentStyleType="text/css" height="372px" preserveAspectRatio="none" style="width:2532px;height:372px;background:#FFFFFF;" version="1.1" viewBox="0 0 2532 372" width="2532px" zoomAndPan="magnify"><defs><filter height="1" id="b268d165q74x70" width="1" x="0" y="0"><feFlood flood-color="#000000" result="flood"/><feComposite in="SourceGraphic" in2="flood" operator="over"/></filter><filter height="1" id="b268d165q74x71" width="1" x="0" y="0"><feFlood flood-color="#008000" result="flood"/><feComposite in="SourceGraphic" in2="flood" operator="over"/></filter><filter height="1" id="b268d165q74x72" width="1" x="0" y="0"><feFlood flood-color="#0000FF" result="flood"/><feComposite in="SourceGraphic" in2="flood" operator="over"/></filter></defs><g><!--MD5=[8b302e1e28adb6549a168d71e2898950]
class StandalonePriceUpdateAction--><a href="StandalonePriceUpdateAction.svg" target="_top" title="StandalonePriceUpdateAction.svg" xlink:actuate="onRequest" xlink:href="StandalonePriceUpdateAction.svg" xlink:show="new" xlink:title="StandalonePriceUpdateAction.svg" xlink:type="simple"><g id="elem_StandalonePriceUpdateAction"><rect codeLine="10" fill="#F1F1F1" height="56.2969" id="StandalonePriceUpdateAction" rx="2.5" ry="2.5" style="stroke:#181818;stroke-width:0.5;" width="237" x="2173.3333" y="12"/><ellipse cx="2188.3333" cy="28" fill="#B4A7E5" rx="11" ry="11" style="stroke:#181818;stroke-width:1.0;"/><path d="M2184.2552,23.7656 L2184.2552,21.6094 L2191.6458,21.6094 L2191.6458,23.7656 L2189.1771,23.7656 L2189.1771,31.8438 L2191.6458,31.8438 L2191.6458,34 L2184.2552,34 L2184.2552,31.8438 L2186.724,31.8438 L2186.724,23.7656 L2184.2552,23.7656 Z " fill="#000000"/><text fill="#000000" font-family="sans-serif" font-size="14" font-style="italic" lengthAdjust="spacing" textLength="205" x="2202.3333" y="32.8467">StandalonePriceUpdateAction</text><line style="stroke:#181818;stroke-width:0.5;" x1="2174.3333" x2="2409.3333" y1="44" y2="44"/><text fill="#000000" font-family="sans-serif" font-size="14" lengthAdjust="spacing" textLength="91" x="2179.3333" y="60.9951">action: String</text></g></a><!--MD5=[ac0b9440fcb55a02f191935a6c45aef8]
class StandalonePriceApplyStagedChangesAction--><a href="StandalonePriceApplyStagedChangesAction.svg" target="_top" title="StandalonePriceApplyStagedChangesAction.svg" xlink:actuate="onRequest" xlink:href="StandalonePriceApplyStagedChangesAction.svg" xlink:show="new" xlink:title="StandalonePriceApplyStagedChangesAction.svg" xlink:type="simple"><g id="elem_StandalonePriceApplyStagedChangesAction"><rect codeLine="15" fill="#F1F1F1" height="56.2969" id="StandalonePriceApplyStagedChangesAction" rx="2.5" ry="2.5" style="stroke:#181818;stroke-width:0.5;" width="336" x="1886" y="183.4297"/><ellipse cx="1901" cy="199.4297" fill="#B4A7E5" rx="11" ry="11" style="stroke:#181818;stroke-width:1.0;"/><path d="M1896.9219,195.1953 L1896.9219,193.0391 L1904.3125,193.0391 L1904.3125,195.1953 L1901.8437,195.1953 L1901.8437,203.2734 L1904.3125,203.2734 L1904.3125,205.4297 L1896.9219,205.4297 L1896.9219,203.2734 L1899.3906,203.2734 L1899.3906,195.1953 L1896.9219,195.1953 Z " fill="#000000"/><text fill="#000000" font-family="sans-serif" font-size="14" font-style="italic" lengthAdjust="spacing" textLength="304" x="1915" y="204.2764">StandalonePriceApplyStagedChangesAction</text><line style="stroke:#181818;stroke-width:0.5;" x1="1887" x2="2221" y1="215.4297" y2="215.4297"/><text fill="#000000" font-family="sans-serif" font-size="14" lengthAdjust="spacing" textLength="91" x="1892" y="232.4248">action: String</text></g></a><!--MD5=[df1f6762f35366cc6ac2946f2b2f3788]
class StandalonePriceChangeActiveAction--><a href="StandalonePriceChangeActiveAction.svg" target="_top" title="StandalonePriceChangeActiveAction.svg" xlink:actuate="onRequest" xlink:href="StandalonePriceChangeActiveAction.svg" xlink:show="new" xlink:title="StandalonePriceChangeActiveAction.svg" xlink:type="simple"><g id="elem_StandalonePriceChangeActiveAction"><rect codeLine="18" fill="#F1F1F1" height="72.5938" id="StandalonePriceChangeActiveAction" rx="2.5" ry="2.5" style="stroke:#181818;stroke-width:0.5;" width="284" x="2242" y="183.4297"/><ellipse cx="2257" cy="199.4297" fill="#B4A7E5" rx="11" ry="11" style="stroke:#181818;stroke-width:1.0;"/><path d="M2252.9219,195.1953 L2252.9219,193.0391 L2260.3125,193.0391 L2260.3125,195.1953 L2257.8437,195.1953 L2257.8437,203.2734 L2260.3125,203.2734 L2260.3125,205.4297 L2252.9219,205.4297 L2252.9219,203.2734 L2255.3906,203.2734 L2255.3906,195.1953 L2252.9219,195.1953 Z " fill="#000000"/><text fill="#000000" font-family="sans-serif" font-size="14" font-style="italic" lengthAdjust="spacing" textLength="252" x="2271" y="204.2764">StandalonePriceChangeActiveAction</text><line style="stroke:#181818;stroke-width:0.5;" x1="2243" x2="2525" y1="215.4297" y2="215.4297"/><text fill="#000000" font-family="sans-serif" font-size="14" lengthAdjust="spacing" textLength="91" x="2248" y="232.4248">action: String</text><text fill="#000000" font-family="sans-serif" font-size="14" lengthAdjust="spacing" textLength="106" x="2248" y="248.7217">active: Boolean</text></g></a><!--MD5=[fcda81860b20bc0ad7aa740916a39b48]
class StandalonePriceChangeValueAction--><a href="StandalonePriceChangeValueAction.svg" target="_top" title="StandalonePriceChangeValueAction.svg" xlink:actuate="onRequest" xlink:href="StandalonePriceChangeValueAction.svg" xlink:show="new" xlink:title="StandalonePriceChangeValueAction.svg" xlink:type="simple"><g id="elem_StandalonePriceChangeValueAction"><rect codeLine="22" fill="#F1F1F1" height="88.8906" id="StandalonePriceChangeValueAction" rx="2.5" ry="2.5" style="stroke:#181818;stroke-width:0.5;" width="280" x="12" y="183.4297"/><ellipse cx="27" cy="199.4297" fill="#B4A7E5" rx="11" ry="11" style="stroke:#181818;stroke-width:1.0;"/><path d="M22.9219,195.1953 L22.9219,193.0391 L30.3125,193.0391 L30.3125,195.1953 L27.8438,195.1953 L27.8438,203.2734 L30.3125,203.2734 L30.3125,205.4297 L22.9219,205.4297 L22.9219,203.2734 L25.3906,203.2734 L25.3906,195.1953 L22.9219,195.1953 Z " fill="#000000"/><text fill="#000000" font-family="sans-serif" font-size="14" font-style="italic" lengthAdjust="spacing" textLength="248" x="41" y="204.2764">StandalonePriceChangeValueAction</text><line style="stroke:#181818;stroke-width:0.5;" x1="13" x2="291" y1="215.4297" y2="215.4297"/><text fill="#000000" font-family="sans-serif" font-size="14" lengthAdjust="spacing" textLength="91" x="18" y="232.4248">action: String</text><text fill="#000000" font-family="sans-serif" font-size="14" lengthAdjust="spacing" textLength="41" x="18" y="248.7217">value:</text><a href="Money.svg" target="_top" title="Money.svg" xlink:actuate="onRequest" xlink:href="Money.svg" xlink:show="new" xlink:title="Money.svg" xlink:type="simple"><text fill="#0000FF" font-family="sans-serif" font-size="14" lengthAdjust="spacing" text-decoration="underline" textLength="46" x="63" y="248.7217">Money</text></a><text fill="#000000" font-family="sans-serif" font-size="14" lengthAdjust="spacing" textLength="114" x="18" y="265.0186">staged: Boolean</text></g></a><!--MD5=[01809979955fb5e929ea27c8365e8447]
class StandalonePriceSetCustomFieldAction--><a href="StandalonePriceSetCustomFieldAction.svg" target="_top" title="StandalonePriceSetCustomFieldAction.svg" xlink:actuate="onRequest" xlink:href="StandalonePriceSetCustomFieldAction.svg" xlink:show="new" xlink:title="StandalonePriceSetCustomFieldAction.svg" xlink:type="simple"><g id="elem_StandalonePriceSetCustomFieldAction"><rect codeLine="27" fill="#F1F1F1" height="88.8906" id="StandalonePriceSetCustomFieldAction" rx="2.5" ry="2.5" style="stroke:#181818;stroke-width:0.5;" width="295" x="655" y="183.4297"/><ellipse cx="670" cy="199.4297" fill="#B4A7E5" rx="11" ry="11" style="stroke:#181818;stroke-width:1.0;"/><path d="M665.9219,195.1953 L665.9219,193.0391 L673.3125,193.0391 L673.3125,195.1953 L670.8437,195.1953 L670.8437,203.2734 L673.3125,203.2734 L673.3125,205.4297 L665.9219,205.4297 L665.9219,203.2734 L668.3906,203.2734 L668.3906,195.1953 L665.9219,195.1953 Z " fill="#000000"/><text fill="#000000" font-family="sans-serif" font-size="14" font-style="italic" lengthAdjust="spacing" textLength="263" x="684" y="204.2764">StandalonePriceSetCustomFieldAction</text><line style="stroke:#181818;stroke-width:0.5;" x1="656" x2="949" y1="215.4297" y2="215.4297"/><text fill="#000000" font-family="sans-serif" font-size="14" lengthAdjust="spacing" textLength="91" x="661" y="232.4248">action: String</text><text fill="#000000" font-family="sans-serif" font-size="14" lengthAdjust="spacing" textLength="88" x="661" y="248.7217">name: String</text><text fill="#000000" font-family="sans-serif" font-size="14" lengthAdjust="spacing" textLength="41" x="661" y="265.0186">value:</text><a href="Object.svg" target="_top" title="Object.svg" xlink:actuate="onRequest" xlink:href="Object.svg" xlink:show="new" xlink:title="Object.svg" xlink:type="simple"><text fill="#0000FF" font-family="sans-serif" font-size="14" lengthAdjust="spacing" text-decoration="underline" textLength="45" x="706" y="265.0186">Object</text></a></g></a><!--MD5=[bd2e7396385b0eaa8fea30def5ff64e8]
class StandalonePriceSetCustomTypeAction--><a href="StandalonePriceSetCustomTypeAction.svg" target="_top" title="StandalonePriceSetCustomTypeAction.svg" xlink:actuate="onRequest" xlink:href="StandalonePriceSetCustomTypeAction.svg" xlink:show="new" xlink:title="StandalonePriceSetCustomTypeAction.svg" xlink:type="simple"><g id="elem_StandalonePriceSetCustomTypeAction"><rect codeLine="32" fill="#F1F1F1" height="88.8906" id="StandalonePriceSetCustomTypeAction" rx="2.5" ry="2.5" style="stroke:#181818;stroke-width:0.5;" width="298" x="1226" y="183.4297"/><ellipse cx="1241" cy="199.4297" fill="#B4A7E5" rx="11" ry="11" style="stroke:#181818;stroke-width:1.0;"/><path d="M1236.9219,195.1953 L1236.9219,193.0391 L1244.3125,193.0391 L1244.3125,195.1953 L1241.8437,195.1953 L1241.8437,203.2734 L1244.3125,203.2734 L1244.3125,205.4297 L1236.9219,205.4297 L1236.9219,203.2734 L1239.3906,203.2734 L1239.3906,195.1953 L1236.9219,195.1953 Z " fill="#000000"/><text fill="#000000" font-family="sans-serif" font-size="14" font-style="italic" lengthAdjust="spacing" textLength="266" x="1255" y="204.2764">StandalonePriceSetCustomTypeAction</text><line style="stroke:#181818;stroke-width:0.5;" x1="1227" x2="1523" y1="215.4297" y2="215.4297"/><text fill="#000000" font-family="sans-serif" font-size="14" lengthAdjust="spacing" textLength="91" x="1232" y="232.4248">action: String</text><text fill="#000000" font-family="sans-serif" font-size="14" lengthAdjust="spacing" textLength="35" x="1232" y="248.7217">type:</text><a href="TypeResourceIdentifier.svg" target="_top" title="TypeResourceIdentifier.svg" xlink:actuate="onRequest" xlink:href="TypeResourceIdentifier.svg" xlink:show="new" xlink:title="TypeResourceIdentifier.svg" xlink:type="simple"><text fill="#0000FF" font-family="sans-serif" font-size="14" lengthAdjust="spacing" text-decoration="underline" textLength="160" x="1271" y="248.7217">TypeResourceIdentifier</text></a><text fill="#000000" font-family="sans-serif" font-size="14" lengthAdjust="spacing" textLength="41" x="1232" y="265.0186">fields:</text><a href="FieldContainer.svg" target="_top" title="FieldContainer.svg" xlink:actuate="onRequest" xlink:href="FieldContainer.svg" xlink:show="new" xlink:title="FieldContainer.svg" xlink:type="simple"><text fill="#0000FF" font-family="sans-serif" font-size="14" lengthAdjust="spacing" text-decoration="underline" textLength="99" x="1277" y="265.0186">FieldContainer</text></a></g></a><!--MD5=[00a69fa48ad96c602a389db39fe03a7a]
class StandalonePriceSetDiscountedPriceAction--><a href="StandalonePriceSetDiscountedPriceAction.svg" target="_top" title="StandalonePriceSetDiscountedPriceAction.svg" xlink:actuate="onRequest" xlink:href="StandalonePriceSetDiscountedPriceAction.svg" xlink:show="new" xlink:title="StandalonePriceSetDiscountedPriceAction.svg" xlink:type="simple"><g id="elem_StandalonePriceSetDiscountedPriceAction"><rect codeLine="37" fill="#F1F1F1" height="72.5938" id="StandalonePriceSetDiscountedPriceAction" rx="2.5" ry="2.5" style="stroke:#181818;stroke-width:0.5;" width="322" x="1544" y="183.4297"/><ellipse cx="1559" cy="199.4297" fill="#B4A7E5" rx="11" ry="11" style="stroke:#181818;stroke-width:1.0;"/><path d="M1554.9219,195.1953 L1554.9219,193.0391 L1562.3125,193.0391 L1562.3125,195.1953 L1559.8437,195.1953 L1559.8437,203.2734 L1562.3125,203.2734 L1562.3125,205.4297 L1554.9219,205.4297 L1554.9219,203.2734 L1557.3906,203.2734 L1557.3906,195.1953 L1554.9219,195.1953 Z " fill="#000000"/><text fill="#000000" font-family="sans-serif" font-size="14" font-style="italic" lengthAdjust="spacing" textLength="290" x="1573" y="204.2764">StandalonePriceSetDiscountedPriceAction</text><line style="stroke:#181818;stroke-width:0.5;" x1="1545" x2="1865" y1="215.4297" y2="215.4297"/><text fill="#000000" font-family="sans-serif" font-size="14" lengthAdjust="spacing" textLength="91" x="1550" y="232.4248">action: String</text><text fill="#000000" font-family="sans-serif" font-size="14" lengthAdjust="spacing" textLength="83" x="1550" y="248.7217">discounted:</text><a href="DiscountedPriceDraft.svg" target="_top" title="DiscountedPriceDraft.svg" xlink:actuate="onRequest" xlink:href="DiscountedPriceDraft.svg" xlink:show="new" xlink:title="DiscountedPriceDraft.svg" xlink:type="simple"><text fill="#0000FF" font-family="sans-serif" font-size="14" lengthAdjust="spacing" text-decoration="underline" textLength="147" x="1637" y="248.7217">DiscountedPriceDraft</text></a></g></a><!--MD5=[fca1c72c02e47fefdccf2467450e3825]
class StandalonePriceSetKeyAction--><a href="StandalonePriceSetKeyAction.svg" target="_top" title="StandalonePriceSetKeyAction.svg" xlink:actuate="onRequest" xlink:href="StandalonePriceSetKeyAction.svg" xlink:show="new" xlink:title="StandalonePriceSetKeyAction.svg" xlink:type="simple"><g id="elem_StandalonePriceSetKeyAction"><rect codeLine="41" fill="#F1F1F1" height="72.5938" id="StandalonePriceSetKeyAction" rx="2.5" ry="2.5" style="stroke:#181818;stroke-width:0.5;" width="236" x="970" y="183.4297"/><ellipse cx="985" cy="199.4297" fill="#B4A7E5" rx="11" ry="11" style="stroke:#181818;stroke-width:1.0;"/><path d="M980.9219,195.1953 L980.9219,193.0391 L988.3125,193.0391 L988.3125,195.1953 L985.8437,195.1953 L985.8437,203.2734 L988.3125,203.2734 L988.3125,205.4297 L980.9219,205.4297 L980.9219,203.2734 L983.3906,203.2734 L983.3906,195.1953 L980.9219,195.1953 Z " fill="#000000"/><text fill="#000000" font-family="sans-serif" font-size="14" font-style="italic" lengthAdjust="spacing" textLength="204" x="999" y="204.2764">StandalonePriceSetKeyAction</text><line style="stroke:#181818;stroke-width:0.5;" x1="971" x2="1205" y1="215.4297" y2="215.4297"/><text fill="#000000" font-family="sans-serif" font-size="14" lengthAdjust="spacing" textLength="91" x="976" y="232.4248">action: String</text><text fill="#000000" font-family="sans-serif" font-size="14" lengthAdjust="spacing" textLength="73" x="976" y="248.7217">key: String</text></g></a><!--MD5=[968ff400ef03a2c79b6ba77959713e8c]
class StandalonePriceUpdate--><a href="StandalonePriceUpdate.svg" target="_top" title="StandalonePriceUpdate.svg" xlink:actuate="onRequest" xlink:href="StandalonePriceUpdate.svg" xlink:show="new" xlink:title="StandalonePriceUpdate.svg" xlink:type="simple"><g id="elem_StandalonePriceUpdate"><rect codeLine="45" fill="#F1F1F1" height="72.5938" id="StandalonePriceUpdate" rx="2.5" ry="2.5" style="stroke:#181818;stroke-width:0.5;" width="323" x="312" y="183.4297"/><ellipse cx="388.75" cy="199.4297" fill="#B4A7E5" rx="11" ry="11" style="stroke:#181818;stroke-width:1.0;"/><path d="M384.6719,195.1953 L384.6719,193.0391 L392.0625,193.0391 L392.0625,195.1953 L389.5937,195.1953 L389.5937,203.2734 L392.0625,203.2734 L392.0625,205.4297 L384.6719,205.4297 L384.6719,203.2734 L387.1406,203.2734 L387.1406,195.1953 L384.6719,195.1953 Z " fill="#000000"/><text fill="#000000" font-family="sans-serif" font-size="14" font-style="italic" lengthAdjust="spacing" textLength="161" x="409.25" y="204.2764">StandalonePriceUpdate</text><line style="stroke:#181818;stroke-width:0.5;" x1="313" x2="634" y1="215.4297" y2="215.4297"/><text fill="#000000" font-family="sans-serif" font-size="14" lengthAdjust="spacing" textLength="93" x="318" y="232.4248">version: Long</text><text fill="#000000" font-family="sans-serif" font-size="14" lengthAdjust="spacing" textLength="55" x="318" y="248.7217">actions:</text><a href="StandalonePriceUpdateAction.svg" target="_top" title="StandalonePriceUpdateAction.svg" xlink:actuate="onRequest" xlink:href="StandalonePriceUpdateAction.svg" xlink:show="new" xlink:title="StandalonePriceUpdateAction.svg" xlink:type="simple"><text fill="#0000FF" font-family="sans-serif" font-size="14" lengthAdjust="spacing" text-decoration="underline" textLength="252" x="377" y="248.7217">List&lt;StandalonePriceUpdateAction&gt;</text></a></g></a><line style="stroke:#0000FF;stroke-width:1.0;" x1="2357.6667" x2="2357.6667" y1="68.2969" y2="138.2969"/><line style="stroke:#0000FF;stroke-width:1.0;" x1="2357.6667" x2="2054" y1="138.2969" y2="138.2969"/><line style="stroke:#0000FF;stroke-width:1.0;" x1="2054" x2="2054" y1="138.2969" y2="183.4297"/><polygon fill="#0000FF" points="2054,183.4297,2058,174.4297,2054,178.4297,2050,174.4297,2054,183.4297" style="stroke:#0000FF;stroke-width:1.0;"/><text fill="#000000" font-family="sans-serif" font-size="13" lengthAdjust="spacing" textLength="187" x="1865" y="160.3638">action : applyStagedChanges</text><line style="stroke:#0000FF;stroke-width:1.0;" x1="2384" x2="2384" y1="68.2969" y2="183.4297"/><polygon fill="#0000FF" points="2384,183.4297,2388,174.4297,2384,178.4297,2380,174.4297,2384,183.4297" style="stroke:#0000FF;stroke-width:1.0;"/><text fill="#000000" font-family="sans-serif" font-size="13" lengthAdjust="spacing" textLength="137" x="2245" y="160.3638">action : changeActive</text><line style="stroke:#0000FF;stroke-width:1.0;" x1="2199.6667" x2="2199.6667" y1="68.2969" y2="78.2969"/><line style="stroke:#0000FF;stroke-width:1.0;" x1="2199.6667" x2="152" y1="78.2969" y2="78.2969"/><line style="stroke:#0000FF;stroke-width:1.0;" x1="152" x2="152" y1="78.2969" y2="183.4297"/><polygon fill="#0000FF" points="152,183.4297,156,174.4297,152,178.4297,148,174.4297,152,183.4297" style="stroke:#0000FF;stroke-width:1.0;"/><text fill="#000000" font-family="sans-serif" font-size="13" lengthAdjust="spacing" textLength="134" x="16" y="160.3638">action : changeValue</text><line style="stroke:#0000FF;stroke-width:1.0;" x1="2252.3333" x2="2252.3333" y1="68.2969" y2="98.2969"/><line style="stroke:#0000FF;stroke-width:1.0;" x1="2252.3333" x2="802.5" y1="98.2969" y2="98.2969"/><line style="stroke:#0000FF;stroke-width:1.0;" x1="802.5" x2="802.5" y1="98.2969" y2="183.4297"/><polygon fill="#0000FF" points="802.5,183.4297,806.5,174.4297,802.5,178.4297,798.5,174.4297,802.5,183.4297" style="stroke:#0000FF;stroke-width:1.0;"/><text fill="#000000" font-family="sans-serif" font-size="13" lengthAdjust="spacing" textLength="150" x="650.5" y="160.3638">action : setCustomField</text><line style="stroke:#0000FF;stroke-width:1.0;" x1="2305" x2="2305" y1="68.2969" y2="118.2969"/><line style="stroke:#0000FF;stroke-width:1.0;" x1="2305" x2="1375" y1="118.2969" y2="118.2969"/><line style="stroke:#0000FF;stroke-width:1.0;" x1="1375" x2="1375" y1="118.2969" y2="183.4297"/><polygon fill="#0000FF" points="1375,183.4297,1379,174.4297,1375,178.4297,1371,174.4297,1375,183.4297" style="stroke:#0000FF;stroke-width:1.0;"/><text fill="#000000" font-family="sans-serif" font-size="13" lengthAdjust="spacing" textLength="151" x="1222" y="160.3638">action : setCustomType</text><line style="stroke:#0000FF;stroke-width:1.0;" x1="2331.3333" x2="2331.3333" y1="68.2969" y2="128.2969"/><line style="stroke:#0000FF;stroke-width:1.0;" x1="2331.3333" x2="1705" y1="128.2969" y2="128.2969"/><line style="stroke:#0000FF;stroke-width:1.0;" x1="1705" x2="1705" y1="128.2969" y2="183.4297"/><polygon fill="#0000FF" points="1705,183.4297,1709,174.4297,1705,178.4297,1701,174.4297,1705,183.4297" style="stroke:#0000FF;stroke-width:1.0;"/><text fill="#000000" font-family="sans-serif" font-size="13" lengthAdjust="spacing" textLength="174" x="1529" y="160.3638">action : setDiscountedPrice</text><line style="stroke:#0000FF;stroke-width:1.0;" x1="2278.6667" x2="2278.6667" y1="68.2969" y2="108.2969"/><line style="stroke:#0000FF;stroke-width:1.0;" x1="2278.6667" x2="1088" y1="108.2969" y2="108.2969"/><line style="stroke:#0000FF;stroke-width:1.0;" x1="1088" x2="1088" y1="108.2969" y2="183.4297"/><polygon fill="#0000FF" points="1088,183.4297,1092,174.4297,1088,178.4297,1084,174.4297,1088,183.4297" style="stroke:#0000FF;stroke-width:1.0;"/><text fill="#000000" font-family="sans-serif" font-size="13" lengthAdjust="spacing" textLength="94" x="992" y="160.3638">action : setKey</text><line style="stroke:#008000;stroke-width:1.0;" x1="2226" x2="2226" y1="68.2969" y2="88.2969"/><line style="stroke:#008000;stroke-width:1.0;" x1="2226" x2="473.5" y1="88.2969" y2="88.2969"/><line style="stroke:#008000;stroke-width:1.0;" x1="473.5" x2="473.5" y1="88.2969" y2="183.4297"/><polygon fill="#008000" points="473.5,183.4297,477.5,174.4297,473.5,178.4297,469.5,174.4297,473.5,183.4297" style="stroke:#008000;stroke-width:1.0;"/><text fill="#000000" font-family="sans-serif" font-size="13" lengthAdjust="spacing" textLength="46" x="425.5" y="160.3638">actions</text><rect fill="#DDDDDD" height="79.1875" id="_legend" rx="7.5" ry="7.5" style="stroke:#000000;stroke-width:1.0;" width="161" x="1176.5" y="273.3203"/><text fill="#000000" font-family="sans-serif" font-size="14" font-weight="bold" lengthAdjust="spacing" textLength="5" x="1181.5" y="293.3154"> </text><text fill="#000000" font-family="sans-serif" font-size="14" font-weight="bold" lengthAdjust="spacing" textLength="28" x="1198.5" y="293.3154">line</text><text fill="#000000" filter="url(#b268d165q74x70)" font-family="sans-serif" font-size="14" lengthAdjust="spacing" textLength="12" x="1181.5" y="309.6123">   </text><text fill="#000000" font-family="sans-serif" font-size="14" lengthAdjust="spacing" textLength="77" x="1197.5" y="309.6123">inheritance</text><text fill="#000000" filter="url(#b268d165q74x71)" font-family="sans-serif" font-size="14" lengthAdjust="spacing" textLength="12" x="1181.5" y="325.9092">   </text><text fill="#000000" font-family="sans-serif" font-size="14" lengthAdjust="spacing" textLength="129" x="1197.5" y="325.9092">property reference</text><text fill="#000000" filter="url(#b268d165q74x72)" font-family="sans-serif" font-size="14" lengthAdjust="spacing" textLength="12" x="1181.5" y="342.2061">   </text><text fill="#000000" font-family="sans-serif" font-size="14" lengthAdjust="spacing" textLength="131" x="1197.5" y="342.2061">discriminated class</text><line style="stroke:#000000;stroke-width:1.0;" x1="1181.5" x2="1332.5" y1="280.3203" y2="280.3203"/><line style="stroke:#000000;stroke-width:1.0;" x1="1181.5" x2="1332.5" y1="296.6172" y2="296.6172"/><line style="stroke:#000000;stroke-width:1.0;" x1="1181.5" x2="1332.5" y1="312.9141" y2="312.9141"/><line style="stroke:#000000;stroke-width:1.0;" x1="1181.5" x2="1332.5" y1="329.2109" y2="329.2109"/><line style="stroke:#000000;stroke-width:1.0;" x1="1181.5" x2="1332.5" y1="345.5078" y2="345.5078"/><line style="stroke:#000000;stroke-width:1.0;" x1="1181.5" x2="1181.5" y1="280.3203" y2="345.5078"/><line style="stroke:#000000;stroke-width:1.0;" x1="1193.5" x2="1193.5" y1="280.3203" y2="345.5078"/><line style="stroke:#000000;stroke-width:1.0;" x1="1332.5" x2="1332.5" y1="280.3203" y2="345.5078"/><!--MD5=[8ed67ce3df666f67772754c6c32ed471]
@startuml
!pragma layout elk
hide empty fields
hide empty methods
legend
|= |= line |
|<back:black>   </back>| inheritance |
|<back:green>   </back>| property reference |
|<back:blue>   </back>| discriminated class |
endlegend
interface StandalonePriceUpdateAction [[StandalonePriceUpdateAction.svg]]  {
    action: String
}


interface StandalonePriceApplyStagedChangesAction [[StandalonePriceApplyStagedChangesAction.svg]]  {
    action: String
}
interface StandalonePriceChangeActiveAction [[StandalonePriceChangeActiveAction.svg]]  {
    action: String
    active: Boolean
}
interface StandalonePriceChangeValueAction [[StandalonePriceChangeValueAction.svg]]  {
    action: String
    value: [[Money.svg Money]]
    staged: Boolean
}
interface StandalonePriceSetCustomFieldAction [[StandalonePriceSetCustomFieldAction.svg]]  {
    action: String
    name: String
    value: [[Object.svg Object]]
}
interface StandalonePriceSetCustomTypeAction [[StandalonePriceSetCustomTypeAction.svg]]  {
    action: String
    type: [[TypeResourceIdentifier.svg TypeResourceIdentifier]]
    fields: [[FieldContainer.svg FieldContainer]]
}
interface StandalonePriceSetDiscountedPriceAction [[StandalonePriceSetDiscountedPriceAction.svg]]  {
    action: String
    discounted: [[DiscountedPriceDraft.svg DiscountedPriceDraft]]
}
interface StandalonePriceSetKeyAction [[StandalonePriceSetKeyAction.svg]]  {
    action: String
    key: String
}
interface StandalonePriceUpdate [[StandalonePriceUpdate.svg]]  {
    version: Long
    actions: [[StandalonePriceUpdateAction.svg List<StandalonePriceUpdateAction>]]
}
StandalonePriceUpdateAction - -> StandalonePriceApplyStagedChangesAction #blue;text:blue : "action : applyStagedChanges"
StandalonePriceUpdateAction - -> StandalonePriceChangeActiveAction #blue;text:blue : "action : changeActive"
StandalonePriceUpdateAction - -> StandalonePriceChangeValueAction #blue;text:blue : "action : changeValue"
StandalonePriceUpdateAction - -> StandalonePriceSetCustomFieldAction #blue;text:blue : "action : setCustomField"
StandalonePriceUpdateAction - -> StandalonePriceSetCustomTypeAction #blue;text:blue : "action : setCustomType"
StandalonePriceUpdateAction - -> StandalonePriceSetDiscountedPriceAction #blue;text:blue : "action : setDiscountedPrice"
StandalonePriceUpdateAction - -> StandalonePriceSetKeyAction #blue;text:blue : "action : setKey"
StandalonePriceUpdateAction - -> StandalonePriceUpdate #green;text:green : "actions"
@enduml

PlantUML version 1.2022.13(Sat Nov 19 13:22:17 UTC 2022)
(GPL source distribution)
Java Runtime: OpenJDK Runtime Environment
JVM: OpenJDK 64-Bit Server VM
Default Encoding: UTF-8
Language: en
Country: null
--></g></svg>
