<?xml version="1.0" encoding="UTF-8" standalone="no"?><svg xmlns="http://www.w3.org/2000/svg" xmlns:xlink="http://www.w3.org/1999/xlink" contentStyleType="text/css" height="442px" preserveAspectRatio="none" style="width:4769px;height:442px;background:#FFFFFF;" version="1.1" viewBox="0 0 4769 442" width="4769px" zoomAndPan="magnify"><defs><filter height="1" id="b1mow5r73hhmim0" width="1" x="0" y="0"><feFlood flood-color="#000000" result="flood"/><feComposite in="SourceGraphic" in2="flood" operator="over"/></filter><filter height="1" id="b1mow5r73hhmim1" width="1" x="0" y="0"><feFlood flood-color="#008000" result="flood"/><feComposite in="SourceGraphic" in2="flood" operator="over"/></filter><filter height="1" id="b1mow5r73hhmim2" width="1" x="0" y="0"><feFlood flood-color="#0000FF" result="flood"/><feComposite in="SourceGraphic" in2="flood" operator="over"/></filter></defs><g><!--MD5=[8b302e1e28adb6549a168d71e2898950]
class StandalonePriceUpdateAction--><a href="StandalonePriceUpdateAction.svg" target="_top" title="StandalonePriceUpdateAction.svg" xlink:actuate="onRequest" xlink:href="StandalonePriceUpdateAction.svg" xlink:show="new" xlink:title="StandalonePriceUpdateAction.svg" xlink:type="simple"><g id="elem_StandalonePriceUpdateAction"><rect codeLine="10" fill="#F1F1F1" height="56.2969" id="StandalonePriceUpdateAction" rx="2.5" ry="2.5" style="stroke:#181818;stroke-width:0.5;" width="237" x="139.1875" y="12"/><ellipse cx="154.1875" cy="28" fill="#B4A7E5" rx="11" ry="11" style="stroke:#181818;stroke-width:1.0;"/><path d="M150.1094,23.7656 L150.1094,21.6094 L157.5,21.6094 L157.5,23.7656 L155.0313,23.7656 L155.0313,31.8438 L157.5,31.8438 L157.5,34 L150.1094,34 L150.1094,31.8438 L152.5781,31.8438 L152.5781,23.7656 L150.1094,23.7656 Z " fill="#000000"/><text fill="#000000" font-family="sans-serif" font-size="14" font-style="italic" lengthAdjust="spacing" textLength="205" x="168.1875" y="32.8467">StandalonePriceUpdateAction</text><line style="stroke:#181818;stroke-width:0.5;" x1="140.1875" x2="375.1875" y1="44" y2="44"/><text fill="#000000" font-family="sans-serif" font-size="14" lengthAdjust="spacing" textLength="91" x="145.1875" y="60.9951">action: String</text></g></a><!--MD5=[a8b95ebb0f41c1795a321e3b8b09aee9]
class StandalonePriceAddPriceTierAction--><a href="StandalonePriceAddPriceTierAction.svg" target="_top" title="StandalonePriceAddPriceTierAction.svg" xlink:actuate="onRequest" xlink:href="StandalonePriceAddPriceTierAction.svg" xlink:show="new" xlink:title="StandalonePriceAddPriceTierAction.svg" xlink:type="simple"><g id="elem_StandalonePriceAddPriceTierAction"><rect codeLine="15" fill="#F1F1F1" height="72.5938" id="StandalonePriceAddPriceTierAction" rx="2.5" ry="2.5" style="stroke:#181818;stroke-width:0.5;" width="274" x="4132" y="253.4297"/><ellipse cx="4147" cy="269.4297" fill="#B4A7E5" rx="11" ry="11" style="stroke:#181818;stroke-width:1.0;"/><path d="M4142.9219,265.1953 L4142.9219,263.0391 L4150.3125,263.0391 L4150.3125,265.1953 L4147.8438,265.1953 L4147.8438,273.2734 L4150.3125,273.2734 L4150.3125,275.4297 L4142.9219,275.4297 L4142.9219,273.2734 L4145.3906,273.2734 L4145.3906,265.1953 L4142.9219,265.1953 Z " fill="#000000"/><text fill="#000000" font-family="sans-serif" font-size="14" font-style="italic" lengthAdjust="spacing" textLength="242" x="4161" y="274.2764">StandalonePriceAddPriceTierAction</text><line style="stroke:#181818;stroke-width:0.5;" x1="4133" x2="4405" y1="285.4297" y2="285.4297"/><text fill="#000000" font-family="sans-serif" font-size="14" lengthAdjust="spacing" textLength="91" x="4138" y="302.4248">action: String</text><text fill="#000000" font-family="sans-serif" font-size="14" lengthAdjust="spacing" textLength="27" x="4138" y="318.7217">tier:</text><a href="PriceTierDraft.svg" target="_top" title="PriceTierDraft.svg" xlink:actuate="onRequest" xlink:href="PriceTierDraft.svg" xlink:show="new" xlink:title="PriceTierDraft.svg" xlink:type="simple"><text fill="#0000FF" font-family="sans-serif" font-size="14" lengthAdjust="spacing" text-decoration="underline" textLength="93" x="4169" y="318.7217">PriceTierDraft</text></a></g></a><!--MD5=[ac0b9440fcb55a02f191935a6c45aef8]
class StandalonePriceApplyStagedChangesAction--><a href="StandalonePriceApplyStagedChangesAction.svg" target="_top" title="StandalonePriceApplyStagedChangesAction.svg" xlink:actuate="onRequest" xlink:href="StandalonePriceApplyStagedChangesAction.svg" xlink:show="new" xlink:title="StandalonePriceApplyStagedChangesAction.svg" xlink:type="simple"><g id="elem_StandalonePriceApplyStagedChangesAction"><rect codeLine="19" fill="#F1F1F1" height="56.2969" id="StandalonePriceApplyStagedChangesAction" rx="2.5" ry="2.5" style="stroke:#181818;stroke-width:0.5;" width="336" x="4426" y="253.4297"/><ellipse cx="4441" cy="269.4297" fill="#B4A7E5" rx="11" ry="11" style="stroke:#181818;stroke-width:1.0;"/><path d="M4436.9219,265.1953 L4436.9219,263.0391 L4444.3125,263.0391 L4444.3125,265.1953 L4441.8438,265.1953 L4441.8438,273.2734 L4444.3125,273.2734 L4444.3125,275.4297 L4436.9219,275.4297 L4436.9219,273.2734 L4439.3906,273.2734 L4439.3906,265.1953 L4436.9219,265.1953 Z " fill="#000000"/><text fill="#000000" font-family="sans-serif" font-size="14" font-style="italic" lengthAdjust="spacing" textLength="304" x="4455" y="274.2764">StandalonePriceApplyStagedChangesAction</text><line style="stroke:#181818;stroke-width:0.5;" x1="4427" x2="4761" y1="285.4297" y2="285.4297"/><text fill="#000000" font-family="sans-serif" font-size="14" lengthAdjust="spacing" textLength="91" x="4432" y="302.4248">action: String</text></g></a><!--MD5=[df1f6762f35366cc6ac2946f2b2f3788]
class StandalonePriceChangeActiveAction--><a href="StandalonePriceChangeActiveAction.svg" target="_top" title="StandalonePriceChangeActiveAction.svg" xlink:actuate="onRequest" xlink:href="StandalonePriceChangeActiveAction.svg" xlink:show="new" xlink:title="StandalonePriceChangeActiveAction.svg" xlink:type="simple"><g id="elem_StandalonePriceChangeActiveAction"><rect codeLine="22" fill="#F1F1F1" height="72.5938" id="StandalonePriceChangeActiveAction" rx="2.5" ry="2.5" style="stroke:#181818;stroke-width:0.5;" width="284" x="12" y="253.4297"/><ellipse cx="27" cy="269.4297" fill="#B4A7E5" rx="11" ry="11" style="stroke:#181818;stroke-width:1.0;"/><path d="M22.9219,265.1953 L22.9219,263.0391 L30.3125,263.0391 L30.3125,265.1953 L27.8438,265.1953 L27.8438,273.2734 L30.3125,273.2734 L30.3125,275.4297 L22.9219,275.4297 L22.9219,273.2734 L25.3906,273.2734 L25.3906,265.1953 L22.9219,265.1953 Z " fill="#000000"/><text fill="#000000" font-family="sans-serif" font-size="14" font-style="italic" lengthAdjust="spacing" textLength="252" x="41" y="274.2764">StandalonePriceChangeActiveAction</text><line style="stroke:#181818;stroke-width:0.5;" x1="13" x2="295" y1="285.4297" y2="285.4297"/><text fill="#000000" font-family="sans-serif" font-size="14" lengthAdjust="spacing" textLength="91" x="18" y="302.4248">action: String</text><text fill="#000000" font-family="sans-serif" font-size="14" lengthAdjust="spacing" textLength="106" x="18" y="318.7217">active: Boolean</text></g></a><!--MD5=[fcda81860b20bc0ad7aa740916a39b48]
class StandalonePriceChangeValueAction--><a href="StandalonePriceChangeValueAction.svg" target="_top" title="StandalonePriceChangeValueAction.svg" xlink:actuate="onRequest" xlink:href="StandalonePriceChangeValueAction.svg" xlink:show="new" xlink:title="StandalonePriceChangeValueAction.svg" xlink:type="simple"><g id="elem_StandalonePriceChangeValueAction"><rect codeLine="26" fill="#F1F1F1" height="88.8906" id="StandalonePriceChangeValueAction" rx="2.5" ry="2.5" style="stroke:#181818;stroke-width:0.5;" width="280" x="1186" y="253.4297"/><ellipse cx="1201" cy="269.4297" fill="#B4A7E5" rx="11" ry="11" style="stroke:#181818;stroke-width:1.0;"/><path d="M1196.9219,265.1953 L1196.9219,263.0391 L1204.3125,263.0391 L1204.3125,265.1953 L1201.8438,265.1953 L1201.8438,273.2734 L1204.3125,273.2734 L1204.3125,275.4297 L1196.9219,275.4297 L1196.9219,273.2734 L1199.3906,273.2734 L1199.3906,265.1953 L1196.9219,265.1953 Z " fill="#000000"/><text fill="#000000" font-family="sans-serif" font-size="14" font-style="italic" lengthAdjust="spacing" textLength="248" x="1215" y="274.2764">StandalonePriceChangeValueAction</text><line style="stroke:#181818;stroke-width:0.5;" x1="1187" x2="1465" y1="285.4297" y2="285.4297"/><text fill="#000000" font-family="sans-serif" font-size="14" lengthAdjust="spacing" textLength="91" x="1192" y="302.4248">action: String</text><text fill="#000000" font-family="sans-serif" font-size="14" lengthAdjust="spacing" textLength="41" x="1192" y="318.7217">value:</text><a href="Money.svg" target="_top" title="Money.svg" xlink:actuate="onRequest" xlink:href="Money.svg" xlink:show="new" xlink:title="Money.svg" xlink:type="simple"><text fill="#0000FF" font-family="sans-serif" font-size="14" lengthAdjust="spacing" text-decoration="underline" textLength="46" x="1237" y="318.7217">Money</text></a><text fill="#000000" font-family="sans-serif" font-size="14" lengthAdjust="spacing" textLength="114" x="1192" y="335.0186">staged: Boolean</text></g></a><!--MD5=[d57a76e771a4fad06108871ebd787505]
class StandalonePriceRemovePriceTierAction--><a href="StandalonePriceRemovePriceTierAction.svg" target="_top" title="StandalonePriceRemovePriceTierAction.svg" xlink:actuate="onRequest" xlink:href="StandalonePriceRemovePriceTierAction.svg" xlink:show="new" xlink:title="StandalonePriceRemovePriceTierAction.svg" xlink:type="simple"><g id="elem_StandalonePriceRemovePriceTierAction"><rect codeLine="31" fill="#F1F1F1" height="72.5938" id="StandalonePriceRemovePriceTierAction" rx="2.5" ry="2.5" style="stroke:#181818;stroke-width:0.5;" width="304" x="3090" y="253.4297"/><ellipse cx="3105" cy="269.4297" fill="#B4A7E5" rx="11" ry="11" style="stroke:#181818;stroke-width:1.0;"/><path d="M3100.9219,265.1953 L3100.9219,263.0391 L3108.3125,263.0391 L3108.3125,265.1953 L3105.8438,265.1953 L3105.8438,273.2734 L3108.3125,273.2734 L3108.3125,275.4297 L3100.9219,275.4297 L3100.9219,273.2734 L3103.3906,273.2734 L3103.3906,265.1953 L3100.9219,265.1953 Z " fill="#000000"/><text fill="#000000" font-family="sans-serif" font-size="14" font-style="italic" lengthAdjust="spacing" textLength="272" x="3119" y="274.2764">StandalonePriceRemovePriceTierAction</text><line style="stroke:#181818;stroke-width:0.5;" x1="3091" x2="3393" y1="285.4297" y2="285.4297"/><text fill="#000000" font-family="sans-serif" font-size="14" lengthAdjust="spacing" textLength="91" x="3096" y="302.4248">action: String</text><text fill="#000000" font-family="sans-serif" font-size="14" lengthAdjust="spacing" textLength="184" x="3096" y="318.7217">tierMinimumQuantity: Long</text></g></a><!--MD5=[be1949e36aed59c19ea22302ba17b121]
class StandalonePriceRemoveStagedChangesAction--><a href="StandalonePriceRemoveStagedChangesAction.svg" target="_top" title="StandalonePriceRemoveStagedChangesAction.svg" xlink:actuate="onRequest" xlink:href="StandalonePriceRemoveStagedChangesAction.svg" xlink:show="new" xlink:title="StandalonePriceRemoveStagedChangesAction.svg" xlink:type="simple"><g id="elem_StandalonePriceRemoveStagedChangesAction"><rect codeLine="35" fill="#F1F1F1" height="56.2969" id="StandalonePriceRemoveStagedChangesAction" rx="2.5" ry="2.5" style="stroke:#181818;stroke-width:0.5;" width="355" x="3414" y="253.4297"/><ellipse cx="3429" cy="269.4297" fill="#B4A7E5" rx="11" ry="11" style="stroke:#181818;stroke-width:1.0;"/><path d="M3424.9219,265.1953 L3424.9219,263.0391 L3432.3125,263.0391 L3432.3125,265.1953 L3429.8438,265.1953 L3429.8438,273.2734 L3432.3125,273.2734 L3432.3125,275.4297 L3424.9219,275.4297 L3424.9219,273.2734 L3427.3906,273.2734 L3427.3906,265.1953 L3424.9219,265.1953 Z " fill="#000000"/><text fill="#000000" font-family="sans-serif" font-size="14" font-style="italic" lengthAdjust="spacing" textLength="323" x="3443" y="274.2764">StandalonePriceRemoveStagedChangesAction</text><line style="stroke:#181818;stroke-width:0.5;" x1="3415" x2="3768" y1="285.4297" y2="285.4297"/><text fill="#000000" font-family="sans-serif" font-size="14" lengthAdjust="spacing" textLength="91" x="3420" y="302.4248">action: String</text></g></a><!--MD5=[01809979955fb5e929ea27c8365e8447]
class StandalonePriceSetCustomFieldAction--><a href="StandalonePriceSetCustomFieldAction.svg" target="_top" title="StandalonePriceSetCustomFieldAction.svg" xlink:actuate="onRequest" xlink:href="StandalonePriceSetCustomFieldAction.svg" xlink:show="new" xlink:title="StandalonePriceSetCustomFieldAction.svg" xlink:type="simple"><g id="elem_StandalonePriceSetCustomFieldAction"><rect codeLine="38" fill="#F1F1F1" height="88.8906" id="StandalonePriceSetCustomFieldAction" rx="2.5" ry="2.5" style="stroke:#181818;stroke-width:0.5;" width="295" x="2775" y="253.4297"/><ellipse cx="2790" cy="269.4297" fill="#B4A7E5" rx="11" ry="11" style="stroke:#181818;stroke-width:1.0;"/><path d="M2785.9219,265.1953 L2785.9219,263.0391 L2793.3125,263.0391 L2793.3125,265.1953 L2790.8438,265.1953 L2790.8438,273.2734 L2793.3125,273.2734 L2793.3125,275.4297 L2785.9219,275.4297 L2785.9219,273.2734 L2788.3906,273.2734 L2788.3906,265.1953 L2785.9219,265.1953 Z " fill="#000000"/><text fill="#000000" font-family="sans-serif" font-size="14" font-style="italic" lengthAdjust="spacing" textLength="263" x="2804" y="274.2764">StandalonePriceSetCustomFieldAction</text><line style="stroke:#181818;stroke-width:0.5;" x1="2776" x2="3069" y1="285.4297" y2="285.4297"/><text fill="#000000" font-family="sans-serif" font-size="14" lengthAdjust="spacing" textLength="91" x="2781" y="302.4248">action: String</text><text fill="#000000" font-family="sans-serif" font-size="14" lengthAdjust="spacing" textLength="88" x="2781" y="318.7217">name: String</text><text fill="#000000" font-family="sans-serif" font-size="14" lengthAdjust="spacing" textLength="41" x="2781" y="335.0186">value:</text><a href="Object.svg" target="_top" title="Object.svg" xlink:actuate="onRequest" xlink:href="Object.svg" xlink:show="new" xlink:title="Object.svg" xlink:type="simple"><text fill="#0000FF" font-family="sans-serif" font-size="14" lengthAdjust="spacing" text-decoration="underline" textLength="45" x="2826" y="335.0186">Object</text></a></g></a><!--MD5=[bd2e7396385b0eaa8fea30def5ff64e8]
class StandalonePriceSetCustomTypeAction--><a href="StandalonePriceSetCustomTypeAction.svg" target="_top" title="StandalonePriceSetCustomTypeAction.svg" xlink:actuate="onRequest" xlink:href="StandalonePriceSetCustomTypeAction.svg" xlink:show="new" xlink:title="StandalonePriceSetCustomTypeAction.svg" xlink:type="simple"><g id="elem_StandalonePriceSetCustomTypeAction"><rect codeLine="43" fill="#F1F1F1" height="88.8906" id="StandalonePriceSetCustomTypeAction" rx="2.5" ry="2.5" style="stroke:#181818;stroke-width:0.5;" width="298" x="612" y="253.4297"/><ellipse cx="627" cy="269.4297" fill="#B4A7E5" rx="11" ry="11" style="stroke:#181818;stroke-width:1.0;"/><path d="M622.9219,265.1953 L622.9219,263.0391 L630.3125,263.0391 L630.3125,265.1953 L627.8438,265.1953 L627.8438,273.2734 L630.3125,273.2734 L630.3125,275.4297 L622.9219,275.4297 L622.9219,273.2734 L625.3906,273.2734 L625.3906,265.1953 L622.9219,265.1953 Z " fill="#000000"/><text fill="#000000" font-family="sans-serif" font-size="14" font-style="italic" lengthAdjust="spacing" textLength="266" x="641" y="274.2764">StandalonePriceSetCustomTypeAction</text><line style="stroke:#181818;stroke-width:0.5;" x1="613" x2="909" y1="285.4297" y2="285.4297"/><text fill="#000000" font-family="sans-serif" font-size="14" lengthAdjust="spacing" textLength="91" x="618" y="302.4248">action: String</text><text fill="#000000" font-family="sans-serif" font-size="14" lengthAdjust="spacing" textLength="35" x="618" y="318.7217">type:</text><a href="TypeResourceIdentifier.svg" target="_top" title="TypeResourceIdentifier.svg" xlink:actuate="onRequest" xlink:href="TypeResourceIdentifier.svg" xlink:show="new" xlink:title="TypeResourceIdentifier.svg" xlink:type="simple"><text fill="#0000FF" font-family="sans-serif" font-size="14" lengthAdjust="spacing" text-decoration="underline" textLength="160" x="657" y="318.7217">TypeResourceIdentifier</text></a><text fill="#000000" font-family="sans-serif" font-size="14" lengthAdjust="spacing" textLength="41" x="618" y="335.0186">fields:</text><a href="FieldContainer.svg" target="_top" title="FieldContainer.svg" xlink:actuate="onRequest" xlink:href="FieldContainer.svg" xlink:show="new" xlink:title="FieldContainer.svg" xlink:type="simple"><text fill="#0000FF" font-family="sans-serif" font-size="14" lengthAdjust="spacing" text-decoration="underline" textLength="99" x="663" y="335.0186">FieldContainer</text></a></g></a><!--MD5=[00a69fa48ad96c602a389db39fe03a7a]
class StandalonePriceSetDiscountedPriceAction--><a href="StandalonePriceSetDiscountedPriceAction.svg" target="_top" title="StandalonePriceSetDiscountedPriceAction.svg" xlink:actuate="onRequest" xlink:href="StandalonePriceSetDiscountedPriceAction.svg" xlink:show="new" xlink:title="StandalonePriceSetDiscountedPriceAction.svg" xlink:type="simple"><g id="elem_StandalonePriceSetDiscountedPriceAction"><rect codeLine="48" fill="#F1F1F1" height="72.5938" id="StandalonePriceSetDiscountedPriceAction" rx="2.5" ry="2.5" style="stroke:#181818;stroke-width:0.5;" width="322" x="1842" y="253.4297"/><ellipse cx="1857" cy="269.4297" fill="#B4A7E5" rx="11" ry="11" style="stroke:#181818;stroke-width:1.0;"/><path d="M1852.9219,265.1953 L1852.9219,263.0391 L1860.3125,263.0391 L1860.3125,265.1953 L1857.8438,265.1953 L1857.8438,273.2734 L1860.3125,273.2734 L1860.3125,275.4297 L1852.9219,275.4297 L1852.9219,273.2734 L1855.3906,273.2734 L1855.3906,265.1953 L1852.9219,265.1953 Z " fill="#000000"/><text fill="#000000" font-family="sans-serif" font-size="14" font-style="italic" lengthAdjust="spacing" textLength="290" x="1871" y="274.2764">StandalonePriceSetDiscountedPriceAction</text><line style="stroke:#181818;stroke-width:0.5;" x1="1843" x2="2163" y1="285.4297" y2="285.4297"/><text fill="#000000" font-family="sans-serif" font-size="14" lengthAdjust="spacing" textLength="91" x="1848" y="302.4248">action: String</text><text fill="#000000" font-family="sans-serif" font-size="14" lengthAdjust="spacing" textLength="83" x="1848" y="318.7217">discounted:</text><a href="DiscountedPriceDraft.svg" target="_top" title="DiscountedPriceDraft.svg" xlink:actuate="onRequest" xlink:href="DiscountedPriceDraft.svg" xlink:show="new" xlink:title="DiscountedPriceDraft.svg" xlink:type="simple"><text fill="#0000FF" font-family="sans-serif" font-size="14" lengthAdjust="spacing" text-decoration="underline" textLength="147" x="1935" y="318.7217">DiscountedPriceDraft</text></a></g></a><!--MD5=[fca1c72c02e47fefdccf2467450e3825]
class StandalonePriceSetKeyAction--><a href="StandalonePriceSetKeyAction.svg" target="_top" title="StandalonePriceSetKeyAction.svg" xlink:actuate="onRequest" xlink:href="StandalonePriceSetKeyAction.svg" xlink:show="new" xlink:title="StandalonePriceSetKeyAction.svg" xlink:type="simple"><g id="elem_StandalonePriceSetKeyAction"><rect codeLine="52" fill="#F1F1F1" height="72.5938" id="StandalonePriceSetKeyAction" rx="2.5" ry="2.5" style="stroke:#181818;stroke-width:0.5;" width="236" x="930" y="253.4297"/><ellipse cx="945" cy="269.4297" fill="#B4A7E5" rx="11" ry="11" style="stroke:#181818;stroke-width:1.0;"/><path d="M940.9219,265.1953 L940.9219,263.0391 L948.3125,263.0391 L948.3125,265.1953 L945.8438,265.1953 L945.8438,273.2734 L948.3125,273.2734 L948.3125,275.4297 L940.9219,275.4297 L940.9219,273.2734 L943.3906,273.2734 L943.3906,265.1953 L940.9219,265.1953 Z " fill="#000000"/><text fill="#000000" font-family="sans-serif" font-size="14" font-style="italic" lengthAdjust="spacing" textLength="204" x="959" y="274.2764">StandalonePriceSetKeyAction</text><line style="stroke:#181818;stroke-width:0.5;" x1="931" x2="1165" y1="285.4297" y2="285.4297"/><text fill="#000000" font-family="sans-serif" font-size="14" lengthAdjust="spacing" textLength="91" x="936" y="302.4248">action: String</text><text fill="#000000" font-family="sans-serif" font-size="14" lengthAdjust="spacing" textLength="73" x="936" y="318.7217">key: String</text></g></a><!--MD5=[9e3867d52d53c1e82c4d5e1cc4d97188]
class StandalonePriceSetPriceTiersAction--><a href="StandalonePriceSetPriceTiersAction.svg" target="_top" title="StandalonePriceSetPriceTiersAction.svg" xlink:actuate="onRequest" xlink:href="StandalonePriceSetPriceTiersAction.svg" xlink:show="new" xlink:title="StandalonePriceSetPriceTiersAction.svg" xlink:type="simple"><g id="elem_StandalonePriceSetPriceTiersAction"><rect codeLine="56" fill="#F1F1F1" height="72.5938" id="StandalonePriceSetPriceTiersAction" rx="2.5" ry="2.5" style="stroke:#181818;stroke-width:0.5;" width="276" x="316" y="253.4297"/><ellipse cx="331" cy="269.4297" fill="#B4A7E5" rx="11" ry="11" style="stroke:#181818;stroke-width:1.0;"/><path d="M326.9219,265.1953 L326.9219,263.0391 L334.3125,263.0391 L334.3125,265.1953 L331.8438,265.1953 L331.8438,273.2734 L334.3125,273.2734 L334.3125,275.4297 L326.9219,275.4297 L326.9219,273.2734 L329.3906,273.2734 L329.3906,265.1953 L326.9219,265.1953 Z " fill="#000000"/><text fill="#000000" font-family="sans-serif" font-size="14" font-style="italic" lengthAdjust="spacing" textLength="244" x="345" y="274.2764">StandalonePriceSetPriceTiersAction</text><line style="stroke:#181818;stroke-width:0.5;" x1="317" x2="591" y1="285.4297" y2="285.4297"/><text fill="#000000" font-family="sans-serif" font-size="14" lengthAdjust="spacing" textLength="91" x="322" y="302.4248">action: String</text><text fill="#000000" font-family="sans-serif" font-size="14" lengthAdjust="spacing" textLength="35" x="322" y="318.7217">tiers:</text><a href="PriceTierDraft.svg" target="_top" title="PriceTierDraft.svg" xlink:actuate="onRequest" xlink:href="PriceTierDraft.svg" xlink:show="new" xlink:title="PriceTierDraft.svg" xlink:type="simple"><text fill="#0000FF" font-family="sans-serif" font-size="14" lengthAdjust="spacing" text-decoration="underline" textLength="140" x="361" y="318.7217">List&lt;PriceTierDraft&gt;</text></a></g></a><!--MD5=[9241d2b8321874dd414364bbfcca1483]
class StandalonePriceSetValidFromAction--><a href="StandalonePriceSetValidFromAction.svg" target="_top" title="StandalonePriceSetValidFromAction.svg" xlink:actuate="onRequest" xlink:href="StandalonePriceSetValidFromAction.svg" xlink:show="new" xlink:title="StandalonePriceSetValidFromAction.svg" xlink:type="simple"><g id="elem_StandalonePriceSetValidFromAction"><rect codeLine="60" fill="#F1F1F1" height="72.5938" id="StandalonePriceSetValidFromAction" rx="2.5" ry="2.5" style="stroke:#181818;stroke-width:0.5;" width="278" x="2477" y="253.4297"/><ellipse cx="2492" cy="269.4297" fill="#B4A7E5" rx="11" ry="11" style="stroke:#181818;stroke-width:1.0;"/><path d="M2487.9219,265.1953 L2487.9219,263.0391 L2495.3125,263.0391 L2495.3125,265.1953 L2492.8438,265.1953 L2492.8438,273.2734 L2495.3125,273.2734 L2495.3125,275.4297 L2487.9219,275.4297 L2487.9219,273.2734 L2490.3906,273.2734 L2490.3906,265.1953 L2487.9219,265.1953 Z " fill="#000000"/><text fill="#000000" font-family="sans-serif" font-size="14" font-style="italic" lengthAdjust="spacing" textLength="246" x="2506" y="274.2764">StandalonePriceSetValidFromAction</text><line style="stroke:#181818;stroke-width:0.5;" x1="2478" x2="2754" y1="285.4297" y2="285.4297"/><text fill="#000000" font-family="sans-serif" font-size="14" lengthAdjust="spacing" textLength="91" x="2483" y="302.4248">action: String</text><text fill="#000000" font-family="sans-serif" font-size="14" lengthAdjust="spacing" textLength="141" x="2483" y="318.7217">validFrom: DateTime</text></g></a><!--MD5=[35d78fb82637cc9f72d8de84b169e6e0]
class StandalonePriceSetValidFromAndUntilAction--><a href="StandalonePriceSetValidFromAndUntilAction.svg" target="_top" title="StandalonePriceSetValidFromAndUntilAction.svg" xlink:actuate="onRequest" xlink:href="StandalonePriceSetValidFromAndUntilAction.svg" xlink:show="new" xlink:title="StandalonePriceSetValidFromAndUntilAction.svg" xlink:type="simple"><g id="elem_StandalonePriceSetValidFromAndUntilAction"><rect codeLine="64" fill="#F1F1F1" height="88.8906" id="StandalonePriceSetValidFromAndUntilAction" rx="2.5" ry="2.5" style="stroke:#181818;stroke-width:0.5;" width="336" x="1486" y="253.4297"/><ellipse cx="1501" cy="269.4297" fill="#B4A7E5" rx="11" ry="11" style="stroke:#181818;stroke-width:1.0;"/><path d="M1496.9219,265.1953 L1496.9219,263.0391 L1504.3125,263.0391 L1504.3125,265.1953 L1501.8438,265.1953 L1501.8438,273.2734 L1504.3125,273.2734 L1504.3125,275.4297 L1496.9219,275.4297 L1496.9219,273.2734 L1499.3906,273.2734 L1499.3906,265.1953 L1496.9219,265.1953 Z " fill="#000000"/><text fill="#000000" font-family="sans-serif" font-size="14" font-style="italic" lengthAdjust="spacing" textLength="304" x="1515" y="274.2764">StandalonePriceSetValidFromAndUntilAction</text><line style="stroke:#181818;stroke-width:0.5;" x1="1487" x2="1821" y1="285.4297" y2="285.4297"/><text fill="#000000" font-family="sans-serif" font-size="14" lengthAdjust="spacing" textLength="91" x="1492" y="302.4248">action: String</text><text fill="#000000" font-family="sans-serif" font-size="14" lengthAdjust="spacing" textLength="141" x="1492" y="318.7217">validFrom: DateTime</text><text fill="#000000" font-family="sans-serif" font-size="14" lengthAdjust="spacing" textLength="136" x="1492" y="335.0186">validUntil: DateTime</text></g></a><!--MD5=[eccf848fb893477d22f03fa131e3ee19]
class StandalonePriceSetValidUntilAction--><a href="StandalonePriceSetValidUntilAction.svg" target="_top" title="StandalonePriceSetValidUntilAction.svg" xlink:actuate="onRequest" xlink:href="StandalonePriceSetValidUntilAction.svg" xlink:show="new" xlink:title="StandalonePriceSetValidUntilAction.svg" xlink:type="simple"><g id="elem_StandalonePriceSetValidUntilAction"><rect codeLine="69" fill="#F1F1F1" height="72.5938" id="StandalonePriceSetValidUntilAction" rx="2.5" ry="2.5" style="stroke:#181818;stroke-width:0.5;" width="273" x="2184" y="253.4297"/><ellipse cx="2199" cy="269.4297" fill="#B4A7E5" rx="11" ry="11" style="stroke:#181818;stroke-width:1.0;"/><path d="M2194.9219,265.1953 L2194.9219,263.0391 L2202.3125,263.0391 L2202.3125,265.1953 L2199.8438,265.1953 L2199.8438,273.2734 L2202.3125,273.2734 L2202.3125,275.4297 L2194.9219,275.4297 L2194.9219,273.2734 L2197.3906,273.2734 L2197.3906,265.1953 L2194.9219,265.1953 Z " fill="#000000"/><text fill="#000000" font-family="sans-serif" font-size="14" font-style="italic" lengthAdjust="spacing" textLength="241" x="2213" y="274.2764">StandalonePriceSetValidUntilAction</text><line style="stroke:#181818;stroke-width:0.5;" x1="2185" x2="2456" y1="285.4297" y2="285.4297"/><text fill="#000000" font-family="sans-serif" font-size="14" lengthAdjust="spacing" textLength="91" x="2190" y="302.4248">action: String</text><text fill="#000000" font-family="sans-serif" font-size="14" lengthAdjust="spacing" textLength="136" x="2190" y="318.7217">validUntil: DateTime</text></g></a><!--MD5=[968ff400ef03a2c79b6ba77959713e8c]
class StandalonePriceUpdate--><a href="StandalonePriceUpdate.svg" target="_top" title="StandalonePriceUpdate.svg" xlink:actuate="onRequest" xlink:href="StandalonePriceUpdate.svg" xlink:show="new" xlink:title="StandalonePriceUpdate.svg" xlink:type="simple"><g id="elem_StandalonePriceUpdate"><rect codeLine="73" fill="#F1F1F1" height="72.5938" id="StandalonePriceUpdate" rx="2.5" ry="2.5" style="stroke:#181818;stroke-width:0.5;" width="323" x="3789" y="253.4297"/><ellipse cx="3865.75" cy="269.4297" fill="#B4A7E5" rx="11" ry="11" style="stroke:#181818;stroke-width:1.0;"/><path d="M3861.6719,265.1953 L3861.6719,263.0391 L3869.0625,263.0391 L3869.0625,265.1953 L3866.5938,265.1953 L3866.5938,273.2734 L3869.0625,273.2734 L3869.0625,275.4297 L3861.6719,275.4297 L3861.6719,273.2734 L3864.1406,273.2734 L3864.1406,265.1953 L3861.6719,265.1953 Z " fill="#000000"/><text fill="#000000" font-family="sans-serif" font-size="14" font-style="italic" lengthAdjust="spacing" textLength="161" x="3886.25" y="274.2764">StandalonePriceUpdate</text><line style="stroke:#181818;stroke-width:0.5;" x1="3790" x2="4111" y1="285.4297" y2="285.4297"/><text fill="#000000" font-family="sans-serif" font-size="14" lengthAdjust="spacing" textLength="93" x="3795" y="302.4248">version: Long</text><text fill="#000000" font-family="sans-serif" font-size="14" lengthAdjust="spacing" textLength="55" x="3795" y="318.7217">actions:</text><a href="StandalonePriceUpdateAction.svg" target="_top" title="StandalonePriceUpdateAction.svg" xlink:actuate="onRequest" xlink:href="StandalonePriceUpdateAction.svg" xlink:show="new" xlink:title="StandalonePriceUpdateAction.svg" xlink:type="simple"><text fill="#0000FF" font-family="sans-serif" font-size="14" lengthAdjust="spacing" text-decoration="underline" textLength="252" x="3854" y="318.7217">List&lt;StandalonePriceUpdateAction&gt;</text></a></g></a><line style="stroke:#0000FF;stroke-width:1.0;" x1="346.5625" x2="346.5625" y1="68.2969" y2="88.2969"/><line style="stroke:#0000FF;stroke-width:1.0;" x1="346.5625" x2="4269" y1="88.2969" y2="88.2969"/><line style="stroke:#0000FF;stroke-width:1.0;" x1="4269" x2="4269" y1="88.2969" y2="253.4297"/><polygon fill="#0000FF" points="4269,253.4297,4273,244.4297,4269,248.4297,4265,244.4297,4269,253.4297" style="stroke:#0000FF;stroke-width:1.0;"/><text fill="#000000" font-family="sans-serif" font-size="13" lengthAdjust="spacing" textLength="129" x="4138" y="230.3638">action : addPriceTier</text><line style="stroke:#0000FF;stroke-width:1.0;" x1="361.375" x2="361.375" y1="68.2969" y2="78.2969"/><line style="stroke:#0000FF;stroke-width:1.0;" x1="361.375" x2="4594" y1="78.2969" y2="78.2969"/><line style="stroke:#0000FF;stroke-width:1.0;" x1="4594" x2="4594" y1="78.2969" y2="253.4297"/><polygon fill="#0000FF" points="4594,253.4297,4598,244.4297,4594,248.4297,4590,244.4297,4594,253.4297" style="stroke:#0000FF;stroke-width:1.0;"/><text fill="#000000" font-family="sans-serif" font-size="13" lengthAdjust="spacing" textLength="187" x="4405" y="230.3638">action : applyStagedChanges</text><line style="stroke:#0000FF;stroke-width:1.0;" x1="154" x2="154" y1="68.2969" y2="253.4297"/><polygon fill="#0000FF" points="154,253.4297,158,244.4297,154,248.4297,150,244.4297,154,253.4297" style="stroke:#0000FF;stroke-width:1.0;"/><text fill="#000000" font-family="sans-serif" font-size="13" lengthAdjust="spacing" textLength="137" x="15" y="230.3638">action : changeActive</text><line style="stroke:#0000FF;stroke-width:1.0;" x1="213.25" x2="213.25" y1="68.2969" y2="178.2969"/><line style="stroke:#0000FF;stroke-width:1.0;" x1="213.25" x2="1326" y1="178.2969" y2="178.2969"/><line style="stroke:#0000FF;stroke-width:1.0;" x1="1326" x2="1326" y1="178.2969" y2="253.4297"/><polygon fill="#0000FF" points="1326,253.4297,1330,244.4297,1326,248.4297,1322,244.4297,1326,253.4297" style="stroke:#0000FF;stroke-width:1.0;"/><text fill="#000000" font-family="sans-serif" font-size="13" lengthAdjust="spacing" textLength="134" x="1190" y="230.3638">action : changeValue</text><line style="stroke:#0000FF;stroke-width:1.0;" x1="302.125" x2="302.125" y1="68.2969" y2="118.2969"/><line style="stroke:#0000FF;stroke-width:1.0;" x1="302.125" x2="3242" y1="118.2969" y2="118.2969"/><line style="stroke:#0000FF;stroke-width:1.0;" x1="3242" x2="3242" y1="118.2969" y2="253.4297"/><polygon fill="#0000FF" points="3242,253.4297,3246,244.4297,3242,248.4297,3238,244.4297,3242,253.4297" style="stroke:#0000FF;stroke-width:1.0;"/><text fill="#000000" font-family="sans-serif" font-size="13" lengthAdjust="spacing" textLength="154" x="3086" y="230.3638">action : removePriceTier</text><line style="stroke:#0000FF;stroke-width:1.0;" x1="316.9375" x2="316.9375" y1="68.2969" y2="108.2969"/><line style="stroke:#0000FF;stroke-width:1.0;" x1="316.9375" x2="3591.5" y1="108.2969" y2="108.2969"/><line style="stroke:#0000FF;stroke-width:1.0;" x1="3591.5" x2="3591.5" y1="108.2969" y2="253.4297"/><polygon fill="#0000FF" points="3591.5,253.4297,3595.5,244.4297,3591.5,248.4297,3587.5,244.4297,3591.5,253.4297" style="stroke:#0000FF;stroke-width:1.0;"/><text fill="#000000" font-family="sans-serif" font-size="13" lengthAdjust="spacing" textLength="202" x="3387.5" y="230.3638">action : removeStagedChanges</text><line style="stroke:#0000FF;stroke-width:1.0;" x1="287.3125" x2="287.3125" y1="68.2969" y2="128.2969"/><line style="stroke:#0000FF;stroke-width:1.0;" x1="287.3125" x2="2922.5" y1="128.2969" y2="128.2969"/><line style="stroke:#0000FF;stroke-width:1.0;" x1="2922.5" x2="2922.5" y1="128.2969" y2="253.4297"/><polygon fill="#0000FF" points="2922.5,253.4297,2926.5,244.4297,2922.5,248.4297,2918.5,244.4297,2922.5,253.4297" style="stroke:#0000FF;stroke-width:1.0;"/><text fill="#000000" font-family="sans-serif" font-size="13" lengthAdjust="spacing" textLength="150" x="2770.5" y="230.3638">action : setCustomField</text><line style="stroke:#0000FF;stroke-width:1.0;" x1="183.625" x2="183.625" y1="68.2969" y2="198.2969"/><line style="stroke:#0000FF;stroke-width:1.0;" x1="183.625" x2="761" y1="198.2969" y2="198.2969"/><line style="stroke:#0000FF;stroke-width:1.0;" x1="761" x2="761" y1="198.2969" y2="253.4297"/><polygon fill="#0000FF" points="761,253.4297,765,244.4297,761,248.4297,757,244.4297,761,253.4297" style="stroke:#0000FF;stroke-width:1.0;"/><text fill="#000000" font-family="sans-serif" font-size="13" lengthAdjust="spacing" textLength="151" x="608" y="230.3638">action : setCustomType</text><line style="stroke:#0000FF;stroke-width:1.0;" x1="242.875" x2="242.875" y1="68.2969" y2="158.2969"/><line style="stroke:#0000FF;stroke-width:1.0;" x1="242.875" x2="2003" y1="158.2969" y2="158.2969"/><line style="stroke:#0000FF;stroke-width:1.0;" x1="2003" x2="2003" y1="158.2969" y2="253.4297"/><polygon fill="#0000FF" points="2003,253.4297,2007,244.4297,2003,248.4297,1999,244.4297,2003,253.4297" style="stroke:#0000FF;stroke-width:1.0;"/><text fill="#000000" font-family="sans-serif" font-size="13" lengthAdjust="spacing" textLength="174" x="1827" y="230.3638">action : setDiscountedPrice</text><line style="stroke:#0000FF;stroke-width:1.0;" x1="198.4375" x2="198.4375" y1="68.2969" y2="188.2969"/><line style="stroke:#0000FF;stroke-width:1.0;" x1="198.4375" x2="1048" y1="188.2969" y2="188.2969"/><line style="stroke:#0000FF;stroke-width:1.0;" x1="1048" x2="1048" y1="188.2969" y2="253.4297"/><polygon fill="#0000FF" points="1048,253.4297,1052,244.4297,1048,248.4297,1044,244.4297,1048,253.4297" style="stroke:#0000FF;stroke-width:1.0;"/><text fill="#000000" font-family="sans-serif" font-size="13" lengthAdjust="spacing" textLength="94" x="952" y="230.3638">action : setKey</text><line style="stroke:#0000FF;stroke-width:1.0;" x1="168.8125" x2="168.8125" y1="68.2969" y2="208.2969"/><line style="stroke:#0000FF;stroke-width:1.0;" x1="168.8125" x2="454" y1="208.2969" y2="208.2969"/><line style="stroke:#0000FF;stroke-width:1.0;" x1="454" x2="454" y1="208.2969" y2="253.4297"/><polygon fill="#0000FF" points="454,253.4297,458,244.4297,454,248.4297,450,244.4297,454,253.4297" style="stroke:#0000FF;stroke-width:1.0;"/><text fill="#000000" font-family="sans-serif" font-size="13" lengthAdjust="spacing" textLength="132" x="320" y="230.3638">action : setPriceTiers</text><line style="stroke:#0000FF;stroke-width:1.0;" x1="272.5" x2="272.5" y1="68.2969" y2="138.2969"/><line style="stroke:#0000FF;stroke-width:1.0;" x1="272.5" x2="2616" y1="138.2969" y2="138.2969"/><line style="stroke:#0000FF;stroke-width:1.0;" x1="2616" x2="2616" y1="138.2969" y2="253.4297"/><polygon fill="#0000FF" points="2616,253.4297,2620,244.4297,2616,248.4297,2612,244.4297,2616,253.4297" style="stroke:#0000FF;stroke-width:1.0;"/><text fill="#000000" font-family="sans-serif" font-size="13" lengthAdjust="spacing" textLength="135" x="2479" y="230.3638">action : setValidFrom</text><line style="stroke:#0000FF;stroke-width:1.0;" x1="228.0625" x2="228.0625" y1="68.2969" y2="168.2969"/><line style="stroke:#0000FF;stroke-width:1.0;" x1="228.0625" x2="1654" y1="168.2969" y2="168.2969"/><line style="stroke:#0000FF;stroke-width:1.0;" x1="1654" x2="1654" y1="168.2969" y2="253.4297"/><polygon fill="#0000FF" points="1654,253.4297,1658,244.4297,1654,248.4297,1650,244.4297,1654,253.4297" style="stroke:#0000FF;stroke-width:1.0;"/><text fill="#000000" font-family="sans-serif" font-size="13" lengthAdjust="spacing" textLength="189" x="1463" y="230.3638">action : setValidFromAndUntil</text><line style="stroke:#0000FF;stroke-width:1.0;" x1="257.6875" x2="257.6875" y1="68.2969" y2="148.2969"/><line style="stroke:#0000FF;stroke-width:1.0;" x1="257.6875" x2="2320.5" y1="148.2969" y2="148.2969"/><line style="stroke:#0000FF;stroke-width:1.0;" x1="2320.5" x2="2320.5" y1="148.2969" y2="253.4297"/><polygon fill="#0000FF" points="2320.5,253.4297,2324.5,244.4297,2320.5,248.4297,2316.5,244.4297,2320.5,253.4297" style="stroke:#0000FF;stroke-width:1.0;"/><text fill="#000000" font-family="sans-serif" font-size="13" lengthAdjust="spacing" textLength="131" x="2187.5" y="230.3638">action : setValidUntil</text><line style="stroke:#008000;stroke-width:1.0;" x1="331.75" x2="331.75" y1="68.2969" y2="98.2969"/><line style="stroke:#008000;stroke-width:1.0;" x1="331.75" x2="3950.5" y1="98.2969" y2="98.2969"/><line style="stroke:#008000;stroke-width:1.0;" x1="3950.5" x2="3950.5" y1="98.2969" y2="253.4297"/><polygon fill="#008000" points="3950.5,253.4297,3954.5,244.4297,3950.5,248.4297,3946.5,244.4297,3950.5,253.4297" style="stroke:#008000;stroke-width:1.0;"/><text fill="#000000" font-family="sans-serif" font-size="13" lengthAdjust="spacing" textLength="46" x="3902.5" y="230.3638">actions</text><rect fill="#DDDDDD" height="79.1875" id="_legend" rx="7.5" ry="7.5" style="stroke:#000000;stroke-width:1.0;" width="161" x="2294.5" y="343.3203"/><text fill="#000000" font-family="sans-serif" font-size="14" font-weight="bold" lengthAdjust="spacing" textLength="5" x="2299.5" y="363.3154"> </text><text fill="#000000" font-family="sans-serif" font-size="14" font-weight="bold" lengthAdjust="spacing" textLength="28" x="2316.5" y="363.3154">line</text><text fill="#000000" filter="url(#b1mow5r73hhmim0)" font-family="sans-serif" font-size="14" lengthAdjust="spacing" textLength="12" x="2299.5" y="379.6123">   </text><text fill="#000000" font-family="sans-serif" font-size="14" lengthAdjust="spacing" textLength="77" x="2315.5" y="379.6123">inheritance</text><text fill="#000000" filter="url(#b1mow5r73hhmim1)" font-family="sans-serif" font-size="14" lengthAdjust="spacing" textLength="12" x="2299.5" y="395.9092">   </text><text fill="#000000" font-family="sans-serif" font-size="14" lengthAdjust="spacing" textLength="129" x="2315.5" y="395.9092">property reference</text><text fill="#000000" filter="url(#b1mow5r73hhmim2)" font-family="sans-serif" font-size="14" lengthAdjust="spacing" textLength="12" x="2299.5" y="412.2061">   </text><text fill="#000000" font-family="sans-serif" font-size="14" lengthAdjust="spacing" textLength="131" x="2315.5" y="412.2061">discriminated class</text><line style="stroke:#000000;stroke-width:1.0;" x1="2299.5" x2="2450.5" y1="350.3203" y2="350.3203"/><line style="stroke:#000000;stroke-width:1.0;" x1="2299.5" x2="2450.5" y1="366.6172" y2="366.6172"/><line style="stroke:#000000;stroke-width:1.0;" x1="2299.5" x2="2450.5" y1="382.9141" y2="382.9141"/><line style="stroke:#000000;stroke-width:1.0;" x1="2299.5" x2="2450.5" y1="399.2109" y2="399.2109"/><line style="stroke:#000000;stroke-width:1.0;" x1="2299.5" x2="2450.5" y1="415.5078" y2="415.5078"/><line style="stroke:#000000;stroke-width:1.0;" x1="2299.5" x2="2299.5" y1="350.3203" y2="415.5078"/><line style="stroke:#000000;stroke-width:1.0;" x1="2311.5" x2="2311.5" y1="350.3203" y2="415.5078"/><line style="stroke:#000000;stroke-width:1.0;" x1="2450.5" x2="2450.5" y1="350.3203" y2="415.5078"/><!--MD5=[f3ab47fbf595f3feb391a89690490703]
@startuml
!pragma layout elk
hide empty fields
hide empty methods
legend
|= |= line |
|<back:black>   </back>| inheritance |
|<back:green>   </back>| property reference |
|<back:blue>   </back>| discriminated class |
endlegend
interface StandalonePriceUpdateAction [[StandalonePriceUpdateAction.svg]]  {
    action: String
}


interface StandalonePriceAddPriceTierAction [[StandalonePriceAddPriceTierAction.svg]]  {
    action: String
    tier: [[PriceTierDraft.svg PriceTierDraft]]
}
interface StandalonePriceApplyStagedChangesAction [[StandalonePriceApplyStagedChangesAction.svg]]  {
    action: String
}
interface StandalonePriceChangeActiveAction [[StandalonePriceChangeActiveAction.svg]]  {
    action: String
    active: Boolean
}
interface StandalonePriceChangeValueAction [[StandalonePriceChangeValueAction.svg]]  {
    action: String
    value: [[Money.svg Money]]
    staged: Boolean
}
interface StandalonePriceRemovePriceTierAction [[StandalonePriceRemovePriceTierAction.svg]]  {
    action: String
    tierMinimumQuantity: Long
}
interface StandalonePriceRemoveStagedChangesAction [[StandalonePriceRemoveStagedChangesAction.svg]]  {
    action: String
}
interface StandalonePriceSetCustomFieldAction [[StandalonePriceSetCustomFieldAction.svg]]  {
    action: String
    name: String
    value: [[Object.svg Object]]
}
interface StandalonePriceSetCustomTypeAction [[StandalonePriceSetCustomTypeAction.svg]]  {
    action: String
    type: [[TypeResourceIdentifier.svg TypeResourceIdentifier]]
    fields: [[FieldContainer.svg FieldContainer]]
}
interface StandalonePriceSetDiscountedPriceAction [[StandalonePriceSetDiscountedPriceAction.svg]]  {
    action: String
    discounted: [[DiscountedPriceDraft.svg DiscountedPriceDraft]]
}
interface StandalonePriceSetKeyAction [[StandalonePriceSetKeyAction.svg]]  {
    action: String
    key: String
}
interface StandalonePriceSetPriceTiersAction [[StandalonePriceSetPriceTiersAction.svg]]  {
    action: String
    tiers: [[PriceTierDraft.svg List<PriceTierDraft>]]
}
interface StandalonePriceSetValidFromAction [[StandalonePriceSetValidFromAction.svg]]  {
    action: String
    validFrom: DateTime
}
interface StandalonePriceSetValidFromAndUntilAction [[StandalonePriceSetValidFromAndUntilAction.svg]]  {
    action: String
    validFrom: DateTime
    validUntil: DateTime
}
interface StandalonePriceSetValidUntilAction [[StandalonePriceSetValidUntilAction.svg]]  {
    action: String
    validUntil: DateTime
}
interface StandalonePriceUpdate [[StandalonePriceUpdate.svg]]  {
    version: Long
    actions: [[StandalonePriceUpdateAction.svg List<StandalonePriceUpdateAction>]]
}
StandalonePriceUpdateAction - -> StandalonePriceAddPriceTierAction #blue;text:blue : "action : addPriceTier"
StandalonePriceUpdateAction - -> StandalonePriceApplyStagedChangesAction #blue;text:blue : "action : applyStagedChanges"
StandalonePriceUpdateAction - -> StandalonePriceChangeActiveAction #blue;text:blue : "action : changeActive"
StandalonePriceUpdateAction - -> StandalonePriceChangeValueAction #blue;text:blue : "action : changeValue"
StandalonePriceUpdateAction - -> StandalonePriceRemovePriceTierAction #blue;text:blue : "action : removePriceTier"
StandalonePriceUpdateAction - -> StandalonePriceRemoveStagedChangesAction #blue;text:blue : "action : removeStagedChanges"
StandalonePriceUpdateAction - -> StandalonePriceSetCustomFieldAction #blue;text:blue : "action : setCustomField"
StandalonePriceUpdateAction - -> StandalonePriceSetCustomTypeAction #blue;text:blue : "action : setCustomType"
StandalonePriceUpdateAction - -> StandalonePriceSetDiscountedPriceAction #blue;text:blue : "action : setDiscountedPrice"
StandalonePriceUpdateAction - -> StandalonePriceSetKeyAction #blue;text:blue : "action : setKey"
StandalonePriceUpdateAction - -> StandalonePriceSetPriceTiersAction #blue;text:blue : "action : setPriceTiers"
StandalonePriceUpdateAction - -> StandalonePriceSetValidFromAction #blue;text:blue : "action : setValidFrom"
StandalonePriceUpdateAction - -> StandalonePriceSetValidFromAndUntilAction #blue;text:blue : "action : setValidFromAndUntil"
StandalonePriceUpdateAction - -> StandalonePriceSetValidUntilAction #blue;text:blue : "action : setValidUntil"
StandalonePriceUpdateAction - -> StandalonePriceUpdate #green;text:green : "actions"
@enduml

PlantUML version 1.2022.13(Sat Nov 19 13:22:17 UTC 2022)
(GPL source distribution)
Java Runtime: OpenJDK Runtime Environment
JVM: OpenJDK 64-Bit Server VM
Default Encoding: UTF-8
Language: en
Country: null
--></g></svg>
