<?xml version="1.0" encoding="UTF-8" standalone="no"?><svg xmlns="http://www.w3.org/2000/svg" xmlns:xlink="http://www.w3.org/1999/xlink" contentStyleType="text/css" height="362px" preserveAspectRatio="none" style="width:2277px;height:362px;background:#FFFFFF;" version="1.1" viewBox="0 0 2277 362" width="2277px" zoomAndPan="magnify"><defs><filter height="1" id="b1bd39c5hlqhe20" width="1" x="0" y="0"><feFlood flood-color="#000000" result="flood"/><feComposite in="SourceGraphic" in2="flood" operator="over"/></filter><filter height="1" id="b1bd39c5hlqhe21" width="1" x="0" y="0"><feFlood flood-color="#008000" result="flood"/><feComposite in="SourceGraphic" in2="flood" operator="over"/></filter><filter height="1" id="b1bd39c5hlqhe22" width="1" x="0" y="0"><feFlood flood-color="#0000FF" result="flood"/><feComposite in="SourceGraphic" in2="flood" operator="over"/></filter></defs><g><!--MD5=[8b302e1e28adb6549a168d71e2898950]
class StandalonePriceUpdateAction--><a href="StandalonePriceUpdateAction.svg" target="_top" title="StandalonePriceUpdateAction.svg" xlink:actuate="onRequest" xlink:href="StandalonePriceUpdateAction.svg" xlink:show="new" xlink:title="StandalonePriceUpdateAction.svg" xlink:type="simple"><g id="elem_StandalonePriceUpdateAction"><rect codeLine="10" fill="#F1F1F1" height="56.2969" id="StandalonePriceUpdateAction" rx="2.5" ry="2.5" style="stroke:#181818;stroke-width:0.5;" width="237" x="122.375" y="12"/><ellipse cx="137.375" cy="28" fill="#B4A7E5" rx="11" ry="11" style="stroke:#181818;stroke-width:1.0;"/><path d="M133.2969,23.7656 L133.2969,21.6094 L140.6875,21.6094 L140.6875,23.7656 L138.2188,23.7656 L138.2188,31.8438 L140.6875,31.8438 L140.6875,34 L133.2969,34 L133.2969,31.8438 L135.7656,31.8438 L135.7656,23.7656 L133.2969,23.7656 Z " fill="#000000"/><text fill="#000000" font-family="sans-serif" font-size="14" font-style="italic" lengthAdjust="spacing" textLength="205" x="151.375" y="32.8467">StandalonePriceUpdateAction</text><line style="stroke:#181818;stroke-width:0.5;" x1="123.375" x2="358.375" y1="44" y2="44"/><text fill="#000000" font-family="sans-serif" font-size="14" lengthAdjust="spacing" textLength="91" x="128.375" y="60.9951">action: String</text></g></a><!--MD5=[ac0b9440fcb55a02f191935a6c45aef8]
class StandalonePriceApplyStagedChangesAction--><a href="StandalonePriceApplyStagedChangesAction.svg" target="_top" title="StandalonePriceApplyStagedChangesAction.svg" xlink:actuate="onRequest" xlink:href="StandalonePriceApplyStagedChangesAction.svg" xlink:show="new" xlink:title="StandalonePriceApplyStagedChangesAction.svg" xlink:type="simple"><g id="elem_StandalonePriceApplyStagedChangesAction"><rect codeLine="15" fill="#F1F1F1" height="56.2969" id="StandalonePriceApplyStagedChangesAction" rx="2.5" ry="2.5" style="stroke:#181818;stroke-width:0.5;" width="336" x="1630" y="173.4297"/><ellipse cx="1645" cy="189.4297" fill="#B4A7E5" rx="11" ry="11" style="stroke:#181818;stroke-width:1.0;"/><path d="M1640.9219,185.1953 L1640.9219,183.0391 L1648.3125,183.0391 L1648.3125,185.1953 L1645.8438,185.1953 L1645.8438,193.2734 L1648.3125,193.2734 L1648.3125,195.4297 L1640.9219,195.4297 L1640.9219,193.2734 L1643.3906,193.2734 L1643.3906,185.1953 L1640.9219,185.1953 Z " fill="#000000"/><text fill="#000000" font-family="sans-serif" font-size="14" font-style="italic" lengthAdjust="spacing" textLength="304" x="1659" y="194.2764">StandalonePriceApplyStagedChangesAction</text><line style="stroke:#181818;stroke-width:0.5;" x1="1631" x2="1965" y1="205.4297" y2="205.4297"/><text fill="#000000" font-family="sans-serif" font-size="14" lengthAdjust="spacing" textLength="91" x="1636" y="222.4248">action: String</text></g></a><!--MD5=[df1f6762f35366cc6ac2946f2b2f3788]
class StandalonePriceChangeActiveAction--><a href="StandalonePriceChangeActiveAction.svg" target="_top" title="StandalonePriceChangeActiveAction.svg" xlink:actuate="onRequest" xlink:href="StandalonePriceChangeActiveAction.svg" xlink:show="new" xlink:title="StandalonePriceChangeActiveAction.svg" xlink:type="simple"><g id="elem_StandalonePriceChangeActiveAction"><rect codeLine="18" fill="#F1F1F1" height="72.5938" id="StandalonePriceChangeActiveAction" rx="2.5" ry="2.5" style="stroke:#181818;stroke-width:0.5;" width="284" x="1986" y="173.4297"/><ellipse cx="2001" cy="189.4297" fill="#B4A7E5" rx="11" ry="11" style="stroke:#181818;stroke-width:1.0;"/><path d="M1996.9219,185.1953 L1996.9219,183.0391 L2004.3125,183.0391 L2004.3125,185.1953 L2001.8438,185.1953 L2001.8438,193.2734 L2004.3125,193.2734 L2004.3125,195.4297 L1996.9219,195.4297 L1996.9219,193.2734 L1999.3906,193.2734 L1999.3906,185.1953 L1996.9219,185.1953 Z " fill="#000000"/><text fill="#000000" font-family="sans-serif" font-size="14" font-style="italic" lengthAdjust="spacing" textLength="252" x="2015" y="194.2764">StandalonePriceChangeActiveAction</text><line style="stroke:#181818;stroke-width:0.5;" x1="1987" x2="2269" y1="205.4297" y2="205.4297"/><text fill="#000000" font-family="sans-serif" font-size="14" lengthAdjust="spacing" textLength="91" x="1992" y="222.4248">action: String</text><text fill="#000000" font-family="sans-serif" font-size="14" lengthAdjust="spacing" textLength="106" x="1992" y="238.7217">active: Boolean</text></g></a><!--MD5=[fcda81860b20bc0ad7aa740916a39b48]
class StandalonePriceChangeValueAction--><a href="StandalonePriceChangeValueAction.svg" target="_top" title="StandalonePriceChangeValueAction.svg" xlink:actuate="onRequest" xlink:href="StandalonePriceChangeValueAction.svg" xlink:show="new" xlink:title="StandalonePriceChangeValueAction.svg" xlink:type="simple"><g id="elem_StandalonePriceChangeValueAction"><rect codeLine="22" fill="#F1F1F1" height="88.8906" id="StandalonePriceChangeValueAction" rx="2.5" ry="2.5" style="stroke:#181818;stroke-width:0.5;" width="280" x="12" y="173.4297"/><ellipse cx="27" cy="189.4297" fill="#B4A7E5" rx="11" ry="11" style="stroke:#181818;stroke-width:1.0;"/><path d="M22.9219,185.1953 L22.9219,183.0391 L30.3125,183.0391 L30.3125,185.1953 L27.8438,185.1953 L27.8438,193.2734 L30.3125,193.2734 L30.3125,195.4297 L22.9219,195.4297 L22.9219,193.2734 L25.3906,193.2734 L25.3906,185.1953 L22.9219,185.1953 Z " fill="#000000"/><text fill="#000000" font-family="sans-serif" font-size="14" font-style="italic" lengthAdjust="spacing" textLength="248" x="41" y="194.2764">StandalonePriceChangeValueAction</text><line style="stroke:#181818;stroke-width:0.5;" x1="13" x2="291" y1="205.4297" y2="205.4297"/><text fill="#000000" font-family="sans-serif" font-size="14" lengthAdjust="spacing" textLength="91" x="18" y="222.4248">action: String</text><text fill="#000000" font-family="sans-serif" font-size="14" lengthAdjust="spacing" textLength="41" x="18" y="238.7217">value:</text><a href="Money.svg" target="_top" title="Money.svg" xlink:actuate="onRequest" xlink:href="Money.svg" xlink:show="new" xlink:title="Money.svg" xlink:type="simple"><text fill="#0000FF" font-family="sans-serif" font-size="14" lengthAdjust="spacing" text-decoration="underline" textLength="46" x="63" y="238.7217">Money</text></a><text fill="#000000" font-family="sans-serif" font-size="14" lengthAdjust="spacing" textLength="114" x="18" y="255.0186">staged: Boolean</text></g></a><!--MD5=[01809979955fb5e929ea27c8365e8447]
class StandalonePriceSetCustomFieldAction--><a href="StandalonePriceSetCustomFieldAction.svg" target="_top" title="StandalonePriceSetCustomFieldAction.svg" xlink:actuate="onRequest" xlink:href="StandalonePriceSetCustomFieldAction.svg" xlink:show="new" xlink:title="StandalonePriceSetCustomFieldAction.svg" xlink:type="simple"><g id="elem_StandalonePriceSetCustomFieldAction"><rect codeLine="27" fill="#F1F1F1" height="88.8906" id="StandalonePriceSetCustomFieldAction" rx="2.5" ry="2.5" style="stroke:#181818;stroke-width:0.5;" width="295" x="312" y="173.4297"/><ellipse cx="327" cy="189.4297" fill="#B4A7E5" rx="11" ry="11" style="stroke:#181818;stroke-width:1.0;"/><path d="M322.9219,185.1953 L322.9219,183.0391 L330.3125,183.0391 L330.3125,185.1953 L327.8438,185.1953 L327.8438,193.2734 L330.3125,193.2734 L330.3125,195.4297 L322.9219,195.4297 L322.9219,193.2734 L325.3906,193.2734 L325.3906,185.1953 L322.9219,185.1953 Z " fill="#000000"/><text fill="#000000" font-family="sans-serif" font-size="14" font-style="italic" lengthAdjust="spacing" textLength="263" x="341" y="194.2764">StandalonePriceSetCustomFieldAction</text><line style="stroke:#181818;stroke-width:0.5;" x1="313" x2="606" y1="205.4297" y2="205.4297"/><text fill="#000000" font-family="sans-serif" font-size="14" lengthAdjust="spacing" textLength="91" x="318" y="222.4248">action: String</text><text fill="#000000" font-family="sans-serif" font-size="14" lengthAdjust="spacing" textLength="88" x="318" y="238.7217">name: String</text><text fill="#000000" font-family="sans-serif" font-size="14" lengthAdjust="spacing" textLength="41" x="318" y="255.0186">value:</text><a href="Object.svg" target="_top" title="Object.svg" xlink:actuate="onRequest" xlink:href="Object.svg" xlink:show="new" xlink:title="Object.svg" xlink:type="simple"><text fill="#0000FF" font-family="sans-serif" font-size="14" lengthAdjust="spacing" text-decoration="underline" textLength="45" x="363" y="255.0186">Object</text></a></g></a><!--MD5=[bd2e7396385b0eaa8fea30def5ff64e8]
class StandalonePriceSetCustomTypeAction--><a href="StandalonePriceSetCustomTypeAction.svg" target="_top" title="StandalonePriceSetCustomTypeAction.svg" xlink:actuate="onRequest" xlink:href="StandalonePriceSetCustomTypeAction.svg" xlink:show="new" xlink:title="StandalonePriceSetCustomTypeAction.svg" xlink:type="simple"><g id="elem_StandalonePriceSetCustomTypeAction"><rect codeLine="32" fill="#F1F1F1" height="88.8906" id="StandalonePriceSetCustomTypeAction" rx="2.5" ry="2.5" style="stroke:#181818;stroke-width:0.5;" width="298" x="970" y="173.4297"/><ellipse cx="985" cy="189.4297" fill="#B4A7E5" rx="11" ry="11" style="stroke:#181818;stroke-width:1.0;"/><path d="M980.9219,185.1953 L980.9219,183.0391 L988.3125,183.0391 L988.3125,185.1953 L985.8438,185.1953 L985.8438,193.2734 L988.3125,193.2734 L988.3125,195.4297 L980.9219,195.4297 L980.9219,193.2734 L983.3906,193.2734 L983.3906,185.1953 L980.9219,185.1953 Z " fill="#000000"/><text fill="#000000" font-family="sans-serif" font-size="14" font-style="italic" lengthAdjust="spacing" textLength="266" x="999" y="194.2764">StandalonePriceSetCustomTypeAction</text><line style="stroke:#181818;stroke-width:0.5;" x1="971" x2="1267" y1="205.4297" y2="205.4297"/><text fill="#000000" font-family="sans-serif" font-size="14" lengthAdjust="spacing" textLength="91" x="976" y="222.4248">action: String</text><text fill="#000000" font-family="sans-serif" font-size="14" lengthAdjust="spacing" textLength="35" x="976" y="238.7217">type:</text><a href="TypeResourceIdentifier.svg" target="_top" title="TypeResourceIdentifier.svg" xlink:actuate="onRequest" xlink:href="TypeResourceIdentifier.svg" xlink:show="new" xlink:title="TypeResourceIdentifier.svg" xlink:type="simple"><text fill="#0000FF" font-family="sans-serif" font-size="14" lengthAdjust="spacing" text-decoration="underline" textLength="160" x="1015" y="238.7217">TypeResourceIdentifier</text></a><text fill="#000000" font-family="sans-serif" font-size="14" lengthAdjust="spacing" textLength="41" x="976" y="255.0186">fields:</text><a href="FieldContainer.svg" target="_top" title="FieldContainer.svg" xlink:actuate="onRequest" xlink:href="FieldContainer.svg" xlink:show="new" xlink:title="FieldContainer.svg" xlink:type="simple"><text fill="#0000FF" font-family="sans-serif" font-size="14" lengthAdjust="spacing" text-decoration="underline" textLength="99" x="1021" y="255.0186">FieldContainer</text></a></g></a><!--MD5=[00a69fa48ad96c602a389db39fe03a7a]
class StandalonePriceSetDiscountedPriceAction--><a href="StandalonePriceSetDiscountedPriceAction.svg" target="_top" title="StandalonePriceSetDiscountedPriceAction.svg" xlink:actuate="onRequest" xlink:href="StandalonePriceSetDiscountedPriceAction.svg" xlink:show="new" xlink:title="StandalonePriceSetDiscountedPriceAction.svg" xlink:type="simple"><g id="elem_StandalonePriceSetDiscountedPriceAction"><rect codeLine="37" fill="#F1F1F1" height="72.5938" id="StandalonePriceSetDiscountedPriceAction" rx="2.5" ry="2.5" style="stroke:#181818;stroke-width:0.5;" width="322" x="1288" y="173.4297"/><ellipse cx="1303" cy="189.4297" fill="#B4A7E5" rx="11" ry="11" style="stroke:#181818;stroke-width:1.0;"/><path d="M1298.9219,185.1953 L1298.9219,183.0391 L1306.3125,183.0391 L1306.3125,185.1953 L1303.8438,185.1953 L1303.8438,193.2734 L1306.3125,193.2734 L1306.3125,195.4297 L1298.9219,195.4297 L1298.9219,193.2734 L1301.3906,193.2734 L1301.3906,185.1953 L1298.9219,185.1953 Z " fill="#000000"/><text fill="#000000" font-family="sans-serif" font-size="14" font-style="italic" lengthAdjust="spacing" textLength="290" x="1317" y="194.2764">StandalonePriceSetDiscountedPriceAction</text><line style="stroke:#181818;stroke-width:0.5;" x1="1289" x2="1609" y1="205.4297" y2="205.4297"/><text fill="#000000" font-family="sans-serif" font-size="14" lengthAdjust="spacing" textLength="91" x="1294" y="222.4248">action: String</text><text fill="#000000" font-family="sans-serif" font-size="14" lengthAdjust="spacing" textLength="83" x="1294" y="238.7217">discounted:</text><a href="DiscountedPriceDraft.svg" target="_top" title="DiscountedPriceDraft.svg" xlink:actuate="onRequest" xlink:href="DiscountedPriceDraft.svg" xlink:show="new" xlink:title="DiscountedPriceDraft.svg" xlink:type="simple"><text fill="#0000FF" font-family="sans-serif" font-size="14" lengthAdjust="spacing" text-decoration="underline" textLength="147" x="1381" y="238.7217">DiscountedPriceDraft</text></a></g></a><!--MD5=[968ff400ef03a2c79b6ba77959713e8c]
class StandalonePriceUpdate--><a href="StandalonePriceUpdate.svg" target="_top" title="StandalonePriceUpdate.svg" xlink:actuate="onRequest" xlink:href="StandalonePriceUpdate.svg" xlink:show="new" xlink:title="StandalonePriceUpdate.svg" xlink:type="simple"><g id="elem_StandalonePriceUpdate"><rect codeLine="41" fill="#F1F1F1" height="72.5938" id="StandalonePriceUpdate" rx="2.5" ry="2.5" style="stroke:#181818;stroke-width:0.5;" width="323" x="627" y="173.4297"/><ellipse cx="703.75" cy="189.4297" fill="#B4A7E5" rx="11" ry="11" style="stroke:#181818;stroke-width:1.0;"/><path d="M699.6719,185.1953 L699.6719,183.0391 L707.0625,183.0391 L707.0625,185.1953 L704.5938,185.1953 L704.5938,193.2734 L707.0625,193.2734 L707.0625,195.4297 L699.6719,195.4297 L699.6719,193.2734 L702.1406,193.2734 L702.1406,185.1953 L699.6719,185.1953 Z " fill="#000000"/><text fill="#000000" font-family="sans-serif" font-size="14" font-style="italic" lengthAdjust="spacing" textLength="161" x="724.25" y="194.2764">StandalonePriceUpdate</text><line style="stroke:#181818;stroke-width:0.5;" x1="628" x2="949" y1="205.4297" y2="205.4297"/><text fill="#000000" font-family="sans-serif" font-size="14" lengthAdjust="spacing" textLength="93" x="633" y="222.4248">version: Long</text><text fill="#000000" font-family="sans-serif" font-size="14" lengthAdjust="spacing" textLength="55" x="633" y="238.7217">actions:</text><a href="StandalonePriceUpdateAction.svg" target="_top" title="StandalonePriceUpdateAction.svg" xlink:actuate="onRequest" xlink:href="StandalonePriceUpdateAction.svg" xlink:show="new" xlink:title="StandalonePriceUpdateAction.svg" xlink:type="simple"><text fill="#0000FF" font-family="sans-serif" font-size="14" lengthAdjust="spacing" text-decoration="underline" textLength="252" x="692" y="238.7217">List&lt;StandalonePriceUpdateAction&gt;</text></a></g></a><line style="stroke:#0000FF;stroke-width:1.0;" x1="300.125" x2="300.125" y1="68.2969" y2="88.2969"/><line style="stroke:#0000FF;stroke-width:1.0;" x1="300.125" x2="1798" y1="88.2969" y2="88.2969"/><line style="stroke:#0000FF;stroke-width:1.0;" x1="1798" x2="1798" y1="88.2969" y2="173.4297"/><polygon fill="#0000FF" points="1798,173.4297,1802,164.4297,1798,168.4297,1794,164.4297,1798,173.4297" style="stroke:#0000FF;stroke-width:1.0;"/><text fill="#000000" font-family="sans-serif" font-size="13" lengthAdjust="spacing" textLength="187" x="1609" y="150.3638">action : applyStagedChanges</text><line style="stroke:#0000FF;stroke-width:1.0;" x1="329.75" x2="329.75" y1="68.2969" y2="78.2969"/><line style="stroke:#0000FF;stroke-width:1.0;" x1="329.75" x2="2128" y1="78.2969" y2="78.2969"/><line style="stroke:#0000FF;stroke-width:1.0;" x1="2128" x2="2128" y1="78.2969" y2="173.4297"/><polygon fill="#0000FF" points="2128,173.4297,2132,164.4297,2128,168.4297,2124,164.4297,2128,173.4297" style="stroke:#0000FF;stroke-width:1.0;"/><text fill="#000000" font-family="sans-serif" font-size="13" lengthAdjust="spacing" textLength="137" x="1989" y="150.3638">action : changeActive</text><line style="stroke:#0000FF;stroke-width:1.0;" x1="152" x2="152" y1="68.2969" y2="173.4297"/><polygon fill="#0000FF" points="152,173.4297,156,164.4297,152,168.4297,148,164.4297,152,173.4297" style="stroke:#0000FF;stroke-width:1.0;"/><text fill="#000000" font-family="sans-serif" font-size="13" lengthAdjust="spacing" textLength="134" x="16" y="150.3638">action : changeValue</text><line style="stroke:#0000FF;stroke-width:1.0;" x1="181.625" x2="181.625" y1="68.2969" y2="128.2969"/><line style="stroke:#0000FF;stroke-width:1.0;" x1="181.625" x2="459.5" y1="128.2969" y2="128.2969"/><line style="stroke:#0000FF;stroke-width:1.0;" x1="459.5" x2="459.5" y1="128.2969" y2="173.4297"/><polygon fill="#0000FF" points="459.5,173.4297,463.5,164.4297,459.5,168.4297,455.5,164.4297,459.5,173.4297" style="stroke:#0000FF;stroke-width:1.0;"/><text fill="#000000" font-family="sans-serif" font-size="13" lengthAdjust="spacing" textLength="150" x="307.5" y="150.3638">action : setCustomField</text><line style="stroke:#0000FF;stroke-width:1.0;" x1="240.875" x2="240.875" y1="68.2969" y2="108.2969"/><line style="stroke:#0000FF;stroke-width:1.0;" x1="240.875" x2="1119" y1="108.2969" y2="108.2969"/><line style="stroke:#0000FF;stroke-width:1.0;" x1="1119" x2="1119" y1="108.2969" y2="173.4297"/><polygon fill="#0000FF" points="1119,173.4297,1123,164.4297,1119,168.4297,1115,164.4297,1119,173.4297" style="stroke:#0000FF;stroke-width:1.0;"/><text fill="#000000" font-family="sans-serif" font-size="13" lengthAdjust="spacing" textLength="151" x="966" y="150.3638">action : setCustomType</text><line style="stroke:#0000FF;stroke-width:1.0;" x1="270.5" x2="270.5" y1="68.2969" y2="98.2969"/><line style="stroke:#0000FF;stroke-width:1.0;" x1="270.5" x2="1449" y1="98.2969" y2="98.2969"/><line style="stroke:#0000FF;stroke-width:1.0;" x1="1449" x2="1449" y1="98.2969" y2="173.4297"/><polygon fill="#0000FF" points="1449,173.4297,1453,164.4297,1449,168.4297,1445,164.4297,1449,173.4297" style="stroke:#0000FF;stroke-width:1.0;"/><text fill="#000000" font-family="sans-serif" font-size="13" lengthAdjust="spacing" textLength="174" x="1273" y="150.3638">action : setDiscountedPrice</text><line style="stroke:#008000;stroke-width:1.0;" x1="211.25" x2="211.25" y1="68.2969" y2="118.2969"/><line style="stroke:#008000;stroke-width:1.0;" x1="211.25" x2="788.5" y1="118.2969" y2="118.2969"/><line style="stroke:#008000;stroke-width:1.0;" x1="788.5" x2="788.5" y1="118.2969" y2="173.4297"/><polygon fill="#008000" points="788.5,173.4297,792.5,164.4297,788.5,168.4297,784.5,164.4297,788.5,173.4297" style="stroke:#008000;stroke-width:1.0;"/><text fill="#000000" font-family="sans-serif" font-size="13" lengthAdjust="spacing" textLength="46" x="740.5" y="150.3638">actions</text><rect fill="#DDDDDD" height="79.1875" id="_legend" rx="7.5" ry="7.5" style="stroke:#000000;stroke-width:1.0;" width="161" x="1048.5" y="263.3203"/><text fill="#000000" font-family="sans-serif" font-size="14" font-weight="bold" lengthAdjust="spacing" textLength="5" x="1053.5" y="283.3154"> </text><text fill="#000000" font-family="sans-serif" font-size="14" font-weight="bold" lengthAdjust="spacing" textLength="28" x="1070.5" y="283.3154">line</text><text fill="#000000" filter="url(#b1bd39c5hlqhe20)" font-family="sans-serif" font-size="14" lengthAdjust="spacing" textLength="12" x="1053.5" y="299.6123">   </text><text fill="#000000" font-family="sans-serif" font-size="14" lengthAdjust="spacing" textLength="77" x="1069.5" y="299.6123">inheritance</text><text fill="#000000" filter="url(#b1bd39c5hlqhe21)" font-family="sans-serif" font-size="14" lengthAdjust="spacing" textLength="12" x="1053.5" y="315.9092">   </text><text fill="#000000" font-family="sans-serif" font-size="14" lengthAdjust="spacing" textLength="129" x="1069.5" y="315.9092">property reference</text><text fill="#000000" filter="url(#b1bd39c5hlqhe22)" font-family="sans-serif" font-size="14" lengthAdjust="spacing" textLength="12" x="1053.5" y="332.2061">   </text><text fill="#000000" font-family="sans-serif" font-size="14" lengthAdjust="spacing" textLength="131" x="1069.5" y="332.2061">discriminated class</text><line style="stroke:#000000;stroke-width:1.0;" x1="1053.5" x2="1204.5" y1="270.3203" y2="270.3203"/><line style="stroke:#000000;stroke-width:1.0;" x1="1053.5" x2="1204.5" y1="286.6172" y2="286.6172"/><line style="stroke:#000000;stroke-width:1.0;" x1="1053.5" x2="1204.5" y1="302.9141" y2="302.9141"/><line style="stroke:#000000;stroke-width:1.0;" x1="1053.5" x2="1204.5" y1="319.2109" y2="319.2109"/><line style="stroke:#000000;stroke-width:1.0;" x1="1053.5" x2="1204.5" y1="335.5078" y2="335.5078"/><line style="stroke:#000000;stroke-width:1.0;" x1="1053.5" x2="1053.5" y1="270.3203" y2="335.5078"/><line style="stroke:#000000;stroke-width:1.0;" x1="1065.5" x2="1065.5" y1="270.3203" y2="335.5078"/><line style="stroke:#000000;stroke-width:1.0;" x1="1204.5" x2="1204.5" y1="270.3203" y2="335.5078"/><!--MD5=[623cca9f38c165a56654b0c063f569d1]
@startuml
!pragma layout elk
hide empty fields
hide empty methods
legend
|= |= line |
|<back:black>   </back>| inheritance |
|<back:green>   </back>| property reference |
|<back:blue>   </back>| discriminated class |
endlegend
interface StandalonePriceUpdateAction [[StandalonePriceUpdateAction.svg]]  {
    action: String
}


interface StandalonePriceApplyStagedChangesAction [[StandalonePriceApplyStagedChangesAction.svg]]  {
    action: String
}
interface StandalonePriceChangeActiveAction [[StandalonePriceChangeActiveAction.svg]]  {
    action: String
    active: Boolean
}
interface StandalonePriceChangeValueAction [[StandalonePriceChangeValueAction.svg]]  {
    action: String
    value: [[Money.svg Money]]
    staged: Boolean
}
interface StandalonePriceSetCustomFieldAction [[StandalonePriceSetCustomFieldAction.svg]]  {
    action: String
    name: String
    value: [[Object.svg Object]]
}
interface StandalonePriceSetCustomTypeAction [[StandalonePriceSetCustomTypeAction.svg]]  {
    action: String
    type: [[TypeResourceIdentifier.svg TypeResourceIdentifier]]
    fields: [[FieldContainer.svg FieldContainer]]
}
interface StandalonePriceSetDiscountedPriceAction [[StandalonePriceSetDiscountedPriceAction.svg]]  {
    action: String
    discounted: [[DiscountedPriceDraft.svg DiscountedPriceDraft]]
}
interface StandalonePriceUpdate [[StandalonePriceUpdate.svg]]  {
    version: Long
    actions: [[StandalonePriceUpdateAction.svg List<StandalonePriceUpdateAction>]]
}
StandalonePriceUpdateAction - -> StandalonePriceApplyStagedChangesAction #blue;text:blue : "action : applyStagedChanges"
StandalonePriceUpdateAction - -> StandalonePriceChangeActiveAction #blue;text:blue : "action : changeActive"
StandalonePriceUpdateAction - -> StandalonePriceChangeValueAction #blue;text:blue : "action : changeValue"
StandalonePriceUpdateAction - -> StandalonePriceSetCustomFieldAction #blue;text:blue : "action : setCustomField"
StandalonePriceUpdateAction - -> StandalonePriceSetCustomTypeAction #blue;text:blue : "action : setCustomType"
StandalonePriceUpdateAction - -> StandalonePriceSetDiscountedPriceAction #blue;text:blue : "action : setDiscountedPrice"
StandalonePriceUpdateAction - -> StandalonePriceUpdate #green;text:green : "actions"
@enduml

PlantUML version 1.2022.13(Sat Nov 19 13:22:17 UTC 2022)
(GPL source distribution)
Java Runtime: OpenJDK Runtime Environment
JVM: OpenJDK 64-Bit Server VM
Default Encoding: UTF-8
Language: en
Country: null
--></g></svg>
