<?xml version="1.0" encoding="UTF-8" standalone="no"?><svg xmlns="http://www.w3.org/2000/svg" xmlns:xlink="http://www.w3.org/1999/xlink" contentStyleType="text/css" height="376px" preserveAspectRatio="none" style="width:2385px;height:376px;background:#FFFFFF;" version="1.1" viewBox="0 0 2385 376" width="2385px" zoomAndPan="magnify"><defs><filter height="1" id="b10zv4jteiisdg0" width="1" x="0" y="0"><feFlood flood-color="#000000" result="flood"/><feComposite in="SourceGraphic" in2="flood" operator="over"/></filter><filter height="1" id="b10zv4jteiisdg1" width="1" x="0" y="0"><feFlood flood-color="#008000" result="flood"/><feComposite in="SourceGraphic" in2="flood" operator="over"/></filter><filter height="1" id="b10zv4jteiisdg2" width="1" x="0" y="0"><feFlood flood-color="#0000FF" result="flood"/><feComposite in="SourceGraphic" in2="flood" operator="over"/></filter></defs><g><!--MD5=[86e74f864189dac64cee44b2509d7bb2]
class StateUpdateAction--><a href="StateUpdateAction.svg" target="_top" title="StateUpdateAction.svg" xlink:actuate="onRequest" xlink:href="StateUpdateAction.svg" xlink:show="new" xlink:title="StateUpdateAction.svg" xlink:type="simple"><g id="elem_StateUpdateAction"><rect codeLine="10" fill="#F1F1F1" height="56.2969" id="StateUpdateAction" rx="2.5" ry="2.5" style="stroke:#181818;stroke-width:0.5;" width="162" x="120.2727" y="12"/><ellipse cx="135.2727" cy="28" fill="#B4A7E5" rx="11" ry="11" style="stroke:#181818;stroke-width:1.0;"/><path d="M131.1946,23.7656 L131.1946,21.6094 L138.5852,21.6094 L138.5852,23.7656 L136.1165,23.7656 L136.1165,31.8438 L138.5852,31.8438 L138.5852,34 L131.1946,34 L131.1946,31.8438 L133.6634,31.8438 L133.6634,23.7656 L131.1946,23.7656 Z " fill="#000000"/><text fill="#000000" font-family="sans-serif" font-size="14" font-style="italic" lengthAdjust="spacing" textLength="130" x="149.2727" y="32.8467">StateUpdateAction</text><line style="stroke:#181818;stroke-width:0.5;" x1="121.2727" x2="281.2727" y1="44" y2="44"/><text fill="#000000" font-family="sans-serif" font-size="14" lengthAdjust="spacing" textLength="91" x="126.2727" y="60.9951">action: String</text></g></a><!--MD5=[905cb2fab241f564d769dc2c4de6f504]
class StateAddRolesAction--><a href="StateAddRolesAction.svg" target="_top" title="StateAddRolesAction.svg" xlink:actuate="onRequest" xlink:href="StateAddRolesAction.svg" xlink:show="new" xlink:title="StateAddRolesAction.svg" xlink:type="simple"><g id="elem_StateAddRolesAction"><rect codeLine="15" fill="#F1F1F1" height="72.5938" id="StateAddRolesAction" rx="2.5" ry="2.5" style="stroke:#181818;stroke-width:0.5;" width="209" x="1948" y="203.4297"/><ellipse cx="1976.95" cy="219.4297" fill="#B4A7E5" rx="11" ry="11" style="stroke:#181818;stroke-width:1.0;"/><path d="M1972.8719,215.1953 L1972.8719,213.0391 L1980.2625,213.0391 L1980.2625,215.1953 L1977.7938,215.1953 L1977.7938,223.2734 L1980.2625,223.2734 L1980.2625,225.4297 L1972.8719,225.4297 L1972.8719,223.2734 L1975.3406,223.2734 L1975.3406,215.1953 L1972.8719,215.1953 Z " fill="#000000"/><text fill="#000000" font-family="sans-serif" font-size="14" font-style="italic" lengthAdjust="spacing" textLength="146" x="1994.05" y="224.2764">StateAddRolesAction</text><line style="stroke:#181818;stroke-width:0.5;" x1="1949" x2="2156" y1="235.4297" y2="235.4297"/><text fill="#000000" font-family="sans-serif" font-size="14" lengthAdjust="spacing" textLength="91" x="1954" y="252.4248">action: String</text><text fill="#000000" font-family="sans-serif" font-size="14" lengthAdjust="spacing" textLength="39" x="1954" y="268.7217">roles:</text><a href="StateRoleEnum.svg" target="_top" title="StateRoleEnum.svg" xlink:actuate="onRequest" xlink:href="StateRoleEnum.svg" xlink:show="new" xlink:title="StateRoleEnum.svg" xlink:type="simple"><text fill="#0000FF" font-family="sans-serif" font-size="14" lengthAdjust="spacing" text-decoration="underline" textLength="154" x="1997" y="268.7217">List&lt;StateRoleEnum&gt;</text></a></g></a><!--MD5=[f4183b5f96f9ba3b33aa615756138f14]
class StateChangeInitialAction--><a href="StateChangeInitialAction.svg" target="_top" title="StateChangeInitialAction.svg" xlink:actuate="onRequest" xlink:href="StateChangeInitialAction.svg" xlink:show="new" xlink:title="StateChangeInitialAction.svg" xlink:type="simple"><g id="elem_StateChangeInitialAction"><rect codeLine="19" fill="#F1F1F1" height="72.5938" id="StateChangeInitialAction" rx="2.5" ry="2.5" style="stroke:#181818;stroke-width:0.5;" width="201" x="2177" y="203.4297"/><ellipse cx="2192" cy="219.4297" fill="#B4A7E5" rx="11" ry="11" style="stroke:#181818;stroke-width:1.0;"/><path d="M2187.9219,215.1953 L2187.9219,213.0391 L2195.3125,213.0391 L2195.3125,215.1953 L2192.8438,215.1953 L2192.8438,223.2734 L2195.3125,223.2734 L2195.3125,225.4297 L2187.9219,225.4297 L2187.9219,223.2734 L2190.3906,223.2734 L2190.3906,215.1953 L2187.9219,215.1953 Z " fill="#000000"/><text fill="#000000" font-family="sans-serif" font-size="14" font-style="italic" lengthAdjust="spacing" textLength="169" x="2206" y="224.2764">StateChangeInitialAction</text><line style="stroke:#181818;stroke-width:0.5;" x1="2178" x2="2377" y1="235.4297" y2="235.4297"/><text fill="#000000" font-family="sans-serif" font-size="14" lengthAdjust="spacing" textLength="91" x="2183" y="252.4248">action: String</text><text fill="#000000" font-family="sans-serif" font-size="14" lengthAdjust="spacing" textLength="100" x="2183" y="268.7217">initial: Boolean</text></g></a><!--MD5=[962059f1ecab113b2a0b49836dc5a4bc]
class StateChangeKeyAction--><a href="StateChangeKeyAction.svg" target="_top" title="StateChangeKeyAction.svg" xlink:actuate="onRequest" xlink:href="StateChangeKeyAction.svg" xlink:show="new" xlink:title="StateChangeKeyAction.svg" xlink:type="simple"><g id="elem_StateChangeKeyAction"><rect codeLine="23" fill="#F1F1F1" height="72.5938" id="StateChangeKeyAction" rx="2.5" ry="2.5" style="stroke:#181818;stroke-width:0.5;" width="192" x="39" y="203.4297"/><ellipse cx="54" cy="219.4297" fill="#B4A7E5" rx="11" ry="11" style="stroke:#181818;stroke-width:1.0;"/><path d="M49.9219,215.1953 L49.9219,213.0391 L57.3125,213.0391 L57.3125,215.1953 L54.8438,215.1953 L54.8438,223.2734 L57.3125,223.2734 L57.3125,225.4297 L49.9219,225.4297 L49.9219,223.2734 L52.3906,223.2734 L52.3906,215.1953 L49.9219,215.1953 Z " fill="#000000"/><text fill="#000000" font-family="sans-serif" font-size="14" font-style="italic" lengthAdjust="spacing" textLength="160" x="68" y="224.2764">StateChangeKeyAction</text><line style="stroke:#181818;stroke-width:0.5;" x1="40" x2="230" y1="235.4297" y2="235.4297"/><text fill="#000000" font-family="sans-serif" font-size="14" lengthAdjust="spacing" textLength="91" x="45" y="252.4248">action: String</text><text fill="#000000" font-family="sans-serif" font-size="14" lengthAdjust="spacing" textLength="73" x="45" y="268.7217">key: String</text></g></a><!--MD5=[2779073a07c31da3b4a9d9a2913dc3fd]
class StateChangeTypeAction--><a href="StateChangeTypeAction.svg" target="_top" title="StateChangeTypeAction.svg" xlink:actuate="onRequest" xlink:href="StateChangeTypeAction.svg" xlink:show="new" xlink:title="StateChangeTypeAction.svg" xlink:type="simple"><g id="elem_StateChangeTypeAction"><rect codeLine="27" fill="#F1F1F1" height="72.5938" id="StateChangeTypeAction" rx="2.5" ry="2.5" style="stroke:#181818;stroke-width:0.5;" width="201" x="747" y="203.4297"/><ellipse cx="762" cy="219.4297" fill="#B4A7E5" rx="11" ry="11" style="stroke:#181818;stroke-width:1.0;"/><path d="M757.9219,215.1953 L757.9219,213.0391 L765.3125,213.0391 L765.3125,215.1953 L762.8438,215.1953 L762.8438,223.2734 L765.3125,223.2734 L765.3125,225.4297 L757.9219,225.4297 L757.9219,223.2734 L760.3906,223.2734 L760.3906,215.1953 L757.9219,215.1953 Z " fill="#000000"/><text fill="#000000" font-family="sans-serif" font-size="14" font-style="italic" lengthAdjust="spacing" textLength="169" x="776" y="224.2764">StateChangeTypeAction</text><line style="stroke:#181818;stroke-width:0.5;" x1="748" x2="947" y1="235.4297" y2="235.4297"/><text fill="#000000" font-family="sans-serif" font-size="14" lengthAdjust="spacing" textLength="91" x="753" y="252.4248">action: String</text><text fill="#000000" font-family="sans-serif" font-size="14" lengthAdjust="spacing" textLength="35" x="753" y="268.7217">type:</text><a href="StateTypeEnum.svg" target="_top" title="StateTypeEnum.svg" xlink:actuate="onRequest" xlink:href="StateTypeEnum.svg" xlink:show="new" xlink:title="StateTypeEnum.svg" xlink:type="simple"><text fill="#0000FF" font-family="sans-serif" font-size="14" lengthAdjust="spacing" text-decoration="underline" textLength="110" x="792" y="268.7217">StateTypeEnum</text></a></g></a><!--MD5=[22dc019beed01d76d3baf70034d0db44]
class StateRemoveRolesAction--><a href="StateRemoveRolesAction.svg" target="_top" title="StateRemoveRolesAction.svg" xlink:actuate="onRequest" xlink:href="StateRemoveRolesAction.svg" xlink:show="new" xlink:title="StateRemoveRolesAction.svg" xlink:type="simple"><g id="elem_StateRemoveRolesAction"><rect codeLine="31" fill="#F1F1F1" height="72.5938" id="StateRemoveRolesAction" rx="2.5" ry="2.5" style="stroke:#181818;stroke-width:0.5;" width="209" x="1486" y="203.4297"/><ellipse cx="1501.45" cy="219.4297" fill="#B4A7E5" rx="11" ry="11" style="stroke:#181818;stroke-width:1.0;"/><path d="M1497.3719,215.1953 L1497.3719,213.0391 L1504.7625,213.0391 L1504.7625,215.1953 L1502.2938,215.1953 L1502.2938,223.2734 L1504.7625,223.2734 L1504.7625,225.4297 L1497.3719,225.4297 L1497.3719,223.2734 L1499.8406,223.2734 L1499.8406,215.1953 L1497.3719,215.1953 Z " fill="#000000"/><text fill="#000000" font-family="sans-serif" font-size="14" font-style="italic" lengthAdjust="spacing" textLength="176" x="1515.55" y="224.2764">StateRemoveRolesAction</text><line style="stroke:#181818;stroke-width:0.5;" x1="1487" x2="1694" y1="235.4297" y2="235.4297"/><text fill="#000000" font-family="sans-serif" font-size="14" lengthAdjust="spacing" textLength="91" x="1492" y="252.4248">action: String</text><text fill="#000000" font-family="sans-serif" font-size="14" lengthAdjust="spacing" textLength="39" x="1492" y="268.7217">roles:</text><a href="StateRoleEnum.svg" target="_top" title="StateRoleEnum.svg" xlink:actuate="onRequest" xlink:href="StateRoleEnum.svg" xlink:show="new" xlink:title="StateRoleEnum.svg" xlink:type="simple"><text fill="#0000FF" font-family="sans-serif" font-size="14" lengthAdjust="spacing" text-decoration="underline" textLength="154" x="1535" y="268.7217">List&lt;StateRoleEnum&gt;</text></a></g></a><!--MD5=[4dbf4f04e67e93545e9b0778a1741af3]
class StateSetDescriptionAction--><a href="StateSetDescriptionAction.svg" target="_top" title="StateSetDescriptionAction.svg" xlink:actuate="onRequest" xlink:href="StateSetDescriptionAction.svg" xlink:show="new" xlink:title="StateSetDescriptionAction.svg" xlink:type="simple"><g id="elem_StateSetDescriptionAction"><rect codeLine="35" fill="#F1F1F1" height="72.5938" id="StateSetDescriptionAction" rx="2.5" ry="2.5" style="stroke:#181818;stroke-width:0.5;" width="213" x="1715" y="203.4297"/><ellipse cx="1730" cy="219.4297" fill="#B4A7E5" rx="11" ry="11" style="stroke:#181818;stroke-width:1.0;"/><path d="M1725.9219,215.1953 L1725.9219,213.0391 L1733.3125,213.0391 L1733.3125,215.1953 L1730.8438,215.1953 L1730.8438,223.2734 L1733.3125,223.2734 L1733.3125,225.4297 L1725.9219,225.4297 L1725.9219,223.2734 L1728.3906,223.2734 L1728.3906,215.1953 L1725.9219,215.1953 Z " fill="#000000"/><text fill="#000000" font-family="sans-serif" font-size="14" font-style="italic" lengthAdjust="spacing" textLength="181" x="1744" y="224.2764">StateSetDescriptionAction</text><line style="stroke:#181818;stroke-width:0.5;" x1="1716" x2="1927" y1="235.4297" y2="235.4297"/><text fill="#000000" font-family="sans-serif" font-size="14" lengthAdjust="spacing" textLength="91" x="1721" y="252.4248">action: String</text><text fill="#000000" font-family="sans-serif" font-size="14" lengthAdjust="spacing" textLength="82" x="1721" y="268.7217">description:</text><a href="LocalizedString.svg" target="_top" title="LocalizedString.svg" xlink:actuate="onRequest" xlink:href="LocalizedString.svg" xlink:show="new" xlink:title="LocalizedString.svg" xlink:type="simple"><text fill="#0000FF" font-family="sans-serif" font-size="14" lengthAdjust="spacing" text-decoration="underline" textLength="104" x="1807" y="268.7217">LocalizedString</text></a></g></a><!--MD5=[7485202a730cf687473097058f63803c]
class StateSetNameAction--><a href="StateSetNameAction.svg" target="_top" title="StateSetNameAction.svg" xlink:actuate="onRequest" xlink:href="StateSetNameAction.svg" xlink:show="new" xlink:title="StateSetNameAction.svg" xlink:type="simple"><g id="elem_StateSetNameAction"><rect codeLine="39" fill="#F1F1F1" height="72.5938" id="StateSetNameAction" rx="2.5" ry="2.5" style="stroke:#181818;stroke-width:0.5;" width="176" x="1290" y="203.4297"/><ellipse cx="1305" cy="219.4297" fill="#B4A7E5" rx="11" ry="11" style="stroke:#181818;stroke-width:1.0;"/><path d="M1300.9219,215.1953 L1300.9219,213.0391 L1308.3125,213.0391 L1308.3125,215.1953 L1305.8438,215.1953 L1305.8438,223.2734 L1308.3125,223.2734 L1308.3125,225.4297 L1300.9219,225.4297 L1300.9219,223.2734 L1303.3906,223.2734 L1303.3906,215.1953 L1300.9219,215.1953 Z " fill="#000000"/><text fill="#000000" font-family="sans-serif" font-size="14" font-style="italic" lengthAdjust="spacing" textLength="144" x="1319" y="224.2764">StateSetNameAction</text><line style="stroke:#181818;stroke-width:0.5;" x1="1291" x2="1465" y1="235.4297" y2="235.4297"/><text fill="#000000" font-family="sans-serif" font-size="14" lengthAdjust="spacing" textLength="91" x="1296" y="252.4248">action: String</text><text fill="#000000" font-family="sans-serif" font-size="14" lengthAdjust="spacing" textLength="44" x="1296" y="268.7217">name:</text><a href="LocalizedString.svg" target="_top" title="LocalizedString.svg" xlink:actuate="onRequest" xlink:href="LocalizedString.svg" xlink:show="new" xlink:title="LocalizedString.svg" xlink:type="simple"><text fill="#0000FF" font-family="sans-serif" font-size="14" lengthAdjust="spacing" text-decoration="underline" textLength="104" x="1344" y="268.7217">LocalizedString</text></a></g></a><!--MD5=[5a52984a7351780a3fcb076d1335e296]
class StateSetRolesAction--><a href="StateSetRolesAction.svg" target="_top" title="StateSetRolesAction.svg" xlink:actuate="onRequest" xlink:href="StateSetRolesAction.svg" xlink:show="new" xlink:title="StateSetRolesAction.svg" xlink:type="simple"><g id="elem_StateSetRolesAction"><rect codeLine="43" fill="#F1F1F1" height="72.5938" id="StateSetRolesAction" rx="2.5" ry="2.5" style="stroke:#181818;stroke-width:0.5;" width="209" x="251" y="203.4297"/><ellipse cx="282.2" cy="219.4297" fill="#B4A7E5" rx="11" ry="11" style="stroke:#181818;stroke-width:1.0;"/><path d="M278.1219,215.1953 L278.1219,213.0391 L285.5125,213.0391 L285.5125,215.1953 L283.0438,215.1953 L283.0438,223.2734 L285.5125,223.2734 L285.5125,225.4297 L278.1219,225.4297 L278.1219,223.2734 L280.5906,223.2734 L280.5906,215.1953 L278.1219,215.1953 Z " fill="#000000"/><text fill="#000000" font-family="sans-serif" font-size="14" font-style="italic" lengthAdjust="spacing" textLength="141" x="299.8" y="224.2764">StateSetRolesAction</text><line style="stroke:#181818;stroke-width:0.5;" x1="252" x2="459" y1="235.4297" y2="235.4297"/><text fill="#000000" font-family="sans-serif" font-size="14" lengthAdjust="spacing" textLength="91" x="257" y="252.4248">action: String</text><text fill="#000000" font-family="sans-serif" font-size="14" lengthAdjust="spacing" textLength="39" x="257" y="268.7217">roles:</text><a href="StateRoleEnum.svg" target="_top" title="StateRoleEnum.svg" xlink:actuate="onRequest" xlink:href="StateRoleEnum.svg" xlink:show="new" xlink:title="StateRoleEnum.svg" xlink:type="simple"><text fill="#0000FF" font-family="sans-serif" font-size="14" lengthAdjust="spacing" text-decoration="underline" textLength="154" x="300" y="268.7217">List&lt;StateRoleEnum&gt;</text></a></g></a><!--MD5=[b3490051dd20299e87f20c5b168a9a4f]
class StateSetTransitionsAction--><a href="StateSetTransitionsAction.svg" target="_top" title="StateSetTransitionsAction.svg" xlink:actuate="onRequest" xlink:href="StateSetTransitionsAction.svg" xlink:show="new" xlink:title="StateSetTransitionsAction.svg" xlink:type="simple"><g id="elem_StateSetTransitionsAction"><rect codeLine="47" fill="#F1F1F1" height="72.5938" id="StateSetTransitionsAction" rx="2.5" ry="2.5" style="stroke:#181818;stroke-width:0.5;" width="302" x="968" y="203.4297"/><ellipse cx="1026.25" cy="219.4297" fill="#B4A7E5" rx="11" ry="11" style="stroke:#181818;stroke-width:1.0;"/><path d="M1022.1719,215.1953 L1022.1719,213.0391 L1029.5625,213.0391 L1029.5625,215.1953 L1027.0938,215.1953 L1027.0938,223.2734 L1029.5625,223.2734 L1029.5625,225.4297 L1022.1719,225.4297 L1022.1719,223.2734 L1024.6406,223.2734 L1024.6406,215.1953 L1022.1719,215.1953 Z " fill="#000000"/><text fill="#000000" font-family="sans-serif" font-size="14" font-style="italic" lengthAdjust="spacing" textLength="177" x="1046.75" y="224.2764">StateSetTransitionsAction</text><line style="stroke:#181818;stroke-width:0.5;" x1="969" x2="1269" y1="235.4297" y2="235.4297"/><text fill="#000000" font-family="sans-serif" font-size="14" lengthAdjust="spacing" textLength="91" x="974" y="252.4248">action: String</text><text fill="#000000" font-family="sans-serif" font-size="14" lengthAdjust="spacing" textLength="77" x="974" y="268.7217">transitions:</text><a href="StateResourceIdentifier.svg" target="_top" title="StateResourceIdentifier.svg" xlink:actuate="onRequest" xlink:href="StateResourceIdentifier.svg" xlink:show="new" xlink:title="StateResourceIdentifier.svg" xlink:type="simple"><text fill="#0000FF" font-family="sans-serif" font-size="14" lengthAdjust="spacing" text-decoration="underline" textLength="209" x="1055" y="268.7217">List&lt;StateResourceIdentifier&gt;</text></a></g></a><!--MD5=[2697d20d3561aa0492d09ac957dc3857]
class StateUpdate--><a href="StateUpdate.svg" target="_top" title="StateUpdate.svg" xlink:actuate="onRequest" xlink:href="StateUpdate.svg" xlink:show="new" xlink:title="StateUpdate.svg" xlink:type="simple"><g id="elem_StateUpdate"><rect codeLine="51" fill="#F1F1F1" height="72.5938" id="StateUpdate" rx="2.5" ry="2.5" style="stroke:#181818;stroke-width:0.5;" width="247" x="480" y="203.4297"/><ellipse cx="556.25" cy="219.4297" fill="#B4A7E5" rx="11" ry="11" style="stroke:#181818;stroke-width:1.0;"/><path d="M552.1719,215.1953 L552.1719,213.0391 L559.5625,213.0391 L559.5625,215.1953 L557.0938,215.1953 L557.0938,223.2734 L559.5625,223.2734 L559.5625,225.4297 L552.1719,225.4297 L552.1719,223.2734 L554.6406,223.2734 L554.6406,215.1953 L552.1719,215.1953 Z " fill="#000000"/><text fill="#000000" font-family="sans-serif" font-size="14" font-style="italic" lengthAdjust="spacing" textLength="86" x="576.75" y="224.2764">StateUpdate</text><line style="stroke:#181818;stroke-width:0.5;" x1="481" x2="726" y1="235.4297" y2="235.4297"/><text fill="#000000" font-family="sans-serif" font-size="14" lengthAdjust="spacing" textLength="93" x="486" y="252.4248">version: Long</text><text fill="#000000" font-family="sans-serif" font-size="14" lengthAdjust="spacing" textLength="55" x="486" y="268.7217">actions:</text><a href="StateUpdateAction.svg" target="_top" title="StateUpdateAction.svg" xlink:actuate="onRequest" xlink:href="StateUpdateAction.svg" xlink:show="new" xlink:title="StateUpdateAction.svg" xlink:type="simple"><text fill="#0000FF" font-family="sans-serif" font-size="14" lengthAdjust="spacing" text-decoration="underline" textLength="176" x="545" y="268.7217">List&lt;StateUpdateAction&gt;</text></a></g></a><line style="stroke:#0000FF;stroke-width:1.0;" x1="252.8182" x2="252.8182" y1="68.2969" y2="88.2969"/><line style="stroke:#0000FF;stroke-width:1.0;" x1="252.8182" x2="2052.5" y1="88.2969" y2="88.2969"/><line style="stroke:#0000FF;stroke-width:1.0;" x1="2052.5" x2="2052.5" y1="88.2969" y2="203.4297"/><polygon fill="#0000FF" points="2052.5,203.4297,2056.5,194.4297,2052.5,198.4297,2048.5,194.4297,2052.5,203.4297" style="stroke:#0000FF;stroke-width:1.0;"/><text fill="#000000" font-family="sans-serif" font-size="13" lengthAdjust="spacing" textLength="109" x="1941.5" y="180.3638">action : addRoles</text><line style="stroke:#0000FF;stroke-width:1.0;" x1="267.5455" x2="267.5455" y1="68.2969" y2="78.2969"/><line style="stroke:#0000FF;stroke-width:1.0;" x1="267.5455" x2="2277.5" y1="78.2969" y2="78.2969"/><line style="stroke:#0000FF;stroke-width:1.0;" x1="2277.5" x2="2277.5" y1="78.2969" y2="203.4297"/><polygon fill="#0000FF" points="2277.5,203.4297,2281.5,194.4297,2277.5,198.4297,2273.5,194.4297,2277.5,203.4297" style="stroke:#0000FF;stroke-width:1.0;"/><text fill="#000000" font-family="sans-serif" font-size="13" lengthAdjust="spacing" textLength="131" x="2144.5" y="180.3638">action : changeInitial</text><line style="stroke:#0000FF;stroke-width:1.0;" x1="135" x2="135" y1="68.2969" y2="203.4297"/><polygon fill="#0000FF" points="135,203.4297,139,194.4297,135,198.4297,131,194.4297,135,203.4297" style="stroke:#0000FF;stroke-width:1.0;"/><text fill="#000000" font-family="sans-serif" font-size="13" lengthAdjust="spacing" textLength="121" x="12" y="180.3638">action : changeKey</text><line style="stroke:#0000FF;stroke-width:1.0;" x1="179.1818" x2="179.1818" y1="68.2969" y2="138.2969"/><line style="stroke:#0000FF;stroke-width:1.0;" x1="179.1818" x2="847.5" y1="138.2969" y2="138.2969"/><line style="stroke:#0000FF;stroke-width:1.0;" x1="847.5" x2="847.5" y1="138.2969" y2="203.4297"/><polygon fill="#0000FF" points="847.5,203.4297,851.5,194.4297,847.5,198.4297,843.5,194.4297,847.5,203.4297" style="stroke:#0000FF;stroke-width:1.0;"/><text fill="#000000" font-family="sans-serif" font-size="13" lengthAdjust="spacing" textLength="128" x="717.5" y="180.3638">action : changeType</text><line style="stroke:#0000FF;stroke-width:1.0;" x1="223.3636" x2="223.3636" y1="68.2969" y2="108.2969"/><line style="stroke:#0000FF;stroke-width:1.0;" x1="223.3636" x2="1590.5" y1="108.2969" y2="108.2969"/><line style="stroke:#0000FF;stroke-width:1.0;" x1="1590.5" x2="1590.5" y1="108.2969" y2="203.4297"/><polygon fill="#0000FF" points="1590.5,203.4297,1594.5,194.4297,1590.5,198.4297,1586.5,194.4297,1590.5,203.4297" style="stroke:#0000FF;stroke-width:1.0;"/><text fill="#000000" font-family="sans-serif" font-size="13" lengthAdjust="spacing" textLength="134" x="1454.5" y="180.3638">action : removeRoles</text><line style="stroke:#0000FF;stroke-width:1.0;" x1="238.0909" x2="238.0909" y1="68.2969" y2="98.2969"/><line style="stroke:#0000FF;stroke-width:1.0;" x1="238.0909" x2="1821.5" y1="98.2969" y2="98.2969"/><line style="stroke:#0000FF;stroke-width:1.0;" x1="1821.5" x2="1821.5" y1="98.2969" y2="203.4297"/><polygon fill="#0000FF" points="1821.5,203.4297,1825.5,194.4297,1821.5,198.4297,1817.5,194.4297,1821.5,203.4297" style="stroke:#0000FF;stroke-width:1.0;"/><text fill="#000000" font-family="sans-serif" font-size="13" lengthAdjust="spacing" textLength="143" x="1676.5" y="180.3638">action : setDescription</text><line style="stroke:#0000FF;stroke-width:1.0;" x1="208.6364" x2="208.6364" y1="68.2969" y2="118.2969"/><line style="stroke:#0000FF;stroke-width:1.0;" x1="208.6364" x2="1378" y1="118.2969" y2="118.2969"/><line style="stroke:#0000FF;stroke-width:1.0;" x1="1378" x2="1378" y1="118.2969" y2="203.4297"/><polygon fill="#0000FF" points="1378,203.4297,1382,194.4297,1378,198.4297,1374,194.4297,1378,203.4297" style="stroke:#0000FF;stroke-width:1.0;"/><text fill="#000000" font-family="sans-serif" font-size="13" lengthAdjust="spacing" textLength="110" x="1266" y="180.3638">action : setName</text><line style="stroke:#0000FF;stroke-width:1.0;" x1="149.7273" x2="149.7273" y1="68.2969" y2="158.2969"/><line style="stroke:#0000FF;stroke-width:1.0;" x1="149.7273" x2="355.5" y1="158.2969" y2="158.2969"/><line style="stroke:#0000FF;stroke-width:1.0;" x1="355.5" x2="355.5" y1="158.2969" y2="203.4297"/><polygon fill="#0000FF" points="355.5,203.4297,359.5,194.4297,355.5,198.4297,351.5,194.4297,355.5,203.4297" style="stroke:#0000FF;stroke-width:1.0;"/><text fill="#000000" font-family="sans-serif" font-size="13" lengthAdjust="spacing" textLength="105" x="248.5" y="180.3638">action : setRoles</text><line style="stroke:#0000FF;stroke-width:1.0;" x1="193.9091" x2="193.9091" y1="68.2969" y2="128.2969"/><line style="stroke:#0000FF;stroke-width:1.0;" x1="193.9091" x2="1119" y1="128.2969" y2="128.2969"/><line style="stroke:#0000FF;stroke-width:1.0;" x1="1119" x2="1119" y1="128.2969" y2="203.4297"/><polygon fill="#0000FF" points="1119,203.4297,1123,194.4297,1119,198.4297,1115,194.4297,1119,203.4297" style="stroke:#0000FF;stroke-width:1.0;"/><text fill="#000000" font-family="sans-serif" font-size="13" lengthAdjust="spacing" textLength="140" x="977" y="180.3638">action : setTransitions</text><line style="stroke:#008000;stroke-width:1.0;" x1="164.4545" x2="164.4545" y1="68.2969" y2="148.2969"/><line style="stroke:#008000;stroke-width:1.0;" x1="164.4545" x2="603.5" y1="148.2969" y2="148.2969"/><line style="stroke:#008000;stroke-width:1.0;" x1="603.5" x2="603.5" y1="148.2969" y2="203.4297"/><polygon fill="#008000" points="603.5,203.4297,607.5,194.4297,603.5,198.4297,599.5,194.4297,603.5,203.4297" style="stroke:#008000;stroke-width:1.0;"/><text fill="#000000" font-family="sans-serif" font-size="13" lengthAdjust="spacing" textLength="46" x="555.5" y="180.3638">actions</text><rect fill="#DDDDDD" height="79.1875" id="_legend" rx="7.5" ry="7.5" style="stroke:#000000;stroke-width:1.0;" width="161" x="1102" y="277.0234"/><text fill="#000000" font-family="sans-serif" font-size="14" font-weight="bold" lengthAdjust="spacing" textLength="5" x="1107" y="297.0186"> </text><text fill="#000000" font-family="sans-serif" font-size="14" font-weight="bold" lengthAdjust="spacing" textLength="28" x="1124" y="297.0186">line</text><text fill="#000000" filter="url(#b10zv4jteiisdg0)" font-family="sans-serif" font-size="14" lengthAdjust="spacing" textLength="12" x="1107" y="313.3154">   </text><text fill="#000000" font-family="sans-serif" font-size="14" lengthAdjust="spacing" textLength="77" x="1123" y="313.3154">inheritance</text><text fill="#000000" filter="url(#b10zv4jteiisdg1)" font-family="sans-serif" font-size="14" lengthAdjust="spacing" textLength="12" x="1107" y="329.6123">   </text><text fill="#000000" font-family="sans-serif" font-size="14" lengthAdjust="spacing" textLength="129" x="1123" y="329.6123">property reference</text><text fill="#000000" filter="url(#b10zv4jteiisdg2)" font-family="sans-serif" font-size="14" lengthAdjust="spacing" textLength="12" x="1107" y="345.9092">   </text><text fill="#000000" font-family="sans-serif" font-size="14" lengthAdjust="spacing" textLength="131" x="1123" y="345.9092">discriminated class</text><line style="stroke:#000000;stroke-width:1.0;" x1="1107" x2="1258" y1="284.0234" y2="284.0234"/><line style="stroke:#000000;stroke-width:1.0;" x1="1107" x2="1258" y1="300.3203" y2="300.3203"/><line style="stroke:#000000;stroke-width:1.0;" x1="1107" x2="1258" y1="316.6172" y2="316.6172"/><line style="stroke:#000000;stroke-width:1.0;" x1="1107" x2="1258" y1="332.9141" y2="332.9141"/><line style="stroke:#000000;stroke-width:1.0;" x1="1107" x2="1258" y1="349.2109" y2="349.2109"/><line style="stroke:#000000;stroke-width:1.0;" x1="1107" x2="1107" y1="284.0234" y2="349.2109"/><line style="stroke:#000000;stroke-width:1.0;" x1="1119" x2="1119" y1="284.0234" y2="349.2109"/><line style="stroke:#000000;stroke-width:1.0;" x1="1258" x2="1258" y1="284.0234" y2="349.2109"/><!--MD5=[2b3f80c035974e90bfafe07fb73237f3]
@startuml
!pragma layout elk
hide empty fields
hide empty methods
legend
|= |= line |
|<back:black>   </back>| inheritance |
|<back:green>   </back>| property reference |
|<back:blue>   </back>| discriminated class |
endlegend
interface StateUpdateAction [[StateUpdateAction.svg]]  {
    action: String
}


interface StateAddRolesAction [[StateAddRolesAction.svg]]  {
    action: String
    roles: [[StateRoleEnum.svg List<StateRoleEnum>]]
}
interface StateChangeInitialAction [[StateChangeInitialAction.svg]]  {
    action: String
    initial: Boolean
}
interface StateChangeKeyAction [[StateChangeKeyAction.svg]]  {
    action: String
    key: String
}
interface StateChangeTypeAction [[StateChangeTypeAction.svg]]  {
    action: String
    type: [[StateTypeEnum.svg StateTypeEnum]]
}
interface StateRemoveRolesAction [[StateRemoveRolesAction.svg]]  {
    action: String
    roles: [[StateRoleEnum.svg List<StateRoleEnum>]]
}
interface StateSetDescriptionAction [[StateSetDescriptionAction.svg]]  {
    action: String
    description: [[LocalizedString.svg LocalizedString]]
}
interface StateSetNameAction [[StateSetNameAction.svg]]  {
    action: String
    name: [[LocalizedString.svg LocalizedString]]
}
interface StateSetRolesAction [[StateSetRolesAction.svg]]  {
    action: String
    roles: [[StateRoleEnum.svg List<StateRoleEnum>]]
}
interface StateSetTransitionsAction [[StateSetTransitionsAction.svg]]  {
    action: String
    transitions: [[StateResourceIdentifier.svg List<StateResourceIdentifier>]]
}
interface StateUpdate [[StateUpdate.svg]]  {
    version: Long
    actions: [[StateUpdateAction.svg List<StateUpdateAction>]]
}
StateUpdateAction - -> StateAddRolesAction #blue;text:blue : "action : addRoles"
StateUpdateAction - -> StateChangeInitialAction #blue;text:blue : "action : changeInitial"
StateUpdateAction - -> StateChangeKeyAction #blue;text:blue : "action : changeKey"
StateUpdateAction - -> StateChangeTypeAction #blue;text:blue : "action : changeType"
StateUpdateAction - -> StateRemoveRolesAction #blue;text:blue : "action : removeRoles"
StateUpdateAction - -> StateSetDescriptionAction #blue;text:blue : "action : setDescription"
StateUpdateAction - -> StateSetNameAction #blue;text:blue : "action : setName"
StateUpdateAction - -> StateSetRolesAction #blue;text:blue : "action : setRoles"
StateUpdateAction - -> StateSetTransitionsAction #blue;text:blue : "action : setTransitions"
StateUpdateAction - -> StateUpdate #green;text:green : "actions"
@enduml

PlantUML version 1.2022.13(Sat Nov 19 13:22:17 UTC 2022)
(GPL source distribution)
Java Runtime: OpenJDK Runtime Environment
JVM: OpenJDK 64-Bit Server VM
Default Encoding: UTF-8
Language: en
Country: null
--></g></svg>
