<?xml version="1.0" encoding="UTF-8" standalone="no"?><svg xmlns="http://www.w3.org/2000/svg" xmlns:xlink="http://www.w3.org/1999/xlink" contentStyleType="text/css" height="326px" preserveAspectRatio="none" style="width:1456px;height:326px;background:#FFFFFF;" version="1.1" viewBox="0 0 1456 326" width="1456px" zoomAndPan="magnify"><defs><filter height="1" id="b15ekcojt3m9620" width="1" x="0" y="0"><feFlood flood-color="#000000" result="flood"/><feComposite in="SourceGraphic" in2="flood" operator="over"/></filter><filter height="1" id="b15ekcojt3m9621" width="1" x="0" y="0"><feFlood flood-color="#008000" result="flood"/><feComposite in="SourceGraphic" in2="flood" operator="over"/></filter><filter height="1" id="b15ekcojt3m9622" width="1" x="0" y="0"><feFlood flood-color="#0000FF" result="flood"/><feComposite in="SourceGraphic" in2="flood" operator="over"/></filter></defs><g><!--MD5=[3192e6a1217f50e5a9e4ba299fa6be66]
class SubscriptionUpdateAction--><a href="SubscriptionUpdateAction.svg" target="_top" title="SubscriptionUpdateAction.svg" xlink:actuate="onRequest" xlink:href="SubscriptionUpdateAction.svg" xlink:show="new" xlink:title="SubscriptionUpdateAction.svg" xlink:type="simple"><g id="elem_SubscriptionUpdateAction"><rect codeLine="10" fill="#F1F1F1" height="56.2969" id="SubscriptionUpdateAction" rx="2.5" ry="2.5" style="stroke:#181818;stroke-width:0.5;" width="211" x="81.8333" y="12"/><ellipse cx="96.8333" cy="28" fill="#B4A7E5" rx="11" ry="11" style="stroke:#181818;stroke-width:1.0;"/><path d="M92.7552,23.7656 L92.7552,21.6094 L100.1458,21.6094 L100.1458,23.7656 L97.6771,23.7656 L97.6771,31.8438 L100.1458,31.8438 L100.1458,34 L92.7552,34 L92.7552,31.8438 L95.224,31.8438 L95.224,23.7656 L92.7552,23.7656 Z " fill="#000000"/><text fill="#000000" font-family="sans-serif" font-size="14" font-style="italic" lengthAdjust="spacing" textLength="179" x="110.8333" y="32.8467">SubscriptionUpdateAction</text><line style="stroke:#181818;stroke-width:0.5;" x1="82.8333" x2="291.8333" y1="44" y2="44"/><text fill="#000000" font-family="sans-serif" font-size="14" lengthAdjust="spacing" textLength="91" x="87.8333" y="60.9951">action: String</text></g></a><!--MD5=[46f0366385fb5244d6e0d0569e0591a9]
class SubscriptionChangeDestinationAction--><a href="SubscriptionChangeDestinationAction.svg" target="_top" title="SubscriptionChangeDestinationAction.svg" xlink:actuate="onRequest" xlink:href="SubscriptionChangeDestinationAction.svg" xlink:show="new" xlink:title="SubscriptionChangeDestinationAction.svg" xlink:type="simple"><g id="elem_SubscriptionChangeDestinationAction"><rect codeLine="15" fill="#F1F1F1" height="72.5938" id="SubscriptionChangeDestinationAction" rx="2.5" ry="2.5" style="stroke:#181818;stroke-width:0.5;" width="293" x="868" y="153.4297"/><ellipse cx="883" cy="169.4297" fill="#B4A7E5" rx="11" ry="11" style="stroke:#181818;stroke-width:1.0;"/><path d="M878.9219,165.1953 L878.9219,163.0391 L886.3125,163.0391 L886.3125,165.1953 L883.8438,165.1953 L883.8438,173.2734 L886.3125,173.2734 L886.3125,175.4297 L878.9219,175.4297 L878.9219,173.2734 L881.3906,173.2734 L881.3906,165.1953 L878.9219,165.1953 Z " fill="#000000"/><text fill="#000000" font-family="sans-serif" font-size="14" font-style="italic" lengthAdjust="spacing" textLength="261" x="897" y="174.2764">SubscriptionChangeDestinationAction</text><line style="stroke:#181818;stroke-width:0.5;" x1="869" x2="1160" y1="185.4297" y2="185.4297"/><text fill="#000000" font-family="sans-serif" font-size="14" lengthAdjust="spacing" textLength="91" x="874" y="202.4248">action: String</text><text fill="#000000" font-family="sans-serif" font-size="14" lengthAdjust="spacing" textLength="82" x="874" y="218.7217">destination:</text><a href="Destination.svg" target="_top" title="Destination.svg" xlink:actuate="onRequest" xlink:href="Destination.svg" xlink:show="new" xlink:title="Destination.svg" xlink:type="simple"><text fill="#0000FF" font-family="sans-serif" font-size="14" lengthAdjust="spacing" text-decoration="underline" textLength="79" x="960" y="218.7217">Destination</text></a></g></a><!--MD5=[6f22bad532506931f20a402d93c11b96]
class SubscriptionSetChangesAction--><a href="SubscriptionSetChangesAction.svg" target="_top" title="SubscriptionSetChangesAction.svg" xlink:actuate="onRequest" xlink:href="SubscriptionSetChangesAction.svg" xlink:show="new" xlink:title="SubscriptionSetChangesAction.svg" xlink:type="simple"><g id="elem_SubscriptionSetChangesAction"><rect codeLine="19" fill="#F1F1F1" height="72.5938" id="SubscriptionSetChangesAction" rx="2.5" ry="2.5" style="stroke:#181818;stroke-width:0.5;" width="268" x="1181" y="153.4297"/><ellipse cx="1206.35" cy="169.4297" fill="#B4A7E5" rx="11" ry="11" style="stroke:#181818;stroke-width:1.0;"/><path d="M1202.2719,165.1953 L1202.2719,163.0391 L1209.6625,163.0391 L1209.6625,165.1953 L1207.1938,165.1953 L1207.1938,173.2734 L1209.6625,173.2734 L1209.6625,175.4297 L1202.2719,175.4297 L1202.2719,173.2734 L1204.7406,173.2734 L1204.7406,165.1953 L1202.2719,165.1953 Z " fill="#000000"/><text fill="#000000" font-family="sans-serif" font-size="14" font-style="italic" lengthAdjust="spacing" textLength="213" x="1222.65" y="174.2764">SubscriptionSetChangesAction</text><line style="stroke:#181818;stroke-width:0.5;" x1="1182" x2="1448" y1="185.4297" y2="185.4297"/><text fill="#000000" font-family="sans-serif" font-size="14" lengthAdjust="spacing" textLength="91" x="1187" y="202.4248">action: String</text><text fill="#000000" font-family="sans-serif" font-size="14" lengthAdjust="spacing" textLength="65" x="1187" y="218.7217">changes:</text><a href="ChangeSubscription.svg" target="_top" title="ChangeSubscription.svg" xlink:actuate="onRequest" xlink:href="ChangeSubscription.svg" xlink:show="new" xlink:title="ChangeSubscription.svg" xlink:type="simple"><text fill="#0000FF" font-family="sans-serif" font-size="14" lengthAdjust="spacing" text-decoration="underline" textLength="187" x="1256" y="218.7217">List&lt;ChangeSubscription&gt;</text></a></g></a><!--MD5=[219709caa70f1189881c7c3aec35dc77]
class SubscriptionSetKeyAction--><a href="SubscriptionSetKeyAction.svg" target="_top" title="SubscriptionSetKeyAction.svg" xlink:actuate="onRequest" xlink:href="SubscriptionSetKeyAction.svg" xlink:show="new" xlink:title="SubscriptionSetKeyAction.svg" xlink:type="simple"><g id="elem_SubscriptionSetKeyAction"><rect codeLine="23" fill="#F1F1F1" height="72.5938" id="SubscriptionSetKeyAction" rx="2.5" ry="2.5" style="stroke:#181818;stroke-width:0.5;" width="210" x="12" y="153.4297"/><ellipse cx="27" cy="169.4297" fill="#B4A7E5" rx="11" ry="11" style="stroke:#181818;stroke-width:1.0;"/><path d="M22.9219,165.1953 L22.9219,163.0391 L30.3125,163.0391 L30.3125,165.1953 L27.8438,165.1953 L27.8438,173.2734 L30.3125,173.2734 L30.3125,175.4297 L22.9219,175.4297 L22.9219,173.2734 L25.3906,173.2734 L25.3906,165.1953 L22.9219,165.1953 Z " fill="#000000"/><text fill="#000000" font-family="sans-serif" font-size="14" font-style="italic" lengthAdjust="spacing" textLength="178" x="41" y="174.2764">SubscriptionSetKeyAction</text><line style="stroke:#181818;stroke-width:0.5;" x1="13" x2="221" y1="185.4297" y2="185.4297"/><text fill="#000000" font-family="sans-serif" font-size="14" lengthAdjust="spacing" textLength="91" x="18" y="202.4248">action: String</text><text fill="#000000" font-family="sans-serif" font-size="14" lengthAdjust="spacing" textLength="73" x="18" y="218.7217">key: String</text></g></a><!--MD5=[c93d560a34c6f6063aee4f9df499d5c4]
class SubscriptionSetMessagesAction--><a href="SubscriptionSetMessagesAction.svg" target="_top" title="SubscriptionSetMessagesAction.svg" xlink:actuate="onRequest" xlink:href="SubscriptionSetMessagesAction.svg" xlink:show="new" xlink:title="SubscriptionSetMessagesAction.svg" xlink:type="simple"><g id="elem_SubscriptionSetMessagesAction"><rect codeLine="27" fill="#F1F1F1" height="72.5938" id="SubscriptionSetMessagesAction" rx="2.5" ry="2.5" style="stroke:#181818;stroke-width:0.5;" width="289" x="242" y="153.4297"/><ellipse cx="273.65" cy="169.4297" fill="#B4A7E5" rx="11" ry="11" style="stroke:#181818;stroke-width:1.0;"/><path d="M269.5719,165.1953 L269.5719,163.0391 L276.9625,163.0391 L276.9625,165.1953 L274.4938,165.1953 L274.4938,173.2734 L276.9625,173.2734 L276.9625,175.4297 L269.5719,175.4297 L269.5719,173.2734 L272.0406,173.2734 L272.0406,165.1953 L269.5719,165.1953 Z " fill="#000000"/><text fill="#000000" font-family="sans-serif" font-size="14" font-style="italic" lengthAdjust="spacing" textLength="220" x="291.35" y="174.2764">SubscriptionSetMessagesAction</text><line style="stroke:#181818;stroke-width:0.5;" x1="243" x2="530" y1="185.4297" y2="185.4297"/><text fill="#000000" font-family="sans-serif" font-size="14" lengthAdjust="spacing" textLength="91" x="248" y="202.4248">action: String</text><text fill="#000000" font-family="sans-serif" font-size="14" lengthAdjust="spacing" textLength="77" x="248" y="218.7217">messages:</text><a href="MessageSubscription.svg" target="_top" title="MessageSubscription.svg" xlink:actuate="onRequest" xlink:href="MessageSubscription.svg" xlink:show="new" xlink:title="MessageSubscription.svg" xlink:type="simple"><text fill="#0000FF" font-family="sans-serif" font-size="14" lengthAdjust="spacing" text-decoration="underline" textLength="196" x="329" y="218.7217">List&lt;MessageSubscription&gt;</text></a></g></a><!--MD5=[1ec347a0f1160d033ff3977c4027b4df]
class SubscriptionUpdate--><a href="SubscriptionUpdate.svg" target="_top" title="SubscriptionUpdate.svg" xlink:actuate="onRequest" xlink:href="SubscriptionUpdate.svg" xlink:show="new" xlink:title="SubscriptionUpdate.svg" xlink:type="simple"><g id="elem_SubscriptionUpdate"><rect codeLine="31" fill="#F1F1F1" height="72.5938" id="SubscriptionUpdate" rx="2.5" ry="2.5" style="stroke:#181818;stroke-width:0.5;" width="297" x="551" y="153.4297"/><ellipse cx="627.75" cy="169.4297" fill="#B4A7E5" rx="11" ry="11" style="stroke:#181818;stroke-width:1.0;"/><path d="M623.6719,165.1953 L623.6719,163.0391 L631.0625,163.0391 L631.0625,165.1953 L628.5938,165.1953 L628.5938,173.2734 L631.0625,173.2734 L631.0625,175.4297 L623.6719,175.4297 L623.6719,173.2734 L626.1406,173.2734 L626.1406,165.1953 L623.6719,165.1953 Z " fill="#000000"/><text fill="#000000" font-family="sans-serif" font-size="14" font-style="italic" lengthAdjust="spacing" textLength="135" x="648.25" y="174.2764">SubscriptionUpdate</text><line style="stroke:#181818;stroke-width:0.5;" x1="552" x2="847" y1="185.4297" y2="185.4297"/><text fill="#000000" font-family="sans-serif" font-size="14" lengthAdjust="spacing" textLength="93" x="557" y="202.4248">version: Long</text><text fill="#000000" font-family="sans-serif" font-size="14" lengthAdjust="spacing" textLength="55" x="557" y="218.7217">actions:</text><a href="SubscriptionUpdateAction.svg" target="_top" title="SubscriptionUpdateAction.svg" xlink:actuate="onRequest" xlink:href="SubscriptionUpdateAction.svg" xlink:show="new" xlink:title="SubscriptionUpdateAction.svg" xlink:type="simple"><text fill="#0000FF" font-family="sans-serif" font-size="14" lengthAdjust="spacing" text-decoration="underline" textLength="226" x="616" y="218.7217">List&lt;SubscriptionUpdateAction&gt;</text></a></g></a><line style="stroke:#0000FF;stroke-width:1.0;" x1="222.5" x2="222.5" y1="68.2969" y2="88.2969"/><line style="stroke:#0000FF;stroke-width:1.0;" x1="222.5" x2="1014.5" y1="88.2969" y2="88.2969"/><line style="stroke:#0000FF;stroke-width:1.0;" x1="1014.5" x2="1014.5" y1="88.2969" y2="153.4297"/><polygon fill="#0000FF" points="1014.5,153.4297,1018.5,144.4297,1014.5,148.4297,1010.5,144.4297,1014.5,153.4297" style="stroke:#0000FF;stroke-width:1.0;"/><text fill="#000000" font-family="sans-serif" font-size="13" lengthAdjust="spacing" textLength="171" x="841.5" y="130.3638">action : changeDestination</text><line style="stroke:#0000FF;stroke-width:1.0;" x1="257.6667" x2="257.6667" y1="68.2969" y2="78.2969"/><line style="stroke:#0000FF;stroke-width:1.0;" x1="257.6667" x2="1315" y1="78.2969" y2="78.2969"/><line style="stroke:#0000FF;stroke-width:1.0;" x1="1315" x2="1315" y1="78.2969" y2="153.4297"/><polygon fill="#0000FF" points="1315,153.4297,1319,144.4297,1315,148.4297,1311,144.4297,1315,153.4297" style="stroke:#0000FF;stroke-width:1.0;"/><text fill="#000000" font-family="sans-serif" font-size="13" lengthAdjust="spacing" textLength="127" x="1186" y="130.3638">action : setChanges</text><line style="stroke:#0000FF;stroke-width:1.0;" x1="117" x2="117" y1="68.2969" y2="153.4297"/><polygon fill="#0000FF" points="117,153.4297,121,144.4297,117,148.4297,113,144.4297,117,153.4297" style="stroke:#0000FF;stroke-width:1.0;"/><text fill="#000000" font-family="sans-serif" font-size="13" lengthAdjust="spacing" textLength="94" x="21" y="130.3638">action : setKey</text><line style="stroke:#0000FF;stroke-width:1.0;" x1="152.1667" x2="152.1667" y1="68.2969" y2="108.2969"/><line style="stroke:#0000FF;stroke-width:1.0;" x1="152.1667" x2="386.5" y1="108.2969" y2="108.2969"/><line style="stroke:#0000FF;stroke-width:1.0;" x1="386.5" x2="386.5" y1="108.2969" y2="153.4297"/><polygon fill="#0000FF" points="386.5,153.4297,390.5,144.4297,386.5,148.4297,382.5,144.4297,386.5,153.4297" style="stroke:#0000FF;stroke-width:1.0;"/><text fill="#000000" font-family="sans-serif" font-size="13" lengthAdjust="spacing" textLength="135" x="249.5" y="130.3638">action : setMessages</text><line style="stroke:#008000;stroke-width:1.0;" x1="187.3333" x2="187.3333" y1="68.2969" y2="98.2969"/><line style="stroke:#008000;stroke-width:1.0;" x1="187.3333" x2="699.5" y1="98.2969" y2="98.2969"/><line style="stroke:#008000;stroke-width:1.0;" x1="699.5" x2="699.5" y1="98.2969" y2="153.4297"/><polygon fill="#008000" points="699.5,153.4297,703.5,144.4297,699.5,148.4297,695.5,144.4297,699.5,153.4297" style="stroke:#008000;stroke-width:1.0;"/><text fill="#000000" font-family="sans-serif" font-size="13" lengthAdjust="spacing" textLength="46" x="651.5" y="130.3638">actions</text><rect fill="#DDDDDD" height="79.1875" id="_legend" rx="7.5" ry="7.5" style="stroke:#000000;stroke-width:1.0;" width="161" x="638" y="227.0234"/><text fill="#000000" font-family="sans-serif" font-size="14" font-weight="bold" lengthAdjust="spacing" textLength="5" x="643" y="247.0186"> </text><text fill="#000000" font-family="sans-serif" font-size="14" font-weight="bold" lengthAdjust="spacing" textLength="28" x="660" y="247.0186">line</text><text fill="#000000" filter="url(#b15ekcojt3m9620)" font-family="sans-serif" font-size="14" lengthAdjust="spacing" textLength="12" x="643" y="263.3154">   </text><text fill="#000000" font-family="sans-serif" font-size="14" lengthAdjust="spacing" textLength="77" x="659" y="263.3154">inheritance</text><text fill="#000000" filter="url(#b15ekcojt3m9621)" font-family="sans-serif" font-size="14" lengthAdjust="spacing" textLength="12" x="643" y="279.6123">   </text><text fill="#000000" font-family="sans-serif" font-size="14" lengthAdjust="spacing" textLength="129" x="659" y="279.6123">property reference</text><text fill="#000000" filter="url(#b15ekcojt3m9622)" font-family="sans-serif" font-size="14" lengthAdjust="spacing" textLength="12" x="643" y="295.9092">   </text><text fill="#000000" font-family="sans-serif" font-size="14" lengthAdjust="spacing" textLength="131" x="659" y="295.9092">discriminated class</text><line style="stroke:#000000;stroke-width:1.0;" x1="643" x2="794" y1="234.0234" y2="234.0234"/><line style="stroke:#000000;stroke-width:1.0;" x1="643" x2="794" y1="250.3203" y2="250.3203"/><line style="stroke:#000000;stroke-width:1.0;" x1="643" x2="794" y1="266.6172" y2="266.6172"/><line style="stroke:#000000;stroke-width:1.0;" x1="643" x2="794" y1="282.9141" y2="282.9141"/><line style="stroke:#000000;stroke-width:1.0;" x1="643" x2="794" y1="299.2109" y2="299.2109"/><line style="stroke:#000000;stroke-width:1.0;" x1="643" x2="643" y1="234.0234" y2="299.2109"/><line style="stroke:#000000;stroke-width:1.0;" x1="655" x2="655" y1="234.0234" y2="299.2109"/><line style="stroke:#000000;stroke-width:1.0;" x1="794" x2="794" y1="234.0234" y2="299.2109"/><!--MD5=[24882aa190f785644d4b05644eb44be6]
@startuml
!pragma layout elk
hide empty fields
hide empty methods
legend
|= |= line |
|<back:black>   </back>| inheritance |
|<back:green>   </back>| property reference |
|<back:blue>   </back>| discriminated class |
endlegend
interface SubscriptionUpdateAction [[SubscriptionUpdateAction.svg]]  {
    action: String
}


interface SubscriptionChangeDestinationAction [[SubscriptionChangeDestinationAction.svg]]  {
    action: String
    destination: [[Destination.svg Destination]]
}
interface SubscriptionSetChangesAction [[SubscriptionSetChangesAction.svg]]  {
    action: String
    changes: [[ChangeSubscription.svg List<ChangeSubscription>]]
}
interface SubscriptionSetKeyAction [[SubscriptionSetKeyAction.svg]]  {
    action: String
    key: String
}
interface SubscriptionSetMessagesAction [[SubscriptionSetMessagesAction.svg]]  {
    action: String
    messages: [[MessageSubscription.svg List<MessageSubscription>]]
}
interface SubscriptionUpdate [[SubscriptionUpdate.svg]]  {
    version: Long
    actions: [[SubscriptionUpdateAction.svg List<SubscriptionUpdateAction>]]
}
SubscriptionUpdateAction - -> SubscriptionChangeDestinationAction #blue;text:blue : "action : changeDestination"
SubscriptionUpdateAction - -> SubscriptionSetChangesAction #blue;text:blue : "action : setChanges"
SubscriptionUpdateAction - -> SubscriptionSetKeyAction #blue;text:blue : "action : setKey"
SubscriptionUpdateAction - -> SubscriptionSetMessagesAction #blue;text:blue : "action : setMessages"
SubscriptionUpdateAction - -> SubscriptionUpdate #green;text:green : "actions"
@enduml

PlantUML version 1.2022.13(Sat Nov 19 13:22:17 UTC 2022)
(GPL source distribution)
Java Runtime: OpenJDK Runtime Environment
JVM: OpenJDK 64-Bit Server VM
Default Encoding: UTF-8
Language: en
Country: null
--></g></svg>
