<?xml version="1.0" encoding="UTF-8" standalone="no"?><svg xmlns="http://www.w3.org/2000/svg" xmlns:xlink="http://www.w3.org/1999/xlink" contentStyleType="text/css" height="336px" preserveAspectRatio="none" style="width:1716px;height:336px;background:#FFFFFF;" version="1.1" viewBox="0 0 1716 336" width="1716px" zoomAndPan="magnify"><defs><filter height="1" id="b16ojtrif50jw40" width="1" x="0" y="0"><feFlood flood-color="#000000" result="flood"/><feComposite in="SourceGraphic" in2="flood" operator="over"/></filter><filter height="1" id="b16ojtrif50jw41" width="1" x="0" y="0"><feFlood flood-color="#008000" result="flood"/><feComposite in="SourceGraphic" in2="flood" operator="over"/></filter><filter height="1" id="b16ojtrif50jw42" width="1" x="0" y="0"><feFlood flood-color="#0000FF" result="flood"/><feComposite in="SourceGraphic" in2="flood" operator="over"/></filter></defs><g><!--MD5=[3192e6a1217f50e5a9e4ba299fa6be66]
class SubscriptionUpdateAction--><a href="SubscriptionUpdateAction.svg" target="_top" title="SubscriptionUpdateAction.svg" xlink:actuate="onRequest" xlink:href="SubscriptionUpdateAction.svg" xlink:show="new" xlink:title="SubscriptionUpdateAction.svg" xlink:type="simple"><g id="elem_SubscriptionUpdateAction"><rect codeLine="10" fill="#F1F1F1" height="56.2969" id="SubscriptionUpdateAction" rx="2.5" ry="2.5" style="stroke:#181818;stroke-width:0.5;" width="211" x="101.8571" y="12"/><ellipse cx="116.8571" cy="28" fill="#B4A7E5" rx="11" ry="11" style="stroke:#181818;stroke-width:1.0;"/><path d="M112.779,23.7656 L112.779,21.6094 L120.1696,21.6094 L120.1696,23.7656 L117.7009,23.7656 L117.7009,31.8438 L120.1696,31.8438 L120.1696,34 L112.779,34 L112.779,31.8438 L115.2478,31.8438 L115.2478,23.7656 L112.779,23.7656 Z " fill="#000000"/><text fill="#000000" font-family="sans-serif" font-size="14" font-style="italic" lengthAdjust="spacing" textLength="179" x="130.8571" y="32.8467">SubscriptionUpdateAction</text><line style="stroke:#181818;stroke-width:0.5;" x1="102.8571" x2="311.8571" y1="44" y2="44"/><text fill="#000000" font-family="sans-serif" font-size="14" lengthAdjust="spacing" textLength="91" x="107.8571" y="60.9951">action: String</text></g></a><!--MD5=[46f0366385fb5244d6e0d0569e0591a9]
class SubscriptionChangeDestinationAction--><a href="SubscriptionChangeDestinationAction.svg" target="_top" title="SubscriptionChangeDestinationAction.svg" xlink:actuate="onRequest" xlink:href="SubscriptionChangeDestinationAction.svg" xlink:show="new" xlink:title="SubscriptionChangeDestinationAction.svg" xlink:type="simple"><g id="elem_SubscriptionChangeDestinationAction"><rect codeLine="15" fill="#F1F1F1" height="72.5938" id="SubscriptionChangeDestinationAction" rx="2.5" ry="2.5" style="stroke:#181818;stroke-width:0.5;" width="293" x="1128" y="163.4297"/><ellipse cx="1143" cy="179.4297" fill="#B4A7E5" rx="11" ry="11" style="stroke:#181818;stroke-width:1.0;"/><path d="M1138.9219,175.1953 L1138.9219,173.0391 L1146.3125,173.0391 L1146.3125,175.1953 L1143.8438,175.1953 L1143.8438,183.2734 L1146.3125,183.2734 L1146.3125,185.4297 L1138.9219,185.4297 L1138.9219,183.2734 L1141.3906,183.2734 L1141.3906,175.1953 L1138.9219,175.1953 Z " fill="#000000"/><text fill="#000000" font-family="sans-serif" font-size="14" font-style="italic" lengthAdjust="spacing" textLength="261" x="1157" y="184.2764">SubscriptionChangeDestinationAction</text><line style="stroke:#181818;stroke-width:0.5;" x1="1129" x2="1420" y1="195.4297" y2="195.4297"/><text fill="#000000" font-family="sans-serif" font-size="14" lengthAdjust="spacing" textLength="91" x="1134" y="212.4248">action: String</text><text fill="#000000" font-family="sans-serif" font-size="14" lengthAdjust="spacing" textLength="82" x="1134" y="228.7217">destination:</text><a href="Destination.svg" target="_top" title="Destination.svg" xlink:actuate="onRequest" xlink:href="Destination.svg" xlink:show="new" xlink:title="Destination.svg" xlink:type="simple"><text fill="#0000FF" font-family="sans-serif" font-size="14" lengthAdjust="spacing" text-decoration="underline" textLength="79" x="1220" y="228.7217">Destination</text></a></g></a><!--MD5=[6f22bad532506931f20a402d93c11b96]
class SubscriptionSetChangesAction--><a href="SubscriptionSetChangesAction.svg" target="_top" title="SubscriptionSetChangesAction.svg" xlink:actuate="onRequest" xlink:href="SubscriptionSetChangesAction.svg" xlink:show="new" xlink:title="SubscriptionSetChangesAction.svg" xlink:type="simple"><g id="elem_SubscriptionSetChangesAction"><rect codeLine="19" fill="#F1F1F1" height="72.5938" id="SubscriptionSetChangesAction" rx="2.5" ry="2.5" style="stroke:#181818;stroke-width:0.5;" width="268" x="1441" y="163.4297"/><ellipse cx="1466.35" cy="179.4297" fill="#B4A7E5" rx="11" ry="11" style="stroke:#181818;stroke-width:1.0;"/><path d="M1462.2719,175.1953 L1462.2719,173.0391 L1469.6625,173.0391 L1469.6625,175.1953 L1467.1938,175.1953 L1467.1938,183.2734 L1469.6625,183.2734 L1469.6625,185.4297 L1462.2719,185.4297 L1462.2719,183.2734 L1464.7406,183.2734 L1464.7406,175.1953 L1462.2719,175.1953 Z " fill="#000000"/><text fill="#000000" font-family="sans-serif" font-size="14" font-style="italic" lengthAdjust="spacing" textLength="213" x="1482.65" y="184.2764">SubscriptionSetChangesAction</text><line style="stroke:#181818;stroke-width:0.5;" x1="1442" x2="1708" y1="195.4297" y2="195.4297"/><text fill="#000000" font-family="sans-serif" font-size="14" lengthAdjust="spacing" textLength="91" x="1447" y="212.4248">action: String</text><text fill="#000000" font-family="sans-serif" font-size="14" lengthAdjust="spacing" textLength="65" x="1447" y="228.7217">changes:</text><a href="ChangeSubscription.svg" target="_top" title="ChangeSubscription.svg" xlink:actuate="onRequest" xlink:href="ChangeSubscription.svg" xlink:show="new" xlink:title="ChangeSubscription.svg" xlink:type="simple"><text fill="#0000FF" font-family="sans-serif" font-size="14" lengthAdjust="spacing" text-decoration="underline" textLength="187" x="1516" y="228.7217">List&lt;ChangeSubscription&gt;</text></a></g></a><!--MD5=[706899389db5a3a51e9e7ab0df6a9143]
class SubscriptionSetEventsAction--><a href="SubscriptionSetEventsAction.svg" target="_top" title="SubscriptionSetEventsAction.svg" xlink:actuate="onRequest" xlink:href="SubscriptionSetEventsAction.svg" xlink:show="new" xlink:title="SubscriptionSetEventsAction.svg" xlink:type="simple"><g id="elem_SubscriptionSetEventsAction"><rect codeLine="23" fill="#F1F1F1" height="72.5938" id="SubscriptionSetEventsAction" rx="2.5" ry="2.5" style="stroke:#181818;stroke-width:0.5;" width="240" x="12" y="163.4297"/><ellipse cx="31.05" cy="179.4297" fill="#B4A7E5" rx="11" ry="11" style="stroke:#181818;stroke-width:1.0;"/><path d="M26.9719,175.1953 L26.9719,173.0391 L34.3625,173.0391 L34.3625,175.1953 L31.8938,175.1953 L31.8938,183.2734 L34.3625,183.2734 L34.3625,185.4297 L26.9719,185.4297 L26.9719,183.2734 L29.4406,183.2734 L29.4406,175.1953 L26.9719,175.1953 Z " fill="#000000"/><text fill="#000000" font-family="sans-serif" font-size="14" font-style="italic" lengthAdjust="spacing" textLength="199" x="45.95" y="184.2764">SubscriptionSetEventsAction</text><line style="stroke:#181818;stroke-width:0.5;" x1="13" x2="251" y1="195.4297" y2="195.4297"/><text fill="#000000" font-family="sans-serif" font-size="14" lengthAdjust="spacing" textLength="91" x="18" y="212.4248">action: String</text><text fill="#000000" font-family="sans-serif" font-size="14" lengthAdjust="spacing" textLength="52" x="18" y="228.7217">events:</text><a href="EventSubscription.svg" target="_top" title="EventSubscription.svg" xlink:actuate="onRequest" xlink:href="EventSubscription.svg" xlink:show="new" xlink:title="EventSubscription.svg" xlink:type="simple"><text fill="#0000FF" font-family="sans-serif" font-size="14" lengthAdjust="spacing" text-decoration="underline" textLength="172" x="74" y="228.7217">List&lt;EventSubscription&gt;</text></a></g></a><!--MD5=[219709caa70f1189881c7c3aec35dc77]
class SubscriptionSetKeyAction--><a href="SubscriptionSetKeyAction.svg" target="_top" title="SubscriptionSetKeyAction.svg" xlink:actuate="onRequest" xlink:href="SubscriptionSetKeyAction.svg" xlink:show="new" xlink:title="SubscriptionSetKeyAction.svg" xlink:type="simple"><g id="elem_SubscriptionSetKeyAction"><rect codeLine="27" fill="#F1F1F1" height="72.5938" id="SubscriptionSetKeyAction" rx="2.5" ry="2.5" style="stroke:#181818;stroke-width:0.5;" width="210" x="272" y="163.4297"/><ellipse cx="287" cy="179.4297" fill="#B4A7E5" rx="11" ry="11" style="stroke:#181818;stroke-width:1.0;"/><path d="M282.9219,175.1953 L282.9219,173.0391 L290.3125,173.0391 L290.3125,175.1953 L287.8438,175.1953 L287.8438,183.2734 L290.3125,183.2734 L290.3125,185.4297 L282.9219,185.4297 L282.9219,183.2734 L285.3906,183.2734 L285.3906,175.1953 L282.9219,175.1953 Z " fill="#000000"/><text fill="#000000" font-family="sans-serif" font-size="14" font-style="italic" lengthAdjust="spacing" textLength="178" x="301" y="184.2764">SubscriptionSetKeyAction</text><line style="stroke:#181818;stroke-width:0.5;" x1="273" x2="481" y1="195.4297" y2="195.4297"/><text fill="#000000" font-family="sans-serif" font-size="14" lengthAdjust="spacing" textLength="91" x="278" y="212.4248">action: String</text><text fill="#000000" font-family="sans-serif" font-size="14" lengthAdjust="spacing" textLength="73" x="278" y="228.7217">key: String</text></g></a><!--MD5=[c93d560a34c6f6063aee4f9df499d5c4]
class SubscriptionSetMessagesAction--><a href="SubscriptionSetMessagesAction.svg" target="_top" title="SubscriptionSetMessagesAction.svg" xlink:actuate="onRequest" xlink:href="SubscriptionSetMessagesAction.svg" xlink:show="new" xlink:title="SubscriptionSetMessagesAction.svg" xlink:type="simple"><g id="elem_SubscriptionSetMessagesAction"><rect codeLine="31" fill="#F1F1F1" height="72.5938" id="SubscriptionSetMessagesAction" rx="2.5" ry="2.5" style="stroke:#181818;stroke-width:0.5;" width="289" x="502" y="163.4297"/><ellipse cx="533.65" cy="179.4297" fill="#B4A7E5" rx="11" ry="11" style="stroke:#181818;stroke-width:1.0;"/><path d="M529.5719,175.1953 L529.5719,173.0391 L536.9625,173.0391 L536.9625,175.1953 L534.4938,175.1953 L534.4938,183.2734 L536.9625,183.2734 L536.9625,185.4297 L529.5719,185.4297 L529.5719,183.2734 L532.0406,183.2734 L532.0406,175.1953 L529.5719,175.1953 Z " fill="#000000"/><text fill="#000000" font-family="sans-serif" font-size="14" font-style="italic" lengthAdjust="spacing" textLength="220" x="551.35" y="184.2764">SubscriptionSetMessagesAction</text><line style="stroke:#181818;stroke-width:0.5;" x1="503" x2="790" y1="195.4297" y2="195.4297"/><text fill="#000000" font-family="sans-serif" font-size="14" lengthAdjust="spacing" textLength="91" x="508" y="212.4248">action: String</text><text fill="#000000" font-family="sans-serif" font-size="14" lengthAdjust="spacing" textLength="77" x="508" y="228.7217">messages:</text><a href="MessageSubscription.svg" target="_top" title="MessageSubscription.svg" xlink:actuate="onRequest" xlink:href="MessageSubscription.svg" xlink:show="new" xlink:title="MessageSubscription.svg" xlink:type="simple"><text fill="#0000FF" font-family="sans-serif" font-size="14" lengthAdjust="spacing" text-decoration="underline" textLength="196" x="589" y="228.7217">List&lt;MessageSubscription&gt;</text></a></g></a><!--MD5=[1ec347a0f1160d033ff3977c4027b4df]
class SubscriptionUpdate--><a href="SubscriptionUpdate.svg" target="_top" title="SubscriptionUpdate.svg" xlink:actuate="onRequest" xlink:href="SubscriptionUpdate.svg" xlink:show="new" xlink:title="SubscriptionUpdate.svg" xlink:type="simple"><g id="elem_SubscriptionUpdate"><rect codeLine="35" fill="#F1F1F1" height="72.5938" id="SubscriptionUpdate" rx="2.5" ry="2.5" style="stroke:#181818;stroke-width:0.5;" width="297" x="811" y="163.4297"/><ellipse cx="887.75" cy="179.4297" fill="#B4A7E5" rx="11" ry="11" style="stroke:#181818;stroke-width:1.0;"/><path d="M883.6719,175.1953 L883.6719,173.0391 L891.0625,173.0391 L891.0625,175.1953 L888.5938,175.1953 L888.5938,183.2734 L891.0625,183.2734 L891.0625,185.4297 L883.6719,185.4297 L883.6719,183.2734 L886.1406,183.2734 L886.1406,175.1953 L883.6719,175.1953 Z " fill="#000000"/><text fill="#000000" font-family="sans-serif" font-size="14" font-style="italic" lengthAdjust="spacing" textLength="135" x="908.25" y="184.2764">SubscriptionUpdate</text><line style="stroke:#181818;stroke-width:0.5;" x1="812" x2="1107" y1="195.4297" y2="195.4297"/><text fill="#000000" font-family="sans-serif" font-size="14" lengthAdjust="spacing" textLength="93" x="817" y="212.4248">version: Long</text><text fill="#000000" font-family="sans-serif" font-size="14" lengthAdjust="spacing" textLength="55" x="817" y="228.7217">actions:</text><a href="SubscriptionUpdateAction.svg" target="_top" title="SubscriptionUpdateAction.svg" xlink:actuate="onRequest" xlink:href="SubscriptionUpdateAction.svg" xlink:show="new" xlink:title="SubscriptionUpdateAction.svg" xlink:type="simple"><text fill="#0000FF" font-family="sans-serif" font-size="14" lengthAdjust="spacing" text-decoration="underline" textLength="226" x="876" y="228.7217">List&lt;SubscriptionUpdateAction&gt;</text></a></g></a><line style="stroke:#0000FF;stroke-width:1.0;" x1="252.5714" x2="252.5714" y1="68.2969" y2="88.2969"/><line style="stroke:#0000FF;stroke-width:1.0;" x1="252.5714" x2="1274.5" y1="88.2969" y2="88.2969"/><line style="stroke:#0000FF;stroke-width:1.0;" x1="1274.5" x2="1274.5" y1="88.2969" y2="163.4297"/><polygon fill="#0000FF" points="1274.5,163.4297,1278.5,154.4297,1274.5,158.4297,1270.5,154.4297,1274.5,163.4297" style="stroke:#0000FF;stroke-width:1.0;"/><text fill="#000000" font-family="sans-serif" font-size="13" lengthAdjust="spacing" textLength="171" x="1101.5" y="140.3638">action : changeDestination</text><line style="stroke:#0000FF;stroke-width:1.0;" x1="282.7143" x2="282.7143" y1="68.2969" y2="78.2969"/><line style="stroke:#0000FF;stroke-width:1.0;" x1="282.7143" x2="1575" y1="78.2969" y2="78.2969"/><line style="stroke:#0000FF;stroke-width:1.0;" x1="1575" x2="1575" y1="78.2969" y2="163.4297"/><polygon fill="#0000FF" points="1575,163.4297,1579,154.4297,1575,158.4297,1571,154.4297,1575,163.4297" style="stroke:#0000FF;stroke-width:1.0;"/><text fill="#000000" font-family="sans-serif" font-size="13" lengthAdjust="spacing" textLength="127" x="1446" y="140.3638">action : setChanges</text><line style="stroke:#0000FF;stroke-width:1.0;" x1="132" x2="132" y1="68.2969" y2="163.4297"/><polygon fill="#0000FF" points="132,163.4297,136,154.4297,132,158.4297,128,154.4297,132,163.4297" style="stroke:#0000FF;stroke-width:1.0;"/><text fill="#000000" font-family="sans-serif" font-size="13" lengthAdjust="spacing" textLength="114" x="16" y="140.3638">action : setEvents</text><line style="stroke:#0000FF;stroke-width:1.0;" x1="162.1429" x2="162.1429" y1="68.2969" y2="118.2969"/><line style="stroke:#0000FF;stroke-width:1.0;" x1="162.1429" x2="377" y1="118.2969" y2="118.2969"/><line style="stroke:#0000FF;stroke-width:1.0;" x1="377" x2="377" y1="118.2969" y2="163.4297"/><polygon fill="#0000FF" points="377,163.4297,381,154.4297,377,158.4297,373,154.4297,377,163.4297" style="stroke:#0000FF;stroke-width:1.0;"/><text fill="#000000" font-family="sans-serif" font-size="13" lengthAdjust="spacing" textLength="94" x="281" y="140.3638">action : setKey</text><line style="stroke:#0000FF;stroke-width:1.0;" x1="192.2857" x2="192.2857" y1="68.2969" y2="108.2969"/><line style="stroke:#0000FF;stroke-width:1.0;" x1="192.2857" x2="646.5" y1="108.2969" y2="108.2969"/><line style="stroke:#0000FF;stroke-width:1.0;" x1="646.5" x2="646.5" y1="108.2969" y2="163.4297"/><polygon fill="#0000FF" points="646.5,163.4297,650.5,154.4297,646.5,158.4297,642.5,154.4297,646.5,163.4297" style="stroke:#0000FF;stroke-width:1.0;"/><text fill="#000000" font-family="sans-serif" font-size="13" lengthAdjust="spacing" textLength="135" x="509.5" y="140.3638">action : setMessages</text><line style="stroke:#008000;stroke-width:1.0;" x1="222.4286" x2="222.4286" y1="68.2969" y2="98.2969"/><line style="stroke:#008000;stroke-width:1.0;" x1="222.4286" x2="959.5" y1="98.2969" y2="98.2969"/><line style="stroke:#008000;stroke-width:1.0;" x1="959.5" x2="959.5" y1="98.2969" y2="163.4297"/><polygon fill="#008000" points="959.5,163.4297,963.5,154.4297,959.5,158.4297,955.5,154.4297,959.5,163.4297" style="stroke:#008000;stroke-width:1.0;"/><text fill="#000000" font-family="sans-serif" font-size="13" lengthAdjust="spacing" textLength="46" x="911.5" y="140.3638">actions</text><rect fill="#DDDDDD" height="79.1875" id="_legend" rx="7.5" ry="7.5" style="stroke:#000000;stroke-width:1.0;" width="161" x="768" y="237.0234"/><text fill="#000000" font-family="sans-serif" font-size="14" font-weight="bold" lengthAdjust="spacing" textLength="5" x="773" y="257.0186"> </text><text fill="#000000" font-family="sans-serif" font-size="14" font-weight="bold" lengthAdjust="spacing" textLength="28" x="790" y="257.0186">line</text><text fill="#000000" filter="url(#b16ojtrif50jw40)" font-family="sans-serif" font-size="14" lengthAdjust="spacing" textLength="12" x="773" y="273.3154">   </text><text fill="#000000" font-family="sans-serif" font-size="14" lengthAdjust="spacing" textLength="77" x="789" y="273.3154">inheritance</text><text fill="#000000" filter="url(#b16ojtrif50jw41)" font-family="sans-serif" font-size="14" lengthAdjust="spacing" textLength="12" x="773" y="289.6123">   </text><text fill="#000000" font-family="sans-serif" font-size="14" lengthAdjust="spacing" textLength="129" x="789" y="289.6123">property reference</text><text fill="#000000" filter="url(#b16ojtrif50jw42)" font-family="sans-serif" font-size="14" lengthAdjust="spacing" textLength="12" x="773" y="305.9092">   </text><text fill="#000000" font-family="sans-serif" font-size="14" lengthAdjust="spacing" textLength="131" x="789" y="305.9092">discriminated class</text><line style="stroke:#000000;stroke-width:1.0;" x1="773" x2="924" y1="244.0234" y2="244.0234"/><line style="stroke:#000000;stroke-width:1.0;" x1="773" x2="924" y1="260.3203" y2="260.3203"/><line style="stroke:#000000;stroke-width:1.0;" x1="773" x2="924" y1="276.6172" y2="276.6172"/><line style="stroke:#000000;stroke-width:1.0;" x1="773" x2="924" y1="292.9141" y2="292.9141"/><line style="stroke:#000000;stroke-width:1.0;" x1="773" x2="924" y1="309.2109" y2="309.2109"/><line style="stroke:#000000;stroke-width:1.0;" x1="773" x2="773" y1="244.0234" y2="309.2109"/><line style="stroke:#000000;stroke-width:1.0;" x1="785" x2="785" y1="244.0234" y2="309.2109"/><line style="stroke:#000000;stroke-width:1.0;" x1="924" x2="924" y1="244.0234" y2="309.2109"/><!--MD5=[128336dd47fa4e936a212feb9c2da616]
@startuml
!pragma layout elk
hide empty fields
hide empty methods
legend
|= |= line |
|<back:black>   </back>| inheritance |
|<back:green>   </back>| property reference |
|<back:blue>   </back>| discriminated class |
endlegend
interface SubscriptionUpdateAction [[SubscriptionUpdateAction.svg]]  {
    action: String
}


interface SubscriptionChangeDestinationAction [[SubscriptionChangeDestinationAction.svg]]  {
    action: String
    destination: [[Destination.svg Destination]]
}
interface SubscriptionSetChangesAction [[SubscriptionSetChangesAction.svg]]  {
    action: String
    changes: [[ChangeSubscription.svg List<ChangeSubscription>]]
}
interface SubscriptionSetEventsAction [[SubscriptionSetEventsAction.svg]]  {
    action: String
    events: [[EventSubscription.svg List<EventSubscription>]]
}
interface SubscriptionSetKeyAction [[SubscriptionSetKeyAction.svg]]  {
    action: String
    key: String
}
interface SubscriptionSetMessagesAction [[SubscriptionSetMessagesAction.svg]]  {
    action: String
    messages: [[MessageSubscription.svg List<MessageSubscription>]]
}
interface SubscriptionUpdate [[SubscriptionUpdate.svg]]  {
    version: Long
    actions: [[SubscriptionUpdateAction.svg List<SubscriptionUpdateAction>]]
}
SubscriptionUpdateAction - -> SubscriptionChangeDestinationAction #blue;text:blue : "action : changeDestination"
SubscriptionUpdateAction - -> SubscriptionSetChangesAction #blue;text:blue : "action : setChanges"
SubscriptionUpdateAction - -> SubscriptionSetEventsAction #blue;text:blue : "action : setEvents"
SubscriptionUpdateAction - -> SubscriptionSetKeyAction #blue;text:blue : "action : setKey"
SubscriptionUpdateAction - -> SubscriptionSetMessagesAction #blue;text:blue : "action : setMessages"
SubscriptionUpdateAction - -> SubscriptionUpdate #green;text:green : "actions"
@enduml

PlantUML version 1.2022.13(Sat Nov 19 13:22:17 UTC 2022)
(GPL source distribution)
Java Runtime: OpenJDK Runtime Environment
JVM: OpenJDK 64-Bit Server VM
Default Encoding: UTF-8
Language: en
Country: null
--></g></svg>
