<?xml version="1.0" encoding="UTF-8" standalone="no"?><svg xmlns="http://www.w3.org/2000/svg" xmlns:xlink="http://www.w3.org/1999/xlink" contentStyleType="text/css" height="336px" preserveAspectRatio="none" style="width:1741px;height:336px;background:#FFFFFF;" version="1.1" viewBox="0 0 1741 336" width="1741px" zoomAndPan="magnify"><defs><filter height="1" id="bykh3hm869k2n0" width="1" x="0" y="0"><feFlood flood-color="#000000" result="flood"/><feComposite in="SourceGraphic" in2="flood" operator="over"/></filter><filter height="1" id="bykh3hm869k2n1" width="1" x="0" y="0"><feFlood flood-color="#008000" result="flood"/><feComposite in="SourceGraphic" in2="flood" operator="over"/></filter><filter height="1" id="bykh3hm869k2n2" width="1" x="0" y="0"><feFlood flood-color="#0000FF" result="flood"/><feComposite in="SourceGraphic" in2="flood" operator="over"/></filter></defs><g><!--MD5=[3192e6a1217f50e5a9e4ba299fa6be66]
class SubscriptionUpdateAction--><a href="SubscriptionUpdateAction.svg" target="_top" title="SubscriptionUpdateAction.svg" xlink:actuate="onRequest" xlink:href="SubscriptionUpdateAction.svg" xlink:show="new" xlink:title="SubscriptionUpdateAction.svg" xlink:type="simple"><g id="elem_SubscriptionUpdateAction"><rect codeLine="10" fill="#F1F1F1" height="56.2969" id="SubscriptionUpdateAction" rx="2.5" ry="2.5" style="stroke:#181818;stroke-width:0.5;" width="211" x="114.3571" y="12"/><ellipse cx="129.3571" cy="28" fill="#B4A7E5" rx="11" ry="11" style="stroke:#181818;stroke-width:1.0;"/><path d="M125.279,23.7656 L125.279,21.6094 L132.6696,21.6094 L132.6696,23.7656 L130.2009,23.7656 L130.2009,31.8438 L132.6696,31.8438 L132.6696,34 L125.279,34 L125.279,31.8438 L127.7478,31.8438 L127.7478,23.7656 L125.279,23.7656 Z " fill="#000000"/><text fill="#000000" font-family="sans-serif" font-size="14" font-style="italic" lengthAdjust="spacing" textLength="179" x="143.3571" y="32.8467">SubscriptionUpdateAction</text><line style="stroke:#181818;stroke-width:0.5;" x1="115.3571" x2="324.3571" y1="44" y2="44"/><text fill="#000000" font-family="sans-serif" font-size="14" lengthAdjust="spacing" textLength="91" x="120.3571" y="60.9951">action: String</text></g></a><!--MD5=[46f0366385fb5244d6e0d0569e0591a9]
class SubscriptionChangeDestinationAction--><a href="SubscriptionChangeDestinationAction.svg" target="_top" title="SubscriptionChangeDestinationAction.svg" xlink:actuate="onRequest" xlink:href="SubscriptionChangeDestinationAction.svg" xlink:show="new" xlink:title="SubscriptionChangeDestinationAction.svg" xlink:type="simple"><g id="elem_SubscriptionChangeDestinationAction"><rect codeLine="15" fill="#F1F1F1" height="72.5938" id="SubscriptionChangeDestinationAction" rx="2.5" ry="2.5" style="stroke:#181818;stroke-width:0.5;" width="293" x="1153" y="163.4297"/><ellipse cx="1168" cy="179.4297" fill="#B4A7E5" rx="11" ry="11" style="stroke:#181818;stroke-width:1.0;"/><path d="M1163.9219,175.1953 L1163.9219,173.0391 L1171.3125,173.0391 L1171.3125,175.1953 L1168.8438,175.1953 L1168.8438,183.2734 L1171.3125,183.2734 L1171.3125,185.4297 L1163.9219,185.4297 L1163.9219,183.2734 L1166.3906,183.2734 L1166.3906,175.1953 L1163.9219,175.1953 Z " fill="#000000"/><text fill="#000000" font-family="sans-serif" font-size="14" font-style="italic" lengthAdjust="spacing" textLength="261" x="1182" y="184.2764">SubscriptionChangeDestinationAction</text><line style="stroke:#181818;stroke-width:0.5;" x1="1154" x2="1445" y1="195.4297" y2="195.4297"/><text fill="#000000" font-family="sans-serif" font-size="14" lengthAdjust="spacing" textLength="91" x="1159" y="212.4248">action: String</text><text fill="#000000" font-family="sans-serif" font-size="14" lengthAdjust="spacing" textLength="82" x="1159" y="228.7217">destination:</text><a href="Destination.svg" target="_top" title="Destination.svg" xlink:actuate="onRequest" xlink:href="Destination.svg" xlink:show="new" xlink:title="Destination.svg" xlink:type="simple"><text fill="#0000FF" font-family="sans-serif" font-size="14" lengthAdjust="spacing" text-decoration="underline" textLength="79" x="1245" y="228.7217">Destination</text></a></g></a><!--MD5=[6f22bad532506931f20a402d93c11b96]
class SubscriptionSetChangesAction--><a href="SubscriptionSetChangesAction.svg" target="_top" title="SubscriptionSetChangesAction.svg" xlink:actuate="onRequest" xlink:href="SubscriptionSetChangesAction.svg" xlink:show="new" xlink:title="SubscriptionSetChangesAction.svg" xlink:type="simple"><g id="elem_SubscriptionSetChangesAction"><rect codeLine="19" fill="#F1F1F1" height="72.5938" id="SubscriptionSetChangesAction" rx="2.5" ry="2.5" style="stroke:#181818;stroke-width:0.5;" width="268" x="1466" y="163.4297"/><ellipse cx="1491.35" cy="179.4297" fill="#B4A7E5" rx="11" ry="11" style="stroke:#181818;stroke-width:1.0;"/><path d="M1487.2719,175.1953 L1487.2719,173.0391 L1494.6625,173.0391 L1494.6625,175.1953 L1492.1938,175.1953 L1492.1938,183.2734 L1494.6625,183.2734 L1494.6625,185.4297 L1487.2719,185.4297 L1487.2719,183.2734 L1489.7406,183.2734 L1489.7406,175.1953 L1487.2719,175.1953 Z " fill="#000000"/><text fill="#000000" font-family="sans-serif" font-size="14" font-style="italic" lengthAdjust="spacing" textLength="213" x="1507.65" y="184.2764">SubscriptionSetChangesAction</text><line style="stroke:#181818;stroke-width:0.5;" x1="1467" x2="1733" y1="195.4297" y2="195.4297"/><text fill="#000000" font-family="sans-serif" font-size="14" lengthAdjust="spacing" textLength="91" x="1472" y="212.4248">action: String</text><text fill="#000000" font-family="sans-serif" font-size="14" lengthAdjust="spacing" textLength="65" x="1472" y="228.7217">changes:</text><a href="ChangeSubscription.svg" target="_top" title="ChangeSubscription.svg" xlink:actuate="onRequest" xlink:href="ChangeSubscription.svg" xlink:show="new" xlink:title="ChangeSubscription.svg" xlink:type="simple"><text fill="#0000FF" font-family="sans-serif" font-size="14" lengthAdjust="spacing" text-decoration="underline" textLength="187" x="1541" y="228.7217">List&lt;ChangeSubscription&gt;</text></a></g></a><!--MD5=[706899389db5a3a51e9e7ab0df6a9143]
class SubscriptionSetEventsAction--><a href="SubscriptionSetEventsAction.svg" target="_top" title="SubscriptionSetEventsAction.svg" xlink:actuate="onRequest" xlink:href="SubscriptionSetEventsAction.svg" xlink:show="new" xlink:title="SubscriptionSetEventsAction.svg" xlink:type="simple"><g id="elem_SubscriptionSetEventsAction"><rect codeLine="23" fill="#F1F1F1" height="72.5938" id="SubscriptionSetEventsAction" rx="2.5" ry="2.5" style="stroke:#181818;stroke-width:0.5;" width="265" x="12" y="163.4297"/><ellipse cx="42.3" cy="179.4297" fill="#B4A7E5" rx="11" ry="11" style="stroke:#181818;stroke-width:1.0;"/><path d="M38.2219,175.1953 L38.2219,173.0391 L45.6125,173.0391 L45.6125,175.1953 L43.1438,175.1953 L43.1438,183.2734 L45.6125,183.2734 L45.6125,185.4297 L38.2219,185.4297 L38.2219,183.2734 L40.6906,183.2734 L40.6906,175.1953 L38.2219,175.1953 Z " fill="#000000"/><text fill="#000000" font-family="sans-serif" font-size="14" font-style="italic" lengthAdjust="spacing" textLength="199" x="59.7" y="184.2764">SubscriptionSetEventsAction</text><line style="stroke:#181818;stroke-width:0.5;" x1="13" x2="276" y1="195.4297" y2="195.4297"/><text fill="#000000" font-family="sans-serif" font-size="14" lengthAdjust="spacing" textLength="91" x="18" y="212.4248">action: String</text><text fill="#000000" font-family="sans-serif" font-size="14" lengthAdjust="spacing" textLength="77" x="18" y="228.7217">messages:</text><a href="EventSubscription.svg" target="_top" title="EventSubscription.svg" xlink:actuate="onRequest" xlink:href="EventSubscription.svg" xlink:show="new" xlink:title="EventSubscription.svg" xlink:type="simple"><text fill="#0000FF" font-family="sans-serif" font-size="14" lengthAdjust="spacing" text-decoration="underline" textLength="172" x="99" y="228.7217">List&lt;EventSubscription&gt;</text></a></g></a><!--MD5=[219709caa70f1189881c7c3aec35dc77]
class SubscriptionSetKeyAction--><a href="SubscriptionSetKeyAction.svg" target="_top" title="SubscriptionSetKeyAction.svg" xlink:actuate="onRequest" xlink:href="SubscriptionSetKeyAction.svg" xlink:show="new" xlink:title="SubscriptionSetKeyAction.svg" xlink:type="simple"><g id="elem_SubscriptionSetKeyAction"><rect codeLine="27" fill="#F1F1F1" height="72.5938" id="SubscriptionSetKeyAction" rx="2.5" ry="2.5" style="stroke:#181818;stroke-width:0.5;" width="210" x="297" y="163.4297"/><ellipse cx="312" cy="179.4297" fill="#B4A7E5" rx="11" ry="11" style="stroke:#181818;stroke-width:1.0;"/><path d="M307.9219,175.1953 L307.9219,173.0391 L315.3125,173.0391 L315.3125,175.1953 L312.8438,175.1953 L312.8438,183.2734 L315.3125,183.2734 L315.3125,185.4297 L307.9219,185.4297 L307.9219,183.2734 L310.3906,183.2734 L310.3906,175.1953 L307.9219,175.1953 Z " fill="#000000"/><text fill="#000000" font-family="sans-serif" font-size="14" font-style="italic" lengthAdjust="spacing" textLength="178" x="326" y="184.2764">SubscriptionSetKeyAction</text><line style="stroke:#181818;stroke-width:0.5;" x1="298" x2="506" y1="195.4297" y2="195.4297"/><text fill="#000000" font-family="sans-serif" font-size="14" lengthAdjust="spacing" textLength="91" x="303" y="212.4248">action: String</text><text fill="#000000" font-family="sans-serif" font-size="14" lengthAdjust="spacing" textLength="73" x="303" y="228.7217">key: String</text></g></a><!--MD5=[c93d560a34c6f6063aee4f9df499d5c4]
class SubscriptionSetMessagesAction--><a href="SubscriptionSetMessagesAction.svg" target="_top" title="SubscriptionSetMessagesAction.svg" xlink:actuate="onRequest" xlink:href="SubscriptionSetMessagesAction.svg" xlink:show="new" xlink:title="SubscriptionSetMessagesAction.svg" xlink:type="simple"><g id="elem_SubscriptionSetMessagesAction"><rect codeLine="31" fill="#F1F1F1" height="72.5938" id="SubscriptionSetMessagesAction" rx="2.5" ry="2.5" style="stroke:#181818;stroke-width:0.5;" width="289" x="527" y="163.4297"/><ellipse cx="558.65" cy="179.4297" fill="#B4A7E5" rx="11" ry="11" style="stroke:#181818;stroke-width:1.0;"/><path d="M554.5719,175.1953 L554.5719,173.0391 L561.9625,173.0391 L561.9625,175.1953 L559.4938,175.1953 L559.4938,183.2734 L561.9625,183.2734 L561.9625,185.4297 L554.5719,185.4297 L554.5719,183.2734 L557.0406,183.2734 L557.0406,175.1953 L554.5719,175.1953 Z " fill="#000000"/><text fill="#000000" font-family="sans-serif" font-size="14" font-style="italic" lengthAdjust="spacing" textLength="220" x="576.35" y="184.2764">SubscriptionSetMessagesAction</text><line style="stroke:#181818;stroke-width:0.5;" x1="528" x2="815" y1="195.4297" y2="195.4297"/><text fill="#000000" font-family="sans-serif" font-size="14" lengthAdjust="spacing" textLength="91" x="533" y="212.4248">action: String</text><text fill="#000000" font-family="sans-serif" font-size="14" lengthAdjust="spacing" textLength="77" x="533" y="228.7217">messages:</text><a href="MessageSubscription.svg" target="_top" title="MessageSubscription.svg" xlink:actuate="onRequest" xlink:href="MessageSubscription.svg" xlink:show="new" xlink:title="MessageSubscription.svg" xlink:type="simple"><text fill="#0000FF" font-family="sans-serif" font-size="14" lengthAdjust="spacing" text-decoration="underline" textLength="196" x="614" y="228.7217">List&lt;MessageSubscription&gt;</text></a></g></a><!--MD5=[1ec347a0f1160d033ff3977c4027b4df]
class SubscriptionUpdate--><a href="SubscriptionUpdate.svg" target="_top" title="SubscriptionUpdate.svg" xlink:actuate="onRequest" xlink:href="SubscriptionUpdate.svg" xlink:show="new" xlink:title="SubscriptionUpdate.svg" xlink:type="simple"><g id="elem_SubscriptionUpdate"><rect codeLine="35" fill="#F1F1F1" height="72.5938" id="SubscriptionUpdate" rx="2.5" ry="2.5" style="stroke:#181818;stroke-width:0.5;" width="297" x="836" y="163.4297"/><ellipse cx="912.75" cy="179.4297" fill="#B4A7E5" rx="11" ry="11" style="stroke:#181818;stroke-width:1.0;"/><path d="M908.6719,175.1953 L908.6719,173.0391 L916.0625,173.0391 L916.0625,175.1953 L913.5938,175.1953 L913.5938,183.2734 L916.0625,183.2734 L916.0625,185.4297 L908.6719,185.4297 L908.6719,183.2734 L911.1406,183.2734 L911.1406,175.1953 L908.6719,175.1953 Z " fill="#000000"/><text fill="#000000" font-family="sans-serif" font-size="14" font-style="italic" lengthAdjust="spacing" textLength="135" x="933.25" y="184.2764">SubscriptionUpdate</text><line style="stroke:#181818;stroke-width:0.5;" x1="837" x2="1132" y1="195.4297" y2="195.4297"/><text fill="#000000" font-family="sans-serif" font-size="14" lengthAdjust="spacing" textLength="93" x="842" y="212.4248">version: Long</text><text fill="#000000" font-family="sans-serif" font-size="14" lengthAdjust="spacing" textLength="55" x="842" y="228.7217">actions:</text><a href="SubscriptionUpdateAction.svg" target="_top" title="SubscriptionUpdateAction.svg" xlink:actuate="onRequest" xlink:href="SubscriptionUpdateAction.svg" xlink:show="new" xlink:title="SubscriptionUpdateAction.svg" xlink:type="simple"><text fill="#0000FF" font-family="sans-serif" font-size="14" lengthAdjust="spacing" text-decoration="underline" textLength="226" x="901" y="228.7217">List&lt;SubscriptionUpdateAction&gt;</text></a></g></a><line style="stroke:#0000FF;stroke-width:1.0;" x1="265.0714" x2="265.0714" y1="68.2969" y2="88.2969"/><line style="stroke:#0000FF;stroke-width:1.0;" x1="265.0714" x2="1299.5" y1="88.2969" y2="88.2969"/><line style="stroke:#0000FF;stroke-width:1.0;" x1="1299.5" x2="1299.5" y1="88.2969" y2="163.4297"/><polygon fill="#0000FF" points="1299.5,163.4297,1303.5,154.4297,1299.5,158.4297,1295.5,154.4297,1299.5,163.4297" style="stroke:#0000FF;stroke-width:1.0;"/><text fill="#000000" font-family="sans-serif" font-size="13" lengthAdjust="spacing" textLength="171" x="1126.5" y="140.3638">action : changeDestination</text><line style="stroke:#0000FF;stroke-width:1.0;" x1="295.2143" x2="295.2143" y1="68.2969" y2="78.2969"/><line style="stroke:#0000FF;stroke-width:1.0;" x1="295.2143" x2="1600" y1="78.2969" y2="78.2969"/><line style="stroke:#0000FF;stroke-width:1.0;" x1="1600" x2="1600" y1="78.2969" y2="163.4297"/><polygon fill="#0000FF" points="1600,163.4297,1604,154.4297,1600,158.4297,1596,154.4297,1600,163.4297" style="stroke:#0000FF;stroke-width:1.0;"/><text fill="#000000" font-family="sans-serif" font-size="13" lengthAdjust="spacing" textLength="127" x="1471" y="140.3638">action : setChanges</text><line style="stroke:#0000FF;stroke-width:1.0;" x1="144.5" x2="144.5" y1="68.2969" y2="163.4297"/><polygon fill="#0000FF" points="144.5,163.4297,148.5,154.4297,144.5,158.4297,140.5,154.4297,144.5,163.4297" style="stroke:#0000FF;stroke-width:1.0;"/><text fill="#000000" font-family="sans-serif" font-size="13" lengthAdjust="spacing" textLength="114" x="28.5" y="140.3638">action : setEvents</text><line style="stroke:#0000FF;stroke-width:1.0;" x1="174.6429" x2="174.6429" y1="68.2969" y2="118.2969"/><line style="stroke:#0000FF;stroke-width:1.0;" x1="174.6429" x2="402" y1="118.2969" y2="118.2969"/><line style="stroke:#0000FF;stroke-width:1.0;" x1="402" x2="402" y1="118.2969" y2="163.4297"/><polygon fill="#0000FF" points="402,163.4297,406,154.4297,402,158.4297,398,154.4297,402,163.4297" style="stroke:#0000FF;stroke-width:1.0;"/><text fill="#000000" font-family="sans-serif" font-size="13" lengthAdjust="spacing" textLength="94" x="306" y="140.3638">action : setKey</text><line style="stroke:#0000FF;stroke-width:1.0;" x1="204.7857" x2="204.7857" y1="68.2969" y2="108.2969"/><line style="stroke:#0000FF;stroke-width:1.0;" x1="204.7857" x2="671.5" y1="108.2969" y2="108.2969"/><line style="stroke:#0000FF;stroke-width:1.0;" x1="671.5" x2="671.5" y1="108.2969" y2="163.4297"/><polygon fill="#0000FF" points="671.5,163.4297,675.5,154.4297,671.5,158.4297,667.5,154.4297,671.5,163.4297" style="stroke:#0000FF;stroke-width:1.0;"/><text fill="#000000" font-family="sans-serif" font-size="13" lengthAdjust="spacing" textLength="135" x="534.5" y="140.3638">action : setMessages</text><line style="stroke:#008000;stroke-width:1.0;" x1="234.9286" x2="234.9286" y1="68.2969" y2="98.2969"/><line style="stroke:#008000;stroke-width:1.0;" x1="234.9286" x2="984.5" y1="98.2969" y2="98.2969"/><line style="stroke:#008000;stroke-width:1.0;" x1="984.5" x2="984.5" y1="98.2969" y2="163.4297"/><polygon fill="#008000" points="984.5,163.4297,988.5,154.4297,984.5,158.4297,980.5,154.4297,984.5,163.4297" style="stroke:#008000;stroke-width:1.0;"/><text fill="#000000" font-family="sans-serif" font-size="13" lengthAdjust="spacing" textLength="46" x="936.5" y="140.3638">actions</text><rect fill="#DDDDDD" height="79.1875" id="_legend" rx="7.5" ry="7.5" style="stroke:#000000;stroke-width:1.0;" width="161" x="780.5" y="237.0234"/><text fill="#000000" font-family="sans-serif" font-size="14" font-weight="bold" lengthAdjust="spacing" textLength="5" x="785.5" y="257.0186"> </text><text fill="#000000" font-family="sans-serif" font-size="14" font-weight="bold" lengthAdjust="spacing" textLength="28" x="802.5" y="257.0186">line</text><text fill="#000000" filter="url(#bykh3hm869k2n0)" font-family="sans-serif" font-size="14" lengthAdjust="spacing" textLength="12" x="785.5" y="273.3154">   </text><text fill="#000000" font-family="sans-serif" font-size="14" lengthAdjust="spacing" textLength="77" x="801.5" y="273.3154">inheritance</text><text fill="#000000" filter="url(#bykh3hm869k2n1)" font-family="sans-serif" font-size="14" lengthAdjust="spacing" textLength="12" x="785.5" y="289.6123">   </text><text fill="#000000" font-family="sans-serif" font-size="14" lengthAdjust="spacing" textLength="129" x="801.5" y="289.6123">property reference</text><text fill="#000000" filter="url(#bykh3hm869k2n2)" font-family="sans-serif" font-size="14" lengthAdjust="spacing" textLength="12" x="785.5" y="305.9092">   </text><text fill="#000000" font-family="sans-serif" font-size="14" lengthAdjust="spacing" textLength="131" x="801.5" y="305.9092">discriminated class</text><line style="stroke:#000000;stroke-width:1.0;" x1="785.5" x2="936.5" y1="244.0234" y2="244.0234"/><line style="stroke:#000000;stroke-width:1.0;" x1="785.5" x2="936.5" y1="260.3203" y2="260.3203"/><line style="stroke:#000000;stroke-width:1.0;" x1="785.5" x2="936.5" y1="276.6172" y2="276.6172"/><line style="stroke:#000000;stroke-width:1.0;" x1="785.5" x2="936.5" y1="292.9141" y2="292.9141"/><line style="stroke:#000000;stroke-width:1.0;" x1="785.5" x2="936.5" y1="309.2109" y2="309.2109"/><line style="stroke:#000000;stroke-width:1.0;" x1="785.5" x2="785.5" y1="244.0234" y2="309.2109"/><line style="stroke:#000000;stroke-width:1.0;" x1="797.5" x2="797.5" y1="244.0234" y2="309.2109"/><line style="stroke:#000000;stroke-width:1.0;" x1="936.5" x2="936.5" y1="244.0234" y2="309.2109"/><!--MD5=[b62b6f0a0074e4c6d987e4974cb2d19c]
@startuml
!pragma layout elk
hide empty fields
hide empty methods
legend
|= |= line |
|<back:black>   </back>| inheritance |
|<back:green>   </back>| property reference |
|<back:blue>   </back>| discriminated class |
endlegend
interface SubscriptionUpdateAction [[SubscriptionUpdateAction.svg]]  {
    action: String
}


interface SubscriptionChangeDestinationAction [[SubscriptionChangeDestinationAction.svg]]  {
    action: String
    destination: [[Destination.svg Destination]]
}
interface SubscriptionSetChangesAction [[SubscriptionSetChangesAction.svg]]  {
    action: String
    changes: [[ChangeSubscription.svg List<ChangeSubscription>]]
}
interface SubscriptionSetEventsAction [[SubscriptionSetEventsAction.svg]]  {
    action: String
    messages: [[EventSubscription.svg List<EventSubscription>]]
}
interface SubscriptionSetKeyAction [[SubscriptionSetKeyAction.svg]]  {
    action: String
    key: String
}
interface SubscriptionSetMessagesAction [[SubscriptionSetMessagesAction.svg]]  {
    action: String
    messages: [[MessageSubscription.svg List<MessageSubscription>]]
}
interface SubscriptionUpdate [[SubscriptionUpdate.svg]]  {
    version: Long
    actions: [[SubscriptionUpdateAction.svg List<SubscriptionUpdateAction>]]
}
SubscriptionUpdateAction - -> SubscriptionChangeDestinationAction #blue;text:blue : "action : changeDestination"
SubscriptionUpdateAction - -> SubscriptionSetChangesAction #blue;text:blue : "action : setChanges"
SubscriptionUpdateAction - -> SubscriptionSetEventsAction #blue;text:blue : "action : setEvents"
SubscriptionUpdateAction - -> SubscriptionSetKeyAction #blue;text:blue : "action : setKey"
SubscriptionUpdateAction - -> SubscriptionSetMessagesAction #blue;text:blue : "action : setMessages"
SubscriptionUpdateAction - -> SubscriptionUpdate #green;text:green : "actions"
@enduml

PlantUML version 1.2022.13(Sat Nov 19 13:22:17 UTC 2022)
(GPL source distribution)
Java Runtime: OpenJDK Runtime Environment
JVM: OpenJDK 64-Bit Server VM
Default Encoding: UTF-8
Language: en
Country: null
--></g></svg>
