<?xml version="1.0" encoding="UTF-8" standalone="no"?><svg xmlns="http://www.w3.org/2000/svg" xmlns:xlink="http://www.w3.org/1999/xlink" contentStyleType="text/css" height="255px" preserveAspectRatio="none" style="width:346px;height:255px;background:#FFFFFF;" version="1.1" viewBox="0 0 346 255" width="346px" zoomAndPan="magnify"><defs><filter height="1" id="bhp4ngyij88q00" width="1" x="0" y="0"><feFlood flood-color="#000000" result="flood"/><feComposite in="SourceGraphic" in2="flood" operator="over"/></filter><filter height="1" id="bhp4ngyij88q01" width="1" x="0" y="0"><feFlood flood-color="#008000" result="flood"/><feComposite in="SourceGraphic" in2="flood" operator="over"/></filter><filter height="1" id="bhp4ngyij88q02" width="1" x="0" y="0"><feFlood flood-color="#0000FF" result="flood"/><feComposite in="SourceGraphic" in2="flood" operator="over"/></filter></defs><g><!--MD5=[5d4a571d632f45af65b163b23000bf12]
class Suggestion--><a href="Suggestion.svg" target="_top" title="Suggestion.svg" xlink:actuate="onRequest" xlink:href="Suggestion.svg" xlink:show="new" xlink:title="Suggestion.svg" xlink:type="simple"><g id="elem_Suggestion"><rect codeLine="10" fill="#F1F1F1" height="56.2969" id="Suggestion" rx="2.5" ry="2.5" style="stroke:#181818;stroke-width:0.5;" width="110" x="208" y="12"/><ellipse cx="223" cy="28" fill="#B4A7E5" rx="11" ry="11" style="stroke:#181818;stroke-width:1.0;"/><path d="M218.9219,23.7656 L218.9219,21.6094 L226.3125,21.6094 L226.3125,23.7656 L223.8438,23.7656 L223.8438,31.8438 L226.3125,31.8438 L226.3125,34 L218.9219,34 L218.9219,31.8438 L221.3906,31.8438 L221.3906,23.7656 L218.9219,23.7656 Z " fill="#000000"/><text fill="#000000" font-family="sans-serif" font-size="14" font-style="italic" lengthAdjust="spacing" textLength="78" x="237" y="32.8467">Suggestion</text><line style="stroke:#181818;stroke-width:0.5;" x1="209" x2="317" y1="44" y2="44"/><text fill="#000000" font-family="sans-serif" font-size="14" lengthAdjust="spacing" textLength="75" x="214" y="60.9951">text: String</text></g></a><!--MD5=[f6583f1b3695c9a67241ae8f6524c599]
class SuggestionResult--><a href="SuggestionResult.svg" target="_top" title="SuggestionResult.svg" xlink:actuate="onRequest" xlink:href="SuggestionResult.svg" xlink:show="new" xlink:title="SuggestionResult.svg" xlink:type="simple"><g id="elem_SuggestionResult"><rect codeLine="16" fill="#F1F1F1" height="32" id="SuggestionResult" rx="2.5" ry="2.5" style="stroke:#181818;stroke-width:0.5;" width="153" x="186.5" y="123.4297"/><ellipse cx="201.5" cy="139.4297" fill="#B4A7E5" rx="11" ry="11" style="stroke:#181818;stroke-width:1.0;"/><path d="M197.4219,135.1953 L197.4219,133.0391 L204.8125,133.0391 L204.8125,135.1953 L202.3438,135.1953 L202.3438,143.2734 L204.8125,143.2734 L204.8125,145.4297 L197.4219,145.4297 L197.4219,143.2734 L199.8906,143.2734 L199.8906,135.1953 L197.4219,135.1953 Z " fill="#000000"/><text fill="#000000" font-family="sans-serif" font-size="14" font-style="italic" lengthAdjust="spacing" textLength="121" x="215.5" y="144.2764">SuggestionResult</text></g></a><line style="stroke:#008000;stroke-width:1.0;" x1="263" x2="263" y1="68.2969" y2="123.4297"/><polygon fill="#008000" points="263,123.4297,267,114.4297,263,118.4297,259,114.4297,263,123.4297" style="stroke:#008000;stroke-width:1.0;"/><text fill="#000000" font-family="sans-serif" font-size="13" lengthAdjust="spacing" textLength="249" x="12" y="100.3638">/searchKeywords.[a-z]{2}(-[A-Z]{2})?/</text><rect fill="#DDDDDD" height="79.1875" id="_legend" rx="7.5" ry="7.5" style="stroke:#000000;stroke-width:1.0;" width="161" x="82.75" y="156.4297"/><text fill="#000000" font-family="sans-serif" font-size="14" font-weight="bold" lengthAdjust="spacing" textLength="5" x="87.75" y="176.4248"> </text><text fill="#000000" font-family="sans-serif" font-size="14" font-weight="bold" lengthAdjust="spacing" textLength="28" x="104.75" y="176.4248">line</text><text fill="#000000" filter="url(#bhp4ngyij88q00)" font-family="sans-serif" font-size="14" lengthAdjust="spacing" textLength="12" x="87.75" y="192.7217">   </text><text fill="#000000" font-family="sans-serif" font-size="14" lengthAdjust="spacing" textLength="77" x="103.75" y="192.7217">inheritance</text><text fill="#000000" filter="url(#bhp4ngyij88q01)" font-family="sans-serif" font-size="14" lengthAdjust="spacing" textLength="12" x="87.75" y="209.0186">   </text><text fill="#000000" font-family="sans-serif" font-size="14" lengthAdjust="spacing" textLength="129" x="103.75" y="209.0186">property reference</text><text fill="#000000" filter="url(#bhp4ngyij88q02)" font-family="sans-serif" font-size="14" lengthAdjust="spacing" textLength="12" x="87.75" y="225.3154">   </text><text fill="#000000" font-family="sans-serif" font-size="14" lengthAdjust="spacing" textLength="131" x="103.75" y="225.3154">discriminated class</text><line style="stroke:#000000;stroke-width:1.0;" x1="87.75" x2="238.75" y1="163.4297" y2="163.4297"/><line style="stroke:#000000;stroke-width:1.0;" x1="87.75" x2="238.75" y1="179.7266" y2="179.7266"/><line style="stroke:#000000;stroke-width:1.0;" x1="87.75" x2="238.75" y1="196.0234" y2="196.0234"/><line style="stroke:#000000;stroke-width:1.0;" x1="87.75" x2="238.75" y1="212.3203" y2="212.3203"/><line style="stroke:#000000;stroke-width:1.0;" x1="87.75" x2="238.75" y1="228.6172" y2="228.6172"/><line style="stroke:#000000;stroke-width:1.0;" x1="87.75" x2="87.75" y1="163.4297" y2="228.6172"/><line style="stroke:#000000;stroke-width:1.0;" x1="99.75" x2="99.75" y1="163.4297" y2="228.6172"/><line style="stroke:#000000;stroke-width:1.0;" x1="238.75" x2="238.75" y1="163.4297" y2="228.6172"/><!--MD5=[00642359483c6340ff543f2037efb653]
@startuml
!pragma layout elk
hide empty fields
hide empty methods
legend
|= |= line |
|<back:black>   </back>| inheritance |
|<back:green>   </back>| property reference |
|<back:blue>   </back>| discriminated class |
endlegend
interface Suggestion [[Suggestion.svg]]  {
    text: String
}



interface SuggestionResult [[SuggestionResult.svg]]  {
}

Suggestion - -> SuggestionResult #green;text:green : "/searchKeywords.[a-z]{2}(-[A-Z]{2})?/"
@enduml

PlantUML version 1.2022.13(Sat Nov 19 13:22:17 UTC 2022)
(GPL source distribution)
Java Runtime: OpenJDK Runtime Environment
JVM: OpenJDK 64-Bit Server VM
Default Encoding: UTF-8
Language: en
Country: null
--></g></svg>
