<?xml version="1.0" encoding="UTF-8" standalone="no"?><svg xmlns="http://www.w3.org/2000/svg" xmlns:xlink="http://www.w3.org/1999/xlink" contentStyleType="text/css" height="306px" preserveAspectRatio="none" style="width:667px;height:306px;background:#FFFFFF;" version="1.1" viewBox="0 0 667 306" width="667px" zoomAndPan="magnify"><defs><filter height="1" id="bb4tsgdsrnqxv0" width="1" x="0" y="0"><feFlood flood-color="#000000" result="flood"/><feComposite in="SourceGraphic" in2="flood" operator="over"/></filter><filter height="1" id="bb4tsgdsrnqxv1" width="1" x="0" y="0"><feFlood flood-color="#008000" result="flood"/><feComposite in="SourceGraphic" in2="flood" operator="over"/></filter><filter height="1" id="bb4tsgdsrnqxv2" width="1" x="0" y="0"><feFlood flood-color="#0000FF" result="flood"/><feComposite in="SourceGraphic" in2="flood" operator="over"/></filter></defs><g><!--MD5=[171cda7d32d04660a67e9e4c817ffb3d]
class SuggestTokenizer--><a href="SuggestTokenizer.svg" target="_top" title="SuggestTokenizer.svg" xlink:actuate="onRequest" xlink:href="SuggestTokenizer.svg" xlink:show="new" xlink:title="SuggestTokenizer.svg" xlink:type="simple"><g id="elem_SuggestTokenizer"><rect codeLine="10" fill="#F1F1F1" height="56.2969" id="SuggestTokenizer" rx="2.5" ry="2.5" style="stroke:#181818;stroke-width:0.5;" width="157" x="109.75" y="12"/><ellipse cx="124.75" cy="28" fill="#B4A7E5" rx="11" ry="11" style="stroke:#181818;stroke-width:1.0;"/><path d="M120.6719,23.7656 L120.6719,21.6094 L128.0625,21.6094 L128.0625,23.7656 L125.5938,23.7656 L125.5938,31.8438 L128.0625,31.8438 L128.0625,34 L120.6719,34 L120.6719,31.8438 L123.1406,31.8438 L123.1406,23.7656 L120.6719,23.7656 Z " fill="#000000"/><text fill="#000000" font-family="sans-serif" font-size="14" font-style="italic" lengthAdjust="spacing" textLength="125" x="138.75" y="32.8467">SuggestTokenizer</text><line style="stroke:#181818;stroke-width:0.5;" x1="110.75" x2="265.75" y1="44" y2="44"/><text fill="#000000" font-family="sans-serif" font-size="14" lengthAdjust="spacing" textLength="79" x="115.75" y="60.9951">type: String</text></g></a><!--MD5=[12d3325f539f8052aca53c48c815f41b]
class CustomTokenizer--><a href="CustomTokenizer.svg" target="_top" title="CustomTokenizer.svg" xlink:actuate="onRequest" xlink:href="CustomTokenizer.svg" xlink:show="new" xlink:title="CustomTokenizer.svg" xlink:type="simple"><g id="elem_CustomTokenizer"><rect codeLine="15" fill="#F1F1F1" height="72.5938" id="CustomTokenizer" rx="2.5" ry="2.5" style="stroke:#181818;stroke-width:0.5;" width="153" x="306" y="133.4297"/><ellipse cx="321" cy="149.4297" fill="#B4A7E5" rx="11" ry="11" style="stroke:#181818;stroke-width:1.0;"/><path d="M316.9219,145.1953 L316.9219,143.0391 L324.3125,143.0391 L324.3125,145.1953 L321.8438,145.1953 L321.8438,153.2734 L324.3125,153.2734 L324.3125,155.4297 L316.9219,155.4297 L316.9219,153.2734 L319.3906,153.2734 L319.3906,145.1953 L316.9219,145.1953 Z " fill="#000000"/><text fill="#000000" font-family="sans-serif" font-size="14" font-style="italic" lengthAdjust="spacing" textLength="121" x="335" y="154.2764">CustomTokenizer</text><line style="stroke:#181818;stroke-width:0.5;" x1="307" x2="458" y1="165.4297" y2="165.4297"/><text fill="#000000" font-family="sans-serif" font-size="14" lengthAdjust="spacing" textLength="79" x="312" y="182.4248">type: String</text><text fill="#000000" font-family="sans-serif" font-size="14" lengthAdjust="spacing" textLength="48" x="312" y="198.7217">inputs:</text><a href="String.svg" target="_top" title="String.svg" xlink:actuate="onRequest" xlink:href="String.svg" xlink:show="new" xlink:title="String.svg" xlink:type="simple"><text fill="#0000FF" font-family="sans-serif" font-size="14" lengthAdjust="spacing" text-decoration="underline" textLength="87" x="364" y="198.7217">List&lt;String&gt;</text></a></g></a><!--MD5=[8e3d0d5945c0390ef28b565c54b8a5b8]
class WhitespaceTokenizer--><a href="WhitespaceTokenizer.svg" target="_top" title="WhitespaceTokenizer.svg" xlink:actuate="onRequest" xlink:href="WhitespaceTokenizer.svg" xlink:show="new" xlink:title="WhitespaceTokenizer.svg" xlink:type="simple"><g id="elem_WhitespaceTokenizer"><rect codeLine="19" fill="#F1F1F1" height="56.2969" id="WhitespaceTokenizer" rx="2.5" ry="2.5" style="stroke:#181818;stroke-width:0.5;" width="181" x="479" y="133.4297"/><ellipse cx="494" cy="149.4297" fill="#B4A7E5" rx="11" ry="11" style="stroke:#181818;stroke-width:1.0;"/><path d="M489.9219,145.1953 L489.9219,143.0391 L497.3125,143.0391 L497.3125,145.1953 L494.8438,145.1953 L494.8438,153.2734 L497.3125,153.2734 L497.3125,155.4297 L489.9219,155.4297 L489.9219,153.2734 L492.3906,153.2734 L492.3906,145.1953 L489.9219,145.1953 Z " fill="#000000"/><text fill="#000000" font-family="sans-serif" font-size="14" font-style="italic" lengthAdjust="spacing" textLength="149" x="508" y="154.2764">WhitespaceTokenizer</text><line style="stroke:#181818;stroke-width:0.5;" x1="480" x2="659" y1="165.4297" y2="165.4297"/><text fill="#000000" font-family="sans-serif" font-size="14" lengthAdjust="spacing" textLength="79" x="485" y="182.4248">type: String</text></g></a><!--MD5=[ceae8c265dbac70f16a99edf9c6e4ab6]
class SearchKeyword--><a href="SearchKeyword.svg" target="_top" title="SearchKeyword.svg" xlink:actuate="onRequest" xlink:href="SearchKeyword.svg" xlink:show="new" xlink:title="SearchKeyword.svg" xlink:type="simple"><g id="elem_SearchKeyword"><rect codeLine="22" fill="#F1F1F1" height="72.5938" id="SearchKeyword" rx="2.5" ry="2.5" style="stroke:#181818;stroke-width:0.5;" width="274" x="12" y="133.4297"/><ellipse cx="90.75" cy="149.4297" fill="#B4A7E5" rx="11" ry="11" style="stroke:#181818;stroke-width:1.0;"/><path d="M86.6719,145.1953 L86.6719,143.0391 L94.0625,143.0391 L94.0625,145.1953 L91.5938,145.1953 L91.5938,153.2734 L94.0625,153.2734 L94.0625,155.4297 L86.6719,155.4297 L86.6719,153.2734 L89.1406,153.2734 L89.1406,145.1953 L86.6719,145.1953 Z " fill="#000000"/><text fill="#000000" font-family="sans-serif" font-size="14" font-style="italic" lengthAdjust="spacing" textLength="108" x="111.25" y="154.2764">SearchKeyword</text><line style="stroke:#181818;stroke-width:0.5;" x1="13" x2="285" y1="165.4297" y2="165.4297"/><text fill="#000000" font-family="sans-serif" font-size="14" lengthAdjust="spacing" textLength="75" x="18" y="182.4248">text: String</text><text fill="#000000" font-family="sans-serif" font-size="14" lengthAdjust="spacing" textLength="131" x="18" y="198.7217">suggestTokenizer:</text><a href="SuggestTokenizer.svg" target="_top" title="SuggestTokenizer.svg" xlink:actuate="onRequest" xlink:href="SuggestTokenizer.svg" xlink:show="new" xlink:title="SuggestTokenizer.svg" xlink:type="simple"><text fill="#0000FF" font-family="sans-serif" font-size="14" lengthAdjust="spacing" text-decoration="underline" textLength="127" x="153" y="198.7217">SuggestTokenizer</text></a></g></a><line style="stroke:#0000FF;stroke-width:1.0;" x1="188.25" x2="188.25" y1="68.2969" y2="88.2969"/><line style="stroke:#0000FF;stroke-width:1.0;" x1="188.25" x2="382.5" y1="88.2969" y2="88.2969"/><line style="stroke:#0000FF;stroke-width:1.0;" x1="382.5" x2="382.5" y1="88.2969" y2="133.4297"/><polygon fill="#0000FF" points="382.5,133.4297,386.5,124.4297,382.5,128.4297,378.5,124.4297,382.5,133.4297" style="stroke:#0000FF;stroke-width:1.0;"/><text fill="#000000" font-family="sans-serif" font-size="13" lengthAdjust="spacing" textLength="88" x="292.5" y="110.3638">type : custom</text><line style="stroke:#0000FF;stroke-width:1.0;" x1="227.5" x2="227.5" y1="68.2969" y2="78.2969"/><line style="stroke:#0000FF;stroke-width:1.0;" x1="227.5" x2="569.5" y1="78.2969" y2="78.2969"/><line style="stroke:#0000FF;stroke-width:1.0;" x1="569.5" x2="569.5" y1="78.2969" y2="133.4297"/><polygon fill="#0000FF" points="569.5,133.4297,573.5,124.4297,569.5,128.4297,565.5,124.4297,569.5,133.4297" style="stroke:#0000FF;stroke-width:1.0;"/><text fill="#000000" font-family="sans-serif" font-size="13" lengthAdjust="spacing" textLength="111" x="456.5" y="110.3638">type : whitespace</text><line style="stroke:#008000;stroke-width:1.0;" x1="149" x2="149" y1="68.2969" y2="133.4297"/><polygon fill="#008000" points="149,133.4297,153,124.4297,149,128.4297,145,124.4297,149,133.4297" style="stroke:#008000;stroke-width:1.0;"/><text fill="#000000" font-family="sans-serif" font-size="13" lengthAdjust="spacing" textLength="112" x="35" y="110.3638">suggestTokenizer</text><rect fill="#DDDDDD" height="79.1875" id="_legend" rx="7.5" ry="7.5" style="stroke:#000000;stroke-width:1.0;" width="161" x="243.5" y="207.0234"/><text fill="#000000" font-family="sans-serif" font-size="14" font-weight="bold" lengthAdjust="spacing" textLength="5" x="248.5" y="227.0186"> </text><text fill="#000000" font-family="sans-serif" font-size="14" font-weight="bold" lengthAdjust="spacing" textLength="28" x="265.5" y="227.0186">line</text><text fill="#000000" filter="url(#bb4tsgdsrnqxv0)" font-family="sans-serif" font-size="14" lengthAdjust="spacing" textLength="12" x="248.5" y="243.3154">   </text><text fill="#000000" font-family="sans-serif" font-size="14" lengthAdjust="spacing" textLength="77" x="264.5" y="243.3154">inheritance</text><text fill="#000000" filter="url(#bb4tsgdsrnqxv1)" font-family="sans-serif" font-size="14" lengthAdjust="spacing" textLength="12" x="248.5" y="259.6123">   </text><text fill="#000000" font-family="sans-serif" font-size="14" lengthAdjust="spacing" textLength="129" x="264.5" y="259.6123">property reference</text><text fill="#000000" filter="url(#bb4tsgdsrnqxv2)" font-family="sans-serif" font-size="14" lengthAdjust="spacing" textLength="12" x="248.5" y="275.9092">   </text><text fill="#000000" font-family="sans-serif" font-size="14" lengthAdjust="spacing" textLength="131" x="264.5" y="275.9092">discriminated class</text><line style="stroke:#000000;stroke-width:1.0;" x1="248.5" x2="399.5" y1="214.0234" y2="214.0234"/><line style="stroke:#000000;stroke-width:1.0;" x1="248.5" x2="399.5" y1="230.3203" y2="230.3203"/><line style="stroke:#000000;stroke-width:1.0;" x1="248.5" x2="399.5" y1="246.6172" y2="246.6172"/><line style="stroke:#000000;stroke-width:1.0;" x1="248.5" x2="399.5" y1="262.9141" y2="262.9141"/><line style="stroke:#000000;stroke-width:1.0;" x1="248.5" x2="399.5" y1="279.2109" y2="279.2109"/><line style="stroke:#000000;stroke-width:1.0;" x1="248.5" x2="248.5" y1="214.0234" y2="279.2109"/><line style="stroke:#000000;stroke-width:1.0;" x1="260.5" x2="260.5" y1="214.0234" y2="279.2109"/><line style="stroke:#000000;stroke-width:1.0;" x1="399.5" x2="399.5" y1="214.0234" y2="279.2109"/><!--MD5=[788bc04ccd5660927daf4ec712b8fb85]
@startuml
!pragma layout elk
hide empty fields
hide empty methods
legend
|= |= line |
|<back:black>   </back>| inheritance |
|<back:green>   </back>| property reference |
|<back:blue>   </back>| discriminated class |
endlegend
interface SuggestTokenizer [[SuggestTokenizer.svg]]  {
    type: String
}


interface CustomTokenizer [[CustomTokenizer.svg]]  {
    type: String
    inputs: [[String.svg List<String>]]
}
interface WhitespaceTokenizer [[WhitespaceTokenizer.svg]]  {
    type: String
}
interface SearchKeyword [[SearchKeyword.svg]]  {
    text: String
    suggestTokenizer: [[SuggestTokenizer.svg SuggestTokenizer]]
}
SuggestTokenizer - -> CustomTokenizer #blue;text:blue : "type : custom"
SuggestTokenizer - -> WhitespaceTokenizer #blue;text:blue : "type : whitespace"
SuggestTokenizer - -> SearchKeyword #green;text:green : "suggestTokenizer"
@enduml

PlantUML version 1.2022.13(Sat Nov 19 13:22:17 UTC 2022)
(GPL source distribution)
Java Runtime: OpenJDK Runtime Environment
JVM: OpenJDK 64-Bit Server VM
Default Encoding: UTF-8
Language: en
Country: null
--></g></svg>
