<?xml version="1.0" encoding="UTF-8" standalone="no"?><svg xmlns="http://www.w3.org/2000/svg" xmlns:xlink="http://www.w3.org/1999/xlink" contentStyleType="text/css" height="261px" preserveAspectRatio="none" style="width:298px;height:261px;background:#FFFFFF;" version="1.1" viewBox="0 0 298 261" width="298px" zoomAndPan="magnify"><defs><filter height="1" id="b1sk4n3x8b0pop0" width="1" x="0" y="0"><feFlood flood-color="#000000" result="flood"/><feComposite in="SourceGraphic" in2="flood" operator="over"/></filter><filter height="1" id="b1sk4n3x8b0pop1" width="1" x="0" y="0"><feFlood flood-color="#008000" result="flood"/><feComposite in="SourceGraphic" in2="flood" operator="over"/></filter><filter height="1" id="b1sk4n3x8b0pop2" width="1" x="0" y="0"><feFlood flood-color="#0000FF" result="flood"/><feComposite in="SourceGraphic" in2="flood" operator="over"/></filter></defs><g><!--MD5=[d99623e8bc7f52c20742b86cf30431a0]
class TaxCategoryRemoveTaxRateAction--><a href="TaxCategoryRemoveTaxRateAction.svg" target="_top" title="TaxCategoryRemoveTaxRateAction.svg" xlink:actuate="onRequest" xlink:href="TaxCategoryRemoveTaxRateAction.svg" xlink:show="new" xlink:title="TaxCategoryRemoveTaxRateAction.svg" xlink:type="simple"><g id="elem_TaxCategoryRemoveTaxRateAction"><rect codeLine="10" fill="#F1F1F1" height="72.5938" id="TaxCategoryRemoveTaxRateAction" rx="2.5" ry="2.5" style="stroke:#181818;stroke-width:0.5;" width="279" x="12" y="88.2969"/><ellipse cx="27" cy="104.2969" fill="#B4A7E5" rx="11" ry="11" style="stroke:#181818;stroke-width:1.0;"/><path d="M22.9219,100.0625 L22.9219,97.9063 L30.3125,97.9063 L30.3125,100.0625 L27.8438,100.0625 L27.8438,108.1406 L30.3125,108.1406 L30.3125,110.2969 L22.9219,110.2969 L22.9219,108.1406 L25.3906,108.1406 L25.3906,100.0625 L22.9219,100.0625 Z " fill="#000000"/><text fill="#000000" font-family="sans-serif" font-size="14" font-style="italic" lengthAdjust="spacing" textLength="247" x="41" y="109.1436">TaxCategoryRemoveTaxRateAction</text><line style="stroke:#181818;stroke-width:0.5;" x1="13" x2="290" y1="120.2969" y2="120.2969"/><text fill="#000000" font-family="sans-serif" font-size="14" lengthAdjust="spacing" textLength="91" x="18" y="137.292">action: String</text><text fill="#000000" font-family="sans-serif" font-size="14" lengthAdjust="spacing" textLength="113" x="18" y="153.5889">taxRateId: String</text></g></a><!--MD5=[e834b387012959768cffa0ce2d94e378]
class TaxCategoryUpdateAction--><a href="TaxCategoryUpdateAction.svg" target="_top" title="TaxCategoryUpdateAction.svg" xlink:actuate="onRequest" xlink:href="TaxCategoryUpdateAction.svg" xlink:show="new" xlink:title="TaxCategoryUpdateAction.svg" xlink:type="simple"><g id="elem_TaxCategoryUpdateAction"><rect codeLine="14" fill="#F1F1F1" height="56.2969" id="TaxCategoryUpdateAction" rx="2.5" ry="2.5" style="stroke:#181818;stroke-width:0.5;" width="214" x="44.5" y="12"/><ellipse cx="59.5" cy="28" fill="#B4A7E5" rx="11" ry="11" style="stroke:#181818;stroke-width:1.0;"/><path d="M55.4219,23.7656 L55.4219,21.6094 L62.8125,21.6094 L62.8125,23.7656 L60.3438,23.7656 L60.3438,31.8438 L62.8125,31.8438 L62.8125,34 L55.4219,34 L55.4219,31.8438 L57.8906,31.8438 L57.8906,23.7656 L55.4219,23.7656 Z " fill="#000000"/><text fill="#000000" font-family="sans-serif" font-size="14" font-style="italic" lengthAdjust="spacing" textLength="182" x="73.5" y="32.8467">TaxCategoryUpdateAction</text><line style="stroke:#181818;stroke-width:0.5;" x1="45.5" x2="257.5" y1="44" y2="44"/><text fill="#000000" font-family="sans-serif" font-size="14" lengthAdjust="spacing" textLength="91" x="50.5" y="60.9951">action: String</text></g></a><line style="stroke:#181818;stroke-width:1.0;" x1="151.5" x2="151.5" y1="68.2969" y2="88.2969"/><polygon fill="#FFFFFF" points="151.5,68.2969,144.5,87.2969,158.5,87.2969,151.5,68.2969" style="stroke:#181818;stroke-width:1.0;"/><rect fill="#DDDDDD" height="79.1875" id="_legend" rx="7.5" ry="7.5" style="stroke:#000000;stroke-width:1.0;" width="161" x="59" y="161.8906"/><text fill="#000000" font-family="sans-serif" font-size="14" font-weight="bold" lengthAdjust="spacing" textLength="5" x="64" y="181.8857"> </text><text fill="#000000" font-family="sans-serif" font-size="14" font-weight="bold" lengthAdjust="spacing" textLength="28" x="81" y="181.8857">line</text><text fill="#000000" filter="url(#b1sk4n3x8b0pop0)" font-family="sans-serif" font-size="14" lengthAdjust="spacing" textLength="12" x="64" y="198.1826">   </text><text fill="#000000" font-family="sans-serif" font-size="14" lengthAdjust="spacing" textLength="77" x="80" y="198.1826">inheritance</text><text fill="#000000" filter="url(#b1sk4n3x8b0pop1)" font-family="sans-serif" font-size="14" lengthAdjust="spacing" textLength="12" x="64" y="214.4795">   </text><text fill="#000000" font-family="sans-serif" font-size="14" lengthAdjust="spacing" textLength="129" x="80" y="214.4795">property reference</text><text fill="#000000" filter="url(#b1sk4n3x8b0pop2)" font-family="sans-serif" font-size="14" lengthAdjust="spacing" textLength="12" x="64" y="230.7764">   </text><text fill="#000000" font-family="sans-serif" font-size="14" lengthAdjust="spacing" textLength="131" x="80" y="230.7764">discriminated class</text><line style="stroke:#000000;stroke-width:1.0;" x1="64" x2="215" y1="168.8906" y2="168.8906"/><line style="stroke:#000000;stroke-width:1.0;" x1="64" x2="215" y1="185.1875" y2="185.1875"/><line style="stroke:#000000;stroke-width:1.0;" x1="64" x2="215" y1="201.4844" y2="201.4844"/><line style="stroke:#000000;stroke-width:1.0;" x1="64" x2="215" y1="217.7813" y2="217.7813"/><line style="stroke:#000000;stroke-width:1.0;" x1="64" x2="215" y1="234.0781" y2="234.0781"/><line style="stroke:#000000;stroke-width:1.0;" x1="64" x2="64" y1="168.8906" y2="234.0781"/><line style="stroke:#000000;stroke-width:1.0;" x1="76" x2="76" y1="168.8906" y2="234.0781"/><line style="stroke:#000000;stroke-width:1.0;" x1="215" x2="215" y1="168.8906" y2="234.0781"/><!--MD5=[19c361bf9ca46c4d5323703f97f64230]
@startuml
!pragma layout elk
hide empty fields
hide empty methods
legend
|= |= line |
|<back:black>   </back>| inheritance |
|<back:green>   </back>| property reference |
|<back:blue>   </back>| discriminated class |
endlegend
interface TaxCategoryRemoveTaxRateAction [[TaxCategoryRemoveTaxRateAction.svg]] extends TaxCategoryUpdateAction {
    action: String
    taxRateId: String
}
interface TaxCategoryUpdateAction [[TaxCategoryUpdateAction.svg]]  {
    action: String
}





@enduml

PlantUML version 1.2022.13(Sat Nov 19 13:22:17 UTC 2022)
(GPL source distribution)
Java Runtime: OpenJDK Runtime Environment
JVM: OpenJDK 64-Bit Server VM
Default Encoding: UTF-8
Language: en
Country: null
--></g></svg>
