<?xml version="1.0" encoding="UTF-8" standalone="no"?><svg xmlns="http://www.w3.org/2000/svg" xmlns:xlink="http://www.w3.org/1999/xlink" contentStyleType="text/css" height="362px" preserveAspectRatio="none" style="width:1991px;height:362px;background:#FFFFFF;" version="1.1" viewBox="0 0 1991 362" width="1991px" zoomAndPan="magnify"><defs><filter height="1" id="bfmad91y1nenh0" width="1" x="0" y="0"><feFlood flood-color="#000000" result="flood"/><feComposite in="SourceGraphic" in2="flood" operator="over"/></filter><filter height="1" id="bfmad91y1nenh1" width="1" x="0" y="0"><feFlood flood-color="#008000" result="flood"/><feComposite in="SourceGraphic" in2="flood" operator="over"/></filter><filter height="1" id="bfmad91y1nenh2" width="1" x="0" y="0"><feFlood flood-color="#0000FF" result="flood"/><feComposite in="SourceGraphic" in2="flood" operator="over"/></filter></defs><g><!--MD5=[e834b387012959768cffa0ce2d94e378]
class TaxCategoryUpdateAction--><a href="TaxCategoryUpdateAction.svg" target="_top" title="TaxCategoryUpdateAction.svg" xlink:actuate="onRequest" xlink:href="TaxCategoryUpdateAction.svg" xlink:show="new" xlink:title="TaxCategoryUpdateAction.svg" xlink:type="simple"><g id="elem_TaxCategoryUpdateAction"><rect codeLine="10" fill="#F1F1F1" height="56.2969" id="TaxCategoryUpdateAction" rx="2.5" ry="2.5" style="stroke:#181818;stroke-width:0.5;" width="214" x="138.25" y="12"/><ellipse cx="153.25" cy="28" fill="#B4A7E5" rx="11" ry="11" style="stroke:#181818;stroke-width:1.0;"/><path d="M149.1719,23.7656 L149.1719,21.6094 L156.5625,21.6094 L156.5625,23.7656 L154.0938,23.7656 L154.0938,31.8438 L156.5625,31.8438 L156.5625,34 L149.1719,34 L149.1719,31.8438 L151.6406,31.8438 L151.6406,23.7656 L149.1719,23.7656 Z " fill="#000000"/><text fill="#000000" font-family="sans-serif" font-size="14" font-style="italic" lengthAdjust="spacing" textLength="182" x="167.25" y="32.8467">TaxCategoryUpdateAction</text><line style="stroke:#181818;stroke-width:0.5;" x1="139.25" x2="351.25" y1="44" y2="44"/><text fill="#000000" font-family="sans-serif" font-size="14" lengthAdjust="spacing" textLength="91" x="144.25" y="60.9951">action: String</text></g></a><!--MD5=[75dd66d29655901d5ab1f1ce77afbfe0]
class TaxCategoryAddTaxRateAction--><a href="TaxCategoryAddTaxRateAction.svg" target="_top" title="TaxCategoryAddTaxRateAction.svg" xlink:actuate="onRequest" xlink:href="TaxCategoryAddTaxRateAction.svg" xlink:show="new" xlink:title="TaxCategoryAddTaxRateAction.svg" xlink:type="simple"><g id="elem_TaxCategoryAddTaxRateAction"><rect codeLine="15" fill="#F1F1F1" height="72.5938" id="TaxCategoryAddTaxRateAction" rx="2.5" ry="2.5" style="stroke:#181818;stroke-width:0.5;" width="249" x="1456.5" y="173.4297"/><ellipse cx="1471.5" cy="189.4297" fill="#B4A7E5" rx="11" ry="11" style="stroke:#181818;stroke-width:1.0;"/><path d="M1467.4219,185.1953 L1467.4219,183.0391 L1474.8125,183.0391 L1474.8125,185.1953 L1472.3438,185.1953 L1472.3438,193.2734 L1474.8125,193.2734 L1474.8125,195.4297 L1467.4219,195.4297 L1467.4219,193.2734 L1469.8906,193.2734 L1469.8906,185.1953 L1467.4219,185.1953 Z " fill="#000000"/><text fill="#000000" font-family="sans-serif" font-size="14" font-style="italic" lengthAdjust="spacing" textLength="217" x="1485.5" y="194.2764">TaxCategoryAddTaxRateAction</text><line style="stroke:#181818;stroke-width:0.5;" x1="1457.5" x2="1704.5" y1="205.4297" y2="205.4297"/><text fill="#000000" font-family="sans-serif" font-size="14" lengthAdjust="spacing" textLength="91" x="1462.5" y="222.4248">action: String</text><text fill="#000000" font-family="sans-serif" font-size="14" lengthAdjust="spacing" textLength="57" x="1462.5" y="238.7217">taxRate:</text><a href="TaxRateDraft.svg" target="_top" title="TaxRateDraft.svg" xlink:actuate="onRequest" xlink:href="TaxRateDraft.svg" xlink:show="new" xlink:title="TaxRateDraft.svg" xlink:type="simple"><text fill="#0000FF" font-family="sans-serif" font-size="14" lengthAdjust="spacing" text-decoration="underline" textLength="89" x="1523.5" y="238.7217">TaxRateDraft</text></a></g></a><!--MD5=[747e790ae65250e5dc0c61399ee7b32d]
class TaxCategoryChangeNameAction--><a href="TaxCategoryChangeNameAction.svg" target="_top" title="TaxCategoryChangeNameAction.svg" xlink:actuate="onRequest" xlink:href="TaxCategoryChangeNameAction.svg" xlink:show="new" xlink:title="TaxCategoryChangeNameAction.svg" xlink:type="simple"><g id="elem_TaxCategoryChangeNameAction"><rect codeLine="19" fill="#F1F1F1" height="72.5938" id="TaxCategoryChangeNameAction" rx="2.5" ry="2.5" style="stroke:#181818;stroke-width:0.5;" width="259" x="1725.5" y="173.4297"/><ellipse cx="1740.5" cy="189.4297" fill="#B4A7E5" rx="11" ry="11" style="stroke:#181818;stroke-width:1.0;"/><path d="M1736.4219,185.1953 L1736.4219,183.0391 L1743.8125,183.0391 L1743.8125,185.1953 L1741.3438,185.1953 L1741.3438,193.2734 L1743.8125,193.2734 L1743.8125,195.4297 L1736.4219,195.4297 L1736.4219,193.2734 L1738.8906,193.2734 L1738.8906,185.1953 L1736.4219,185.1953 Z " fill="#000000"/><text fill="#000000" font-family="sans-serif" font-size="14" font-style="italic" lengthAdjust="spacing" textLength="227" x="1754.5" y="194.2764">TaxCategoryChangeNameAction</text><line style="stroke:#181818;stroke-width:0.5;" x1="1726.5" x2="1983.5" y1="205.4297" y2="205.4297"/><text fill="#000000" font-family="sans-serif" font-size="14" lengthAdjust="spacing" textLength="91" x="1731.5" y="222.4248">action: String</text><text fill="#000000" font-family="sans-serif" font-size="14" lengthAdjust="spacing" textLength="88" x="1731.5" y="238.7217">name: String</text></g></a><!--MD5=[d99623e8bc7f52c20742b86cf30431a0]
class TaxCategoryRemoveTaxRateAction--><a href="TaxCategoryRemoveTaxRateAction.svg" target="_top" title="TaxCategoryRemoveTaxRateAction.svg" xlink:actuate="onRequest" xlink:href="TaxCategoryRemoveTaxRateAction.svg" xlink:show="new" xlink:title="TaxCategoryRemoveTaxRateAction.svg" xlink:type="simple"><g id="elem_TaxCategoryRemoveTaxRateAction"><rect codeLine="23" fill="#F1F1F1" height="72.5938" id="TaxCategoryRemoveTaxRateAction" rx="2.5" ry="2.5" style="stroke:#181818;stroke-width:0.5;" width="279" x="25.5" y="173.4297"/><ellipse cx="40.5" cy="189.4297" fill="#B4A7E5" rx="11" ry="11" style="stroke:#181818;stroke-width:1.0;"/><path d="M36.4219,185.1953 L36.4219,183.0391 L43.8125,183.0391 L43.8125,185.1953 L41.3438,185.1953 L41.3438,193.2734 L43.8125,193.2734 L43.8125,195.4297 L36.4219,195.4297 L36.4219,193.2734 L38.8906,193.2734 L38.8906,185.1953 L36.4219,185.1953 Z " fill="#000000"/><text fill="#000000" font-family="sans-serif" font-size="14" font-style="italic" lengthAdjust="spacing" textLength="247" x="54.5" y="194.2764">TaxCategoryRemoveTaxRateAction</text><line style="stroke:#181818;stroke-width:0.5;" x1="26.5" x2="303.5" y1="205.4297" y2="205.4297"/><text fill="#000000" font-family="sans-serif" font-size="14" lengthAdjust="spacing" textLength="91" x="31.5" y="222.4248">action: String</text><text fill="#000000" font-family="sans-serif" font-size="14" lengthAdjust="spacing" textLength="113" x="31.5" y="238.7217">taxRateId: String</text></g></a><!--MD5=[6af61618dac10bc9c5872edaea7ab7ba]
class TaxCategoryReplaceTaxRateAction--><a href="TaxCategoryReplaceTaxRateAction.svg" target="_top" title="TaxCategoryReplaceTaxRateAction.svg" xlink:actuate="onRequest" xlink:href="TaxCategoryReplaceTaxRateAction.svg" xlink:show="new" xlink:title="TaxCategoryReplaceTaxRateAction.svg" xlink:type="simple"><g id="elem_TaxCategoryReplaceTaxRateAction"><rect codeLine="27" fill="#F1F1F1" height="88.8906" id="TaxCategoryReplaceTaxRateAction" rx="2.5" ry="2.5" style="stroke:#181818;stroke-width:0.5;" width="277" x="324.5" y="173.4297"/><ellipse cx="339.5" cy="189.4297" fill="#B4A7E5" rx="11" ry="11" style="stroke:#181818;stroke-width:1.0;"/><path d="M335.4219,185.1953 L335.4219,183.0391 L342.8125,183.0391 L342.8125,185.1953 L340.3438,185.1953 L340.3438,193.2734 L342.8125,193.2734 L342.8125,195.4297 L335.4219,195.4297 L335.4219,193.2734 L337.8906,193.2734 L337.8906,185.1953 L335.4219,185.1953 Z " fill="#000000"/><text fill="#000000" font-family="sans-serif" font-size="14" font-style="italic" lengthAdjust="spacing" textLength="245" x="353.5" y="194.2764">TaxCategoryReplaceTaxRateAction</text><line style="stroke:#181818;stroke-width:0.5;" x1="325.5" x2="600.5" y1="205.4297" y2="205.4297"/><text fill="#000000" font-family="sans-serif" font-size="14" lengthAdjust="spacing" textLength="91" x="330.5" y="222.4248">action: String</text><text fill="#000000" font-family="sans-serif" font-size="14" lengthAdjust="spacing" textLength="113" x="330.5" y="238.7217">taxRateId: String</text><text fill="#000000" font-family="sans-serif" font-size="14" lengthAdjust="spacing" textLength="57" x="330.5" y="255.0186">taxRate:</text><a href="TaxRateDraft.svg" target="_top" title="TaxRateDraft.svg" xlink:actuate="onRequest" xlink:href="TaxRateDraft.svg" xlink:show="new" xlink:title="TaxRateDraft.svg" xlink:type="simple"><text fill="#0000FF" font-family="sans-serif" font-size="14" lengthAdjust="spacing" text-decoration="underline" textLength="89" x="391.5" y="255.0186">TaxRateDraft</text></a></g></a><!--MD5=[347cbda77084a1ae2ce06e76d816e7f1]
class TaxCategorySetDescriptionAction--><a href="TaxCategorySetDescriptionAction.svg" target="_top" title="TaxCategorySetDescriptionAction.svg" xlink:actuate="onRequest" xlink:href="TaxCategorySetDescriptionAction.svg" xlink:show="new" xlink:title="TaxCategorySetDescriptionAction.svg" xlink:type="simple"><g id="elem_TaxCategorySetDescriptionAction"><rect codeLine="32" fill="#F1F1F1" height="72.5938" id="TaxCategorySetDescriptionAction" rx="2.5" ry="2.5" style="stroke:#181818;stroke-width:0.5;" width="265" x="938.5" y="173.4297"/><ellipse cx="953.5" cy="189.4297" fill="#B4A7E5" rx="11" ry="11" style="stroke:#181818;stroke-width:1.0;"/><path d="M949.4219,185.1953 L949.4219,183.0391 L956.8125,183.0391 L956.8125,185.1953 L954.3438,185.1953 L954.3438,193.2734 L956.8125,193.2734 L956.8125,195.4297 L949.4219,195.4297 L949.4219,193.2734 L951.8906,193.2734 L951.8906,185.1953 L949.4219,185.1953 Z " fill="#000000"/><text fill="#000000" font-family="sans-serif" font-size="14" font-style="italic" lengthAdjust="spacing" textLength="233" x="967.5" y="194.2764">TaxCategorySetDescriptionAction</text><line style="stroke:#181818;stroke-width:0.5;" x1="939.5" x2="1202.5" y1="205.4297" y2="205.4297"/><text fill="#000000" font-family="sans-serif" font-size="14" lengthAdjust="spacing" textLength="91" x="944.5" y="222.4248">action: String</text><text fill="#000000" font-family="sans-serif" font-size="14" lengthAdjust="spacing" textLength="126" x="944.5" y="238.7217">description: String</text></g></a><!--MD5=[e74d4d407d3462479f637011236d1a96]
class TaxCategorySetKeyAction--><a href="TaxCategorySetKeyAction.svg" target="_top" title="TaxCategorySetKeyAction.svg" xlink:actuate="onRequest" xlink:href="TaxCategorySetKeyAction.svg" xlink:show="new" xlink:title="TaxCategorySetKeyAction.svg" xlink:type="simple"><g id="elem_TaxCategorySetKeyAction"><rect codeLine="36" fill="#F1F1F1" height="72.5938" id="TaxCategorySetKeyAction" rx="2.5" ry="2.5" style="stroke:#181818;stroke-width:0.5;" width="213" x="1223.5" y="173.4297"/><ellipse cx="1238.5" cy="189.4297" fill="#B4A7E5" rx="11" ry="11" style="stroke:#181818;stroke-width:1.0;"/><path d="M1234.4219,185.1953 L1234.4219,183.0391 L1241.8125,183.0391 L1241.8125,185.1953 L1239.3438,185.1953 L1239.3438,193.2734 L1241.8125,193.2734 L1241.8125,195.4297 L1234.4219,195.4297 L1234.4219,193.2734 L1236.8906,193.2734 L1236.8906,185.1953 L1234.4219,185.1953 Z " fill="#000000"/><text fill="#000000" font-family="sans-serif" font-size="14" font-style="italic" lengthAdjust="spacing" textLength="181" x="1252.5" y="194.2764">TaxCategorySetKeyAction</text><line style="stroke:#181818;stroke-width:0.5;" x1="1224.5" x2="1435.5" y1="205.4297" y2="205.4297"/><text fill="#000000" font-family="sans-serif" font-size="14" lengthAdjust="spacing" textLength="91" x="1229.5" y="222.4248">action: String</text><text fill="#000000" font-family="sans-serif" font-size="14" lengthAdjust="spacing" textLength="73" x="1229.5" y="238.7217">key: String</text></g></a><!--MD5=[8a3c1177f8f70b591ddb8e963159198c]
class TaxCategoryUpdate--><a href="TaxCategoryUpdate.svg" target="_top" title="TaxCategoryUpdate.svg" xlink:actuate="onRequest" xlink:href="TaxCategoryUpdate.svg" xlink:show="new" xlink:title="TaxCategoryUpdate.svg" xlink:type="simple"><g id="elem_TaxCategoryUpdate"><rect codeLine="40" fill="#F1F1F1" height="72.5938" id="TaxCategoryUpdate" rx="2.5" ry="2.5" style="stroke:#181818;stroke-width:0.5;" width="297" x="621.5" y="173.4297"/><ellipse cx="696.75" cy="189.4297" fill="#B4A7E5" rx="11" ry="11" style="stroke:#181818;stroke-width:1.0;"/><path d="M692.6719,185.1953 L692.6719,183.0391 L700.0625,183.0391 L700.0625,185.1953 L697.5938,185.1953 L697.5938,193.2734 L700.0625,193.2734 L700.0625,195.4297 L692.6719,195.4297 L692.6719,193.2734 L695.1406,193.2734 L695.1406,185.1953 L692.6719,185.1953 Z " fill="#000000"/><text fill="#000000" font-family="sans-serif" font-size="14" font-style="italic" lengthAdjust="spacing" textLength="138" x="717.25" y="194.2764">TaxCategoryUpdate</text><line style="stroke:#181818;stroke-width:0.5;" x1="622.5" x2="917.5" y1="205.4297" y2="205.4297"/><text fill="#000000" font-family="sans-serif" font-size="14" lengthAdjust="spacing" textLength="93" x="627.5" y="222.4248">version: Long</text><text fill="#000000" font-family="sans-serif" font-size="14" lengthAdjust="spacing" textLength="55" x="627.5" y="238.7217">actions:</text><a href="TaxCategoryUpdateAction.svg" target="_top" title="TaxCategoryUpdateAction.svg" xlink:actuate="onRequest" xlink:href="TaxCategoryUpdateAction.svg" xlink:show="new" xlink:title="TaxCategoryUpdateAction.svg" xlink:type="simple"><text fill="#0000FF" font-family="sans-serif" font-size="14" lengthAdjust="spacing" text-decoration="underline" textLength="226" x="686.5" y="238.7217">List&lt;TaxCategoryUpdateAction&gt;</text></a></g></a><line style="stroke:#0000FF;stroke-width:1.0;" x1="298.75" x2="298.75" y1="68.2969" y2="88.2969"/><line style="stroke:#0000FF;stroke-width:1.0;" x1="298.75" x2="1581" y1="88.2969" y2="88.2969"/><line style="stroke:#0000FF;stroke-width:1.0;" x1="1581" x2="1581" y1="88.2969" y2="173.4297"/><polygon fill="#0000FF" points="1581,173.4297,1585,164.4297,1581,168.4297,1577,164.4297,1581,173.4297" style="stroke:#0000FF;stroke-width:1.0;"/><text fill="#000000" font-family="sans-serif" font-size="13" lengthAdjust="spacing" textLength="126" x="1453" y="150.3638">action : addTaxRate</text><line style="stroke:#0000FF;stroke-width:1.0;" x1="325.5" x2="325.5" y1="68.2969" y2="78.2969"/><line style="stroke:#0000FF;stroke-width:1.0;" x1="325.5" x2="1855" y1="78.2969" y2="78.2969"/><line style="stroke:#0000FF;stroke-width:1.0;" x1="1855" x2="1855" y1="78.2969" y2="173.4297"/><polygon fill="#0000FF" points="1855,173.4297,1859,164.4297,1855,168.4297,1851,164.4297,1855,173.4297" style="stroke:#0000FF;stroke-width:1.0;"/><text fill="#000000" font-family="sans-serif" font-size="13" lengthAdjust="spacing" textLength="137" x="1716" y="150.3638">action : changeName</text><line style="stroke:#0000FF;stroke-width:1.0;" x1="165" x2="165" y1="68.2969" y2="173.4297"/><polygon fill="#0000FF" points="165,173.4297,169,164.4297,165,168.4297,161,164.4297,165,173.4297" style="stroke:#0000FF;stroke-width:1.0;"/><text fill="#000000" font-family="sans-serif" font-size="13" lengthAdjust="spacing" textLength="151" x="12" y="150.3638">action : removeTaxRate</text><line style="stroke:#0000FF;stroke-width:1.0;" x1="191.75" x2="191.75" y1="68.2969" y2="128.2969"/><line style="stroke:#0000FF;stroke-width:1.0;" x1="191.75" x2="463" y1="128.2969" y2="128.2969"/><line style="stroke:#0000FF;stroke-width:1.0;" x1="463" x2="463" y1="128.2969" y2="173.4297"/><polygon fill="#0000FF" points="463,173.4297,467,164.4297,463,168.4297,459,164.4297,463,173.4297" style="stroke:#0000FF;stroke-width:1.0;"/><text fill="#000000" font-family="sans-serif" font-size="13" lengthAdjust="spacing" textLength="149" x="312" y="150.3638">action : replaceTaxRate</text><line style="stroke:#0000FF;stroke-width:1.0;" x1="245.25" x2="245.25" y1="68.2969" y2="108.2969"/><line style="stroke:#0000FF;stroke-width:1.0;" x1="245.25" x2="1071" y1="108.2969" y2="108.2969"/><line style="stroke:#0000FF;stroke-width:1.0;" x1="1071" x2="1071" y1="108.2969" y2="173.4297"/><polygon fill="#0000FF" points="1071,173.4297,1075,164.4297,1071,168.4297,1067,164.4297,1071,173.4297" style="stroke:#0000FF;stroke-width:1.0;"/><text fill="#000000" font-family="sans-serif" font-size="13" lengthAdjust="spacing" textLength="143" x="926" y="150.3638">action : setDescription</text><line style="stroke:#0000FF;stroke-width:1.0;" x1="272" x2="272" y1="68.2969" y2="98.2969"/><line style="stroke:#0000FF;stroke-width:1.0;" x1="272" x2="1330" y1="98.2969" y2="98.2969"/><line style="stroke:#0000FF;stroke-width:1.0;" x1="1330" x2="1330" y1="98.2969" y2="173.4297"/><polygon fill="#0000FF" points="1330,173.4297,1334,164.4297,1330,168.4297,1326,164.4297,1330,173.4297" style="stroke:#0000FF;stroke-width:1.0;"/><text fill="#000000" font-family="sans-serif" font-size="13" lengthAdjust="spacing" textLength="94" x="1234" y="150.3638">action : setKey</text><line style="stroke:#008000;stroke-width:1.0;" x1="218.5" x2="218.5" y1="68.2969" y2="118.2969"/><line style="stroke:#008000;stroke-width:1.0;" x1="218.5" x2="770" y1="118.2969" y2="118.2969"/><line style="stroke:#008000;stroke-width:1.0;" x1="770" x2="770" y1="118.2969" y2="173.4297"/><polygon fill="#008000" points="770,173.4297,774,164.4297,770,168.4297,766,164.4297,770,173.4297" style="stroke:#008000;stroke-width:1.0;"/><text fill="#000000" font-family="sans-serif" font-size="13" lengthAdjust="spacing" textLength="46" x="722" y="150.3638">actions</text><rect fill="#DDDDDD" height="79.1875" id="_legend" rx="7.5" ry="7.5" style="stroke:#000000;stroke-width:1.0;" width="161" x="905.25" y="263.3203"/><text fill="#000000" font-family="sans-serif" font-size="14" font-weight="bold" lengthAdjust="spacing" textLength="5" x="910.25" y="283.3154"> </text><text fill="#000000" font-family="sans-serif" font-size="14" font-weight="bold" lengthAdjust="spacing" textLength="28" x="927.25" y="283.3154">line</text><text fill="#000000" filter="url(#bfmad91y1nenh0)" font-family="sans-serif" font-size="14" lengthAdjust="spacing" textLength="12" x="910.25" y="299.6123">   </text><text fill="#000000" font-family="sans-serif" font-size="14" lengthAdjust="spacing" textLength="77" x="926.25" y="299.6123">inheritance</text><text fill="#000000" filter="url(#bfmad91y1nenh1)" font-family="sans-serif" font-size="14" lengthAdjust="spacing" textLength="12" x="910.25" y="315.9092">   </text><text fill="#000000" font-family="sans-serif" font-size="14" lengthAdjust="spacing" textLength="129" x="926.25" y="315.9092">property reference</text><text fill="#000000" filter="url(#bfmad91y1nenh2)" font-family="sans-serif" font-size="14" lengthAdjust="spacing" textLength="12" x="910.25" y="332.2061">   </text><text fill="#000000" font-family="sans-serif" font-size="14" lengthAdjust="spacing" textLength="131" x="926.25" y="332.2061">discriminated class</text><line style="stroke:#000000;stroke-width:1.0;" x1="910.25" x2="1061.25" y1="270.3203" y2="270.3203"/><line style="stroke:#000000;stroke-width:1.0;" x1="910.25" x2="1061.25" y1="286.6172" y2="286.6172"/><line style="stroke:#000000;stroke-width:1.0;" x1="910.25" x2="1061.25" y1="302.9141" y2="302.9141"/><line style="stroke:#000000;stroke-width:1.0;" x1="910.25" x2="1061.25" y1="319.2109" y2="319.2109"/><line style="stroke:#000000;stroke-width:1.0;" x1="910.25" x2="1061.25" y1="335.5078" y2="335.5078"/><line style="stroke:#000000;stroke-width:1.0;" x1="910.25" x2="910.25" y1="270.3203" y2="335.5078"/><line style="stroke:#000000;stroke-width:1.0;" x1="922.25" x2="922.25" y1="270.3203" y2="335.5078"/><line style="stroke:#000000;stroke-width:1.0;" x1="1061.25" x2="1061.25" y1="270.3203" y2="335.5078"/><!--MD5=[86f4f663ef58ae38454e7d23529ed057]
@startuml
!pragma layout elk
hide empty fields
hide empty methods
legend
|= |= line |
|<back:black>   </back>| inheritance |
|<back:green>   </back>| property reference |
|<back:blue>   </back>| discriminated class |
endlegend
interface TaxCategoryUpdateAction [[TaxCategoryUpdateAction.svg]]  {
    action: String
}


interface TaxCategoryAddTaxRateAction [[TaxCategoryAddTaxRateAction.svg]]  {
    action: String
    taxRate: [[TaxRateDraft.svg TaxRateDraft]]
}
interface TaxCategoryChangeNameAction [[TaxCategoryChangeNameAction.svg]]  {
    action: String
    name: String
}
interface TaxCategoryRemoveTaxRateAction [[TaxCategoryRemoveTaxRateAction.svg]]  {
    action: String
    taxRateId: String
}
interface TaxCategoryReplaceTaxRateAction [[TaxCategoryReplaceTaxRateAction.svg]]  {
    action: String
    taxRateId: String
    taxRate: [[TaxRateDraft.svg TaxRateDraft]]
}
interface TaxCategorySetDescriptionAction [[TaxCategorySetDescriptionAction.svg]]  {
    action: String
    description: String
}
interface TaxCategorySetKeyAction [[TaxCategorySetKeyAction.svg]]  {
    action: String
    key: String
}
interface TaxCategoryUpdate [[TaxCategoryUpdate.svg]]  {
    version: Long
    actions: [[TaxCategoryUpdateAction.svg List<TaxCategoryUpdateAction>]]
}
TaxCategoryUpdateAction - -> TaxCategoryAddTaxRateAction #blue;text:blue : "action : addTaxRate"
TaxCategoryUpdateAction - -> TaxCategoryChangeNameAction #blue;text:blue : "action : changeName"
TaxCategoryUpdateAction - -> TaxCategoryRemoveTaxRateAction #blue;text:blue : "action : removeTaxRate"
TaxCategoryUpdateAction - -> TaxCategoryReplaceTaxRateAction #blue;text:blue : "action : replaceTaxRate"
TaxCategoryUpdateAction - -> TaxCategorySetDescriptionAction #blue;text:blue : "action : setDescription"
TaxCategoryUpdateAction - -> TaxCategorySetKeyAction #blue;text:blue : "action : setKey"
TaxCategoryUpdateAction - -> TaxCategoryUpdate #green;text:green : "actions"
@enduml

PlantUML version 1.2022.13(Sat Nov 19 13:22:17 UTC 2022)
(GPL source distribution)
Java Runtime: OpenJDK Runtime Environment
JVM: OpenJDK 64-Bit Server VM
Default Encoding: UTF-8
Language: en
Country: null
--></g></svg>
