<?xml version="1.0" encoding="UTF-8" standalone="no"?><svg xmlns="http://www.w3.org/2000/svg" xmlns:xlink="http://www.w3.org/1999/xlink" contentStyleType="text/css" height="261px" preserveAspectRatio="none" style="width:210px;height:261px;background:#FFFFFF;" version="1.1" viewBox="0 0 210 261" width="210px" zoomAndPan="magnify"><defs><filter height="1" id="bsy289bi7shq10" width="1" x="0" y="0"><feFlood flood-color="#000000" result="flood"/><feComposite in="SourceGraphic" in2="flood" operator="over"/></filter><filter height="1" id="bsy289bi7shq11" width="1" x="0" y="0"><feFlood flood-color="#008000" result="flood"/><feComposite in="SourceGraphic" in2="flood" operator="over"/></filter><filter height="1" id="bsy289bi7shq12" width="1" x="0" y="0"><feFlood flood-color="#0000FF" result="flood"/><feComposite in="SourceGraphic" in2="flood" operator="over"/></filter></defs><g><!--MD5=[a1cd765865cab2cd0a38b528d92577ec]
class TypeChangeKeyAction--><a href="TypeChangeKeyAction.svg" target="_top" title="TypeChangeKeyAction.svg" xlink:actuate="onRequest" xlink:href="TypeChangeKeyAction.svg" xlink:show="new" xlink:title="TypeChangeKeyAction.svg" xlink:type="simple"><g id="elem_TypeChangeKeyAction"><rect codeLine="10" fill="#F1F1F1" height="72.5938" id="TypeChangeKeyAction" rx="2.5" ry="2.5" style="stroke:#181818;stroke-width:0.5;" width="191" x="12" y="88.2969"/><ellipse cx="27" cy="104.2969" fill="#B4A7E5" rx="11" ry="11" style="stroke:#181818;stroke-width:1.0;"/><path d="M22.9219,100.0625 L22.9219,97.9063 L30.3125,97.9063 L30.3125,100.0625 L27.8438,100.0625 L27.8438,108.1406 L30.3125,108.1406 L30.3125,110.2969 L22.9219,110.2969 L22.9219,108.1406 L25.3906,108.1406 L25.3906,100.0625 L22.9219,100.0625 Z " fill="#000000"/><text fill="#000000" font-family="sans-serif" font-size="14" font-style="italic" lengthAdjust="spacing" textLength="159" x="41" y="109.1436">TypeChangeKeyAction</text><line style="stroke:#181818;stroke-width:0.5;" x1="13" x2="202" y1="120.2969" y2="120.2969"/><text fill="#000000" font-family="sans-serif" font-size="14" lengthAdjust="spacing" textLength="91" x="18" y="137.292">action: String</text><text fill="#000000" font-family="sans-serif" font-size="14" lengthAdjust="spacing" textLength="73" x="18" y="153.5889">key: String</text></g></a><!--MD5=[b2c292a676bcd45128fce310561a6427]
class TypeUpdateAction--><a href="TypeUpdateAction.svg" target="_top" title="TypeUpdateAction.svg" xlink:actuate="onRequest" xlink:href="TypeUpdateAction.svg" xlink:show="new" xlink:title="TypeUpdateAction.svg" xlink:type="simple"><g id="elem_TypeUpdateAction"><rect codeLine="14" fill="#F1F1F1" height="56.2969" id="TypeUpdateAction" rx="2.5" ry="2.5" style="stroke:#181818;stroke-width:0.5;" width="161" x="27" y="12"/><ellipse cx="42" cy="28" fill="#B4A7E5" rx="11" ry="11" style="stroke:#181818;stroke-width:1.0;"/><path d="M37.9219,23.7656 L37.9219,21.6094 L45.3125,21.6094 L45.3125,23.7656 L42.8438,23.7656 L42.8438,31.8438 L45.3125,31.8438 L45.3125,34 L37.9219,34 L37.9219,31.8438 L40.3906,31.8438 L40.3906,23.7656 L37.9219,23.7656 Z " fill="#000000"/><text fill="#000000" font-family="sans-serif" font-size="14" font-style="italic" lengthAdjust="spacing" textLength="129" x="56" y="32.8467">TypeUpdateAction</text><line style="stroke:#181818;stroke-width:0.5;" x1="28" x2="187" y1="44" y2="44"/><text fill="#000000" font-family="sans-serif" font-size="14" lengthAdjust="spacing" textLength="91" x="33" y="60.9951">action: String</text></g></a><line style="stroke:#181818;stroke-width:1.0;" x1="107.5" x2="107.5" y1="68.2969" y2="88.2969"/><polygon fill="#FFFFFF" points="107.5,68.2969,100.5,87.2969,114.5,87.2969,107.5,68.2969" style="stroke:#181818;stroke-width:1.0;"/><rect fill="#DDDDDD" height="79.1875" id="_legend" rx="7.5" ry="7.5" style="stroke:#000000;stroke-width:1.0;" width="161" x="15" y="161.8906"/><text fill="#000000" font-family="sans-serif" font-size="14" font-weight="bold" lengthAdjust="spacing" textLength="5" x="20" y="181.8857"> </text><text fill="#000000" font-family="sans-serif" font-size="14" font-weight="bold" lengthAdjust="spacing" textLength="28" x="37" y="181.8857">line</text><text fill="#000000" filter="url(#bsy289bi7shq10)" font-family="sans-serif" font-size="14" lengthAdjust="spacing" textLength="12" x="20" y="198.1826">   </text><text fill="#000000" font-family="sans-serif" font-size="14" lengthAdjust="spacing" textLength="77" x="36" y="198.1826">inheritance</text><text fill="#000000" filter="url(#bsy289bi7shq11)" font-family="sans-serif" font-size="14" lengthAdjust="spacing" textLength="12" x="20" y="214.4795">   </text><text fill="#000000" font-family="sans-serif" font-size="14" lengthAdjust="spacing" textLength="129" x="36" y="214.4795">property reference</text><text fill="#000000" filter="url(#bsy289bi7shq12)" font-family="sans-serif" font-size="14" lengthAdjust="spacing" textLength="12" x="20" y="230.7764">   </text><text fill="#000000" font-family="sans-serif" font-size="14" lengthAdjust="spacing" textLength="131" x="36" y="230.7764">discriminated class</text><line style="stroke:#000000;stroke-width:1.0;" x1="20" x2="171" y1="168.8906" y2="168.8906"/><line style="stroke:#000000;stroke-width:1.0;" x1="20" x2="171" y1="185.1875" y2="185.1875"/><line style="stroke:#000000;stroke-width:1.0;" x1="20" x2="171" y1="201.4844" y2="201.4844"/><line style="stroke:#000000;stroke-width:1.0;" x1="20" x2="171" y1="217.7813" y2="217.7813"/><line style="stroke:#000000;stroke-width:1.0;" x1="20" x2="171" y1="234.0781" y2="234.0781"/><line style="stroke:#000000;stroke-width:1.0;" x1="20" x2="20" y1="168.8906" y2="234.0781"/><line style="stroke:#000000;stroke-width:1.0;" x1="32" x2="32" y1="168.8906" y2="234.0781"/><line style="stroke:#000000;stroke-width:1.0;" x1="171" x2="171" y1="168.8906" y2="234.0781"/><!--MD5=[f9b5fc13a9a4fddb1195814c4f8fa0bb]
@startuml
!pragma layout elk
hide empty fields
hide empty methods
legend
|= |= line |
|<back:black>   </back>| inheritance |
|<back:green>   </back>| property reference |
|<back:blue>   </back>| discriminated class |
endlegend
interface TypeChangeKeyAction [[TypeChangeKeyAction.svg]] extends TypeUpdateAction {
    action: String
    key: String
}
interface TypeUpdateAction [[TypeUpdateAction.svg]]  {
    action: String
}





@enduml

PlantUML version 1.2022.13(Sat Nov 19 13:22:17 UTC 2022)
(GPL source distribution)
Java Runtime: OpenJDK Runtime Environment
JVM: OpenJDK 64-Bit Server VM
Default Encoding: UTF-8
Language: en
Country: null
--></g></svg>
