<?xml version="1.0" encoding="UTF-8" standalone="no"?><svg xmlns="http://www.w3.org/2000/svg" xmlns:xlink="http://www.w3.org/1999/xlink" contentStyleType="text/css" height="452px" preserveAspectRatio="none" style="width:4534px;height:452px;background:#FFFFFF;" version="1.1" viewBox="0 0 4534 452" width="4534px" zoomAndPan="magnify"><defs><filter height="1" id="b1o2mf4d0c0hrc0" width="1" x="0" y="0"><feFlood flood-color="#000000" result="flood"/><feComposite in="SourceGraphic" in2="flood" operator="over"/></filter><filter height="1" id="b1o2mf4d0c0hrc1" width="1" x="0" y="0"><feFlood flood-color="#008000" result="flood"/><feComposite in="SourceGraphic" in2="flood" operator="over"/></filter><filter height="1" id="b1o2mf4d0c0hrc2" width="1" x="0" y="0"><feFlood flood-color="#0000FF" result="flood"/><feComposite in="SourceGraphic" in2="flood" operator="over"/></filter></defs><g><!--MD5=[b2c292a676bcd45128fce310561a6427]
class TypeUpdateAction--><a href="TypeUpdateAction.svg" target="_top" title="TypeUpdateAction.svg" xlink:actuate="onRequest" xlink:href="TypeUpdateAction.svg" xlink:show="new" xlink:title="TypeUpdateAction.svg" xlink:type="simple"><g id="elem_TypeUpdateAction"><rect codeLine="10" fill="#F1F1F1" height="56.2969" id="TypeUpdateAction" rx="2.5" ry="2.5" style="stroke:#181818;stroke-width:0.5;" width="161" x="211.5294" y="12"/><ellipse cx="226.5294" cy="28" fill="#B4A7E5" rx="11" ry="11" style="stroke:#181818;stroke-width:1.0;"/><path d="M222.4513,23.7656 L222.4513,21.6094 L229.8419,21.6094 L229.8419,23.7656 L227.3732,23.7656 L227.3732,31.8438 L229.8419,31.8438 L229.8419,34 L222.4513,34 L222.4513,31.8438 L224.92,31.8438 L224.92,23.7656 L222.4513,23.7656 Z " fill="#000000"/><text fill="#000000" font-family="sans-serif" font-size="14" font-style="italic" lengthAdjust="spacing" textLength="129" x="240.5294" y="32.8467">TypeUpdateAction</text><line style="stroke:#181818;stroke-width:0.5;" x1="212.5294" x2="371.5294" y1="44" y2="44"/><text fill="#000000" font-family="sans-serif" font-size="14" lengthAdjust="spacing" textLength="91" x="217.5294" y="60.9951">action: String</text></g></a><!--MD5=[39f12453892cfa3c4c21d8f5916d7f2a]
class TypeAddEnumValueAction--><a href="TypeAddEnumValueAction.svg" target="_top" title="TypeAddEnumValueAction.svg" xlink:actuate="onRequest" xlink:href="TypeAddEnumValueAction.svg" xlink:show="new" xlink:title="TypeAddEnumValueAction.svg" xlink:type="simple"><g id="elem_TypeAddEnumValueAction"><rect codeLine="15" fill="#F1F1F1" height="88.8906" id="TypeAddEnumValueAction" rx="2.5" ry="2.5" style="stroke:#181818;stroke-width:0.5;" width="221" x="4050.5" y="263.4297"/><ellipse cx="4066.85" cy="279.4297" fill="#B4A7E5" rx="11" ry="11" style="stroke:#181818;stroke-width:1.0;"/><path d="M4062.7719,275.1953 L4062.7719,273.0391 L4070.1625,273.0391 L4070.1625,275.1953 L4067.6938,275.1953 L4067.6938,283.2734 L4070.1625,283.2734 L4070.1625,285.4297 L4062.7719,285.4297 L4062.7719,283.2734 L4065.2406,283.2734 L4065.2406,275.1953 L4062.7719,275.1953 Z " fill="#000000"/><text fill="#000000" font-family="sans-serif" font-size="14" font-style="italic" lengthAdjust="spacing" textLength="186" x="4081.15" y="284.2764">TypeAddEnumValueAction</text><line style="stroke:#181818;stroke-width:0.5;" x1="4051.5" x2="4270.5" y1="295.4297" y2="295.4297"/><text fill="#000000" font-family="sans-serif" font-size="14" lengthAdjust="spacing" textLength="91" x="4056.5" y="312.4248">action: String</text><text fill="#000000" font-family="sans-serif" font-size="14" lengthAdjust="spacing" textLength="117" x="4056.5" y="328.7217">fieldName: String</text><text fill="#000000" font-family="sans-serif" font-size="14" lengthAdjust="spacing" textLength="41" x="4056.5" y="345.0186">value:</text><a href="CustomFieldEnumValue.svg" target="_top" title="CustomFieldEnumValue.svg" xlink:actuate="onRequest" xlink:href="CustomFieldEnumValue.svg" xlink:show="new" xlink:title="CustomFieldEnumValue.svg" xlink:type="simple"><text fill="#0000FF" font-family="sans-serif" font-size="14" lengthAdjust="spacing" text-decoration="underline" textLength="164" x="4101.5" y="345.0186">CustomFieldEnumValue</text></a></g></a><!--MD5=[06f8b84483c742aebf0072c615374918]
class TypeAddFieldDefinitionAction--><a href="TypeAddFieldDefinitionAction.svg" target="_top" title="TypeAddFieldDefinitionAction.svg" xlink:actuate="onRequest" xlink:href="TypeAddFieldDefinitionAction.svg" xlink:show="new" xlink:title="TypeAddFieldDefinitionAction.svg" xlink:type="simple"><g id="elem_TypeAddFieldDefinitionAction"><rect codeLine="20" fill="#F1F1F1" height="72.5938" id="TypeAddFieldDefinitionAction" rx="2.5" ry="2.5" style="stroke:#181818;stroke-width:0.5;" width="236" x="4291.5" y="263.4297"/><ellipse cx="4306.5" cy="279.4297" fill="#B4A7E5" rx="11" ry="11" style="stroke:#181818;stroke-width:1.0;"/><path d="M4302.4219,275.1953 L4302.4219,273.0391 L4309.8125,273.0391 L4309.8125,275.1953 L4307.3438,275.1953 L4307.3438,283.2734 L4309.8125,283.2734 L4309.8125,285.4297 L4302.4219,285.4297 L4302.4219,283.2734 L4304.8906,283.2734 L4304.8906,275.1953 L4302.4219,275.1953 Z " fill="#000000"/><text fill="#000000" font-family="sans-serif" font-size="14" font-style="italic" lengthAdjust="spacing" textLength="204" x="4320.5" y="284.2764">TypeAddFieldDefinitionAction</text><line style="stroke:#181818;stroke-width:0.5;" x1="4292.5" x2="4526.5" y1="295.4297" y2="295.4297"/><text fill="#000000" font-family="sans-serif" font-size="14" lengthAdjust="spacing" textLength="91" x="4297.5" y="312.4248">action: String</text><text fill="#000000" font-family="sans-serif" font-size="14" lengthAdjust="spacing" textLength="98" x="4297.5" y="328.7217">fieldDefinition:</text><a href="FieldDefinition.svg" target="_top" title="FieldDefinition.svg" xlink:actuate="onRequest" xlink:href="FieldDefinition.svg" xlink:show="new" xlink:title="FieldDefinition.svg" xlink:type="simple"><text fill="#0000FF" font-family="sans-serif" font-size="14" lengthAdjust="spacing" text-decoration="underline" textLength="97" x="4399.5" y="328.7217">FieldDefinition</text></a></g></a><!--MD5=[d90f5bb5d0013a9f881c9b716e461518]
class TypeAddLocalizedEnumValueAction--><a href="TypeAddLocalizedEnumValueAction.svg" target="_top" title="TypeAddLocalizedEnumValueAction.svg" xlink:actuate="onRequest" xlink:href="TypeAddLocalizedEnumValueAction.svg" xlink:show="new" xlink:title="TypeAddLocalizedEnumValueAction.svg" xlink:type="simple"><g id="elem_TypeAddLocalizedEnumValueAction"><rect codeLine="24" fill="#F1F1F1" height="88.8906" id="TypeAddLocalizedEnumValueAction" rx="2.5" ry="2.5" style="stroke:#181818;stroke-width:0.5;" width="285" x="78.5" y="263.4297"/><ellipse cx="94.85" cy="279.4297" fill="#B4A7E5" rx="11" ry="11" style="stroke:#181818;stroke-width:1.0;"/><path d="M90.7719,275.1953 L90.7719,273.0391 L98.1625,273.0391 L98.1625,275.1953 L95.6938,275.1953 L95.6938,283.2734 L98.1625,283.2734 L98.1625,285.4297 L90.7719,285.4297 L90.7719,283.2734 L93.2406,283.2734 L93.2406,275.1953 L90.7719,275.1953 Z " fill="#000000"/><text fill="#000000" font-family="sans-serif" font-size="14" font-style="italic" lengthAdjust="spacing" textLength="250" x="109.15" y="284.2764">TypeAddLocalizedEnumValueAction</text><line style="stroke:#181818;stroke-width:0.5;" x1="79.5" x2="362.5" y1="295.4297" y2="295.4297"/><text fill="#000000" font-family="sans-serif" font-size="14" lengthAdjust="spacing" textLength="91" x="84.5" y="312.4248">action: String</text><text fill="#000000" font-family="sans-serif" font-size="14" lengthAdjust="spacing" textLength="117" x="84.5" y="328.7217">fieldName: String</text><text fill="#000000" font-family="sans-serif" font-size="14" lengthAdjust="spacing" textLength="41" x="84.5" y="345.0186">value:</text><a href="CustomFieldLocalizedEnumValue.svg" target="_top" title="CustomFieldLocalizedEnumValue.svg" xlink:actuate="onRequest" xlink:href="CustomFieldLocalizedEnumValue.svg" xlink:show="new" xlink:title="CustomFieldLocalizedEnumValue.svg" xlink:type="simple"><text fill="#0000FF" font-family="sans-serif" font-size="14" lengthAdjust="spacing" text-decoration="underline" textLength="228" x="129.5" y="345.0186">CustomFieldLocalizedEnumValue</text></a></g></a><!--MD5=[13272a4210d3143b4fcd07a8ca276c94]
class TypeChangeEnumValueLabelAction--><a href="TypeChangeEnumValueLabelAction.svg" target="_top" title="TypeChangeEnumValueLabelAction.svg" xlink:actuate="onRequest" xlink:href="TypeChangeEnumValueLabelAction.svg" xlink:show="new" xlink:title="TypeChangeEnumValueLabelAction.svg" xlink:type="simple"><g id="elem_TypeChangeEnumValueLabelAction"><rect codeLine="29" fill="#F1F1F1" height="88.8906" id="TypeChangeEnumValueLabelAction" rx="2.5" ry="2.5" style="stroke:#181818;stroke-width:0.5;" width="281" x="1219.5" y="263.4297"/><ellipse cx="1234.5" cy="279.4297" fill="#B4A7E5" rx="11" ry="11" style="stroke:#181818;stroke-width:1.0;"/><path d="M1230.4219,275.1953 L1230.4219,273.0391 L1237.8125,273.0391 L1237.8125,275.1953 L1235.3438,275.1953 L1235.3438,283.2734 L1237.8125,283.2734 L1237.8125,285.4297 L1230.4219,285.4297 L1230.4219,283.2734 L1232.8906,283.2734 L1232.8906,275.1953 L1230.4219,275.1953 Z " fill="#000000"/><text fill="#000000" font-family="sans-serif" font-size="14" font-style="italic" lengthAdjust="spacing" textLength="249" x="1248.5" y="284.2764">TypeChangeEnumValueLabelAction</text><line style="stroke:#181818;stroke-width:0.5;" x1="1220.5" x2="1499.5" y1="295.4297" y2="295.4297"/><text fill="#000000" font-family="sans-serif" font-size="14" lengthAdjust="spacing" textLength="91" x="1225.5" y="312.4248">action: String</text><text fill="#000000" font-family="sans-serif" font-size="14" lengthAdjust="spacing" textLength="117" x="1225.5" y="328.7217">fieldName: String</text><text fill="#000000" font-family="sans-serif" font-size="14" lengthAdjust="spacing" textLength="41" x="1225.5" y="345.0186">value:</text><a href="CustomFieldEnumValue.svg" target="_top" title="CustomFieldEnumValue.svg" xlink:actuate="onRequest" xlink:href="CustomFieldEnumValue.svg" xlink:show="new" xlink:title="CustomFieldEnumValue.svg" xlink:type="simple"><text fill="#0000FF" font-family="sans-serif" font-size="14" lengthAdjust="spacing" text-decoration="underline" textLength="164" x="1270.5" y="345.0186">CustomFieldEnumValue</text></a></g></a><!--MD5=[864038a5fbea475f093faf6bdf4453a7]
class TypeChangeEnumValueOrderAction--><a href="TypeChangeEnumValueOrderAction.svg" target="_top" title="TypeChangeEnumValueOrderAction.svg" xlink:actuate="onRequest" xlink:href="TypeChangeEnumValueOrderAction.svg" xlink:show="new" xlink:title="TypeChangeEnumValueOrderAction.svg" xlink:type="simple"><g id="elem_TypeChangeEnumValueOrderAction"><rect codeLine="34" fill="#F1F1F1" height="88.8906" id="TypeChangeEnumValueOrderAction" rx="2.5" ry="2.5" style="stroke:#181818;stroke-width:0.5;" width="283" x="2931.5" y="263.4297"/><ellipse cx="2946.5" cy="279.4297" fill="#B4A7E5" rx="11" ry="11" style="stroke:#181818;stroke-width:1.0;"/><path d="M2942.4219,275.1953 L2942.4219,273.0391 L2949.8125,273.0391 L2949.8125,275.1953 L2947.3438,275.1953 L2947.3438,283.2734 L2949.8125,283.2734 L2949.8125,285.4297 L2942.4219,285.4297 L2942.4219,283.2734 L2944.8906,283.2734 L2944.8906,275.1953 L2942.4219,275.1953 Z " fill="#000000"/><text fill="#000000" font-family="sans-serif" font-size="14" font-style="italic" lengthAdjust="spacing" textLength="251" x="2960.5" y="284.2764">TypeChangeEnumValueOrderAction</text><line style="stroke:#181818;stroke-width:0.5;" x1="2932.5" x2="3213.5" y1="295.4297" y2="295.4297"/><text fill="#000000" font-family="sans-serif" font-size="14" lengthAdjust="spacing" textLength="91" x="2937.5" y="312.4248">action: String</text><text fill="#000000" font-family="sans-serif" font-size="14" lengthAdjust="spacing" textLength="117" x="2937.5" y="328.7217">fieldName: String</text><text fill="#000000" font-family="sans-serif" font-size="14" lengthAdjust="spacing" textLength="37" x="2937.5" y="345.0186">keys:</text><a href="String.svg" target="_top" title="String.svg" xlink:actuate="onRequest" xlink:href="String.svg" xlink:show="new" xlink:title="String.svg" xlink:type="simple"><text fill="#0000FF" font-family="sans-serif" font-size="14" lengthAdjust="spacing" text-decoration="underline" textLength="87" x="2978.5" y="345.0186">List&lt;String&gt;</text></a></g></a><!--MD5=[a055c2c3086d5758073cc30e2c0c21f8]
class TypeChangeFieldDefinitionLabelAction--><a href="TypeChangeFieldDefinitionLabelAction.svg" target="_top" title="TypeChangeFieldDefinitionLabelAction.svg" xlink:actuate="onRequest" xlink:href="TypeChangeFieldDefinitionLabelAction.svg" xlink:show="new" xlink:title="TypeChangeFieldDefinitionLabelAction.svg" xlink:type="simple"><g id="elem_TypeChangeFieldDefinitionLabelAction"><rect codeLine="39" fill="#F1F1F1" height="88.8906" id="TypeChangeFieldDefinitionLabelAction" rx="2.5" ry="2.5" style="stroke:#181818;stroke-width:0.5;" width="299" x="3234.5" y="263.4297"/><ellipse cx="3249.5" cy="279.4297" fill="#B4A7E5" rx="11" ry="11" style="stroke:#181818;stroke-width:1.0;"/><path d="M3245.4219,275.1953 L3245.4219,273.0391 L3252.8125,273.0391 L3252.8125,275.1953 L3250.3438,275.1953 L3250.3438,283.2734 L3252.8125,283.2734 L3252.8125,285.4297 L3245.4219,285.4297 L3245.4219,283.2734 L3247.8906,283.2734 L3247.8906,275.1953 L3245.4219,275.1953 Z " fill="#000000"/><text fill="#000000" font-family="sans-serif" font-size="14" font-style="italic" lengthAdjust="spacing" textLength="267" x="3263.5" y="284.2764">TypeChangeFieldDefinitionLabelAction</text><line style="stroke:#181818;stroke-width:0.5;" x1="3235.5" x2="3532.5" y1="295.4297" y2="295.4297"/><text fill="#000000" font-family="sans-serif" font-size="14" lengthAdjust="spacing" textLength="91" x="3240.5" y="312.4248">action: String</text><text fill="#000000" font-family="sans-serif" font-size="14" lengthAdjust="spacing" textLength="117" x="3240.5" y="328.7217">fieldName: String</text><text fill="#000000" font-family="sans-serif" font-size="14" lengthAdjust="spacing" textLength="37" x="3240.5" y="345.0186">label:</text><a href="LocalizedString.svg" target="_top" title="LocalizedString.svg" xlink:actuate="onRequest" xlink:href="LocalizedString.svg" xlink:show="new" xlink:title="LocalizedString.svg" xlink:type="simple"><text fill="#0000FF" font-family="sans-serif" font-size="14" lengthAdjust="spacing" text-decoration="underline" textLength="104" x="3281.5" y="345.0186">LocalizedString</text></a></g></a><!--MD5=[6257f10d06b9a44ef63fec2e708bc48b]
class TypeChangeFieldDefinitionOrderAction--><a href="TypeChangeFieldDefinitionOrderAction.svg" target="_top" title="TypeChangeFieldDefinitionOrderAction.svg" xlink:actuate="onRequest" xlink:href="TypeChangeFieldDefinitionOrderAction.svg" xlink:show="new" xlink:title="TypeChangeFieldDefinitionOrderAction.svg" xlink:type="simple"><g id="elem_TypeChangeFieldDefinitionOrderAction"><rect codeLine="44" fill="#F1F1F1" height="72.5938" id="TypeChangeFieldDefinitionOrderAction" rx="2.5" ry="2.5" style="stroke:#181818;stroke-width:0.5;" width="301" x="2610.5" y="263.4297"/><ellipse cx="2625.5" cy="279.4297" fill="#B4A7E5" rx="11" ry="11" style="stroke:#181818;stroke-width:1.0;"/><path d="M2621.4219,275.1953 L2621.4219,273.0391 L2628.8125,273.0391 L2628.8125,275.1953 L2626.3438,275.1953 L2626.3438,283.2734 L2628.8125,283.2734 L2628.8125,285.4297 L2621.4219,285.4297 L2621.4219,283.2734 L2623.8906,283.2734 L2623.8906,275.1953 L2621.4219,275.1953 Z " fill="#000000"/><text fill="#000000" font-family="sans-serif" font-size="14" font-style="italic" lengthAdjust="spacing" textLength="269" x="2639.5" y="284.2764">TypeChangeFieldDefinitionOrderAction</text><line style="stroke:#181818;stroke-width:0.5;" x1="2611.5" x2="2910.5" y1="295.4297" y2="295.4297"/><text fill="#000000" font-family="sans-serif" font-size="14" lengthAdjust="spacing" textLength="91" x="2616.5" y="312.4248">action: String</text><text fill="#000000" font-family="sans-serif" font-size="14" lengthAdjust="spacing" textLength="81" x="2616.5" y="328.7217">fieldNames:</text><a href="String.svg" target="_top" title="String.svg" xlink:actuate="onRequest" xlink:href="String.svg" xlink:show="new" xlink:title="String.svg" xlink:type="simple"><text fill="#0000FF" font-family="sans-serif" font-size="14" lengthAdjust="spacing" text-decoration="underline" textLength="87" x="2701.5" y="328.7217">List&lt;String&gt;</text></a></g></a><!--MD5=[4d4dbdd79a203103162920348e4aa017]
class TypeChangeInputHintAction--><a href="TypeChangeInputHintAction.svg" target="_top" title="TypeChangeInputHintAction.svg" xlink:actuate="onRequest" xlink:href="TypeChangeInputHintAction.svg" xlink:show="new" xlink:title="TypeChangeInputHintAction.svg" xlink:type="simple"><g id="elem_TypeChangeInputHintAction"><rect codeLine="48" fill="#F1F1F1" height="88.8906" id="TypeChangeInputHintAction" rx="2.5" ry="2.5" style="stroke:#181818;stroke-width:0.5;" width="229" x="748.5" y="263.4297"/><ellipse cx="763.5" cy="279.4297" fill="#B4A7E5" rx="11" ry="11" style="stroke:#181818;stroke-width:1.0;"/><path d="M759.4219,275.1953 L759.4219,273.0391 L766.8125,273.0391 L766.8125,275.1953 L764.3438,275.1953 L764.3438,283.2734 L766.8125,283.2734 L766.8125,285.4297 L759.4219,285.4297 L759.4219,283.2734 L761.8906,283.2734 L761.8906,275.1953 L759.4219,275.1953 Z " fill="#000000"/><text fill="#000000" font-family="sans-serif" font-size="14" font-style="italic" lengthAdjust="spacing" textLength="197" x="777.5" y="284.2764">TypeChangeInputHintAction</text><line style="stroke:#181818;stroke-width:0.5;" x1="749.5" x2="976.5" y1="295.4297" y2="295.4297"/><text fill="#000000" font-family="sans-serif" font-size="14" lengthAdjust="spacing" textLength="91" x="754.5" y="312.4248">action: String</text><text fill="#000000" font-family="sans-serif" font-size="14" lengthAdjust="spacing" textLength="117" x="754.5" y="328.7217">fieldName: String</text><text fill="#000000" font-family="sans-serif" font-size="14" lengthAdjust="spacing" textLength="67" x="754.5" y="345.0186">inputHint:</text><a href="TypeTextInputHint.svg" target="_top" title="TypeTextInputHint.svg" xlink:actuate="onRequest" xlink:href="TypeTextInputHint.svg" xlink:show="new" xlink:title="TypeTextInputHint.svg" xlink:type="simple"><text fill="#0000FF" font-family="sans-serif" font-size="14" lengthAdjust="spacing" text-decoration="underline" textLength="126" x="825.5" y="345.0186">TypeTextInputHint</text></a></g></a><!--MD5=[a1cd765865cab2cd0a38b528d92577ec]
class TypeChangeKeyAction--><a href="TypeChangeKeyAction.svg" target="_top" title="TypeChangeKeyAction.svg" xlink:actuate="onRequest" xlink:href="TypeChangeKeyAction.svg" xlink:show="new" xlink:title="TypeChangeKeyAction.svg" xlink:type="simple"><g id="elem_TypeChangeKeyAction"><rect codeLine="53" fill="#F1F1F1" height="72.5938" id="TypeChangeKeyAction" rx="2.5" ry="2.5" style="stroke:#181818;stroke-width:0.5;" width="191" x="1746.5" y="263.4297"/><ellipse cx="1761.5" cy="279.4297" fill="#B4A7E5" rx="11" ry="11" style="stroke:#181818;stroke-width:1.0;"/><path d="M1757.4219,275.1953 L1757.4219,273.0391 L1764.8125,273.0391 L1764.8125,275.1953 L1762.3438,275.1953 L1762.3438,283.2734 L1764.8125,283.2734 L1764.8125,285.4297 L1757.4219,285.4297 L1757.4219,283.2734 L1759.8906,283.2734 L1759.8906,275.1953 L1757.4219,275.1953 Z " fill="#000000"/><text fill="#000000" font-family="sans-serif" font-size="14" font-style="italic" lengthAdjust="spacing" textLength="159" x="1775.5" y="284.2764">TypeChangeKeyAction</text><line style="stroke:#181818;stroke-width:0.5;" x1="1747.5" x2="1936.5" y1="295.4297" y2="295.4297"/><text fill="#000000" font-family="sans-serif" font-size="14" lengthAdjust="spacing" textLength="91" x="1752.5" y="312.4248">action: String</text><text fill="#000000" font-family="sans-serif" font-size="14" lengthAdjust="spacing" textLength="73" x="1752.5" y="328.7217">key: String</text></g></a><!--MD5=[93bd8a8df36dcbad70c95785efbe9ae2]
class TypeChangeLabelAction--><a href="TypeChangeLabelAction.svg" target="_top" title="TypeChangeLabelAction.svg" xlink:actuate="onRequest" xlink:href="TypeChangeLabelAction.svg" xlink:show="new" xlink:title="TypeChangeLabelAction.svg" xlink:type="simple"><g id="elem_TypeChangeLabelAction"><rect codeLine="57" fill="#F1F1F1" height="88.8906" id="TypeChangeLabelAction" rx="2.5" ry="2.5" style="stroke:#181818;stroke-width:0.5;" width="202" x="997.5" y="263.4297"/><ellipse cx="1012.5" cy="279.4297" fill="#B4A7E5" rx="11" ry="11" style="stroke:#181818;stroke-width:1.0;"/><path d="M1008.4219,275.1953 L1008.4219,273.0391 L1015.8125,273.0391 L1015.8125,275.1953 L1013.3438,275.1953 L1013.3438,283.2734 L1015.8125,283.2734 L1015.8125,285.4297 L1008.4219,285.4297 L1008.4219,283.2734 L1010.8906,283.2734 L1010.8906,275.1953 L1008.4219,275.1953 Z " fill="#000000"/><text fill="#000000" font-family="sans-serif" font-size="14" font-style="italic" lengthAdjust="spacing" textLength="170" x="1026.5" y="284.2764">TypeChangeLabelAction</text><line style="stroke:#181818;stroke-width:0.5;" x1="998.5" x2="1198.5" y1="295.4297" y2="295.4297"/><text fill="#000000" font-family="sans-serif" font-size="14" lengthAdjust="spacing" textLength="91" x="1003.5" y="312.4248">action: String</text><text fill="#000000" font-family="sans-serif" font-size="14" lengthAdjust="spacing" textLength="117" x="1003.5" y="328.7217">fieldName: String</text><text fill="#000000" font-family="sans-serif" font-size="14" lengthAdjust="spacing" textLength="37" x="1003.5" y="345.0186">label:</text><a href="LocalizedString.svg" target="_top" title="LocalizedString.svg" xlink:actuate="onRequest" xlink:href="LocalizedString.svg" xlink:show="new" xlink:title="LocalizedString.svg" xlink:type="simple"><text fill="#0000FF" font-family="sans-serif" font-size="14" lengthAdjust="spacing" text-decoration="underline" textLength="104" x="1044.5" y="345.0186">LocalizedString</text></a></g></a><!--MD5=[eb3d46cda660fc1f91712aab3973d27f]
class TypeChangeLocalizedEnumValueLabelAction--><a href="TypeChangeLocalizedEnumValueLabelAction.svg" target="_top" title="TypeChangeLocalizedEnumValueLabelAction.svg" xlink:actuate="onRequest" xlink:href="TypeChangeLocalizedEnumValueLabelAction.svg" xlink:show="new" xlink:title="TypeChangeLocalizedEnumValueLabelAction.svg" xlink:type="simple"><g id="elem_TypeChangeLocalizedEnumValueLabelAction"><rect codeLine="62" fill="#F1F1F1" height="88.8906" id="TypeChangeLocalizedEnumValueLabelAction" rx="2.5" ry="2.5" style="stroke:#181818;stroke-width:0.5;" width="345" x="383.5" y="263.4297"/><ellipse cx="398.5" cy="279.4297" fill="#B4A7E5" rx="11" ry="11" style="stroke:#181818;stroke-width:1.0;"/><path d="M394.4219,275.1953 L394.4219,273.0391 L401.8125,273.0391 L401.8125,275.1953 L399.3438,275.1953 L399.3438,283.2734 L401.8125,283.2734 L401.8125,285.4297 L394.4219,285.4297 L394.4219,283.2734 L396.8906,283.2734 L396.8906,275.1953 L394.4219,275.1953 Z " fill="#000000"/><text fill="#000000" font-family="sans-serif" font-size="14" font-style="italic" lengthAdjust="spacing" textLength="313" x="412.5" y="284.2764">TypeChangeLocalizedEnumValueLabelAction</text><line style="stroke:#181818;stroke-width:0.5;" x1="384.5" x2="727.5" y1="295.4297" y2="295.4297"/><text fill="#000000" font-family="sans-serif" font-size="14" lengthAdjust="spacing" textLength="91" x="389.5" y="312.4248">action: String</text><text fill="#000000" font-family="sans-serif" font-size="14" lengthAdjust="spacing" textLength="117" x="389.5" y="328.7217">fieldName: String</text><text fill="#000000" font-family="sans-serif" font-size="14" lengthAdjust="spacing" textLength="41" x="389.5" y="345.0186">value:</text><a href="CustomFieldLocalizedEnumValue.svg" target="_top" title="CustomFieldLocalizedEnumValue.svg" xlink:actuate="onRequest" xlink:href="CustomFieldLocalizedEnumValue.svg" xlink:show="new" xlink:title="CustomFieldLocalizedEnumValue.svg" xlink:type="simple"><text fill="#0000FF" font-family="sans-serif" font-size="14" lengthAdjust="spacing" text-decoration="underline" textLength="228" x="434.5" y="345.0186">CustomFieldLocalizedEnumValue</text></a></g></a><!--MD5=[c92225779d4b2b6104bc320ea55fa16d]
class TypeChangeLocalizedEnumValueOrderAction--><a href="TypeChangeLocalizedEnumValueOrderAction.svg" target="_top" title="TypeChangeLocalizedEnumValueOrderAction.svg" xlink:actuate="onRequest" xlink:href="TypeChangeLocalizedEnumValueOrderAction.svg" xlink:show="new" xlink:title="TypeChangeLocalizedEnumValueOrderAction.svg" xlink:type="simple"><g id="elem_TypeChangeLocalizedEnumValueOrderAction"><rect codeLine="67" fill="#F1F1F1" height="88.8906" id="TypeChangeLocalizedEnumValueOrderAction" rx="2.5" ry="2.5" style="stroke:#181818;stroke-width:0.5;" width="347" x="2243.5" y="263.4297"/><ellipse cx="2258.5" cy="279.4297" fill="#B4A7E5" rx="11" ry="11" style="stroke:#181818;stroke-width:1.0;"/><path d="M2254.4219,275.1953 L2254.4219,273.0391 L2261.8125,273.0391 L2261.8125,275.1953 L2259.3438,275.1953 L2259.3438,283.2734 L2261.8125,283.2734 L2261.8125,285.4297 L2254.4219,285.4297 L2254.4219,283.2734 L2256.8906,283.2734 L2256.8906,275.1953 L2254.4219,275.1953 Z " fill="#000000"/><text fill="#000000" font-family="sans-serif" font-size="14" font-style="italic" lengthAdjust="spacing" textLength="315" x="2272.5" y="284.2764">TypeChangeLocalizedEnumValueOrderAction</text><line style="stroke:#181818;stroke-width:0.5;" x1="2244.5" x2="2589.5" y1="295.4297" y2="295.4297"/><text fill="#000000" font-family="sans-serif" font-size="14" lengthAdjust="spacing" textLength="91" x="2249.5" y="312.4248">action: String</text><text fill="#000000" font-family="sans-serif" font-size="14" lengthAdjust="spacing" textLength="117" x="2249.5" y="328.7217">fieldName: String</text><text fill="#000000" font-family="sans-serif" font-size="14" lengthAdjust="spacing" textLength="37" x="2249.5" y="345.0186">keys:</text><a href="String.svg" target="_top" title="String.svg" xlink:actuate="onRequest" xlink:href="String.svg" xlink:show="new" xlink:title="String.svg" xlink:type="simple"><text fill="#0000FF" font-family="sans-serif" font-size="14" lengthAdjust="spacing" text-decoration="underline" textLength="87" x="2290.5" y="345.0186">List&lt;String&gt;</text></a></g></a><!--MD5=[7a2345fee298bc208ac4be280c1727a5]
class TypeChangeNameAction--><a href="TypeChangeNameAction.svg" target="_top" title="TypeChangeNameAction.svg" xlink:actuate="onRequest" xlink:href="TypeChangeNameAction.svg" xlink:show="new" xlink:title="TypeChangeNameAction.svg" xlink:type="simple"><g id="elem_TypeChangeNameAction"><rect codeLine="72" fill="#F1F1F1" height="72.5938" id="TypeChangeNameAction" rx="2.5" ry="2.5" style="stroke:#181818;stroke-width:0.5;" width="206" x="1520.5" y="263.4297"/><ellipse cx="1535.5" cy="279.4297" fill="#B4A7E5" rx="11" ry="11" style="stroke:#181818;stroke-width:1.0;"/><path d="M1531.4219,275.1953 L1531.4219,273.0391 L1538.8125,273.0391 L1538.8125,275.1953 L1536.3438,275.1953 L1536.3438,283.2734 L1538.8125,283.2734 L1538.8125,285.4297 L1531.4219,285.4297 L1531.4219,283.2734 L1533.8906,283.2734 L1533.8906,275.1953 L1531.4219,275.1953 Z " fill="#000000"/><text fill="#000000" font-family="sans-serif" font-size="14" font-style="italic" lengthAdjust="spacing" textLength="174" x="1549.5" y="284.2764">TypeChangeNameAction</text><line style="stroke:#181818;stroke-width:0.5;" x1="1521.5" x2="1725.5" y1="295.4297" y2="295.4297"/><text fill="#000000" font-family="sans-serif" font-size="14" lengthAdjust="spacing" textLength="91" x="1526.5" y="312.4248">action: String</text><text fill="#000000" font-family="sans-serif" font-size="14" lengthAdjust="spacing" textLength="44" x="1526.5" y="328.7217">name:</text><a href="LocalizedString.svg" target="_top" title="LocalizedString.svg" xlink:actuate="onRequest" xlink:href="LocalizedString.svg" xlink:show="new" xlink:title="LocalizedString.svg" xlink:type="simple"><text fill="#0000FF" font-family="sans-serif" font-size="14" lengthAdjust="spacing" text-decoration="underline" textLength="104" x="1574.5" y="328.7217">LocalizedString</text></a></g></a><!--MD5=[f51bc0ece067e6d5ea6b0c57d9664134]
class TypeRemoveFieldDefinitionAction--><a href="TypeRemoveFieldDefinitionAction.svg" target="_top" title="TypeRemoveFieldDefinitionAction.svg" xlink:actuate="onRequest" xlink:href="TypeRemoveFieldDefinitionAction.svg" xlink:show="new" xlink:title="TypeRemoveFieldDefinitionAction.svg" xlink:type="simple"><g id="elem_TypeRemoveFieldDefinitionAction"><rect codeLine="76" fill="#F1F1F1" height="72.5938" id="TypeRemoveFieldDefinitionAction" rx="2.5" ry="2.5" style="stroke:#181818;stroke-width:0.5;" width="266" x="1957.5" y="263.4297"/><ellipse cx="1972.5" cy="279.4297" fill="#B4A7E5" rx="11" ry="11" style="stroke:#181818;stroke-width:1.0;"/><path d="M1968.4219,275.1953 L1968.4219,273.0391 L1975.8125,273.0391 L1975.8125,275.1953 L1973.3438,275.1953 L1973.3438,283.2734 L1975.8125,283.2734 L1975.8125,285.4297 L1968.4219,285.4297 L1968.4219,283.2734 L1970.8906,283.2734 L1970.8906,275.1953 L1968.4219,275.1953 Z " fill="#000000"/><text fill="#000000" font-family="sans-serif" font-size="14" font-style="italic" lengthAdjust="spacing" textLength="234" x="1986.5" y="284.2764">TypeRemoveFieldDefinitionAction</text><line style="stroke:#181818;stroke-width:0.5;" x1="1958.5" x2="2222.5" y1="295.4297" y2="295.4297"/><text fill="#000000" font-family="sans-serif" font-size="14" lengthAdjust="spacing" textLength="91" x="1963.5" y="312.4248">action: String</text><text fill="#000000" font-family="sans-serif" font-size="14" lengthAdjust="spacing" textLength="117" x="1963.5" y="328.7217">fieldName: String</text></g></a><!--MD5=[5c5f4f6615a722bc347b1e77b49fe66f]
class TypeSetDescriptionAction--><a href="TypeSetDescriptionAction.svg" target="_top" title="TypeSetDescriptionAction.svg" xlink:actuate="onRequest" xlink:href="TypeSetDescriptionAction.svg" xlink:show="new" xlink:title="TypeSetDescriptionAction.svg" xlink:type="simple"><g id="elem_TypeSetDescriptionAction"><rect codeLine="80" fill="#F1F1F1" height="72.5938" id="TypeSetDescriptionAction" rx="2.5" ry="2.5" style="stroke:#181818;stroke-width:0.5;" width="212" x="3553.5" y="263.4297"/><ellipse cx="3568.5" cy="279.4297" fill="#B4A7E5" rx="11" ry="11" style="stroke:#181818;stroke-width:1.0;"/><path d="M3564.4219,275.1953 L3564.4219,273.0391 L3571.8125,273.0391 L3571.8125,275.1953 L3569.3438,275.1953 L3569.3438,283.2734 L3571.8125,283.2734 L3571.8125,285.4297 L3564.4219,285.4297 L3564.4219,283.2734 L3566.8906,283.2734 L3566.8906,275.1953 L3564.4219,275.1953 Z " fill="#000000"/><text fill="#000000" font-family="sans-serif" font-size="14" font-style="italic" lengthAdjust="spacing" textLength="180" x="3582.5" y="284.2764">TypeSetDescriptionAction</text><line style="stroke:#181818;stroke-width:0.5;" x1="3554.5" x2="3764.5" y1="295.4297" y2="295.4297"/><text fill="#000000" font-family="sans-serif" font-size="14" lengthAdjust="spacing" textLength="91" x="3559.5" y="312.4248">action: String</text><text fill="#000000" font-family="sans-serif" font-size="14" lengthAdjust="spacing" textLength="82" x="3559.5" y="328.7217">description:</text><a href="LocalizedString.svg" target="_top" title="LocalizedString.svg" xlink:actuate="onRequest" xlink:href="LocalizedString.svg" xlink:show="new" xlink:title="LocalizedString.svg" xlink:type="simple"><text fill="#0000FF" font-family="sans-serif" font-size="14" lengthAdjust="spacing" text-decoration="underline" textLength="104" x="3645.5" y="328.7217">LocalizedString</text></a></g></a><!--MD5=[62d9b29982dea474f75fb2119b9c74fb]
class TypeUpdate--><a href="TypeUpdate.svg" target="_top" title="TypeUpdate.svg" xlink:actuate="onRequest" xlink:href="TypeUpdate.svg" xlink:show="new" xlink:title="TypeUpdate.svg" xlink:type="simple"><g id="elem_TypeUpdate"><rect codeLine="84" fill="#F1F1F1" height="72.5938" id="TypeUpdate" rx="2.5" ry="2.5" style="stroke:#181818;stroke-width:0.5;" width="245" x="3785.5" y="263.4297"/><ellipse cx="3861.25" cy="279.4297" fill="#B4A7E5" rx="11" ry="11" style="stroke:#181818;stroke-width:1.0;"/><path d="M3857.1719,275.1953 L3857.1719,273.0391 L3864.5625,273.0391 L3864.5625,275.1953 L3862.0938,275.1953 L3862.0938,283.2734 L3864.5625,283.2734 L3864.5625,285.4297 L3857.1719,285.4297 L3857.1719,283.2734 L3859.6406,283.2734 L3859.6406,275.1953 L3857.1719,275.1953 Z " fill="#000000"/><text fill="#000000" font-family="sans-serif" font-size="14" font-style="italic" lengthAdjust="spacing" textLength="85" x="3881.75" y="284.2764">TypeUpdate</text><line style="stroke:#181818;stroke-width:0.5;" x1="3786.5" x2="4029.5" y1="295.4297" y2="295.4297"/><text fill="#000000" font-family="sans-serif" font-size="14" lengthAdjust="spacing" textLength="93" x="3791.5" y="312.4248">version: Long</text><text fill="#000000" font-family="sans-serif" font-size="14" lengthAdjust="spacing" textLength="55" x="3791.5" y="328.7217">actions:</text><a href="TypeUpdateAction.svg" target="_top" title="TypeUpdateAction.svg" xlink:actuate="onRequest" xlink:href="TypeUpdateAction.svg" xlink:show="new" xlink:title="TypeUpdateAction.svg" xlink:type="simple"><text fill="#0000FF" font-family="sans-serif" font-size="14" lengthAdjust="spacing" text-decoration="underline" textLength="174" x="3850.5" y="328.7217">List&lt;TypeUpdateAction&gt;</text></a></g></a><line style="stroke:#0000FF;stroke-width:1.0;" x1="353.5882" x2="353.5882" y1="68.2969" y2="88.2969"/><line style="stroke:#0000FF;stroke-width:1.0;" x1="353.5882" x2="4161" y1="88.2969" y2="88.2969"/><line style="stroke:#0000FF;stroke-width:1.0;" x1="4161" x2="4161" y1="88.2969" y2="263.4297"/><polygon fill="#0000FF" points="4161,263.4297,4165,254.4297,4161,258.4297,4157,254.4297,4161,263.4297" style="stroke:#0000FF;stroke-width:1.0;"/><text fill="#000000" font-family="sans-serif" font-size="13" lengthAdjust="spacing" textLength="148" x="4011" y="240.3638">action : addEnumValue</text><line style="stroke:#0000FF;stroke-width:1.0;" x1="363.0588" x2="363.0588" y1="68.2969" y2="78.2969"/><line style="stroke:#0000FF;stroke-width:1.0;" x1="363.0588" x2="4409.5" y1="78.2969" y2="78.2969"/><line style="stroke:#0000FF;stroke-width:1.0;" x1="4409.5" x2="4409.5" y1="78.2969" y2="263.4297"/><polygon fill="#0000FF" points="4409.5,263.4297,4413.5,254.4297,4409.5,258.4297,4405.5,254.4297,4409.5,263.4297" style="stroke:#0000FF;stroke-width:1.0;"/><text fill="#000000" font-family="sans-serif" font-size="13" lengthAdjust="spacing" textLength="164" x="4243.5" y="240.3638">action : addFieldDefinition</text><line style="stroke:#0000FF;stroke-width:1.0;" x1="221" x2="221" y1="68.2969" y2="263.4297"/><polygon fill="#0000FF" points="221,263.4297,225,254.4297,221,258.4297,217,254.4297,221,263.4297" style="stroke:#0000FF;stroke-width:1.0;"/><text fill="#000000" font-family="sans-serif" font-size="13" lengthAdjust="spacing" textLength="207" x="12" y="240.3638">action : addLocalizedEnumValue</text><line style="stroke:#0000FF;stroke-width:1.0;" x1="258.8824" x2="258.8824" y1="68.2969" y2="188.2969"/><line style="stroke:#0000FF;stroke-width:1.0;" x1="258.8824" x2="1360" y1="188.2969" y2="188.2969"/><line style="stroke:#0000FF;stroke-width:1.0;" x1="1360" x2="1360" y1="188.2969" y2="263.4297"/><polygon fill="#0000FF" points="1360,263.4297,1364,254.4297,1360,258.4297,1356,254.4297,1360,263.4297" style="stroke:#0000FF;stroke-width:1.0;"/><text fill="#000000" font-family="sans-serif" font-size="13" lengthAdjust="spacing" textLength="205" x="1153" y="240.3638">action : changeEnumValueLabel</text><line style="stroke:#0000FF;stroke-width:1.0;" x1="315.7059" x2="315.7059" y1="68.2969" y2="128.2969"/><line style="stroke:#0000FF;stroke-width:1.0;" x1="315.7059" x2="3073" y1="128.2969" y2="128.2969"/><line style="stroke:#0000FF;stroke-width:1.0;" x1="3073" x2="3073" y1="128.2969" y2="263.4297"/><polygon fill="#0000FF" points="3073,263.4297,3077,254.4297,3073,258.4297,3069,254.4297,3073,263.4297" style="stroke:#0000FF;stroke-width:1.0;"/><text fill="#000000" font-family="sans-serif" font-size="13" lengthAdjust="spacing" textLength="207" x="2864" y="240.3638">action : changeEnumValueOrder</text><line style="stroke:#0000FF;stroke-width:1.0;" x1="325.1765" x2="325.1765" y1="68.2969" y2="118.2969"/><line style="stroke:#0000FF;stroke-width:1.0;" x1="325.1765" x2="3384" y1="118.2969" y2="118.2969"/><line style="stroke:#0000FF;stroke-width:1.0;" x1="3384" x2="3384" y1="118.2969" y2="263.4297"/><polygon fill="#0000FF" points="3384,263.4297,3388,254.4297,3384,258.4297,3380,254.4297,3384,263.4297" style="stroke:#0000FF;stroke-width:1.0;"/><text fill="#000000" font-family="sans-serif" font-size="13" lengthAdjust="spacing" textLength="221" x="3161" y="240.3638">action : changeFieldDefinitionLabel</text><line style="stroke:#0000FF;stroke-width:1.0;" x1="306.2353" x2="306.2353" y1="68.2969" y2="138.2969"/><line style="stroke:#0000FF;stroke-width:1.0;" x1="306.2353" x2="2761" y1="138.2969" y2="138.2969"/><line style="stroke:#0000FF;stroke-width:1.0;" x1="2761" x2="2761" y1="138.2969" y2="263.4297"/><polygon fill="#0000FF" points="2761,263.4297,2765,254.4297,2761,258.4297,2757,254.4297,2761,263.4297" style="stroke:#0000FF;stroke-width:1.0;"/><text fill="#000000" font-family="sans-serif" font-size="13" lengthAdjust="spacing" textLength="223" x="2536" y="240.3638">action : changeFieldDefinitionOrder</text><line style="stroke:#0000FF;stroke-width:1.0;" x1="239.9412" x2="239.9412" y1="68.2969" y2="208.2969"/><line style="stroke:#0000FF;stroke-width:1.0;" x1="239.9412" x2="863" y1="208.2969" y2="208.2969"/><line style="stroke:#0000FF;stroke-width:1.0;" x1="863" x2="863" y1="208.2969" y2="263.4297"/><polygon fill="#0000FF" points="863,263.4297,867,254.4297,863,258.4297,859,254.4297,863,263.4297" style="stroke:#0000FF;stroke-width:1.0;"/><text fill="#000000" font-family="sans-serif" font-size="13" lengthAdjust="spacing" textLength="156" x="705" y="240.3638">action : changeInputHint</text><line style="stroke:#0000FF;stroke-width:1.0;" x1="277.8235" x2="277.8235" y1="68.2969" y2="168.2969"/><line style="stroke:#0000FF;stroke-width:1.0;" x1="277.8235" x2="1842" y1="168.2969" y2="168.2969"/><line style="stroke:#0000FF;stroke-width:1.0;" x1="1842" x2="1842" y1="168.2969" y2="263.4297"/><polygon fill="#0000FF" points="1842,263.4297,1846,254.4297,1842,258.4297,1838,254.4297,1842,263.4297" style="stroke:#0000FF;stroke-width:1.0;"/><text fill="#000000" font-family="sans-serif" font-size="13" lengthAdjust="spacing" textLength="121" x="1719" y="240.3638">action : changeKey</text><line style="stroke:#0000FF;stroke-width:1.0;" x1="249.4118" x2="249.4118" y1="68.2969" y2="198.2969"/><line style="stroke:#0000FF;stroke-width:1.0;" x1="249.4118" x2="1098.5" y1="198.2969" y2="198.2969"/><line style="stroke:#0000FF;stroke-width:1.0;" x1="1098.5" x2="1098.5" y1="198.2969" y2="263.4297"/><polygon fill="#0000FF" points="1098.5,263.4297,1102.5,254.4297,1098.5,258.4297,1094.5,254.4297,1098.5,263.4297" style="stroke:#0000FF;stroke-width:1.0;"/><text fill="#000000" font-family="sans-serif" font-size="13" lengthAdjust="spacing" textLength="132" x="964.5" y="240.3638">action : changeLabel</text><line style="stroke:#0000FF;stroke-width:1.0;" x1="230.4706" x2="230.4706" y1="68.2969" y2="218.2969"/><line style="stroke:#0000FF;stroke-width:1.0;" x1="230.4706" x2="556" y1="218.2969" y2="218.2969"/><line style="stroke:#0000FF;stroke-width:1.0;" x1="556" x2="556" y1="218.2969" y2="263.4297"/><polygon fill="#0000FF" points="556,263.4297,560,254.4297,556,258.4297,552,254.4297,556,263.4297" style="stroke:#0000FF;stroke-width:1.0;"/><text fill="#000000" font-family="sans-serif" font-size="13" lengthAdjust="spacing" textLength="264" x="290" y="240.3638">action : changeLocalizedEnumValueLabel</text><line style="stroke:#0000FF;stroke-width:1.0;" x1="296.7647" x2="296.7647" y1="68.2969" y2="148.2969"/><line style="stroke:#0000FF;stroke-width:1.0;" x1="296.7647" x2="2417" y1="148.2969" y2="148.2969"/><line style="stroke:#0000FF;stroke-width:1.0;" x1="2417" x2="2417" y1="148.2969" y2="263.4297"/><polygon fill="#0000FF" points="2417,263.4297,2421,254.4297,2417,258.4297,2413,254.4297,2417,263.4297" style="stroke:#0000FF;stroke-width:1.0;"/><text fill="#000000" font-family="sans-serif" font-size="13" lengthAdjust="spacing" textLength="266" x="2149" y="240.3638">action : changeLocalizedEnumValueOrder</text><line style="stroke:#0000FF;stroke-width:1.0;" x1="268.3529" x2="268.3529" y1="68.2969" y2="178.2969"/><line style="stroke:#0000FF;stroke-width:1.0;" x1="268.3529" x2="1623.5" y1="178.2969" y2="178.2969"/><line style="stroke:#0000FF;stroke-width:1.0;" x1="1623.5" x2="1623.5" y1="178.2969" y2="263.4297"/><polygon fill="#0000FF" points="1623.5,263.4297,1627.5,254.4297,1623.5,258.4297,1619.5,254.4297,1623.5,263.4297" style="stroke:#0000FF;stroke-width:1.0;"/><text fill="#000000" font-family="sans-serif" font-size="13" lengthAdjust="spacing" textLength="137" x="1484.5" y="240.3638">action : changeName</text><line style="stroke:#0000FF;stroke-width:1.0;" x1="287.2941" x2="287.2941" y1="68.2969" y2="158.2969"/><line style="stroke:#0000FF;stroke-width:1.0;" x1="287.2941" x2="2090.5" y1="158.2969" y2="158.2969"/><line style="stroke:#0000FF;stroke-width:1.0;" x1="2090.5" x2="2090.5" y1="158.2969" y2="263.4297"/><polygon fill="#0000FF" points="2090.5,263.4297,2094.5,254.4297,2090.5,258.4297,2086.5,254.4297,2090.5,263.4297" style="stroke:#0000FF;stroke-width:1.0;"/><text fill="#000000" font-family="sans-serif" font-size="13" lengthAdjust="spacing" textLength="189" x="1899.5" y="240.3638">action : removeFieldDefinition</text><line style="stroke:#0000FF;stroke-width:1.0;" x1="334.6471" x2="334.6471" y1="68.2969" y2="108.2969"/><line style="stroke:#0000FF;stroke-width:1.0;" x1="334.6471" x2="3659.5" y1="108.2969" y2="108.2969"/><line style="stroke:#0000FF;stroke-width:1.0;" x1="3659.5" x2="3659.5" y1="108.2969" y2="263.4297"/><polygon fill="#0000FF" points="3659.5,263.4297,3663.5,254.4297,3659.5,258.4297,3655.5,254.4297,3659.5,263.4297" style="stroke:#0000FF;stroke-width:1.0;"/><text fill="#000000" font-family="sans-serif" font-size="13" lengthAdjust="spacing" textLength="143" x="3514.5" y="240.3638">action : setDescription</text><line style="stroke:#008000;stroke-width:1.0;" x1="344.1176" x2="344.1176" y1="68.2969" y2="98.2969"/><line style="stroke:#008000;stroke-width:1.0;" x1="344.1176" x2="3908" y1="98.2969" y2="98.2969"/><line style="stroke:#008000;stroke-width:1.0;" x1="3908" x2="3908" y1="98.2969" y2="263.4297"/><polygon fill="#008000" points="3908,263.4297,3912,254.4297,3908,258.4297,3904,254.4297,3908,263.4297" style="stroke:#008000;stroke-width:1.0;"/><text fill="#000000" font-family="sans-serif" font-size="13" lengthAdjust="spacing" textLength="46" x="3860" y="240.3638">actions</text><rect fill="#DDDDDD" height="79.1875" id="_legend" rx="7.5" ry="7.5" style="stroke:#000000;stroke-width:1.0;" width="161" x="2176.75" y="353.3203"/><text fill="#000000" font-family="sans-serif" font-size="14" font-weight="bold" lengthAdjust="spacing" textLength="5" x="2181.75" y="373.3154"> </text><text fill="#000000" font-family="sans-serif" font-size="14" font-weight="bold" lengthAdjust="spacing" textLength="28" x="2198.75" y="373.3154">line</text><text fill="#000000" filter="url(#b1o2mf4d0c0hrc0)" font-family="sans-serif" font-size="14" lengthAdjust="spacing" textLength="12" x="2181.75" y="389.6123">   </text><text fill="#000000" font-family="sans-serif" font-size="14" lengthAdjust="spacing" textLength="77" x="2197.75" y="389.6123">inheritance</text><text fill="#000000" filter="url(#b1o2mf4d0c0hrc1)" font-family="sans-serif" font-size="14" lengthAdjust="spacing" textLength="12" x="2181.75" y="405.9092">   </text><text fill="#000000" font-family="sans-serif" font-size="14" lengthAdjust="spacing" textLength="129" x="2197.75" y="405.9092">property reference</text><text fill="#000000" filter="url(#b1o2mf4d0c0hrc2)" font-family="sans-serif" font-size="14" lengthAdjust="spacing" textLength="12" x="2181.75" y="422.2061">   </text><text fill="#000000" font-family="sans-serif" font-size="14" lengthAdjust="spacing" textLength="131" x="2197.75" y="422.2061">discriminated class</text><line style="stroke:#000000;stroke-width:1.0;" x1="2181.75" x2="2332.75" y1="360.3203" y2="360.3203"/><line style="stroke:#000000;stroke-width:1.0;" x1="2181.75" x2="2332.75" y1="376.6172" y2="376.6172"/><line style="stroke:#000000;stroke-width:1.0;" x1="2181.75" x2="2332.75" y1="392.9141" y2="392.9141"/><line style="stroke:#000000;stroke-width:1.0;" x1="2181.75" x2="2332.75" y1="409.2109" y2="409.2109"/><line style="stroke:#000000;stroke-width:1.0;" x1="2181.75" x2="2332.75" y1="425.5078" y2="425.5078"/><line style="stroke:#000000;stroke-width:1.0;" x1="2181.75" x2="2181.75" y1="360.3203" y2="425.5078"/><line style="stroke:#000000;stroke-width:1.0;" x1="2193.75" x2="2193.75" y1="360.3203" y2="425.5078"/><line style="stroke:#000000;stroke-width:1.0;" x1="2332.75" x2="2332.75" y1="360.3203" y2="425.5078"/><!--MD5=[c9dbfe7c2131e42ee9bba010e514a375]
@startuml
!pragma layout elk
hide empty fields
hide empty methods
legend
|= |= line |
|<back:black>   </back>| inheritance |
|<back:green>   </back>| property reference |
|<back:blue>   </back>| discriminated class |
endlegend
interface TypeUpdateAction [[TypeUpdateAction.svg]]  {
    action: String
}


interface TypeAddEnumValueAction [[TypeAddEnumValueAction.svg]]  {
    action: String
    fieldName: String
    value: [[CustomFieldEnumValue.svg CustomFieldEnumValue]]
}
interface TypeAddFieldDefinitionAction [[TypeAddFieldDefinitionAction.svg]]  {
    action: String
    fieldDefinition: [[FieldDefinition.svg FieldDefinition]]
}
interface TypeAddLocalizedEnumValueAction [[TypeAddLocalizedEnumValueAction.svg]]  {
    action: String
    fieldName: String
    value: [[CustomFieldLocalizedEnumValue.svg CustomFieldLocalizedEnumValue]]
}
interface TypeChangeEnumValueLabelAction [[TypeChangeEnumValueLabelAction.svg]]  {
    action: String
    fieldName: String
    value: [[CustomFieldEnumValue.svg CustomFieldEnumValue]]
}
interface TypeChangeEnumValueOrderAction [[TypeChangeEnumValueOrderAction.svg]]  {
    action: String
    fieldName: String
    keys: [[String.svg List<String>]]
}
interface TypeChangeFieldDefinitionLabelAction [[TypeChangeFieldDefinitionLabelAction.svg]]  {
    action: String
    fieldName: String
    label: [[LocalizedString.svg LocalizedString]]
}
interface TypeChangeFieldDefinitionOrderAction [[TypeChangeFieldDefinitionOrderAction.svg]]  {
    action: String
    fieldNames: [[String.svg List<String>]]
}
interface TypeChangeInputHintAction [[TypeChangeInputHintAction.svg]]  {
    action: String
    fieldName: String
    inputHint: [[TypeTextInputHint.svg TypeTextInputHint]]
}
interface TypeChangeKeyAction [[TypeChangeKeyAction.svg]]  {
    action: String
    key: String
}
interface TypeChangeLabelAction [[TypeChangeLabelAction.svg]]  {
    action: String
    fieldName: String
    label: [[LocalizedString.svg LocalizedString]]
}
interface TypeChangeLocalizedEnumValueLabelAction [[TypeChangeLocalizedEnumValueLabelAction.svg]]  {
    action: String
    fieldName: String
    value: [[CustomFieldLocalizedEnumValue.svg CustomFieldLocalizedEnumValue]]
}
interface TypeChangeLocalizedEnumValueOrderAction [[TypeChangeLocalizedEnumValueOrderAction.svg]]  {
    action: String
    fieldName: String
    keys: [[String.svg List<String>]]
}
interface TypeChangeNameAction [[TypeChangeNameAction.svg]]  {
    action: String
    name: [[LocalizedString.svg LocalizedString]]
}
interface TypeRemoveFieldDefinitionAction [[TypeRemoveFieldDefinitionAction.svg]]  {
    action: String
    fieldName: String
}
interface TypeSetDescriptionAction [[TypeSetDescriptionAction.svg]]  {
    action: String
    description: [[LocalizedString.svg LocalizedString]]
}
interface TypeUpdate [[TypeUpdate.svg]]  {
    version: Long
    actions: [[TypeUpdateAction.svg List<TypeUpdateAction>]]
}
TypeUpdateAction - -> TypeAddEnumValueAction #blue;text:blue : "action : addEnumValue"
TypeUpdateAction - -> TypeAddFieldDefinitionAction #blue;text:blue : "action : addFieldDefinition"
TypeUpdateAction - -> TypeAddLocalizedEnumValueAction #blue;text:blue : "action : addLocalizedEnumValue"
TypeUpdateAction - -> TypeChangeEnumValueLabelAction #blue;text:blue : "action : changeEnumValueLabel"
TypeUpdateAction - -> TypeChangeEnumValueOrderAction #blue;text:blue : "action : changeEnumValueOrder"
TypeUpdateAction - -> TypeChangeFieldDefinitionLabelAction #blue;text:blue : "action : changeFieldDefinitionLabel"
TypeUpdateAction - -> TypeChangeFieldDefinitionOrderAction #blue;text:blue : "action : changeFieldDefinitionOrder"
TypeUpdateAction - -> TypeChangeInputHintAction #blue;text:blue : "action : changeInputHint"
TypeUpdateAction - -> TypeChangeKeyAction #blue;text:blue : "action : changeKey"
TypeUpdateAction - -> TypeChangeLabelAction #blue;text:blue : "action : changeLabel"
TypeUpdateAction - -> TypeChangeLocalizedEnumValueLabelAction #blue;text:blue : "action : changeLocalizedEnumValueLabel"
TypeUpdateAction - -> TypeChangeLocalizedEnumValueOrderAction #blue;text:blue : "action : changeLocalizedEnumValueOrder"
TypeUpdateAction - -> TypeChangeNameAction #blue;text:blue : "action : changeName"
TypeUpdateAction - -> TypeRemoveFieldDefinitionAction #blue;text:blue : "action : removeFieldDefinition"
TypeUpdateAction - -> TypeSetDescriptionAction #blue;text:blue : "action : setDescription"
TypeUpdateAction - -> TypeUpdate #green;text:green : "actions"
@enduml

PlantUML version 1.2022.13(Sat Nov 19 13:22:17 UTC 2022)
(GPL source distribution)
Java Runtime: OpenJDK Runtime Environment
JVM: OpenJDK 64-Bit Server VM
Default Encoding: UTF-8
Language: en
Country: null
--></g></svg>
