<?xml version="1.0" encoding="UTF-8" standalone="no"?><svg xmlns="http://www.w3.org/2000/svg" xmlns:xlink="http://www.w3.org/1999/xlink" contentStyleType="text/css" height="506px" preserveAspectRatio="none" style="width:906px;height:506px;background:#FFFFFF;" version="1.1" viewBox="0 0 906 506" width="906px" zoomAndPan="magnify"><defs><filter height="1" id="buag0iuiq3m8g0" width="1" x="0" y="0"><feFlood flood-color="#000000" result="flood"/><feComposite in="SourceGraphic" in2="flood" operator="over"/></filter><filter height="1" id="buag0iuiq3m8g1" width="1" x="0" y="0"><feFlood flood-color="#008000" result="flood"/><feComposite in="SourceGraphic" in2="flood" operator="over"/></filter><filter height="1" id="buag0iuiq3m8g2" width="1" x="0" y="0"><feFlood flood-color="#0000FF" result="flood"/><feComposite in="SourceGraphic" in2="flood" operator="over"/></filter></defs><g><!--MD5=[3bd9c36241168d97d6dcd0256933e63d]
class TypedMoneyDraft--><a href="TypedMoneyDraft.svg" target="_top" title="TypedMoneyDraft.svg" xlink:actuate="onRequest" xlink:href="TypedMoneyDraft.svg" xlink:show="new" xlink:title="TypedMoneyDraft.svg" xlink:type="simple"><g id="elem_TypedMoneyDraft"><rect codeLine="10" fill="#F1F1F1" height="105.1875" id="TypedMoneyDraft" rx="2.5" ry="2.5" style="stroke:#181818;stroke-width:0.5;" width="160" x="98.5" y="104.5938"/><ellipse cx="115.3" cy="120.5938" fill="#B4A7E5" rx="11" ry="11" style="stroke:#181818;stroke-width:1.0;"/><path d="M111.2219,116.3594 L111.2219,114.2031 L118.6125,114.2031 L118.6125,116.3594 L116.1438,116.3594 L116.1438,124.4375 L118.6125,124.4375 L118.6125,126.5938 L111.2219,126.5938 L111.2219,124.4375 L113.6906,124.4375 L113.6906,116.3594 L111.2219,116.3594 Z " fill="#000000"/><text fill="#000000" font-family="sans-serif" font-size="14" font-style="italic" lengthAdjust="spacing" textLength="124" x="129.7" y="125.4404">TypedMoneyDraft</text><line style="stroke:#181818;stroke-width:0.5;" x1="99.5" x2="257.5" y1="136.5938" y2="136.5938"/><text fill="#000000" font-family="sans-serif" font-size="14" lengthAdjust="spacing" textLength="128" x="104.5" y="153.5889">centAmount: Long</text><text fill="#000000" font-family="sans-serif" font-size="14" lengthAdjust="spacing" textLength="146" x="104.5" y="169.8857">currencyCode: String</text><text fill="#000000" font-family="sans-serif" font-size="14" lengthAdjust="spacing" textLength="35" x="104.5" y="186.1826">type:</text><a href="MoneyType.svg" target="_top" title="MoneyType.svg" xlink:actuate="onRequest" xlink:href="MoneyType.svg" xlink:show="new" xlink:title="MoneyType.svg" xlink:type="simple"><text fill="#0000FF" font-family="sans-serif" font-size="14" lengthAdjust="spacing" text-decoration="underline" textLength="80" x="143.5" y="186.1826">MoneyType</text></a><text fill="#000000" font-family="sans-serif" font-size="14" lengthAdjust="spacing" textLength="148" x="104.5" y="202.4795">fractionDigits: Integer</text></g></a><!--MD5=[08dbe06e87f91eb667838fe2f259c34a]
class Money--><a href="Money.svg" target="_top" title="Money.svg" xlink:actuate="onRequest" xlink:href="Money.svg" xlink:show="new" xlink:title="Money.svg" xlink:type="simple"><g id="elem_Money"><rect codeLine="16" fill="#F1F1F1" height="72.5938" id="Money" rx="2.5" ry="2.5" style="stroke:#181818;stroke-width:0.5;" width="158" x="99.5" y="12"/><ellipse cx="150.75" cy="28" fill="#B4A7E5" rx="11" ry="11" style="stroke:#181818;stroke-width:1.0;"/><path d="M146.6719,23.7656 L146.6719,21.6094 L154.0625,21.6094 L154.0625,23.7656 L151.5938,23.7656 L151.5938,31.8438 L154.0625,31.8438 L154.0625,34 L146.6719,34 L146.6719,31.8438 L149.1406,31.8438 L149.1406,23.7656 L146.6719,23.7656 Z " fill="#000000"/><text fill="#000000" font-family="sans-serif" font-size="14" font-style="italic" lengthAdjust="spacing" textLength="47" x="171.25" y="32.8467">Money</text><line style="stroke:#181818;stroke-width:0.5;" x1="100.5" x2="256.5" y1="44" y2="44"/><text fill="#000000" font-family="sans-serif" font-size="14" lengthAdjust="spacing" textLength="128" x="105.5" y="60.9951">centAmount: Long</text><text fill="#000000" font-family="sans-serif" font-size="14" lengthAdjust="spacing" textLength="146" x="105.5" y="77.292">currencyCode: String</text></g></a><!--MD5=[4fc99cf3d268c3f282da8f0fc08ba275]
class CentPrecisionMoneyDraft--><a href="CentPrecisionMoneyDraft.svg" target="_top" title="CentPrecisionMoneyDraft.svg" xlink:actuate="onRequest" xlink:href="CentPrecisionMoneyDraft.svg" xlink:show="new" xlink:title="CentPrecisionMoneyDraft.svg" xlink:type="simple"><g id="elem_CentPrecisionMoneyDraft"><rect codeLine="21" fill="#F1F1F1" height="105.1875" id="CentPrecisionMoneyDraft" rx="2.5" ry="2.5" style="stroke:#181818;stroke-width:0.5;" width="206" x="468" y="284.9141"/><ellipse cx="483" cy="300.9141" fill="#B4A7E5" rx="11" ry="11" style="stroke:#181818;stroke-width:1.0;"/><path d="M478.9219,296.6797 L478.9219,294.5234 L486.3125,294.5234 L486.3125,296.6797 L483.8438,296.6797 L483.8438,304.7578 L486.3125,304.7578 L486.3125,306.9141 L478.9219,306.9141 L478.9219,304.7578 L481.3906,304.7578 L481.3906,296.6797 L478.9219,296.6797 Z " fill="#000000"/><text fill="#000000" font-family="sans-serif" font-size="14" font-style="italic" lengthAdjust="spacing" textLength="174" x="497" y="305.7607">CentPrecisionMoneyDraft</text><line style="stroke:#181818;stroke-width:0.5;" x1="469" x2="673" y1="316.9141" y2="316.9141"/><text fill="#000000" font-family="sans-serif" font-size="14" lengthAdjust="spacing" textLength="128" x="474" y="333.9092">centAmount: Long</text><text fill="#000000" font-family="sans-serif" font-size="14" lengthAdjust="spacing" textLength="146" x="474" y="350.2061">currencyCode: String</text><text fill="#000000" font-family="sans-serif" font-size="14" lengthAdjust="spacing" textLength="35" x="474" y="366.5029">type:</text><a href="MoneyType.svg" target="_top" title="MoneyType.svg" xlink:actuate="onRequest" xlink:href="MoneyType.svg" xlink:show="new" xlink:title="MoneyType.svg" xlink:type="simple"><text fill="#0000FF" font-family="sans-serif" font-size="14" lengthAdjust="spacing" text-decoration="underline" textLength="80" x="513" y="366.5029">MoneyType</text></a><text fill="#000000" font-family="sans-serif" font-size="14" lengthAdjust="spacing" textLength="148" x="474" y="382.7998">fractionDigits: Integer</text></g></a><!--MD5=[15176d1b8fc37a19bc857817528d598c]
class HighPrecisionMoneyDraft--><a href="HighPrecisionMoneyDraft.svg" target="_top" title="HighPrecisionMoneyDraft.svg" xlink:actuate="onRequest" xlink:href="HighPrecisionMoneyDraft.svg" xlink:show="new" xlink:title="HighPrecisionMoneyDraft.svg" xlink:type="simple"><g id="elem_HighPrecisionMoneyDraft"><rect codeLine="27" fill="#F1F1F1" height="121.4844" id="HighPrecisionMoneyDraft" rx="2.5" ry="2.5" style="stroke:#181818;stroke-width:0.5;" width="205" x="694" y="284.9141"/><ellipse cx="709" cy="300.9141" fill="#B4A7E5" rx="11" ry="11" style="stroke:#181818;stroke-width:1.0;"/><path d="M704.9219,296.6797 L704.9219,294.5234 L712.3125,294.5234 L712.3125,296.6797 L709.8438,296.6797 L709.8438,304.7578 L712.3125,304.7578 L712.3125,306.9141 L704.9219,306.9141 L704.9219,304.7578 L707.3906,304.7578 L707.3906,296.6797 L704.9219,296.6797 Z " fill="#000000"/><text fill="#000000" font-family="sans-serif" font-size="14" font-style="italic" lengthAdjust="spacing" textLength="173" x="723" y="305.7607">HighPrecisionMoneyDraft</text><line style="stroke:#181818;stroke-width:0.5;" x1="695" x2="898" y1="316.9141" y2="316.9141"/><text fill="#000000" font-family="sans-serif" font-size="14" lengthAdjust="spacing" textLength="128" x="700" y="333.9092">centAmount: Long</text><text fill="#000000" font-family="sans-serif" font-size="14" lengthAdjust="spacing" textLength="146" x="700" y="350.2061">currencyCode: String</text><text fill="#000000" font-family="sans-serif" font-size="14" lengthAdjust="spacing" textLength="35" x="700" y="366.5029">type:</text><a href="MoneyType.svg" target="_top" title="MoneyType.svg" xlink:actuate="onRequest" xlink:href="MoneyType.svg" xlink:show="new" xlink:title="MoneyType.svg" xlink:type="simple"><text fill="#0000FF" font-family="sans-serif" font-size="14" lengthAdjust="spacing" text-decoration="underline" textLength="80" x="739" y="366.5029">MoneyType</text></a><text fill="#000000" font-family="sans-serif" font-size="14" lengthAdjust="spacing" textLength="148" x="700" y="382.7998">fractionDigits: Integer</text><text fill="#000000" font-family="sans-serif" font-size="14" lengthAdjust="spacing" textLength="148" x="700" y="399.0967">preciseAmount: Long</text></g></a><!--MD5=[4bbb6b9934cb8222428cad951579cafd]
class CartDiscountValueFixedDraft--><a href="CartDiscountValueFixedDraft.svg" target="_top" title="CartDiscountValueFixedDraft.svg" xlink:actuate="onRequest" xlink:href="CartDiscountValueFixedDraft.svg" xlink:show="new" xlink:title="CartDiscountValueFixedDraft.svg" xlink:type="simple"><g id="elem_CartDiscountValueFixedDraft"><rect codeLine="34" fill="#F1F1F1" height="72.5938" id="CartDiscountValueFixedDraft" rx="2.5" ry="2.5" style="stroke:#181818;stroke-width:0.5;" width="237" x="12" y="284.9141"/><ellipse cx="30.15" cy="300.9141" fill="#B4A7E5" rx="11" ry="11" style="stroke:#181818;stroke-width:1.0;"/><path d="M26.0719,296.6797 L26.0719,294.5234 L33.4625,294.5234 L33.4625,296.6797 L30.9938,296.6797 L30.9938,304.7578 L33.4625,304.7578 L33.4625,306.9141 L26.0719,306.9141 L26.0719,304.7578 L28.5406,304.7578 L28.5406,296.6797 L26.0719,296.6797 Z " fill="#000000"/><text fill="#000000" font-family="sans-serif" font-size="14" font-style="italic" lengthAdjust="spacing" textLength="198" x="44.85" y="305.7607">CartDiscountValueFixedDraft</text><line style="stroke:#181818;stroke-width:0.5;" x1="13" x2="248" y1="316.9141" y2="316.9141"/><text fill="#000000" font-family="sans-serif" font-size="14" lengthAdjust="spacing" textLength="79" x="18" y="333.9092">type: String</text><text fill="#000000" font-family="sans-serif" font-size="14" lengthAdjust="spacing" textLength="52" x="18" y="350.2061">money:</text><a href="TypedMoneyDraft.svg" target="_top" title="TypedMoneyDraft.svg" xlink:actuate="onRequest" xlink:href="TypedMoneyDraft.svg" xlink:show="new" xlink:title="TypedMoneyDraft.svg" xlink:type="simple"><text fill="#0000FF" font-family="sans-serif" font-size="14" lengthAdjust="spacing" text-decoration="underline" textLength="169" x="74" y="350.2061">List&lt;TypedMoneyDraft&gt;</text></a></g></a><!--MD5=[726df436ca0e7a1941712c566b5389ab]
class StagedPriceDraft--><a href="StagedPriceDraft.svg" target="_top" title="StagedPriceDraft.svg" xlink:actuate="onRequest" xlink:href="StagedPriceDraft.svg" xlink:show="new" xlink:title="StagedPriceDraft.svg" xlink:type="simple"><g id="elem_StagedPriceDraft"><rect codeLine="38" fill="#F1F1F1" height="56.2969" id="StagedPriceDraft" rx="2.5" ry="2.5" style="stroke:#181818;stroke-width:0.5;" width="179" x="269" y="284.9141"/><ellipse cx="298.4" cy="300.9141" fill="#B4A7E5" rx="11" ry="11" style="stroke:#181818;stroke-width:1.0;"/><path d="M294.3219,296.6797 L294.3219,294.5234 L301.7125,294.5234 L301.7125,296.6797 L299.2438,296.6797 L299.2438,304.7578 L301.7125,304.7578 L301.7125,306.9141 L294.3219,306.9141 L294.3219,304.7578 L296.7906,304.7578 L296.7906,296.6797 L294.3219,296.6797 Z " fill="#000000"/><text fill="#000000" font-family="sans-serif" font-size="14" font-style="italic" lengthAdjust="spacing" textLength="115" x="315.6" y="305.7607">StagedPriceDraft</text><line style="stroke:#181818;stroke-width:0.5;" x1="270" x2="447" y1="316.9141" y2="316.9141"/><text fill="#000000" font-family="sans-serif" font-size="14" lengthAdjust="spacing" textLength="41" x="275" y="333.9092">value:</text><a href="TypedMoneyDraft.svg" target="_top" title="TypedMoneyDraft.svg" xlink:actuate="onRequest" xlink:href="TypedMoneyDraft.svg" xlink:show="new" xlink:title="TypedMoneyDraft.svg" xlink:type="simple"><text fill="#0000FF" font-family="sans-serif" font-size="14" lengthAdjust="spacing" text-decoration="underline" textLength="122" x="320" y="333.9092">TypedMoneyDraft</text></a></g></a><line style="stroke:#181818;stroke-width:1.0;" x1="178.5" x2="178.5" y1="84.5938" y2="104.5938"/><polygon fill="#FFFFFF" points="178.5,84.5938,171.5,103.5938,185.5,103.5938,178.5,84.5938" style="stroke:#181818;stroke-width:1.0;"/><line style="stroke:#0000FF;stroke-width:1.0;" x1="194.5" x2="194.5" y1="209.7813" y2="229.7813"/><line style="stroke:#0000FF;stroke-width:1.0;" x1="194.5" x2="571" y1="229.7813" y2="229.7813"/><line style="stroke:#0000FF;stroke-width:1.0;" x1="571" x2="571" y1="229.7813" y2="284.9141"/><polygon fill="#0000FF" points="571,284.9141,575,275.9141,571,279.9141,567,275.9141,571,284.9141" style="stroke:#0000FF;stroke-width:1.0;"/><text fill="#000000" font-family="sans-serif" font-size="13" lengthAdjust="spacing" textLength="125" x="444" y="261.8481">type : centPrecision</text><line style="stroke:#0000FF;stroke-width:1.0;" x1="226.5" x2="226.5" y1="209.7813" y2="219.7813"/><line style="stroke:#0000FF;stroke-width:1.0;" x1="226.5" x2="796.5" y1="219.7813" y2="219.7813"/><line style="stroke:#0000FF;stroke-width:1.0;" x1="796.5" x2="796.5" y1="219.7813" y2="284.9141"/><polygon fill="#0000FF" points="796.5,284.9141,800.5,275.9141,796.5,279.9141,792.5,275.9141,796.5,284.9141" style="stroke:#0000FF;stroke-width:1.0;"/><text fill="#000000" font-family="sans-serif" font-size="13" lengthAdjust="spacing" textLength="124" x="670.5" y="261.8481">type : highPrecision</text><line style="stroke:#008000;stroke-width:1.0;" x1="130.5" x2="130.5" y1="209.7813" y2="284.9141"/><polygon fill="#008000" points="130.5,284.9141,134.5,275.9141,130.5,279.9141,126.5,275.9141,130.5,284.9141" style="stroke:#008000;stroke-width:1.0;"/><text fill="#000000" font-family="sans-serif" font-size="13" lengthAdjust="spacing" textLength="44" x="84.5" y="261.8481">money</text><line style="stroke:#008000;stroke-width:1.0;" x1="162.5" x2="162.5" y1="209.7813" y2="239.7813"/><line style="stroke:#008000;stroke-width:1.0;" x1="162.5" x2="358.5" y1="239.7813" y2="239.7813"/><line style="stroke:#008000;stroke-width:1.0;" x1="358.5" x2="358.5" y1="239.7813" y2="284.9141"/><polygon fill="#008000" points="358.5,284.9141,362.5,275.9141,358.5,279.9141,354.5,275.9141,358.5,284.9141" style="stroke:#008000;stroke-width:1.0;"/><text fill="#000000" font-family="sans-serif" font-size="13" lengthAdjust="spacing" textLength="34" x="322.5" y="261.8481">value</text><rect fill="#DDDDDD" height="79.1875" id="_legend" rx="7.5" ry="7.5" style="stroke:#000000;stroke-width:1.0;" width="161" x="363" y="407.3984"/><text fill="#000000" font-family="sans-serif" font-size="14" font-weight="bold" lengthAdjust="spacing" textLength="5" x="368" y="427.3936"> </text><text fill="#000000" font-family="sans-serif" font-size="14" font-weight="bold" lengthAdjust="spacing" textLength="28" x="385" y="427.3936">line</text><text fill="#000000" filter="url(#buag0iuiq3m8g0)" font-family="sans-serif" font-size="14" lengthAdjust="spacing" textLength="12" x="368" y="443.6904">   </text><text fill="#000000" font-family="sans-serif" font-size="14" lengthAdjust="spacing" textLength="77" x="384" y="443.6904">inheritance</text><text fill="#000000" filter="url(#buag0iuiq3m8g1)" font-family="sans-serif" font-size="14" lengthAdjust="spacing" textLength="12" x="368" y="459.9873">   </text><text fill="#000000" font-family="sans-serif" font-size="14" lengthAdjust="spacing" textLength="129" x="384" y="459.9873">property reference</text><text fill="#000000" filter="url(#buag0iuiq3m8g2)" font-family="sans-serif" font-size="14" lengthAdjust="spacing" textLength="12" x="368" y="476.2842">   </text><text fill="#000000" font-family="sans-serif" font-size="14" lengthAdjust="spacing" textLength="131" x="384" y="476.2842">discriminated class</text><line style="stroke:#000000;stroke-width:1.0;" x1="368" x2="519" y1="414.3984" y2="414.3984"/><line style="stroke:#000000;stroke-width:1.0;" x1="368" x2="519" y1="430.6953" y2="430.6953"/><line style="stroke:#000000;stroke-width:1.0;" x1="368" x2="519" y1="446.9922" y2="446.9922"/><line style="stroke:#000000;stroke-width:1.0;" x1="368" x2="519" y1="463.2891" y2="463.2891"/><line style="stroke:#000000;stroke-width:1.0;" x1="368" x2="519" y1="479.5859" y2="479.5859"/><line style="stroke:#000000;stroke-width:1.0;" x1="368" x2="368" y1="414.3984" y2="479.5859"/><line style="stroke:#000000;stroke-width:1.0;" x1="380" x2="380" y1="414.3984" y2="479.5859"/><line style="stroke:#000000;stroke-width:1.0;" x1="519" x2="519" y1="414.3984" y2="479.5859"/><!--MD5=[93aa1324587f0da753817f73f7415984]
@startuml
!pragma layout elk
hide empty fields
hide empty methods
legend
|= |= line |
|<back:black>   </back>| inheritance |
|<back:green>   </back>| property reference |
|<back:blue>   </back>| discriminated class |
endlegend
interface TypedMoneyDraft [[TypedMoneyDraft.svg]] extends Money {
    centAmount: Long
    currencyCode: String
    type: [[MoneyType.svg MoneyType]]
    fractionDigits: Integer
}
interface Money [[Money.svg]]  {
    centAmount: Long
    currencyCode: String
}

interface CentPrecisionMoneyDraft [[CentPrecisionMoneyDraft.svg]]  {
    centAmount: Long
    currencyCode: String
    type: [[MoneyType.svg MoneyType]]
    fractionDigits: Integer
}
interface HighPrecisionMoneyDraft [[HighPrecisionMoneyDraft.svg]]  {
    centAmount: Long
    currencyCode: String
    type: [[MoneyType.svg MoneyType]]
    fractionDigits: Integer
    preciseAmount: Long
}
interface CartDiscountValueFixedDraft [[CartDiscountValueFixedDraft.svg]]  {
    type: String
    money: [[TypedMoneyDraft.svg List<TypedMoneyDraft>]]
}
interface StagedPriceDraft [[StagedPriceDraft.svg]]  {
    value: [[TypedMoneyDraft.svg TypedMoneyDraft]]
}
TypedMoneyDraft - -> CentPrecisionMoneyDraft #blue;text:blue : "type : centPrecision"
TypedMoneyDraft - -> HighPrecisionMoneyDraft #blue;text:blue : "type : highPrecision"
TypedMoneyDraft - -> CartDiscountValueFixedDraft #green;text:green : "money"
TypedMoneyDraft - -> StagedPriceDraft #green;text:green : "value"
@enduml

PlantUML version 1.2022.13(Sat Nov 19 13:22:17 UTC 2022)
(GPL source distribution)
Java Runtime: OpenJDK Runtime Environment
JVM: OpenJDK 64-Bit Server VM
Default Encoding: UTF-8
Language: en
Country: null
--></g></svg>
