<?xml version="1.0" encoding="UTF-8" standalone="no"?><svg xmlns="http://www.w3.org/2000/svg" xmlns:xlink="http://www.w3.org/1999/xlink" contentStyleType="text/css" height="296px" preserveAspectRatio="none" style="width:230px;height:296px;background:#FFFFFF;" version="1.1" viewBox="0 0 230 296" width="230px" zoomAndPan="magnify"><defs><filter height="1" id="b1t32ln8t1ge2t0" width="1" x="0" y="0"><feFlood flood-color="#000000" result="flood"/><feComposite in="SourceGraphic" in2="flood" operator="over"/></filter><filter height="1" id="b1t32ln8t1ge2t1" width="1" x="0" y="0"><feFlood flood-color="#008000" result="flood"/><feComposite in="SourceGraphic" in2="flood" operator="over"/></filter><filter height="1" id="b1t32ln8t1ge2t2" width="1" x="0" y="0"><feFlood flood-color="#0000FF" result="flood"/><feComposite in="SourceGraphic" in2="flood" operator="over"/></filter></defs><g><!--MD5=[90bb7c9792e915c29caf0179ec292b7f]
class UpdateAction--><a href="UpdateAction.svg" target="_top" title="UpdateAction.svg" xlink:actuate="onRequest" xlink:href="UpdateAction.svg" xlink:show="new" xlink:title="UpdateAction.svg" xlink:type="simple"><g id="elem_UpdateAction"><rect codeLine="10" fill="#F1F1F1" height="56.2969" id="UpdateAction" rx="2.5" ry="2.5" style="stroke:#181818;stroke-width:0.5;" width="126" x="54.5" y="12"/><ellipse cx="69.5" cy="28" fill="#B4A7E5" rx="11" ry="11" style="stroke:#181818;stroke-width:1.0;"/><path d="M65.4219,23.7656 L65.4219,21.6094 L72.8125,21.6094 L72.8125,23.7656 L70.3438,23.7656 L70.3438,31.8438 L72.8125,31.8438 L72.8125,34 L65.4219,34 L65.4219,31.8438 L67.8906,31.8438 L67.8906,23.7656 L65.4219,23.7656 Z " fill="#000000"/><text fill="#000000" font-family="sans-serif" font-size="14" font-style="italic" lengthAdjust="spacing" textLength="94" x="83.5" y="32.8467">UpdateAction</text><line style="stroke:#181818;stroke-width:0.5;" x1="55.5" x2="179.5" y1="44" y2="44"/><text fill="#000000" font-family="sans-serif" font-size="14" lengthAdjust="spacing" textLength="91" x="60.5" y="60.9951">action: String</text></g></a><!--MD5=[e2d3da46aad6ad2235ed97afaf326e98]
class Update--><a href="Update.svg" target="_top" title="Update.svg" xlink:actuate="onRequest" xlink:href="Update.svg" xlink:show="new" xlink:title="Update.svg" xlink:type="simple"><g id="elem_Update"><rect codeLine="16" fill="#F1F1F1" height="72.5938" id="Update" rx="2.5" ry="2.5" style="stroke:#181818;stroke-width:0.5;" width="211" x="12" y="123.4297"/><ellipse cx="88.25" cy="139.4297" fill="#B4A7E5" rx="11" ry="11" style="stroke:#181818;stroke-width:1.0;"/><path d="M84.1719,135.1953 L84.1719,133.0391 L91.5625,133.0391 L91.5625,135.1953 L89.0938,135.1953 L89.0938,143.2734 L91.5625,143.2734 L91.5625,145.4297 L84.1719,145.4297 L84.1719,143.2734 L86.6406,143.2734 L86.6406,135.1953 L84.1719,135.1953 Z " fill="#000000"/><text fill="#000000" font-family="sans-serif" font-size="14" font-style="italic" lengthAdjust="spacing" textLength="50" x="108.75" y="144.2764">Update</text><line style="stroke:#181818;stroke-width:0.5;" x1="13" x2="222" y1="155.4297" y2="155.4297"/><text fill="#000000" font-family="sans-serif" font-size="14" lengthAdjust="spacing" textLength="93" x="18" y="172.4248">version: Long</text><text fill="#000000" font-family="sans-serif" font-size="14" lengthAdjust="spacing" textLength="55" x="18" y="188.7217">actions:</text><a href="UpdateAction.svg" target="_top" title="UpdateAction.svg" xlink:actuate="onRequest" xlink:href="UpdateAction.svg" xlink:show="new" xlink:title="UpdateAction.svg" xlink:type="simple"><text fill="#0000FF" font-family="sans-serif" font-size="14" lengthAdjust="spacing" text-decoration="underline" textLength="140" x="77" y="188.7217">List&lt;UpdateAction&gt;</text></a></g></a><line style="stroke:#008000;stroke-width:1.0;" x1="117.5" x2="117.5" y1="68.2969" y2="123.4297"/><polygon fill="#008000" points="117.5,123.4297,121.5,114.4297,117.5,118.4297,113.5,114.4297,117.5,123.4297" style="stroke:#008000;stroke-width:1.0;"/><text fill="#000000" font-family="sans-serif" font-size="13" lengthAdjust="spacing" textLength="46" x="69.5" y="100.3638">actions</text><rect fill="#DDDDDD" height="79.1875" id="_legend" rx="7.5" ry="7.5" style="stroke:#000000;stroke-width:1.0;" width="161" x="25" y="197.0234"/><text fill="#000000" font-family="sans-serif" font-size="14" font-weight="bold" lengthAdjust="spacing" textLength="5" x="30" y="217.0186"> </text><text fill="#000000" font-family="sans-serif" font-size="14" font-weight="bold" lengthAdjust="spacing" textLength="28" x="47" y="217.0186">line</text><text fill="#000000" filter="url(#b1t32ln8t1ge2t0)" font-family="sans-serif" font-size="14" lengthAdjust="spacing" textLength="12" x="30" y="233.3154">   </text><text fill="#000000" font-family="sans-serif" font-size="14" lengthAdjust="spacing" textLength="77" x="46" y="233.3154">inheritance</text><text fill="#000000" filter="url(#b1t32ln8t1ge2t1)" font-family="sans-serif" font-size="14" lengthAdjust="spacing" textLength="12" x="30" y="249.6123">   </text><text fill="#000000" font-family="sans-serif" font-size="14" lengthAdjust="spacing" textLength="129" x="46" y="249.6123">property reference</text><text fill="#000000" filter="url(#b1t32ln8t1ge2t2)" font-family="sans-serif" font-size="14" lengthAdjust="spacing" textLength="12" x="30" y="265.9092">   </text><text fill="#000000" font-family="sans-serif" font-size="14" lengthAdjust="spacing" textLength="131" x="46" y="265.9092">discriminated class</text><line style="stroke:#000000;stroke-width:1.0;" x1="30" x2="181" y1="204.0234" y2="204.0234"/><line style="stroke:#000000;stroke-width:1.0;" x1="30" x2="181" y1="220.3203" y2="220.3203"/><line style="stroke:#000000;stroke-width:1.0;" x1="30" x2="181" y1="236.6172" y2="236.6172"/><line style="stroke:#000000;stroke-width:1.0;" x1="30" x2="181" y1="252.9141" y2="252.9141"/><line style="stroke:#000000;stroke-width:1.0;" x1="30" x2="181" y1="269.2109" y2="269.2109"/><line style="stroke:#000000;stroke-width:1.0;" x1="30" x2="30" y1="204.0234" y2="269.2109"/><line style="stroke:#000000;stroke-width:1.0;" x1="42" x2="42" y1="204.0234" y2="269.2109"/><line style="stroke:#000000;stroke-width:1.0;" x1="181" x2="181" y1="204.0234" y2="269.2109"/><!--MD5=[adc0b45e920b42c6c157e267cc93dfa8]
@startuml
!pragma layout elk
hide empty fields
hide empty methods
legend
|= |= line |
|<back:black>   </back>| inheritance |
|<back:green>   </back>| property reference |
|<back:blue>   </back>| discriminated class |
endlegend
interface UpdateAction [[UpdateAction.svg]]  {
    action: String
}



interface Update [[Update.svg]]  {
    version: Long
    actions: [[UpdateAction.svg List<UpdateAction>]]
}

UpdateAction - -> Update #green;text:green : "actions"
@enduml

PlantUML version 1.2022.13(Sat Nov 19 13:22:17 UTC 2022)
(GPL source distribution)
Java Runtime: OpenJDK Runtime Environment
JVM: OpenJDK 64-Bit Server VM
Default Encoding: UTF-8
Language: en
Country: null
--></g></svg>
