<?xml version="1.0" encoding="UTF-8" standalone="no"?><svg xmlns="http://www.w3.org/2000/svg" xmlns:xlink="http://www.w3.org/1999/xlink" contentStyleType="text/css" height="277px" preserveAspectRatio="none" style="width:198px;height:277px;background:#FFFFFF;" version="1.1" viewBox="0 0 198 277" width="198px" zoomAndPan="magnify"><defs><filter height="1" id="b17kmn8e4tfrcr0" width="1" x="0" y="0"><feFlood flood-color="#000000" result="flood"/><feComposite in="SourceGraphic" in2="flood" operator="over"/></filter><filter height="1" id="b17kmn8e4tfrcr1" width="1" x="0" y="0"><feFlood flood-color="#008000" result="flood"/><feComposite in="SourceGraphic" in2="flood" operator="over"/></filter><filter height="1" id="b17kmn8e4tfrcr2" width="1" x="0" y="0"><feFlood flood-color="#0000FF" result="flood"/><feComposite in="SourceGraphic" in2="flood" operator="over"/></filter></defs><g><!--MD5=[2cf847e3e3beeb75976f00317ffbfb40]
class VariantSetSkuAction--><a href="VariantSetSkuAction.svg" target="_top" title="VariantSetSkuAction.svg" xlink:actuate="onRequest" xlink:href="VariantSetSkuAction.svg" xlink:show="new" xlink:title="VariantSetSkuAction.svg" xlink:type="simple"><g id="elem_VariantSetSkuAction"><rect codeLine="10" fill="#F1F1F1" height="88.8906" id="VariantSetSkuAction" rx="2.5" ry="2.5" style="stroke:#181818;stroke-width:0.5;" width="173" x="18" y="88.2969"/><ellipse cx="33" cy="104.2969" fill="#B4A7E5" rx="11" ry="11" style="stroke:#181818;stroke-width:1.0;"/><path d="M28.9219,100.0625 L28.9219,97.9063 L36.3125,97.9063 L36.3125,100.0625 L33.8438,100.0625 L33.8438,108.1406 L36.3125,108.1406 L36.3125,110.2969 L28.9219,110.2969 L28.9219,108.1406 L31.3906,108.1406 L31.3906,100.0625 L28.9219,100.0625 Z " fill="#000000"/><text fill="#000000" font-family="sans-serif" font-size="14" font-style="italic" lengthAdjust="spacing" textLength="141" x="47" y="109.1436">VariantSetSkuAction</text><line style="stroke:#181818;stroke-width:0.5;" x1="19" x2="190" y1="120.2969" y2="120.2969"/><text fill="#000000" font-family="sans-serif" font-size="14" lengthAdjust="spacing" textLength="91" x="24" y="137.292">action: String</text><text fill="#000000" font-family="sans-serif" font-size="14" lengthAdjust="spacing" textLength="74" x="24" y="153.5889">sku: String</text><text fill="#000000" font-family="sans-serif" font-size="14" lengthAdjust="spacing" textLength="114" x="24" y="169.8857">staged: Boolean</text></g></a><!--MD5=[dd590293e0795fa069da93acad9e5182]
class VariantUpdateAction--><a href="VariantUpdateAction.svg" target="_top" title="VariantUpdateAction.svg" xlink:actuate="onRequest" xlink:href="VariantUpdateAction.svg" xlink:show="new" xlink:title="VariantUpdateAction.svg" xlink:type="simple"><g id="elem_VariantUpdateAction"><rect codeLine="15" fill="#F1F1F1" height="56.2969" id="VariantUpdateAction" rx="2.5" ry="2.5" style="stroke:#181818;stroke-width:0.5;" width="174" x="17.5" y="12"/><ellipse cx="32.5" cy="28" fill="#B4A7E5" rx="11" ry="11" style="stroke:#181818;stroke-width:1.0;"/><path d="M28.4219,23.7656 L28.4219,21.6094 L35.8125,21.6094 L35.8125,23.7656 L33.3438,23.7656 L33.3438,31.8438 L35.8125,31.8438 L35.8125,34 L28.4219,34 L28.4219,31.8438 L30.8906,31.8438 L30.8906,23.7656 L28.4219,23.7656 Z " fill="#000000"/><text fill="#000000" font-family="sans-serif" font-size="14" font-style="italic" lengthAdjust="spacing" textLength="142" x="46.5" y="32.8467">VariantUpdateAction</text><line style="stroke:#181818;stroke-width:0.5;" x1="18.5" x2="190.5" y1="44" y2="44"/><text fill="#000000" font-family="sans-serif" font-size="14" lengthAdjust="spacing" textLength="91" x="23.5" y="60.9951">action: String</text></g></a><line style="stroke:#181818;stroke-width:1.0;" x1="104.5" x2="104.5" y1="68.2969" y2="88.2969"/><polygon fill="#FFFFFF" points="104.5,68.2969,97.5,87.2969,111.5,87.2969,104.5,68.2969" style="stroke:#181818;stroke-width:1.0;"/><rect fill="#DDDDDD" height="79.1875" id="_legend" rx="7.5" ry="7.5" style="stroke:#000000;stroke-width:1.0;" width="161" x="12" y="178.1875"/><text fill="#000000" font-family="sans-serif" font-size="14" font-weight="bold" lengthAdjust="spacing" textLength="5" x="17" y="198.1826"> </text><text fill="#000000" font-family="sans-serif" font-size="14" font-weight="bold" lengthAdjust="spacing" textLength="28" x="34" y="198.1826">line</text><text fill="#000000" filter="url(#b17kmn8e4tfrcr0)" font-family="sans-serif" font-size="14" lengthAdjust="spacing" textLength="12" x="17" y="214.4795">   </text><text fill="#000000" font-family="sans-serif" font-size="14" lengthAdjust="spacing" textLength="77" x="33" y="214.4795">inheritance</text><text fill="#000000" filter="url(#b17kmn8e4tfrcr1)" font-family="sans-serif" font-size="14" lengthAdjust="spacing" textLength="12" x="17" y="230.7764">   </text><text fill="#000000" font-family="sans-serif" font-size="14" lengthAdjust="spacing" textLength="129" x="33" y="230.7764">property reference</text><text fill="#000000" filter="url(#b17kmn8e4tfrcr2)" font-family="sans-serif" font-size="14" lengthAdjust="spacing" textLength="12" x="17" y="247.0732">   </text><text fill="#000000" font-family="sans-serif" font-size="14" lengthAdjust="spacing" textLength="131" x="33" y="247.0732">discriminated class</text><line style="stroke:#000000;stroke-width:1.0;" x1="17" x2="168" y1="185.1875" y2="185.1875"/><line style="stroke:#000000;stroke-width:1.0;" x1="17" x2="168" y1="201.4844" y2="201.4844"/><line style="stroke:#000000;stroke-width:1.0;" x1="17" x2="168" y1="217.7813" y2="217.7813"/><line style="stroke:#000000;stroke-width:1.0;" x1="17" x2="168" y1="234.0781" y2="234.0781"/><line style="stroke:#000000;stroke-width:1.0;" x1="17" x2="168" y1="250.375" y2="250.375"/><line style="stroke:#000000;stroke-width:1.0;" x1="17" x2="17" y1="185.1875" y2="250.375"/><line style="stroke:#000000;stroke-width:1.0;" x1="29" x2="29" y1="185.1875" y2="250.375"/><line style="stroke:#000000;stroke-width:1.0;" x1="168" x2="168" y1="185.1875" y2="250.375"/><!--MD5=[36cc27571b37068eb1ad8366fc1aa301]
@startuml
!pragma layout elk
hide empty fields
hide empty methods
legend
|= |= line |
|<back:black>   </back>| inheritance |
|<back:green>   </back>| property reference |
|<back:blue>   </back>| discriminated class |
endlegend
interface VariantSetSkuAction [[VariantSetSkuAction.svg]] extends VariantUpdateAction {
    action: String
    sku: String
    staged: Boolean
}
interface VariantUpdateAction [[VariantUpdateAction.svg]]  {
    action: String
}





@enduml

PlantUML version 1.2022.13(Sat Nov 19 13:22:17 UTC 2022)
(GPL source distribution)
Java Runtime: OpenJDK Runtime Environment
JVM: OpenJDK 64-Bit Server VM
Default Encoding: UTF-8
Language: en
Country: null
--></g></svg>
