<?xml version="1.0" encoding="UTF-8" standalone="no"?><svg xmlns="http://www.w3.org/2000/svg" xmlns:xlink="http://www.w3.org/1999/xlink" contentStyleType="text/css" height="293px" preserveAspectRatio="none" style="width:262px;height:293px;background:#FFFFFF;" version="1.1" viewBox="0 0 262 293" width="262px" zoomAndPan="magnify"><defs><filter height="1" id="b1kp7ktliw18780" width="1" x="0" y="0"><feFlood flood-color="#000000" result="flood"/><feComposite in="SourceGraphic" in2="flood" operator="over"/></filter><filter height="1" id="b1kp7ktliw18781" width="1" x="0" y="0"><feFlood flood-color="#008000" result="flood"/><feComposite in="SourceGraphic" in2="flood" operator="over"/></filter><filter height="1" id="b1kp7ktliw18782" width="1" x="0" y="0"><feFlood flood-color="#0000FF" result="flood"/><feComposite in="SourceGraphic" in2="flood" operator="over"/></filter></defs><g><!--MD5=[97722de27f44230d7938259ab6ea8692]
class VariantSkuSetMessagePayload--><a href="VariantSkuSetMessagePayload.svg" target="_top" title="VariantSkuSetMessagePayload.svg" xlink:actuate="onRequest" xlink:href="VariantSkuSetMessagePayload.svg" xlink:show="new" xlink:title="VariantSkuSetMessagePayload.svg" xlink:type="simple"><g id="elem_VariantSkuSetMessagePayload"><rect codeLine="10" fill="#F1F1F1" height="105.1875" id="VariantSkuSetMessagePayload" rx="2.5" ry="2.5" style="stroke:#181818;stroke-width:0.5;" width="243" x="12" y="88.2969"/><ellipse cx="27" cy="104.2969" fill="#B4A7E5" rx="11" ry="11" style="stroke:#181818;stroke-width:1.0;"/><path d="M22.9219,100.0625 L22.9219,97.9063 L30.3125,97.9063 L30.3125,100.0625 L27.8438,100.0625 L27.8438,108.1406 L30.3125,108.1406 L30.3125,110.2969 L22.9219,110.2969 L22.9219,108.1406 L25.3906,108.1406 L25.3906,100.0625 L22.9219,100.0625 Z " fill="#000000"/><text fill="#000000" font-family="sans-serif" font-size="14" font-style="italic" lengthAdjust="spacing" textLength="211" x="41" y="109.1436">VariantSkuSetMessagePayload</text><line style="stroke:#181818;stroke-width:0.5;" x1="13" x2="254" y1="120.2969" y2="120.2969"/><text fill="#000000" font-family="sans-serif" font-size="14" lengthAdjust="spacing" textLength="79" x="18" y="137.292">type: String</text><text fill="#000000" font-family="sans-serif" font-size="14" lengthAdjust="spacing" textLength="74" x="18" y="153.5889">sku: String</text><text fill="#000000" font-family="sans-serif" font-size="14" lengthAdjust="spacing" textLength="96" x="18" y="169.8857">oldSku: String</text><text fill="#000000" font-family="sans-serif" font-size="14" lengthAdjust="spacing" textLength="114" x="18" y="186.1826">staged: Boolean</text></g></a><!--MD5=[bdcbbeb6ff0ef09532e1ab42fdec1480]
class MessagePayload--><a href="MessagePayload.svg" target="_top" title="MessagePayload.svg" xlink:actuate="onRequest" xlink:href="MessagePayload.svg" xlink:show="new" xlink:title="MessagePayload.svg" xlink:type="simple"><g id="elem_MessagePayload"><rect codeLine="16" fill="#F1F1F1" height="56.2969" id="MessagePayload" rx="2.5" ry="2.5" style="stroke:#181818;stroke-width:0.5;" width="146" x="60.5" y="12"/><ellipse cx="75.5" cy="28" fill="#B4A7E5" rx="11" ry="11" style="stroke:#181818;stroke-width:1.0;"/><path d="M71.4219,23.7656 L71.4219,21.6094 L78.8125,21.6094 L78.8125,23.7656 L76.3438,23.7656 L76.3438,31.8438 L78.8125,31.8438 L78.8125,34 L71.4219,34 L71.4219,31.8438 L73.8906,31.8438 L73.8906,23.7656 L71.4219,23.7656 Z " fill="#000000"/><text fill="#000000" font-family="sans-serif" font-size="14" font-style="italic" lengthAdjust="spacing" textLength="114" x="89.5" y="32.8467">MessagePayload</text><line style="stroke:#181818;stroke-width:0.5;" x1="61.5" x2="205.5" y1="44" y2="44"/><text fill="#000000" font-family="sans-serif" font-size="14" lengthAdjust="spacing" textLength="79" x="66.5" y="60.9951">type: String</text></g></a><line style="stroke:#181818;stroke-width:1.0;" x1="133.5" x2="133.5" y1="68.2969" y2="88.2969"/><polygon fill="#FFFFFF" points="133.5,68.2969,126.5,87.2969,140.5,87.2969,133.5,68.2969" style="stroke:#181818;stroke-width:1.0;"/><rect fill="#DDDDDD" height="79.1875" id="_legend" rx="7.5" ry="7.5" style="stroke:#000000;stroke-width:1.0;" width="161" x="41" y="194.4844"/><text fill="#000000" font-family="sans-serif" font-size="14" font-weight="bold" lengthAdjust="spacing" textLength="5" x="46" y="214.4795"> </text><text fill="#000000" font-family="sans-serif" font-size="14" font-weight="bold" lengthAdjust="spacing" textLength="28" x="63" y="214.4795">line</text><text fill="#000000" filter="url(#b1kp7ktliw18780)" font-family="sans-serif" font-size="14" lengthAdjust="spacing" textLength="12" x="46" y="230.7764">   </text><text fill="#000000" font-family="sans-serif" font-size="14" lengthAdjust="spacing" textLength="77" x="62" y="230.7764">inheritance</text><text fill="#000000" filter="url(#b1kp7ktliw18781)" font-family="sans-serif" font-size="14" lengthAdjust="spacing" textLength="12" x="46" y="247.0732">   </text><text fill="#000000" font-family="sans-serif" font-size="14" lengthAdjust="spacing" textLength="129" x="62" y="247.0732">property reference</text><text fill="#000000" filter="url(#b1kp7ktliw18782)" font-family="sans-serif" font-size="14" lengthAdjust="spacing" textLength="12" x="46" y="263.3701">   </text><text fill="#000000" font-family="sans-serif" font-size="14" lengthAdjust="spacing" textLength="131" x="62" y="263.3701">discriminated class</text><line style="stroke:#000000;stroke-width:1.0;" x1="46" x2="197" y1="201.4844" y2="201.4844"/><line style="stroke:#000000;stroke-width:1.0;" x1="46" x2="197" y1="217.7813" y2="217.7813"/><line style="stroke:#000000;stroke-width:1.0;" x1="46" x2="197" y1="234.0781" y2="234.0781"/><line style="stroke:#000000;stroke-width:1.0;" x1="46" x2="197" y1="250.375" y2="250.375"/><line style="stroke:#000000;stroke-width:1.0;" x1="46" x2="197" y1="266.6719" y2="266.6719"/><line style="stroke:#000000;stroke-width:1.0;" x1="46" x2="46" y1="201.4844" y2="266.6719"/><line style="stroke:#000000;stroke-width:1.0;" x1="58" x2="58" y1="201.4844" y2="266.6719"/><line style="stroke:#000000;stroke-width:1.0;" x1="197" x2="197" y1="201.4844" y2="266.6719"/><!--MD5=[5fff6b0b067acf4be4c68d3739345e47]
@startuml
!pragma layout elk
hide empty fields
hide empty methods
legend
|= |= line |
|<back:black>   </back>| inheritance |
|<back:green>   </back>| property reference |
|<back:blue>   </back>| discriminated class |
endlegend
interface VariantSkuSetMessagePayload [[VariantSkuSetMessagePayload.svg]] extends MessagePayload {
    type: String
    sku: String
    oldSku: String
    staged: Boolean
}
interface MessagePayload [[MessagePayload.svg]]  {
    type: String
}





@enduml

PlantUML version 1.2022.13(Sat Nov 19 13:22:17 UTC 2022)
(GPL source distribution)
Java Runtime: OpenJDK Runtime Environment
JVM: OpenJDK 64-Bit Server VM
Default Encoding: UTF-8
Language: en
Country: null
--></g></svg>
