<?xml version="1.0" encoding="UTF-8" standalone="no"?><svg xmlns="http://www.w3.org/2000/svg" xmlns:xlink="http://www.w3.org/1999/xlink" contentStyleType="text/css" height="244px" preserveAspectRatio="none" style="width:198px;height:244px;background:#FFFFFF;" version="1.1" viewBox="0 0 198 244" width="198px" zoomAndPan="magnify"><defs><filter height="1" id="b1xhyks89jur150" width="1" x="0" y="0"><feFlood flood-color="#000000" result="flood"/><feComposite in="SourceGraphic" in2="flood" operator="over"/></filter><filter height="1" id="b1xhyks89jur151" width="1" x="0" y="0"><feFlood flood-color="#008000" result="flood"/><feComposite in="SourceGraphic" in2="flood" operator="over"/></filter><filter height="1" id="b1xhyks89jur152" width="1" x="0" y="0"><feFlood flood-color="#0000FF" result="flood"/><feComposite in="SourceGraphic" in2="flood" operator="over"/></filter></defs><g><!--MD5=[0120332706803d458fd1c66f3e12e9c0]
class VariantPublishAction--><a href="VariantPublishAction.svg" target="_top" title="VariantPublishAction.svg" xlink:actuate="onRequest" xlink:href="VariantPublishAction.svg" xlink:show="new" xlink:title="VariantPublishAction.svg" xlink:type="simple"><g id="elem_VariantPublishAction"><rect codeLine="10" fill="#F1F1F1" height="56.2969" id="VariantPublishAction" rx="2.5" ry="2.5" style="stroke:#181818;stroke-width:0.5;" width="172" x="18.5" y="88.2969"/><ellipse cx="33.5" cy="104.2969" fill="#B4A7E5" rx="11" ry="11" style="stroke:#181818;stroke-width:1.0;"/><path d="M29.4219,100.0625 L29.4219,97.9063 L36.8125,97.9063 L36.8125,100.0625 L34.3438,100.0625 L34.3438,108.1406 L36.8125,108.1406 L36.8125,110.2969 L29.4219,110.2969 L29.4219,108.1406 L31.8906,108.1406 L31.8906,100.0625 L29.4219,100.0625 Z " fill="#000000"/><text fill="#000000" font-family="sans-serif" font-size="14" font-style="italic" lengthAdjust="spacing" textLength="140" x="47.5" y="109.1436">VariantPublishAction</text><line style="stroke:#181818;stroke-width:0.5;" x1="19.5" x2="189.5" y1="120.2969" y2="120.2969"/><text fill="#000000" font-family="sans-serif" font-size="14" lengthAdjust="spacing" textLength="91" x="24.5" y="137.292">action: String</text></g></a><!--MD5=[dd590293e0795fa069da93acad9e5182]
class VariantUpdateAction--><a href="VariantUpdateAction.svg" target="_top" title="VariantUpdateAction.svg" xlink:actuate="onRequest" xlink:href="VariantUpdateAction.svg" xlink:show="new" xlink:title="VariantUpdateAction.svg" xlink:type="simple"><g id="elem_VariantUpdateAction"><rect codeLine="13" fill="#F1F1F1" height="56.2969" id="VariantUpdateAction" rx="2.5" ry="2.5" style="stroke:#181818;stroke-width:0.5;" width="174" x="17.5" y="12"/><ellipse cx="32.5" cy="28" fill="#B4A7E5" rx="11" ry="11" style="stroke:#181818;stroke-width:1.0;"/><path d="M28.4219,23.7656 L28.4219,21.6094 L35.8125,21.6094 L35.8125,23.7656 L33.3438,23.7656 L33.3438,31.8438 L35.8125,31.8438 L35.8125,34 L28.4219,34 L28.4219,31.8438 L30.8906,31.8438 L30.8906,23.7656 L28.4219,23.7656 Z " fill="#000000"/><text fill="#000000" font-family="sans-serif" font-size="14" font-style="italic" lengthAdjust="spacing" textLength="142" x="46.5" y="32.8467">VariantUpdateAction</text><line style="stroke:#181818;stroke-width:0.5;" x1="18.5" x2="190.5" y1="44" y2="44"/><text fill="#000000" font-family="sans-serif" font-size="14" lengthAdjust="spacing" textLength="91" x="23.5" y="60.9951">action: String</text></g></a><line style="stroke:#181818;stroke-width:1.0;" x1="104.5" x2="104.5" y1="68.2969" y2="88.2969"/><polygon fill="#FFFFFF" points="104.5,68.2969,97.5,87.2969,111.5,87.2969,104.5,68.2969" style="stroke:#181818;stroke-width:1.0;"/><rect fill="#DDDDDD" height="79.1875" id="_legend" rx="7.5" ry="7.5" style="stroke:#000000;stroke-width:1.0;" width="161" x="12" y="145.5938"/><text fill="#000000" font-family="sans-serif" font-size="14" font-weight="bold" lengthAdjust="spacing" textLength="5" x="17" y="165.5889"> </text><text fill="#000000" font-family="sans-serif" font-size="14" font-weight="bold" lengthAdjust="spacing" textLength="28" x="34" y="165.5889">line</text><text fill="#000000" filter="url(#b1xhyks89jur150)" font-family="sans-serif" font-size="14" lengthAdjust="spacing" textLength="12" x="17" y="181.8857">   </text><text fill="#000000" font-family="sans-serif" font-size="14" lengthAdjust="spacing" textLength="77" x="33" y="181.8857">inheritance</text><text fill="#000000" filter="url(#b1xhyks89jur151)" font-family="sans-serif" font-size="14" lengthAdjust="spacing" textLength="12" x="17" y="198.1826">   </text><text fill="#000000" font-family="sans-serif" font-size="14" lengthAdjust="spacing" textLength="129" x="33" y="198.1826">property reference</text><text fill="#000000" filter="url(#b1xhyks89jur152)" font-family="sans-serif" font-size="14" lengthAdjust="spacing" textLength="12" x="17" y="214.4795">   </text><text fill="#000000" font-family="sans-serif" font-size="14" lengthAdjust="spacing" textLength="131" x="33" y="214.4795">discriminated class</text><line style="stroke:#000000;stroke-width:1.0;" x1="17" x2="168" y1="152.5938" y2="152.5938"/><line style="stroke:#000000;stroke-width:1.0;" x1="17" x2="168" y1="168.8906" y2="168.8906"/><line style="stroke:#000000;stroke-width:1.0;" x1="17" x2="168" y1="185.1875" y2="185.1875"/><line style="stroke:#000000;stroke-width:1.0;" x1="17" x2="168" y1="201.4844" y2="201.4844"/><line style="stroke:#000000;stroke-width:1.0;" x1="17" x2="168" y1="217.7813" y2="217.7813"/><line style="stroke:#000000;stroke-width:1.0;" x1="17" x2="17" y1="152.5938" y2="217.7813"/><line style="stroke:#000000;stroke-width:1.0;" x1="29" x2="29" y1="152.5938" y2="217.7813"/><line style="stroke:#000000;stroke-width:1.0;" x1="168" x2="168" y1="152.5938" y2="217.7813"/><!--MD5=[42c166d31588d58a3b49bf4fb3189099]
@startuml
!pragma layout elk
hide empty fields
hide empty methods
legend
|= |= line |
|<back:black>   </back>| inheritance |
|<back:green>   </back>| property reference |
|<back:blue>   </back>| discriminated class |
endlegend
interface VariantPublishAction [[VariantPublishAction.svg]] extends VariantUpdateAction {
    action: String
}
interface VariantUpdateAction [[VariantUpdateAction.svg]]  {
    action: String
}





@enduml

PlantUML version 1.2022.13(Sat Nov 19 13:22:17 UTC 2022)
(GPL source distribution)
Java Runtime: OpenJDK Runtime Environment
JVM: OpenJDK 64-Bit Server VM
Default Encoding: UTF-8
Language: en
Country: null
--></g></svg>
