<?xml version="1.0" encoding="UTF-8" standalone="no"?><svg xmlns="http://www.w3.org/2000/svg" xmlns:xlink="http://www.w3.org/1999/xlink" contentStyleType="text/css" height="244px" preserveAspectRatio="none" style="width:211px;height:244px;background:#FFFFFF;" version="1.1" viewBox="0 0 211 244" width="211px" zoomAndPan="magnify"><defs><filter height="1" id="butjqfahngdxj0" width="1" x="0" y="0"><feFlood flood-color="#000000" result="flood"/><feComposite in="SourceGraphic" in2="flood" operator="over"/></filter><filter height="1" id="butjqfahngdxj1" width="1" x="0" y="0"><feFlood flood-color="#008000" result="flood"/><feComposite in="SourceGraphic" in2="flood" operator="over"/></filter><filter height="1" id="butjqfahngdxj2" width="1" x="0" y="0"><feFlood flood-color="#0000FF" result="flood"/><feComposite in="SourceGraphic" in2="flood" operator="over"/></filter></defs><g><!--MD5=[e7c1e777f4a13d0c38b6f5411d4dcfaf]
class VariantUnpublishAction--><a href="VariantUnpublishAction.svg" target="_top" title="VariantUnpublishAction.svg" xlink:actuate="onRequest" xlink:href="VariantUnpublishAction.svg" xlink:show="new" xlink:title="VariantUnpublishAction.svg" xlink:type="simple"><g id="elem_VariantUnpublishAction"><rect codeLine="10" fill="#F1F1F1" height="56.2969" id="VariantUnpublishAction" rx="2.5" ry="2.5" style="stroke:#181818;stroke-width:0.5;" width="192" x="12" y="88.2969"/><ellipse cx="27" cy="104.2969" fill="#B4A7E5" rx="11" ry="11" style="stroke:#181818;stroke-width:1.0;"/><path d="M22.9219,100.0625 L22.9219,97.9063 L30.3125,97.9063 L30.3125,100.0625 L27.8438,100.0625 L27.8438,108.1406 L30.3125,108.1406 L30.3125,110.2969 L22.9219,110.2969 L22.9219,108.1406 L25.3906,108.1406 L25.3906,100.0625 L22.9219,100.0625 Z " fill="#000000"/><text fill="#000000" font-family="sans-serif" font-size="14" font-style="italic" lengthAdjust="spacing" textLength="160" x="41" y="109.1436">VariantUnpublishAction</text><line style="stroke:#181818;stroke-width:0.5;" x1="13" x2="203" y1="120.2969" y2="120.2969"/><text fill="#000000" font-family="sans-serif" font-size="14" lengthAdjust="spacing" textLength="91" x="18" y="137.292">action: String</text></g></a><!--MD5=[dd590293e0795fa069da93acad9e5182]
class VariantUpdateAction--><a href="VariantUpdateAction.svg" target="_top" title="VariantUpdateAction.svg" xlink:actuate="onRequest" xlink:href="VariantUpdateAction.svg" xlink:show="new" xlink:title="VariantUpdateAction.svg" xlink:type="simple"><g id="elem_VariantUpdateAction"><rect codeLine="13" fill="#F1F1F1" height="56.2969" id="VariantUpdateAction" rx="2.5" ry="2.5" style="stroke:#181818;stroke-width:0.5;" width="174" x="21" y="12"/><ellipse cx="36" cy="28" fill="#B4A7E5" rx="11" ry="11" style="stroke:#181818;stroke-width:1.0;"/><path d="M31.9219,23.7656 L31.9219,21.6094 L39.3125,21.6094 L39.3125,23.7656 L36.8438,23.7656 L36.8438,31.8438 L39.3125,31.8438 L39.3125,34 L31.9219,34 L31.9219,31.8438 L34.3906,31.8438 L34.3906,23.7656 L31.9219,23.7656 Z " fill="#000000"/><text fill="#000000" font-family="sans-serif" font-size="14" font-style="italic" lengthAdjust="spacing" textLength="142" x="50" y="32.8467">VariantUpdateAction</text><line style="stroke:#181818;stroke-width:0.5;" x1="22" x2="194" y1="44" y2="44"/><text fill="#000000" font-family="sans-serif" font-size="14" lengthAdjust="spacing" textLength="91" x="27" y="60.9951">action: String</text></g></a><line style="stroke:#181818;stroke-width:1.0;" x1="108" x2="108" y1="68.2969" y2="88.2969"/><polygon fill="#FFFFFF" points="108,68.2969,101,87.2969,115,87.2969,108,68.2969" style="stroke:#181818;stroke-width:1.0;"/><rect fill="#DDDDDD" height="79.1875" id="_legend" rx="7.5" ry="7.5" style="stroke:#000000;stroke-width:1.0;" width="161" x="15.5" y="145.5938"/><text fill="#000000" font-family="sans-serif" font-size="14" font-weight="bold" lengthAdjust="spacing" textLength="5" x="20.5" y="165.5889"> </text><text fill="#000000" font-family="sans-serif" font-size="14" font-weight="bold" lengthAdjust="spacing" textLength="28" x="37.5" y="165.5889">line</text><text fill="#000000" filter="url(#butjqfahngdxj0)" font-family="sans-serif" font-size="14" lengthAdjust="spacing" textLength="12" x="20.5" y="181.8857">   </text><text fill="#000000" font-family="sans-serif" font-size="14" lengthAdjust="spacing" textLength="77" x="36.5" y="181.8857">inheritance</text><text fill="#000000" filter="url(#butjqfahngdxj1)" font-family="sans-serif" font-size="14" lengthAdjust="spacing" textLength="12" x="20.5" y="198.1826">   </text><text fill="#000000" font-family="sans-serif" font-size="14" lengthAdjust="spacing" textLength="129" x="36.5" y="198.1826">property reference</text><text fill="#000000" filter="url(#butjqfahngdxj2)" font-family="sans-serif" font-size="14" lengthAdjust="spacing" textLength="12" x="20.5" y="214.4795">   </text><text fill="#000000" font-family="sans-serif" font-size="14" lengthAdjust="spacing" textLength="131" x="36.5" y="214.4795">discriminated class</text><line style="stroke:#000000;stroke-width:1.0;" x1="20.5" x2="171.5" y1="152.5938" y2="152.5938"/><line style="stroke:#000000;stroke-width:1.0;" x1="20.5" x2="171.5" y1="168.8906" y2="168.8906"/><line style="stroke:#000000;stroke-width:1.0;" x1="20.5" x2="171.5" y1="185.1875" y2="185.1875"/><line style="stroke:#000000;stroke-width:1.0;" x1="20.5" x2="171.5" y1="201.4844" y2="201.4844"/><line style="stroke:#000000;stroke-width:1.0;" x1="20.5" x2="171.5" y1="217.7813" y2="217.7813"/><line style="stroke:#000000;stroke-width:1.0;" x1="20.5" x2="20.5" y1="152.5938" y2="217.7813"/><line style="stroke:#000000;stroke-width:1.0;" x1="32.5" x2="32.5" y1="152.5938" y2="217.7813"/><line style="stroke:#000000;stroke-width:1.0;" x1="171.5" x2="171.5" y1="152.5938" y2="217.7813"/><!--MD5=[9c27cb395dbb9a836b23d36733a45d33]
@startuml
!pragma layout elk
hide empty fields
hide empty methods
legend
|= |= line |
|<back:black>   </back>| inheritance |
|<back:green>   </back>| property reference |
|<back:blue>   </back>| discriminated class |
endlegend
interface VariantUnpublishAction [[VariantUnpublishAction.svg]] extends VariantUpdateAction {
    action: String
}
interface VariantUpdateAction [[VariantUpdateAction.svg]]  {
    action: String
}





@enduml

PlantUML version 1.2022.13(Sat Nov 19 13:22:17 UTC 2022)
(GPL source distribution)
Java Runtime: OpenJDK Runtime Environment
JVM: OpenJDK 64-Bit Server VM
Default Encoding: UTF-8
Language: en
Country: null
--></g></svg>
