<?xml version="1.0" encoding="UTF-8" standalone="no"?><svg xmlns="http://www.w3.org/2000/svg" xmlns:xlink="http://www.w3.org/1999/xlink" contentStyleType="text/css" height="244px" preserveAspectRatio="none" style="width:202px;height:244px;background:#FFFFFF;" version="1.1" viewBox="0 0 202 244" width="202px" zoomAndPan="magnify"><defs><filter height="1" id="bx5kzinp9bfko0" width="1" x="0" y="0"><feFlood flood-color="#000000" result="flood"/><feComposite in="SourceGraphic" in2="flood" operator="over"/></filter><filter height="1" id="bx5kzinp9bfko1" width="1" x="0" y="0"><feFlood flood-color="#008000" result="flood"/><feComposite in="SourceGraphic" in2="flood" operator="over"/></filter><filter height="1" id="bx5kzinp9bfko2" width="1" x="0" y="0"><feFlood flood-color="#0000FF" result="flood"/><feComposite in="SourceGraphic" in2="flood" operator="over"/></filter></defs><g><!--MD5=[8e3d0d5945c0390ef28b565c54b8a5b8]
class WhitespaceTokenizer--><a href="WhitespaceTokenizer.svg" target="_top" title="WhitespaceTokenizer.svg" xlink:actuate="onRequest" xlink:href="WhitespaceTokenizer.svg" xlink:show="new" xlink:title="WhitespaceTokenizer.svg" xlink:type="simple"><g id="elem_WhitespaceTokenizer"><rect codeLine="10" fill="#F1F1F1" height="56.2969" id="WhitespaceTokenizer" rx="2.5" ry="2.5" style="stroke:#181818;stroke-width:0.5;" width="181" x="14" y="88.2969"/><ellipse cx="29" cy="104.2969" fill="#B4A7E5" rx="11" ry="11" style="stroke:#181818;stroke-width:1.0;"/><path d="M24.9219,100.0625 L24.9219,97.9063 L32.3125,97.9063 L32.3125,100.0625 L29.8438,100.0625 L29.8438,108.1406 L32.3125,108.1406 L32.3125,110.2969 L24.9219,110.2969 L24.9219,108.1406 L27.3906,108.1406 L27.3906,100.0625 L24.9219,100.0625 Z " fill="#000000"/><text fill="#000000" font-family="sans-serif" font-size="14" font-style="italic" lengthAdjust="spacing" textLength="149" x="43" y="109.1436">WhitespaceTokenizer</text><line style="stroke:#181818;stroke-width:0.5;" x1="15" x2="194" y1="120.2969" y2="120.2969"/><text fill="#000000" font-family="sans-serif" font-size="14" lengthAdjust="spacing" textLength="79" x="20" y="137.292">type: String</text></g></a><!--MD5=[171cda7d32d04660a67e9e4c817ffb3d]
class SuggestTokenizer--><a href="SuggestTokenizer.svg" target="_top" title="SuggestTokenizer.svg" xlink:actuate="onRequest" xlink:href="SuggestTokenizer.svg" xlink:show="new" xlink:title="SuggestTokenizer.svg" xlink:type="simple"><g id="elem_SuggestTokenizer"><rect codeLine="13" fill="#F1F1F1" height="56.2969" id="SuggestTokenizer" rx="2.5" ry="2.5" style="stroke:#181818;stroke-width:0.5;" width="157" x="26" y="12"/><ellipse cx="41" cy="28" fill="#B4A7E5" rx="11" ry="11" style="stroke:#181818;stroke-width:1.0;"/><path d="M36.9219,23.7656 L36.9219,21.6094 L44.3125,21.6094 L44.3125,23.7656 L41.8438,23.7656 L41.8438,31.8438 L44.3125,31.8438 L44.3125,34 L36.9219,34 L36.9219,31.8438 L39.3906,31.8438 L39.3906,23.7656 L36.9219,23.7656 Z " fill="#000000"/><text fill="#000000" font-family="sans-serif" font-size="14" font-style="italic" lengthAdjust="spacing" textLength="125" x="55" y="32.8467">SuggestTokenizer</text><line style="stroke:#181818;stroke-width:0.5;" x1="27" x2="182" y1="44" y2="44"/><text fill="#000000" font-family="sans-serif" font-size="14" lengthAdjust="spacing" textLength="79" x="32" y="60.9951">type: String</text></g></a><line style="stroke:#181818;stroke-width:1.0;" x1="104.5" x2="104.5" y1="68.2969" y2="88.2969"/><polygon fill="#FFFFFF" points="104.5,68.2969,97.5,87.2969,111.5,87.2969,104.5,68.2969" style="stroke:#181818;stroke-width:1.0;"/><rect fill="#DDDDDD" height="79.1875" id="_legend" rx="7.5" ry="7.5" style="stroke:#000000;stroke-width:1.0;" width="161" x="12" y="145.5938"/><text fill="#000000" font-family="sans-serif" font-size="14" font-weight="bold" lengthAdjust="spacing" textLength="5" x="17" y="165.5889"> </text><text fill="#000000" font-family="sans-serif" font-size="14" font-weight="bold" lengthAdjust="spacing" textLength="28" x="34" y="165.5889">line</text><text fill="#000000" filter="url(#bx5kzinp9bfko0)" font-family="sans-serif" font-size="14" lengthAdjust="spacing" textLength="12" x="17" y="181.8857">   </text><text fill="#000000" font-family="sans-serif" font-size="14" lengthAdjust="spacing" textLength="77" x="33" y="181.8857">inheritance</text><text fill="#000000" filter="url(#bx5kzinp9bfko1)" font-family="sans-serif" font-size="14" lengthAdjust="spacing" textLength="12" x="17" y="198.1826">   </text><text fill="#000000" font-family="sans-serif" font-size="14" lengthAdjust="spacing" textLength="129" x="33" y="198.1826">property reference</text><text fill="#000000" filter="url(#bx5kzinp9bfko2)" font-family="sans-serif" font-size="14" lengthAdjust="spacing" textLength="12" x="17" y="214.4795">   </text><text fill="#000000" font-family="sans-serif" font-size="14" lengthAdjust="spacing" textLength="131" x="33" y="214.4795">discriminated class</text><line style="stroke:#000000;stroke-width:1.0;" x1="17" x2="168" y1="152.5938" y2="152.5938"/><line style="stroke:#000000;stroke-width:1.0;" x1="17" x2="168" y1="168.8906" y2="168.8906"/><line style="stroke:#000000;stroke-width:1.0;" x1="17" x2="168" y1="185.1875" y2="185.1875"/><line style="stroke:#000000;stroke-width:1.0;" x1="17" x2="168" y1="201.4844" y2="201.4844"/><line style="stroke:#000000;stroke-width:1.0;" x1="17" x2="168" y1="217.7813" y2="217.7813"/><line style="stroke:#000000;stroke-width:1.0;" x1="17" x2="17" y1="152.5938" y2="217.7813"/><line style="stroke:#000000;stroke-width:1.0;" x1="29" x2="29" y1="152.5938" y2="217.7813"/><line style="stroke:#000000;stroke-width:1.0;" x1="168" x2="168" y1="152.5938" y2="217.7813"/><!--MD5=[4034bfbfa86ad77e46f603114a80c4c5]
@startuml
!pragma layout elk
hide empty fields
hide empty methods
legend
|= |= line |
|<back:black>   </back>| inheritance |
|<back:green>   </back>| property reference |
|<back:blue>   </back>| discriminated class |
endlegend
interface WhitespaceTokenizer [[WhitespaceTokenizer.svg]] extends SuggestTokenizer {
    type: String
}
interface SuggestTokenizer [[SuggestTokenizer.svg]]  {
    type: String
}





@enduml

PlantUML version 1.2022.13(Sat Nov 19 13:22:17 UTC 2022)
(GPL source distribution)
Java Runtime: OpenJDK Runtime Environment
JVM: OpenJDK 64-Bit Server VM
Default Encoding: UTF-8
Language: en
Country: null
--></g></svg>
