<?xml version="1.0" encoding="UTF-8" standalone="no"?><svg xmlns="http://www.w3.org/2000/svg" xmlns:xlink="http://www.w3.org/1999/xlink" contentStyleType="text/css" height="336px" preserveAspectRatio="none" style="width:1422px;height:336px;background:#FFFFFF;" version="1.1" viewBox="0 0 1422 336" width="1422px" zoomAndPan="magnify"><defs><filter height="1" id="b1d3kj8j25zthp0" width="1" x="0" y="0"><feFlood flood-color="#000000" result="flood"/><feComposite in="SourceGraphic" in2="flood" operator="over"/></filter><filter height="1" id="b1d3kj8j25zthp1" width="1" x="0" y="0"><feFlood flood-color="#008000" result="flood"/><feComposite in="SourceGraphic" in2="flood" operator="over"/></filter><filter height="1" id="b1d3kj8j25zthp2" width="1" x="0" y="0"><feFlood flood-color="#0000FF" result="flood"/><feComposite in="SourceGraphic" in2="flood" operator="over"/></filter></defs><g><!--MD5=[320450b85dedff225f2ed9ab0cf42eea]
class ZoneUpdateAction--><a href="ZoneUpdateAction.svg" target="_top" title="ZoneUpdateAction.svg" xlink:actuate="onRequest" xlink:href="ZoneUpdateAction.svg" xlink:show="new" xlink:title="ZoneUpdateAction.svg" xlink:type="simple"><g id="elem_ZoneUpdateAction"><rect codeLine="10" fill="#F1F1F1" height="56.2969" id="ZoneUpdateAction" rx="2.5" ry="2.5" style="stroke:#181818;stroke-width:0.5;" width="163" x="144.7143" y="12"/><ellipse cx="159.7143" cy="28" fill="#B4A7E5" rx="11" ry="11" style="stroke:#181818;stroke-width:1.0;"/><path d="M155.6362,23.7656 L155.6362,21.6094 L163.0268,21.6094 L163.0268,23.7656 L160.558,23.7656 L160.558,31.8438 L163.0268,31.8438 L163.0268,34 L155.6362,34 L155.6362,31.8438 L158.1049,31.8438 L158.1049,23.7656 L155.6362,23.7656 Z " fill="#000000"/><text fill="#000000" font-family="sans-serif" font-size="14" font-style="italic" lengthAdjust="spacing" textLength="131" x="173.7143" y="32.8467">ZoneUpdateAction</text><line style="stroke:#181818;stroke-width:0.5;" x1="145.7143" x2="306.7143" y1="44" y2="44"/><text fill="#000000" font-family="sans-serif" font-size="14" lengthAdjust="spacing" textLength="91" x="150.7143" y="60.9951">action: String</text></g></a><!--MD5=[aa9fcc950162e1a267a5de3515b7fdd9]
class ZoneAddLocationAction--><a href="ZoneAddLocationAction.svg" target="_top" title="ZoneAddLocationAction.svg" xlink:actuate="onRequest" xlink:href="ZoneAddLocationAction.svg" xlink:show="new" xlink:title="ZoneAddLocationAction.svg" xlink:type="simple"><g id="elem_ZoneAddLocationAction"><rect codeLine="15" fill="#F1F1F1" height="72.5938" id="ZoneAddLocationAction" rx="2.5" ry="2.5" style="stroke:#181818;stroke-width:0.5;" width="200" x="987" y="163.4297"/><ellipse cx="1002" cy="179.4297" fill="#B4A7E5" rx="11" ry="11" style="stroke:#181818;stroke-width:1.0;"/><path d="M997.9219,175.1953 L997.9219,173.0391 L1005.3125,173.0391 L1005.3125,175.1953 L1002.8438,175.1953 L1002.8438,183.2734 L1005.3125,183.2734 L1005.3125,185.4297 L997.9219,185.4297 L997.9219,183.2734 L1000.3906,183.2734 L1000.3906,175.1953 L997.9219,175.1953 Z " fill="#000000"/><text fill="#000000" font-family="sans-serif" font-size="14" font-style="italic" lengthAdjust="spacing" textLength="168" x="1016" y="184.2764">ZoneAddLocationAction</text><line style="stroke:#181818;stroke-width:0.5;" x1="988" x2="1186" y1="195.4297" y2="195.4297"/><text fill="#000000" font-family="sans-serif" font-size="14" lengthAdjust="spacing" textLength="91" x="993" y="212.4248">action: String</text><text fill="#000000" font-family="sans-serif" font-size="14" lengthAdjust="spacing" textLength="59" x="993" y="228.7217">location:</text><a href="Location.svg" target="_top" title="Location.svg" xlink:actuate="onRequest" xlink:href="Location.svg" xlink:show="new" xlink:title="Location.svg" xlink:type="simple"><text fill="#0000FF" font-family="sans-serif" font-size="14" lengthAdjust="spacing" text-decoration="underline" textLength="58" x="1056" y="228.7217">Location</text></a></g></a><!--MD5=[90ad58ef3b9e48df3edafaa014327ad2]
class ZoneChangeNameAction--><a href="ZoneChangeNameAction.svg" target="_top" title="ZoneChangeNameAction.svg" xlink:actuate="onRequest" xlink:href="ZoneChangeNameAction.svg" xlink:show="new" xlink:title="ZoneChangeNameAction.svg" xlink:type="simple"><g id="elem_ZoneChangeNameAction"><rect codeLine="19" fill="#F1F1F1" height="72.5938" id="ZoneChangeNameAction" rx="2.5" ry="2.5" style="stroke:#181818;stroke-width:0.5;" width="208" x="1207" y="163.4297"/><ellipse cx="1222" cy="179.4297" fill="#B4A7E5" rx="11" ry="11" style="stroke:#181818;stroke-width:1.0;"/><path d="M1217.9219,175.1953 L1217.9219,173.0391 L1225.3125,173.0391 L1225.3125,175.1953 L1222.8438,175.1953 L1222.8438,183.2734 L1225.3125,183.2734 L1225.3125,185.4297 L1217.9219,185.4297 L1217.9219,183.2734 L1220.3906,183.2734 L1220.3906,175.1953 L1217.9219,175.1953 Z " fill="#000000"/><text fill="#000000" font-family="sans-serif" font-size="14" font-style="italic" lengthAdjust="spacing" textLength="176" x="1236" y="184.2764">ZoneChangeNameAction</text><line style="stroke:#181818;stroke-width:0.5;" x1="1208" x2="1414" y1="195.4297" y2="195.4297"/><text fill="#000000" font-family="sans-serif" font-size="14" lengthAdjust="spacing" textLength="91" x="1213" y="212.4248">action: String</text><text fill="#000000" font-family="sans-serif" font-size="14" lengthAdjust="spacing" textLength="88" x="1213" y="228.7217">name: String</text></g></a><!--MD5=[e1ab6c0969ad52f3e152c5133389d73a]
class ZoneRemoveLocationAction--><a href="ZoneRemoveLocationAction.svg" target="_top" title="ZoneRemoveLocationAction.svg" xlink:actuate="onRequest" xlink:href="ZoneRemoveLocationAction.svg" xlink:show="new" xlink:title="ZoneRemoveLocationAction.svg" xlink:type="simple"><g id="elem_ZoneRemoveLocationAction"><rect codeLine="23" fill="#F1F1F1" height="72.5938" id="ZoneRemoveLocationAction" rx="2.5" ry="2.5" style="stroke:#181818;stroke-width:0.5;" width="230" x="53" y="163.4297"/><ellipse cx="68" cy="179.4297" fill="#B4A7E5" rx="11" ry="11" style="stroke:#181818;stroke-width:1.0;"/><path d="M63.9219,175.1953 L63.9219,173.0391 L71.3125,173.0391 L71.3125,175.1953 L68.8438,175.1953 L68.8438,183.2734 L71.3125,183.2734 L71.3125,185.4297 L63.9219,185.4297 L63.9219,183.2734 L66.3906,183.2734 L66.3906,175.1953 L63.9219,175.1953 Z " fill="#000000"/><text fill="#000000" font-family="sans-serif" font-size="14" font-style="italic" lengthAdjust="spacing" textLength="198" x="82" y="184.2764">ZoneRemoveLocationAction</text><line style="stroke:#181818;stroke-width:0.5;" x1="54" x2="282" y1="195.4297" y2="195.4297"/><text fill="#000000" font-family="sans-serif" font-size="14" lengthAdjust="spacing" textLength="91" x="59" y="212.4248">action: String</text><text fill="#000000" font-family="sans-serif" font-size="14" lengthAdjust="spacing" textLength="59" x="59" y="228.7217">location:</text><a href="Location.svg" target="_top" title="Location.svg" xlink:actuate="onRequest" xlink:href="Location.svg" xlink:show="new" xlink:title="Location.svg" xlink:type="simple"><text fill="#0000FF" font-family="sans-serif" font-size="14" lengthAdjust="spacing" text-decoration="underline" textLength="58" x="122" y="228.7217">Location</text></a></g></a><!--MD5=[196c13a20ba51252732e9030ef20e597]
class ZoneSetDescriptionAction--><a href="ZoneSetDescriptionAction.svg" target="_top" title="ZoneSetDescriptionAction.svg" xlink:actuate="onRequest" xlink:href="ZoneSetDescriptionAction.svg" xlink:show="new" xlink:title="ZoneSetDescriptionAction.svg" xlink:type="simple"><g id="elem_ZoneSetDescriptionAction"><rect codeLine="27" fill="#F1F1F1" height="72.5938" id="ZoneSetDescriptionAction" rx="2.5" ry="2.5" style="stroke:#181818;stroke-width:0.5;" width="214" x="303" y="163.4297"/><ellipse cx="318" cy="179.4297" fill="#B4A7E5" rx="11" ry="11" style="stroke:#181818;stroke-width:1.0;"/><path d="M313.9219,175.1953 L313.9219,173.0391 L321.3125,173.0391 L321.3125,175.1953 L318.8438,175.1953 L318.8438,183.2734 L321.3125,183.2734 L321.3125,185.4297 L313.9219,185.4297 L313.9219,183.2734 L316.3906,183.2734 L316.3906,175.1953 L313.9219,175.1953 Z " fill="#000000"/><text fill="#000000" font-family="sans-serif" font-size="14" font-style="italic" lengthAdjust="spacing" textLength="182" x="332" y="184.2764">ZoneSetDescriptionAction</text><line style="stroke:#181818;stroke-width:0.5;" x1="304" x2="516" y1="195.4297" y2="195.4297"/><text fill="#000000" font-family="sans-serif" font-size="14" lengthAdjust="spacing" textLength="91" x="309" y="212.4248">action: String</text><text fill="#000000" font-family="sans-serif" font-size="14" lengthAdjust="spacing" textLength="126" x="309" y="228.7217">description: String</text></g></a><!--MD5=[e6fbb7527c85ee94a86600e764371532]
class ZoneSetKeyAction--><a href="ZoneSetKeyAction.svg" target="_top" title="ZoneSetKeyAction.svg" xlink:actuate="onRequest" xlink:href="ZoneSetKeyAction.svg" xlink:show="new" xlink:title="ZoneSetKeyAction.svg" xlink:type="simple"><g id="elem_ZoneSetKeyAction"><rect codeLine="31" fill="#F1F1F1" height="72.5938" id="ZoneSetKeyAction" rx="2.5" ry="2.5" style="stroke:#181818;stroke-width:0.5;" width="162" x="537" y="163.4297"/><ellipse cx="552" cy="179.4297" fill="#B4A7E5" rx="11" ry="11" style="stroke:#181818;stroke-width:1.0;"/><path d="M547.9219,175.1953 L547.9219,173.0391 L555.3125,173.0391 L555.3125,175.1953 L552.8438,175.1953 L552.8438,183.2734 L555.3125,183.2734 L555.3125,185.4297 L547.9219,185.4297 L547.9219,183.2734 L550.3906,183.2734 L550.3906,175.1953 L547.9219,175.1953 Z " fill="#000000"/><text fill="#000000" font-family="sans-serif" font-size="14" font-style="italic" lengthAdjust="spacing" textLength="130" x="566" y="184.2764">ZoneSetKeyAction</text><line style="stroke:#181818;stroke-width:0.5;" x1="538" x2="698" y1="195.4297" y2="195.4297"/><text fill="#000000" font-family="sans-serif" font-size="14" lengthAdjust="spacing" textLength="91" x="543" y="212.4248">action: String</text><text fill="#000000" font-family="sans-serif" font-size="14" lengthAdjust="spacing" textLength="73" x="543" y="228.7217">key: String</text></g></a><!--MD5=[49a54f28fc96c222809d6d9a8758b9a2]
class ZoneUpdate--><a href="ZoneUpdate.svg" target="_top" title="ZoneUpdate.svg" xlink:actuate="onRequest" xlink:href="ZoneUpdate.svg" xlink:show="new" xlink:title="ZoneUpdate.svg" xlink:type="simple"><g id="elem_ZoneUpdate"><rect codeLine="35" fill="#F1F1F1" height="72.5938" id="ZoneUpdate" rx="2.5" ry="2.5" style="stroke:#181818;stroke-width:0.5;" width="248" x="719" y="163.4297"/><ellipse cx="795.25" cy="179.4297" fill="#B4A7E5" rx="11" ry="11" style="stroke:#181818;stroke-width:1.0;"/><path d="M791.1719,175.1953 L791.1719,173.0391 L798.5625,173.0391 L798.5625,175.1953 L796.0938,175.1953 L796.0938,183.2734 L798.5625,183.2734 L798.5625,185.4297 L791.1719,185.4297 L791.1719,183.2734 L793.6406,183.2734 L793.6406,175.1953 L791.1719,175.1953 Z " fill="#000000"/><text fill="#000000" font-family="sans-serif" font-size="14" font-style="italic" lengthAdjust="spacing" textLength="87" x="815.75" y="184.2764">ZoneUpdate</text><line style="stroke:#181818;stroke-width:0.5;" x1="720" x2="966" y1="195.4297" y2="195.4297"/><text fill="#000000" font-family="sans-serif" font-size="14" lengthAdjust="spacing" textLength="93" x="725" y="212.4248">version: Long</text><text fill="#000000" font-family="sans-serif" font-size="14" lengthAdjust="spacing" textLength="55" x="725" y="228.7217">actions:</text><a href="ZoneUpdateAction.svg" target="_top" title="ZoneUpdateAction.svg" xlink:actuate="onRequest" xlink:href="ZoneUpdateAction.svg" xlink:show="new" xlink:title="ZoneUpdateAction.svg" xlink:type="simple"><text fill="#0000FF" font-family="sans-serif" font-size="14" lengthAdjust="spacing" text-decoration="underline" textLength="177" x="784" y="228.7217">List&lt;ZoneUpdateAction&gt;</text></a></g></a><line style="stroke:#0000FF;stroke-width:1.0;" x1="261.1429" x2="261.1429" y1="68.2969" y2="88.2969"/><line style="stroke:#0000FF;stroke-width:1.0;" x1="261.1429" x2="1087" y1="88.2969" y2="88.2969"/><line style="stroke:#0000FF;stroke-width:1.0;" x1="1087" x2="1087" y1="88.2969" y2="163.4297"/><polygon fill="#0000FF" points="1087,163.4297,1091,154.4297,1087,158.4297,1083,154.4297,1087,163.4297" style="stroke:#0000FF;stroke-width:1.0;"/><text fill="#000000" font-family="sans-serif" font-size="13" lengthAdjust="spacing" textLength="129" x="956" y="140.3638">action : addLocation</text><line style="stroke:#0000FF;stroke-width:1.0;" x1="284.4286" x2="284.4286" y1="68.2969" y2="78.2969"/><line style="stroke:#0000FF;stroke-width:1.0;" x1="284.4286" x2="1311" y1="78.2969" y2="78.2969"/><line style="stroke:#0000FF;stroke-width:1.0;" x1="1311" x2="1311" y1="78.2969" y2="163.4297"/><polygon fill="#0000FF" points="1311,163.4297,1315,154.4297,1311,158.4297,1307,154.4297,1311,163.4297" style="stroke:#0000FF;stroke-width:1.0;"/><text fill="#000000" font-family="sans-serif" font-size="13" lengthAdjust="spacing" textLength="137" x="1172" y="140.3638">action : changeName</text><line style="stroke:#0000FF;stroke-width:1.0;" x1="168" x2="168" y1="68.2969" y2="163.4297"/><polygon fill="#0000FF" points="168,163.4297,172,154.4297,168,158.4297,164,154.4297,168,163.4297" style="stroke:#0000FF;stroke-width:1.0;"/><text fill="#000000" font-family="sans-serif" font-size="13" lengthAdjust="spacing" textLength="154" x="12" y="140.3638">action : removeLocation</text><line style="stroke:#0000FF;stroke-width:1.0;" x1="191.2857" x2="191.2857" y1="68.2969" y2="118.2969"/><line style="stroke:#0000FF;stroke-width:1.0;" x1="191.2857" x2="410" y1="118.2969" y2="118.2969"/><line style="stroke:#0000FF;stroke-width:1.0;" x1="410" x2="410" y1="118.2969" y2="163.4297"/><polygon fill="#0000FF" points="410,163.4297,414,154.4297,410,158.4297,406,154.4297,410,163.4297" style="stroke:#0000FF;stroke-width:1.0;"/><text fill="#000000" font-family="sans-serif" font-size="13" lengthAdjust="spacing" textLength="143" x="265" y="140.3638">action : setDescription</text><line style="stroke:#0000FF;stroke-width:1.0;" x1="214.5714" x2="214.5714" y1="68.2969" y2="108.2969"/><line style="stroke:#0000FF;stroke-width:1.0;" x1="214.5714" x2="618" y1="108.2969" y2="108.2969"/><line style="stroke:#0000FF;stroke-width:1.0;" x1="618" x2="618" y1="108.2969" y2="163.4297"/><polygon fill="#0000FF" points="618,163.4297,622,154.4297,618,158.4297,614,154.4297,618,163.4297" style="stroke:#0000FF;stroke-width:1.0;"/><text fill="#000000" font-family="sans-serif" font-size="13" lengthAdjust="spacing" textLength="94" x="522" y="140.3638">action : setKey</text><line style="stroke:#008000;stroke-width:1.0;" x1="237.8571" x2="237.8571" y1="68.2969" y2="98.2969"/><line style="stroke:#008000;stroke-width:1.0;" x1="237.8571" x2="843" y1="98.2969" y2="98.2969"/><line style="stroke:#008000;stroke-width:1.0;" x1="843" x2="843" y1="98.2969" y2="163.4297"/><polygon fill="#008000" points="843,163.4297,847,154.4297,843,158.4297,839,154.4297,843,163.4297" style="stroke:#008000;stroke-width:1.0;"/><text fill="#000000" font-family="sans-serif" font-size="13" lengthAdjust="spacing" textLength="46" x="795" y="140.3638">actions</text><rect fill="#DDDDDD" height="79.1875" id="_legend" rx="7.5" ry="7.5" style="stroke:#000000;stroke-width:1.0;" width="161" x="620.5" y="237.0234"/><text fill="#000000" font-family="sans-serif" font-size="14" font-weight="bold" lengthAdjust="spacing" textLength="5" x="625.5" y="257.0186"> </text><text fill="#000000" font-family="sans-serif" font-size="14" font-weight="bold" lengthAdjust="spacing" textLength="28" x="642.5" y="257.0186">line</text><text fill="#000000" filter="url(#b1d3kj8j25zthp0)" font-family="sans-serif" font-size="14" lengthAdjust="spacing" textLength="12" x="625.5" y="273.3154">   </text><text fill="#000000" font-family="sans-serif" font-size="14" lengthAdjust="spacing" textLength="77" x="641.5" y="273.3154">inheritance</text><text fill="#000000" filter="url(#b1d3kj8j25zthp1)" font-family="sans-serif" font-size="14" lengthAdjust="spacing" textLength="12" x="625.5" y="289.6123">   </text><text fill="#000000" font-family="sans-serif" font-size="14" lengthAdjust="spacing" textLength="129" x="641.5" y="289.6123">property reference</text><text fill="#000000" filter="url(#b1d3kj8j25zthp2)" font-family="sans-serif" font-size="14" lengthAdjust="spacing" textLength="12" x="625.5" y="305.9092">   </text><text fill="#000000" font-family="sans-serif" font-size="14" lengthAdjust="spacing" textLength="131" x="641.5" y="305.9092">discriminated class</text><line style="stroke:#000000;stroke-width:1.0;" x1="625.5" x2="776.5" y1="244.0234" y2="244.0234"/><line style="stroke:#000000;stroke-width:1.0;" x1="625.5" x2="776.5" y1="260.3203" y2="260.3203"/><line style="stroke:#000000;stroke-width:1.0;" x1="625.5" x2="776.5" y1="276.6172" y2="276.6172"/><line style="stroke:#000000;stroke-width:1.0;" x1="625.5" x2="776.5" y1="292.9141" y2="292.9141"/><line style="stroke:#000000;stroke-width:1.0;" x1="625.5" x2="776.5" y1="309.2109" y2="309.2109"/><line style="stroke:#000000;stroke-width:1.0;" x1="625.5" x2="625.5" y1="244.0234" y2="309.2109"/><line style="stroke:#000000;stroke-width:1.0;" x1="637.5" x2="637.5" y1="244.0234" y2="309.2109"/><line style="stroke:#000000;stroke-width:1.0;" x1="776.5" x2="776.5" y1="244.0234" y2="309.2109"/><!--MD5=[a9a17cc44e7295ac9cc26cb2f4a0b829]
@startuml
!pragma layout elk
hide empty fields
hide empty methods
legend
|= |= line |
|<back:black>   </back>| inheritance |
|<back:green>   </back>| property reference |
|<back:blue>   </back>| discriminated class |
endlegend
interface ZoneUpdateAction [[ZoneUpdateAction.svg]]  {
    action: String
}


interface ZoneAddLocationAction [[ZoneAddLocationAction.svg]]  {
    action: String
    location: [[Location.svg Location]]
}
interface ZoneChangeNameAction [[ZoneChangeNameAction.svg]]  {
    action: String
    name: String
}
interface ZoneRemoveLocationAction [[ZoneRemoveLocationAction.svg]]  {
    action: String
    location: [[Location.svg Location]]
}
interface ZoneSetDescriptionAction [[ZoneSetDescriptionAction.svg]]  {
    action: String
    description: String
}
interface ZoneSetKeyAction [[ZoneSetKeyAction.svg]]  {
    action: String
    key: String
}
interface ZoneUpdate [[ZoneUpdate.svg]]  {
    version: Long
    actions: [[ZoneUpdateAction.svg List<ZoneUpdateAction>]]
}
ZoneUpdateAction - -> ZoneAddLocationAction #blue;text:blue : "action : addLocation"
ZoneUpdateAction - -> ZoneChangeNameAction #blue;text:blue : "action : changeName"
ZoneUpdateAction - -> ZoneRemoveLocationAction #blue;text:blue : "action : removeLocation"
ZoneUpdateAction - -> ZoneSetDescriptionAction #blue;text:blue : "action : setDescription"
ZoneUpdateAction - -> ZoneSetKeyAction #blue;text:blue : "action : setKey"
ZoneUpdateAction - -> ZoneUpdate #green;text:green : "actions"
@enduml

PlantUML version 1.2022.13(Sat Nov 19 13:22:17 UTC 2022)
(GPL source distribution)
Java Runtime: OpenJDK Runtime Environment
JVM: OpenJDK 64-Bit Server VM
Default Encoding: UTF-8
Language: en
Country: null
--></g></svg>
