<?xml version="1.0" encoding="UTF-8" standalone="no"?><svg xmlns="http://www.w3.org/2000/svg" xmlns:xlink="http://www.w3.org/1999/xlink" contentStyleType="text/css" height="261px" preserveAspectRatio="none" style="width:193px;height:261px;background:#FFFFFF;" version="1.1" viewBox="0 0 193 261" width="193px" zoomAndPan="magnify"><defs><filter height="1" id="bfhkif8ygyqn30" width="1" x="0" y="0"><feFlood flood-color="#000000" result="flood"/><feComposite in="SourceGraphic" in2="flood" operator="over"/></filter><filter height="1" id="bfhkif8ygyqn31" width="1" x="0" y="0"><feFlood flood-color="#008000" result="flood"/><feComposite in="SourceGraphic" in2="flood" operator="over"/></filter><filter height="1" id="bfhkif8ygyqn32" width="1" x="0" y="0"><feFlood flood-color="#0000FF" result="flood"/><feComposite in="SourceGraphic" in2="flood" operator="over"/></filter></defs><g><!--MD5=[e6fbb7527c85ee94a86600e764371532]
class ZoneSetKeyAction--><a href="ZoneSetKeyAction.svg" target="_top" title="ZoneSetKeyAction.svg" xlink:actuate="onRequest" xlink:href="ZoneSetKeyAction.svg" xlink:show="new" xlink:title="ZoneSetKeyAction.svg" xlink:type="simple"><g id="elem_ZoneSetKeyAction"><rect codeLine="10" fill="#F1F1F1" height="72.5938" id="ZoneSetKeyAction" rx="2.5" ry="2.5" style="stroke:#181818;stroke-width:0.5;" width="162" x="23.5" y="88.2969"/><ellipse cx="38.5" cy="104.2969" fill="#B4A7E5" rx="11" ry="11" style="stroke:#181818;stroke-width:1.0;"/><path d="M34.4219,100.0625 L34.4219,97.9063 L41.8125,97.9063 L41.8125,100.0625 L39.3438,100.0625 L39.3438,108.1406 L41.8125,108.1406 L41.8125,110.2969 L34.4219,110.2969 L34.4219,108.1406 L36.8906,108.1406 L36.8906,100.0625 L34.4219,100.0625 Z " fill="#000000"/><text fill="#000000" font-family="sans-serif" font-size="14" font-style="italic" lengthAdjust="spacing" textLength="130" x="52.5" y="109.1436">ZoneSetKeyAction</text><line style="stroke:#181818;stroke-width:0.5;" x1="24.5" x2="184.5" y1="120.2969" y2="120.2969"/><text fill="#000000" font-family="sans-serif" font-size="14" lengthAdjust="spacing" textLength="91" x="29.5" y="137.292">action: String</text><text fill="#000000" font-family="sans-serif" font-size="14" lengthAdjust="spacing" textLength="73" x="29.5" y="153.5889">key: String</text></g></a><!--MD5=[320450b85dedff225f2ed9ab0cf42eea]
class ZoneUpdateAction--><a href="ZoneUpdateAction.svg" target="_top" title="ZoneUpdateAction.svg" xlink:actuate="onRequest" xlink:href="ZoneUpdateAction.svg" xlink:show="new" xlink:title="ZoneUpdateAction.svg" xlink:type="simple"><g id="elem_ZoneUpdateAction"><rect codeLine="14" fill="#F1F1F1" height="56.2969" id="ZoneUpdateAction" rx="2.5" ry="2.5" style="stroke:#181818;stroke-width:0.5;" width="163" x="23" y="12"/><ellipse cx="38" cy="28" fill="#B4A7E5" rx="11" ry="11" style="stroke:#181818;stroke-width:1.0;"/><path d="M33.9219,23.7656 L33.9219,21.6094 L41.3125,21.6094 L41.3125,23.7656 L38.8438,23.7656 L38.8438,31.8438 L41.3125,31.8438 L41.3125,34 L33.9219,34 L33.9219,31.8438 L36.3906,31.8438 L36.3906,23.7656 L33.9219,23.7656 Z " fill="#000000"/><text fill="#000000" font-family="sans-serif" font-size="14" font-style="italic" lengthAdjust="spacing" textLength="131" x="52" y="32.8467">ZoneUpdateAction</text><line style="stroke:#181818;stroke-width:0.5;" x1="24" x2="185" y1="44" y2="44"/><text fill="#000000" font-family="sans-serif" font-size="14" lengthAdjust="spacing" textLength="91" x="29" y="60.9951">action: String</text></g></a><line style="stroke:#181818;stroke-width:1.0;" x1="104.5" x2="104.5" y1="68.2969" y2="88.2969"/><polygon fill="#FFFFFF" points="104.5,68.2969,97.5,87.2969,111.5,87.2969,104.5,68.2969" style="stroke:#181818;stroke-width:1.0;"/><rect fill="#DDDDDD" height="79.1875" id="_legend" rx="7.5" ry="7.5" style="stroke:#000000;stroke-width:1.0;" width="161" x="12" y="161.8906"/><text fill="#000000" font-family="sans-serif" font-size="14" font-weight="bold" lengthAdjust="spacing" textLength="5" x="17" y="181.8857"> </text><text fill="#000000" font-family="sans-serif" font-size="14" font-weight="bold" lengthAdjust="spacing" textLength="28" x="34" y="181.8857">line</text><text fill="#000000" filter="url(#bfhkif8ygyqn30)" font-family="sans-serif" font-size="14" lengthAdjust="spacing" textLength="12" x="17" y="198.1826">   </text><text fill="#000000" font-family="sans-serif" font-size="14" lengthAdjust="spacing" textLength="77" x="33" y="198.1826">inheritance</text><text fill="#000000" filter="url(#bfhkif8ygyqn31)" font-family="sans-serif" font-size="14" lengthAdjust="spacing" textLength="12" x="17" y="214.4795">   </text><text fill="#000000" font-family="sans-serif" font-size="14" lengthAdjust="spacing" textLength="129" x="33" y="214.4795">property reference</text><text fill="#000000" filter="url(#bfhkif8ygyqn32)" font-family="sans-serif" font-size="14" lengthAdjust="spacing" textLength="12" x="17" y="230.7764">   </text><text fill="#000000" font-family="sans-serif" font-size="14" lengthAdjust="spacing" textLength="131" x="33" y="230.7764">discriminated class</text><line style="stroke:#000000;stroke-width:1.0;" x1="17" x2="168" y1="168.8906" y2="168.8906"/><line style="stroke:#000000;stroke-width:1.0;" x1="17" x2="168" y1="185.1875" y2="185.1875"/><line style="stroke:#000000;stroke-width:1.0;" x1="17" x2="168" y1="201.4844" y2="201.4844"/><line style="stroke:#000000;stroke-width:1.0;" x1="17" x2="168" y1="217.7813" y2="217.7813"/><line style="stroke:#000000;stroke-width:1.0;" x1="17" x2="168" y1="234.0781" y2="234.0781"/><line style="stroke:#000000;stroke-width:1.0;" x1="17" x2="17" y1="168.8906" y2="234.0781"/><line style="stroke:#000000;stroke-width:1.0;" x1="29" x2="29" y1="168.8906" y2="234.0781"/><line style="stroke:#000000;stroke-width:1.0;" x1="168" x2="168" y1="168.8906" y2="234.0781"/><!--MD5=[4c8caf05f37bab4e13bd983bf92d85a6]
@startuml
!pragma layout elk
hide empty fields
hide empty methods
legend
|= |= line |
|<back:black>   </back>| inheritance |
|<back:green>   </back>| property reference |
|<back:blue>   </back>| discriminated class |
endlegend
interface ZoneSetKeyAction [[ZoneSetKeyAction.svg]] extends ZoneUpdateAction {
    action: String
    key: String
}
interface ZoneUpdateAction [[ZoneUpdateAction.svg]]  {
    action: String
}





@enduml

PlantUML version 1.2022.13(Sat Nov 19 13:22:17 UTC 2022)
(GPL source distribution)
Java Runtime: OpenJDK Runtime Environment
JVM: OpenJDK 64-Bit Server VM
Default Encoding: UTF-8
Language: en
Country: null
--></g></svg>
